<svg xmlns="http://www.w3.org/2000/svg" width="121.833" height="124.586" viewBox="0 0 121.833 124.586">
  <g id="Grupo_69984" data-name="Grupo 69984" transform="translate(-471.077 -152.453)">
    <path id="Trazado_161888" data-name="Trazado 161888" d="M592.9,214.826c.737,34.608-28.657,62.129-60.791,62.213-31.427.082-61.391-26.635-61.025-62.014.361-34.865,27.105-62.618,61.063-62.572C565.737,152.5,592.868,180.354,592.9,214.826Zm-45.788-51.761c-10.269,1.331-19.786,2.475-29.255,3.938-.888.137-2.118,2.3-2.079,3.488.2,6.15.681,12.3,1.22,18.429,1.253,14.246,2.51,28.493,4.046,42.71.141,1.307,2.185,3.254,3.533,3.425,3.773.48,7.664-.052,11.473.256,4.734.383,6.3-1.414,6.52-6.205.549-12.114,1.766-24.2,2.629-36.3C545.879,183.222,546.434,173.628,547.108,163.065ZM531.24,265.4c8.66-.012,15.371-5.894,15.464-13.554.1-8.07-6.654-14.424-15.23-14.329-8.331.091-15.283,6.393-15.379,13.94C516,259.094,522.86,265.412,531.24,265.4Z" fill="#ffd701"/>
    <path id="Trazado_161889" data-name="Trazado 161889" d="M547.108,163.065c-.674,10.563-1.229,20.157-1.913,29.742-.863,12.1-2.08,24.185-2.629,36.3-.216,4.791-1.786,6.588-6.52,6.205-3.809-.308-7.7.224-11.473-.256-1.348-.171-3.392-2.118-3.533-3.425-1.536-14.217-2.793-28.464-4.046-42.71-.539-6.133-1.018-12.279-1.22-18.429-.039-1.186,1.191-3.351,2.079-3.488C527.322,165.54,536.839,164.4,547.108,163.065Z" fill="#12263f"/>
    <path id="Trazado_161890" data-name="Trazado 161890" d="M531.24,265.4c-8.38.013-15.242-6.3-15.145-13.943.1-7.547,7.048-13.849,15.379-13.94,8.576-.1,15.329,6.259,15.23,14.329C546.611,259.505,539.9,265.387,531.24,265.4Z" fill="#12263f"/>
  </g>
</svg>
