<svg xmlns="http://www.w3.org/2000/svg" xmlns:xlink="http://www.w3.org/1999/xlink" width="85" height="85" viewBox="0 0 85 85">
  <defs>
    <clipPath id="clip-path">
      <rect id="Rectángulo_21419" data-name="Rectángulo 21419" width="85" height="85" transform="translate(343 3042)" fill="#fff" stroke="#707070" stroke-width="1"/>
    </clipPath>
  </defs>
  <g id="Enmascarar_grupo_68" data-name="Enmascarar grupo 68" transform="translate(-343 -3042)" clip-path="url(#clip-path)">
    <g id="rating_2_" data-name="rating (2)" transform="translate(340.539 3039.515)">
      <path id="Trazado_168675" data-name="Trazado 168675" d="M64.5,69.028a1.215,1.215,0,0,1-.867-.364,11.045,11.045,0,0,0-1.8-1.478,1.215,1.215,0,0,1,1.337-2.027,13.565,13.565,0,0,1,2.187,1.8,1.215,1.215,0,0,1-.868,2.066Z" fill="#2971af"/>
      <path id="Trazado_168676" data-name="Trazado 168676" d="M67.923,87.485H21.847a1.215,1.215,0,0,1-1.215-1.215V76.246A13.32,13.32,0,0,1,33.937,62.941H55.784a1.215,1.215,0,1,1,0,2.43H33.937A10.887,10.887,0,0,0,23.062,76.246v8.809H66.707V76.246a10.692,10.692,0,0,0-.294-2.52,1.215,1.215,0,1,1,2.36-.578,13.156,13.156,0,0,1,.365,3.094V86.27A1.215,1.215,0,0,1,67.923,87.485Z" fill="#2971af"/>
      <path id="Trazado_168677" data-name="Trazado 168677" d="M44.882,58.316A12.734,12.734,0,1,1,57.616,45.582,12.734,12.734,0,0,1,44.882,58.316Zm0-23.038a10.3,10.3,0,1,0,10.3,10.3A10.3,10.3,0,0,0,44.882,35.278Z" fill="#2971af"/>
      <path id="Trazado_168678" data-name="Trazado 168678" d="M56.72,87.485H33.05a1.215,1.215,0,0,1-1.215-1.215V79.334a1.215,1.215,0,1,1,2.43,0v5.721H55.5V79.334a1.215,1.215,0,1,1,2.43,0V86.27A1.215,1.215,0,0,1,56.72,87.485Z" fill="#2971af"/>
      <path id="Trazado_168679" data-name="Trazado 168679" d="M81.994,36.574a1.215,1.215,0,0,1-.565-.14l-6.278-3.3-6.277,3.3a1.215,1.215,0,0,1-1.764-1.281l1.2-6.99-5.078-4.955a1.215,1.215,0,0,1,.672-2.073l7.019-1.021,3.139-6.36a1.265,1.265,0,0,1,2.18,0l3.139,6.36L86.4,21.135a1.215,1.215,0,0,1,.673,2.073l-5.079,4.95,1.2,6.99a1.215,1.215,0,0,1-1.2,1.42Zm-6.843-6.028a1.2,1.2,0,0,1,.565.14l4.665,2.452-.892-5.191a1.215,1.215,0,0,1,.351-1.077l3.773-3.678L78.4,22.435a1.215,1.215,0,0,1-.915-.665l-2.332-4.725-2.332,4.721a1.215,1.215,0,0,1-.915.665l-5.215.757,3.774,3.678a1.215,1.215,0,0,1,.35,1.077l-.892,5.193,4.665-2.452a1.2,1.2,0,0,1,.565-.14Z" fill="#2971af"/>
      <path id="Trazado_168680" data-name="Trazado 168680" d="M51.8,25.921a1.225,1.225,0,0,1-.565-.139l-6.278-3.3-6.278,3.3A1.215,1.215,0,0,1,36.916,24.5l1.2-6.992-5.079-4.95a1.215,1.215,0,0,1,.673-2.073l7.019-1.019,3.135-6.357a1.265,1.265,0,0,1,2.18,0l3.142,6.36,7.019,1.019a1.215,1.215,0,0,1,.673,2.073L51.8,17.51,53,24.5a1.215,1.215,0,0,1-1.2,1.419Zm-6.843-6.027a1.215,1.215,0,0,1,.565.139l4.66,2.452-.892-5.193a1.215,1.215,0,0,1,.35-1.075l3.774-3.678-5.21-.752a1.215,1.215,0,0,1-.915-.666L44.958,6.391l-2.332,4.724a1.215,1.215,0,0,1-.915.666l-5.215.757,3.774,3.678a1.215,1.215,0,0,1,.35,1.075l-.887,5.193L44.4,20.033A1.215,1.215,0,0,1,44.958,19.894Z" fill="#2971af"/>
      <path id="Trazado_168681" data-name="Trazado 168681" d="M21.608,36.574a1.215,1.215,0,0,1-.566-.14l-6.277-3.3-6.278,3.3a1.215,1.215,0,0,1-1.763-1.281l1.2-6.99L2.843,23.208a1.215,1.215,0,0,1,.673-2.066l7.019-1.021,3.139-6.36a1.265,1.265,0,0,1,2.18,0l3.139,6.36,7.019,1.021a1.215,1.215,0,0,1,.672,2.073l-5.078,4.95,1.2,6.99a1.215,1.215,0,0,1-1.2,1.42Zm-6.843-6.028a1.2,1.2,0,0,1,.565.14l4.665,2.452L19.1,27.947a1.215,1.215,0,0,1,.35-1.077l3.774-3.678-5.215-.757a1.215,1.215,0,0,1-.915-.665l-2.332-4.725L12.433,21.77a1.215,1.215,0,0,1-.915.665L6.3,23.192l3.767,3.678a1.215,1.215,0,0,1,.357,1.077l-.892,5.188L14.2,30.683a1.2,1.2,0,0,1,.565-.14Z" fill="#2971af"/>
    </g>
  </g>
</svg>
