<svg xmlns="http://www.w3.org/2000/svg" width="295" height="276.047" viewBox="0 0 295 276.047">
  <g id="Grupo_75103" data-name="Grupo 75103" transform="translate(-543.83 -610.978)">
    <g id="Grupo_75102" data-name="Grupo 75102" transform="translate(543.83 610.978)">
      <path id="Trazado_168828" data-name="Trazado 168828" d="M784.426,883.626c-67.861-22.778-83.682-158.678-33.691-227.569,25.187-34.708,68.205-52.335,105.06-42.267,58.612,16.013,96.114,100.568,70.678,176.392C903.737,857.958,831.912,899.565,784.426,883.626Z" transform="translate(-703.63 -610.978)" fill="#ecf3fe"/>
      <path id="Trazado_168829" data-name="Trazado 168829" d="M1405.4,1783.443l-5.256-129.685a5.1,5.1,0,0,0-5.3-4.886l-183.965,7.455a5.1,5.1,0,0,0-4.886,5.3l5.256,129.685a5.1,5.1,0,0,0,5.3,4.886l183.965-7.455A5.1,5.1,0,0,0,1405.4,1783.443Z" transform="translate(-1139.558 -1544.734)" fill="#3a7ec1" opacity="0.2" style="mix-blend-mode: multiply;isolation: isolate"/>
      <path id="Trazado_168830" data-name="Trazado 168830" d="M1121.569,1616.586a5.857,5.857,0,0,1-5.729-4.685l-25.806-127.2a5.854,5.854,0,0,1,4.568-6.893l180.44-36.607a5.847,5.847,0,0,1,6.893,4.568l25.806,127.2a5.847,5.847,0,0,1-4.568,6.893l-180.44,36.607A5.84,5.84,0,0,1,1121.569,1616.586Zm154.645-174a4.381,4.381,0,0,0-.873.088l-180.44,36.607a4.351,4.351,0,0,0-3.4,5.123l25.806,127.2a4.351,4.351,0,0,0,5.123,3.4l180.44-36.607a4.345,4.345,0,0,0,3.4-5.123l-25.806-127.2a4.349,4.349,0,0,0-4.25-3.483Z" transform="translate(-1035.127 -1357.796)" fill="#444"/>
      <g id="Grupo_75098" data-name="Grupo 75098" transform="translate(63.338 100.826)">
        <path id="Trazado_168831" data-name="Trazado 168831" d="M1369.63,1755.765l-183.965,7.455a5.1,5.1,0,0,1-5.3-4.886l-5.255-129.685a5.1,5.1,0,0,1,4.886-5.3l183.965-7.455a5.1,5.1,0,0,1,5.3,4.886l5.255,129.685A5.1,5.1,0,0,1,1369.63,1755.765Z" transform="translate(-1175.107 -1615.891)" fill="#529ad9"/>
        <rect id="Rectángulo_21470" data-name="Rectángulo 21470" width="21.571" height="29.184" transform="translate(19 103.941) rotate(-2.321)" fill="#d1d82a"/>
        <rect id="Rectángulo_21471" data-name="Rectángulo 21471" width="21.571" height="47.371" transform="translate(53.763 84.33) rotate(-2.321)" fill="#fff"/>
        <rect id="Rectángulo_21472" data-name="Rectángulo 21472" width="21.571" height="38.912" transform="translate(89.605 91.344) rotate(-2.321)" fill="#d1d82a"/>
        <rect id="Rectángulo_21473" data-name="Rectángulo 21473" width="21.571" height="77.824" transform="translate(123.528 51.025) rotate(-2.321)" fill="#fff"/>
        <rect id="Rectángulo_21474" data-name="Rectángulo 21474" width="21.571" height="91.782" transform="translate(158.463 35.64) rotate(-2.321)" fill="#d1d82a"/>
      </g>
      <path id="Trazado_168832" data-name="Trazado 168832" d="M753.351,1347.879s-46.2,91.868-86.875,119.139L566.311,1418.2s81.375-68.926,85.75-102.116Z" transform="translate(-564.055 -1245.339)" fill="#3a7ec1" opacity="0.25" style="mix-blend-mode: multiply;isolation: isolate"/>
      <g id="Grupo_75101" data-name="Grupo 75101" transform="translate(0 21.872)">
        <path id="Trazado_168833" data-name="Trazado 168833" d="M640.245,855.427l105.231,49.758s-43.713,95.959-96.405,132.8L543.83,988.219c52.693-36.838,96.405-132.8,96.405-132.8" transform="translate(-543.83 -852.768)" fill="#fff"/>
        <path id="Trazado_168834" data-name="Trazado 168834" d="M917.881,1577.835c-2.624,4.046-5.363,8.126-8.206,12.2-.4.576-.809,1.157-1.216,1.731-11.1,15.747-23.719,31.234-37.193,43.563l-84.591-40q3.249-2.969,6.43-6.177,1.291-1.306,2.566-2.637c13.958-14.548,26.761-31.957,37.62-48.68Z" transform="translate(-762.309 -1466.714)" fill="#e4ecf9"/>
        <path id="Trazado_168835" data-name="Trazado 168835" d="M1608.069,1369.411l-42.57-20.129a2.969,2.969,0,0,1-1.411-3.942h0a2.969,2.969,0,0,1,3.942-1.411l42.571,20.129a2.969,2.969,0,0,1,1.411,3.942h0A2.969,2.969,0,0,1,1608.069,1369.411Z" transform="translate(-1461.469 -1292.008)" fill="#a0a603"/>
        <path id="Trazado_168836" data-name="Trazado 168836" d="M1471.1,1472.517l-60.669-28.687a2.969,2.969,0,0,1-1.411-3.942h0a2.97,2.97,0,0,1,3.942-1.411l60.669,28.687a2.969,2.969,0,0,1,1.411,3.942h0A2.969,2.969,0,0,1,1471.1,1472.517Z" transform="translate(-1321.96 -1377.069)" fill="#e4ecf9"/>
        <path id="Trazado_168837" data-name="Trazado 168837" d="M908.582,1997.227c-11.1,15.747-23.719,31.234-37.193,43.563l-84.591-40q3.249-2.969,6.429-6.177a1.109,1.109,0,0,0,.288.2,1.07,1.07,0,0,0,.9.007c.221-.1,22.511-10.068,40.027-.438,7.684,4.232,14.944,1.7,23.358-1.222C869.984,1988.923,885.154,1983.656,908.582,1997.227Z" transform="translate(-762.419 -1872.169)" fill="#c9daf4"/>
        <path id="Trazado_168838" data-name="Trazado 168838" d="M967.328,1976.195c-.4.577-.809,1.157-1.216,1.732-23.428-13.572-38.6-8.3-50.787-4.065-8.414,2.923-15.674,5.455-23.358,1.222-17.523-9.633-39.806.337-40.027.438a1.069,1.069,0,0,1-.9-.007,1.1,1.1,0,0,1-.288-.2q1.291-1.305,2.566-2.637c6.292-2.373,24.382-7.85,39.665.556,6.862,3.773,13.381,1.5,21.645-1.368,12.612-4.381,28.309-9.834,52.621,4.282A.618.618,0,0,1,967.328,1976.195Z" transform="translate(-819.962 -1852.874)" fill="#52a1ff"/>
        <path id="Trazado_168839" data-name="Trazado 168839" d="M1808.178,871.312a24.808,24.808,0,1,0,12.163,32.905A24.806,24.806,0,0,0,1808.178,871.312Z" transform="translate(-1649.67 -865.015)" fill="#3a7ec1" opacity="0.2" style="mix-blend-mode: multiply;isolation: isolate"/>
        <g id="Grupo_75100" data-name="Grupo 75100" transform="translate(124.088)">
          <path id="Trazado_168840" data-name="Trazado 168840" d="M1827.939,864.159a24.806,24.806,0,1,1-12.163-32.905A24.781,24.781,0,0,1,1827.939,864.159Z" transform="translate(-1780.593 -828.976)" fill="#fff"/>
          <g id="Grupo_75099" data-name="Grupo 75099" transform="translate(6.693 11.934)">
            <path id="Trazado_168841" data-name="Trazado 168841" d="M1868.29,1168.881a20.671,20.671,0,0,1-20.984-9.934c1.791-1.634,4.686-3.125,9.285-3.091l.182,0,.184,0h0l.229.007.22.009.124.006.042,0h.022l.175.01.279.018q.435.031.89.081l.264.03,3.5,1.611.029.032.011.013.011.012.031.035c.062.069.156.177.277.321.08.1.173.207.275.333l.062.077.132.165c.047.059.1.121.146.186l.143.184c.018.024.036.048.055.072q.142.187.3.4c.044.059.088.12.133.182C1865.824,1161.747,1867.929,1165.245,1868.29,1168.881Z" transform="translate(-1847.306 -1134.993)" fill="#f4b545"/>
            <path id="Trazado_168842" data-name="Trazado 168842" d="M1947.558,1159.646c-5.937,2.727-7.418-2.345-7.713-3.787q.182,0,.366.006,1.063.026,2.247.164l3.5,1.611a23.332,23.332,0,0,1,1.468,1.825C1947.47,1159.524,1947.513,1159.585,1947.558,1159.646Z" transform="translate(-1930.56 -1134.995)" fill="#fdc8aa"/>
            <path id="Trazado_168843" data-name="Trazado 168843" d="M1950.708,1159.518c-5.361.453-6.9-2.755-7.215-3.6q1.063.026,2.247.164l3.5,1.611A23.4,23.4,0,0,1,1950.708,1159.518Z" transform="translate(-1933.842 -1135.049)" fill="#f4a882"/>
            <path id="Trazado_168844" data-name="Trazado 168844" d="M1941.944,966.843s4.123.1,6.295-7.742-1.245-8.7-3.333-8.22-9.268-4.7-12.144-2.354-8.751,11.361-5.606,13.274S1941.944,966.843,1941.944,966.843Z" transform="translate(-1918.333 -947.915)" fill="#1f3a6f"/>
            <path id="Trazado_168845" data-name="Trazado 168845" d="M1948.161,1011.415c-2.231,4.847-7.6,7.136-12,5.113a8.844,8.844,0,0,1-4.836-9.111,10.515,10.515,0,0,1,.915-3.329,9.634,9.634,0,0,1,9.244-5.826,8.011,8.011,0,0,1,2.755.713C1948.636,1001,1950.392,1006.568,1948.161,1011.415Z" transform="translate(-1922.848 -993.19)" fill="#fdc8aa"/>
            <path id="Trazado_168846" data-name="Trazado 168846" d="M1973.136,1127.461l5.328,2.294a.282.282,0,0,1,.077.47,3.481,3.481,0,0,1-3.759.627,3.1,3.1,0,0,1-2.04-3.145A.282.282,0,0,1,1973.136,1127.461Z" transform="translate(-1960.154 -1109.425)" fill="#fff"/>
            <path id="Trazado_168847" data-name="Trazado 168847" d="M1931.8,1007.417a10.516,10.516,0,0,1,.916-3.329,9.633,9.633,0,0,1,9.244-5.826c1.491.668,2.52,1.132,2.586,1.162a39.818,39.818,0,0,1,1.918,4.293S1935.312,998.743,1931.8,1007.417Z" transform="translate(-1923.322 -993.19)" fill="#f4a882"/>
            <path id="Trazado_168848" data-name="Trazado 168848" d="M1939.923,980.009a32,32,0,0,1,6.657-1.345c4.043-.248,10.1,5.369,10.382,8.181s3-5.808,3-5.808-.438-2.693-.955-3.027-4.405-2.507-4.405-2.507l-4.761-2.047s-2.788-.085-2.943-.061-4.508,3.2-4.508,3.2Z" transform="translate(-1930.63 -970.834)" fill="#1f3a6f"/>
          </g>
        </g>
      </g>
      <circle id="Elipse_4551" data-name="Elipse 4551" cx="28.418" cy="28.418" r="28.418" transform="translate(237.753 146.241)" fill="#3a7ec1" opacity="0.2" style="mix-blend-mode: multiply;isolation: isolate"/>
      <circle id="Elipse_4552" data-name="Elipse 4552" cx="28.418" cy="28.418" r="28.418" transform="translate(238.163 141.158)" fill="#f9c067"/>
      <path id="Trazado_168849" data-name="Trazado 168849" d="M3050.4,2230.829l.831-11.883-11.913.035,0,1.986,7.668-.024-8.688,8.126-10.172-6.787a1.437,1.437,0,0,0-1.742.112l-12.193,10.63a1.437,1.437,0,1,0,1.889,2.167l11.365-9.908,10.206,6.809a1.438,1.438,0,0,0,1.78-.146l9.522-8.907-.537,7.653Z" transform="translate(-2765.89 -2057.614)" fill="#fff"/>
      <circle id="Elipse_4553" data-name="Elipse 4553" cx="8.248" cy="8.248" r="8.248" transform="translate(197.719 47.898) rotate(-45)" fill="#a0a603"/>
      <circle id="Elipse_4554" data-name="Elipse 4554" cx="6.685" cy="6.685" r="6.685" transform="matrix(0.355, -0.935, 0.935, 0.355, 183.377, 270.195)" fill="#a0a603"/>
      <circle id="Elipse_4555" data-name="Elipse 4555" cx="4.645" cy="4.645" r="4.645" transform="matrix(0.914, -0.405, 0.405, 0.914, 38.96, 78.425)" fill="#a0a603"/>
      <circle id="Elipse_4556" data-name="Elipse 4556" cx="5.421" cy="5.421" r="5.421" transform="translate(272.013 128.901)" fill="#f9c067"/>
      <circle id="Elipse_4557" data-name="Elipse 4557" cx="2.941" cy="2.941" r="2.941" transform="translate(265.85 121.474)" fill="#f9c067"/>
    </g>
  </g>
</svg>
