<svg xmlns="http://www.w3.org/2000/svg" xmlns:xlink="http://www.w3.org/1999/xlink" width="242" height="155.951" viewBox="0 0 242 155.951">
  <defs>
    <linearGradient id="linear-gradient" x1="0.5" y1="-0.221" x2="0.5" y2="0.926" gradientUnits="objectBoundingBox">
      <stop offset="0" stop-color="#ffd900"/>
      <stop offset="1" stop-color="#ffad00"/>
    </linearGradient>
    <linearGradient id="linear-gradient-5" x1="0.5" y1="-1.496" x2="0.5" y2="0.884" xlink:href="#linear-gradient"/>
  </defs>
  <g id="Grupo_75095" data-name="Grupo 75095" transform="translate(30.313 8142)">
    <rect id="Rect치ngulo_21468" data-name="Rect치ngulo 21468" width="236" height="60" rx="24" transform="translate(-27.313 -8139.047)" fill="#fff"/>
    <g id="Grupo_74743" data-name="Grupo 74743" transform="translate(-30.313 -8142)" opacity="0.5">
      <path id="Trazado_168692" data-name="Trazado 168692" d="M-282.115,1104.721H-456.666a33.445,33.445,0,0,1-33.407-33.407,33.445,33.445,0,0,1,33.407-33.407h174.551a33.445,33.445,0,0,1,33.407,33.407A33.445,33.445,0,0,1-282.115,1104.721ZM-456.666,1040.8a30.545,30.545,0,0,0-30.51,30.51,30.545,30.545,0,0,0,30.51,30.511h174.551a30.545,30.545,0,0,0,30.51-30.511,30.545,30.545,0,0,0-30.51-30.51Z" transform="translate(490.073 -1037.907)" fill="#6f7302"/>
    </g>
    <path id="Trazado_168693" data-name="Trazado 168693" d="M263.881,1109.065l3.6,7.13a2.119,2.119,0,0,0,1.605,1.145l7.914,1.077a2.884,2.884,0,0,1,1.643,4.906l-5.669,5.626a2.118,2.118,0,0,0-.592,1.88l1.421,7.86a2.885,2.885,0,0,1-4.158,3.079l-7.1-3.653a2.117,2.117,0,0,0-1.971.018l-7.036,3.78a2.885,2.885,0,0,1-4.213-3l1.28-7.884a2.119,2.119,0,0,0-.626-1.869l-5.769-5.523a2.885,2.885,0,0,1,1.555-4.935l7.893-1.219a2.118,2.118,0,0,0,1.585-1.173l3.47-7.194A2.885,2.885,0,0,1,263.881,1109.065Z" transform="translate(-129.214 -9235.78)" fill="url(#linear-gradient)"/>
    <path id="Trazado_168694" data-name="Trazado 168694" d="M476.274,1109.065l3.6,7.13a2.119,2.119,0,0,0,1.605,1.145l7.914,1.077a2.884,2.884,0,0,1,1.643,4.906l-5.669,5.626a2.118,2.118,0,0,0-.592,1.88l1.421,7.86a2.885,2.885,0,0,1-4.158,3.079l-7.1-3.653a2.118,2.118,0,0,0-1.971.018l-7.036,3.78a2.885,2.885,0,0,1-4.213-3l1.28-7.884a2.118,2.118,0,0,0-.626-1.869l-5.769-5.523a2.885,2.885,0,0,1,1.554-4.935l7.893-1.219a2.118,2.118,0,0,0,1.585-1.173l3.47-7.194A2.885,2.885,0,0,1,476.274,1109.065Z" transform="translate(-299.784 -9235.78)" fill="#dbdbdb"/>
    <g id="Grupo_74744" data-name="Grupo 74744" transform="translate(155.921 -8128.301)" opacity="0.3" style="mix-blend-mode: multiply;isolation: isolate">
      <path id="Trazado_168695" data-name="Trazado 168695" d="M601.664,1223.536a2.113,2.113,0,0,1-.016-.618,2.216,2.216,0,0,0-.36,1.631l1.317,7.792a3.049,3.049,0,0,1-.059,1.312,2.834,2.834,0,0,0,.539-2.258Z" transform="translate(-572.596 -1200.187)" fill="#5aa0a0"/>
      <path id="Trazado_168696" data-name="Trazado 168696" d="M489.392,1118.417l-7.914-1.077a2.118,2.118,0,0,1-1.605-1.145l-3.6-7.13a2.885,2.885,0,0,0-5.173.046l-3.47,7.194a2.118,2.118,0,0,1-1.585,1.173l-7.893,1.219a2.885,2.885,0,0,0-1.555,4.935l5.769,5.523a2.118,2.118,0,0,1,.626,1.869l-1.28,7.884a2.877,2.877,0,0,0,1.96,3.208,2.958,2.958,0,0,1-.575-2.279l1.177-7.815a2.2,2.2,0,0,0-.579-1.854l-5.333-5.479a2.919,2.919,0,0,1,1.433-4.891l7.291-1.2a1.973,1.973,0,0,0,1.463-1.162l3.2-7.129a2.588,2.588,0,0,1,4.779-.043l3.329,7.071a1.972,1.972,0,0,0,1.484,1.135l7.312,1.073a2.9,2.9,0,0,1,2.014,4.145l.365-.362A2.885,2.885,0,0,0,489.392,1118.417Z" transform="translate(-455.705 -1107.48)" fill="#5aa0a0"/>
    </g>
    <path id="Trazado_168698" data-name="Trazado 168698" d="M-160.9,1109.065l3.6,7.13a2.119,2.119,0,0,0,1.605,1.145l7.914,1.077a2.884,2.884,0,0,1,1.643,4.906l-5.669,5.626a2.118,2.118,0,0,0-.592,1.88l1.421,7.86a2.885,2.885,0,0,1-4.158,3.079l-7.1-3.653a2.118,2.118,0,0,0-1.971.018l-7.036,3.78a2.885,2.885,0,0,1-4.213-3l1.28-7.884a2.118,2.118,0,0,0-.626-1.869l-5.769-5.523a2.885,2.885,0,0,1,1.555-4.935l7.893-1.219a2.117,2.117,0,0,0,1.585-1.173l3.47-7.194A2.885,2.885,0,0,1-160.9,1109.065Z" transform="translate(211.927 -9235.78)" fill="url(#linear-gradient)"/>
    <path id="Trazado_168699" data-name="Trazado 168699" d="M-373.3,1109.065l3.6,7.13a2.119,2.119,0,0,0,1.605,1.145l7.914,1.077a2.884,2.884,0,0,1,1.643,4.906l-5.669,5.626a2.118,2.118,0,0,0-.592,1.88l1.421,7.86a2.885,2.885,0,0,1-4.158,3.079l-7.1-3.653a2.117,2.117,0,0,0-1.971.018l-7.036,3.78a2.885,2.885,0,0,1-4.213-3l1.28-7.884a2.118,2.118,0,0,0-.626-1.869l-5.769-5.523a2.885,2.885,0,0,1,1.555-4.935l7.893-1.219a2.118,2.118,0,0,0,1.585-1.173l3.47-7.194A2.885,2.885,0,0,1-373.3,1109.065Z" transform="translate(382.497 -9235.78)" fill="url(#linear-gradient)"/>
    <g id="Grupo_74748" data-name="Grupo 74748" transform="translate(155.921 -8102.404)">
      <g id="Grupo_74745" data-name="Grupo 74745" transform="translate(0 0)">
        <path id="Trazado_168700" data-name="Trazado 168700" d="M476.274,1240.582l3.6,7.13a2.118,2.118,0,0,0,1.605,1.145l7.914,1.077a2.885,2.885,0,0,1,1.643,4.906l-5.669,5.626a2.118,2.118,0,0,0-.592,1.881l1.421,7.859a2.885,2.885,0,0,1-4.158,3.078l-7.1-3.653a2.12,2.12,0,0,0-1.971.018l-7.036,3.78a2.885,2.885,0,0,1-4.213-3l1.28-7.884a2.119,2.119,0,0,0-.626-1.87l-5.769-5.523a2.885,2.885,0,0,1,1.554-4.935l7.893-1.219a2.118,2.118,0,0,0,1.585-1.173l3.47-7.193A2.885,2.885,0,0,1,476.274,1240.582Z" transform="translate(-455.705 -1238.997)" fill="url(#linear-gradient)"/>
        <path id="Trazado_168701" data-name="Trazado 168701" d="M538.177,1336.915c0-3.38-1.247-9.634-6.12-9.634s-6.12,6.254-6.12,9.634v5.475l3.428-1.842a2.119,2.119,0,0,1,1.972-.018l6.842,3.519Z" transform="translate(-512.107 -1309.897)" opacity="0.3" fill="url(#linear-gradient-5)" style="mix-blend-mode: multiply;isolation: isolate"/>
      </g>
      <g id="Grupo_74747" data-name="Grupo 74747" transform="translate(6.276 17.384)">
        <g id="Grupo_74746" data-name="Grupo 74746">
          <path id="Trazado_168702" data-name="Trazado 168702" d="M496.654,1523.891s-10.024-11.133-9-18.954,9.067-8.274,12.014-7.48S509.851,1526.524,496.654,1523.891Z" transform="translate(-487.577 -1463.724)" fill="#f9a97d"/>
          <path id="Trazado_168703" data-name="Trazado 168703" d="M588.819,1482.55c.006-.177.01-.349.01-.513v-30.694a6.12,6.12,0,0,0-12.241,0v30.694c0,.164,0,.336.01.513Z" transform="translate(-559.061 -1421.999)" fill="#ffbc91"/>
          <path id="Trazado_168704" data-name="Trazado 168704" d="M638.906,1490.87V1461.7a6.12,6.12,0,0,0-6.12-6.12h0a6.12,6.12,0,0,0-6.12,6.12v29.167Z" transform="translate(-599.277 -1430.319)" fill="#ffbc91"/>
          <path id="Trazado_168705" data-name="Trazado 168705" d="M669.987,1504.59V1485.3a6.12,6.12,0,0,0-6.12-6.12h0a6.12,6.12,0,0,0-6.12,6.12v24.519h7.008A5.232,5.232,0,0,0,669.987,1504.59Z" transform="translate(-624.238 -1449.272)" fill="#ffbc91"/>
          <path id="Trazado_168706" data-name="Trazado 168706" d="M547.908,1370.027h-4.334a12.88,12.88,0,0,1-12.88-12.88v-20.232c0-3.38-1.247-9.634-6.12-9.634s-6.12,6.254-6.12,9.634v40.592a18.746,18.746,0,0,0,.959,5.117c1.783,5.255,6.088,14.223,14.7,14.223h13.8c5.641,0,10.215-4.922,10.215-10.994v-4.832C558.123,1374.949,553.55,1370.027,547.908,1370.027Z" transform="translate(-512.374 -1327.281)" fill="#ffbc91"/>
        </g>
        <path id="Rect치ngulo_21427" data-name="Rect치ngulo 21427" d="M3.627,0H33.755a3.627,3.627,0,0,1,3.627,3.627v0a3.627,3.627,0,0,1-3.627,3.627H3.627A3.627,3.627,0,0,1,0,3.627v0A3.627,3.627,0,0,1,3.627,0Z" transform="translate(8.367 64.253)" fill="#fff"/>
        <path id="Trazado_168707" data-name="Trazado 168707" d="M556.674,1680.565H514.3a1.029,1.029,0,0,0-1.029,1.029v28.377H557.7v-28.377A1.029,1.029,0,0,0,556.674,1680.565Z" transform="translate(-508.213 -1610.999)" fill="#222"/>
      </g>
      <circle id="Elipse_4544" data-name="Elipse 4544" cx="2.588" cy="2.588" r="2.588" transform="translate(46.324 93.048) rotate(-13.283)" fill="#fff" opacity="0.3"/>
      <circle id="Elipse_4545" data-name="Elipse 4545" cx="2.588" cy="2.588" r="2.588" transform="translate(45.777 103.51) rotate(-45)" fill="#fff" opacity="0.3"/>
    </g>
    <path id="Trazado_168697" data-name="Trazado 168697" d="M51.488,1109.065l3.6,7.13a2.119,2.119,0,0,0,1.605,1.145l7.914,1.077a2.884,2.884,0,0,1,1.643,4.906l-5.669,5.626a2.118,2.118,0,0,0-.592,1.88l1.421,7.86a2.885,2.885,0,0,1-4.158,3.079l-7.1-3.653a2.118,2.118,0,0,0-1.971.018l-7.036,3.78a2.885,2.885,0,0,1-4.213-3l1.28-7.884a2.118,2.118,0,0,0-.626-1.869l-5.769-5.523a2.885,2.885,0,0,1,1.555-4.935l7.893-1.219a2.117,2.117,0,0,0,1.585-1.173l3.47-7.194A2.885,2.885,0,0,1,51.488,1109.065Z" transform="translate(41.357 -9235.78)" fill="url(#linear-gradient)"/>
  </g>
</svg>
