<svg xmlns="http://www.w3.org/2000/svg" width="164.181" height="172.78" viewBox="0 0 164.181 172.78">
  <g id="Grupo_79471" data-name="Grupo 79471" transform="translate(0 0)">
    <path id="Trazado_178293" data-name="Trazado 178293" d="M675.525,219.365c55.11,64.276-27.93,72.524-78.214,72.524s-32.483-18.943-48.065-52.992c-20.614-45.052,3.364-95.542,53.649-95.542S651.575,191.432,675.525,219.365Z" transform="translate(-529.528 -143.356)" fill="#bfe2e2" opacity="0.6"/>
    <path id="Trazado_178294" data-name="Trazado 178294" d="M620,199.157s17.449-14.389,25.583-1.64,24.563,53.166-10.4,58.584-76.843,4.81-62.367-11.058S607.5,206.8,620,199.157Z" transform="translate(-508.036 -105.855)" fill="#ddae2a"/>
    <path id="Trazado_178295" data-name="Trazado 178295" d="M631.47,192.313s18.844,17.547,1.981,36.784S584.2,255.4,573.78,240.648C573.78,240.648,608.078,192.6,631.47,192.313Z" transform="translate(-505.041 -105.804)" fill="#fdd247"/>
    <g id="Grupo_79434" data-name="Grupo 79434" transform="translate(32.886 11.778)">
      <path id="Trazado_178296" data-name="Trazado 178296" d="M589.615,151.085s-35.59-6.167-35.381,11.2-8.111,28.188,26.26,33.411l12.742,19.595L605,199.971s29.826-.914,28.725-14.992S651.316,150.023,589.615,151.085Z" transform="translate(-553.49 -150.021)" fill="#f45866"/>
      <path id="Trazado_178297" data-name="Trazado 178297" d="M585.982,167.152c3.3,8,2.257,16.016-2.329,17.909S572.678,182,569.379,174s-2.258-16.016,2.325-17.907S582.683,159.152,585.982,167.152Z" transform="translate(-542.782 -145.672)" fill="#fff"/>
      <path id="Trazado_178298" data-name="Trazado 178298" d="M591.029,174.866c-3.84,7.755-10.556,12.254-15,10.053s-4.932-10.268-1.09-18.024,10.555-12.253,15-10.053S594.867,167.112,591.029,174.866Z" transform="translate(-539.026 -145.217)" fill="#fff"/>
    </g>
    <g id="Grupo_79435" data-name="Grupo 79435" transform="translate(0 70.92)">
      <path id="Trazado_178299" data-name="Trazado 178299" d="M559.685,184.221s-24.44-4.234-24.295,7.69-5.57,19.356,18.031,22.941l8.749,13.456,8.082-10.519s20.48-.627,19.724-10.295S602.051,183.491,559.685,184.221Z" transform="translate(-534.879 -183.491)" fill="#f45866"/>
      <path id="Trazado_178300" data-name="Trazado 178300" d="M557.188,195.254c2.264,5.492,1.552,11-1.6,12.3s-7.536-2.1-9.8-7.595-1.55-11,1.6-12.3S554.922,189.762,557.188,195.254Z" transform="translate(-527.526 -180.504)" fill="#fff"/>
      <path id="Trazado_178301" data-name="Trazado 178301" d="M560.654,200.551c-2.636,5.324-7.247,8.415-10.3,6.9s-3.389-7.052-.751-12.376,7.247-8.415,10.3-6.9S563.292,195.227,560.654,200.551Z" transform="translate(-524.948 -180.192)" fill="#fff"/>
    </g>
    <g id="Grupo_79470" data-name="Grupo 79470" transform="translate(47.554 63.488)">
      <path id="Trazado_178302" data-name="Trazado 178302" d="M603.716,196.65s-5.8,19.612-13.122,15.849a32.313,32.313,0,0,1-11-9.007l1.281-1.774s4.882,6.672,10.175,3.626c2.29-1.322,5.925-11.217,5.925-11.217Z" transform="translate(-548.132 -167.901)" fill="#f99c73"/>
      <g id="Grupo_79453" data-name="Grupo 79453" transform="translate(0 50.164)">
        <g id="Grupo_79439" data-name="Grupo 79439" transform="translate(10.034)">
          <g id="Grupo_79438" data-name="Grupo 79438">
            <g id="Grupo_79437" data-name="Grupo 79437">
              <g id="Grupo_79436" data-name="Grupo 79436">
                <path id="Trazado_178303" data-name="Trazado 178303" d="M619.727,207.674,598.2,209.4l-25.208,3.614s-5.536.145-5.16,14.332l-.366,25.564,2.9-.046s7.165-15.4,8.431-28.144c0,0,20.349-1.134,27.877-4.471S621.425,208.616,619.727,207.674Z" transform="translate(-567.469 -207.674)" fill="#5aa0a0"/>
              </g>
            </g>
          </g>
        </g>
        <g id="Grupo_79444" data-name="Grupo 79444" transform="translate(19.503 1.202)">
          <g id="Grupo_79443" data-name="Grupo 79443">
            <g id="Grupo_79442" data-name="Grupo 79442">
              <g id="Grupo_79441" data-name="Grupo 79441">
                <g id="Grupo_79440" data-name="Grupo 79440">
                  <path id="Trazado_178304" data-name="Trazado 178304" d="M621.823,208.354s-27.755,3.478-45.473,10.795c-3.577,1.477-5.315,1.32-.876,15.453l6.757,26.184,2.9-.876s2.029-16.759.131-30.14c0,0,20.423,1,29.432-2.585C622.676,224,624.584,212.266,621.823,208.354Z" transform="translate(-572.828 -208.354)" fill="#8ac4c5"/>
                </g>
              </g>
            </g>
          </g>
        </g>
        <g id="Grupo_79448" data-name="Grupo 79448" transform="translate(18.678 50.099)">
          <g id="Grupo_79447" data-name="Grupo 79447">
            <g id="Grupo_79446" data-name="Grupo 79446">
              <g id="Grupo_79445" data-name="Grupo 79445">
                <path id="Trazado_178305" data-name="Trazado 178305" d="M579.949,236.906s-.025,2.645-4.591,4.494-3.5,4.363.4,3.469,14.035-.751,12.38-3.633a6.027,6.027,0,0,1-.6-5.209Z" transform="translate(-572.361 -236.026)" fill="#f45866"/>
              </g>
            </g>
          </g>
        </g>
        <g id="Grupo_79452" data-name="Grupo 79452" transform="translate(0 43.11)">
          <g id="Grupo_79451" data-name="Grupo 79451">
            <g id="Grupo_79450" data-name="Grupo 79450">
              <g id="Grupo_79449" data-name="Grupo 79449">
                <path id="Trazado_178306" data-name="Trazado 178306" d="M569.381,232.951s-.026,2.647-4.589,4.494-3.5,4.366.4,3.472,14.037-.753,12.38-3.637a6.034,6.034,0,0,1-.6-5.209Z" transform="translate(-561.791 -232.071)" fill="#f45866"/>
              </g>
            </g>
          </g>
        </g>
      </g>
      <path id="Trazado_178307" data-name="Trazado 178307" d="M588.223,199.644l9.056,2.848s4.552-12.735-.541-13.173S589.569,196.348,588.223,199.644Z" transform="translate(-541.516 -171.603)" fill="#fdd247"/>
      <path id="Trazado_178308" data-name="Trazado 178308" d="M625.051,196.172s6.225,3.313,4.313,7.063-8.6,7.768-6.453,14.037,9.266,9.954,3.2,11.793-23.307-11.816-24.477-13.774,11.9-17.76,11.9-17.76Z" transform="translate(-531.286 -166.332)" fill="#312e3f"/>
      <g id="Grupo_79457" data-name="Grupo 79457" transform="translate(57.636 0.014)">
        <g id="Grupo_79456" data-name="Grupo 79456">
          <g id="Grupo_79455" data-name="Grupo 79455">
            <g id="Grupo_79454" data-name="Grupo 79454">
              <path id="Trazado_178309" data-name="Trazado 178309" d="M602.782,180.007s4.1,1.984,4.117,5.215,5.011,8.482,9.187,9.576c25.875,6.777,4.852,6.761,15.969,15.681,4.706,3.776-10.95-1.772-18.066,17.236-1.209,3.225-4.591-9.42-5.381-11.344s-7.5-11.94-8.1-15.189-4.624-2.179-5.681-4.555.539-5.356.09-6.66c-1.615-4.789.887-7.92,3.637-9.793S602.782,180.007,602.782,180.007Z" transform="translate(-594.408 -179.293)" fill="#312e3f"/>
            </g>
          </g>
        </g>
      </g>
      <path id="Trazado_178310" data-name="Trazado 178310" d="M610,189.471s10.191,3.73,7.278,16.706a151.85,151.85,0,0,1-8.059,24.657s-11.744-.739-17.859-4.646C591.36,226.188,580.585,179.472,610,189.471Z" transform="translate(-540.587 -172.548)" fill="#f45866"/>
      <g id="Grupo_79460" data-name="Grupo 79460" transform="translate(60.2 9.448)">
        <g id="Grupo_79459" data-name="Grupo 79459">
          <g id="Grupo_79458" data-name="Grupo 79458">
            <path id="Trazado_178311" data-name="Trazado 178311" d="M601.869,184.851l1.4,7.052s-8.282,5.757-7.34,2.313a88.114,88.114,0,0,0,1.6-9.584Z" transform="translate(-595.859 -184.632)" fill="#f99c73"/>
          </g>
        </g>
      </g>
      <g id="Grupo_79464" data-name="Grupo 79464" transform="translate(59.8)">
        <g id="Grupo_79463" data-name="Grupo 79463">
          <g id="Grupo_79462" data-name="Grupo 79462">
            <g id="Grupo_79461" data-name="Grupo 79461">
              <path id="Trazado_178312" data-name="Trazado 178312" d="M602.4,180.949c.466,1.447,1.389,4.273.56,6.107-.846,1.841-2.112,5.128-4.146,5.828s-2.454-1.742-2.84-2.566-1.094-8.766,2.212-10.494C600.68,178.525,602.049,179.843,602.4,180.949Z" transform="translate(-595.633 -179.285)" fill="#f99c73"/>
            </g>
          </g>
        </g>
      </g>
      <g id="Grupo_79467" data-name="Grupo 79467" transform="translate(59.553 0.028)">
        <g id="Grupo_79466" data-name="Grupo 79466">
          <g id="Grupo_79465" data-name="Grupo 79465">
            <path id="Trazado_178313" data-name="Trazado 178313" d="M599.4,181.641s1.649,4.28,4.255,5.273c0,0,.725-6.572-2.983-7.6,0,0-4.5-.541-5.176,5.432C595.493,184.745,599.047,183.683,599.4,181.641Z" transform="translate(-595.493 -179.301)" fill="#312e3f"/>
          </g>
        </g>
      </g>
      <g id="Grupo_79469" data-name="Grupo 79469" transform="translate(12.133 35.325)">
        <path id="Trazado_178314" data-name="Trazado 178314" d="M609.857,212.8l-21.8-.459.041-2.083,21.808.457Z" transform="translate(-553.777 -190.85)" fill="#59589e"/>
        <path id="Trazado_178315" data-name="Trazado 178315" d="M568.657,199.276l30.357.637,5.829,20.9-30.336-.647Z" transform="translate(-568.657 -199.276)" fill="#59589e"/>
        <g id="Grupo_79468" data-name="Grupo 79468" transform="translate(14.235 9.62)">
          <path id="Trazado_178316" data-name="Trazado 178316" d="M582.053,207.444a2.671,2.671,0,1,1-2.613-2.723A2.665,2.665,0,0,1,582.053,207.444Z" transform="translate(-576.713 -204.721)" fill="#eaeaea"/>
        </g>
      </g>
      <path id="Trazado_178317" data-name="Trazado 178317" d="M616.333,195.619s2.778,22.95-6.588,22.067-22.448-8.275-22.448-8.275l1.092-2.67s17.621,9.1,21.787,3.7c1.8-2.34-.346-14.154-.346-14.154Z" transform="translate(-542.226 -166.756)" fill="#f99c73"/>
      <path id="Trazado_178318" data-name="Trazado 178318" d="M598.854,203.909l9.454,1.163s1.988-13.331-3.1-12.841S599.538,200.426,598.854,203.909Z" transform="translate(-533.362 -169.365)" fill="#fdd247"/>
      <path id="Trazado_178319" data-name="Trazado 178319" d="M592.8,203.994s-2.541-3.209-5.229-3.5-3.048,1.184-3.407,3.03,3.879,1.276,5.555,2.181S592.8,203.994,592.8,203.994Z" transform="translate(-544.647 -163.048)" fill="#f99c73"/>
    </g>
  </g>
</svg>
