<svg xmlns="http://www.w3.org/2000/svg" xmlns:xlink="http://www.w3.org/1999/xlink" width="216" height="201" viewBox="0 0 216 201">
  <defs>
    <clipPath id="clip-path">
      <rect id="Rectángulo_21456" data-name="Rectángulo 21456" width="216" height="201" transform="translate(574 3689)" fill="#fff" stroke="#707070" stroke-width="1"/>
    </clipPath>
  </defs>
  <g id="Enmascarar_grupo_73" data-name="Enmascarar grupo 73" transform="translate(-574 -3689)" clip-path="url(#clip-path)">
    <g id="Grupo_75025" data-name="Grupo 75025" transform="translate(-2180.989 3161.554)">
      <g id="Grupo_74958" data-name="Grupo 74958" transform="translate(2898.466 706.793)" opacity="0">
        <g id="Grupo_74957" data-name="Grupo 74957" transform="translate(0)">
          <path id="Trazado_168780" data-name="Trazado 168780" d="M3084.526,949.5a0,0,0,0,0,0,0,0,0,0,0,0,0,0s0,0,0,0A0,0,0,0,0,3084.526,949.5Z" transform="translate(-3084.526 -949.493)" fill="#84a9ff"/>
        </g>
      </g>
      <g id="Grupo_74960" data-name="Grupo 74960" transform="translate(2860.641 933.058)">
        <g id="Grupo_74959" data-name="Grupo 74959" transform="translate(0)">
          <path id="Trazado_168781" data-name="Trazado 168781" d="M2996.378,1488.474a4.9,4.9,0,0,1,3.1-1.652,29.8,29.8,0,0,1,3.593-.208,19.02,19.02,0,0,0,8.4-2.433,28.45,28.45,0,0,1,4.033-2.2l8.438.221a9.667,9.667,0,0,1,2.254,4.549,17.037,17.037,0,0,1,.267,4.624v1.759h-30.951v-1.759h-.007A4.767,4.767,0,0,1,2996.378,1488.474Z" transform="translate(-2995.508 -1481.981)" fill="#050f64"/>
        </g>
      </g>
      <g id="Grupo_74962" data-name="Grupo 74962" transform="translate(2856.282 773.12)">
        <g id="Grupo_74961" data-name="Grupo 74961" transform="translate(0)">
          <path id="Trazado_168782" data-name="Trazado 168782" d="M2985.708,1129.923l4.99-24.337,39.7,10.036-10.531,22.185-1.5,116.97-.333,10.96-8.458-.213-1.256-9.815-22.727-118.41h.007l-.026-.127c-.1-.541-.184-1.08-.237-1.618l-.005-.027A17.247,17.247,0,0,1,2985.708,1129.923Z" transform="translate(-2985.251 -1105.586)" fill="#f5bdc8"/>
        </g>
      </g>
      <g id="Grupo_74964" data-name="Grupo 74964" transform="translate(2861.73 692.358)">
        <g id="Grupo_74963" data-name="Grupo 74963" transform="translate(0 0)">
          <path id="Trazado_168783" data-name="Trazado 168783" d="M2998.071,996.284l15.767-75.108c1.857-12.419,64.938-.509,64.938-.509,10.331,12.695,12.489,31.9,12.931,54.315a187.638,187.638,0,0,1-1.2,25.185l-46.109,7.018-.378-5.773q-1.38,2.949-2.826,5.773Z" transform="translate(-2998.071 -915.521)" fill="#050f64"/>
        </g>
      </g>
      <g id="Grupo_74966" data-name="Grupo 74966" transform="translate(2921.151 706.897)" opacity="0">
        <g id="Grupo_74965" data-name="Grupo 74965" transform="translate(0)">
          <path id="Trazado_168784" data-name="Trazado 168784" d="M3137.913,949.742a0,0,0,0,0,0,0,0,0,0,0,0,0,0,0,0,0,0,0,0,0A0,0,0,0,0,3137.913,949.742Z" transform="translate(-3137.913 -949.738)" fill="#84a9ff"/>
        </g>
      </g>
      <g id="Grupo_74968" data-name="Grupo 74968" transform="translate(2914.122 932.996)">
        <g id="Grupo_74967" data-name="Grupo 74967">
          <path id="Trazado_168785" data-name="Trazado 168785" d="M3122.23,1488.387a4.908,4.908,0,0,1,3.1-1.661,29.787,29.787,0,0,1,3.592-.219,19.019,19.019,0,0,0,8.391-2.459,28.413,28.413,0,0,1,4.027-2.213l8.438.2a9.665,9.665,0,0,1,2.269,4.542,17.05,17.05,0,0,1,.281,4.623l.006,1.76-30.951.1-.005-1.759h-.007A4.768,4.768,0,0,1,3122.23,1488.387Z" transform="translate(-3121.369 -1481.836)" fill="#050f64"/>
        </g>
      </g>
      <g id="Grupo_74970" data-name="Grupo 74970" transform="translate(2910.243 777.539)">
        <g id="Grupo_74969" data-name="Grupo 74969">
          <path id="Trazado_168786" data-name="Trazado 168786" d="M3112.241,1122.136l40.408-6.15-8.122,155.652-8.438-.2Z" transform="translate(-3112.241 -1115.986)" fill="#f5bdc8"/>
        </g>
      </g>
      <g id="Grupo_74972" data-name="Grupo 74972" transform="translate(2910.253 552.248)">
        <g id="Grupo_74971" data-name="Grupo 74971">
          <path id="Trazado_168787" data-name="Trazado 168787" d="M3112.264,617.1s18.532,5.906,20.55-24.305c0,0-6.662-6.656-7.154-7s-11.022,18.724-11.022,18.724Z" transform="translate(-3112.264 -585.788)" fill="#050f64"/>
        </g>
      </g>
      <g id="Grupo_74978" data-name="Grupo 74978" transform="matrix(0.951, -0.309, 0.309, 0.951, 2766.748, 623.391)">
        <g id="Grupo_74975" data-name="Grupo 74975" transform="translate(15.612 0.956)">
          <g id="Grupo_74974" data-name="Grupo 74974">
            <g id="Grupo_74973" data-name="Grupo 74973">
              <path id="Trazado_168788" data-name="Trazado 168788" d="M2761,719.142c.175-2.251,1.719-3.991,3.52-3.97l4,.013,3.995-.057c2.662-.011,5.312-.149,7.959-.229,5.283-.275,10.545-.613,15.706-1.287a116.926,116.926,0,0,0,15.113-2.869,74.164,74.164,0,0,0,13.945-5.181,75.145,75.145,0,0,0,12.6-7.929c4.045-3.1,8.014-6.6,12.032-10.311s8.075-7.61,12.221-11.522,8.362-7.854,12.681-11.713a10.518,10.518,0,0,1,9.548-2.256,13.821,13.821,0,0,1,8.422,6.685h0a17.64,17.64,0,0,1,2.247,11.246,12.623,12.623,0,0,1-5.052,8.791c-4.526,2.943-9.021,6.021-13.561,9.157s-9.118,6.367-13.873,9.58-9.708,6.4-14.983,9.267a89.321,89.321,0,0,1-16.634,7.077,86.98,86.98,0,0,1-17.3,3.395,128.131,128.131,0,0,1-16.953.407c-5.573-.2-11.057-.748-16.508-1.364-2.716-.365-5.436-.673-8.131-1.107l-4.046-.612-4.028-.68C2762.109,723.379,2760.83,721.393,2761,719.142Z" transform="translate(-2760.989 -661.498)" fill="#ea8096"/>
            </g>
          </g>
        </g>
        <g id="Grupo_74977" data-name="Grupo 74977" transform="translate(93.164)">
          <g id="Grupo_74976" data-name="Grupo 74976">
            <path id="Trazado_168789" data-name="Trazado 168789" d="M3001.065,712.116l28.114-19.011c8.5-5.75,11.378-16.879,5.627-25.383h0c-5.75-8.5-17.948-11.163-26.452-5.413l-28.114,19.011Z" transform="translate(-2980.241 -659.249)" fill="#478fce"/>
          </g>
        </g>
      </g>
      <g id="Grupo_74980" data-name="Grupo 74980" transform="translate(2871.772 579.706)">
        <g id="Grupo_74979" data-name="Grupo 74979" transform="translate(0 0)">
          <path id="Trazado_168790" data-name="Trazado 168790" d="M3066.607,650.493h0a42.235,42.235,0,0,0-44.743,45.784l5.565,72.436c18,8.058,43.219,4.094,64.939-.509l6.627-77.9A34.943,34.943,0,0,0,3066.607,650.493Z" transform="translate(-3021.703 -650.407)" fill="#529ad9"/>
        </g>
      </g>
      <g id="Grupo_74982" data-name="Grupo 74982" transform="translate(2871.019 581.675)">
        <g id="Grupo_74981" data-name="Grupo 74981">
          <path id="Trazado_168791" data-name="Trazado 168791" d="M3027.848,670.444l.664.375a42.422,42.422,0,0,1,19.77-15.146l-.393-.629a43.126,43.126,0,0,0-16.649,11.219A44.016,44.016,0,0,0,3027.848,670.444Zm-3.972,77.751,1.821,23.686.408.184a49.2,49.2,0,0,0,9.274,3.046v-.783a47.915,47.915,0,0,1-8.971-2.949l-1.776-23.113Zm67.473,22.675a249.276,249.276,0,0,1-27.7,4.553v.757a248.733,248.733,0,0,0,27.857-4.576l.543-.116,1.578-18.534-.731-.259Zm6.628-77.894-2.027,23.81.734.217,2.039-23.945a35.469,35.469,0,0,0,.307-6.756l-.73.187A34.844,34.844,0,0,1,3097.977,692.976Zm-77.878,6.033,1.35,17.541h.749l-1.353-17.608a41.962,41.962,0,0,1,4.313-22.566l-.682-.36A42.517,42.517,0,0,0,3020.1,699.009Zm60.484-41.407a35.117,35.117,0,0,1,14.981,16.795l.76-.086a35.467,35.467,0,0,0-15.536-17.425Z" transform="translate(-3019.932 -655.043)" fill="#fff"/>
        </g>
      </g>
      <g id="Grupo_74993" data-name="Grupo 74993" transform="translate(2891.196 527.465)">
        <g id="Grupo_74984" data-name="Grupo 74984" transform="translate(11.433 44.249)">
          <g id="Grupo_74983" data-name="Grupo 74983">
            <path id="Trazado_168792" data-name="Trazado 168792" d="M3094.323,632.726l.865,19.537q8.788,4.907,16.845-1.127l-.865-19.537Z" transform="translate(-3094.323 -631.599)" fill="#f5bdc8"/>
          </g>
        </g>
        <g id="Grupo_74986" data-name="Grupo 74986" transform="translate(11.588 46.591)">
          <g id="Grupo_74985" data-name="Grupo 74985">
            <path id="Trazado_168793" data-name="Trazado 168793" d="M3094.688,638.239l.429,6.412a18.423,18.423,0,0,0,8.728,2.006c.175-.006.351-.012.526-.024a11.227,11.227,0,0,0,7.557-3.607l-.4-5.914Z" transform="translate(-3094.688 -637.112)" fill="#ea8096"/>
          </g>
        </g>
        <g id="Grupo_74988" data-name="Grupo 74988" transform="translate(1.508 13.834)">
          <g id="Grupo_74987" data-name="Grupo 74987">
            <path id="Trazado_168794" data-name="Trazado 168794" d="M3070.967,576.366l1.791,6.252,1.193,3.441a16.055,16.055,0,0,0,16.281,14.447,9.038,9.038,0,0,0,2.5-.4,9.713,9.713,0,0,0,.936-.344c.064-.024.128-.054.193-.084a8.757,8.757,0,0,0,3.089-2.337,27.054,27.054,0,0,0,4.065-7.091,46.294,46.294,0,0,0,2.287-6.442,20.765,20.765,0,0,0,.6-7.94l-.95-15.841-24.893,5.594Z" transform="translate(-3070.967 -560.023)" fill="#f5bdc8"/>
          </g>
        </g>
        <g id="Grupo_74990" data-name="Grupo 74990" transform="translate(0 0)">
          <g id="Grupo_74989" data-name="Grupo 74989">
            <path id="Trazado_168795" data-name="Trazado 168795" d="M3071.157,552.633a27.509,27.509,0,0,1,3.226-10.8c2.555-4.619,11.878-10.406,20-5.648a9.6,9.6,0,0,1,4.09-7.065,10.325,10.325,0,0,1,11.675,17,9.413,9.413,0,0,1-4.414,1.6c.1.255.2.517.293.8,1.419,4.255,2.164,13.245-3.042,16.356-1.754,1.049-5.978-.222-6.235-6.035-.014-.326.783-9.822-.325-12.481-.679,1.026-2.828,3-9.017,1.915a15.949,15.949,0,0,0-7.841.336c-3.334,2.731-5.658,5.737-8.178,8.2-2.474,2.42-.891,4.839.781,7.147,2.468,3.407.084,8.193-2.685,9.448,0,0,4.564-4.623-.2-8.925C3065.563,561.125,3068.043,553.372,3071.157,552.633Z" transform="translate(-3067.417 -527.465)" fill="#050f64"/>
          </g>
        </g>
        <g id="Grupo_74992" data-name="Grupo 74992" transform="translate(28.563 26.213)">
          <g id="Grupo_74991" data-name="Grupo 74991" transform="translate(0 0)">
            <circle id="Elipse_4549" data-name="Elipse 4549" cx="6.142" cy="6.142" r="6.142" transform="translate(0 0.571) rotate(-2.664)" fill="#f5bdc8"/>
          </g>
        </g>
      </g>
      <g id="Grupo_75016" data-name="Grupo 75016" transform="translate(2793.276 603.831)">
        <g id="Grupo_74995" data-name="Grupo 74995" transform="translate(0 22.434)">
          <g id="Grupo_74994" data-name="Grupo 74994" transform="translate(0 0)">
            <rect id="Rectángulo_21450" data-name="Rectángulo 21450" width="97.313" height="16.919" transform="translate(0 11.94) rotate(-7.048)" fill="#a0a603"/>
          </g>
        </g>
        <g id="Grupo_74997" data-name="Grupo 74997" transform="translate(9.951 40.199)">
          <g id="Grupo_74996" data-name="Grupo 74996" transform="translate(0 0)">
            <rect id="Rectángulo_21451" data-name="Rectángulo 21451" width="81.443" height="48.866" transform="translate(0 9.992) rotate(-7.048)" fill="#a0a603"/>
          </g>
        </g>
        <g id="Grupo_74999" data-name="Grupo 74999" transform="translate(15.114 13.077)">
          <g id="Grupo_74998" data-name="Grupo 74998">
            <path id="Trazado_168796" data-name="Trazado 168796" d="M2846.078,693.722l.352,2.846-28.374,3.508s-1.945-7.474-1.025-13.129c.747-4.441,3.28-7.733,9.959-5.312,13.07,4.729,17.793,10.281,18.869,11.727l0,.029c.092.137.156.249.187.3Z" transform="translate(-2816.784 -680.815)" fill="#ced351"/>
          </g>
        </g>
        <g id="Grupo_75001" data-name="Grupo 75001" transform="translate(50.637 0)">
          <g id="Grupo_75000" data-name="Grupo 75000">
            <path id="Trazado_168797" data-name="Trazado 168797" d="M2954.393,665.67l-29.841,3.689-.458-3.706.029-.044-.005-.04a7.21,7.21,0,0,0,.317-.727c1.9-4.362,11.341-24.912,20.83-23.456,3.1.467,5.182,2.759,6.566,5.744C2955.157,654.326,2954.393,665.67,2954.393,665.67Z" transform="translate(-2924.093 -641.313)" fill="#ced351"/>
          </g>
        </g>
        <g id="Grupo_75003" data-name="Grupo 75003" transform="translate(50.661 0)">
          <g id="Grupo_75002" data-name="Grupo 75002">
            <path id="Trazado_168798" data-name="Trazado 168798" d="M2951.877,647.131c-.442,3.818-3.292,9.795-11.045,9.781-6.162-.007-13.88,6.289-16.236,8.32-.213.188-.366.329-.427.377l-.005-.04a7.232,7.232,0,0,0,.316-.727c1.9-4.362,11.341-24.912,20.83-23.456C2948.415,641.854,2950.492,644.146,2951.877,647.131Z" transform="translate(-2924.164 -641.313)" fill="#6f7302"/>
          </g>
        </g>
        <g id="Grupo_75005" data-name="Grupo 75005" transform="translate(15.361 13.077)">
          <g id="Grupo_75004" data-name="Grupo 75004">
            <path id="Trazado_168799" data-name="Trazado 168799" d="M2846.55,693.7a.56.56,0,0,1-.179-.037c-1.652-.66-13.064-6.9-19.67-5.1-4.9,1.32-6.959-.659-9.169-1.607.747-4.441,3.28-7.733,9.959-5.312,13.07,4.729,17.793,10.281,18.869,11.727l0,.029C2846.454,693.529,2846.518,693.64,2846.55,693.7Z" transform="translate(-2817.531 -680.815)" fill="#6f7302"/>
          </g>
        </g>
        <g id="Grupo_75007" data-name="Grupo 75007" transform="translate(44.198 22.205)">
          <g id="Grupo_75006" data-name="Grupo 75006">
            <path id="Trazado_168800" data-name="Trazado 168800" d="M2912.3,712.358l.449,3.627-7.615.942-.448-3.628a2.339,2.339,0,0,1-.026-.5,1.326,1.326,0,0,1-.01-.375l-.005-.041a4.357,4.357,0,0,1,.075-.554,3.888,3.888,0,0,1,3.246-3.415,3.928,3.928,0,0,1,4,2.687l.005.041a.968.968,0,0,1,.1.239,2.055,2.055,0,0,1,.121.4A3.167,3.167,0,0,1,2912.3,712.358Z" transform="translate(-2904.641 -708.39)" fill="#fc0"/>
          </g>
        </g>
        <g id="Grupo_75009" data-name="Grupo 75009" transform="translate(44.511 28.015)">
          <g id="Grupo_75008" data-name="Grupo 75008" transform="translate(0 0)">
            <rect id="Rectángulo_21452" data-name="Rectángulo 21452" width="7.633" height="65.704" transform="translate(0 0.937) rotate(-7.048)" fill="#fff"/>
          </g>
        </g>
        <g id="Grupo_75011" data-name="Grupo 75011" transform="translate(54.153 40.199)">
          <g id="Grupo_75010" data-name="Grupo 75010" transform="translate(0 0)">
            <rect id="Rectángulo_21453" data-name="Rectángulo 21453" width="36.906" height="2.819" transform="translate(0 4.528) rotate(-7.048)" fill="#6f7302"/>
          </g>
        </g>
        <g id="Grupo_75013" data-name="Grupo 75013" transform="translate(9.952 45.663)">
          <g id="Grupo_75012" data-name="Grupo 75012" transform="translate(0 0)">
            <rect id="Rectángulo_21454" data-name="Rectángulo 21454" width="36.904" height="2.819" transform="matrix(0.992, -0.123, 0.123, 0.992, 0, 4.528)" fill="#6f7302"/>
          </g>
        </g>
        <g id="Grupo_75015" data-name="Grupo 75015" transform="translate(46.577 44.727)">
          <g id="Grupo_75014" data-name="Grupo 75014" transform="translate(0 0)">
            <rect id="Rectángulo_21455" data-name="Rectángulo 21455" width="7.633" height="2.819" transform="matrix(0.992, -0.123, 0.123, 0.992, 0, 0.936)" fill="#e5e6eb"/>
          </g>
        </g>
      </g>
      <g id="Grupo_75024" data-name="Grupo 75024" transform="translate(2819.999 594.481)">
        <g id="Grupo_75019" data-name="Grupo 75019" transform="translate(0 0.86)">
          <g id="Grupo_75018" data-name="Grupo 75018">
            <g id="Grupo_75017" data-name="Grupo 75017">
              <path id="Trazado_168801" data-name="Trazado 168801" d="M2900.121,795.585a4.137,4.137,0,0,1,1.988-5.221l4.092-1.8,4.055-1.855c2.714-1.213,5.363-2.536,8.033-3.805,5.283-2.637,10.518-5.323,15.514-8.27a144.3,144.3,0,0,0,14.268-9.45,89.066,89.066,0,0,0,12.141-11.036,85.824,85.824,0,0,0,9.652-12.939c2.877-4.66,5.512-9.657,8.113-14.863s5.165-10.606,7.815-16.056,5.359-10.959,8.208-16.439a12.771,12.771,0,0,1,8.834-6.375,15.278,15.278,0,0,1,11.3,2.31,16.119,16.119,0,0,1,6.844,9.27,12.421,12.421,0,0,1-1.6,10.321c-3.43,4.736-6.774,9.58-10.14,14.5s-6.732,9.941-10.287,15.026-7.321,10.238-11.548,15.242a103.984,103.984,0,0,1-30.4,24.9,159.625,159.625,0,0,1-17.143,8.029c-5.769,2.338-11.591,4.31-17.406,6.208-2.921.893-5.822,1.839-8.749,2.66l-4.378,1.268-4.388,1.2A4.075,4.075,0,0,1,2900.121,795.585Z" transform="translate(-2899.862 -687.204)" fill="#f5bdc8"/>
            </g>
          </g>
        </g>
        <g id="Grupo_75021" data-name="Grupo 75021" transform="translate(70.664 0.764)">
          <g id="Grupo_75020" data-name="Grupo 75020">
            <path id="Trazado_168802" data-name="Trazado 168802" d="M3097.665,744.1l18.019-28.759c5.451-8.7,3.577-20.039-5.123-25.489h0c-8.7-5.45-20.929-2.948-26.38,5.751l-18.019,28.76Z" transform="translate(-3066.163 -686.979)" fill="#529ad9"/>
          </g>
        </g>
        <g id="Grupo_75023" data-name="Grupo 75023" transform="translate(69.631 0)">
          <g id="Grupo_75022" data-name="Grupo 75022">
            <path id="Trazado_168803" data-name="Trazado 168803" d="M3063.732,723.571l5.717,3.582.429-.617-5.113-3.2,4.2-6.705-.543-.541Zm10.056-14.639,7.494-11.964-.6-.454-7.5,11.976Zm13.686-20.253.271.723a19.748,19.748,0,0,1,21.42-.582,17.2,17.2,0,0,1,7.526,10.081l.739-.147a17.974,17.974,0,0,0-7.866-10.569,19.478,19.478,0,0,0-3.162-1.594A20.515,20.515,0,0,0,3087.473,688.679Zm-12.26,41.2-.452.6,11.111,6.96.393-.639Zm37.724-13.416-14.108,22.519.684.318,14.132-22.558Z" transform="translate(-3063.732 -685.18)" fill="#fff"/>
          </g>
        </g>
      </g>
    </g>
  </g>
</svg>
