<?xml version="1.0" encoding="utf-8"?>
<!-- Generator: Adobe Illustrator 25.4.1, SVG Export Plug-In . SVG Version: 6.00 Build 0)  -->
<svg version="1.1" id="Grupo_79401" xmlns="http://www.w3.org/2000/svg" xmlns:xlink="http://www.w3.org/1999/xlink" x="0px"
	 y="0px" viewBox="0 0 164.2 172.8" style="enable-background:new 0 0 164.2 172.8;" xml:space="preserve">
<style type="text/css">
	.st0{opacity:0.6;fill:#BFE2E2;enable-background:new    ;}
	.st1{fill:#F99C73;}
	.st2{fill:#538854;}
	.st3{fill:#F45866;}
	.st4{fill:#4A4A89;}
	.st5{fill:#FDD247;}
	.st6{fill:#59589E;}
	.st7{fill:#312E3F;}
	.st8{fill:#171B23;}
	.st9{fill:#EAEAEA;}
</style>
<g>
	<path id="Trazado_178242" class="st0" d="M153.7,108c36.1,75.2-28.8,60.7-78.3,60.7s-78-17.4-75.2-54.1C4,65.2,12,17.8,61.5,17.8
		S134.8,68.6,153.7,108z"/>
	<g>
		<g id="Grupo_79378" transform="translate(20.441 9.92)">
			<path id="Trazado_178243" class="st1" d="M81.5,51.5c0,0-17.1,2.2-30-8.4C48.1,40.4,40,35.5,38.2,0.3C38.1-3,28.6-11.6,25,2
				s-4,23.2,0,30.8c0,0,1.4,3.8-12.4,2.5C3,34.4,4.5,43.8,7.1,47.1c0,0-7,2.2-6.9,11.3c0,0,0.9,4.6,5.2,6.6c0,0-10.9,10-2.3,16.6
				c0,0-16.9,14.9,4,19.9c0,0,14.3,5,37.1,0s23.5-2.7,30.5-1.7l7,1l1.6-49.1L81.5,51.5z"/>
			<path id="Trazado_178244" class="st2" d="M80.5,51.4L78,100.2l9.6,1l4.8-49.9L80.5,51.4z"/>
		</g>
		<path id="Trazado_178245" class="st3" d="M83.5,37.7c-2.9,1.7-7.7,3.5-8.7,1.8s2.3-5.4,5.2-7.2c2.9-1.7,4.2-1,5.2,0.6
			C86.2,34.7,86.4,36,83.5,37.7z"/>
		<path id="Trazado_178246" class="st3" d="M77.1,18.5c-2.3,2.9-6.5,6.6-8.2,5.3c-1.7-1.3,0.2-6.5,2.5-9.4s3.9-2.7,5.6-1.4
			C78.7,14.3,79.5,15.6,77.1,18.5z"/>
		<path id="Trazado_178247" class="st3" d="M12.6,29.7c2.9,1.7,7.7,3.5,8.7,1.8c1-1.7-2.3-5.4-5.2-7.2c-2.9-1.7-4.2-1-5.2,0.6
			S9.7,27.9,12.6,29.7z"/>
		<path id="Trazado_178248" class="st3" d="M19,10.4c2.3,2.9,6.5,6.6,8.2,5.3S27,9.2,24.6,6.3s-3.9-2.7-5.6-1.4S16.7,7.5,19,10.4z"
			/>
	</g>
	<g>
		<g id="Grupo_79381" transform="translate(92.243 111.286)">
			<g id="Grupo_79380">
				<g id="Grupo_79379">
					<path id="Trazado_178249" class="st4" d="M44.4,42.9c0,0-25.2-30.6-40.4-27.2c-9.5,2.1-15.1,35.4-15.1,35.4h7.7L7.5,32L24,51.1
						L44.4,42.9z"/>
				</g>
			</g>
		</g>
		<path id="Trazado_178250" class="st1" d="M129.7,124.5c0,0-0.3,27.8-11,25.4s-24.5-13.2-24.5-13.2l1.7-3c0,0,14.7,9.3,20.4,3.4
			c2.4-2.5,5.9-12.7,5.9-12.7L129.7,124.5z"/>
		<path id="Trazado_178251" class="st5" d="M128.7,133l-9.6-5.5c0,0,7.8-14.2,12.2-10.2S130.6,129.2,128.7,133z"/>
		<g id="Grupo_79385" transform="translate(65.82 141.643)">
			<g id="Grupo_79384">
				<g id="Grupo_79383">
					<g id="Grupo_79382">
						<path id="Trazado_178252" class="st6" d="M89.2,14.7c0,0,1.6,13.1-13.5,12.2c0,0-34.3-2.2-45.7-1.8C20.5,25.4-7.9,29-7.9,29
							v-7.1l44.5-9.3C36.6,12.5,74.5,9.8,89.2,14.7z"/>
					</g>
				</g>
			</g>
		</g>
		<g id="Grupo_79389" transform="translate(57.884 144.212)">
			<g id="Grupo_79388">
				<g id="Grupo_79387">
					<g id="Grupo_79386">
						<path id="Trazado_178253" class="st7" d="M0,19.3c0,0-2.5-0.3-3.7-4.7s-3.7-3.7-3.3,0c0.4,3.7-0.8,13.1,2,11.9
							c1.5-0.7,3.4-0.7,4.9,0V19.3z"/>
					</g>
				</g>
			</g>
		</g>
		<path id="Trazado_178254" class="st3" d="M138.9,109.2c0,0-13.7,2.2-12.6,18.3c1.1,16-5,23.2,1,28.3c4.5,3.8,20.1,6.6,28.7,3.3
			C155.9,159,178.4,103.7,138.9,109.2z"/>
		<g id="Grupo_79398" transform="translate(154.349 67.072)">
			<path id="Trazado_178255" class="st1" d="M-7.1,36.5l2,8c0,0-2.3,4.5-7.8-0.2l2.1-8.4L-7.1,36.5z"/>
			<g id="Grupo_79397">
				<g id="Grupo_79393" transform="translate(5.44 1.706)">
					<g id="Grupo_79392">
						<g id="Grupo_79391">
							<g id="Grupo_79390">
								<path id="Trazado_178256" class="st1" d="M-12,21.8c1,1.5,2.9,4.3,2.4,6.6c-0.5,2.3-1,6.3-3.3,7.7c-2.2,1.4-4.1-0.4-4.7-1.3
									c-0.9-1.4-3.3-10,0.2-13C-14.8,19.6-12.8,20.7-12,21.8z"/>
							</g>
						</g>
					</g>
				</g>
				<g id="Grupo_79396">
					<g id="Grupo_79395">
						<g id="Grupo_79394">
							<path id="Trazado_178257" class="st8" d="M-18.5,23.5c0,0,7.4,3.3,10,2.1s2.8,1.5,2.8,1.8s0.4,4.2,1.3,4
								c0.9-0.1,1.2-5.1-0.8-8S-17.8,19.2-18.5,23.5z"/>
						</g>
					</g>
				</g>
			</g>
		</g>
		<path id="Trazado_178258" class="st1" d="M159.1,127.3c0,0-0.3,27.8-11,25.4c-10.6-2.4-24.5-13.2-24.5-13.2l1.7-3
			c0,0,14.7,9.3,20.4,3.4c2.4-2.5,5.9-12.7,5.9-12.7L159.1,127.3z"/>
		<path id="Trazado_178259" class="st5" d="M160,134.2l-10-4.7c0,0,6.7-14.8,11.4-11.1C166,122.1,161.6,130.3,160,134.2z"/>
		<g id="Grupo_79400" transform="translate(86.441 116.744)">
			
				<rect id="Rectángulo_22495" x="41.3" y="26.2" transform="matrix(2.102970e-02 -0.9998 0.9998 2.102970e-02 2.6592 80.7345)" class="st7" width="2.4" height="25.5"/>
			<path id="Trazado_178260" class="st7" d="M-10.4,14.8l35.6,0.7L32,40l-35.5-0.8L-10.4,14.8z"/>
			<g id="Grupo_79399" transform="translate(18.955 12.809)">
				<path id="Trazado_178261" class="st9" d="M-6.4,16.4c0,1.7-1.5,3.1-3.2,3.1c-1.7,0-3.1-1.5-3.1-3.2c0-1.7,1.5-3.1,3.2-3.1
					c0,0,0,0,0,0C-7.7,13.3-6.4,14.7-6.4,16.4C-6.4,16.4-6.4,16.4-6.4,16.4z"/>
			</g>
		</g>
	</g>
</g>
</svg>
