<svg xmlns="http://www.w3.org/2000/svg" xmlns:xlink="http://www.w3.org/1999/xlink" width="216" height="201" viewBox="0 0 216 201">
  <defs>
    <clipPath id="clip-path">
      <rect id="Rectángulo_21463" data-name="Rectángulo 21463" width="216" height="201" transform="translate(574 3689)" fill="#fff" stroke="#707070" stroke-width="1"/>
    </clipPath>
  </defs>
  <g id="Enmascarar_grupo_74" data-name="Enmascarar grupo 74" transform="translate(-574 -3689)" clip-path="url(#clip-path)">
    <g id="Grupo_75094" data-name="Grupo 75094" transform="translate(-2180.989 3161.554)">
      <g id="Grupo_75027" data-name="Grupo 75027" transform="translate(2898.466 706.793)" opacity="0">
        <g id="Grupo_75026" data-name="Grupo 75026" transform="translate(0)">
          <path id="Trazado_168804" data-name="Trazado 168804" d="M3084.526,949.5a0,0,0,0,0,0,0,0,0,0,0,0,0,0s0,0,0,0A0,0,0,0,0,3084.526,949.5Z" transform="translate(-3084.526 -949.493)" fill="#84a9ff"/>
        </g>
      </g>
      <g id="Grupo_75029" data-name="Grupo 75029" transform="translate(2860.641 933.058)">
        <g id="Grupo_75028" data-name="Grupo 75028" transform="translate(0)">
          <path id="Trazado_168805" data-name="Trazado 168805" d="M2996.378,1488.474a4.9,4.9,0,0,1,3.1-1.652,29.8,29.8,0,0,1,3.593-.208,19.02,19.02,0,0,0,8.4-2.433,28.45,28.45,0,0,1,4.033-2.2l8.438.221a9.667,9.667,0,0,1,2.254,4.549,17.037,17.037,0,0,1,.267,4.624v1.759h-30.951v-1.759h-.007A4.767,4.767,0,0,1,2996.378,1488.474Z" transform="translate(-2995.508 -1481.981)" fill="#050f64"/>
        </g>
      </g>
      <g id="Grupo_75031" data-name="Grupo 75031" transform="translate(2856.282 773.12)">
        <g id="Grupo_75030" data-name="Grupo 75030" transform="translate(0)">
          <path id="Trazado_168806" data-name="Trazado 168806" d="M2985.708,1129.923l4.99-24.337,39.7,10.036-10.531,22.185-1.5,116.97-.333,10.96-8.458-.213-1.256-9.815-22.727-118.41h.007l-.026-.127c-.1-.541-.184-1.08-.237-1.618l-.005-.027A17.247,17.247,0,0,1,2985.708,1129.923Z" transform="translate(-2985.251 -1105.586)" fill="#f5bdc8"/>
        </g>
      </g>
      <g id="Grupo_75033" data-name="Grupo 75033" transform="translate(2861.73 692.358)">
        <g id="Grupo_75032" data-name="Grupo 75032" transform="translate(0 0)">
          <path id="Trazado_168807" data-name="Trazado 168807" d="M2998.071,996.284l15.767-75.108c1.857-12.419,64.938-.509,64.938-.509,10.331,12.695,12.489,31.9,12.931,54.315a187.638,187.638,0,0,1-1.2,25.185l-46.109,7.018-.378-5.773q-1.38,2.949-2.826,5.773Z" transform="translate(-2998.071 -915.521)" fill="#050f64"/>
        </g>
      </g>
      <g id="Grupo_75035" data-name="Grupo 75035" transform="translate(2921.151 706.897)" opacity="0">
        <g id="Grupo_75034" data-name="Grupo 75034" transform="translate(0)">
          <path id="Trazado_168808" data-name="Trazado 168808" d="M3137.913,949.742a0,0,0,0,0,0,0,0,0,0,0,0,0,0,0,0,0,0,0,0,0A0,0,0,0,0,3137.913,949.742Z" transform="translate(-3137.913 -949.738)" fill="#84a9ff"/>
        </g>
      </g>
      <g id="Grupo_75037" data-name="Grupo 75037" transform="translate(2914.122 932.996)">
        <g id="Grupo_75036" data-name="Grupo 75036">
          <path id="Trazado_168809" data-name="Trazado 168809" d="M3122.23,1488.387a4.908,4.908,0,0,1,3.1-1.661,29.787,29.787,0,0,1,3.592-.219,19.019,19.019,0,0,0,8.391-2.459,28.413,28.413,0,0,1,4.027-2.213l8.438.2a9.665,9.665,0,0,1,2.269,4.542,17.05,17.05,0,0,1,.281,4.623l.006,1.76-30.951.1-.005-1.759h-.007A4.768,4.768,0,0,1,3122.23,1488.387Z" transform="translate(-3121.369 -1481.836)" fill="#050f64"/>
        </g>
      </g>
      <g id="Grupo_75039" data-name="Grupo 75039" transform="translate(2910.243 777.539)">
        <g id="Grupo_75038" data-name="Grupo 75038">
          <path id="Trazado_168810" data-name="Trazado 168810" d="M3112.241,1122.136l40.408-6.15-8.122,155.652-8.438-.2Z" transform="translate(-3112.241 -1115.986)" fill="#f5bdc8"/>
        </g>
      </g>
      <g id="Grupo_75041" data-name="Grupo 75041" transform="translate(2910.253 552.248)">
        <g id="Grupo_75040" data-name="Grupo 75040">
          <path id="Trazado_168811" data-name="Trazado 168811" d="M3112.264,617.1s18.532,5.906,20.55-24.305c0,0-6.662-6.656-7.154-7s-11.022,18.724-11.022,18.724Z" transform="translate(-3112.264 -585.788)" fill="#050f64"/>
        </g>
      </g>
      <g id="Grupo_75047" data-name="Grupo 75047" transform="matrix(0.951, -0.309, 0.309, 0.951, 2766.748, 623.391)">
        <g id="Grupo_75044" data-name="Grupo 75044" transform="translate(15.612 0.956)">
          <g id="Grupo_75043" data-name="Grupo 75043">
            <g id="Grupo_75042" data-name="Grupo 75042">
              <path id="Trazado_168812" data-name="Trazado 168812" d="M2761,719.142c.175-2.251,1.719-3.991,3.52-3.97l4,.013,3.995-.057c2.662-.011,5.312-.149,7.959-.229,5.283-.275,10.545-.613,15.706-1.287a116.926,116.926,0,0,0,15.113-2.869,74.164,74.164,0,0,0,13.945-5.181,75.145,75.145,0,0,0,12.6-7.929c4.045-3.1,8.014-6.6,12.032-10.311s8.075-7.61,12.221-11.522,8.362-7.854,12.681-11.713a10.518,10.518,0,0,1,9.548-2.256,13.821,13.821,0,0,1,8.422,6.685h0a17.64,17.64,0,0,1,2.247,11.246,12.623,12.623,0,0,1-5.052,8.791c-4.526,2.943-9.021,6.021-13.561,9.157s-9.118,6.367-13.873,9.58-9.708,6.4-14.983,9.267a89.321,89.321,0,0,1-16.634,7.077,86.98,86.98,0,0,1-17.3,3.395,128.131,128.131,0,0,1-16.953.407c-5.573-.2-11.057-.748-16.508-1.364-2.716-.365-5.436-.673-8.131-1.107l-4.046-.612-4.028-.68C2762.109,723.379,2760.83,721.393,2761,719.142Z" transform="translate(-2760.989 -661.498)" fill="#ea8096"/>
            </g>
          </g>
        </g>
        <g id="Grupo_75046" data-name="Grupo 75046" transform="translate(93.164)">
          <g id="Grupo_75045" data-name="Grupo 75045">
            <path id="Trazado_168813" data-name="Trazado 168813" d="M3001.065,712.116l28.114-19.011c8.5-5.75,11.378-16.879,5.627-25.383h0c-5.75-8.5-17.948-11.163-26.452-5.413l-28.114,19.011Z" transform="translate(-2980.241 -659.249)" fill="#478fce"/>
          </g>
        </g>
      </g>
      <g id="Grupo_75049" data-name="Grupo 75049" transform="translate(2871.772 579.706)">
        <g id="Grupo_75048" data-name="Grupo 75048" transform="translate(0 0)">
          <path id="Trazado_168814" data-name="Trazado 168814" d="M3066.607,650.493h0a42.235,42.235,0,0,0-44.743,45.784l5.565,72.436c18,8.058,43.219,4.094,64.939-.509l6.627-77.9A34.943,34.943,0,0,0,3066.607,650.493Z" transform="translate(-3021.703 -650.407)" fill="#529ad9"/>
        </g>
      </g>
      <g id="Grupo_75051" data-name="Grupo 75051" transform="translate(2871.019 581.675)">
        <g id="Grupo_75050" data-name="Grupo 75050">
          <path id="Trazado_168815" data-name="Trazado 168815" d="M3027.848,670.444l.664.375a42.422,42.422,0,0,1,19.77-15.146l-.393-.629a43.126,43.126,0,0,0-16.649,11.219A44.016,44.016,0,0,0,3027.848,670.444Zm-3.972,77.751,1.821,23.686.408.184a49.2,49.2,0,0,0,9.274,3.046v-.783a47.915,47.915,0,0,1-8.971-2.949l-1.776-23.113Zm67.473,22.675a249.276,249.276,0,0,1-27.7,4.553v.757a248.733,248.733,0,0,0,27.857-4.576l.543-.116,1.578-18.534-.731-.259Zm6.628-77.894-2.027,23.81.734.217,2.039-23.945a35.469,35.469,0,0,0,.307-6.756l-.73.187A34.844,34.844,0,0,1,3097.977,692.976Zm-77.878,6.033,1.35,17.541h.749l-1.353-17.608a41.962,41.962,0,0,1,4.313-22.566l-.682-.36A42.517,42.517,0,0,0,3020.1,699.009Zm60.484-41.407a35.117,35.117,0,0,1,14.981,16.795l.76-.086a35.467,35.467,0,0,0-15.536-17.425Z" transform="translate(-3019.932 -655.043)" fill="#fff"/>
        </g>
      </g>
      <g id="Grupo_75062" data-name="Grupo 75062" transform="translate(2891.196 527.465)">
        <g id="Grupo_75053" data-name="Grupo 75053" transform="translate(11.433 44.249)">
          <g id="Grupo_75052" data-name="Grupo 75052">
            <path id="Trazado_168816" data-name="Trazado 168816" d="M3094.323,632.726l.865,19.537q8.788,4.907,16.845-1.127l-.865-19.537Z" transform="translate(-3094.323 -631.599)" fill="#f5bdc8"/>
          </g>
        </g>
        <g id="Grupo_75055" data-name="Grupo 75055" transform="translate(11.588 46.591)">
          <g id="Grupo_75054" data-name="Grupo 75054">
            <path id="Trazado_168817" data-name="Trazado 168817" d="M3094.688,638.239l.429,6.412a18.423,18.423,0,0,0,8.728,2.006c.175-.006.351-.012.526-.024a11.227,11.227,0,0,0,7.557-3.607l-.4-5.914Z" transform="translate(-3094.688 -637.112)" fill="#ea8096"/>
          </g>
        </g>
        <g id="Grupo_75057" data-name="Grupo 75057" transform="translate(1.508 13.834)">
          <g id="Grupo_75056" data-name="Grupo 75056">
            <path id="Trazado_168818" data-name="Trazado 168818" d="M3070.967,576.366l1.791,6.252,1.193,3.441a16.055,16.055,0,0,0,16.281,14.447,9.038,9.038,0,0,0,2.5-.4,9.713,9.713,0,0,0,.936-.344c.064-.024.128-.054.193-.084a8.757,8.757,0,0,0,3.089-2.337,27.054,27.054,0,0,0,4.065-7.091,46.294,46.294,0,0,0,2.287-6.442,20.765,20.765,0,0,0,.6-7.94l-.95-15.841-24.893,5.594Z" transform="translate(-3070.967 -560.023)" fill="#f5bdc8"/>
          </g>
        </g>
        <g id="Grupo_75059" data-name="Grupo 75059" transform="translate(0 0)">
          <g id="Grupo_75058" data-name="Grupo 75058">
            <path id="Trazado_168819" data-name="Trazado 168819" d="M3071.157,552.633a27.509,27.509,0,0,1,3.226-10.8c2.555-4.619,11.878-10.406,20-5.648a9.6,9.6,0,0,1,4.09-7.065,10.325,10.325,0,0,1,11.675,17,9.413,9.413,0,0,1-4.414,1.6c.1.255.2.517.293.8,1.419,4.255,2.164,13.245-3.042,16.356-1.754,1.049-5.978-.222-6.235-6.035-.014-.326.783-9.822-.325-12.481-.679,1.026-2.828,3-9.017,1.915a15.949,15.949,0,0,0-7.841.336c-3.334,2.731-5.658,5.737-8.178,8.2-2.474,2.42-.891,4.839.781,7.147,2.468,3.407.084,8.193-2.685,9.448,0,0,4.564-4.623-.2-8.925C3065.563,561.125,3068.043,553.372,3071.157,552.633Z" transform="translate(-3067.417 -527.465)" fill="#050f64"/>
          </g>
        </g>
        <g id="Grupo_75061" data-name="Grupo 75061" transform="translate(28.563 26.213)">
          <g id="Grupo_75060" data-name="Grupo 75060" transform="translate(0 0)">
            <circle id="Elipse_4550" data-name="Elipse 4550" cx="6.142" cy="6.142" r="6.142" transform="translate(0 0.571) rotate(-2.664)" fill="#f5bdc8"/>
          </g>
        </g>
      </g>
      <g id="Grupo_75085" data-name="Grupo 75085" transform="translate(2803.393 646.176)">
        <g id="Grupo_75064" data-name="Grupo 75064" transform="translate(0 13.266)">
          <g id="Grupo_75063" data-name="Grupo 75063" transform="translate(0 0)">
            <rect id="Rectángulo_21457" data-name="Rectángulo 21457" width="57.544" height="10.005" transform="translate(0 7.06) rotate(-7.048)" fill="#a0a603"/>
          </g>
        </g>
        <g id="Grupo_75066" data-name="Grupo 75066" transform="translate(5.884 23.771)">
          <g id="Grupo_75065" data-name="Grupo 75065" transform="translate(0 0)">
            <rect id="Rectángulo_21458" data-name="Rectángulo 21458" width="48.159" height="28.895" transform="translate(0 5.909) rotate(-7.048)" fill="#a0a603"/>
          </g>
        </g>
        <g id="Grupo_75068" data-name="Grupo 75068" transform="translate(8.937 7.732)">
          <g id="Grupo_75067" data-name="Grupo 75067">
            <path id="Trazado_168820" data-name="Trazado 168820" d="M2834.106,688.448l.208,1.683-16.778,2.074a22.833,22.833,0,0,1-.606-7.763c.442-2.626,1.94-4.573,5.889-3.141,7.729,2.8,10.521,6.079,11.158,6.935l0,.017c.055.081.092.147.111.18Z" transform="translate(-2816.784 -680.815)" fill="#ced351"/>
          </g>
        </g>
        <g id="Grupo_75070" data-name="Grupo 75070" transform="translate(29.943 0)">
          <g id="Grupo_75069" data-name="Grupo 75069">
            <path id="Trazado_168821" data-name="Trazado 168821" d="M2942.01,655.716l-17.646,2.182-.271-2.192.017-.026,0-.024a4.283,4.283,0,0,0,.187-.43c1.122-2.579,6.706-14.731,12.317-13.87,1.836.276,3.064,1.631,3.883,3.4C2942.462,649.008,2942.01,655.716,2942.01,655.716Z" transform="translate(-2924.093 -641.313)" fill="#ced351"/>
          </g>
        </g>
        <g id="Grupo_75072" data-name="Grupo 75072" transform="translate(29.957 0)">
          <g id="Grupo_75071" data-name="Grupo 75071">
            <path id="Trazado_168822" data-name="Trazado 168822" d="M2940.551,644.753a6.326,6.326,0,0,1-6.531,5.784c-3.644,0-8.208,3.719-9.6,4.92-.126.111-.216.194-.252.223l0-.024a4.245,4.245,0,0,0,.187-.43c1.123-2.579,6.706-14.731,12.317-13.87C2938.5,641.633,2939.733,642.988,2940.551,644.753Z" transform="translate(-2924.164 -641.313)" fill="#6f7302"/>
          </g>
        </g>
        <g id="Grupo_75074" data-name="Grupo 75074" transform="translate(9.084 7.732)">
          <g id="Grupo_75073" data-name="Grupo 75073">
            <path id="Trazado_168823" data-name="Trazado 168823" d="M2834.691,688.432a.333.333,0,0,1-.106-.022c-.977-.39-7.726-4.083-11.632-3.019-2.895.781-4.115-.39-5.422-.95.441-2.626,1.939-4.573,5.889-3.141,7.728,2.8,10.521,6.079,11.158,6.935l0,.017C2834.634,688.333,2834.672,688.4,2834.691,688.432Z" transform="translate(-2817.531 -680.815)" fill="#6f7302"/>
          </g>
        </g>
        <g id="Grupo_75076" data-name="Grupo 75076" transform="translate(26.135 13.13)">
          <g id="Grupo_75075" data-name="Grupo 75075">
            <path id="Trazado_168824" data-name="Trazado 168824" d="M2909.171,710.736l.265,2.145-4.5.557-.265-2.145a1.372,1.372,0,0,1-.015-.3.782.782,0,0,1-.006-.221l0-.024a2.594,2.594,0,0,1,.045-.328,2.3,2.3,0,0,1,1.919-2.019,2.322,2.322,0,0,1,2.365,1.589l0,.024a.575.575,0,0,1,.06.141,1.222,1.222,0,0,1,.072.238A1.881,1.881,0,0,1,2909.171,710.736Z" transform="translate(-2904.641 -708.39)" fill="#fc0"/>
          </g>
        </g>
        <g id="Grupo_75078" data-name="Grupo 75078" transform="translate(26.32 16.566)">
          <g id="Grupo_75077" data-name="Grupo 75077" transform="translate(0 0)">
            <rect id="Rectángulo_21459" data-name="Rectángulo 21459" width="4.514" height="38.853" transform="translate(0 0.554) rotate(-7.048)" fill="#fff"/>
          </g>
        </g>
        <g id="Grupo_75080" data-name="Grupo 75080" transform="translate(32.022 23.771)">
          <g id="Grupo_75079" data-name="Grupo 75079" transform="translate(0 0)">
            <rect id="Rectángulo_21460" data-name="Rectángulo 21460" width="21.823" height="1.667" transform="translate(0 2.678) rotate(-7.048)" fill="#6f7302"/>
          </g>
        </g>
        <g id="Grupo_75082" data-name="Grupo 75082" transform="translate(5.885 27.002)">
          <g id="Grupo_75081" data-name="Grupo 75081" transform="translate(0 0)">
            <rect id="Rectángulo_21461" data-name="Rectángulo 21461" width="21.822" height="1.667" transform="matrix(0.992, -0.123, 0.123, 0.992, 0, 2.678)" fill="#6f7302"/>
          </g>
        </g>
        <g id="Grupo_75084" data-name="Grupo 75084" transform="translate(27.542 26.448)">
          <g id="Grupo_75083" data-name="Grupo 75083" transform="translate(0 0)">
            <rect id="Rectángulo_21462" data-name="Rectángulo 21462" width="4.514" height="1.667" transform="matrix(0.992, -0.123, 0.123, 0.992, 0, 0.554)" fill="#e5e6eb"/>
          </g>
        </g>
      </g>
      <g id="Grupo_75093" data-name="Grupo 75093" transform="translate(2819.999 594.481)">
        <g id="Grupo_75088" data-name="Grupo 75088" transform="translate(0 0.86)">
          <g id="Grupo_75087" data-name="Grupo 75087">
            <g id="Grupo_75086" data-name="Grupo 75086">
              <path id="Trazado_168825" data-name="Trazado 168825" d="M2900.121,795.585a4.137,4.137,0,0,1,1.988-5.221l4.092-1.8,4.055-1.855c2.714-1.213,5.363-2.536,8.033-3.805,5.283-2.637,10.518-5.323,15.514-8.27a144.3,144.3,0,0,0,14.268-9.45,89.066,89.066,0,0,0,12.141-11.036,85.824,85.824,0,0,0,9.652-12.939c2.877-4.66,5.512-9.657,8.113-14.863s5.165-10.606,7.815-16.056,5.359-10.959,8.208-16.439a12.771,12.771,0,0,1,8.834-6.375,15.278,15.278,0,0,1,11.3,2.31,16.119,16.119,0,0,1,6.844,9.27,12.421,12.421,0,0,1-1.6,10.321c-3.43,4.736-6.774,9.58-10.14,14.5s-6.732,9.941-10.287,15.026-7.321,10.238-11.548,15.242a103.984,103.984,0,0,1-30.4,24.9,159.625,159.625,0,0,1-17.143,8.029c-5.769,2.338-11.591,4.31-17.406,6.208-2.921.893-5.822,1.839-8.749,2.66l-4.378,1.268-4.388,1.2A4.075,4.075,0,0,1,2900.121,795.585Z" transform="translate(-2899.862 -687.204)" fill="#f5bdc8"/>
            </g>
          </g>
        </g>
        <g id="Grupo_75090" data-name="Grupo 75090" transform="translate(70.664 0.764)">
          <g id="Grupo_75089" data-name="Grupo 75089">
            <path id="Trazado_168826" data-name="Trazado 168826" d="M3097.665,744.1l18.019-28.759c5.451-8.7,3.577-20.039-5.123-25.489h0c-8.7-5.45-20.929-2.948-26.38,5.751l-18.019,28.76Z" transform="translate(-3066.163 -686.979)" fill="#529ad9"/>
          </g>
        </g>
        <g id="Grupo_75092" data-name="Grupo 75092" transform="translate(69.631 0)">
          <g id="Grupo_75091" data-name="Grupo 75091">
            <path id="Trazado_168827" data-name="Trazado 168827" d="M3063.732,723.571l5.717,3.582.429-.617-5.113-3.2,4.2-6.705-.543-.541Zm10.056-14.639,7.494-11.964-.6-.454-7.5,11.976Zm13.686-20.253.271.723a19.748,19.748,0,0,1,21.42-.582,17.2,17.2,0,0,1,7.526,10.081l.739-.147a17.974,17.974,0,0,0-7.866-10.569,19.478,19.478,0,0,0-3.162-1.594A20.515,20.515,0,0,0,3087.473,688.679Zm-12.26,41.2-.452.6,11.111,6.96.393-.639Zm37.724-13.416-14.108,22.519.684.318,14.132-22.558Z" transform="translate(-3063.732 -685.18)" fill="#fff"/>
          </g>
        </g>
      </g>
    </g>
  </g>
</svg>
