<svg xmlns="http://www.w3.org/2000/svg" width="403.08" height="345.701" viewBox="0 0 403.08 345.701">
  <g id="Grupo_79368" data-name="Grupo 79368" transform="translate(-55 -93.143)">
    <g id="Floor" transform="translate(55 182.124)">
      <path id="Floor-2" data-name="Floor" d="M114.031,382.167c78.706,46.22,206.315,46.221,285.02,0s78.706-121.161,0-167.382-206.315-46.221-285.021,0S35.324,335.946,114.031,382.167Z" transform="translate(-55 -180.12)" fill="#f0f0f0"/>
    </g>
    <g id="Shadow" transform="translate(72.791 224.659)">
      <path id="Shadows" d="M74.3,352.681l142.207,82.1a10.19,10.19,0,0,0,9.224,0L441.471,310.22c2.547-1.471,2.547-3.855,0-5.325l-142.2-82.1a10.2,10.2,0,0,0-9.224,0L74.3,347.357C71.754,348.827,71.754,351.211,74.3,352.681Z" transform="translate(-72.39 -221.696)" fill="#e0e0e0"/>
      <path id="Shadow-2" data-name="Shadow" d="M417.186,229.6c-16.783-6.718-43.541-6.719-59.765,0s-16.226,17.613,0,24.332,42.982,6.718,59.765,0S433.969,236.321,417.186,229.6Z" transform="translate(-66.101 -221.63)" fill="#e0e0e0"/>
    </g>
    <g id="Plants" transform="translate(55.176 266.525)">
      <g id="Plants-2" data-name="Plants">
        <g id="Grupo_79326" data-name="Grupo 79326">
          <path id="Trazado_178166" data-name="Trazado 178166" d="M98.987,297.734c-.523-6.5-5.531-17.581-12.951-25.475s-19.291-11.7-26.614-8.516c-6.82,2.963-5.32,12.1,3.679,17.515S85.507,293.3,90.1,303.539l8.891,12.3Z" transform="translate(-55.172 -262.619)" fill="#27debf"/>
          <path id="Trazado_178167" data-name="Trazado 178167" d="M98.987,297.734c-.523-6.5-5.531-17.581-12.951-25.475s-19.291-11.7-26.614-8.516c-6.82,2.963-5.32,12.1,3.679,17.515S85.507,293.3,90.1,303.539l8.891,12.3Z" transform="translate(-55.172 -262.619)" opacity="0.1"/>
          <g id="Grupo_79325" data-name="Grupo 79325" transform="translate(8.045 4.801)">
            <path id="Trazado_178168" data-name="Trazado 178168" d="M99.742,306.136a.459.459,0,0,0,.142-.022.451.451,0,0,0,.285-.569c-7.3-22.042-28.015-36.813-36.612-38.225a.45.45,0,0,0-.145.888c8.414,1.382,28.712,15.912,35.9,37.62A.45.45,0,0,0,99.742,306.136Z" transform="translate(-63.035 -267.313)" fill="#fff"/>
          </g>
        </g>
        <g id="Grupo_79327" data-name="Grupo 79327" transform="translate(6.429 27.819)">
          <path id="Trazado_178169" data-name="Trazado 178169" d="M97.87,323.931c-1.337-3.568-6.283-9.236-13.9-13.634-8.425-4.866-18.729-6.586-21.4-10.686-3.211-4.924.738-10.138,9.018-9.781s23.6,10.385,27.254,27.042Z" transform="translate(-61.456 -289.812)" fill="#599e85"/>
        </g>
        <g id="Grupo_79328" data-name="Grupo 79328" transform="translate(13.145 32.003)">
          <path id="Trazado_178170" data-name="Trazado 178170" d="M98.1,317.071a.443.443,0,0,0,.2-.048.45.45,0,0,0,.2-.6c-7.128-14.19-22.171-20.823-29.937-22.506a.449.449,0,0,0-.189.879c7.608,1.649,22.346,8.144,29.322,22.031A.452.452,0,0,0,98.1,317.071Z" transform="translate(-68.021 -293.901)" fill="#fff"/>
        </g>
      </g>
    </g>
    <g id="Notebook" transform="translate(74.039 219.524)">
      <g id="Notebook-2" data-name="Notebook" transform="translate(0)">
        <g id="Grupo_79329" data-name="Grupo 79329" transform="translate(107.235)">
          <path id="Trazado_178171" data-name="Trazado 178171" d="M178.429,281.388v-2.8L284.72,220.021a5.574,5.574,0,0,1,5.044,0l147.393,83.163s0,2.261,0,2.787a1.772,1.772,0,0,1-1.045,1.458L329.822,368.794Z" transform="translate(-178.429 -216.613)" fill="#27debf"/>
          <path id="Trazado_178172" data-name="Trazado 178172" d="M433.746,304.106c0-.527,0-2.787,0-2.787l-1.8-1.015L326.411,364.126v2.8L432.7,305.564A1.772,1.772,0,0,0,433.746,304.106Z" transform="translate(-175.018 -214.749)" fill="#d16247"/>
          <path id="Trazado_178173" data-name="Trazado 178173" d="M178.429,278.647,284.72,217.28a5.574,5.574,0,0,1,5.044,0l146.349,84.5c1.392.8,1.392,2.107,0,2.912L329.822,366.053Z" transform="translate(-178.429 -216.677)" fill="#f8cd9e"/>
          <path id="Trazado_178174" data-name="Trazado 178174" d="M329.821,367.462v-2.8L178.429,277.251v2.8Z" transform="translate(-178.429 -215.28)" fill="#b74e39"/>
        </g>
        <g id="Grupo_79330" data-name="Grupo 79330" transform="translate(0 63.387)">
          <path id="Trazado_178175" data-name="Trazado 178175" d="M183.272,281.306,75.819,337.881l-2.209,3.474v2.8a4.044,4.044,0,0,0,2.209,3.474L217.434,429.39a7.887,7.887,0,0,0,7.373,0l105.054-60.652v-2.8Z" transform="translate(-73.61 -278.573)" fill="#27debf"/>
          <path id="Trazado_178176" data-name="Trazado 178176" d="M183.272,281.306,75.819,337.881l-2.209,3.474v2.8a4.044,4.044,0,0,0,2.209,3.474L217.434,429.39a7.887,7.887,0,0,0,7.373,0l105.054-60.652v-2.8Z" transform="translate(-73.61 -278.573)" fill="#d16247"/>
          <path id="Trazado_178177" data-name="Trazado 178177" d="M221.12,427.568a7.487,7.487,0,0,1-3.686-.915L75.819,344.89a3.836,3.836,0,0,1,0-6.948l102.725-59.307L329.861,366,224.807,426.654A7.488,7.488,0,0,1,221.12,427.568Z" transform="translate(-73.61 -278.635)" fill="#f8cd9e"/>
        </g>
        <g id="Grupo_79331" data-name="Grupo 79331" transform="translate(2.329 55.178)">
          <path id="Trazado_178178" data-name="Trazado 178178" d="M178.489,270.611,76.932,329.246,75.887,330.7v10.9h0a1.771,1.771,0,0,0,1.045,1.456l141.615,81.764a5.572,5.572,0,0,0,5.043,0l101.56-58.635v-10.9Z" transform="translate(-75.887 -270.611)" fill="#ebebeb"/>
          <path id="Trazado_178179" data-name="Trazado 178179" d="M325.156,355.292l-1.27.734-16.527,9.539-3.074,1.782-80.69,46.575a5.572,5.572,0,0,1-5.043,0L76.926,332.153c-1.385-.8-1.385-2.108,0-2.912l1.351-.781,100.212-57.85L323.9,354.558l.3.186Z" transform="translate(-75.887 -270.611)" fill="#f0f0f0"/>
          <path id="Trazado_178180" data-name="Trazado 178180" d="M221.068,413.174v10.9a5.062,5.062,0,0,1-2.516-.606L76.926,341.7a1.764,1.764,0,0,1-1.036-1.456v-10.9a1.792,1.792,0,0,0,1.036,1.456l141.626,81.768A5.051,5.051,0,0,0,221.068,413.174Z" transform="translate(-75.887 -269.257)" fill="#e0e0e0"/>
        </g>
        <path id="Trazado_178181" data-name="Trazado 178181" d="M325.115,353.869,306.829,364.42l-2.866,1.653L223.554,412.5a5.572,5.572,0,0,1-5.043,0L91.69,339.279c-1.142-.629-2.2-1.246-3.191-1.84-5.16-3.144-8.269-5.951-10.261-8.945-.082-.128-.163-.245-.245-.372a2.02,2.02,0,0,1-.315-.757,2.265,2.265,0,0,1,1.771-2.563,46.782,46.782,0,0,0,9.562-3.983c.046-.024.081-.047.128-.071l89.308-51.56Z" transform="translate(-73.517 -215.466)" fill="#fafafa"/>
        <g id="Grupo_79342" data-name="Grupo 79342" transform="translate(103.957 53.865)">
          <g id="Grupo_79332" data-name="Grupo 79332" transform="translate(127.741 73.752)">
            <path id="Trazado_178182" data-name="Trazado 178182" d="M301.059,350.723c-1.294.755-1.294,1.978,0,2.732a5.182,5.182,0,0,0,4.708,0c1.306-.754,1.306-1.978,0-2.732A5.182,5.182,0,0,0,301.059,350.723Z" transform="translate(-300.088 -341.217)" opacity="0.1"/>
            <path id="Trazado_178183" data-name="Trazado 178183" d="M316.15,342.094c-1.793-1.036-4.041-.874-6.336.443-3.552,2.06-6.627,6.65-7.966,11.46a4.776,4.776,0,0,0,1.736.21c1.234-4.287,3.959-8.328,7.1-10.156a5.955,5.955,0,0,1,2.888-.886,3.4,3.4,0,0,1,1.7.443c1.513.874,2.387,3,2.387,5.834a11.449,11.449,0,0,1-.081,1.4l1.653.954a16.2,16.2,0,0,0,.175-2.353C319.412,345.973,318.224,343.294,316.15,342.094Z" transform="translate(-300.048 -341.419)" fill="#263238"/>
            <path id="Trazado_178184" data-name="Trazado 178184" d="M318.695,352.45a2.933,2.933,0,0,1-.082.408l-.3-.186Z" transform="translate(-299.668 -341.165)" fill="#263238"/>
          </g>
          <g id="Grupo_79333" data-name="Grupo 79333" transform="translate(113.55 65.555)">
            <path id="Trazado_178185" data-name="Trazado 178185" d="M287.188,342.711c-1.294.755-1.294,1.978,0,2.732a5.181,5.181,0,0,0,4.709,0c1.306-.754,1.306-1.978,0-2.732A5.182,5.182,0,0,0,287.188,342.711Z" transform="translate(-286.217 -333.205)" opacity="0.1"/>
            <path id="Trazado_178186" data-name="Trazado 178186" d="M302.279,334.082c-1.793-1.036-4.041-.874-6.336.443-3.552,2.061-6.627,6.65-7.966,11.46a4.774,4.774,0,0,0,1.735.21c1.235-4.287,3.96-8.328,7.105-10.156a5.955,5.955,0,0,1,2.888-.886,3.394,3.394,0,0,1,1.7.443c1.514.874,2.388,3,2.388,5.835a11.243,11.243,0,0,1-.082,1.4l1.654.954a16.2,16.2,0,0,0,.175-2.352C305.541,337.961,304.353,335.282,302.279,334.082Z" transform="translate(-286.177 -333.407)" fill="#263238"/>
          </g>
          <g id="Grupo_79334" data-name="Grupo 79334" transform="translate(99.355 57.36)">
            <path id="Trazado_178187" data-name="Trazado 178187" d="M273.312,334.7c-1.293.754-1.294,1.977,0,2.732a5.181,5.181,0,0,0,4.709,0c1.306-.754,1.306-1.977,0-2.732A5.181,5.181,0,0,0,273.312,334.7Z" transform="translate(-272.342 -325.194)" opacity="0.1"/>
            <path id="Trazado_178188" data-name="Trazado 178188" d="M288.4,326.071c-1.793-1.036-4.042-.874-6.336.443-3.553,2.061-6.627,6.65-7.966,11.46a4.774,4.774,0,0,0,1.735.21c1.235-4.286,3.96-8.328,7.105-10.156a5.96,5.96,0,0,1,2.888-.885,3.4,3.4,0,0,1,1.7.442c1.514.874,2.388,3,2.388,5.835a11.231,11.231,0,0,1-.082,1.4l1.654.954a16.2,16.2,0,0,0,.175-2.352C291.666,329.95,290.477,327.271,288.4,326.071Z" transform="translate(-272.301 -325.396)" fill="#263238"/>
          </g>
          <g id="Grupo_79335" data-name="Grupo 79335" transform="translate(85.163 49.168)">
            <path id="Trazado_178189" data-name="Trazado 178189" d="M259.44,326.693a1.446,1.446,0,0,0,0,2.732,5.182,5.182,0,0,0,4.708,0c1.306-.754,1.306-1.978,0-2.732A5.182,5.182,0,0,0,259.44,326.693Z" transform="translate(-258.469 -317.187)" opacity="0.1"/>
            <path id="Trazado_178190" data-name="Trazado 178190" d="M274.531,318.064c-1.793-1.036-4.041-.874-6.336.442-3.552,2.061-6.627,6.651-7.966,11.461a4.772,4.772,0,0,0,1.735.21c1.235-4.287,3.96-8.328,7.105-10.157a5.964,5.964,0,0,1,2.888-.885,3.391,3.391,0,0,1,1.7.443c1.514.874,2.388,3,2.388,5.834a11.45,11.45,0,0,1-.081,1.4l1.653.954a16.211,16.211,0,0,0,.175-2.353C277.793,321.943,276.6,319.263,274.531,318.064Z" transform="translate(-258.429 -317.389)" fill="#263238"/>
          </g>
          <g id="Grupo_79336" data-name="Grupo 79336" transform="translate(70.97 40.973)">
            <path id="Trazado_178191" data-name="Trazado 178191" d="M245.567,318.683a1.446,1.446,0,0,0,0,2.732,5.185,5.185,0,0,0,4.709,0c1.306-.755,1.306-1.978,0-2.732A5.183,5.183,0,0,0,245.567,318.683Z" transform="translate(-244.596 -309.177)" opacity="0.1"/>
            <path id="Trazado_178192" data-name="Trazado 178192" d="M260.658,310.054c-1.793-1.037-4.041-.874-6.336.442-3.552,2.061-6.627,6.651-7.966,11.461a4.774,4.774,0,0,0,1.735.21c1.235-4.287,3.96-8.328,7.105-10.157a5.963,5.963,0,0,1,2.888-.885,3.391,3.391,0,0,1,1.7.443c1.514.874,2.388,3,2.388,5.834a11.219,11.219,0,0,1-.082,1.4l1.654.956a16.207,16.207,0,0,0,.175-2.353C263.92,313.933,262.732,311.253,260.658,310.054Z" transform="translate(-244.556 -309.378)" fill="#263238"/>
          </g>
          <g id="Grupo_79337" data-name="Grupo 79337" transform="translate(56.773 32.778)">
            <path id="Trazado_178193" data-name="Trazado 178193" d="M231.69,310.672c-1.293.755-1.294,1.978,0,2.732a5.182,5.182,0,0,0,4.709,0c1.306-.754,1.306-1.978,0-2.732A5.185,5.185,0,0,0,231.69,310.672Z" transform="translate(-230.72 -301.166)" opacity="0.1"/>
            <path id="Trazado_178194" data-name="Trazado 178194" d="M246.782,302.043c-1.793-1.036-4.042-.874-6.336.443-3.553,2.061-6.627,6.65-7.966,11.46a4.768,4.768,0,0,0,1.735.21c1.235-4.287,3.96-8.328,7.105-10.156a5.963,5.963,0,0,1,2.888-.886,3.4,3.4,0,0,1,1.7.443c1.514.874,2.388,3,2.388,5.835a11.231,11.231,0,0,1-.082,1.4l1.654.954a16.2,16.2,0,0,0,.174-2.352C250.043,305.922,248.855,303.243,246.782,302.043Z" transform="translate(-230.679 -301.368)" fill="#263238"/>
          </g>
          <g id="Grupo_79338" data-name="Grupo 79338" transform="translate(42.582 24.584)">
            <path id="Trazado_178195" data-name="Trazado 178195" d="M217.819,302.663a1.446,1.446,0,0,0,0,2.732,5.185,5.185,0,0,0,4.709,0c1.306-.755,1.306-1.978,0-2.732A5.183,5.183,0,0,0,217.819,302.663Z" transform="translate(-216.848 -293.157)" opacity="0.1"/>
            <path id="Trazado_178196" data-name="Trazado 178196" d="M232.91,294.034c-1.793-1.036-4.041-.874-6.336.442-3.552,2.061-6.627,6.651-7.966,11.461a4.8,4.8,0,0,0,1.735.21c1.235-4.287,3.96-8.328,7.105-10.157a5.964,5.964,0,0,1,2.888-.885,3.391,3.391,0,0,1,1.7.443c1.514.873,2.388,3,2.388,5.834a11.25,11.25,0,0,1-.082,1.4l1.654.955a16.209,16.209,0,0,0,.175-2.353C236.172,297.913,234.983,295.233,232.91,294.034Z" transform="translate(-216.808 -293.359)" fill="#263238"/>
          </g>
          <g id="Grupo_79339" data-name="Grupo 79339" transform="translate(28.387 16.39)">
            <path id="Trazado_178197" data-name="Trazado 178197" d="M203.943,294.653a1.446,1.446,0,0,0,0,2.732,5.183,5.183,0,0,0,4.708,0c1.306-.754,1.307-1.978,0-2.732A5.183,5.183,0,0,0,203.943,294.653Z" transform="translate(-202.972 -285.147)" opacity="0.1"/>
            <path id="Trazado_178198" data-name="Trazado 178198" d="M219.034,286.024c-1.793-1.036-4.041-.874-6.336.442-3.552,2.062-6.627,6.651-7.966,11.461a4.777,4.777,0,0,0,1.736.21c1.234-4.287,3.959-8.328,7.1-10.157a5.964,5.964,0,0,1,2.888-.885,3.4,3.4,0,0,1,1.7.443c1.513.874,2.387,3,2.387,5.834a11.446,11.446,0,0,1-.081,1.4l1.653.955a16.209,16.209,0,0,0,.175-2.353C222.3,289.9,221.108,287.223,219.034,286.024Z" transform="translate(-202.932 -285.349)" fill="#263238"/>
          </g>
          <g id="Grupo_79340" data-name="Grupo 79340" transform="translate(14.196 8.193)">
            <path id="Trazado_178199" data-name="Trazado 178199" d="M190.072,286.642c-1.294.754-1.294,1.977,0,2.731a5.176,5.176,0,0,0,4.708,0c1.306-.754,1.306-1.977,0-2.732A5.179,5.179,0,0,0,190.072,286.642Z" transform="translate(-189.101 -277.136)" opacity="0.1"/>
            <path id="Trazado_178200" data-name="Trazado 178200" d="M205.163,278.012c-1.793-1.036-4.041-.873-6.336.443-3.552,2.061-6.627,6.65-7.966,11.46a4.774,4.774,0,0,0,1.735.21c1.235-4.286,3.96-8.328,7.105-10.156a5.964,5.964,0,0,1,2.888-.885,3.4,3.4,0,0,1,1.7.442c1.514.874,2.388,3,2.388,5.835a11.427,11.427,0,0,1-.081,1.4l1.653.956a16.227,16.227,0,0,0,.175-2.353C208.425,281.891,207.237,279.212,205.163,278.012Z" transform="translate(-189.061 -277.337)" fill="#263238"/>
          </g>
          <g id="Grupo_79341" data-name="Grupo 79341">
            <path id="Trazado_178201" data-name="Trazado 178201" d="M176.2,278.633c-1.294.754-1.294,1.977,0,2.732a5.183,5.183,0,0,0,4.708,0c1.307-.755,1.307-1.978,0-2.732A5.182,5.182,0,0,0,176.2,278.633Z" transform="translate(-175.225 -269.127)" opacity="0.1"/>
            <path id="Trazado_178202" data-name="Trazado 178202" d="M191.288,270c-1.794-1.037-4.042-.874-6.336.442-3.553,2.061-6.627,6.651-7.967,11.46a4.754,4.754,0,0,0,1.736.21c1.235-4.286,3.959-8.327,7.1-10.156a5.964,5.964,0,0,1,2.889-.885,3.4,3.4,0,0,1,1.7.442c1.514.874,2.388,3.006,2.388,5.835a11.219,11.219,0,0,1-.082,1.4l1.654.956a16.364,16.364,0,0,0,.174-2.353C194.549,273.883,193.361,271.2,191.288,270Z" transform="translate(-175.185 -269.328)" fill="#263238"/>
          </g>
        </g>
        <g id="Grupo_79343" data-name="Grupo 79343" transform="translate(19.762 70.151)">
          <line id="Línea_1051" data-name="Línea 1051" x1="78.133" y2="45.111" transform="translate(113.556 65.562)" fill="none" stroke="#ebebeb" stroke-linecap="round" stroke-miterlimit="10" stroke-width="0.569"/>
          <line id="Línea_1052" data-name="Línea 1052" x1="78.133" y2="45.111" transform="translate(104.093 60.099)" fill="none" stroke="#ebebeb" stroke-linecap="round" stroke-miterlimit="10" stroke-width="0.569"/>
          <line id="Línea_1053" data-name="Línea 1053" x1="78.133" y2="45.111" transform="translate(94.63 54.635)" fill="none" stroke="#ebebeb" stroke-linecap="round" stroke-miterlimit="10" stroke-width="0.569"/>
          <line id="Línea_1054" data-name="Línea 1054" x1="78.133" y2="45.111" transform="translate(85.167 49.172)" fill="none" stroke="#ebebeb" stroke-linecap="round" stroke-miterlimit="10" stroke-width="0.569"/>
          <line id="Línea_1055" data-name="Línea 1055" x1="78.133" y2="45.111" transform="translate(75.704 43.708)" fill="none" stroke="#ebebeb" stroke-linecap="round" stroke-miterlimit="10" stroke-width="0.569"/>
          <line id="Línea_1056" data-name="Línea 1056" x1="78.133" y2="45.111" transform="translate(66.241 38.245)" fill="none" stroke="#ebebeb" stroke-linecap="round" stroke-miterlimit="10" stroke-width="0.569"/>
          <line id="Línea_1057" data-name="Línea 1057" x1="78.133" y2="45.111" transform="translate(56.778 32.781)" fill="none" stroke="#ebebeb" stroke-linecap="round" stroke-miterlimit="10" stroke-width="0.569"/>
          <line id="Línea_1058" data-name="Línea 1058" x1="78.133" y2="45.111" transform="translate(47.315 27.318)" fill="none" stroke="#ebebeb" stroke-linecap="round" stroke-miterlimit="10" stroke-width="0.569"/>
          <line id="Línea_1059" data-name="Línea 1059" x1="78.133" y2="45.111" transform="translate(37.852 21.854)" fill="none" stroke="#ebebeb" stroke-linecap="round" stroke-miterlimit="10" stroke-width="0.569"/>
          <line id="Línea_1060" data-name="Línea 1060" x1="78.133" y2="45.111" transform="translate(28.389 16.391)" fill="none" stroke="#ebebeb" stroke-linecap="round" stroke-miterlimit="10" stroke-width="0.569"/>
          <line id="Línea_1061" data-name="Línea 1061" x1="78.133" y2="45.111" transform="translate(18.926 10.927)" fill="none" stroke="#ebebeb" stroke-linecap="round" stroke-miterlimit="10" stroke-width="0.569"/>
          <line id="Línea_1062" data-name="Línea 1062" x1="78.133" y2="45.111" transform="translate(9.463 5.463)" fill="none" stroke="#ebebeb" stroke-linecap="round" stroke-miterlimit="10" stroke-width="0.569"/>
          <line id="Línea_1063" data-name="Línea 1063" x1="78.133" y2="45.111" fill="none" stroke="#ebebeb" stroke-linecap="round" stroke-miterlimit="10" stroke-width="0.569"/>
        </g>
        <g id="Grupo_79344" data-name="Grupo 79344" transform="translate(93.155 67.441)">
          <line id="Línea_1064" data-name="Línea 1064" x2="137.225" y2="79.197" fill="none" stroke="#27debf" stroke-linecap="round" stroke-miterlimit="10" stroke-width="0.569"/>
          <line id="Línea_1065" data-name="Línea 1065" x1="82.643" y2="47.799" transform="translate(49.771 71.048)" fill="none" stroke="#27debf" stroke-linecap="round" stroke-miterlimit="10" stroke-width="0.569"/>
        </g>
        <g id="Grupo_79350" data-name="Grupo 79350" transform="translate(65.354 89.595)" opacity="0.25">
          <g id="Grupo_79345" data-name="Grupo 79345" transform="translate(57.716 31.902)">
            <path id="Trazado_178203" data-name="Trazado 178203" d="M254.432,342.434c-.721-1.095-2.054-1.533-3.193-2.048-.467-.211-.992-.5-1.543-.786-.722-1.157-1.676-3.038-.411-3.278.755-.142,2.22.651,3.039.894.458.136.353-.534.032-.66-1.392-.547-4.054-2.273-4.627.1a3.608,3.608,0,0,0,.322,2.177A4.636,4.636,0,0,0,246,338.45c-.656.06-1.217.079-1.448.848-.126.422.056.607.083.925a.812.812,0,0,0,.66.673,6.718,6.718,0,0,0-.742-.056c-.985-.037-3.678-.69-4.3.534-.259.506.331,1.208.247,1.4-.04.089-1.961.736-2.3.942-.15.093-.048.625-.133.674a21.667,21.667,0,0,1-2.842.02c-1.567.128-5.439-.455-4.932,1.955.055.262.264.224.313.647a2.337,2.337,0,0,0,.119.587c-.056-.01-.165.039-.369.324-.132.184-.672.128-.866.371-.743.93.392,1.255-.533,1.834-1.3.817-4.016-.837-5.342.079-1.18.814.354,3.154-1.728,3.2-.458.009-.191.688.157.718,1.945.171,1.734-.2,2.108-1.786.609-2.593,4.478-.806,6.652-1.407a.373.373,0,0,0,.157-.569c-.57-.921.094-1.428.953-1.827a.373.373,0,0,0,.16-.564c-.232-.425-1.058-1.717-.553-2.325a12.486,12.486,0,0,1,2.306-.269,47.906,47.906,0,0,1,5.057-.089.354.354,0,0,0,.323-.479c-.243-.543,1.941-.889,2.428-1a.353.353,0,0,0,.208-.46c-1.045-2.594,2.8-1.639,4.4-1.387a.376.376,0,0,0,.445-.491c-.251-.874-2.181-1.752.107-2.073a3.716,3.716,0,0,1,1.755.419,12.21,12.21,0,0,0,4,4.12C254.059,344.725,255.6,344.2,254.432,342.434Zm-.707.47c.476.64-1.027.121-1.211.038a5.641,5.641,0,0,1-2-2.134c.465.255.885.486,1.189.626A4.679,4.679,0,0,1,253.725,342.9Z" transform="translate(-193.268 -335.436)" fill="#455a64"/>
            <path id="Trazado_178204" data-name="Trazado 178204" d="M215.993,358.439c-.285-1.128-.319-2.364.728-2.5.5-.066.145-.751-.231-.763-1.415-.045-1.857,1.182-1.673,2.661a8.12,8.12,0,0,0-1.753-.6c-.919-.173-1.513-.2-1.817.735-.181.559.268.924.233,1.426-.051.74.689.435-.423.727a6.807,6.807,0,0,1-1.292-.135,1.95,1.95,0,0,0-1.9.593c-.7.585,1.026.865-1.016.537a4.219,4.219,0,0,0-1.6-.222c-.752.17-1.147.386-1.022,1.216.055.372.861.869.856,1.107-.043,1.8-1.951.274-2.686,0a.336.336,0,0,0-.46.28c-.033.888.592,1.2-.7,1.283-.157.009-1.045-.489-1.329-.5-.833-.018-1.592,1.082-2.677.992-.3-.025-.4.242-.307.483.3.81.739,1.3-.9,2-.037.015-1.923-.238-1.88-.237-.47-.012-.17.759.192.787.747.056,3.27,1.121,4.016.115.55-.743-.535-1.6-.264-2.078-.178.312,1.439-.442,1.616-.5a4.606,4.606,0,0,1,1.266-.346c.227.011.414.366.655.364.315,0,.652.152.938-.017.218-.129.353-.528.469-.6.287-.189-.371-.418.193-.613.41-.14.764.274,1.147.395.611.192,1.536.643,2.058-.012.679-.851-.57-1.441-.453-2.014.262-1.279,2.089-.31,2.926-.879a.346.346,0,0,0,.118-.393c-.515-1.768,2.693-.385,3.7-.572.18-.034.371-.152.345-.367-.019-.164-.4-1.1-.4-1.111.253-1.062,1.713-.943,2.385-.764.65,2.152,2.357,4.322,4.219,3.742a.327.327,0,0,0,.234-.326C219.386,360.911,217.726,359.442,215.993,358.439Zm.67,1.772a5.088,5.088,0,0,1-.245-.507,4.4,4.4,0,0,1,1.308,1.291C218.087,362.064,216.838,360.51,216.663,360.21Z" transform="translate(-193.907 -334.981)" fill="#455a64"/>
          </g>
          <g id="Grupo_79346" data-name="Grupo 79346" transform="translate(75.406 43.777)">
            <path id="Trazado_178205" data-name="Trazado 178205" d="M243.987,369.8c-.721-1.094-2.054-1.532-3.193-2.047-.466-.212-.992-.5-1.544-.786-.721-1.157-1.675-3.038-.41-3.278.755-.143,2.22.651,3.039.894.457.136.353-.534.032-.661-1.392-.546-4.054-2.273-4.627.1a3.6,3.6,0,0,0,.322,2.178,4.639,4.639,0,0,0-2.051-.38c-.656.061-1.217.08-1.448.848-.126.423.055.607.083.925a.814.814,0,0,0,.66.674,6.719,6.719,0,0,0-.742-.056c-.985-.038-3.678-.691-4.3.533-.259.506.333,1.208.248,1.4-.04.089-1.961.736-2.3.942-.151.092-.048.625-.133.674a21.5,21.5,0,0,1-2.842.019c-1.567.128-5.439-.454-4.932,1.956.055.262.264.224.313.646a2.335,2.335,0,0,0,.119.587c-.057-.009-.166.04-.369.324-.132.184-.672.128-.867.371-.742.931.393,1.255-.532,1.835-1.3.816-4.016-.837-5.342.078-1.18.814.354,3.154-1.728,3.2-.459.009-.191.689.157.719,1.945.17,1.734-.2,2.107-1.786.61-2.593,4.479-.806,6.653-1.407a.374.374,0,0,0,.157-.57c-.571-.92.094-1.428.953-1.826a.375.375,0,0,0,.16-.565c-.232-.424-1.058-1.717-.553-2.325a12.664,12.664,0,0,1,2.306-.269,48.171,48.171,0,0,1,5.057-.089.353.353,0,0,0,.322-.479c-.242-.542,1.942-.889,2.429-1a.352.352,0,0,0,.207-.46c-1.043-2.594,2.8-1.639,4.4-1.387a.375.375,0,0,0,.444-.491c-.25-.875-2.18-1.753.108-2.074a3.729,3.729,0,0,1,1.755.419,12.21,12.21,0,0,0,4,4.12C243.614,372.091,245.152,371.568,243.987,369.8Zm-.707.471c.476.64-1.027.121-1.212.038a5.649,5.649,0,0,1-2-2.135c.465.256.884.487,1.189.627A4.676,4.676,0,0,1,243.28,370.27Z" transform="translate(-211.198 -346.681)" fill="#455a64"/>
            <path id="Trazado_178206" data-name="Trazado 178206" d="M267.22,350.309c-.284-1.128-.318-2.364.728-2.5.5-.065.145-.751-.231-.762-1.414-.046-1.857,1.181-1.673,2.66a8.159,8.159,0,0,0-1.754-.6c-.918-.173-1.513-.2-1.817.736-.18.558.269.923.233,1.425-.051.74.69.435-.423.727a6.81,6.81,0,0,1-1.292-.134,1.951,1.951,0,0,0-1.9.592c-.7.585,1.027.864-1.015.537a4.245,4.245,0,0,0-1.6-.222c-.752.17-1.146.386-1.022,1.216.055.372.862.869.856,1.107-.043,1.8-1.951.274-2.684,0a.337.337,0,0,0-.461.281c-.033.888.593,1.2-.7,1.282-.157.01-1.045-.489-1.329-.5-.833-.019-1.592,1.082-2.676.992-.3-.025-.4.242-.308.482.3.811.739,1.3-.894,2-.038.015-1.924-.238-1.881-.237-.469-.012-.17.76.192.787.747.056,3.27,1.121,4.016.115.55-.742-.534-1.6-.264-2.077-.178.311,1.439-.443,1.617-.5a4.645,4.645,0,0,1,1.264-.346c.227.011.415.366.655.364.316,0,.652.152.938-.017.218-.128.354-.528.469-.6.287-.189-.371-.418.193-.613.411-.14.765.274,1.148.395.61.193,1.535.643,2.058-.012.678-.85-.571-1.441-.453-2.014.261-1.279,2.088-.31,2.926-.878a.349.349,0,0,0,.118-.394c-.516-1.768,2.692-.385,3.7-.572.18-.034.37-.151.344-.367-.019-.164-.4-1.1-.4-1.111.254-1.061,1.713-.943,2.386-.764.65,2.152,2.356,4.323,4.218,3.743a.327.327,0,0,0,.234-.327C270.614,352.782,268.953,351.312,267.22,350.309Zm.67,1.772a4.856,4.856,0,0,1-.243-.506,4.406,4.406,0,0,1,1.307,1.29C269.315,353.935,268.066,352.38,267.89,352.08Z" transform="translate(-210.416 -347.044)" fill="#455a64"/>
          </g>
          <g id="Grupo_79347" data-name="Grupo 79347">
            <path id="Trazado_178207" data-name="Trazado 178207" d="M198.016,311.251c-.721-1.095-2.054-1.533-3.193-2.048-.467-.211-.992-.5-1.543-.786-.722-1.157-1.676-3.038-.411-3.278.756-.142,2.221.651,3.039.894.458.136.354-.534.032-.66-1.392-.547-4.054-2.273-4.626.1a3.6,3.6,0,0,0,.321,2.177,4.648,4.648,0,0,0-2.051-.379c-.656.06-1.217.079-1.448.848-.126.421.056.607.083.925a.812.812,0,0,0,.661.673,6.741,6.741,0,0,0-.743-.056c-.985-.037-3.678-.69-4.3.534-.259.506.331,1.208.247,1.4-.04.09-1.96.736-2.3.942-.15.093-.048.625-.133.674a21.65,21.65,0,0,1-2.842.02c-1.567.128-5.439-.455-4.931,1.955.055.262.263.224.313.647a2.306,2.306,0,0,0,.118.587c-.056-.009-.165.039-.369.324-.132.184-.671.128-.866.371-.743.93.392,1.255-.533,1.834-1.3.817-4.016-.837-5.342.079-1.18.814.355,3.154-1.727,3.195-.459.009-.192.689.156.718,1.945.171,1.735-.2,2.108-1.786.61-2.593,4.478-.806,6.652-1.406a.374.374,0,0,0,.157-.57c-.57-.921.1-1.428.953-1.827a.373.373,0,0,0,.16-.564c-.232-.425-1.058-1.717-.553-2.325a12.573,12.573,0,0,1,2.306-.269,47.9,47.9,0,0,1,5.057-.089.354.354,0,0,0,.323-.479c-.243-.543,1.942-.889,2.428-1a.353.353,0,0,0,.208-.46c-1.045-2.594,2.8-1.639,4.4-1.387a.376.376,0,0,0,.445-.491c-.251-.874-2.181-1.752.107-2.073a3.723,3.723,0,0,1,1.756.419,12.2,12.2,0,0,0,4,4.12C197.643,313.542,199.181,313.019,198.016,311.251Zm-.707.47c.476.64-1.026.121-1.211.038a5.642,5.642,0,0,1-2-2.134c.467.255.885.486,1.189.626A4.679,4.679,0,0,1,197.309,311.72Z" transform="translate(-136.852 -304.253)" fill="#455a64"/>
            <path id="Trazado_178208" data-name="Trazado 178208" d="M159.577,327.256c-.285-1.128-.319-2.364.728-2.5.5-.065.145-.751-.231-.763-1.415-.045-1.857,1.182-1.673,2.661a8.173,8.173,0,0,0-1.753-.6c-.919-.173-1.513-.2-1.817.736-.181.558.268.923.233,1.425-.051.74.69.435-.423.727a6.81,6.81,0,0,1-1.292-.135,1.95,1.95,0,0,0-1.9.593c-.7.585,1.026.864-1.016.537a4.216,4.216,0,0,0-1.6-.222c-.752.17-1.146.386-1.022,1.216.055.372.861.869.856,1.107-.043,1.8-1.951.274-2.684,0a.337.337,0,0,0-.461.28c-.033.888.592,1.2-.7,1.283-.157.009-1.045-.489-1.329-.5-.833-.018-1.592,1.082-2.677.992-.3-.025-.4.242-.307.483.3.81.739,1.3-.894,2-.038.015-1.924-.238-1.881-.237-.47-.012-.17.759.192.787.747.056,3.27,1.121,4.016.115.55-.743-.534-1.6-.264-2.077-.178.311,1.439-.443,1.616-.5a4.616,4.616,0,0,1,1.266-.346c.227.011.415.366.655.364.316,0,.652.152.938-.017.218-.128.354-.528.469-.6.287-.189-.371-.418.193-.613.41-.14.764.274,1.148.395.61.192,1.535.643,2.057-.012.679-.851-.57-1.441-.453-2.014.262-1.279,2.089-.31,2.926-.879a.346.346,0,0,0,.118-.393c-.515-1.768,2.693-.385,3.7-.572.181-.034.371-.152.345-.367-.019-.164-.4-1.1-.4-1.111.253-1.062,1.713-.943,2.385-.764.65,2.152,2.357,4.322,4.219,3.742a.326.326,0,0,0,.234-.326C162.97,329.729,161.31,328.259,159.577,327.256Zm.67,1.772a4.9,4.9,0,0,1-.243-.507,4.418,4.418,0,0,1,1.307,1.291C161.672,330.882,160.422,329.327,160.247,329.027Z" transform="translate(-137.491 -303.798)" fill="#455a64"/>
          </g>
          <g id="Grupo_79348" data-name="Grupo 79348" transform="translate(17.69 11.876)">
            <path id="Trazado_178209" data-name="Trazado 178209" d="M187.571,338.617c-.721-1.094-2.054-1.532-3.193-2.047-.466-.212-.992-.5-1.543-.786-.722-1.157-1.676-3.038-.411-3.278.755-.143,2.22.651,3.039.894.458.136.353-.534.032-.661-1.392-.546-4.054-2.273-4.627.1a3.61,3.61,0,0,0,.322,2.178,4.635,4.635,0,0,0-2.051-.38c-.656.061-1.217.08-1.448.848-.126.423.056.607.083.925a.815.815,0,0,0,.66.674,6.423,6.423,0,0,0-.742-.056c-.985-.038-3.678-.691-4.3.533-.259.506.331,1.208.247,1.4-.04.089-1.96.736-2.3.942-.15.092-.048.625-.133.674a21.5,21.5,0,0,1-2.842.019c-1.567.129-5.439-.454-4.931,1.956.054.262.263.224.312.647a2.334,2.334,0,0,0,.119.586c-.056-.009-.165.04-.369.324-.132.185-.671.128-.865.371-.743.931.392,1.255-.533,1.835-1.3.816-4.016-.837-5.342.078-1.18.814.355,3.154-1.728,3.195-.458.009-.191.689.157.719,1.945.17,1.734-.2,2.109-1.786.61-2.593,4.478-.806,6.652-1.407a.374.374,0,0,0,.157-.57c-.57-.92.1-1.428.953-1.826a.374.374,0,0,0,.16-.564c-.232-.425-1.058-1.718-.553-2.326a12.664,12.664,0,0,1,2.306-.269,48.179,48.179,0,0,1,5.057-.089.354.354,0,0,0,.323-.479c-.243-.542,1.941-.889,2.428-1a.353.353,0,0,0,.208-.46c-1.045-2.594,2.8-1.639,4.4-1.387a.376.376,0,0,0,.445-.491c-.251-.875-2.181-1.752.107-2.074a3.729,3.729,0,0,1,1.755.419,12.209,12.209,0,0,0,4,4.12C187.2,340.908,188.736,340.385,187.571,338.617Zm-.707.471c.476.64-1.027.121-1.211.038a5.644,5.644,0,0,1-2-2.135c.465.256.885.487,1.189.627A4.678,4.678,0,0,1,186.864,339.087Z" transform="translate(-154.783 -315.498)" fill="#455a64"/>
            <path id="Trazado_178210" data-name="Trazado 178210" d="M210.8,319.126c-.284-1.128-.318-2.364.728-2.5.5-.065.145-.751-.231-.762-1.414-.046-1.857,1.181-1.673,2.66a8.136,8.136,0,0,0-1.753-.6c-.918-.172-1.513-.2-1.816.736-.181.559.268.923.233,1.425-.052.74.689.435-.424.727a6.825,6.825,0,0,1-1.292-.134,1.948,1.948,0,0,0-1.9.592c-.7.585,1.026.864-1.016.537a4.241,4.241,0,0,0-1.6-.222c-.752.17-1.146.386-1.022,1.216.056.373.862.869.856,1.107-.042,1.8-1.951.274-2.684,0a.337.337,0,0,0-.461.281c-.033.888.593,1.2-.7,1.282-.157.01-1.045-.489-1.329-.5-.832-.019-1.591,1.082-2.676.992-.3-.025-.4.242-.308.482.3.811.739,1.3-.894,2-.038.015-1.923-.238-1.88-.237-.47-.012-.171.76.192.787.746.056,3.269,1.122,4.015.115.55-.742-.534-1.6-.264-2.077-.178.311,1.439-.443,1.617-.5a4.645,4.645,0,0,1,1.264-.346c.227.011.415.366.655.364.316,0,.652.152.938-.017.218-.128.354-.528.469-.6.287-.189-.37-.418.194-.613.41-.14.764.274,1.147.395.61.193,1.535.643,2.058-.012.678-.85-.571-1.441-.453-2.014.262-1.279,2.089-.31,2.926-.878a.349.349,0,0,0,.118-.394c-.516-1.768,2.692-.385,3.7-.572.18-.034.37-.151.345-.367-.02-.164-.4-1.1-.4-1.111.254-1.061,1.713-.943,2.386-.764.65,2.152,2.356,4.323,4.218,3.743a.329.329,0,0,0,.235-.327C214.2,321.6,212.538,320.129,210.8,319.126Zm.67,1.772a4.864,4.864,0,0,1-.243-.506,4.393,4.393,0,0,1,1.307,1.29C212.9,322.752,211.65,321.2,211.474,320.9Z" transform="translate(-154.001 -315.861)" fill="#455a64"/>
          </g>
          <g id="Grupo_79349" data-name="Grupo 79349" transform="translate(23.623 20.543)">
            <path id="Trazado_178211" data-name="Trazado 178211" d="M193.37,357.449c-.72-1.094-2.053-1.533-3.192-2.048-.467-.211-.992-.5-1.544-.786-.722-1.157-1.676-3.038-.41-3.277.755-.143,2.22.651,3.039.893.457.136.353-.533.032-.66-1.392-.546-4.054-2.273-4.627.1a3.6,3.6,0,0,0,.322,2.177,4.651,4.651,0,0,0-2.051-.379c-.656.061-1.217.08-1.448.848-.126.423.055.607.082.925a.813.813,0,0,0,.661.673,6.888,6.888,0,0,0-.742-.055c-.985-.038-3.678-.691-4.3.533-.259.506.332,1.208.248,1.4-.04.089-1.961.735-2.3.941-.151.093-.048.625-.133.674a21.655,21.655,0,0,1-2.842.02c-1.567.128-5.439-.455-4.932,1.955.055.263.264.225.313.647a2.335,2.335,0,0,0,.119.587c-.057-.009-.166.039-.369.324-.132.184-.672.128-.867.371-.742.93.393,1.255-.532,1.835-1.3.816-4.018-.838-5.342.078-1.18.814.354,3.154-1.728,3.195-.459.009-.191.689.156.718,1.946.171,1.735-.2,2.108-1.785.61-2.593,4.479-.806,6.652-1.407a.373.373,0,0,0,.157-.57c-.57-.92.1-1.428.954-1.827a.373.373,0,0,0,.16-.564c-.233-.425-1.058-1.717-.553-2.325a12.573,12.573,0,0,1,2.306-.269,47.876,47.876,0,0,1,5.056-.089.354.354,0,0,0,.323-.479c-.242-.542,1.942-.889,2.429-1a.351.351,0,0,0,.207-.459c-1.044-2.594,2.8-1.64,4.4-1.388a.375.375,0,0,0,.444-.491c-.25-.874-2.18-1.751.108-2.073a3.716,3.716,0,0,1,1.755.419,12.208,12.208,0,0,0,4,4.12C193,359.74,194.536,359.216,193.37,357.449Zm-.706.471c.476.64-1.027.12-1.212.037a5.647,5.647,0,0,1-2-2.134c.465.256.884.486,1.189.627A4.676,4.676,0,0,1,192.664,357.919Z" transform="translate(-160.582 -323.731)" fill="#455a64"/>
            <path id="Trazado_178212" data-name="Trazado 178212" d="M211.725,339.679c-.284-1.128-.318-2.364.728-2.5.5-.065.145-.751-.231-.763-1.414-.045-1.857,1.182-1.673,2.661a8.157,8.157,0,0,0-1.754-.6c-.918-.173-1.513-.2-1.817.736-.18.558.269.923.233,1.425-.051.74.69.435-.423.727a6.819,6.819,0,0,1-1.292-.135,1.953,1.953,0,0,0-1.9.593c-.7.585,1.026.864-1.015.537a4.245,4.245,0,0,0-1.6-.222c-.752.17-1.146.386-1.022,1.216.055.372.862.869.856,1.107-.043,1.8-1.951.274-2.684,0a.337.337,0,0,0-.461.28c-.033.888.593,1.2-.7,1.283-.157.009-1.045-.489-1.329-.5-.833-.019-1.591,1.081-2.676.991-.3-.025-.4.243-.308.483.3.811.739,1.3-.894,2-.038.015-1.924-.238-1.881-.237-.469-.012-.17.76.192.787.747.056,3.27,1.121,4.016.115.55-.743-.534-1.6-.264-2.077-.178.311,1.439-.443,1.617-.5a4.646,4.646,0,0,1,1.264-.346c.227.011.415.366.655.364.316,0,.652.152.938-.017.218-.128.354-.528.469-.6.287-.189-.371-.418.193-.613.411-.14.764.274,1.148.395.61.193,1.535.644,2.058-.012.678-.851-.571-1.441-.453-2.014.262-1.279,2.088-.31,2.925-.879a.347.347,0,0,0,.119-.393c-.516-1.768,2.692-.385,3.7-.572.18-.034.37-.152.344-.367-.019-.164-.4-1.1-.4-1.111.253-1.062,1.713-.943,2.386-.764.65,2.152,2.356,4.322,4.218,3.742a.325.325,0,0,0,.234-.326C215.119,342.152,213.458,340.682,211.725,339.679Zm.67,1.772a4.964,4.964,0,0,1-.243-.506,4.4,4.4,0,0,1,1.307,1.29C213.82,343.305,212.571,341.75,212.395,341.451Z" transform="translate(-159.913 -324.054)" fill="#455a64"/>
            <path id="Trazado_178213" data-name="Trazado 178213" d="M232.953,325.3a.993.993,0,0,0-.012-.429c-.3-1.1-1.577-.277-1.8.4-.181.559.268.924.233,1.426-.051.74.69.434-.423.726a6.805,6.805,0,0,1-1.292-.134,1.948,1.948,0,0,0-1.9.593c-.7.585,1.026.863-1.015.536a4.245,4.245,0,0,0-1.6-.221c-.752.17-1.146.385-1.022,1.216.055.372.861.868.856,1.106-.043,1.8-1.951.274-2.684,0a.338.338,0,0,0-.461.281c-.033.888.592,1.2-.7,1.282-.157.01-1.045-.489-1.329-.5-.833-.019-1.592,1.082-2.676.992-.3-.025-.4.242-.308.483.3.81.739,1.3-.894,2-.038.016-1.924-.237-1.881-.236-.47-.012-.17.759.192.787.747.056,3.27,1.121,4.016.115.55-.743-.535-1.605-.264-2.078-.178.312,1.439-.442,1.617-.5a4.563,4.563,0,0,1,1.264-.346c.227.01.415.365.655.364.316,0,.652.152.938-.017.218-.129.354-.528.469-.6.287-.189-.371-.419.193-.613.41-.141.764.274,1.148.395.61.192,1.535.643,2.057-.012.679-.851-.57-1.443-.452-2.015.261-1.279,2.088-.31,2.925-.878a.346.346,0,0,0,.118-.394c-.515-1.768,2.693-.384,3.7-.571.181-.034.371-.152.345-.367a5.352,5.352,0,0,1-.144-2.277C232.87,325.646,232.927,325.472,232.953,325.3Z" transform="translate(-159.356 -324.333)" fill="#455a64"/>
          </g>
        </g>
      </g>
    </g>
    <g id="Character" transform="translate(119.57 93.143)">
      <g id="Grupo_79353" data-name="Grupo 79353">
        <g id="Grupo_79352" data-name="Grupo 79352">
          <g id="Grupo_79351" data-name="Grupo 79351">
            <path id="Trazado_178214" data-name="Trazado 178214" d="M144.873,294.809,122.5,327.561a1.207,1.207,0,0,1-2.2-.615l-2.18-39.833Z" transform="translate(-118.115 -88.673)" fill="#ffa8a7"/>
            <path id="Trazado_178215" data-name="Trazado 178215" d="M120.26,326.241a1.207,1.207,0,0,0,2.2.615l4.368-6.394h0a6.684,6.684,0,0,1-6.6-2.22l-.438-.522Z" transform="translate(-118.076 -87.967)" fill="#263238"/>
            <path id="Trazado_178216" data-name="Trazado 178216" d="M163.072,129.58l-.984,3.537-1.205,4.263L118.115,290.74c1.942,4.026,5.69,6.83,9.834,8.435,6.3,2.465,13.544,2.173,16.907-.741l42.45-152.229,2.273-8.157C187.814,143.248,161.373,134.82,163.072,129.58Z" transform="translate(-118.115 -92.303)" fill="#fcbd0b"/>
            <path id="Trazado_178217" data-name="Trazado 178217" d="M158.4,142.728l-2.188,7.9c-.711,2.269,3.762,5.094,9.252,7.166,7.286,2.771,16.366,4.214,17.313,1.208l1.623-5.82.544-2.092c-.946,3.006-10.03,1.569-17.315-1.2-5.259-1.993-9.6-4.7-9.276-6.909l.005-.024A.487.487,0,0,1,158.4,142.728Z" transform="translate(-117.239 -92)" fill="#ebebeb"/>
            <path id="Trazado_178218" data-name="Trazado 178218" d="M157.833,144.838c-1.66,5.267,24.888,13.636,26.548,8.369l2.216-7.9c-1.66,5.267-28.205-3.1-26.545-8.369Z" transform="translate(-117.201 -92.134)" fill="#99d6ff"/>
            <path id="Trazado_178219" data-name="Trazado 178219" d="M162.11,129.58l-2.189,7.8c-1.668,5.16,23.88,13.49,26.423,8.826a1.115,1.115,0,0,0,.129-.283l2.144-7.873C186.852,143.248,160.411,134.82,162.11,129.58Z" transform="translate(-117.153 -92.303)" fill="#ebebeb"/>
            <path id="Trazado_178220" data-name="Trazado 178220" d="M187.207,146.015l2.273-8.157c-.8,2.35-6.637,1.911-12.64.247h0L132.894,300.349,122.4,331l22.373-32.752-.018-.005h0Z" transform="translate(-118.016 -92.113)" opacity="0.1"/>
            <path id="Trazado_178221" data-name="Trazado 178221" d="M171.33,97.318l-9.269,33.1c-.728,2.24,3.681,5.063,9.119,7.148,7.28,2.8,16.384,4.3,17.388,1.321.014-.009.014-.009.02-.033l8.909-31.842c2.69-7.255-10.466-14.387-19.237-13.841C174.977,93.354,172.333,94.6,171.33,97.318Z" transform="translate(-117.104 -93.143)" fill="#f28f8f"/>
          </g>
        </g>
      </g>
    </g>
    <g id="Coffee" transform="translate(346.089 100.351)">
      <g id="Coffee-2" data-name="Coffee">
        <g id="Grupo_79354" data-name="Grupo 79354" transform="translate(6.705 63.534)">
          <path id="Trazado_178222" data-name="Trazado 178222" d="M416.568,166.832c-16.444-6.055-42.663-6.055-58.559,0s-15.9,15.873,0,21.928,42.115,6.054,58.559,0S433.012,172.888,416.568,166.832Z" transform="translate(-346.085 -162.291)" fill="#263238"/>
        </g>
        <g id="Grupo_79355" data-name="Grupo 79355" transform="translate(5.403 41.45)">
          <path id="Trazado_178223" data-name="Trazado 178223" d="M430.237,140.705l-85.424.093,6.474,100.645h.081c.405,3.666,3.828,7.281,10.353,10.08,13.912,5.967,36.855,5.967,51.244,0,6.751-2.8,10.293-6.415,10.709-10.08h.084Z" transform="translate(-344.812 -140.705)" fill="#fafafa"/>
        </g>
        <g id="Grupo_79356" data-name="Grupo 79356" transform="translate(5.404 41.45)">
          <path id="Trazado_178224" data-name="Trazado 178224" d="M344.813,140.8l1.315,20.439a37.929,37.929,0,0,0,7.135,3.826c18.472,7.649,48.935,7.649,68.043,0,.826-.329,1.515-.691,2.263-1.038a43.576,43.576,0,0,0,5.362-3.017l1.305-20.3Z" transform="translate(-344.813 -140.705)" fill="#f0f0f0"/>
        </g>
        <g id="Grupo_79363" data-name="Grupo 79363">
          <g id="Grupo_79357" data-name="Grupo 79357" transform="translate(0 21.289)">
            <path id="Trazado_178225" data-name="Trazado 178225" d="M435.758,144.134V128.748H425.8a46.568,46.568,0,0,0-4.376-2.012c-19.107-7.65-49.571-7.65-68.043,0a43.38,43.38,0,0,0-4.18,2.013h-9.673v15.388h0c0,5.014,4.618,10.027,13.853,13.852,18.472,7.649,48.935,7.649,68.043,0C430.982,154.161,435.759,149.147,435.758,144.134Z" transform="translate(-339.531 -120.997)" fill="#f8cd9e"/>
          </g>
          <g id="Grupo_79358" data-name="Grupo 79358" transform="translate(0 9.451)">
            <path id="Trazado_178226" data-name="Trazado 178226" d="M421.427,115.164c-19.107-7.649-49.571-7.65-68.043,0s-18.471,20.053,0,27.7,48.935,7.649,68.043,0S440.535,122.814,421.427,115.164Z" transform="translate(-339.531 -109.427)" fill="#f8b389"/>
          </g>
          <path id="Trazado_178227" data-name="Trazado 178227" d="M423.222,124.659h0L419.372,110.6h-64l-3.86,14.064h0c-1.432,4,1.927,8.188,10.092,11.261,13.892,5.225,36.8,5.225,51.172,0C421.228,132.847,424.7,128.655,423.222,124.659Z" transform="translate(-339.262 -99.949)" fill="#f8cd9e"/>
          <g id="Grupo_79359" data-name="Grupo 79359" transform="translate(15.937)">
            <path id="Trazado_178228" data-name="Trazado 178228" d="M409.879,103.674c-12.779-4.647-33.153-4.647-45.505,0s-12.353,12.181,0,16.828,32.726,4.647,45.505,0S422.657,108.32,409.879,103.674Z" transform="translate(-355.109 -100.188)" fill="#f8b389"/>
          </g>
          <g id="Grupo_79360" data-name="Grupo 79360" transform="translate(20.357 4.415)">
            <path id="Trazado_178229" data-name="Trazado 178229" d="M414.931,112c-.022.177-.354.773-1.415,1.592a20.578,20.578,0,0,1-5.241,2.654c-5.639,2.035-13.445,3.229-21.4,3.229s-15.634-1.172-21.051-3.207a18.266,18.266,0,0,1-5.064-2.675c-1.039-.84-1.327-1.459-1.327-1.614,0-.309,1.106-2.277,6.391-4.267,5.417-2.035,13.091-3.206,21.051-3.206s15.765,1.171,21.4,3.228C413.582,109.656,414.909,111.6,414.931,112Z" transform="translate(-359.429 -104.504)" fill="#ba9a77"/>
          </g>
          <g id="Grupo_79361" data-name="Grupo 79361" transform="translate(21.684 7.621)" opacity="0.1">
            <path id="Trazado_178230" data-name="Trazado 178230" d="M413.487,113.52a20.578,20.578,0,0,1-5.241,2.654c-5.639,2.035-13.445,3.229-21.4,3.229s-15.634-1.172-21.051-3.207a18.266,18.266,0,0,1-5.064-2.675,18.266,18.266,0,0,1,5.064-2.675c5.417-2.035,13.091-3.206,21.051-3.206s15.765,1.171,21.4,3.228A19.891,19.891,0,0,1,413.487,113.52Z" transform="translate(-360.726 -107.638)" fill="#ef7b7b"/>
          </g>
          <g id="Grupo_79362" data-name="Grupo 79362" transform="translate(59.557 12.606)">
            <path id="Trazado_178231" data-name="Trazado 178231" d="M399.829,113.7c1.861-1.055,4.125-1.485,5.055-.963s.176,1.814-1.685,2.883-4.124,1.5-5.055.963S397.968,114.75,399.829,113.7Z" transform="translate(-397.746 -112.511)" fill="#263238"/>
          </g>
        </g>
        <g id="Grupo_79364" data-name="Grupo 79364" transform="translate(6.705 79.038)">
          <path id="Trazado_178232" data-name="Trazado 178232" d="M348.483,213.915c0,3.739,3.743,7.477,11.232,10.33,14.977,5.7,39.677,5.7,55.17,0,7.732-2.847,11.605-6.577,11.618-10.309l2.4-36.486c0,3.967-4.112,7.936-12.333,10.962-16.444,6.055-42.662,6.056-58.559,0-7.95-3.028-11.924-7-11.924-10.965Z" transform="translate(-346.085 -177.446)" fill="#b74e39"/>
        </g>
        <g id="Grupo_79367" data-name="Grupo 79367" transform="translate(27.65 98.716)">
          <g id="Grupo_79365" data-name="Grupo 79365" transform="translate(0 4.271)">
            <path id="Trazado_178233" data-name="Trazado 178233" d="M381.843,215.533c-1.39-1.87-2.159-4.168-3.284-6.194a18.355,18.355,0,0,0-9.542-8.4,1.189,1.189,0,0,0-1.485.537c-2.075,4.223-.8,10.137,3.492,14.431,4.252,4.251,10.106,5.566,14.322,3.583.239-.114.3-.579.112-.693A11.979,11.979,0,0,1,381.843,215.533Z" transform="translate(-366.558 -200.855)" fill="#263238"/>
          </g>
          <g id="Grupo_79366" data-name="Grupo 79366" transform="translate(4.009)">
            <path id="Trazado_178234" data-name="Trazado 178234" d="M371.214,199.876a20.23,20.23,0,0,1,6.017,3.7,18.219,18.219,0,0,1,4.354,5.958c1.6,3.4,3.131,5.507,5.479,7.26a1.168,1.168,0,0,0,1.642-.254c2.805-4.244,1.693-10.748-2.935-15.375-4.385-4.385-10.471-5.643-14.709-3.383A1.165,1.165,0,0,0,371.214,199.876Z" transform="translate(-370.476 -196.681)" fill="#263238"/>
          </g>
        </g>
      </g>
    </g>
  </g>
</svg>
