<svg xmlns="http://www.w3.org/2000/svg" xmlns:xlink="http://www.w3.org/1999/xlink" width="85" height="85" viewBox="0 0 85 85">
  <defs>
    <clipPath id="clip-path">
      <rect id="Rectángulo_21104" data-name="Rectángulo 21104" width="85" height="85" transform="translate(1230 3094)" fill="#fff" stroke="#707070" stroke-width="1"/>
    </clipPath>
  </defs>
  <g id="Enmascarar_grupo_56" data-name="Enmascarar grupo 56" transform="translate(-1230 -3094)" clip-path="url(#clip-path)">
    <g id="Solid" transform="translate(1223.929 3087.929)">
      <path id="Trazado_166075" data-name="Trazado 166075" d="M12.85,70.518a19.625,19.625,0,0,0,1.859,4.487,3.034,3.034,0,0,1-.5,3.634l-2.728,2.728,4.293,4.293L18.5,82.932a3.042,3.042,0,0,1,2.151-.889,3,3,0,0,1,1.483.391,19.618,19.618,0,0,0,4.487,1.859,3.033,3.033,0,0,1,2.215,2.922v3.857h6.071V87.215a3.033,3.033,0,0,1,2.215-2.922,19.622,19.622,0,0,0,4.487-1.859,3.036,3.036,0,0,1,3.634.5l2.728,2.728,4.293-4.293L49.539,78.64a3.034,3.034,0,0,1-.5-3.634A19.619,19.619,0,0,0,50.9,70.518,3.033,3.033,0,0,1,53.822,68.3h3.857V62.232H53.822A3.033,3.033,0,0,1,50.9,60.017,19.622,19.622,0,0,0,49.04,55.53a3.034,3.034,0,0,1,.5-3.634l2.727-2.728-4.292-4.293L45.247,47.6a3.034,3.034,0,0,1-3.634.5,19.618,19.618,0,0,0-4.487-1.859,3.033,3.033,0,0,1-2.215-2.922V39.464H28.839v3.857a3.033,3.033,0,0,1-2.215,2.922A19.622,19.622,0,0,0,22.138,48.1a3.034,3.034,0,0,1-3.634-.5l-2.728-2.728-4.293,4.293L14.211,51.9a3.034,3.034,0,0,1,.5,3.634,19.618,19.618,0,0,0-1.859,4.487,3.033,3.033,0,0,1-2.922,2.215H6.071V68.3H9.928a3.033,3.033,0,0,1,2.922,2.215ZM43.682,53.461a16.7,16.7,0,0,1,0,23.612l-2.146-2.146A13.662,13.662,0,0,0,24.342,53.868l-1.677-2.53a16.741,16.741,0,0,1,21.015,2.124Zm-2.7,11.806a9.107,9.107,0,1,1-9.107-9.107A9.107,9.107,0,0,1,40.982,65.268ZM20.069,53.462l2.146,2.146A13.662,13.662,0,0,0,39.408,76.667l1.677,2.53A16.7,16.7,0,0,1,20.069,53.462ZM31.875,59.2A6.071,6.071,0,1,1,25.8,65.268,6.071,6.071,0,0,1,31.875,59.2ZM71.027,7.185l9.161,17.1H75.276L67.043,9.192A2.11,2.11,0,0,1,68.9,6.071h.271a2.107,2.107,0,0,1,1.86,1.114ZM55.26,24.286H50.347l9.161-17.1a2.107,2.107,0,0,1,1.86-1.114h.271a2.111,2.111,0,0,1,1.853,3.121Zm35.812,3.036H39.464v3.036h1.518a1.518,1.518,0,0,1,1.51,1.366L43.8,44.772l2.03-2.044a3.036,3.036,0,0,1,2.744-.827V36.429h3.036v7.787l2.807,2.807a3.018,3.018,0,0,1,.828,1.55h2.437v9.107H54.643V51.057a3.014,3.014,0,0,1-.229.259l-2.728,2.728A22.6,22.6,0,0,1,53.822,59.2h3.856A3.036,3.036,0,0,1,60.3,60.714H82.4a3.027,3.027,0,0,0,3.021-2.734l2.459-24.588H45.536V30.357H91.071ZM78.929,36.429h3.036v9.107H78.929Zm0,12.143h3.036v9.107H78.929ZM72.857,36.429h3.036v9.107H72.857Zm0,12.143h3.036v9.107H72.857ZM66.786,36.429h3.036v9.107H66.786Zm0,12.143h3.036v9.107H66.786ZM60.714,36.429H63.75v9.107H60.714Zm0,12.143H63.75v9.107H60.714ZM54.643,36.429h3.036v9.107H54.643Zm-25.8-21.25H25.8V12.143h3.036Zm0,6.071H25.8V18.214h3.036Zm0,6.071H25.8V24.286h3.036Zm0,6.071H25.8V30.357h3.036Zm6.071-18.214H31.875V12.143h3.036Zm6.071,0H37.946V12.143h3.036Zm3.036-3.036h3.036v3.036H44.018ZM77.411,78.929h3.036v3.036H77.411Zm0-6.071h3.036v3.036H77.411Zm0-6.071h3.036v3.036H77.411ZM74.375,81.964H71.339V78.929h3.036Zm-9.107-3.036H68.3v3.036H65.268Zm-3.036,3.036H59.2V78.929h3.036Z" fill="#585c03"/>
    </g>
  </g>
</svg>
