<svg xmlns="http://www.w3.org/2000/svg" xmlns:xlink="http://www.w3.org/1999/xlink" width="85" height="85" viewBox="0 0 85 85">
  <defs>
    <clipPath id="clip-path">
      <rect id="Rectángulo_21103" data-name="Rectángulo 21103" width="85" height="85" transform="translate(915 3094)" fill="#fff" stroke="#707070" stroke-width="1"/>
    </clipPath>
  </defs>
  <g id="Enmascarar_grupo_55" data-name="Enmascarar grupo 55" transform="translate(-915 -3094)" clip-path="url(#clip-path)">
    <g id="business-idea" transform="translate(913.629 3092.629)">
      <path id="Trazado_166069" data-name="Trazado 166069" d="M43.218,56.21a9.5,9.5,0,0,0,6.764-2.8L60.89,42.5h6.287a4.118,4.118,0,0,0,4.113-4.113V35.645a4.087,4.087,0,0,0-1.481-3.134A5.443,5.443,0,0,0,71.29,28.79V26.335a2.64,2.64,0,0,1,1.182-2.248,12.341,12.341,0,1,0-13.3.019,2.7,2.7,0,0,1,1.152,2.285v2.683a5.3,5.3,0,0,0-2.136,1.286l-3.347,3.347-11,11a24.837,24.837,0,0,0-7.757-4.879A28.126,28.126,0,0,0,31.1,38.689a2.728,2.728,0,0,1-2.311-2.708V34.16a11.025,11.025,0,0,0,4.676-5.371h.807a5.47,5.47,0,0,0,4.478-8.632l.014-.029a9.394,9.394,0,0,0-4.2-12.606l-.3-.152a6.151,6.151,0,0,0-6.136-6H19.194a9.609,9.609,0,0,0-9.579,9.011l-.269.269a8.507,8.507,0,0,0-2.055,8.7l.374,1.123a5.43,5.43,0,0,0-.81,2.83,5.489,5.489,0,0,0,5.484,5.484h.807a11.025,11.025,0,0,0,4.676,5.371v1.966a2.745,2.745,0,0,1-2.4,2.72l-3.878.485a11.666,11.666,0,0,0-6.77,3.312,11.528,11.528,0,0,0-3.4,8.209V72.661a4.118,4.118,0,0,0,4.113,4.113H8.226A4.067,4.067,0,0,0,9.6,76.522v9.849H37.016V54.157l1.623.886a9.592,9.592,0,0,0,4.579,1.167ZM68.548,28.79a2.739,2.739,0,0,1-1.98,2.621,5.3,5.3,0,0,0-3.5-2.5V28.79ZM56.292,12.44a9.63,9.63,0,0,1,8.39-8.263A9.5,9.5,0,0,1,72.2,6.549a9.592,9.592,0,0,1-1.208,15.233,5.349,5.349,0,0,0-2.424,4.266H63.043a5.346,5.346,0,0,0-2.4-4.254,9.559,9.559,0,0,1-4.353-9.354ZM60.125,32.3a2.632,2.632,0,0,1,1.848-.766,2.6,2.6,0,0,1,2.338,1.445l.648,1.3h2.218a1.372,1.372,0,0,1,1.371,1.371v2.742a1.372,1.372,0,0,1-1.371,1.371H60.89l-4.113-4.113ZM28.433,46.217l-3.288-2.631,2.5-3.759.082.08ZM25.951,58.481l-2.645,2.645-2.645-2.645,2.065-12.391.58-.463.58.463ZM18.863,40.064c.052-.051.107-.1.158-.149l2.447,3.671L18.18,46.217ZM34.274,26.048H34.18a11.032,11.032,0,0,0,.095-1.371V20.565a2.742,2.742,0,1,1,0,5.484Zm-21.935,0a2.742,2.742,0,1,1,0-5.484v4.113a11.032,11.032,0,0,0,.095,1.371Zm.022-8.226h-.022a5.429,5.429,0,0,0-2.46.609,5.739,5.739,0,0,1,1.405-5.843l1.054-1.053v-.568a6.863,6.863,0,0,1,6.855-6.855h8.929A3.409,3.409,0,0,1,29.2,10.755l-.845.281.866,2.6.845-.282a6.139,6.139,0,0,0,3.6-3.187,6.605,6.605,0,0,1,2.89,8.167,5.437,5.437,0,0,0-2.283-.513V15.081H28.066a24.709,24.709,0,0,1-11-2.6l-.613-.306-.613.307a6.287,6.287,0,0,0-3.478,5.339Zm2.72,6.855V18.146a3.573,3.573,0,0,1,1.445-2.88,27.468,27.468,0,0,0,11.541,2.557h3.466v6.855a8.226,8.226,0,1,1-16.452,0Zm8.226,10.968a10.9,10.9,0,0,0,2.742-.361v.7a5.481,5.481,0,0,0,.125,1.117l-2.867,4.3L20.47,37.144a5.535,5.535,0,0,0,.095-1.016v-.843A10.9,10.9,0,0,0,23.306,35.645Zm-16.6,8.939a8.911,8.911,0,0,1,5.171-2.531l3.878-.485c.063-.008.119-.03.181-.04L14.723,52.493l4.8-3.837L17.725,59.422,23.306,65l5.581-5.581L27.093,48.656l4.8,3.837-1.234-11.1c.022,0,.043.012.066.015a25.437,25.437,0,0,1,4.49,1.025,22.689,22.689,0,0,1,6.975,4.486l-.913,1.827,2.453,1.227L45,47.426l9.841-9.842,3.545,3.545-10.34,10.34a6.78,6.78,0,0,1-4.826,2,6.851,6.851,0,0,1-3.267-.832l-2.912-1.588a3.278,3.278,0,0,1,.946-2.093l-1.94-1.939a6.009,6.009,0,0,0-1.771,4.277V67.177H14.907a4.036,4.036,0,0,0-1-1.747l-1.563-1.563V51.293a6.015,6.015,0,0,0-1.771-4.279l-1.94,1.939a3.29,3.29,0,0,1,.969,2.34V63.065H4.113V50.855a8.93,8.93,0,0,1,2.6-6.271ZM8.226,74.032H5.484a1.372,1.372,0,0,1-1.371-1.371V65.806H10.4l1.563,1.563a1.3,1.3,0,0,1,.376.909,1.278,1.278,0,0,1-.71,1.149L9.6,70.443v2.218a1.372,1.372,0,0,1-1.371,1.371Zm16.452,9.6V79.738a4.641,4.641,0,0,1,3.175-4.406l-.868-2.6a7.38,7.38,0,0,0-3.68,2.721,7.366,7.366,0,0,0-3.68-2.721l-.868,2.6a4.64,4.64,0,0,1,3.178,4.406v3.891h-9.6V72.138l.515-.258a4.008,4.008,0,0,0,1.88-1.96h19.54v13.71Z" fill="#585c03"/>
      <path id="Trazado_166070" data-name="Trazado 166070" d="M72.26,10.566,70.321,8.627l-7.257,7.257-1.773-1.773L59.353,16.05l3.711,3.711Z" fill="#585c03"/>
      <path id="Trazado_166071" data-name="Trazado 166071" d="M63.065,69.919V67.745a3.31,3.31,0,0,0-5.65-2.34L52.9,69.919H46.613A4.118,4.118,0,0,0,42.5,74.032v5.484a4.118,4.118,0,0,0,4.113,4.113H63.065a4.118,4.118,0,0,0,4.113-4.113V74.032A4.118,4.118,0,0,0,63.065,69.919Zm1.371,9.6a1.372,1.372,0,0,1-1.371,1.371H46.613a1.372,1.372,0,0,1-1.371-1.371V74.032a1.372,1.372,0,0,1,1.371-1.371h7.422l5.317-5.317a.589.589,0,0,1,.971.4v4.916h2.742a1.372,1.372,0,0,1,1.371,1.371Z" fill="#585c03"/>
      <path id="Trazado_166072" data-name="Trazado 166072" d="M47.984,75.4h13.71v2.742H47.984Z" fill="#585c03"/>
      <path id="Trazado_166073" data-name="Trazado 166073" d="M82.258,45.242H65.806a4.118,4.118,0,0,0-4.113,4.113v5.484a4.118,4.118,0,0,0,4.113,4.113v2.174a3.31,3.31,0,0,0,5.65,2.34l4.515-4.515h6.287a4.118,4.118,0,0,0,4.113-4.113V49.355A4.118,4.118,0,0,0,82.258,45.242Zm1.371,9.6a1.372,1.372,0,0,1-1.371,1.371H74.836l-5.317,5.317a.589.589,0,0,1-.971-.4V56.21H65.806a1.372,1.372,0,0,1-1.371-1.371V49.355a1.372,1.372,0,0,1,1.371-1.371H82.258a1.372,1.372,0,0,1,1.371,1.371Z" fill="#585c03"/>
      <path id="Trazado_166074" data-name="Trazado 166074" d="M67.177,50.726h13.71v2.742H67.177Z" fill="#585c03"/>
    </g>
  </g>
</svg>
