<svg xmlns="http://www.w3.org/2000/svg" xmlns:xlink="http://www.w3.org/1999/xlink" width="267" height="181.409" viewBox="0 0 267 181.409">
  <defs>
    <clipPath id="clip-path">
      <rect id="Rectángulo_21068" data-name="Rectángulo 21068" width="267" height="159" transform="translate(333.826 2061.438)" fill="#fff" stroke="#707070" stroke-width="1"/>
    </clipPath>
    <clipPath id="clip-path-2">
      <path id="Trazado_165036" data-name="Trazado 165036" d="M-365.325,684.419c5.568,3,11.769,1.217,11.769,1.217,2.806-4.862,9.837-23.086,10.99-24.725.525-.749,2.93,18.615,2.6,29.209l43.383,3.326c-1.3-9.036.357-29.428.357-29.428-1.334,10.99.435,20.057,6.437,28.417,2.53,3.524,10.848,2.384,10.844-4.772,0-16.081-2.608-38.951-7.952-44.975-6.192-6.975-17.987-7.066-22.014-7.552-3.094-.378-9.325-.409-13.873-.443-13.9-.1-18.92.925-22.677,4.165C-359.628,651.079-365.325,684.419-365.325,684.419Z" transform="translate(365.325 -634.686)" fill="none"/>
    </clipPath>
    <clipPath id="clip-path-3">
      <path id="Trazado_165040" data-name="Trazado 165040" d="M-349.206,709.656c1.063-2.483,3.223-7.879,3.223-7.879,1.351-3.787,3.55-10.375,6.076-17.866l10.659,5.047c-2.156,4.75-5.568,13.15-5.947,15.289-1.093,6.1,8.537,12.1,10.577,16.558.843,1.85.542,4.475-2.857,5.061-2.453.421-13.753-5.883-19.544-9.643A5.4,5.4,0,0,1-349.206,709.656Z" transform="translate(349.602 -683.911)" fill="none"/>
    </clipPath>
    <clipPath id="clip-path-4">
      <path id="Trazado_165043" data-name="Trazado 165043" d="M-364.673,713.251c-.108-2.694-.473-8.5-.473-8.5-.4-4-1.248-10.9-2.181-18.744l11.8-.017c.086,5.219.615,14.269,1.188,16.364,1.631,5.977,12.9,7.263,16.657,10.413,1.558,1.308,2.414,3.808-.409,5.8-2.031,1.433-14.944.59-21.786-.318A5.4,5.4,0,0,1-364.673,713.251Z" transform="translate(367.328 -685.991)" fill="none"/>
    </clipPath>
    <clipPath id="clip-path-5">
      <path id="Trazado_165070" data-name="Trazado 165070" d="M-357.248,633.113a2.928,2.928,0,0,0,2.72-1.347c.064-.09.069-.207-.03-.22,0,0-1.532-.2-2.517-.362-1.024-.168-2.517-.559-2.517-.559-.09-.013-.159.086-.1.262A3.312,3.312,0,0,0-357.248,633.113Z" transform="translate(359.715 -630.625)" fill="none"/>
    </clipPath>
    <clipPath id="clip-path-6">
      <path id="Trazado_165081" data-name="Trazado 165081" d="M-334.683,691.493c-2.156.215-3.5,13.485-1.648,14.992,1.88,1.532,6.222,1.975,10.022,3.236a38.267,38.267,0,0,0,10.956,1.923c4.38.039,7.6-1.231,7.6-4.531,0-4.561-12.6-7.518-15.732-13.783-.577-1.153-1.14-4.807-2.913-4.238-2.9.93-2.78,3.765-4.286,3.933A4.009,4.009,0,0,1-334.683,691.493Z" transform="translate(337.205 -689.032)" fill="none"/>
    </clipPath>
    <clipPath id="clip-path-7">
      <path id="Trazado_165135" data-name="Trazado 165135" d="M-326.761,707.164c1.317,4.923,17.079,5.056,18.68.349a7.9,7.9,0,0,0-.68-5.99c-1.136-2.453-1.115-4.854-1.523-7.126a6.825,6.825,0,0,0-6.592-5.142,7,7,0,0,0-6.265,5.594,17.154,17.154,0,0,1-2.035,6.016C-326.219,703.025-327.471,704.518-326.761,707.164Z" transform="translate(326.969 -689.255)" fill="none"/>
    </clipPath>
  </defs>
  <g id="Grupo_79041" data-name="Grupo 79041" transform="translate(-247 -2034)">
    <rect id="Rectángulo_21022" data-name="Rectángulo 21022" width="104.07" height="1.899" transform="translate(327.5 2212.51)" fill="#4d4d4d" stroke="#707070" stroke-linecap="round" stroke-width="2" opacity="0.5"/>
    <g id="Enmascarar_grupo_52" data-name="Enmascarar grupo 52" transform="translate(-86.826 -27.438)" clip-path="url(#clip-path)">
      <g id="Grupo_72042" data-name="Grupo 72042" transform="translate(346.005 2073.077)">
        <g id="Grupo_71994" data-name="Grupo 71994" transform="translate(130.593 17.456)">
          <path id="Trazado_165033" data-name="Trazado 165033" d="M-358.322,719.814h-6.652V638.052h0c20.715,49.773,19.123,61.628,15.229,74.017C-351.029,716.148-353.589,719.814-358.322,719.814Z" transform="translate(438.889 -573.384)" fill="#2e2122"/>
          <g id="Grupo_71974" data-name="Grupo 71974" transform="translate(6.653 50.186)">
            <g id="Grupo_71973" data-name="Grupo 71973" clip-path="url(#clip-path-2)">
              <path id="Trazado_165034" data-name="Trazado 165034" d="M-365.325,684.419c5.568,3,11.769,1.217,11.769,1.217,2.806-4.862,9.837-23.086,10.99-24.725.525-.749,2.93,18.615,2.6,29.209l43.383,3.326c-1.3-9.036.357-29.428.357-29.428-1.334,10.99.176,22.127,7.126,29.175,2.991,3.038,10.16,1.626,10.155-5.53,0-16.081-2.608-38.951-7.952-44.975-6.192-6.975-17.987-7.066-22.014-7.552-3.094-.378-9.325-.409-13.873-.443-13.9-.1-18.92.925-22.677,4.165C-359.628,651.079-365.325,684.419-365.325,684.419Z" transform="translate(365.325 -634.686)" fill="#ecc8b7"/>
              <path id="Trazado_165035" data-name="Trazado 165035" d="M-344.142,640.54a2.075,2.075,0,0,1-2.074,2.074,2.073,2.073,0,0,1-2.074-2.074,2.073,2.073,0,0,1,2.074-2.074A2.075,2.075,0,0,1-344.142,640.54Z" transform="translate(357.223 -622.202)" fill="#fff" opacity="0.74"/>
            </g>
          </g>
          <path id="Trazado_165037" data-name="Trazado 165037" d="M-348.108,641.785a2.075,2.075,0,0,1-2.074,2.074,2.075,2.075,0,0,1-2.074-2.074,2.073,2.073,0,0,1,2.074-2.074A2.073,2.073,0,0,1-348.108,641.785Z" transform="translate(384.908 -567.904)" fill="#fff" opacity="0.6"/>
          <g id="Grupo_71976" data-name="Grupo 71976" transform="translate(0 262.001)">
            <g id="Grupo_71975" data-name="Grupo 71975" clip-path="url(#clip-path-3)">
              <path id="Trazado_165038" data-name="Trazado 165038" d="M-349.206,709.656c1.063-2.483,3.223-7.879,3.223-7.879,1.351-3.787,3.55-10.375,6.076-17.866l10.659,5.047c-2.156,4.75-5.568,13.15-5.947,15.289-1.093,6.1,8.537,12.1,10.577,16.558.843,1.85.542,4.475-2.857,5.061-2.453.421-13.753-5.883-19.544-9.643A5.4,5.4,0,0,1-349.206,709.656Z" transform="translate(349.602 -683.911)" fill="#ffa18a"/>
              <path id="Trazado_165039" data-name="Trazado 165039" d="M-343.8,688.171a28.83,28.83,0,0,0,11.282,2.13l.078,1.562a33.892,33.892,0,0,1-10.228-1.355,16.562,16.562,0,0,1,.37,9.832c1.248,2.07,4.828,4.6,9.755,6.364.968-1.966,3.654-4.858,6.42-5.409l1.644,1.958s3.933,3.5,2.84,6.433l-2.444,4-25.534-13.3,1.773-4.462Z" transform="translate(346.905 -669.84)" fill="#2e2122"/>
            </g>
          </g>
          <g id="Grupo_71978" data-name="Grupo 71978" transform="translate(70.571 270.952)">
            <g id="Grupo_71977" data-name="Grupo 71977" clip-path="url(#clip-path-4)">
              <path id="Trazado_165041" data-name="Trazado 165041" d="M-364.673,713.251c-.108-2.694-.473-8.5-.473-8.5-.4-4-1.248-10.9-2.181-18.744l11.8-.017c.086,5.219.615,14.269,1.188,16.364,1.631,5.977,12.9,7.263,16.657,10.413,1.558,1.308,2.414,3.808-.409,5.8-2.031,1.433-14.944.59-21.786-.318A5.4,5.4,0,0,1-364.673,713.251Z" transform="translate(367.328 -685.991)" fill="#ffa18a"/>
              <path id="Trazado_165042" data-name="Trazado 165042" d="M-367.024,692.744a29.018,29.018,0,0,0,11.106-2.922l.736,1.377A33.908,33.908,0,0,1-365,694.366a16.579,16.579,0,0,1,4.553,8.722c2.018,1.334,6.338,2.083,11.545,1.558.03-2.191,1.209-5.955,3.473-7.642l2.328,1.063s5.052,1.476,5.327,4.6l-.486,4.66-28.774-1.054-.314-4.789Z" transform="translate(368.939 -673.337)" fill="#2e2122"/>
            </g>
          </g>
          <path id="Trazado_165044" data-name="Trazado 165044" d="M-331.414,635.652c-1.936,11.244-4.183,32.509-6.545,53.938-1.6,14.493-.7,26.124-2.535,37.127-5.22,31.27-7.427,56.692-10.912,68.651-10.758,36.89-10.271,44.274-12.44,61.193a17.576,17.576,0,0,0,10.379,3.606s11.652-23.4,22.3-62.992c.985-3.653,18.258-46.619,19.669-46.49,2.737.249,9.768,45.831,9.759,49.674-.069,32.888.258,45.686,3.193,61.8,0,0,7.272,1.519,11.21-.129,0,0,3.748-23.99,3.817-64.275.065-37.991,1.45-44.937-3.735-69.262-4.6-21.584-5.715-19.708-6.73-39.085-1.364-26.063.1-42.8-1.02-53.061-.146-1.33-6.05-1.923-6.05-1.175,0,6.8.753,21.068-1.325,31.662l-24.467-.095c1.506-10.968,1.958-23.37.869-31.232Z" transform="translate(369.974 -583.97)" fill="#757b97"/>
          <path id="Trazado_165045" data-name="Trazado 165045" d="M-367.645,705.813c-7.367-4.036,2.577-22.931,7.823-33.856a100.623,100.623,0,0,0,7.079-21.175c.228-1.123-.417-4.17-.288-7.535.125-3.326,1.278-7.285,1.984-7.221,1.515.134.3,4.647,1.7,5.207,2.289.917,6.838-10.706,9.2-9.992,2.8.844,2.074,7.681-.056,13.387-1.7,4.557-4.518,6.037-6.175,9.342-1.3,2.6-1.209,17.655-6.076,31.614C-356.13,696.109-360.718,709.6-367.645,705.813Z" transform="translate(452.627 -595.984)" fill="#ffa18a"/>
          <g id="Grupo_71979" data-name="Grupo 71979" transform="translate(44.593 87.724)">
            <path id="Trazado_165046" data-name="Trazado 165046" d="M-356.79,658.221h16.876a2.238,2.238,0,0,0,2.233-2.238V645.863a2.454,2.454,0,0,0-2.448-2.453h-16.446a2.458,2.458,0,0,0-2.453,2.453v10.121A2.239,2.239,0,0,0-356.79,658.221Zm16.661-14.359a2.005,2.005,0,0,1,2,2v10.121a1.787,1.787,0,0,1-1.786,1.786H-356.79a1.787,1.787,0,0,1-1.786-1.786V645.863a2,2,0,0,1,2-2Z" transform="translate(359.028 -643.41)" fill="#525882"/>
          </g>
          <path id="Trazado_165047" data-name="Trazado 165047" d="M-350.7,643.729a1.21,1.21,0,0,1-1.209,1.209,1.207,1.207,0,0,1-1.2-1.209,1.206,1.206,0,0,1,1.2-1.205A1.21,1.21,0,0,1-350.7,643.729Z" transform="translate(391.171 -558.612)" fill="#fff"/>
          <g id="Grupo_71982" data-name="Grupo 71982" transform="translate(13.368 99.711)">
            <rect id="Rectángulo_21054" data-name="Rectángulo 21054" width="27.127" height="38.852" transform="translate(23.819 0) rotate(37.813)" fill="#fff"/>
            <path id="Trazado_165048" data-name="Trazado 165048" d="M-351.8,646.908a.3.3,0,0,1-.3.3.3.3,0,0,1-.3-.3.3.3,0,0,1,.3-.3A.3.3,0,0,1-351.8,646.908Z" transform="translate(375.844 -644.837)" fill="#757b97"/>
            <ellipse id="Elipse_4343" data-name="Elipse 4343" cx="0.3" cy="0.3" rx="0.3" ry="0.3" transform="translate(22.024 3.275)" fill="#757b97"/>
            <path id="Trazado_165049" data-name="Trazado 165049" d="M-351.141,647.634a.3.3,0,0,1-.3.3.3.3,0,0,1-.3-.3.3.3,0,0,1,.3-.3A.3.3,0,0,1-351.141,647.634Z" transform="translate(372.366 -642.439)" fill="#757b97"/>
            <g id="Grupo_71980" data-name="Grupo 71980" transform="translate(23.909 4.322)" opacity="0.22">
              <rect id="Rectángulo_21055" data-name="Rectángulo 21055" width="21.327" height="0.295" transform="matrix(-0.798, -0.602, 0.602, -0.798, 17.027, 13.079)" fill="#757b97"/>
            </g>
            <g id="Grupo_71981" data-name="Grupo 71981" transform="translate(22.388 6.214)" opacity="0.22">
              <rect id="Rectángulo_21056" data-name="Rectángulo 21056" width="21.327" height="0.295" transform="matrix(-0.798, -0.602, 0.602, -0.798, 17.027, 13.078)" fill="#757b97"/>
            </g>
          </g>
          <path id="Trazado_165050" data-name="Trazado 165050" d="M-357.75,643.729a1.21,1.21,0,0,1-1.209,1.209,1.209,1.209,0,0,1-1.2-1.209,1.209,1.209,0,0,1,1.2-1.205A1.21,1.21,0,0,1-357.75,643.729Z" transform="translate(428.579 -558.612)" fill="#fff"/>
          <ellipse id="Elipse_4344" data-name="Elipse 4344" cx="2.074" cy="2.074" rx="2.074" ry="2.074" transform="translate(16.547 95.394)" fill="#fff" opacity="0.6"/>
          <path id="Trazado_165051" data-name="Trazado 165051" d="M-344.964,643.9a2.075,2.075,0,0,1-2.074,2.074,2.075,2.075,0,0,1-2.074-2.074,2.072,2.072,0,0,1,2.074-2.074A2.073,2.073,0,0,1-344.964,643.9Z" transform="translate(368.235 -560.911)" fill="#fff" opacity="0.6"/>
          <path id="Trazado_165052" data-name="Trazado 165052" d="M-347.264,637.607a2.075,2.075,0,0,1-2.074,2.074,2.072,2.072,0,0,1-2.074-2.074,2.073,2.073,0,0,1,2.074-2.074A2.075,2.075,0,0,1-347.264,637.607Z" transform="translate(380.432 -581.704)" fill="#fff" opacity="0.74"/>
          <path id="Trazado_165053" data-name="Trazado 165053" d="M-355.329,637.39a2.075,2.075,0,0,1-2.074,2.074,2.075,2.075,0,0,1-2.074-2.074,2.076,2.076,0,0,1,2.074-2.078A2.076,2.076,0,0,1-355.329,637.39Z" transform="translate(423.201 -582.434)" fill="#fff" opacity="0.6"/>
          <ellipse id="Elipse_4345" data-name="Elipse 4345" cx="2.074" cy="2.074" rx="2.074" ry="2.074" transform="translate(49.846 63.454)" fill="#fff" opacity="0.6"/>
          <path id="Trazado_165054" data-name="Trazado 165054" d="M-354.708,643.007a2.076,2.076,0,0,1-2.078,2.074,2.075,2.075,0,0,1-2.074-2.074,2.075,2.075,0,0,1,2.074-2.074A2.076,2.076,0,0,1-354.708,643.007Z" transform="translate(419.925 -563.868)" fill="#fff" opacity="0.6"/>
          <path id="Trazado_165055" data-name="Trazado 165055" d="M-359.407,638.457a2.072,2.072,0,0,1-2.074,2.074,2.073,2.073,0,0,1-2.074-2.074,2.075,2.075,0,0,1,2.074-2.074A2.075,2.075,0,0,1-359.407,638.457Z" transform="translate(444.827 -578.897)" fill="#fff" opacity="0.6"/>
          <ellipse id="Elipse_4346" data-name="Elipse 4346" cx="2.074" cy="2.074" rx="2.074" ry="2.074" transform="translate(74.744 70.341)" fill="#fff" opacity="0.6"/>
          <ellipse id="Elipse_4347" data-name="Elipse 4347" cx="2.074" cy="2.074" rx="2.074" ry="2.074" transform="translate(86.337 77.95)" fill="#fff" opacity="0.6"/>
          <ellipse id="Elipse_4348" data-name="Elipse 4348" cx="2.074" cy="2.074" rx="2.074" ry="2.074" transform="translate(79.436 93.736)" fill="#fff" opacity="0.6"/>
          <path id="Trazado_165056" data-name="Trazado 165056" d="M-348.136,703.2s.1.8.125,1.058c.043.422.142,2.423.142,2.423-14.105-7.169-21.214-47.234-10.891-71.254.1-.241,1.338-.573,2.96.245,1.36.68,1.364,1.287,1.364,1.287C-362.573,655.65-356.441,690.152-348.136,703.2Z" transform="translate(433.741 -582.966)" fill="#2e2122"/>
          <g id="Grupo_71987" data-name="Grupo 71987" transform="translate(33.989)">
            <g id="Grupo_71984" data-name="Grupo 71984">
              <path id="Trazado_165057" data-name="Trazado 165057" d="M-345.846,654.168c3.937-4.768-.676-27.221-3.567-28.2-4.4-1.489-12.457,38.865-12.457,38.865C-351.053,665.5-347.1,655.687-345.846,654.168Z" transform="translate(388.508 -613.438)" fill="#a35655"/>
              <path id="Trazado_165058" data-name="Trazado 165058" d="M-356.876,669.776l.886-12.384c-1.123-.861-5-7.724-5.185-12.582-.383-10.353,5.379-19.691,13.658-20.732,9.523-1.2,15.323,6.1,16.92,16.338s-3.326,20.2-11.571,21.49v9.536C-342.9,675.374-357.754,673.8-356.876,669.776Z" transform="translate(371.563 -619.966)" fill="#ffa18a"/>
              <path id="Trazado_165059" data-name="Trazado 165059" d="M-360.9,628.844c-.271-.434.03-.826.882-.994a7.272,7.272,0,0,1,2.5.03c1.442.263,2.483,1.648,2.083,1.5a8.6,8.6,0,0,0-3.167-.576C-359.581,628.758-360.713,629.137-360.9,628.844Z" transform="translate(395.762 -607.391)" fill="#a35655"/>
              <g id="Grupo_71983" data-name="Grupo 71983" transform="translate(32.104 27.36)">
                <path id="Trazado_165060" data-name="Trazado 165060" d="M-358.39,629.455c.112.422.25.839.392,1.252a5.356,5.356,0,0,1,.25.891.635.635,0,0,1-.108.555.923.923,0,0,1-.693.237,1.184,1.184,0,0,1-.9-.572.107.107,0,0,1,.181-.116.923.923,0,0,0,.908.465c.224-.039.417-.146.413-.387a2.965,2.965,0,0,0-.219-.895c-.151-.452-.305-.9-.426-1.364-.034-.133.168-.2.2-.064Z" transform="translate(359.467 -629.382)" fill="#ff7a5a" opacity="0.7"/>
              </g>
              <path id="Trazado_165061" data-name="Trazado 165061" d="M-347.04,638.573v-1.648c-8.236-.611-11.394-5.413-11.394-5.413C-356.11,635.54-353.485,638.947-347.04,638.573Z" transform="translate(376.435 -594.986)" fill="#ff7a5a" opacity="0.4"/>
              <path id="Trazado_165062" data-name="Trazado 165062" d="M-330.114,624.971a1.384,1.384,0,0,0,.465.142c3.266.065,5.2,1.2,7.5,4.26,4.079,5.426,9.449,23.46,2.517,34.381,0,0,.482-23.947-3.937-27.905-1.786-2.117-5.934-2.53-6.239-2.457-7.612,1.859-11.231,10.233-16.313,12.246,0,0-1.011,1.5-1.282,6.339,0,0,3.787,8.7,1.992,22.07-1.153,8.6-.9,12.453-8.012,12.711-7.625.28-7.647-1.355-8.808-12.311-.59-5.581,3.219-30.07,4.639-37.338C-356.294,630.448-343.785,618.279-330.114,624.971Z" transform="translate(362.293 -623.023)" fill="#a35655"/>
              <path id="Trazado_165063" data-name="Trazado 165063" d="M-355.734,632.028a3.5,3.5,0,0,0,3.873,3.089,3.5,3.5,0,0,0,3.09-3.873,3.5,3.5,0,0,0-3.873-3.089A3.5,3.5,0,0,0-355.734,632.028Z" transform="translate(366.622 -606.147)" fill="#ffa18a"/>
              <path id="Trazado_165064" data-name="Trazado 165064" d="M-357.374,631.555a2.307,2.307,0,0,0,2.169,2.44,2.3,2.3,0,0,0,2.435-2.164,2.3,2.3,0,0,0-2.165-2.44A2.309,2.309,0,0,0-357.374,631.555Z" transform="translate(377.617 -602.008)" fill="#ffa18a" opacity="0.2" style="mix-blend-mode: multiply;isolation: isolate"/>
              <path id="Trazado_165065" data-name="Trazado 165065" d="M-361.109,631.685a2.312,2.312,0,0,0,2.169,2.44,1.339,1.339,0,0,0,.348-.009s.585-1.7.732-2.272c.116-.456.4-1.893.4-1.893a2.182,2.182,0,0,0-1.214-.435A2.312,2.312,0,0,0-361.109,631.685Z" transform="translate(398.379 -601.591)" fill="#ffa18a" opacity="0.2" style="mix-blend-mode: multiply;isolation: isolate"/>
              <path id="Trazado_165066" data-name="Trazado 165066" d="M-352.619,629.025c.327-.408.052-.826-.822-1.071a8.091,8.091,0,0,0-2.616-.2c-1.541.125-2.763,1.407-2.328,1.3a9.469,9.469,0,0,1,3.369-.28C-353.988,628.819-352.839,629.3-352.619,629.025Z" transform="translate(382.053 -607.495)" fill="#a35655"/>
            </g>
            <path id="Trazado_165067" data-name="Trazado 165067" d="M-354.88,630.247a1.141,1.141,0,0,1,.869-.357,2.441,2.441,0,0,0-.783-.9.21.21,0,0,1-.077-.28.2.2,0,0,1,.275-.077,2.867,2.867,0,0,1,1.029,1.243,3.4,3.4,0,0,1,.138,1.76c-.039.258-.435.155-.4-.1a3.29,3.29,0,0,0-.043-1.231h-.009l-.082,0c-.052,0-.1,0-.159.009l-.039,0-.069.013c-.043.013-.086.03-.133.043l0,0-.013,0-.047.026-.082.056-.013.008-.039.039-.03.034-.013.017-.043.073-.026.043v.009l-.03.09-.013.069v.035l0,.051,0,.09.009.043v.017l.026.095.034.095c-.017-.056,0,0,.009.008l.021.043.056.086.026.039c-.03-.047,0,0,.013.008a.214.214,0,0,1,0,.293.208.208,0,0,1-.288,0,1.244,1.244,0,0,1-.284-.516A1.09,1.09,0,0,1-354.88,630.247Zm.727.06c.009,0,.017,0,0,0Z" transform="translate(368.526 -604.608)" fill="#ff7a5a" opacity="0.5"/>
            <g id="Grupo_71986" data-name="Grupo 71986" transform="translate(29.674 32.709)">
              <g id="Grupo_71985" data-name="Grupo 71985" clip-path="url(#clip-path-5)">
                <path id="Trazado_165068" data-name="Trazado 165068" d="M-357.248,633.113a2.928,2.928,0,0,0,2.72-1.347c.064-.09.069-.207-.03-.22,0,0-1.532-.2-2.517-.362-1.024-.168-2.517-.559-2.517-.559-.09-.013-.159.086-.1.262A3.312,3.312,0,0,0-357.248,633.113Z" transform="translate(359.715 -630.625)" fill="#bb4753"/>
                <path id="Trazado_165069" data-name="Trazado 165069" d="M-359.675,630.589c-.439.189,1.123.977,2.612,1.261,1.252.237,2.741-.185,2.685-.362Z" transform="translate(359.763 -630.743)" fill="#fff"/>
              </g>
            </g>
            <path id="Trazado_165071" data-name="Trazado 165071" d="M-356.848,629.568a.664.664,0,0,1-.736.581.657.657,0,0,1-.581-.731.663.663,0,0,1,.732-.586A.67.67,0,0,1-356.848,629.568Z" transform="translate(385.103 -603.851)" fill="#2e2122"/>
            <path id="Trazado_165072" data-name="Trazado 165072" d="M-358.943,629.568a.657.657,0,0,1-.731.581.663.663,0,0,1-.585-.731.67.67,0,0,1,.736-.586A.663.663,0,0,1-358.943,629.568Z" transform="translate(396.204 -603.851)" fill="#2e2122"/>
          </g>
          <g id="Grupo_71991" data-name="Grupo 71991" transform="translate(8.014 103.002)">
            <path id="Rectángulo_21057" data-name="Rectángulo 21057" d="M.279,0h25.58a3.213,3.213,0,0,1,3.213,3.213V33.2a3.213,3.213,0,0,1-3.213,3.213H.278A.278.278,0,0,1,0,36.133V.279A.279.279,0,0,1,.279,0Z" transform="matrix(0.774, 0.633, -0.633, 0.774, 23.038, 0)" fill="#ffd28e"/>
            <g id="Grupo_71988" data-name="Grupo 71988" transform="translate(14.682 12.398)">
              <path id="Trazado_165073" data-name="Trazado 165073" d="M-341.143,667.79l.09,0a.885.885,0,0,0,.6-.323l5.667-6.932a.894.894,0,0,0,.2-.65.9.9,0,0,0-.323-.6l-11.313-9.243a.888.888,0,0,0-1.248.13l-5.663,6.932a.887.887,0,0,0,.125,1.248l11.308,9.239A.877.877,0,0,0-341.143,667.79Zm-5.641-17.5a.442.442,0,0,1,.275.1l11.313,9.243a.413.413,0,0,1,.155.292.426.426,0,0,1-.095.318l-5.667,6.936a.433.433,0,0,1-.293.16.442.442,0,0,1-.323-.095L-352.727,658a.441.441,0,0,1-.064-.615l5.667-6.932A.438.438,0,0,1-346.784,650.29Z" transform="translate(353.336 -649.842)" fill="#f1bb78"/>
            </g>
            <g id="Grupo_71989" data-name="Grupo 71989" transform="translate(21.465 15.645)">
              <rect id="Rectángulo_21058" data-name="Rectángulo 21058" width="11.421" height="0.295" transform="matrix(-0.773, -0.634, 0.634, -0.773, 8.832, 7.469)" fill="#f1bb78"/>
            </g>
            <g id="Grupo_71990" data-name="Grupo 71990" transform="translate(20.252 17.131)">
              <rect id="Rectángulo_21059" data-name="Rectángulo 21059" width="8.539" height="0.295" transform="translate(6.603 5.642) rotate(-140.653)" fill="#f1bb78"/>
            </g>
          </g>
          <path id="Trazado_165074" data-name="Trazado 165074" d="M-353.433,646.244c-.073,14.234,10.74,24.226,18.748,35.237,3.757,5.168,7.195,8.877,9.806,8.705,2.733-.177,7.509-5.486,6.528-7.982-1.153-2.93-10.116-3.8-10.947-5.387-5.861-11.214-9.871-23.663-12.367-29.356a29.65,29.65,0,0,1-5.659.25A18.714,18.714,0,0,1-353.433,646.244Z" transform="translate(360.086 -546.325)" fill="#ffa18a"/>
          <g id="Grupo_71992" data-name="Grupo 71992" transform="translate(44.877 135.953)">
            <path id="Trazado_165075" data-name="Trazado 165075" d="M-361.85,655.039a94.032,94.032,0,0,1,13.163.413,115.269,115.269,0,0,0,13.245.3,54.343,54.343,0,0,0,7.195-.486c.2-.034.116-.344-.086-.31a50.088,50.088,0,0,1-6.476.452c-2.216.09-4.436.155-6.657.116-4.333-.073-8.645-.559-12.969-.792a63.589,63.589,0,0,0-7.414-.013c-.206.013-.206.331,0,.319Z" transform="translate(362.005 -654.618)" fill="#525882"/>
          </g>
          <g id="Grupo_71993" data-name="Grupo 71993" transform="translate(58.449 154.111)">
            <path id="Trazado_165076" data-name="Trazado 165076" d="M-358.357,671.149a107.847,107.847,0,0,0,5.572-12.121c.073-.19-.232-.272-.306-.082a107.97,107.97,0,0,1-5.542,12.044c-.1.18.177.34.275.159Z" transform="translate(358.654 -658.838)" fill="#525882"/>
          </g>
        </g>
        <g id="Grupo_72039" data-name="Grupo 72039" transform="translate(0 0)">
          <path id="Rectángulo_21060" data-name="Rectángulo 21060" d="M6.072,0H37.164a0,0,0,0,1,0,0V74.2a0,0,0,0,1,0,0H8.637A8.637,8.637,0,0,1,0,65.566V6.072A6.072,6.072,0,0,1,6.072,0Z" transform="translate(21.762 87.008)" fill="#2e2122"/>
          <g id="Grupo_72038" data-name="Grupo 72038">
            <path id="Trazado_165077" data-name="Trazado 165077" d="M-326.227,685.96l10.577.352-.861,19.255-9.159-.369Z" transform="translate(371.037 -397.687)" fill="#9e695c"/>
            <g id="Grupo_72000" data-name="Grupo 72000" transform="translate(73.173 289.398)">
              <path id="Trazado_165078" data-name="Trazado 165078" d="M-322.679,686.221l-10.577.353.861,19.255,9.159-.369Z" transform="translate(335.142 -686.221)" fill="#9e695c"/>
              <g id="Grupo_71999" data-name="Grupo 71999" transform="translate(0 12.097)">
                <g id="Grupo_71996" data-name="Grupo 71996">
                  <g id="Grupo_71995" data-name="Grupo 71995" clip-path="url(#clip-path-6)">
                    <path id="Trazado_165079" data-name="Trazado 165079" d="M-334.683,691.493c-2.156.215-3.5,13.485-1.648,14.992,1.88,1.532,6.222,1.975,10.022,3.236a38.267,38.267,0,0,0,10.956,1.923c4.38.039,7.6-1.231,7.6-4.531,0-4.561-12.6-7.518-15.732-13.783-.577-1.153-1.14-4.807-2.913-4.238-2.9.93-2.78,3.765-4.286,3.933A4.009,4.009,0,0,1-334.683,691.493Z" transform="translate(337.205 -689.032)" fill="#ebc9ad"/>
                    <path id="Trazado_165080" data-name="Trazado 165080" d="M-333.559,689.455c-2.156.219-4.759,12.41-2.909,13.916,1.885,1.527,7.281,2.414,11.08,3.671a36.966,36.966,0,0,0,10.973,1.7c4.381.039,7.836-1.988,6.743-4.884L-325.048,688.9C-327.952,689.829-333.559,689.455-333.559,689.455Z" transform="translate(336.465 -689.456)" fill="#b06d52"/>
                  </g>
                </g>
                <g id="Grupo_71997" data-name="Grupo 71997" transform="translate(5.244 8.53)">
                  <path id="Trazado_165082" data-name="Trazado 165082" d="M-327.762,692.106q-2.014,1.62-4.062,3.188a.643.643,0,0,1-.882-.232.658.658,0,0,1,.232-.878c1.256-.968,2.539-1.975,3.8-2.986a.662.662,0,0,1,.912,0,.648.648,0,0,1,0,.908Z" transform="translate(332.79 -691.015)" fill="#ebc9ad"/>
                </g>
                <g id="Grupo_71998" data-name="Grupo 71998" transform="translate(6.978 10.165)">
                  <path id="Trazado_165083" data-name="Trazado 165083" d="M-328.168,692.49q-2.007,1.62-4.062,3.189a.643.643,0,0,1-.878-.232.667.667,0,0,1,.228-.882c1.261-.964,2.543-1.971,3.8-2.986a.656.656,0,0,1,.908,0,.653.653,0,0,1,0,.912Z" transform="translate(333.192 -691.395)" fill="#ebc9ad"/>
                </g>
              </g>
            </g>
            <g id="Grupo_72033" data-name="Grupo 72033">
              <g id="Grupo_72001" data-name="Grupo 72001" transform="translate(84.418 11.396)">
                <path id="Trazado_165084" data-name="Trazado 165084" d="M-331.841,621.8a7.1,7.1,0,0,0,.129,3.567c.206.521.534.985.749,1.5a6.4,6.4,0,0,1,.413,1.648,3.117,3.117,0,0,1-.6,2.707,3,3,0,0,1-2.388.856c-.249-.021-.254-.417,0-.4a2.547,2.547,0,0,0,2.3-.977,3.772,3.772,0,0,0,.146-2.952c-.245-1.012-.942-1.829-1.179-2.844a8.788,8.788,0,0,1,.03-3.111c.034-.25.43-.254.4,0Z" transform="translate(333.725 -621.615)" fill="#2e2122"/>
              </g>
              <path id="Trazado_165085" data-name="Trazado 165085" d="M-322.592,653.061c-2.711-.684-6.868-6.713-7.621-8.864-.465-1.325-2.453-1.015-3.154-2.621-.589-1.36-.03-3.447,1.855-5.693,2.9-3.451.013-9.609,4.639-10.689,4.441-1.037,3.623-4.2,6.794-5.365,2.388-.878,5.224-.753,8.83,1.3.594.34,1.691-1.489,4.015-1.936,3.589-.689,7.431,1.631,9.768,4.071a12.444,12.444,0,0,1,2.78,4.716c.835,2.5-.482,4.759.417,6.837,1.114,2.569.215,4.243-1.734,4.9-4.949,1.652-11.588-5.344-17.229-2.406C-318.758,640.191-322.592,653.061-322.592,653.061Z" transform="translate(380.86 -618.615)" fill="#2e2122"/>
              <path id="Trazado_165086" data-name="Trazado 165086" d="M-285.387,652.277H-335.53s.039,54,0,72c-.043,18.318.783,71.048,2.01,73.44a48.97,48.97,0,0,0,17.358.473s2.853-67.485,3.606-73.914c1.166-9.94,5.366-39.665,5.366-39.665l.456,39.665,1.528,73.914c7.647,1.906,17.66.551,17.66.551,1.381-6.893,1.825-57.136,4.006-74.464,3.236-25.732,3.016-72,3.016-72Z" transform="translate(375.949 -508.942)" fill="#2e2122"/>
              <path id="Trazado_165087" data-name="Trazado 165087" d="M-301.492,633.182l-3.688-1.166-13.159-.6-13.163,1.024-1.614.43L-330,723.326s10.831,2.113,17.444-.439a15.1,15.1,0,0,1,9.221-.233Z" transform="translate(386.52 -577.84)" fill="#b06d52"/>
              <path id="Trazado_165088" data-name="Trazado 165088" d="M-311.771,628.935v8.473a2.415,2.415,0,0,0,1.024,1.975,27.939,27.939,0,0,0,4.811,2.384,90.2,90.2,0,0,1-13.159.856,118.493,118.493,0,0,1-13.163-.43,14.87,14.87,0,0,0,5.641-2.694,2.128,2.128,0,0,0,.77-1.661l-.013-9.372Z" transform="translate(387.277 -587.59)" fill="#9e695c"/>
              <path id="Trazado_165089" data-name="Trazado 165089" d="M-330.9,631.322c1.472,3.774,6.545,6.4,14.088,4.677v-6.872l-14.088-.637Z" transform="translate(392.319 -587.511)" fill="#9e695c" opacity="0.2" style="mix-blend-mode: multiply;isolation: isolate"/>
              <path id="Trazado_165090" data-name="Trazado 165090" d="M-330.083,640.01c.1,0,.194.009.288.017l-.013-5.5a13.9,13.9,0,0,1,13.585-14.191h0a13.9,13.9,0,0,1,13.658,14.122l-.056,9.505a21.918,21.918,0,0,1-2.758,10.306c-2.1,3.942-5.448,6.6-10.616,6.6h0c-7.918,0-12.892-7.689-13.688-14.734-2-.3-3.111-1.359-3.352-3.038C-333.362,640.788-331.719,640.014-330.083,640.01Z" transform="translate(387.43 -614.444)" fill="#9e695c"/>
              <g id="Grupo_72002" data-name="Grupo 72002" transform="translate(55.897 27.249)" opacity="0.5" style="mix-blend-mode: multiply;isolation: isolate">
                <path id="Trazado_165091" data-name="Trazado 165091" d="M-326.448,625.782l0,.008,0-.006Z" transform="translate(326.887 -623.703)" fill="#9e695c"/>
                <path id="Trazado_165092" data-name="Trazado 165092" d="M-326.661,626.994a.81.81,0,0,1,.525-.628.881.881,0,0,1,.3-.056,1.812,1.812,0,0,0-.542-.641.2.2,0,0,1-.069-.271.2.2,0,0,1,.267-.069,2.2,2.2,0,0,1,.787,1,2.684,2.684,0,0,1,.082,1.381.2.2,0,0,1-.241.138.2.2,0,0,1-.138-.241,2.473,2.473,0,0,0-.009-.908h-.125l-.056,0h-.008l-.095.026-.039.013h-.009l-.073.043-.021.017-.009,0-.056.056h0l-.013.026-.039.065v0l-.009.022-.021.078,0,.039c0-.022,0-.043,0-.008a.524.524,0,0,0,0,.082l.009.06h0l.009.047.022.082.008.017h0v0l.009.017,0-.013.009.017.043.073.017.03.013.013a.2.2,0,0,1,0,.28.2.2,0,0,1-.28,0A.98.98,0,0,1-326.661,626.994Z" transform="translate(326.674 -625.299)" fill="#9e695c"/>
              </g>
              <path id="Trazado_165093" data-name="Trazado 165093" d="M-332.535,625.887a.732.732,0,0,0,.736.731.732.732,0,0,0,.731-.736.734.734,0,0,0-.736-.731A.732.732,0,0,0-332.535,625.887Z" transform="translate(413.6 -598.54)" fill="#432220"/>
              <path id="Trazado_165094" data-name="Trazado 165094" d="M-330.274,625.943a.734.734,0,0,0,.736.731.729.729,0,0,0,.731-.735.729.729,0,0,0-.736-.732A.735.735,0,0,0-330.274,625.943Z" transform="translate(401.61 -598.355)" fill="#432220"/>
              <g id="Grupo_72003" data-name="Grupo 72003" transform="translate(75.807 30.107)">
                <path id="Trazado_165095" data-name="Trazado 165095" d="M-329.968,626.091c.267.62.59,1.214.908,1.812a4.239,4.239,0,0,1,.529,1.256.953.953,0,0,1-.4.994,1.8,1.8,0,0,1-1.325.052,2.656,2.656,0,0,1-1.42-.856.267.267,0,0,1,.095-.362.271.271,0,0,1,.361.095,1.948,1.948,0,0,0,.951.568,1.564,1.564,0,0,0,1.033.069.354.354,0,0,0,.176-.206.6.6,0,0,0,0-.314,4.454,4.454,0,0,0-.478-1.076c-.314-.581-.624-1.158-.886-1.764a.278.278,0,0,1,.095-.361.269.269,0,0,1,.362.094Z" transform="translate(331.715 -625.963)" fill="#9e695c" opacity="0.5" style="mix-blend-mode: multiply;isolation: isolate"/>
              </g>
              <path id="Trazado_165096" data-name="Trazado 165096" d="M-329.666,626.8a15.9,15.9,0,0,1,5.551-1.145.749.749,0,0,0-.056-1.493,9.018,9.018,0,0,0-5.319,1.347C-330.445,626.27-330.7,627.376-329.666,626.8Z" transform="translate(396.497 -601.888)" fill="#2e2122"/>
              <g id="Grupo_72004" data-name="Grupo 72004" transform="translate(78.933 127.327)">
                <path id="Trazado_165097" data-name="Trazado 165097" d="M-332.081,664.8a20.168,20.168,0,0,0,.267-3.98q.084-2.046.258-4.088c.116-1.338.262-2.668.43-4a29.5,29.5,0,0,0,.314-3.989.2.2,0,0,1,.4,0,29.713,29.713,0,0,1-.323,4.054c-.168,1.351-.318,2.7-.43,4.062s-.2,2.724-.254,4.088a20.236,20.236,0,0,1-.275,3.955c-.06.249-.443.142-.383-.1Z" transform="translate(332.087 -648.557)" fill="#ddb292"/>
              </g>
              <g id="Grupo_72005" data-name="Grupo 72005" transform="translate(70.866 136.985)">
                <path id="Trazado_165098" data-name="Trazado 165098" d="M-327.362,658.141a59.42,59.42,0,0,1-3.3-7.1c-.09-.241.293-.34.383-.108a58.128,58.128,0,0,0,3.262,7.006c.125.224-.215.422-.34.2Z" transform="translate(330.68 -650.801)" fill="#ddb292"/>
              </g>
              <g id="Grupo_72006" data-name="Grupo 72006" transform="translate(68.663 151.919)">
                <path id="Trazado_165099" data-name="Trazado 165099" d="M-328.73,654.462a161.47,161.47,0,0,1-.052,18.142q-.148,2.544-.379,5.082c-.026.249-.417.254-.4,0a163.552,163.552,0,0,0,.624-18.133q-.058-2.55-.194-5.091c-.013-.254.383-.254.4,0Z" transform="translate(329.557 -654.272)" fill="#2e2122" style="mix-blend-mode: screen;isolation: isolate"/>
              </g>
              <g id="Grupo_72007" data-name="Grupo 72007" transform="translate(59.919 149.357)">
                <path id="Trazado_165100" data-name="Trazado 165100" d="M-311.14,654.061a90.618,90.618,0,0,1-16.39,1.416,39.964,39.964,0,0,1-4.536-.413c-.249-.039-.146-.418.1-.383a57.915,57.915,0,0,0,16.089-.34c1.545-.206,3.085-.435,4.626-.663.25-.034.357.344.107.383Z" transform="translate(332.209 -653.676)" fill="#2e2122" style="mix-blend-mode: screen;isolation: isolate"/>
              </g>
              <g id="Grupo_72008" data-name="Grupo 72008" transform="translate(59.921 57.661)">
                <path id="Trazado_165101" data-name="Trazado 165101" d="M-310.43,632.764c-2.866.237-5.727.482-8.593.7a78.869,78.869,0,0,1-8.554.263,41.227,41.227,0,0,1-4.716-.422c-.254-.039-.146-.417.1-.379,5.607.835,11.291.3,16.911-.155l4.849-.4c.254-.022.254.374,0,.4Z" transform="translate(332.439 -632.367)" fill="#ddb292"/>
              </g>
              <rect id="Rectángulo_21061" data-name="Rectángulo 21061" width="30.377" height="2.201" transform="translate(54.148 76.074)" fill="#b06d52" opacity="0.5" style="mix-blend-mode: screen;isolation: isolate"/>
              <rect id="Rectángulo_21062" data-name="Rectángulo 21062" width="30.377" height="2.201" transform="translate(54.243 82.74)" fill="#b06d52" opacity="0.5" style="mix-blend-mode: screen;isolation: isolate"/>
              <rect id="Rectángulo_21063" data-name="Rectángulo 21063" width="30.377" height="2.201" transform="translate(54.243 89.732)" fill="#b06d52" opacity="0.5" style="mix-blend-mode: screen;isolation: isolate"/>
              <rect id="Rectángulo_21064" data-name="Rectángulo 21064" width="30.377" height="2.201" transform="translate(54.196 96.969)" fill="#b06d52" opacity="0.5" style="mix-blend-mode: screen;isolation: isolate"/>
              <rect id="Rectángulo_21065" data-name="Rectángulo 21065" width="30.377" height="2.201" transform="translate(54.29 103.636)" fill="#b06d52" opacity="0.5" style="mix-blend-mode: screen;isolation: isolate"/>
              <rect id="Rectángulo_21066" data-name="Rectángulo 21066" width="30.377" height="2.201" transform="translate(54.29 110.628)" fill="#b06d52" opacity="0.5" style="mix-blend-mode: screen;isolation: isolate"/>
              <path id="Trazado_165102" data-name="Trazado 165102" d="M-273.635,631.756s10.155,92.189,2.818,119.53c0,0-14.467,0-19.161-5.848,0,0-.082-72.954-1.342-75.807,0,0-15.47,11.657-17.608,13.753,0,0,1.76,5.073,3.688,9.058,0,0-7.53,5.448-14,7.4,0,0-7.771-11.8-7.8-17.966C-327.121,662.544-289.685,635.125-273.635,631.756Z" transform="translate(327.04 -576.724)" fill="#ebc9ad"/>
              <path id="Trazado_165103" data-name="Trazado 165103" d="M-321.766,650.367c-1.076.521-4.157,1.811-4.157,1.811,8.71,9.617,22.522,21.222,26.292,23.477a3.635,3.635,0,0,0,4.393-.529c.921-.977.77-2.595,1.4-2.754,1.355-.336,5.7,5.473,6.98,4.51,1.377-1.037-4.91-5.921-4.355-6.785s7.69,4.651,8.167,2.934c.4-1.42-6.209-4.862-5.947-5.28s6.838,4.553,7.328,3.184c.667-1.859-7.212-5.512-7.022-5.921.542-1.175,7.242,4.686,7.737,2.948.323-1.132-4.665-5.59-7.793-5.7-4.777-.168-7.866,4.91-9.751,4.41-.869-.228-6.764-6.562-15.943-20.62,0,0-1.975,1.291-2.229,1.442-.542.323-.693.426-1.183.719-.224.133-.508.314-.938.551C-319.42,649.11-320.3,649.657-321.766,650.367Z" transform="translate(335.015 -529.493)" fill="#9e695c"/>
              <g id="Grupo_72009" data-name="Grupo 72009" transform="translate(6.269 108.475)">
                <path id="Trazado_165104" data-name="Trazado 165104" d="M-305.464,644.543a52.925,52.925,0,0,1-11.963,5.288.2.2,0,0,1-.1-.383,52.36,52.36,0,0,0,11.868-5.245c.224-.125.422.22.2.34Z" transform="translate(317.672 -644.176)" fill="#ddb292"/>
              </g>
              <g id="Grupo_72010" data-name="Grupo 72010" transform="translate(13.925 104.732)">
                <path id="Trazado_165105" data-name="Trazado 165105" d="M-313.714,645.2a7.4,7.4,0,0,0-3.709-1.51c-.249-.052-.142-.435.1-.383a7.807,7.807,0,0,1,3.885,1.613c.185.172-.095.452-.28.28Z" transform="translate(317.565 -643.306)" fill="#ddb292"/>
              </g>
              <g id="Grupo_72011" data-name="Grupo 72011" transform="translate(9.85 100.275)">
                <path id="Trazado_165106" data-name="Trazado 165106" d="M-309.647,648.586a11.53,11.53,0,0,0-2.995-3.976,9.881,9.881,0,0,0-4.785-1.958c-.25-.043-.142-.422.107-.379a10.276,10.276,0,0,1,4.867,1.979,11.755,11.755,0,0,1,3.146,4.131c.107.232-.237.43-.34.2Z" transform="translate(317.569 -642.27)" fill="#ddb292"/>
              </g>
              <g id="Grupo_72012" data-name="Grupo 72012" transform="translate(35.508 82.742)">
                <path id="Trazado_165107" data-name="Trazado 165107" d="M-315.543,638.49a52.286,52.286,0,0,1-3.572,5.064q-.981,1.259-1.971,2.518a19.959,19.959,0,0,1-2.027,2.315c-.185.172-.465-.108-.28-.28a19.921,19.921,0,0,0,1.993-2.268q.968-1.232,1.928-2.466a52.256,52.256,0,0,0,3.589-5.086.2.2,0,0,1,.34.2Z" transform="translate(323.452 -638.195)" fill="#ddb292"/>
              </g>
              <g id="Grupo_72013" data-name="Grupo 72013" transform="translate(35.742 92.484)">
                <path id="Trazado_165108" data-name="Trazado 165108" d="M-316.367,640.858a8.15,8.15,0,0,1-3.206.383c-1.179,0-2.362-.052-3.542-.138-.249-.017-.254-.413,0-.391,1.136.078,2.277.125,3.412.133a8.1,8.1,0,0,0,3.227-.37c.237-.095.34.288.108.383Z" transform="translate(323.303 -640.46)" fill="#ddb292"/>
              </g>
              <rect id="Rectángulo_21067" data-name="Rectángulo 21067" width="9.791" height="19.991" rx="1.138" transform="translate(105.467 34.637)" fill="#242a45"/>
              <path id="Trazado_165109" data-name="Trazado 165109" d="M-323.079,684.716s-12.6,5.086-13.185-5.138c-1.132-19.747,2.832-25.491,1.51-27.419-2.328-3.4-3.494-6.528-4.256-7.487a25.713,25.713,0,0,0-2.547-2.646c-.779-.641-.981-1.739-.073-1.919.628-.125,1.618.447,1.717.3.151-.224-1.966-1.424-2.108-2.431a1.1,1.1,0,0,1,1.244-1.4c-.469-.585-.577-1.235-.31-1.506,1.489-1.519,6.313,1.687,6.553,1.424.6-.646-6.79-6.631-6.175-8.111.577-1.386,6.162,2.56,8.8,7.065C-328.088,641.948-323.075,669.828-323.079,684.716Z" transform="translate(447.33 -588.788)" fill="#9e695c"/>
              <path id="Trazado_165110" data-name="Trazado 165110" d="M-319.579,745.575s-14.953,7.926-22.668,5.788c0,0,1.261-119.956,3.649-119.534a33.06,33.06,0,0,1,17.092,9.673c4.652,4.841,6.932,10.241,9.062,14.454l-.1,10.177a2.8,2.8,0,0,0,.852,2.065c4.591,4.346,12.32,4.217,12.32,4.217.284,5.658-.009,13.313-4.57,14.734-10.392,3.244-17.716-9.7-19.183-14.213C-323.13,672.936-326.4,726.332-319.579,745.575Z" transform="translate(423.627 -576.487)" fill="#ebc9ad"/>
              <g id="Grupo_72014" data-name="Grupo 72014" transform="translate(99.536 83.87)">
                <path id="Trazado_165111" data-name="Trazado 165111" d="M-336.321,638.648a97.346,97.346,0,0,0,.615,12.113c.03.254-.366.25-.392,0a96.575,96.575,0,0,1-.62-12.113.2.2,0,0,1,.4,0Z" transform="translate(336.723 -638.458)" fill="#ddb292"/>
              </g>
              <g id="Grupo_72015" data-name="Grupo 72015" transform="translate(111.373 98.571)">
                <path id="Trazado_165112" data-name="Trazado 165112" d="M-329.922,646.07c-4.281-.121-8.731-1.123-12.126-3.868-.2-.159.082-.439.28-.28,3.309,2.676,7.681,3.636,11.846,3.756a.2.2,0,0,1,0,.391Z" transform="translate(342.116 -641.874)" fill="#ddb292"/>
              </g>
              <g id="Grupo_72016" data-name="Grupo 72016" transform="translate(38.4 62.162)">
                <path id="Trazado_165113" data-name="Trazado 165113" d="M-322.847,633.474a12.5,12.5,0,0,1,3.555,8.632.2.2,0,0,1-.4,0,12.1,12.1,0,0,0-3.438-8.356c-.176-.181.1-.461.28-.275Z" transform="translate(323.183 -633.413)" fill="#ddb292"/>
              </g>
              <g id="Grupo_72017" data-name="Grupo 72017" transform="translate(106.533 47.641)">
                <path id="Trazado_165114" data-name="Trazado 165114" d="M-335.223,632.365c-.594-.353-1.175-.749-1.794-1.05-.645-.318-1.3-.611-1.958-.917-.228-.108-.03-.447.2-.34.65.3,1.308.6,1.953.912.62.305,1.2.7,1.795,1.054a.2.2,0,0,1-.2.34Z" transform="translate(339.076 -630.038)" fill="#9e695c" opacity="0.5" style="mix-blend-mode: multiply;isolation: isolate"/>
              </g>
              <g id="Grupo_72018" data-name="Grupo 72018" transform="translate(107.406 51.512)">
                <path id="Trazado_165115" data-name="Trazado 165115" d="M-337.187,632.178c-.232-.168-.465-.335-.706-.486a7.36,7.36,0,0,0-.757-.387.2.2,0,0,1-.073-.271.207.207,0,0,1,.271-.073,7.02,7.02,0,0,1,.757.387c.245.151.478.318.706.486a.2.2,0,0,1,.073.271.2.2,0,0,1-.271.073Z" transform="translate(338.747 -630.938)" fill="#9e695c" opacity="0.5" style="mix-blend-mode: multiply;isolation: isolate"/>
              </g>
              <path id="Trazado_165116" data-name="Trazado 165116" d="M-316.328,619.487c2.745.65,4.695,4.733,3.774,6.248-1.05,1.73-5.082.043-6.76,2.336-.951,1.3.043,2.238-1.037,4.781-.891,2.087-1.984,1.678-2.453,3.49-.529,2.031.766,2.935.108,4.733-.482,1.321-2.44,2.109-3.666,2.07,0,0-3-2.96-3.425-4.914C-331.625,629.763-321.7,618.222-316.328,619.487Z" transform="translate(383.998 -617.563)" fill="#2e2122"/>
              <path id="Trazado_165117" data-name="Trazado 165117" d="M-333.169,621.628a3.686,3.686,0,0,0,2.62,2.831c2.048.594,3.245-.026,4.505.693.848.478.693.826,1.868,1.971a12.976,12.976,0,0,0,2.621,1.7c2.539,1.73,2.276,5.831,2.41,5.809a13.175,13.175,0,0,0-2.431-9.518c-1.7-2.332-5.388-5.736-8.636-4.824C-331.736,620.716-333.354,620.513-333.169,621.628Z" transform="translate(404.32 -615.112)" fill="#2e2122"/>
              <path id="Trazado_165118" data-name="Trazado 165118" d="M-327.4,626.755a13.745,13.745,0,0,0-5.146-1.089.752.752,0,0,1,.086-1.489,7.813,7.813,0,0,1,4.923,1.3C-326.668,626.213-326.453,627.315-327.4,626.755Z" transform="translate(412.006 -601.866)" fill="#2e2122"/>
              <g id="Grupo_72019" data-name="Grupo 72019" transform="translate(69.722 2.638)">
                <path id="Trazado_165119" data-name="Trazado 165119" d="M-329.677,619.645a5.635,5.635,0,0,1,1.076,2.091,11.544,11.544,0,0,1,.529,2.522c.017.254-.379.254-.4,0a10.935,10.935,0,0,0-.495-2.345,5.279,5.279,0,0,0-.994-1.988c-.168-.189.112-.473.28-.28Z" transform="translate(330.008 -619.58)" fill="#2e2122" opacity="0.3" style="mix-blend-mode: multiply;isolation: isolate"/>
              </g>
              <g id="Grupo_72020" data-name="Grupo 72020" transform="translate(37.601 164.405)">
                <path id="Trazado_165120" data-name="Trazado 165120" d="M-307.875,661.656a52.954,52.954,0,0,1-14.751-2.518,28.243,28.243,0,0,1-3.731-1.6c-.224-.116-.026-.456.2-.34a39.463,39.463,0,0,0,13.942,3.713c1.441.163,2.887.275,4.337.348.249.013.254.409,0,.4Z" transform="translate(326.455 -657.174)" fill="#ddb292"/>
              </g>
              <g id="Grupo_72021" data-name="Grupo 72021" transform="translate(83.924 164.637)">
                <path id="Trazado_165121" data-name="Trazado 165121" d="M-319.492,657.617c-4.523,1.166-8.731,3.434-13.4,4.054a15.768,15.768,0,0,1-3.873.06c-.25-.03-.25-.426,0-.4,4.695.538,9.123-1.394,13.443-2.93,1.222-.434,2.461-.844,3.718-1.17a.2.2,0,0,1,.108.383Z" transform="translate(336.948 -657.228)" fill="#ddb292"/>
              </g>
              <g id="Grupo_72022" data-name="Grupo 72022" transform="translate(73.146 37.63)">
                <path id="Trazado_165122" data-name="Trazado 165122" d="M-326.429,628.922a5.72,5.72,0,0,1-5.048-.745c-.288-.18.03-.6.314-.422a5.166,5.166,0,0,0,4.522.684c.319-.12.529.362.211.482Z" transform="translate(331.59 -627.712)" fill="#9e695c" opacity="0.5" style="mix-blend-mode: multiply;isolation: isolate"/>
              </g>
              <g id="Grupo_72023" data-name="Grupo 72023" transform="translate(34.245 137.235)">
                <path id="Trazado_165123" data-name="Trazado 165123" d="M-319.353,651.193c-.448.439-.912.865-1.343,1.321A4.769,4.769,0,0,0-321.56,654a.2.2,0,0,1-.271.069.2.2,0,0,1-.069-.271,5.158,5.158,0,0,1,.891-1.532c.439-.469.917-.9,1.377-1.351.181-.181.46.1.28.276Z" transform="translate(321.925 -650.859)" fill="#9e695c" opacity="0.5" style="mix-blend-mode: multiply;isolation: isolate"/>
              </g>
              <g id="Grupo_72024" data-name="Grupo 72024" transform="translate(50.226 0.07)">
                <path id="Trazado_165124" data-name="Trazado 165124" d="M-312.046,620.708A12.742,12.742,0,0,0-317.8,619.4a5.384,5.384,0,0,0-2.405.792,4.972,4.972,0,0,0-1.605,1.9,4.862,4.862,0,0,1-1.424,1.8,13.262,13.262,0,0,1-2.306.925,5.732,5.732,0,0,0-2.066,1.338,4.176,4.176,0,0,0-.929,2.6c-.06.8-.077,1.6-.069,2.393a11.843,11.843,0,0,0,.215,2.435c.056.25-.323.353-.379.108a16.387,16.387,0,0,1-.185-4.587,5.856,5.856,0,0,1,.572-2.556,4.429,4.429,0,0,1,1.682-1.605,13.757,13.757,0,0,1,2.388-.99,3.167,3.167,0,0,0,1.317-.787,5.444,5.444,0,0,0,.723-1.063,6.263,6.263,0,0,1,1.51-2,5.314,5.314,0,0,1,2.268-1c2.263-.439,4.479.4,6.553,1.222.232.094.134.473-.1.383Z" transform="translate(329.029 -618.983)" fill="#2e2122"/>
              </g>
              <g id="Grupo_72025" data-name="Grupo 72025" transform="translate(70.94)">
                <path id="Trazado_165125" data-name="Trazado 165125" d="M-332.955,620.943a5.859,5.859,0,0,1,2.845-1.437,7.41,7.41,0,0,1,3.343-.49,9.316,9.316,0,0,1,5.336,3.193,15.327,15.327,0,0,1,2.022,2.913c.12.224-.219.422-.34.2a13.134,13.134,0,0,0-3.692-4.415,8.516,8.516,0,0,0-2.754-1.369,5.646,5.646,0,0,0-3.236.168,6.786,6.786,0,0,0-3.245,1.519c-.172.189-.447-.09-.28-.28Z" transform="translate(333.007 -618.967)" fill="#2e2122"/>
              </g>
              <g id="Grupo_72026" data-name="Grupo 72026" transform="translate(57.579 8.755)">
                <path id="Trazado_165126" data-name="Trazado 165126" d="M-319.9,621.327a4.016,4.016,0,0,0-1.36,3.636,9.2,9.2,0,0,1,.19,2.427,3.762,3.762,0,0,1-.848,1.837c-.439.521-1.054.856-1.5,1.369a2.541,2.541,0,0,0-.512,1.919,15.609,15.609,0,0,1,.1,1.954,2.622,2.622,0,0,1-.719,1.644,4.361,4.361,0,0,1-1.906,1.334,3.246,3.246,0,0,1-2.268-.181c-.232-.107-.03-.448.2-.344a3.234,3.234,0,0,0,3.907-1.334c.792-1.067.2-2.522.3-3.731a2.541,2.541,0,0,1,.624-1.54c.426-.482,1-.809,1.433-1.291a3.32,3.32,0,0,0,.839-2,20.616,20.616,0,0,0-.25-2.349,4.305,4.305,0,0,1,1.5-3.628c.2-.155.482.121.28.28Z" transform="translate(328.827 -621.001)" fill="#2e2122"/>
              </g>
              <g id="Grupo_72027" data-name="Grupo 72027" transform="translate(109.091 90.485)">
                <path id="Trazado_165127" data-name="Trazado 165127" d="M-337.3,640.3a15.083,15.083,0,0,0-1.157,4.9q-.271,2.672-.28,5.357a.2.2,0,0,1-.4,0,55.247,55.247,0,0,1,.305-5.594,15.229,15.229,0,0,1,1.183-4.858c.108-.232.452-.03.344.2Z" transform="translate(339.138 -639.995)" fill="#ddb292"/>
              </g>
              <g id="Grupo_72028" data-name="Grupo 72028" transform="translate(70.553 197.65)">
                <path id="Trazado_165128" data-name="Trazado 165128" d="M-332.447,682.239a77.362,77.362,0,0,0,9.295-13.176q1.117-2,2.113-4.062c.112-.228.452-.03.344.2a77.83,77.83,0,0,1-8.559,13.787q-1.407,1.814-2.913,3.533c-.168.194-.448-.086-.28-.28Z" transform="translate(332.499 -664.9)" fill="#2e2122" style="mix-blend-mode: screen;isolation: isolate"/>
              </g>
              <g id="Grupo_72029" data-name="Grupo 72029" transform="translate(69.501 204.958)">
                <path id="Trazado_165129" data-name="Trazado 165129" d="M-330.207,675.928a55.962,55.962,0,0,0,2.676-9.187c.052-.25.43-.147.383.1a55.881,55.881,0,0,1-2.681,9.187c-.09.236-.473.133-.379-.1Z" transform="translate(330.222 -666.598)" fill="#2e2122" style="mix-blend-mode: screen;isolation: isolate"/>
              </g>
              <g id="Grupo_72030" data-name="Grupo 72030" transform="translate(42.063 147.025)">
                <path id="Trazado_165130" data-name="Trazado 165130" d="M-318.869,658.623a23.445,23.445,0,0,0-5.56-5.112c-.211-.142-.013-.482.2-.344a23.821,23.821,0,0,1,5.641,5.176c.155.2-.12.478-.28.28Z" transform="translate(324.519 -653.135)" fill="#ddb292"/>
              </g>
              <g id="Grupo_72031" data-name="Grupo 72031" transform="translate(41.539 148.36)">
                <path id="Trazado_165131" data-name="Trazado 165131" d="M-323.061,653.51a6.13,6.13,0,0,1,1.308,2.62c.056.25-.323.353-.379.108a5.721,5.721,0,0,0-1.209-2.448c-.163-.194.116-.474.28-.28Z" transform="translate(323.39 -653.445)" fill="#ddb292"/>
              </g>
              <g id="Grupo_72032" data-name="Grupo 72032" transform="translate(112.895 63.886)">
                <path id="Trazado_165132" data-name="Trazado 165132" d="M-337.786,634.538a3.643,3.643,0,0,1-2.319-.348c-.211-.138-.013-.482.2-.344a3.3,3.3,0,0,0,2.121.3c.254-.017.254.374,0,.4Z" transform="translate(340.195 -633.814)" fill="#9e695c" opacity="0.5" style="mix-blend-mode: multiply;isolation: isolate"/>
              </g>
            </g>
            <g id="Grupo_72037" data-name="Grupo 72037" transform="translate(39.363 302.453)">
              <g id="Grupo_72035" data-name="Grupo 72035">
                <g id="Grupo_72034" data-name="Grupo 72034" clip-path="url(#clip-path-7)">
                  <path id="Trazado_165133" data-name="Trazado 165133" d="M-326.761,707.164c1.317,4.923,17.079,5.056,18.68.349a7.9,7.9,0,0,0-.68-5.99c-1.136-2.453-1.115-4.854-1.523-7.126a6.825,6.825,0,0,0-6.592-5.142,7,7,0,0,0-6.265,5.594,17.154,17.154,0,0,1-2.035,6.016C-326.219,703.025-327.471,704.518-326.761,707.164Z" transform="translate(326.969 -689.255)" fill="#ebc9ad"/>
                  <path id="Trazado_165134" data-name="Trazado 165134" d="M-326.752,706.4c1.321,4.923,17.079,5.051,18.679.349a7.9,7.9,0,0,0-.68-5.99c-1.136-2.457-1.115-4.854-1.523-7.13a6.826,6.826,0,0,0-6.592-5.138,6.993,6.993,0,0,0-6.265,5.59,17.23,17.23,0,0,1-2.031,6.015C-326.21,702.254-327.462,703.751-326.752,706.4Z" transform="translate(326.922 -691.789)" fill="#b06d52"/>
                </g>
              </g>
              <g id="Grupo_72036" data-name="Grupo 72036" transform="translate(12.842 9.423)">
                <path id="Trazado_165136" data-name="Trazado 165136" d="M-323.2,695.847a7.738,7.738,0,0,0-.594-1.015c-.056-.082-.116-.164-.172-.246s.026.03-.022-.026l-.086-.108c-.125-.155-.254-.306-.392-.452a8.447,8.447,0,0,0-.839-.779c-.142-.116.095.069-.047-.039l-.107-.082c-.082-.06-.164-.116-.245-.172-.168-.112-.336-.219-.512-.318a.638.638,0,0,1-.22-.856.625.625,0,0,1,.848-.228,8.751,8.751,0,0,1,3.46,3.688.645.645,0,0,1-.219.861.632.632,0,0,1-.852-.228Z" transform="translate(326.526 -691.445)" fill="#ebc9ad"/>
              </g>
            </g>
          </g>
          <path id="Trazado_165137" data-name="Trazado 165137" d="M-325.367,698.486c12.475-11.919,19.415-38.758,12.944-65.488a1.24,1.24,0,0,0-1.239-.981,11.486,11.486,0,0,0-4.277,1.291,1.044,1.044,0,0,0-.525,1.175c.611,2.534,2.491,11.627,1.932,26.063-.731,18.822-8.739,26.61-8.834,29.209Z" transform="translate(361.646 -575.891)" fill="#2e2122"/>
        </g>
      </g>
    </g>
  </g>
</svg>
