<svg xmlns="http://www.w3.org/2000/svg" xmlns:xlink="http://www.w3.org/1999/xlink" width="85" height="85" viewBox="0 0 85 85">
  <defs>
    <clipPath id="clip-path">
      <rect id="Rectángulo_21101" data-name="Rectángulo 21101" width="85" height="85" transform="translate(600 3094)" fill="#585c03" stroke="#707070" stroke-width="1"/>
    </clipPath>
  </defs>
  <g id="Enmascarar_grupo_54" data-name="Enmascarar grupo 54" transform="translate(-600 -3094)" clip-path="url(#clip-path)">
    <g id="demand_1_" data-name="demand (1)" transform="translate(598.629 3092.629)">
      <path id="Trazado_166062" data-name="Trazado 166062" d="M62.294,15.081h-1.2A24.04,24.04,0,0,0,42.5,23.88V20.565h1.966a3.517,3.517,0,0,0,3.016-5.328L40.268,3.212a3.792,3.792,0,0,0-6.5,0L26.55,15.236a3.518,3.518,0,0,0,3.016,5.329h1.966V39.758h5.515a24.026,24.026,0,0,0,1.427,7.57L23.221,62.581,15,55.726,1.371,69.352V80.887H53.036A9.589,9.589,0,0,0,71.29,76.774V75.151a4.057,4.057,0,0,0,2.192-5.877,4.08,4.08,0,0,0,.58-6.486,4.726,4.726,0,0,1,1.56-3.263l2.668-2.37a24.078,24.078,0,0,0-16-42.074ZM29.566,17.823a.775.775,0,0,1-.665-1.175L36.115,4.623a1.1,1.1,0,0,1,1.8,0l7.214,12.025a.775.775,0,0,1-.665,1.175H39.758V28.04a23.868,23.868,0,0,0-2.634,8.976h-2.85V17.823ZM42.5,54.4V78.145H37.016V52.664l2.634-2.634A24.11,24.11,0,0,0,42.5,54.4ZM34.274,78.145H28.79V60.89l5.484-5.484ZM23.391,66.29l2.657-2.658V78.145H20.565V63.935Zm-8.226-6.855,2.657,2.214v16.5H12.339V62.261ZM4.113,70.487,9.6,65V78.145H4.113Zm41.129,7.658V57.282l2.524,2.243a4.737,4.737,0,0,1,1.56,3.263,4.079,4.079,0,0,0,.579,6.486A4.057,4.057,0,0,0,52.1,75.151v1.623a9.632,9.632,0,0,0,.11,1.371ZM72.661,65.806a1.371,1.371,0,0,1-1.371,1.371H52.1a1.371,1.371,0,1,1,0-2.742H71.29A1.371,1.371,0,0,1,72.661,65.806ZM61.694,83.629a6.863,6.863,0,0,1-6.855-6.855V75.4h13.71v1.371A6.863,6.863,0,0,1,61.694,83.629Zm8.226-10.968H53.468a1.371,1.371,0,1,1,0-2.742H69.919a1.371,1.371,0,0,1,0,2.742ZM76.468,55.1,73.8,57.475a7.468,7.468,0,0,0-2.377,4.231c-.045,0-.088-.012-.133-.012H52.1c-.045,0-.088.012-.133.014a7.476,7.476,0,0,0-2.377-4.231l-2.668-2.37A21.337,21.337,0,0,1,61.094,17.823h1.2A21.336,21.336,0,0,1,76.468,55.1Z" fill="#585c03"/>
      <path id="Trazado_166063" data-name="Trazado 166063" d="M78.136,39.71a15.962,15.962,0,0,1-.292,2.523l2.688.533a18.268,18.268,0,0,0,.343-2.961Z" fill="#585c03"/>
      <path id="Trazado_166064" data-name="Trazado 166064" d="M72.826,51.005l-2.669,2.372a13.008,13.008,0,0,0-1.84,2.021l2.211,1.623a10.265,10.265,0,0,1,1.449-1.594l2.669-2.372a18.677,18.677,0,0,0,5.04-7.328l-2.565-.969a15.915,15.915,0,0,1-4.3,6.248Z" fill="#585c03"/>
      <path id="Trazado_166065" data-name="Trazado 166065" d="M42.519,38.327l2.739.122a15.761,15.761,0,0,1,.315-2.524l-2.686-.557a18.786,18.786,0,0,0-.369,2.959Z" fill="#585c03"/>
      <path id="Trazado_166066" data-name="Trazado 166066" d="M61.694,23.306V20.565h-.6A18.739,18.739,0,0,0,43.768,32.4l2.554,1a15.979,15.979,0,0,1,14.772-10.1Z" fill="#585c03"/>
      <path id="Trazado_166067" data-name="Trazado 166067" d="M67.177,35.516a5.354,5.354,0,0,0-4.113-5.195v-2.9H60.323v2.9A5.345,5.345,0,0,0,59.872,40.6l2.776.927a2.612,2.612,0,0,1-.824,5.09h-.259A2.614,2.614,0,0,1,58.952,44V42.5H56.21V44a5.354,5.354,0,0,0,4.113,5.195v2.9h2.742v-2.9a5.345,5.345,0,0,0,.451-10.274l-2.776-.927a2.612,2.612,0,0,1,.824-5.09h.259a2.615,2.615,0,0,1,2.613,2.613v.129Z" fill="#585c03"/>
      <path id="Trazado_166068" data-name="Trazado 166068" d="M10.373,34.274h1.966V53.468H23.306V34.274h1.966a3.517,3.517,0,0,0,3.016-5.328L21.075,16.922a3.792,3.792,0,0,0-6.5,0L7.357,28.945a3.518,3.518,0,0,0,3.016,5.329Zm-.665-3.917,7.214-12.025a1.1,1.1,0,0,1,1.8,0l7.214,12.025a.775.775,0,0,1-.665,1.175H20.565V50.726H15.081V31.532H10.373a.775.775,0,0,1-.665-1.175Z" fill="#585c03"/>
    </g>
  </g>
</svg>
