<svg xmlns="http://www.w3.org/2000/svg" xmlns:xlink="http://www.w3.org/1999/xlink" width="410.657" height="435.27" viewBox="0 0 410.657 435.27">
  <defs>
    <clipPath id="clip-path">
      <path id="Trazado_167486" data-name="Trazado 167486" d="M130.8,686.786V656.575l163.961-8.861,86.379,73.247,2.23,48.106H219.409Z" transform="translate(-130.8 -647.715)" fill="none"/>
    </clipPath>
  </defs>
  <g id="Grupo_74307" data-name="Grupo 74307" transform="translate(0 71)">
    <g id="Grupo_73506" data-name="Grupo 73506" transform="translate(0 0)" opacity="0.7">
      <g id="Grupo_73495" data-name="Grupo 73495" transform="translate(203.644 219.094)">
        <path id="Trazado_167398" data-name="Trazado 167398" d="M349.574,732.714s-1.582-12.251,5.306-18.721c4.3-4.043,11.44-4.546,18.921-3.7,21.323,2.4,50.155,16.217,57.363,19.821s2.4,10.534,2.4,10.534,4.2,24.9,6.007,33.615-.894,38.8-.594,41.739,3.057,7.267,2.279,8.768-31.931,2.666-47.035,1.332c-18.854-1.667-48.353-1.985-52.557-8.892s0-10.511,0-10.511S343.5,745.243,349.574,732.714Z" transform="translate(-339.797 -699.006)" fill="#fcd7b9"/>
        <path id="Trazado_167399" data-name="Trazado 167399" d="M442.462,742.412c-.931,1.215-2.035,2.3-3.038,3.454a12.113,12.113,0,0,1-2.634,2.421,36,36,0,0,1-7.965,3.525c-1.112.368-.635,2.135.486,1.763a35.868,35.868,0,0,0,8.83-3.98,14.382,14.382,0,0,0,2.738-2.624c1.051-1.217,2.183-2.359,3.163-3.636C444.757,742.4,443.17,741.49,442.462,742.412Z" transform="translate(-348.058 -702.004)" fill="#ba9b80"/>
        <g id="Grupo_73494" data-name="Grupo 73494" transform="translate(17.606)">
          <path id="Trazado_167400" data-name="Trazado 167400" d="M430.03,732.563c-2.3,3.936-10.559,6.819-20.25,7.581-8.459.665-20.647,1.1-29.6-1.279-8.622-2.292-15.389-6.847-18.746-10.729-2.354-2.721-2.838-5.316-1.439-7.716,2.294-3.936,20.83-22.738,31.625-22.539,12.445.229,30.934,25.3,34.293,29.185C428.27,729.787,431.43,730.163,430.03,732.563Z" transform="translate(-359.218 -697.878)" fill="#e26949"/>
          <path id="Trazado_167401" data-name="Trazado 167401" d="M403.649,720.132c.1.512-.52,1.006-1.38,1.1s-1.636-.241-1.734-.754.519-1.006,1.38-1.1S403.551,719.619,403.649,720.132Z" transform="translate(-363.078 -699.886)" fill="#a3544a"/>
          <path id="Trazado_167402" data-name="Trazado 167402" d="M406.253,711.6c.1.513-.52,1.007-1.38,1.1s-1.636-.241-1.734-.754.519-1.007,1.38-1.1S406.155,711.086,406.253,711.6Z" transform="translate(-363.322 -699.089)" fill="#ffb94a"/>
          <path id="Trazado_167403" data-name="Trazado 167403" d="M391.123,717.183c.055.293-.3.575-.788.63s-.934-.138-.99-.431.3-.575.788-.629S391.067,716.891,391.123,717.183Z" transform="translate(-362.033 -699.641)" fill="#ffb94a"/>
          <path id="Trazado_167404" data-name="Trazado 167404" d="M375.951,718.693c.072.376-.382.738-1.012.809s-1.2-.177-1.272-.553.382-.738,1.012-.809S375.879,718.317,375.951,718.693Z" transform="translate(-360.568 -699.771)" fill="#a3544a"/>
          <path id="Trazado_167405" data-name="Trazado 167405" d="M383.368,703.4c.072.376-.381.738-1.012.809s-1.2-.177-1.271-.553.381-.738,1.012-.809S383.3,703.029,383.368,703.4Z" transform="translate(-361.261 -698.342)" fill="#a3544a"/>
          <path id="Trazado_167406" data-name="Trazado 167406" d="M422.64,725.279c.1.512-.852,1.043-2.12,1.185s-2.377-.158-2.475-.671.851-1.043,2.12-1.186S422.542,724.766,422.64,725.279Z" transform="translate(-364.715 -700.373)" fill="#a3544a"/>
          <path id="Trazado_167407" data-name="Trazado 167407" d="M388.07,728.257c.278.471-.442,1.183-1.611,1.588s-2.342.35-2.621-.122.443-1.183,1.611-1.588S387.791,727.785,388.07,728.257Z" transform="translate(-361.513 -700.681)" fill="#a3544a"/>
          <path id="Trazado_167408" data-name="Trazado 167408" d="M390.587,710.531c.054.286-.289.56-.768.614s-.911-.134-.965-.42.29-.56.769-.614S390.533,710.245,390.587,710.531Z" transform="translate(-361.987 -699.021)" fill="#a3544a"/>
          <path id="Trazado_167409" data-name="Trazado 167409" d="M404.528,704.561c-.151.405-.824.614-1.5.465s-1.108-.6-.957-1,.824-.613,1.5-.464S404.679,704.156,404.528,704.561Z" transform="translate(-363.22 -698.405)" fill="#a3544a"/>
        </g>
      </g>
      <g id="Grupo_73505" data-name="Grupo 73505" transform="translate(0 6.301)">
        <rect id="Rectángulo_21191" data-name="Rectángulo 21191" width="102.787" height="55.267" transform="translate(0 288.67)" fill="#a0a603"/>
        <rect id="Rectángulo_21192" data-name="Rectángulo 21192" width="163.961" height="55.267" transform="translate(102.787 288.67)" fill="#878c06"/>
        <rect id="Rectángulo_21193" data-name="Rectángulo 21193" width="14.178" height="286.589" transform="translate(0 -31)" fill="#a0a603"/>
        <rect id="Rectángulo_21194" data-name="Rectángulo 21194" width="14.177" height="255.589" transform="translate(163.961)" fill="#6f7302"/>
        <g id="Grupo_73496" data-name="Grupo 73496" transform="translate(0 203.605)">
          <path id="Trazado_167410" data-name="Trazado 167410" d="M126.34,687.743l91.608,85.065v7.483H115.16V687.743Z" transform="translate(-115.16 -687.743)" fill="#a5a930"/>
          <path id="Trazado_167411" data-name="Trazado 167411" d="M115.16,738.787h61.012l1.962,1.822-62.974.541Z" transform="translate(-115.16 -692.513)" fill="#6f7302"/>
          <path id="Trazado_167412" data-name="Trazado 167412" d="M115.16,765.214h86.812l2.393,2.222H115.16Z" transform="translate(-115.16 -694.983)" fill="#6f7302"/>
        </g>
        <path id="Trazado_167413" data-name="Trazado 167413" d="M130.8,690.814H294.76L383.37,773.1H219.409Z" transform="translate(-116.622 -484.425)" fill="#7f3633"/>
        <path id="Trazado_167414" data-name="Trazado 167414" d="M228.544,781.577v55.267h3.282l-.12-7.223,7.915-1.911-7.979-1.922-.735-44.211Z" transform="translate(-125.756 -492.907)" fill="#6f7302"/>
        <path id="Trazado_167415" data-name="Trazado 167415" d="M232.164,832.266s68.525-2.691,86.378-1.9,74.3,2.363,74.3,2.363V834.3Z" transform="translate(-126.095 -497.453)" fill="#6f7302"/>
        <path id="Trazado_167416" data-name="Trazado 167416" d="M230.426,801.382l162.254-.328v1.641l-162.254.394Z" transform="translate(-125.932 -494.727)" fill="#6f7302"/>
        <rect id="Rectángulo_21195" data-name="Rectángulo 21195" width="104.494" height="1.149" transform="translate(0 309.28)" fill="#6f7302"/>
        <rect id="Rectángulo_21196" data-name="Rectángulo 21196" width="104.494" height="1.149" transform="translate(0 333.664)" fill="#6f7302"/>
        <g id="Grupo_73504" data-name="Grupo 73504" transform="translate(14.178 167.318)">
          <g id="Grupo_73503" data-name="Grupo 73503" clip-path="url(#clip-path)">
            <g id="Grupo_73497" data-name="Grupo 73497" transform="translate(126.352 9.432)">
              <path id="Trazado_167417" data-name="Trazado 167417" d="M275.534,681.055v38.251l63.793,14.643-.038-38.969Z" transform="translate(-270.678 -660.262)" fill="#ba9b80"/>
              <ellipse id="Elipse_4462" data-name="Elipse 4462" cx="18.051" cy="32.913" rx="18.051" ry="32.913" transform="translate(0 34.517) rotate(-72.958)" fill="#ddc1a4"/>
              <path id="Trazado_167418" data-name="Trazado 167418" d="M335.877,696.208c-2.577,4.063-9.089,6.489-17.42,6.489-.452,0-.916-.007-1.376-.022a55.092,55.092,0,0,1-23.207-6.157c-6.926-3.6-12.169-8.356-14.383-13.057-1.553-3.3-1.544-6.222.027-8.7,2.577-4.063,20.654-13.081,29.755-11.528,10.494,1.791,24.417,19.573,26.633,24.275C337.458,690.8,337.448,693.731,335.877,696.208Z" transform="translate(-270.939 -658.58)" fill="#a3544a"/>
              <ellipse id="Elipse_4463" data-name="Elipse 4463" cx="18.051" cy="32.913" rx="18.051" ry="32.913" transform="translate(0 73.899) rotate(-72.958)" fill="#ba9b80"/>
              <ellipse id="Elipse_4464" data-name="Elipse 4464" cx="1.346" cy="1.047" rx="1.346" ry="1.047" transform="translate(39.925 17.518)" fill="#7f3633"/>
              <path id="Trazado_167419" data-name="Trazado 167419" d="M320.489,669.389a1.388,1.388,0,1,1-1.345-1.047A1.224,1.224,0,0,1,320.489,669.389Z" transform="translate(-274.627 -659.074)" fill="#7f3633"/>
              <path id="Trazado_167420" data-name="Trazado 167420" d="M306.794,673.678a.792.792,0,1,1-.768-.6A.7.7,0,0,1,306.794,673.678Z" transform="translate(-273.455 -659.517)" fill="#7f3633"/>
              <path id="Trazado_167421" data-name="Trazado 167421" d="M293.71,673.473a1.017,1.017,0,1,1-.986-.768A.9.9,0,0,1,293.71,673.473Z" transform="translate(-272.192 -659.482)" fill="#7f3633"/>
              <path id="Trazado_167422" data-name="Trazado 167422" d="M301.582,694.651a1.018,1.018,0,1,1-.987-.768A.9.9,0,0,1,301.582,694.651Z" transform="translate(-272.927 -661.461)" fill="#7f3633"/>
              <path id="Trazado_167423" data-name="Trazado 167423" d="M332.145,686.533c0,.579-.889,1.048-1.985,1.048s-1.986-.469-1.986-1.048.889-1.047,1.986-1.047S332.145,685.956,332.145,686.533Z" transform="translate(-275.597 -660.676)" fill="#7f3633"/>
              <path id="Trazado_167424" data-name="Trazado 167424" d="M302.406,685.555c.16.557-.566,1.252-1.62,1.555s-2.038.1-2.2-.459.566-1.252,1.62-1.554S302.246,685,302.406,685.555Z" transform="translate(-272.83 -660.627)" fill="#7f3633"/>
              <ellipse id="Elipse_4465" data-name="Elipse 4465" cx="0.749" cy="0.583" rx="0.749" ry="0.583" transform="translate(32.399 6.857)" fill="#7f3633"/>
              <path id="Trazado_167425" data-name="Trazado 167425" d="M321.654,690.215a1.128,1.128,0,1,1-.647-1.226A.995.995,0,0,1,321.654,690.215Z" transform="translate(-274.796 -660.992)" fill="#7f3633"/>
            </g>
            <g id="Grupo_73498" data-name="Grupo 73498" transform="translate(72.467 7.878)">
              <path id="Trazado_167426" data-name="Trazado 167426" d="M216.094,684.735v38.251l63.793,14.643-.038-38.969Z" transform="translate(-211.238 -659.053)" fill="#ba9b80"/>
              <ellipse id="Elipse_4466" data-name="Elipse 4466" cx="18.051" cy="32.913" rx="18.051" ry="32.913" transform="translate(0 39.407) rotate(-72.958)" fill="#ddc1a4"/>
              <path id="Trazado_167427" data-name="Trazado 167427" d="M276.438,698.923c-2.577,4.063-9.09,6.488-17.421,6.488-.452,0-.916-.006-1.376-.021a55.1,55.1,0,0,1-23.207-6.157c-6.926-3.6-12.169-8.356-14.383-13.057-1.553-3.3-1.543-6.223.027-8.7,2.577-4.063,21.293-22.534,30.395-20.98,10.493,1.79,23.778,29.025,25.993,33.726C278.018,693.519,278.009,696.446,276.438,698.923Z" transform="translate(-211.499 -656.405)" fill="#fff5a9"/>
              <ellipse id="Elipse_4467" data-name="Elipse 4467" cx="18.051" cy="32.913" rx="18.051" ry="32.913" transform="translate(0 78.789) rotate(-72.958)" fill="#ba9b80"/>
              <path id="Trazado_167428" data-name="Trazado 167428" d="M257.469,682.171a1.388,1.388,0,1,1-1.345-1.047A1.224,1.224,0,0,1,257.469,682.171Z" transform="translate(-214.853 -658.715)" fill="#ffd44d"/>
              <path id="Trazado_167429" data-name="Trazado 167429" d="M257.469,698.3a1.388,1.388,0,1,1-1.345-1.047A1.224,1.224,0,0,1,257.469,698.3Z" transform="translate(-214.853 -660.222)" fill="#ffb94a"/>
              <path id="Trazado_167430" data-name="Trazado 167430" d="M261.049,673.07a1.388,1.388,0,1,1-1.345-1.048A1.224,1.224,0,0,1,261.049,673.07Z" transform="translate(-215.188 -657.865)" fill="#fff"/>
              <path id="Trazado_167431" data-name="Trazado 167431" d="M247.354,677.358a.792.792,0,1,1-.768-.6A.7.7,0,0,1,247.354,677.358Z" transform="translate(-214.016 -658.307)" fill="#fff"/>
              <path id="Trazado_167432" data-name="Trazado 167432" d="M254.051,662.335a.792.792,0,1,1-.768-.6A.7.7,0,0,1,254.051,662.335Z" transform="translate(-214.642 -656.903)" fill="#ffb94a"/>
              <path id="Trazado_167433" data-name="Trazado 167433" d="M269.129,678.267a.792.792,0,1,1,.389-.892A.7.7,0,0,1,269.129,678.267Z" transform="translate(-216.12 -658.308)" fill="#ffb94a"/>
              <path id="Trazado_167434" data-name="Trazado 167434" d="M234.608,667.99c.165.286-.1.747-.588,1.03s-1.02.28-1.185-.006.1-.746.587-1.029S234.443,667.7,234.608,667.99Z" transform="translate(-212.798 -657.467)" fill="#fff"/>
              <path id="Trazado_167435" data-name="Trazado 167435" d="M234.271,677.153a1.018,1.018,0,1,1-.987-.768A.9.9,0,0,1,234.271,677.153Z" transform="translate(-212.752 -658.272)" fill="#ffd44d"/>
              <path id="Trazado_167436" data-name="Trazado 167436" d="M243.013,661.814a1.018,1.018,0,1,1-.986-.768A.9.9,0,0,1,243.013,661.814Z" transform="translate(-213.569 -656.839)" fill="#fff"/>
              <path id="Trazado_167437" data-name="Trazado 167437" d="M272.7,690.214c0,.578-.889,1.047-1.985,1.047s-1.985-.469-1.985-1.047.888-1.047,1.985-1.047S272.7,689.636,272.7,690.214Z" transform="translate(-216.157 -659.467)" fill="#ffd44d"/>
              <path id="Trazado_167438" data-name="Trazado 167438" d="M242.966,689.236c.16.556-.566,1.252-1.619,1.555s-2.038.1-2.2-.459.565-1.252,1.619-1.555S242.807,688.681,242.966,689.236Z" transform="translate(-213.391 -659.417)" fill="#ffd44d"/>
              <path id="Trazado_167439" data-name="Trazado 167439" d="M247.974,669.946a.773.773,0,1,1-.749-.582A.681.681,0,0,1,247.974,669.946Z" transform="translate(-214.077 -657.616)" fill="#ffd44d"/>
              <path id="Trazado_167440" data-name="Trazado 167440" d="M260.73,665.079a1.128,1.128,0,1,1-.647-1.225A.994.994,0,0,1,260.73,665.079Z" transform="translate(-215.217 -657.09)" fill="#ffd44d"/>
            </g>
            <g id="Grupo_73499" data-name="Grupo 73499" transform="translate(12.594 11.319)">
              <path id="Trazado_167441" data-name="Trazado 167441" d="M150.049,688.531v38.251l63.793,14.643-.038-38.969Z" transform="translate(-145.193 -662.849)" fill="#ddc1a4"/>
              <ellipse id="Elipse_4468" data-name="Elipse 4468" cx="18.051" cy="32.913" rx="18.051" ry="32.913" transform="translate(0 39.407) rotate(-72.958)" fill="#fcf8eb"/>
              <path id="Trazado_167442" data-name="Trazado 167442" d="M210.392,702.719c-2.577,4.063-9.09,6.488-17.421,6.488-.451,0-.915-.006-1.375-.021a55.094,55.094,0,0,1-23.207-6.157c-6.926-3.6-12.169-8.356-14.384-13.058-1.552-3.294-1.543-6.222.028-8.7,2.576-4.063,21.293-22.534,30.395-20.98,10.493,1.79,23.777,29.025,25.992,33.726C211.972,697.315,211.963,700.242,210.392,702.719Z" transform="translate(-145.454 -660.201)" fill="#3da894"/>
              <ellipse id="Elipse_4469" data-name="Elipse 4469" cx="18.051" cy="32.913" rx="18.051" ry="32.913" transform="translate(0 78.789) rotate(-72.958)" fill="#ddc1a4"/>
              <path id="Trazado_167443" data-name="Trazado 167443" d="M186.115,682.458a8.283,8.283,0,0,0,4.6,1.247c2.559-.131,3.019-.619,3.019-.619a5.114,5.114,0,0,1-4.463,2.588A3.221,3.221,0,0,1,186.115,682.458Z" transform="translate(-148.563 -662.281)" fill="#9ad4ba"/>
              <path id="Trazado_167444" data-name="Trazado 167444" d="M195.769,737.389c-.68-2.769-1.418-5.513-2.255-8.239a30.159,30.159,0,0,1-1.719-8.667,1.142,1.142,0,0,0-2.282,0c.028,5.451,2.327,10.749,3.667,15.971a35.025,35.025,0,0,1,1.462,8.534,32.515,32.515,0,0,1-1.446,8.79,1.142,1.142,0,0,0,2.2.607,37.542,37.542,0,0,0,1.5-8.345A30.6,30.6,0,0,0,195.769,737.389Z" transform="translate(-148.881 -665.732)" fill="#ba9b80"/>
              <path id="Trazado_167445" data-name="Trazado 167445" d="M175.6,676.231a9.5,9.5,0,0,0,4.726,1.428,7.261,7.261,0,0,1-3.15.837C175.648,678.446,175.6,676.231,175.6,676.231Z" transform="translate(-147.58 -661.699)" fill="#9ad4ba"/>
              <path id="Trazado_167446" data-name="Trazado 167446" d="M183.951,676.868a9.5,9.5,0,0,0,4.906-.549,7.251,7.251,0,0,1-2.566,2.01C184.868,678.885,183.951,676.868,183.951,676.868Z" transform="translate(-148.361 -661.707)" fill="#9ad4ba"/>
              <path id="Trazado_167447" data-name="Trazado 167447" d="M164.488,681.275a8.466,8.466,0,0,0,4.162,3.3s-2.378,1.209-3.655.373A2.357,2.357,0,0,1,164.488,681.275Z" transform="translate(-146.477 -662.17)" fill="#9ad4ba"/>
              <path id="Trazado_167448" data-name="Trazado 167448" d="M173.36,698.255a5.432,5.432,0,0,0,3.25,1.026s-1.148,1.269-2.1,1.06A1.511,1.511,0,0,1,173.36,698.255Z" transform="translate(-147.361 -663.757)" fill="#9ad4ba"/>
              <path id="Trazado_167449" data-name="Trazado 167449" d="M198.341,690.2a9.5,9.5,0,0,0,4.906-.548,7.251,7.251,0,0,1-2.566,2.01C199.258,692.218,198.341,690.2,198.341,690.2Z" transform="translate(-149.706 -662.953)" fill="#2d6b69"/>
              <path id="Trazado_167450" data-name="Trazado 167450" d="M197.054,674.912a5.662,5.662,0,0,0,3.246-1.721,4.183,4.183,0,0,1-.778,2.278C198.794,676.284,197.054,674.912,197.054,674.912Z" transform="translate(-149.585 -661.415)" fill="#2d6b69"/>
              <path id="Trazado_167451" data-name="Trazado 167451" d="M209.218,698.515a5.666,5.666,0,0,0,3.246-1.721,4.181,4.181,0,0,1-.778,2.277C210.958,699.888,209.218,698.515,209.218,698.515Z" transform="translate(-150.722 -663.621)" fill="#2d6b69"/>
              <path id="Trazado_167452" data-name="Trazado 167452" d="M195.246,693.5a9.5,9.5,0,0,0,4.906-.548,7.24,7.24,0,0,1-2.566,2.009C196.163,695.515,195.246,693.5,195.246,693.5Z" transform="translate(-149.416 -663.262)" fill="#2d6b69"/>
            </g>
            <g id="Grupo_73500" data-name="Grupo 73500" transform="translate(173.17 62.613)">
              <path id="Trazado_167453" data-name="Trazado 167453" d="M327.178,739.719V777.97l63.793,14.643-.038-38.969Z" transform="translate(-322.322 -718.926)" fill="#ddc1a4"/>
              <ellipse id="Elipse_4470" data-name="Elipse 4470" cx="18.051" cy="32.913" rx="18.051" ry="32.913" transform="translate(0 34.517) rotate(-72.958)" fill="#fcf8eb"/>
              <path id="Trazado_167454" data-name="Trazado 167454" d="M387.521,755.753c-2.577,4.063-9.089,6.489-17.42,6.489-.452,0-.916-.007-1.376-.022a55.093,55.093,0,0,1-23.207-6.157c-6.926-3.6-12.169-8.356-14.383-13.057-1.553-3.3-1.544-6.222.027-8.7,2.577-4.063,20.654-3.574,29.755-2.021,10.494,1.791,24.417,10.065,26.633,14.767C389.1,750.35,389.092,753.276,387.521,755.753Z" transform="translate(-322.583 -718.125)" fill="#9ad4ba"/>
              <ellipse id="Elipse_4471" data-name="Elipse 4471" cx="18.051" cy="32.913" rx="18.051" ry="32.913" transform="translate(0 73.899) rotate(-72.958)" fill="#ddc1a4"/>
              <ellipse id="Elipse_4472" data-name="Elipse 4472" cx="1.346" cy="1.047" rx="1.346" ry="1.047" transform="translate(39.925 17.518)" fill="#3da894"/>
              <path id="Trazado_167455" data-name="Trazado 167455" d="M374.508,754.133a1.388,1.388,0,1,1-1.346-1.047A1.225,1.225,0,0,1,374.508,754.133Z" transform="translate(-326.493 -720.175)" fill="#3da894"/>
              <path id="Trazado_167456" data-name="Trazado 167456" d="M357.591,737.2a.792.792,0,1,1-.768-.6A.7.7,0,0,1,357.591,737.2Z" transform="translate(-325.02 -718.635)" fill="#fff"/>
              <path id="Trazado_167457" data-name="Trazado 167457" d="M345.354,735.87a1.017,1.017,0,1,1-.986-.768A.9.9,0,0,1,345.354,735.87Z" transform="translate(-323.836 -718.495)" fill="#3da894"/>
              <path id="Trazado_167458" data-name="Trazado 167458" d="M353.226,753.315a1.018,1.018,0,1,1-.987-.768A.9.9,0,0,1,353.226,753.315Z" transform="translate(-324.571 -720.125)" fill="#fff"/>
              <path id="Trazado_167459" data-name="Trazado 167459" d="M383.789,745.2c0,.578-.889,1.047-1.985,1.047s-1.986-.469-1.986-1.047.889-1.048,1.986-1.048S383.789,744.619,383.789,745.2Z" transform="translate(-327.241 -719.34)" fill="#3da894"/>
              <path id="Trazado_167460" data-name="Trazado 167460" d="M354.05,744.219c.16.557-.566,1.252-1.62,1.555s-2.038.1-2.2-.459.566-1.251,1.62-1.554S353.89,743.664,354.05,744.219Z" transform="translate(-324.474 -719.291)" fill="#3da894"/>
              <path id="Trazado_167461" data-name="Trazado 167461" d="M362.106,743.523a.772.772,0,1,1-.749-.583A.682.682,0,0,1,362.106,743.523Z" transform="translate(-325.446 -719.227)" fill="#3da894"/>
              <path id="Trazado_167462" data-name="Trazado 167462" d="M373.3,748.879a1.128,1.128,0,1,1-.647-1.226A1,1,0,0,1,373.3,748.879Z" transform="translate(-326.44 -719.657)" fill="#fff"/>
            </g>
            <g id="Grupo_73501" data-name="Grupo 73501" transform="translate(117.249 61.969)">
              <path id="Trazado_167463" data-name="Trazado 167463" d="M265.493,739.008v38.251L329.285,791.9l-.038-38.969Z" transform="translate(-260.636 -718.215)" fill="#ddc1a4"/>
              <path id="Trazado_167464" data-name="Trazado 167464" d="M341.5,779.716a57.921,57.921,0,0,0-1.373-7.9c-.7-2.693-1.5-5.359-2.345-8.006a31.521,31.521,0,0,1-1.917-8.978.915.915,0,0,0-1.829,0c.111,5.613,2.574,11.032,4.039,16.388a56.778,56.778,0,0,1,1.6,8.494c.363,3.129-.3,6.192-.544,9.3-.091,1.174,1.739,1.168,1.828,0C341.195,785.908,341.861,782.845,341.5,779.716Z" transform="translate(-267.042 -719.612)" fill="#ba9b80"/>
              <ellipse id="Elipse_4473" data-name="Elipse 4473" cx="18.051" cy="32.913" rx="18.051" ry="32.913" transform="translate(0 34.517) rotate(-72.958)" fill="#fcf8eb"/>
              <path id="Trazado_167465" data-name="Trazado 167465" d="M325.836,754.161c-2.577,4.063-9.09,6.489-17.421,6.489-.452,0-.915-.007-1.376-.021a55.127,55.127,0,0,1-23.207-6.157c-6.925-3.6-12.168-8.357-14.383-13.058-1.552-3.3-1.543-6.222.028-8.7,2.576-4.063,20.653-13.081,29.755-11.529,10.493,1.791,24.417,19.574,26.632,24.275C327.416,748.758,327.407,751.684,325.836,754.161Z" transform="translate(-260.898 -716.534)" fill="#ffb94a"/>
              <path id="Trazado_167466" data-name="Trazado 167466" d="M306.7,806.9a57.9,57.9,0,0,1-26.847-7.849q-1-.593-1.946-1.217c-5.075-3.335-9.027-7.349-11.034-11.615-3.364-7.144-.451-13.219,6.689-16.421.624-.278,1.283-.536,1.971-.772a35.8,35.8,0,0,1,12.557-1.625c16.858.518,34.69,9.778,39.827,20.684S323.557,807.417,306.7,806.9Z" transform="translate(-260.635 -720.867)" fill="#ddc1a4"/>
              <path id="Trazado_167467" data-name="Trazado 167467" d="M306.868,736.443a1.388,1.388,0,1,1-1.345-1.047A1.225,1.225,0,0,1,306.868,736.443Z" transform="translate(-264.251 -717.878)" fill="#ffd44d"/>
              <path id="Trazado_167468" data-name="Trazado 167468" d="M310.448,727.342A1.388,1.388,0,1,1,309.1,726.3,1.226,1.226,0,0,1,310.448,727.342Z" transform="translate(-264.586 -717.027)" fill="#f3e990"/>
              <path id="Trazado_167469" data-name="Trazado 167469" d="M296.752,731.631a.792.792,0,1,1-.768-.6A.7.7,0,0,1,296.752,731.631Z" transform="translate(-263.414 -717.47)" fill="#f3e990"/>
              <ellipse id="Elipse_4474" data-name="Elipse 4474" cx="0.987" cy="0.768" rx="0.987" ry="0.768" transform="translate(19.545 13.223)" fill="#ffd44d"/>
              <path id="Trazado_167470" data-name="Trazado 167470" d="M291.54,752.6a1.017,1.017,0,1,1-.986-.768A.9.9,0,0,1,291.54,752.6Z" transform="translate(-262.886 -719.414)" fill="#f3e990"/>
              <path id="Trazado_167471" data-name="Trazado 167471" d="M322.1,744.487c0,.578-.888,1.047-1.985,1.047s-1.985-.469-1.985-1.047.889-1.047,1.985-1.047S322.1,743.909,322.1,744.487Z" transform="translate(-265.556 -718.63)" fill="#ffd44d"/>
              <path id="Trazado_167472" data-name="Trazado 167472" d="M292.364,743.509c.16.556-.566,1.252-1.619,1.555s-2.038.1-2.2-.459.566-1.252,1.619-1.555S292.2,742.954,292.364,743.509Z" transform="translate(-262.789 -718.58)" fill="#ffd44d"/>
              <ellipse id="Elipse_4475" data-name="Elipse 4475" cx="0.749" cy="0.583" rx="0.749" ry="0.583" transform="translate(32.399 6.857)" fill="#ffd44d"/>
              <path id="Trazado_167473" data-name="Trazado 167473" d="M311.613,748.168a1.129,1.129,0,1,1-.648-1.225A1,1,0,0,1,311.613,748.168Z" transform="translate(-264.754 -718.946)" fill="#f3e990"/>
            </g>
            <g id="Grupo_73502" data-name="Grupo 73502" transform="translate(59.296 60.652)">
              <path id="Trazado_167474" data-name="Trazado 167474" d="M265.358,795.843,201.564,781.2V742.951l2.091.458,61.665,13.466Z" transform="translate(-196.708 -717.267)" fill="#ddc1a4"/>
              <path id="Trazado_167475" data-name="Trazado 167475" d="M279.743,791.648a48.253,48.253,0,0,1-.554,5.709q-1-.593-1.946-1.217a42.367,42.367,0,0,0,.384-4.493,51.883,51.883,0,0,0-1.111-12.109A106.065,106.065,0,0,0,272.9,768.1c-.056-.172-.117-.345-.173-.518-1.315-4-2.546-8.018-3.575-12.1a1.06,1.06,0,0,1,2.042-.564c1.054,4.186,2.321,8.311,3.678,12.409.039.112.074.228.113.342,1.311,3.949,2.9,7.863,3.706,11.957A55.536,55.536,0,0,1,279.743,791.648Z" transform="translate(-203.021 -718.315)" fill="#ba9b80"/>
              <path id="Trazado_167476" data-name="Trazado 167476" d="M203.655,743.41a62.739,62.739,0,0,1-1.488,15.539c-.2.787-.406,1.569-.6,2.352V742.951Z" transform="translate(-196.708 -717.267)" fill="#ba9b80"/>
              <ellipse id="Elipse_4476" data-name="Elipse 4476" cx="18.051" cy="32.913" rx="18.051" ry="32.913" transform="translate(0 39.407) rotate(-72.958)" fill="#fcf8eb"/>
              <path id="Trazado_167477" data-name="Trazado 167477" d="M261.908,757.137c-2.577,4.063-9.09,6.488-17.421,6.488-.451,0-.915-.006-1.375-.021a55.1,55.1,0,0,1-23.208-6.157c-6.925-3.6-12.168-8.355-14.383-13.057-1.552-3.3-1.543-6.222.028-8.7,2.577-4.063,21.293-22.534,30.395-20.98,10.493,1.79,23.777,29.025,25.993,33.726C263.488,751.733,263.479,754.66,261.908,757.137Z" transform="translate(-196.97 -714.619)" fill="#e26949"/>
              <ellipse id="Elipse_4477" data-name="Elipse 4477" cx="18.051" cy="32.913" rx="18.051" ry="32.913" transform="translate(0 78.789) rotate(-72.958)" fill="#ddc1a4"/>
              <path id="Trazado_167478" data-name="Trazado 167478" d="M242.94,740.385a1.388,1.388,0,1,1-1.345-1.047A1.224,1.224,0,0,1,242.94,740.385Z" transform="translate(-200.324 -716.929)" fill="#a3544a"/>
              <ellipse id="Elipse_4478" data-name="Elipse 4478" cx="1.346" cy="1.047" rx="1.346" ry="1.047" transform="translate(43.17 14.158)" fill="#ffb94a"/>
              <path id="Trazado_167479" data-name="Trazado 167479" d="M232.825,735.572a.792.792,0,1,1-.768-.6A.7.7,0,0,1,232.825,735.572Z" transform="translate(-199.486 -716.521)" fill="#ffb94a"/>
              <path id="Trazado_167480" data-name="Trazado 167480" d="M219.741,735.368a1.018,1.018,0,1,1-.986-.769A.9.9,0,0,1,219.741,735.368Z" transform="translate(-198.223 -716.486)" fill="#a3544a"/>
              <path id="Trazado_167481" data-name="Trazado 167481" d="M228.484,719.4a1.018,1.018,0,1,1-.987-.768A.9.9,0,0,1,228.484,719.4Z" transform="translate(-199.04 -714.994)" fill="#a3544a"/>
              <path id="Trazado_167482" data-name="Trazado 167482" d="M258.176,748.428c0,.578-.889,1.047-1.986,1.047s-1.985-.469-1.985-1.047.889-1.047,1.985-1.047S258.176,747.85,258.176,748.428Z" transform="translate(-201.628 -717.681)" fill="#a3544a"/>
              <path id="Trazado_167483" data-name="Trazado 167483" d="M228.436,747.45c.16.556-.565,1.252-1.619,1.555s-2.038.1-2.2-.459.566-1.252,1.619-1.555S228.277,746.895,228.436,747.45Z" transform="translate(-198.861 -717.631)" fill="#a3544a"/>
              <path id="Trazado_167484" data-name="Trazado 167484" d="M233.445,728.161a.772.772,0,1,1-.749-.583A.681.681,0,0,1,233.445,728.161Z" transform="translate(-199.548 -715.83)" fill="#a3544a"/>
              <path id="Trazado_167485" data-name="Trazado 167485" d="M246.2,723.293a1.128,1.128,0,1,1-.648-1.225A1,1,0,0,1,246.2,723.293Z" transform="translate(-200.688 -715.304)" fill="#a3544a"/>
            </g>
          </g>
        </g>
      </g>
      <path id="Trazado_167487" data-name="Trazado 167487" d="M377.839,522.753c73.644,0,74.825-16.146,74.825-16.146S371.013,500.7,293.3,462.5L115.16,456.2s80.34,42.139,152.8,53.953c0,0,30.3,18.9,90.447,20.872C364.765,531.232,370.8,522.753,377.839,522.753Z" transform="translate(-115.16 -527.198)" fill="#a0a603"/>
      <path id="Trazado_167488" data-name="Trazado 167488" d="M227.492,781.9h-5.62L270.166,521.3h5.62Z" transform="translate(-125.133 -484.245)" fill="#e07d4b"/>
      <path id="Trazado_167489" data-name="Trazado 167489" d="M408.031,785.288h-5.906L450.419,521.3h5.906Z" transform="translate(-141.978 -487.638)" fill="#e26949"/>
      <path id="Trazado_167490" data-name="Trazado 167490" d="M377.839,522.753c-9.58,0-12.294,6.542-20.61,6.17-3.934-.175-13.959-7.14-17.611-7.38-47.978-3.156-71.655-11.392-71.655-11.392C195.5,498.337,115.16,456.2,115.16,456.2v51.639S167.321,543.87,263.9,561.886c0,0,25.991,6.2,103.668,6.2,67.339,0,92.578-11.073,92.578-11.073l-7.483-50.409S451.483,522.753,377.839,522.753Z" transform="translate(-115.16 -527.198)" fill="#a5a930"/>
      <path id="Trazado_167491" data-name="Trazado 167491" d="M475.828,562.212,468.345,511.8s-1.181,16.147-74.826,16.147c-9.58,0-10.981,1.947-19.3,1.576-3.934-.175-15.272-2.546-18.923-2.786-47.978-3.156-71.655-11.392-71.655-11.392l-.632-.105c-.155,12.494-.2,39.441,1.988,52.833,11.062,1.751,40.243,5.21,98.25,5.21C450.589,573.285,475.828,562.212,475.828,562.212Z" transform="translate(-130.84 -532.395)" fill="#878c06"/>
      <path id="Trazado_167492" data-name="Trazado 167492" d="M285.211,572.814s8.1,11.86,19.319,9.891,16.09-6.376,16.09-6.376,10.3,10.314,24.276,8.542,16.606-7.023,16.606-7.023,10.173,8.753,21.988,7.2,14.768-7.022,14.768-7.022,10.239,10.521,23.629,7.207,15.36-10.206,15.36-10.206,8.073,8.27,15.555,6.3,9.3-10.307,9.3-10.307,6.451,7.11,10.192,7.429,3.741-11.5,3.741-11.5-45.486.393-77.977,0S298.777,554.062,285.211,572.814Z" transform="translate(-131.052 -537.133)" fill="#6f7302"/>
      <path id="Trazado_167493" data-name="Trazado 167493" d="M115.16,513.16a25.578,25.578,0,0,0,7.089,10.585c5.119,4.332,14.168,1.593,14.168,1.593s-.779,12.191,6.9,16.129,15.254-5.726,15.254-5.726-.682,11.633,11.33,14.783,17.525-3.546,17.525-3.546,4.135,13.589,16.933,15.953,17.334-5.339,17.334-5.339,2.16,13.5,12.4,15.82,12.644-9.686,12.644-9.686,5.275,10.428,11.182,11.806,11.4-7.33,11.4-7.33-18.487-8.226-28.53-11.967-69.116-26.779-81.127-28.945S115.16,513.16,115.16,513.16Z" transform="translate(-115.16 -532.521)" fill="#6f7302"/>
    </g>
    <g id="Grupo_73521" data-name="Grupo 73521" transform="translate(200.915 90.882)">
      <g id="Grupo_73520" data-name="Grupo 73520" transform="translate(0)">
        <g id="Grupo_73508" data-name="Grupo 73508" transform="translate(113.283 31.312)">
          <g id="Grupo_73507" data-name="Grupo 73507">
            <path id="Trazado_167494" data-name="Trazado 167494" d="M498.361,525.9s.286,13.011,26.319,35.158c7.572,6.441,26.6,16.61,36.61-1.562,5.687-10.33,15.531-23.846,18.068-33.331.781-2.918-4.989-5.434-5.748-6.422-4.626-6.028-30.615,27.9-30.615,27.9s-27.9-33.087-38.355-33.121S498.361,525.9,498.361,525.9Z" transform="translate(-497.535 -514.515)" fill="#ffb94a"/>
          </g>
        </g>
        <path id="Trazado_167495" data-name="Trazado 167495" d="M606.756,523.949a5.931,5.931,0,0,1,2.256-.43,30.158,30.158,0,0,0,4.628.347,45.2,45.2,0,0,0,5.66-.839c1.464-.327,2.662-.054,2.619-.9s-4.566-.682-4.566-.682,6.123-1.166,6.706-1.61a.73.73,0,0,0-.241-1.266s1.691-.011,1.518-1.171-1.477-.745-1.477-.745.268-.719-.009-1.047-3.867-.266-4.589-.176-6.937.653-6.937.653,1.073-.634,1.512-.956,2.607-.592,2.776-1.96-1.011-1.048-2.235-.338-4.292.888-6,1.952-3.234,3.311-4.3,3.848S604.467,523.455,606.756,523.949Z" transform="translate(-415.606 -482.523)" fill="#f3b58b"/>
        <g id="Grupo_73509" data-name="Grupo 73509" transform="translate(158.172 63.864)">
          <path id="Trazado_167496" data-name="Trazado 167496" d="M567.736,573.7a.57.57,0,0,1-.568-.516c-.013-.085-.139-.72-1.173-4.04-1.145-3.677-4.579-7.447-4.613-7.485a.57.57,0,0,1,.612-.922c.164.059,4.047,1.462,5.917,3.578a.57.57,0,0,1-.854.755,11.512,11.512,0,0,0-3.312-2.324,21.421,21.421,0,0,1,3.339,6.058,44.917,44.917,0,0,1,1.222,4.325A.57.57,0,0,1,567.736,573.7Z" transform="translate(-561.232 -560.705)" fill="#e26949"/>
        </g>
        <g id="Grupo_73510" data-name="Grupo 73510" transform="translate(122.072 252.48)">
          <path id="Trazado_167497" data-name="Trazado 167497" d="M524.616,842.678s8.477.733,9.056,2.371-.076,6.3-2,7.232c-3.353,1.619-9.68-.715-12.54-1.924a2.524,2.524,0,0,1-1.419-1.363c-.7-1.463-1.066.125-3.1-.169s-4.061-1.08-4.443-2.472c-.783-2.846,1.335-5.892,3.326-5.9S524.616,842.678,524.616,842.678Z" transform="translate(-510.006 -831.925)" fill="#4e4059"/>
          <path id="Trazado_167498" data-name="Trazado 167498" d="M520.275,836.305s8.144,2.933,10.672,3.461c3.71.774.849,2.324.745,4.1-.083,1.4.837,2.037-.638,3.163-.838.64-1.961-.174-3.407-.432-4.565-.814-5.845-2.751-8.627-3.622-4.988-1.561-8.432-1.53-6.923-5.012.727-1.679,1.54-9.6,3.341-9.615C517.372,828.338,520.275,836.305,520.275,836.305Z" transform="translate(-510.518 -828.351)" fill="#f3b58b"/>
          <path id="Trazado_167499" data-name="Trazado 167499" d="M534.974,843.959s-4.868,3.343-5.344,6.665c0,0-3.729-.7-4.25-1.287,0,0,4.749-6.36,5.808-6.72S534.791,843.487,534.974,843.959Z" transform="translate(-514.546 -832.544)" fill="#4e4059"/>
          <path id="Trazado_167500" data-name="Trazado 167500" d="M512.366,839.307a68.574,68.574,0,0,0,7.538-1.392,2.923,2.923,0,0,1,.865,1.377s-3.03,2.6-8.547,1.5A2.436,2.436,0,0,1,512.366,839.307Z" transform="translate(-510.645 -831.175)" fill="#4e4059"/>
        </g>
        <g id="Grupo_73511" data-name="Grupo 73511" transform="translate(56.081 259.22)">
          <path id="Trazado_167501" data-name="Trazado 167501" d="M425.624,842.678s-8.477.733-9.056,2.371.075,6.3,2,7.232c3.353,1.619,9.679-.715,12.54-1.924a2.528,2.528,0,0,0,1.419-1.363c.7-1.463,1.066.125,3.1-.169s4.061-1.08,4.444-2.472c.782-2.846-1.335-5.892-3.327-5.9S425.624,842.678,425.624,842.678Z" transform="translate(-416.365 -838.665)" fill="#4e4059"/>
          <path id="Trazado_167502" data-name="Trazado 167502" d="M431.124,839.439s-8.145,2.933-10.672,3.461c-3.71.774-.85,2.324-.745,4.1.082,1.4-.837,2.037.637,3.163.839.64,1.962-.174,3.407-.432,4.565-.814,5.846-2.751,8.627-3.622,4.988-1.561,8.432-1.53,6.923-5.012S431.124,839.439,431.124,839.439Z" transform="translate(-417.012 -838.224)" fill="#f3b58b"/>
          <path id="Trazado_167503" data-name="Trazado 167503" d="M421.247,843.959s4.867,3.343,5.343,6.665c0,0,3.73-.7,4.25-1.287,0,0-4.749-6.36-5.808-6.72S421.43,843.487,421.247,843.959Z" transform="translate(-417.806 -839.284)" fill="#4e4059"/>
          <path id="Trazado_167504" data-name="Trazado 167504" d="M444.271,839.307s-5.255-.171-7.538-1.392a2.927,2.927,0,0,0-.865,1.377s3.03,2.6,8.548,1.5A2.437,2.437,0,0,0,444.271,839.307Z" transform="translate(-422.124 -837.915)" fill="#4e4059"/>
        </g>
        <path id="Trazado_167505" data-name="Trazado 167505" d="M531.826,567.122c-2.032-8.835-9.182-31.955-9.182-31.955s-.424,12.7-.786,22.707C524.669,560.747,527.962,563.832,531.826,567.122Z" transform="translate(-391.434 -489.301)" fill="#e26949"/>
        <path id="Trazado_167507" data-name="Trazado 167507" d="M503.057,772.031a32.948,32.948,0,0,1-8.142,2.064,52.354,52.354,0,0,1-11.792.248l-5.21-102.684-1.151-22.7c-.235.631-.668,2.233-1.257,4.617-.066.269-.135.547-.2.834-1.07,4.383-2.583,11-4.353,18.92-8.113,36.324-21.56,99.934-21.56,99.934a25.555,25.555,0,0,1-9.906.677c-2.18-.367-8.369-2.965-8.369-2.965l4.486-55.483,4.065-40.2.253-2.495s.333-12.573.935-17.318c.007-.053.013-.1.02-.151.365-2.732,2.011-11.855,2.011-11.855l.157-1.544,1.755-17.364,1.865-8.85s42.317,2.595,43.9,4.729a.8.8,0,0,1,.087.173c5.023-.47,9.34-.6,9.958.237.212.288.483,10.9.764,26.394.105,5.6.207,11.83.312,18.443C502.378,710.262,503.057,772.031,503.057,772.031Z" transform="translate(-364.64 -513.084)" fill="#4e4059"/>
        <path id="Trazado_167508" data-name="Trazado 167508" d="M505.263,675.2c-5.08.4-14.285,5.172-23.767,5.97l-1.151-22.7c-.235.631-.668,2.233-1.257,4.617l-.02-.326a4.45,4.45,0,0,0-.183,1.161c-1.07,4.383-2.584,11-4.353,18.92-7.949,1.1-18.1,1.523-18.1,1.523l-1.858-8.22-4.166,8.941-7.156-.283.253-2.495s.333-12.573.935-17.318c.007-.053.013-.1.02-.151.365-2.732,2.011-11.855,2.011-11.855l.157-1.544c2.855-.406,5.86-.827,6.307-.859.882-.064,48.923-2.646,48.923-2.646l2.866,5.856c.085.99.162,1.977.228,2.969C505.336,662.387,505.445,668.136,505.263,675.2Z" transform="translate(-368.222 -522.599)" fill="#2d3035"/>
        <path id="Trazado_167509" data-name="Trazado 167509" d="M470.024,508.918s-14.3.8-21.886,8.543c-9.686,9.876-.822,26.454-.106,45.586.519,13.84-9.846,67.415-9.35,69.853.273,1.339,4.166,2.061,10,2.379,1.186.065,4.466-19.724,5.8-19.691,1.44.035.943,19.891,2.519,19.894,20.9.041,52.21-2.584,52.21-2.584s-6.987-76.925-7.876-84.193c-2.181-17.838-2.415-22.423-7.427-30.577C490.3,512.272,484.531,507.856,470.024,508.918Z" transform="translate(-366.869 -481.503)" fill="#ffb94a"/>
        <path id="Trazado_167510" data-name="Trazado 167510" d="M473.179,509.407a2.817,2.817,0,0,0-2.217,1.744,1.64,1.64,0,0,0,1.292,2.368c.206.033,3.172.4,4.722.5a.908.908,0,0,1,.808.627,94.529,94.529,0,0,1,2.76,9.677c.206,1.951.521,5.6.521,5.6l2.364-.472-2.583-16.56a5.364,5.364,0,0,0,1.354-1.355c.667-1.163.13-2.906-2.207-2.672C478.312,509.036,475.671,508.625,473.179,509.407Z" transform="translate(-376.362 -481.529)" fill="#fff"/>
        <path id="Trazado_167516" data-name="Trazado 167516" d="M457.809,545.211,448.7,556.458a117.746,117.746,0,0,1,2.3,17.351c.016.429.022.9.018,1.4C457.065,569.967,457.809,545.211,457.809,545.211Z" transform="translate(-369.831 -492.266)" fill="#e26949"/>
        <g id="Grupo_74306" data-name="Grupo 74306" transform="translate(-10.687 -21.944)">
          <path id="Trazado_167506" data-name="Trazado 167506" d="M473.907,505.065s-4.639-4.655-6.069-6.191-7.678-7.959-4.511-14.792,10.416-9.956,17.542-9.746,9.139,2.654,9.139,2.654-11.6,4.262-13.931,6.3S473.355,503.7,473.907,505.065Z" transform="translate(-373.89 -469.078)" fill="#4e4059"/>
          <path id="Trazado_167511" data-name="Trazado 167511" d="M470.971,497.153a50.517,50.517,0,0,1,2.17,10.355,78.238,78.238,0,0,1-.183,9.181c0,1.063,5.9.48,10.245,1.09,2.154.3,4.129,10.791,4.541,10.7.59-.135-1.266-11.014-1.141-11.415.189-.6,1.07-1.252,1.21-1.4,1.5-1.578-3.475-14.252-3.475-14.252Z" transform="translate(-371.868 -463.667)" fill="#ffbe91"/>
          <path id="Trazado_167512" data-name="Trazado 167512" d="M476.981,479.385a10.308,10.308,0,0,0-7.423,10.543c.442,7.162,1.875,13.722,3.379,15.594,3.19,3.971,15.233,5.081,19.83,2.593,2.761-1.494,2.815-4.566,2.274-9.351a65.108,65.108,0,0,0-1.538-7.051c-.557-3.359-1.22-14.722-7.668-14.045A53.443,53.443,0,0,0,476.981,479.385Z" transform="translate(-372.207 -468.292)" fill="#ffbe91"/>
          <path id="Trazado_167513" data-name="Trazado 167513" d="M491.1,481.12s-5.4,1.987-12.28,4.6c-3.754,1.426-7.479,4.724-4.706,8.55,1.5,2.072-2.2,5.088-3.283,3.144s-3.042-6.027-2.5-9.944.875-6.5,6.251-9.168,11.785-3.06,13.232-2.333C488.815,476.473,491.047,479.787,491.1,481.12Z" transform="translate(-372.515 -468.763)" fill="#4e4059"/>
          <path id="Trazado_167514" data-name="Trazado 167514" d="M471.887,492.287a3.835,3.835,0,0,0-2.548-1.4c-1.086-.108-2.337.241-2.693,2.243-.664,3.738,6.019,7.85,7.141,4.91C474.573,495.976,472.937,493.554,471.887,492.287Z" transform="translate(-372.905 -465.157)" fill="#ffbe91"/>
          <path id="Trazado_167515" data-name="Trazado 167515" d="M483.486,495.2s3.615-.395,6.081-.483a2.266,2.266,0,0,1-2.13,2.546C485.193,497.455,483.486,495.2,483.486,495.2Z" transform="translate(-368.902 -464.244)" fill="#fff"/>
          <g id="Grupo_73512" data-name="Grupo 73512" transform="translate(108.213 24.08)">
            <path id="Trazado_167517" data-name="Trazado 167517" d="M478.737,491.642a.4.4,0,0,1-.221-.735,9.326,9.326,0,0,1,3.071-1.341c1.444-.157,1.809.787,1.823.826a.4.4,0,1,1-.751.278c-.013-.03-.2-.394-.985-.308a8.374,8.374,0,0,0-2.719,1.214A.4.4,0,0,1,478.737,491.642Z" transform="translate(-478.336 -489.549)" fill="#4e4059"/>
          </g>
          <g id="Grupo_73513" data-name="Grupo 73513" transform="translate(118.048 22.802)">
            <path id="Trazado_167518" data-name="Trazado 167518" d="M486.687,489.946a.4.4,0,0,1-.291-.674,2.04,2.04,0,0,1,2.689-.393.4.4,0,1,1-.477.642c-.784-.583-1.594.264-1.629.3A.4.4,0,0,1,486.687,489.946Z" transform="translate(-486.287 -488.516)" fill="#4e4059"/>
          </g>
          <g id="Grupo_73515" data-name="Grupo 73515" transform="translate(104.016 39.216)">
            <g id="Grupo_73514" data-name="Grupo 73514" transform="translate(0)">
              <path id="Trazado_167519" data-name="Trazado 167519" d="M484.055,504.113h-.024a43.8,43.8,0,0,1-8.8-1.543.4.4,0,1,1,.217-.771,42.889,42.889,0,0,0,8.627,1.514.4.4,0,0,1-.024.8Z" transform="translate(-474.943 -501.785)" fill="#d68472"/>
            </g>
          </g>
          <g id="Grupo_73516" data-name="Grupo 73516" transform="translate(95.046 26.863)">
            <path id="Trazado_167520" data-name="Trazado 167520" d="M471.96,497.664a.383.383,0,0,1-.064,0,.4.4,0,0,1-.332-.459c.027-.179.068-.882-.25-1.017a1.461,1.461,0,0,0-.815.093,1.452,1.452,0,0,1-1.415-.089,4.466,4.466,0,0,1-1.383-2.631,1.712,1.712,0,0,1,.868-1.716.4.4,0,0,1,.357.717.909.909,0,0,0-.428.927,3.687,3.687,0,0,0,1.115,2.1c.092.081.412-.01.669-.082a2,2,0,0,1,1.346-.058c.76.323.814,1.333.726,1.88A.4.4,0,0,1,471.96,497.664Z" transform="translate(-467.692 -491.799)" fill="#d68472"/>
          </g>
          <g id="Grupo_73517" data-name="Grupo 73517" transform="translate(106.757 19.866)">
            <path id="Trazado_167521" data-name="Trazado 167521" d="M477.56,488.777a.4.4,0,0,1-.25-.713c.1-.08,2.5-1.952,4.812-1.921a.4.4,0,1,1-.016.8h-.068a8.384,8.384,0,0,0-4.229,1.746A.4.4,0,0,1,477.56,488.777Z" transform="translate(-477.159 -486.143)" fill="#4e4059"/>
          </g>
          <g id="Grupo_73518" data-name="Grupo 73518" transform="translate(117.205 19.005)">
            <path id="Trazado_167522" data-name="Trazado 167522" d="M489.071,486.5a.391.391,0,0,1-.117-.017,4.1,4.1,0,0,0-2.775-.022.4.4,0,0,1-.353-.719,4.78,4.78,0,0,1,3.363-.024.4.4,0,0,1-.119.782Z" transform="translate(-485.605 -485.447)" fill="#4e4059"/>
          </g>
          <path id="Trazado_167523" data-name="Trazado 167523" d="M464.985,484.674s-.448-14.66,14.258-14.59c11.441.054,15.833,10.2,12.739,12.356-4.3,3.008-9.755,3.559-16.469,3.062S462.829,488.3,464.985,484.674Z" transform="translate(-373.393 -470.083)" fill="#4e4059"/>
          <path id="Trazado_167524" data-name="Trazado 167524" d="M483.393,496.953c-.61.2-1.066-.626-.647-1.155a6.826,6.826,0,0,1,4.394-2.791,10.393,10.393,0,0,1,6.279,1.575c.376.416-2.819.913-4.624,1a23.025,23.025,0,0,0-5.377,1.367Z" transform="translate(-369.116 -464.656)" fill="#4e4059"/>
          <path id="Trazado_167525" data-name="Trazado 167525" d="M484.1,490.06a.291.291,0,0,1,.492-.2,9.378,9.378,0,0,0,2.849,1.816c2.051.847,2.134,2.141-.369,2.323s-2.74.027-2.936-1.243A17.418,17.418,0,0,1,484.1,490.06Z" transform="translate(-368.764 -465.414)" fill="#ea907e"/>
        </g>
        <path id="Trazado_167526" data-name="Trazado 167526" d="M422.662,522.476l-28.24,40.684s-42.677,21.07-38.845,32.864,16.665,3.616,19.443,2.425,25.434-12.486,33.72-20.88,26.839-25.054,26.839-40.417C435.579,528.127,422.662,522.476,422.662,522.476Z" transform="translate(-342.263 -485.553)" fill="#ffb94a"/>
        <path id="Trazado_167527" data-name="Trazado 167527" d="M354.144,625.3a5.942,5.942,0,0,0-1.663,1.583,33.88,33.88,0,0,1-7,8.471c-1.118,1-1.594,2.131-2.261,1.6s2.108-4.108,2.108-4.108-4.516,4.3-5.217,4.511-1-.505-.889-.934c0,0-1,1.368-1.836.551s.256-1.634.256-1.634-.741-.2-.846-.618,2.038-3.3,2.532-3.832,4.572-5.256,4.572-5.256-1.14.5-1.658.672-2,1.773-3.21,1.114-.263-1.432,1.028-2.013,3.223-2.97,5.082-3.735,4.575-.7,5.633-1.252S355.076,623.148,354.144,625.3Z" transform="translate(-336.787 -514.454)" fill="#f3b58b"/>
        <g id="Grupo_73519" data-name="Grupo 73519" transform="translate(84.953 67.373)">
          <path id="Trazado_167528" data-name="Trazado 167528" d="M460.014,633.116h-.03a.57.57,0,0,1-.54-.6c.077-1.49.178-3.23.285-5.07.373-6.4.836-14.364.643-18.337-.22-4.515-.18-6.454-.092-10.705.025-1.231.055-2.658.083-4.4.124-7.6-2.99-27.464-3.022-27.663a.57.57,0,0,1,1.126-.178c.129.82,3.161,20.158,3.036,27.859-.028,1.743-.058,3.171-.083,4.4-.087,4.224-.128,6.152.09,10.627.2,4.034-.27,12.032-.644,18.458-.107,1.839-.208,3.576-.285,5.063A.57.57,0,0,1,460.014,633.116Z" transform="translate(-457.335 -565.684)" fill="#e26949"/>
        </g>
      </g>
      <path id="Trazado_167529" data-name="Trazado 167529" d="M410.75,577.989c-.934.352-.82,1.336-.758,2.173a10.709,10.709,0,0,1-.14,2.215,6.008,6.008,0,0,1-.381,2.438c-.4.619.589,1.191.985.575.629-.977.457-2.352.6-3.466.016-.127.046-2.854,0-2.836C411.734,578.832,411.439,577.729,410.75,577.989Z" transform="translate(-358.221 -501.934)" fill="#e26949"/>
    </g>
  </g>
</svg>
