<svg xmlns="http://www.w3.org/2000/svg" width="243.94" height="167.819" viewBox="0 0 243.94 167.819">
  <g id="Grupo_73244" data-name="Grupo 73244" transform="translate(-324.694 -153.055)">
    <path id="Trazado_166626" data-name="Trazado 166626" d="M698.359,470.274s-14.526-25.081-34.5-27.439c0,0-8.687,45.9,27.691,58.727S698.359,470.274,698.359,470.274Z" transform="translate(-289.959 -255.685)" fill="#ffbd52"/>
    <g id="Grupo_73195" data-name="Grupo 73195" transform="translate(377.99 191.863)">
      <path id="Trazado_166627" data-name="Trazado 166627" d="M727.568,513.789a.212.212,0,0,1-.106-.029c-4.392-2.55-10.192-9.187-17.239-19.726-5.241-7.838-9.247-15.022-9.286-15.093a.211.211,0,1,1,.369-.205c.159.286,16.016,28.649,26.368,34.659a.211.211,0,0,1-.106.394Z" transform="translate(-700.91 -478.627)" fill="#fff"/>
    </g>
    <path id="Trazado_166628" data-name="Trazado 166628" d="M553.365,606.866s-20.43-20.558-40.346-17.756c0,0,3.28,46.6,41.725,49.747S553.365,606.866,553.365,606.866Z" transform="translate(-159.768 -382.473)" fill="#81a1ff"/>
    <path id="Trazado_166629" data-name="Trazado 166629" d="M1467.5,436.588s25.685-30.359,38.239-28.977c0,0,9.052,54.842-29.443,60.24S1467.5,436.588,1467.5,436.588Z" transform="translate(-979.081 -225.059)" fill="#7c7caf"/>
    <path id="Trazado_166630" data-name="Trazado 166630" d="M1508.833,600.547s34.975-18.924,46.165-13.066c0,0-11.536,54.374-49.354,45.386S1508.833,600.547,1508.833,600.547Z" transform="translate(-1007.788 -380.309)" fill="#99f"/>
    <g id="Grupo_73196" data-name="Grupo 73196" transform="translate(356.82 209.529)">
      <path id="Trazado_166631" data-name="Trazado 166631" d="M587.734,651.014a.212.212,0,0,1-.06-.009c-5.286-1.554-14.886-8.395-28.534-20.334-10.154-8.882-18.871-17.419-18.958-17.5a.211.211,0,1,1,.3-.3c.347.34,34.836,34.066,47.315,37.734a.211.211,0,0,1-.06.414Z" transform="translate(-540.12 -612.805)" fill="#fff"/>
    </g>
    <g id="Grupo_73197" data-name="Grupo 73197" transform="translate(527.554 211.891)">
      <path id="Trazado_166632" data-name="Trazado 166632" d="M1837.064,644.217l-.031,0a.212.212,0,0,1-.179-.24l1.918-13.051a.211.211,0,0,1,.418.061l-1.918,13.051A.211.211,0,0,1,1837.064,644.217Z" transform="translate(-1836.853 -630.744)" fill="#fff"/>
    </g>
    <g id="Grupo_73198" data-name="Grupo 73198" transform="translate(497.163 209.505)">
      <path id="Trazado_166633" data-name="Trazado 166633" d="M1606.245,650.934a.211.211,0,0,1-.079-.407c8.591-3.46,20.262-13.56,28.54-21.425,8.978-8.529,16.008-16.336,16.078-16.414a.211.211,0,0,1,.315.282c-.07.078-7.112,7.9-16.1,16.438-8.3,7.89-20.021,18.026-28.673,21.51A.21.21,0,0,1,1606.245,650.934Z" transform="translate(-1606.034 -612.618)" fill="#fff"/>
    </g>
    <g id="Grupo_73199" data-name="Grupo 73199" transform="translate(518.173 176.902)">
      <path id="Trazado_166634" data-name="Trazado 166634" d="M1808.059,397.251c-6,0-24.012-2.373-34.969-3.9l-4.092,2.9.355-3.436a3.819,3.819,0,0,1-2.983-3.229,77.817,77.817,0,0,1-.73-12.4c.218-5.464,1.432-8.581,3.611-9.264,3.164-.992,12.2-2.345,20.612-2.778,7.557-.389,17.13-.209,19.823,2.859,3.892,4.435,4.787,19.591,2.434,26.132-.662,1.84-1.535,2.86-2.6,3.031A9.913,9.913,0,0,1,1808.059,397.251Zm-35.109-4.471.108.015c9.7,1.352,32.674,4.431,36.378,3.834.837-.135,1.587-1.06,2.168-2.676,1.093-3.037,1.51-8.238,1.089-13.572-.44-5.584-1.719-10.075-3.42-12.013-1.988-2.265-8.871-3.215-19.383-2.673-8.369.431-17.344,1.772-20.476,2.754-1.907.6-3.023,3.628-3.227,8.763a77.261,77.261,0,0,0,.726,12.306,3.269,3.269,0,0,0,2.774,2.8l.261.037-.024.263-.257,2.488Z" transform="translate(-1765.603 -364.998)" fill="#ed853e"/>
    </g>
    <g id="Grupo_73200" data-name="Grupo 73200" transform="translate(496.161 185.424)">
      <path id="Trazado_166635" data-name="Trazado 166635" d="M1598.635,473.177a.212.212,0,0,1-.194-.295c3.143-7.313,28.089-42.709,28.341-43.065a.211.211,0,1,1,.345.244c-.251.356-25.172,35.716-28.3,42.989A.211.211,0,0,1,1598.635,473.177Z" transform="translate(-1598.424 -429.727)" fill="#fff"/>
    </g>
    <path id="Trazado_166636" data-name="Trazado 166636" d="M1823.692,342.935c-4.805-5.476-34.087-1.9-40.147,0-4.753,1.49-3.467,15.424-2.691,21.365a3.532,3.532,0,0,0,3.007,3.039h0l-.319,3.088,3.688-2.614c10.8,1.505,32.776,4.427,36.459,3.834C1828.609,370.855,1828.5,348.412,1823.692,342.935Z" transform="translate(-1260.01 -166.409)" fill="#ffc655"/>
    <rect id="Rectángulo_21153" data-name="Rectángulo 21153" width="112.124" height="139.765" transform="translate(395.419 158.656)" fill="#a1c5ff"/>
    <g id="Grupo_73203" data-name="Grupo 73203" transform="translate(412.838 189.366)">
      <g id="Grupo_73201" data-name="Grupo 73201" transform="translate(0)">
        <path id="Trazado_166637" data-name="Trazado 166637" d="M1041.552,512.982a1.134,1.134,0,0,1-.867-.4l-14.7-17.341-14.787,3.318a1.135,1.135,0,0,1-1.217-.515l-11.732-19.135-12.428,3.158a1.136,1.136,0,0,1-1.11-.326l-18.828-20.162a1.136,1.136,0,1,1,1.66-1.55l18.37,19.671,12.587-3.2a1.136,1.136,0,0,1,1.248.507l11.745,19.156,14.665-3.29a1.136,1.136,0,0,1,1.115.374l15.14,17.866a1.136,1.136,0,0,1-.866,1.87Z" transform="translate(-965.581 -459.666)" fill="#fff"/>
      </g>
      <g id="Grupo_73202" data-name="Grupo 73202" transform="translate(68.745 45.581)">
        <path id="Trazado_166638" data-name="Trazado 166638" d="M1487.7,815.664l14.285,5.119-2.707-14.931Z" transform="translate(-1487.704 -805.853)" fill="#fff"/>
      </g>
    </g>
    <path id="Trazado_166639" data-name="Trazado 166639" d="M1884,1311.769l3.245,6.979,7.557-.6-.146-6.9-3.38.3Z" transform="translate(-1350.241 -1009.758)" fill="#ffb18c"/>
    <path id="Trazado_166640" data-name="Trazado 166640" d="M1836.1,1375.786l-22.115-.282a10.376,10.376,0,0,1-.143-2.508c.11-1.508.66-3.194,2.506-3.5,3.463-.568,9.6-2.3,9.956-5.217l7.557-.6a29.214,29.214,0,0,1,2.441,8.72A10.889,10.889,0,0,1,1836.1,1375.786Z" transform="translate(-1289.302 -1055.294)" fill="#6761d1"/>
    <path id="Trazado_166641" data-name="Trazado 166641" d="M1836.1,1433.3l-22.115-.282a10.375,10.375,0,0,1-.143-2.508l22.459-.587A10.888,10.888,0,0,1,1836.1,1433.3Z" transform="translate(-1289.302 -1112.807)" fill="#ffc155"/>
    <circle id="Elipse_4391" data-name="Elipse 4391" cx="1.874" cy="1.874" r="1.874" transform="matrix(0.726, -0.688, 0.688, 0.726, 538.399, 312.983)" fill="#fff"/>
    <g id="Grupo_73204" data-name="Grupo 73204" transform="translate(531.184 310.152)">
      <path id="Trazado_166642" data-name="Trazado 166642" d="M1868.791,1380.642a.257.257,0,0,1-.155-.052l-4.108-3.083a.259.259,0,1,1,.311-.415l4.108,3.083a.259.259,0,0,1-.156.466Z" transform="translate(-1864.425 -1377.041)" fill="#ffc155"/>
    </g>
    <g id="Grupo_73205" data-name="Grupo 73205" transform="translate(528.906 311.488)">
      <path id="Trazado_166643" data-name="Trazado 166643" d="M1851.486,1390.79a.26.26,0,0,1-.156-.052l-4.108-3.083a.259.259,0,0,1,.311-.415l4.108,3.083a.259.259,0,0,1-.156.467Z" transform="translate(-1847.12 -1387.189)" fill="#ffc155"/>
    </g>
    <path id="Trazado_166644" data-name="Trazado 166644" d="M1708.236,1313.779l1.523,9.509,5.842-.274,2.648-9.13-5.273-.327Z" transform="translate(-1197.617 -1011.763)" fill="#ffb18c"/>
    <path id="Trazado_166645" data-name="Trazado 166645" d="M1641.085,1375.786l-22.115-.282a10.38,10.38,0,0,1-.143-2.508c.11-1.508.66-3.194,2.505-3.5,3.464-.568,9.6-2.3,9.956-5.217l7.557-.6a29.21,29.21,0,0,1,2.441,8.72A10.889,10.889,0,0,1,1641.085,1375.786Z" transform="translate(-1119.96 -1055.294)" fill="#6761d1"/>
    <path id="Trazado_166646" data-name="Trazado 166646" d="M1641.085,1433.3l-22.115-.282a10.379,10.379,0,0,1-.143-2.508l22.459-.587A10.888,10.888,0,0,1,1641.085,1433.3Z" transform="translate(-1119.96 -1112.807)" fill="#ffc155"/>
    <circle id="Elipse_4392" data-name="Elipse 4392" cx="1.874" cy="1.874" r="1.874" transform="matrix(0.726, -0.688, 0.688, 0.726, 512.722, 312.983)" fill="#fff"/>
    <g id="Grupo_73206" data-name="Grupo 73206" transform="translate(505.507 310.152)">
      <path id="Trazado_166647" data-name="Trazado 166647" d="M1673.772,1380.642a.258.258,0,0,1-.155-.052l-4.108-3.083a.259.259,0,0,1,.311-.415l4.108,3.083a.259.259,0,0,1-.156.466Z" transform="translate(-1669.405 -1377.041)" fill="#ffc155"/>
    </g>
    <g id="Grupo_73207" data-name="Grupo 73207" transform="translate(503.229 311.488)">
      <path id="Trazado_166648" data-name="Trazado 166648" d="M1656.467,1390.79a.26.26,0,0,1-.156-.052l-4.108-3.083a.259.259,0,1,1,.311-.415l4.108,3.083a.259.259,0,0,1-.156.467Z" transform="translate(-1652.1 -1387.189)" fill="#ffc155"/>
    </g>
    <path id="Trazado_166649" data-name="Trazado 166649" d="M1698.662,913.6l-2.831,54.539h11.819l10.946-41.575-4.769-11.623L1705.6,911.4Z" transform="translate(-1186.844 -662.556)" fill="#c93b54"/>
    <path id="Trazado_166650" data-name="Trazado 166650" d="M1796.781,982.684h-12.964l-12.772-48.311-.711-2.688-.936-3.54,8.262.373,10.2.46,7.429,44.709a.09.09,0,0,0,0,.013h0Z" transform="translate(-1250.725 -677.096)" fill="#ff5360"/>
    <path id="Trazado_166651" data-name="Trazado 166651" d="M1700.162,635.365l2.437-3.627,1.783,1.116-2.693,3.972Z" transform="translate(-1190.605 -419.716)" fill="#ff8167"/>
    <path id="Trazado_166652" data-name="Trazado 166652" d="M1795.286,976.146c-.15-.82-6.58-35.808-9.009-37.906-1.945-1.679-11.378-1.54-15.232-1.408-1.018.034-1.647.068-1.647.068l.936-2.756.431-1.268s2.1-1.339,6.9-1.9l10.2.46Z" transform="translate(-1250.725 -679.556)" fill="#c93b54"/>
    <path id="Trazado_166653" data-name="Trazado 166653" d="M1742.309,588.379a3.908,3.908,0,0,1,.835-1.815c.753-.974.784-3.928-.5-4.456s-2.119.635-3.92-.114-2.563-1.958-4.5-1.749a2.9,2.9,0,0,0-.927,5.263c2.517,1.927,4.516,1.977,5.7,1.739S1742.309,588.379,1742.309,588.379Z" transform="translate(-1218.234 -374.981)" fill="#2e2b3f"/>
    <path id="Trazado_166654" data-name="Trazado 166654" d="M1657,650.812l-2.11,11.7-6.864-2.359a75.9,75.9,0,0,1,5.768-11.318Z" transform="translate(-1145.337 -434.562)" fill="#ffb18c"/>
    <path id="Trazado_166655" data-name="Trazado 166655" d="M1774.88,649.339l-5.482-.757.636-1.3,1.357-2.785,1.394-1.017.215-.039,1.185-.212.113.994h0Z" transform="translate(-1250.725 -429.692)" fill="#ffb18c"/>
    <path id="Trazado_166656" data-name="Trazado 166656" d="M1627.423,736.154c-6.532,3.362-12.541-.291-13.939-2.882-.936-1.736.2-6.307,1.921-11.194.5-1.407,1.038-2.839,1.592-4.239l8.284,2.494-.415,1.745-.4,1.686a.294.294,0,0,0,.565.161l2.716-8.153,6.013,6.063S1634.738,732.391,1627.423,736.154Z" transform="translate(-1115.048 -492.686)" fill="#4ea3ea"/>
    <path id="Trazado_166657" data-name="Trazado 166657" d="M1778.245,645.471s-.462-.125-.09,0a4.013,4.013,0,0,1-3.93,3.209l1.357-2.785,1.394-1.017.214-.039.979.59Z" transform="translate(-1254.917 -431.089)" fill="#ff8167"/>
    <path id="Trazado_166658" data-name="Trazado 166658" d="M1766.937,609.971l-.166,1.206-.374,2.713a3.018,3.018,0,1,1-5.979-.824l.541-3.919Z" transform="translate(-1242.904 -400.099)" fill="#ffb18c"/>
    <path id="Trazado_166659" data-name="Trazado 166659" d="M1756.869,603.241a15.119,15.119,0,0,0,2.574-.121c1.706-.191,2.743-.073,2.039.306s-1.561.411-.734.776a9.56,9.56,0,0,0,3.256.023l.342-1.392s.3-.525-.388-.821a4.068,4.068,0,0,0-1.97-.623c-1.5-.207-2.511-.7-3.567-.492s-1.238-.3-1.452.527A5.821,5.821,0,0,0,1756.869,603.241Z" transform="translate(-1239.82 -392.893)" fill="#2e2b3f"/>
    <path id="Trazado_166660" data-name="Trazado 166660" d="M1729.427,712.929c-2.094-.079-8.411-.512-13.56-.385a28.618,28.618,0,0,0-5.554.544c-4.515,1.107-7.436.478-7.857-1.385s3.178-8.863,1.365-12.071,0-18.2,2.154-20.712a13.285,13.285,0,0,1,4.225-3.091,13.814,13.814,0,0,1,1.421-.6l5.1-.413s.468.395,1.145.982a40.458,40.458,0,0,1,4.773,4.62c.935,1.407,1.212,4.3,1.528,6.378s.94,9,.933,10.132a6.768,6.768,0,0,0,1,2.434c.758,1.349,1.775,2.874,2.414,3.818.064.094.133.209.206.343C1729.937,705.739,1732.251,713.035,1729.427,712.929Z" transform="translate(-1192.568 -457.12)" fill="#4ea3ea"/>
    <path id="Trazado_166661" data-name="Trazado 166661" d="M1738.095,609.294l.619,2.856-1.606,1.06-1-4.19,1.73-.447Z" transform="translate(-1221.818 -399.601)" fill="#ffb18c"/>
    <path id="Trazado_166662" data-name="Trazado 166662" d="M1817.39,854.211c1.216,2.219,3.529,9.515.7,9.41-2.095-.078-8.411-.512-13.56-.385,2.332-3.165.856-8.548.856-8.548l.356-.176,9.024-4.462,3.431-1.7,1.327.987A13.309,13.309,0,0,1,1817.39,854.211Z" transform="translate(-1281.235 -607.811)" fill="#407cd3"/>
    <path id="Trazado_166663" data-name="Trazado 166663" d="M1727.647,609.26l-.883,2.732-1.217-.466.8-2.959,1.36-1Z" transform="translate(-1212.648 -398.723)" fill="#ffb18c"/>
    <path id="Trazado_166664" data-name="Trazado 166664" d="M1690.444,608.96l.6-5.847,6.9-2.267,2.685,1.92-.9,1.365-2.279-1.417-3.736,1.811.126,4.616Z" transform="translate(-1182.167 -392.892)" fill="#ffb18c"/>
    <path id="Trazado_166665" data-name="Trazado 166665" d="M1812.654,694.819a27.215,27.215,0,0,1-.6,3.831,13.307,13.307,0,0,1-2.138,4.87,9.2,9.2,0,0,1-4.458,3.262,15.686,15.686,0,0,1-6.771.6l-.414-3.563-1.169-10.043,1.969-.288,4.734-.693-1.545-10.242s-3.4-1.873-3.671-2.11a5.3,5.3,0,0,1-.453-.7c-.772-1.311-2.211-3.977-2.211-3.977l1.99-.952a11.864,11.864,0,0,1,1.359.176,13.145,13.145,0,0,1,6.744,3.221C1809.246,681.363,1813.175,689.226,1812.654,694.819Z" transform="translate(-1273.762 -457.12)" fill="#4ea3ea"/>
    <path id="Trazado_166666" data-name="Trazado 166666" d="M1715.847,838.152l-17.261,1.645-.07,5.284s14.224,4.047,17.865,3.095,1.047-4.573.149-5.7S1715.847,838.152,1715.847,838.152Z" transform="translate(-1189.176 -598.952)" fill="#ffb18c"/>
    <path id="Trazado_166667" data-name="Trazado 166667" d="M1659,835.749l-4.952-2.491-1.583,2.456,6.413,2.923Z" transform="translate(-1149.186 -594.703)" fill="#ffb18c"/>
    <path id="Trazado_166668" data-name="Trazado 166668" d="M1617.448,838.869l-6.592-.649-.585-2.382-2.222-.14,1.4,6.668,11.913.643-.227-2.932Z" transform="translate(-1110.621 -596.822)" fill="#ffb18c"/>
    <path id="Trazado_166669" data-name="Trazado 166669" d="M1805.086,637.186a1.062,1.062,0,1,1-.906-1.2A1.062,1.062,0,0,1,1805.086,637.186Z" transform="translate(-1279.88 -423.399)" fill="#ffb18c"/>
    <path id="Trazado_166670" data-name="Trazado 166670" d="M1813.219,829.949a15.684,15.684,0,0,1-6.772.6l-1.582-13.606,1.969-.288Z" transform="translate(-1281.523 -580.288)" fill="#fff"/>
    <path id="Trazado_166671" data-name="Trazado 166671" d="M1640.171,733.963l-.415,1.745H1630.3c.5-1.407,1.038-2.839,1.592-4.239Z" transform="translate(-1129.938 -506.316)" fill="#fff"/>
    <circle id="Elipse_4393" data-name="Elipse 4393" cx="1.157" cy="1.157" r="1.157" transform="matrix(0.16, -0.987, 0.987, 0.16, 526.192, 248.205)" fill="#2e2b3f"/>
    <circle id="Elipse_4394" data-name="Elipse 4394" cx="1.157" cy="1.157" r="1.157" transform="translate(502.119 226.322)" fill="#2e2b3f"/>
    <path id="Trazado_166672" data-name="Trazado 166672" d="M1761.1,674.99c-.071.249-.143.519-.214.806-.282,1.121-.581,2.505-.924,3.947-1.114,4.7-2.687,10.014-5.622,8.905-3.82-1.443-2.131-9.23-1.122-12.819a13.813,13.813,0,0,1,1.421-.6l5.1-.413A11.857,11.857,0,0,1,1761.1,674.99Z" transform="translate(-1235.586 -457.12)" fill="#fff"/>
    <path id="Trazado_166673" data-name="Trazado 166673" d="M1781.223,697.038a.72.72,0,1,1-.72-.72A.72.72,0,0,1,1781.223,697.038Z" transform="translate(-1259.743 -475.793)" fill="#ff5a6a"/>
    <path id="Trazado_166674" data-name="Trazado 166674" d="M1775.754,737.3a.72.72,0,1,1-.72-.72A.72.72,0,0,1,1775.754,737.3Z" transform="translate(-1254.993 -510.757)" fill="#ff5a6a"/>
    <g id="Grupo_73208" data-name="Grupo 73208" transform="translate(527.932 260.119)">
      <path id="Trazado_166675" data-name="Trazado 166675" d="M1850.953,1038.956a.242.242,0,0,1-.234-.18l-10.989-41.432a.242.242,0,0,1,.468-.124l10.989,41.432a.243.243,0,0,1-.234.3Z" transform="translate(-1839.722 -997.039)" fill="#fff"/>
    </g>
    <g id="Grupo_73209" data-name="Grupo 73209" transform="translate(499.545 239.196)">
      <path id="Trazado_166676" data-name="Trazado 166676" d="M1630.323,841.065h-.02l-5.507-.542a.2.2,0,0,1-.172-.149l-.492-2.006a.2.2,0,1,1,.383-.094l.459,1.871,5.368.528a.2.2,0,0,1-.019.393Z" transform="translate(-1624.127 -838.122)" fill="#ff8167"/>
    </g>
    <g id="Grupo_73210" data-name="Grupo 73210" transform="translate(503.89 218.614)">
      <path id="Trazado_166677" data-name="Trazado 166677" d="M1660.2,682.2h-2.877a.2.2,0,0,1,0-.394h2.877a.2.2,0,0,1,0,.394Z" transform="translate(-1657.127 -681.806)" fill="#ff8167"/>
    </g>
    <g id="Grupo_73211" data-name="Grupo 73211" transform="translate(503.66 220.098)">
      <path id="Trazado_166678" data-name="Trazado 166678" d="M1658.453,693.47h-2.877a.2.2,0,0,1,0-.394h2.877a.2.2,0,0,1,0,.394Z" transform="translate(-1655.379 -693.076)" fill="#ff8167"/>
    </g>
    <g id="Grupo_73212" data-name="Grupo 73212" transform="translate(535.13 242.335)">
      <path id="Trazado_166679" data-name="Trazado 166679" d="M1898.424,865.112a.2.2,0,0,1-.115-.037l-3.836-2.755a.2.2,0,0,1,.23-.32l3.836,2.754a.2.2,0,0,1-.115.357Z" transform="translate(-1894.391 -861.964)" fill="#407cd3"/>
    </g>
    <g id="Grupo_73213" data-name="Grupo 73213" transform="translate(535.522 240.367)">
      <path id="Trazado_166680" data-name="Trazado 166680" d="M1901.4,850.165a.2.2,0,0,1-.115-.037l-3.836-2.754a.2.2,0,1,1,.23-.32l3.836,2.754a.2.2,0,0,1-.115.357Z" transform="translate(-1897.37 -847.017)" fill="#407cd3"/>
    </g>
    <g id="Grupo_73214" data-name="Grupo 73214" transform="translate(523.319 278.076)">
      <path id="Trazado_166681" data-name="Trazado 166681" d="M1804.934,1135.619a.242.242,0,0,1-.084-.469l4.612-1.716a.242.242,0,0,1,.169.454l-4.612,1.716A.24.24,0,0,1,1804.934,1135.619Z" transform="translate(-1804.692 -1133.419)" fill="#aa214b"/>
    </g>
    <g id="Grupo_73215" data-name="Grupo 73215" transform="translate(524.256 280.311)">
      <path id="Trazado_166682" data-name="Trazado 166682" d="M1812.048,1152.642a.242.242,0,0,1-.091-.467l4.347-1.763a.242.242,0,0,1,.182.449l-4.347,1.763A.24.24,0,0,1,1812.048,1152.642Z" transform="translate(-1811.805 -1150.394)" fill="#aa214b"/>
    </g>
    <path id="Trazado_166683" data-name="Trazado 166683" d="M792.379,1330.247l-6.415-.632-.786-3.468-.977-4.314-.123-.544,1.132-.647,6.662-1.5.157,3.438.045.977h0Z" transform="translate(-395.138 -1016.615)" fill="#ffb18c"/>
    <path id="Trazado_166684" data-name="Trazado 166684" d="M788.6,1392.426c-5.792,1.31-11.193-2-11.193-2l-.212,1.684-.144,1.144-4.29-.036.012-1.36.016-1.822a5.407,5.407,0,0,1,2.372-6.339l7.555.032c.528,5.13,9.781,4.078,9.781,4.078S794.4,1391.117,788.6,1392.426Z" transform="translate(-385.137 -1072.669)" fill="#488fe2"/>
    <circle id="Elipse_4395" data-name="Elipse 4395" cx="1.588" cy="1.588" r="1.588" transform="translate(391.776 315.564) rotate(-89.918)" fill="#ffc155"/>
    <g id="Grupo_73216" data-name="Grupo 73216" transform="translate(397.054 313.162)">
      <path id="Trazado_166685" data-name="Trazado 166685" d="M845.882,1401.908a.185.185,0,0,1-.151-.081.19.19,0,0,1,.051-.26c.093-.065,2.173-.935,3.9-1.655a.184.184,0,1,1,.142.34c-1.468.611-3.7,1.547-3.842,1.623A.174.174,0,0,1,845.882,1401.908Z" transform="translate(-845.7 -1399.899)" fill="#2e2b3f"/>
    </g>
    <g id="Grupo_73217" data-name="Grupo 73217" transform="translate(399.002 313.729)">
      <path id="Trazado_166686" data-name="Trazado 166686" d="M860.681,1406.22a.185.185,0,0,1-.15-.081.19.19,0,0,1,.05-.26c.093-.065,2.173-.936,3.9-1.655a.184.184,0,0,1,.142.34c-1.468.61-3.7,1.547-3.842,1.623A.175.175,0,0,1,860.681,1406.22Z" transform="translate(-860.499 -1404.21)" fill="#2e2b3f"/>
    </g>
    <path id="Trazado_166687" data-name="Trazado 166687" d="M778.54,1445.932l-.144,1.144-4.289-.036.012-1.361C775.495,1445.75,777.514,1445.87,778.54,1445.932Z" transform="translate(-386.479 -1126.49)" fill="#3a6ec4"/>
    <path id="Trazado_166688" data-name="Trazado 166688" d="M792.885,1340.338h0l-6.895,2.587-.978-4.313a7.831,7.831,0,0,1,2.714-.074,37.142,37.142,0,0,1,5.114.823Z" transform="translate(-395.949 -1033.394)" fill="#ff8167"/>
    <path id="Trazado_166689" data-name="Trazado 166689" d="M742.151,939.226l-12.521-.484-2.5-21.272h0l-2.6-22.08.094-.833,1.018-9.005.509-4.494.372-3.29,3.645-.7,6.31,3.194.536,5.577.449,4.672Z" transform="translate(-343.433 -632.739)" fill="#5b51bb"/>
    <path id="Trazado_166690" data-name="Trazado 166690" d="M700.615,618.2s-3.793-1.557-2.5-2.575,1.645-1.136,1.645-2.585.588-3.446,1.8-2.271,1.253,1.684,2.154,1.331,1.762-1.449,2.506-.392.039,2.036,1.527,2.428,2.036.7,1.762,1.371-3.564,2.271-5.365,1.175-2.35.039-2.35.039Z" transform="translate(-320.259 -401.197)" fill="#2e2b3f"/>
    <path id="Trazado_166691" data-name="Trazado 166691" d="M512.667,1001.176l2.547,4.746-1.331,4.6a1.1,1.1,0,0,1-1.385.74l-.75-.239a1.1,1.1,0,0,1-.725-1.33l1.031-3.82-1.007-.024-2.676,7.952a1.05,1.05,0,0,1-1.582.536l-4.208-2.834a1.05,1.05,0,0,1-.326-1.39l5.375-9.442Z" transform="translate(-150.301 -740.075)" fill="#ffb18c"/>
    <path id="Trazado_166692" data-name="Trazado 166692" d="M716.6,673.292h-4.818l1.1-5.02.077-.356.18-.821,1.47.383.557.145.294.264.681,3.211Z" transform="translate(-332.358 -450.417)" fill="#ffb18c"/>
    <path id="Trazado_166693" data-name="Trazado 166693" d="M723.863,673.623a3.247,3.247,0,0,1-2.948-2.891l-.232-.292,1.65-.438.557.145.294.264Z" transform="translate(-340.089 -452.942)" fill="#ff8167"/>
    <path id="Rectángulo_21154" data-name="Rectángulo 21154" d="M0,0H5.052a0,0,0,0,1,0,0V3.76A2.526,2.526,0,0,1,2.526,6.285h0A2.526,2.526,0,0,1,0,3.76V0A0,0,0,0,1,0,0Z" transform="translate(380.567 213.534)" fill="#ffb18c"/>
    <path id="Trazado_166694" data-name="Trazado 166694" d="M711.472,665.43a.793.793,0,1,1-.793-.793A.793.793,0,0,1,711.472,665.43Z" transform="translate(-330.714 -448.283)" fill="#ffb18c"/>
    <path id="Trazado_166695" data-name="Trazado 166695" d="M739.833,1304.729l-.389-4.047-17.58-2.7.447,6.743Z" transform="translate(-341.115 -998.243)" fill="#4545ac"/>
    <path id="Trazado_166696" data-name="Trazado 166696" d="M552.113,708.661s-2.029,6.47-2.241,6.642c-.168.137-3.342,5.531-4.661,7.781-.35.6-.569.971-.569.971l-2.428,7.59-.931,2.909-3.634,11.36-.679,2.122-9.536-1.49s.425-1.793,1.122-4.607c1.429-5.762,4-15.8,6.4-23.493,3.576-11.446,14.908-11.938,14.908-11.938l.875.838Z" transform="translate(-172.285 -484.643)" fill="#ff5360"/>
    <path id="Trazado_166697" data-name="Trazado 166697" d="M721.238,637.05a2.872,2.872,0,0,1-1.841,0c-1.175-.313-1.684-.2-1.057.215s.372.588-1.038.157a2.09,2.09,0,0,0-2.232.627,1.615,1.615,0,0,1-.157-1.177c.157-.7.254-1.427.7-1.682a11.851,11.851,0,0,1,2.986-.039s2,.313,2.291.724A2.848,2.848,0,0,1,721.238,637.05Z" transform="translate(-335.042 -422.605)" fill="#2e2b3f"/>
    <path id="Trazado_166698" data-name="Trazado 166698" d="M648.45,1328.011l-.928,3.058-2.263,7.458-5.283-1.738-.252-3.6-.281-4.016-.063-.9,1.217-.467Z" transform="translate(-269.492 -1024.136)" fill="#ffb18c"/>
    <path id="Trazado_166699" data-name="Trazado 166699" d="M634.912,1392.634c-5.791,1.309-11.193-2-11.193-2l-.212,1.684-.144,1.144-4.289-.035.012-1.36.016-1.822a5.408,5.408,0,0,1,2.373-6.339l7.554.032c.528,5.13,9.781,4.078,9.781,4.078S640.7,1391.325,634.912,1392.634Z" transform="translate(-251.681 -1072.85)" fill="#488fe2"/>
    <circle id="Elipse_4396" data-name="Elipse 4396" cx="1.587" cy="1.587" r="1.587" transform="translate(371.014 313.254) rotate(-25.427)" fill="#ffc155"/>
    <g id="Grupo_73218" data-name="Grupo 73218" transform="translate(376.818 313.189)">
      <path id="Trazado_166700" data-name="Trazado 166700" d="M692.189,1402.117a.184.184,0,0,1-.151-.081.19.19,0,0,1,.051-.26c.093-.065,2.173-.935,3.9-1.654a.184.184,0,0,1,.142.34c-1.468.61-3.7,1.547-3.842,1.623A.175.175,0,0,1,692.189,1402.117Z" transform="translate(-692.007 -1400.107)" fill="#2e2b3f"/>
    </g>
    <g id="Grupo_73219" data-name="Grupo 73219" transform="translate(378.766 313.757)">
      <path id="Trazado_166701" data-name="Trazado 166701" d="M706.988,1406.427a.185.185,0,0,1-.15-.081.189.189,0,0,1,.05-.26c.093-.065,2.173-.936,3.9-1.655a.184.184,0,1,1,.141.34c-1.468.61-3.7,1.546-3.842,1.623A.174.174,0,0,1,706.988,1406.427Z" transform="translate(-706.806 -1404.417)" fill="#2e2b3f"/>
    </g>
    <path id="Trazado_166702" data-name="Trazado 166702" d="M624.848,1446.14l-.144,1.144-4.289-.036.012-1.36C621.8,1445.958,623.821,1446.078,624.848,1446.14Z" transform="translate(-253.022 -1126.671)" fill="#3a6ec4"/>
    <path id="Trazado_166703" data-name="Trazado 166703" d="M647.938,1332.423l-7.8,2.115-.281-4.016,9.006-1.158Z" transform="translate(-269.907 -1025.49)" fill="#ff8167"/>
    <path id="Trazado_166704" data-name="Trazado 166704" d="M777.607,566.927s-.788,2.15-1.873,5.07c-2.23,5.994-5.715,15.236-6.214,15.775-.539.582-1.472,1.483-2.572,2.511-2.119,1.979-4.856,4.424-6.58,5.953-1,.886-1.657,1.464-1.657,1.464s-6.211-8.084-6.387-8.73c-.156-.572-1-2.745-1.457-3.933-.06-.157-.115-.3-.159-.414-.381-1,.847-2.9.847-2.9h.038a26.605,26.605,0,0,0,4.842-.5c1.287-.316,10.781-12.594,13.9-16.664.621-.811.989-1.3.989-1.3Z" transform="translate(-366.097 -360.251)" fill="#ff5360"/>
    <path id="Trazado_166705" data-name="Trazado 166705" d="M644.171,907.4l-.421,1.82-.554,2.4-1.225,5.3-.31,1.81-4.3,25.088-3.733,21.757H621.147l1.172-12.17.16-1.931h0l3.066-37.087.087-1.057.374-4.523,9.484-1.4Z" transform="translate(-253.659 -659.081)" fill="#6761d1"/>
    <path id="Trazado_166706" data-name="Trazado 166706" d="M656.477,944.656c-1.84.619-3.523,1.074-3.523,1.074l-2.511.8-6.806,2.175-.851.272a10.527,10.527,0,0,0-7.124,7.99l-4.4,22.306,3.066-37.088.087-1.057q.536-.14,1.156-.253c3.338-.605,6.432-.965,9.084-1.176,3.193-.253,5.749-.289,7.323-.275,1.125.01,1.75.045,1.75.045s1.018.2,2.3.512Z" transform="translate(-262.442 -686.891)" fill="#6358cc"/>
    <path id="Trazado_166707" data-name="Trazado 166707" d="M660.677,737.34c0,1.07-5.714,1.61-11.835,2.728-.827.15-1.661.312-2.491.487-3.119.659-7.917,3.256-11.156,3.206a1.959,1.959,0,0,1-1.924-2.171l.834-12.554.237-3.569.344-5.183,0-5.314v-4.651l4.8-2.974,2.093-1.734,1.055-.874,1.22-1.012h0l5.778-.22.121.077c.805.524,5.448,3.62,7.269,6.619.683,1.127,1.13,4.194,1.421,7.818C659.007,724.978,660.677,736.1,660.677,737.34Z" transform="translate(-264.177 -482.032)" fill="#ff5360"/>
    <path id="Trazado_166708" data-name="Trazado 166708" d="M704.151,699.873a2.327,2.327,0,0,1-1.427,1.912,6.494,6.494,0,0,1-3.053.7,6.18,6.18,0,0,1-3.4-.911,2.61,2.61,0,0,1-.916-1,1.615,1.615,0,0,1-.165-.7,1.715,1.715,0,0,1,.346-1.007,11.8,11.8,0,0,0,3.106-.67l1.028-.489,3.741.763h.038l.082.078A1.87,1.87,0,0,1,704.151,699.873Z" transform="translate(-317.954 -476.998)" fill="#ffb18c"/>
    <path id="Trazado_166709" data-name="Trazado 166709" d="M911.666,495.314l3.7-7.5a2.415,2.415,0,0,1,.892-.984l5.017-3.117a.972.972,0,0,1,1.287.238l.322.423a.972.972,0,0,1-.146,1.331l-4.82,4.074,2.856,3.3a.972.972,0,0,1-.065,1.341l-6.265,5.957Z" transform="translate(-505.927 -291.052)" fill="#ffb18c"/>
    <ellipse id="Elipse_4397" data-name="Elipse 4397" cx="1.576" cy="3.642" rx="1.576" ry="3.642" transform="translate(381.517 227.019)" fill="#fff"/>
    <circle id="Elipse_4398" data-name="Elipse 4398" cx="0.548" cy="0.548" r="0.548" transform="translate(382.545 228.246)" fill="#2e2b3f"/>
    <circle id="Elipse_4399" data-name="Elipse 4399" cx="0.548" cy="0.548" r="0.548" transform="translate(382.545 231.389)" fill="#2e2b3f"/>
    <g id="Grupo_73220" data-name="Grupo 73220" transform="translate(383.262 236.26)">
      <path id="Trazado_166710" data-name="Trazado 166710" d="M741.33,835.062l-.03,0a.191.191,0,0,1-.159-.218,62.041,62.041,0,0,0-.187-18.791.191.191,0,1,1,.375-.072,62.459,62.459,0,0,1,.19,18.922A.191.191,0,0,1,741.33,835.062Z" transform="translate(-740.95 -815.824)" fill="#e8465e"/>
    </g>
    <path id="Trazado_166711" data-name="Trazado 166711" d="M742.841,643.753a2.957,2.957,0,0,0,.532,1.1,1.978,1.978,0,0,0,.209.226,1.192,1.192,0,0,0,.116.1c.038.032.082.065.128.1a2.44,2.44,0,0,1,.264.222.713.713,0,0,1,.117.151.473.473,0,0,1,.058.2c.005.126-.007.227,0,.333a2.158,2.158,0,0,0,.031.315,1.915,1.915,0,0,0,.2.6,1.4,1.4,0,0,0,1.012.726,1.446,1.446,0,0,1-1.093-.677,2.039,2.039,0,0,1-.257-.621,2.305,2.305,0,0,1-.058-.334c-.012-.112-.008-.23-.02-.323-.017-.161-.213-.277-.387-.4-.044-.028-.09-.058-.139-.092a1.444,1.444,0,0,1-.14-.1,2.232,2.232,0,0,1-.253-.238,3.024,3.024,0,0,1-.4-.56,3.287,3.287,0,0,1-.28-.639Z" transform="translate(-359.012 -430.149)" fill="#2e2b3f"/>
    <path id="Trazado_166712" data-name="Trazado 166712" d="M757.068,630.683a5.206,5.206,0,0,1,.674-.156,2.748,2.748,0,0,1,.7-.035.983.983,0,0,1,.37.108.563.563,0,0,1,.164.14,1.4,1.4,0,0,1,.094.16c.106.2.2.383.372.443a1.37,1.37,0,0,0,.616.007,5.3,5.3,0,0,0,.642-.141c.106-.03.211-.065.316-.1a1.425,1.425,0,0,1,.329-.081.3.3,0,0,1,.171.038.5.5,0,0,1,.125.117,1.994,1.994,0,0,1,.175.284,2,2,0,0,0-.193-.269.471.471,0,0,0-.124-.1.258.258,0,0,0-.15-.022,1.375,1.375,0,0,0-.308.1c-.1.042-.206.084-.311.123a5.4,5.4,0,0,1-.645.191,1.5,1.5,0,0,1-.7.033.658.658,0,0,1-.318-.217,2.6,2.6,0,0,1-.2-.286,1.272,1.272,0,0,0-.082-.123.321.321,0,0,0-.093-.067.735.735,0,0,0-.27-.055,3.57,3.57,0,0,0-1.229.265Z" transform="translate(-371.684 -418.625)" fill="#2e2b3f"/>
    <path id="Trazado_166713" data-name="Trazado 166713" d="M907.544,566.927s-.788,2.15-1.873,5.07l-5.4-7.446c.621-.811.988-1.3.988-1.3Z" transform="translate(-496.035 -360.251)" fill="#fff"/>
    <path id="Trazado_166714" data-name="Trazado 166714" d="M537.649,979.586l-.679,2.122-9.536-1.49s.425-1.793,1.122-4.607L537.6,979.5Z" transform="translate(-172.285 -718.313)" fill="#fff"/>
    <path id="Trazado_166715" data-name="Trazado 166715" d="M933.1,594.012a.678.678,0,1,1-.678-.678A.678.678,0,0,1,933.1,594.012Z" transform="translate(-523.365 -386.368)" fill="#2e2b3f"/>
    <path id="Trazado_166716" data-name="Trazado 166716" d="M546.808,993.028a.678.678,0,1,1-.678-.678A.678.678,0,0,1,546.808,993.028Z" transform="translate(-187.929 -732.848)" fill="#2e2b3f"/>
    <path id="Trazado_166717" data-name="Trazado 166717" d="M600.4,1304.729l.678-3.953-18.191-2.79.447,6.743Z" transform="translate(-220.436 -998.243)" fill="#5b51bb"/>
    <g id="Grupo_73221" data-name="Grupo 73221" transform="translate(374.181 265.191)">
      <path id="Trazado_166718" data-name="Trazado 166718" d="M672.225,1068.787a.245.245,0,0,1-.04,0,.242.242,0,0,1-.2-.278l5.4-32.746a.242.242,0,0,1,.478.079l-5.4,32.746A.242.242,0,0,1,672.225,1068.787Z" transform="translate(-671.982 -1035.557)" fill="#fff"/>
    </g>
    <g id="Grupo_73222" data-name="Grupo 73222" transform="translate(382.971 274.604)">
      <path id="Trazado_166719" data-name="Trazado 166719" d="M743.006,1109.419a.242.242,0,0,1-.1-.023l-4.023-1.888a.242.242,0,0,1,.206-.438l4.023,1.888a.242.242,0,0,1-.1.461Z" transform="translate(-738.741 -1107.048)" fill="#4545ac"/>
    </g>
    <g id="Grupo_73223" data-name="Grupo 73223" transform="translate(382.153 277.16)">
      <path id="Trazado_166720" data-name="Trazado 166720" d="M736.793,1128.833a.24.24,0,0,1-.1-.023l-4.023-1.888a.242.242,0,1,1,.206-.438l4.023,1.888a.242.242,0,0,1-.1.461Z" transform="translate(-732.527 -1126.461)" fill="#4545ac"/>
    </g>
    <path id="Trazado_166721" data-name="Trazado 166721" d="M648.281,851.344c-.827.15-1.661.312-2.49.487-3.119.659-7.917,3.256-11.156,3.206a1.959,1.959,0,0,1-1.924-2.171l.834-12.554-.931,2.909c.053-.673.085-1.094.085-1.094s.4-2.725,1.084-5.384a14.527,14.527,0,0,1,1.672-4.377c.5-.677.849-.848,1.087-.615.55.536.491,3.216.179,6.8C636.274,843.69,641.776,850.723,648.281,851.344Z" transform="translate(-263.616 -593.309)" fill="#c93b54"/>
    <g id="Grupo_73224" data-name="Grupo 73224" transform="translate(354.107 264.416)">
      <path id="Trazado_166722" data-name="Trazado 166722" d="M519.717,1035.036a.2.2,0,0,1-.169-.3l2.98-4.967a.2.2,0,1,1,.338.2l-2.98,4.967A.2.2,0,0,1,519.717,1035.036Z" transform="translate(-519.52 -1029.674)" fill="#ff8167"/>
    </g>
    <g id="Grupo_73225" data-name="Grupo 73225" transform="translate(356.256 265.074)">
      <path id="Trazado_166723" data-name="Trazado 166723" d="M536.033,1040.365a.192.192,0,0,1-.085-.02.2.2,0,0,1-.092-.263l2.559-5.3a.2.2,0,1,1,.355.171l-2.559,5.3A.2.2,0,0,1,536.033,1040.365Z" transform="translate(-535.836 -1034.667)" fill="#ff8167"/>
    </g>
    <g id="Grupo_73226" data-name="Grupo 73226" transform="translate(411.789 196.842)">
      <path id="Trazado_166724" data-name="Trazado 166724" d="M959.281,520.219a.2.2,0,0,1-.149-.068l-1.47-1.7a.2.2,0,0,1,.022-.279l1.995-1.686a.2.2,0,0,1,.254.3l-1.843,1.557,1.339,1.545a.2.2,0,0,1-.149.326Z" transform="translate(-957.614 -516.443)" fill="#ff8167"/>
    </g>
    <g id="Grupo_73227" data-name="Grupo 73227" transform="translate(397.45 230.419)">
      <path id="Trazado_166725" data-name="Trazado 166725" d="M851.115,774.755a.241.241,0,0,1-.192-.095l-2.161-2.808a.242.242,0,1,1,.384-.3l2.161,2.808a.242.242,0,0,1-.192.39Z" transform="translate(-848.712 -771.463)" fill="#c93b54"/>
    </g>
    <g id="Grupo_73228" data-name="Grupo 73228" transform="translate(398.865 229.015)">
      <path id="Trazado_166726" data-name="Trazado 166726" d="M861.859,764.091a.241.241,0,0,1-.192-.095l-2.161-2.808a.242.242,0,1,1,.384-.3l2.161,2.808a.242.242,0,0,1-.192.39Z" transform="translate(-859.456 -760.798)" fill="#c93b54"/>
    </g>
    <g id="Grupo_73229" data-name="Grupo 73229" transform="translate(326.758 162.635)">
      <path id="Trazado_166727" data-name="Trazado 166727" d="M392.942,366.874l-.386-.415c-.016-.017-1.6-1.72-3.039-3.354-11.356.64-33.073-.24-36.361-4.288-2.89-3.559-4.734-13.194-3.87-20.215.442-3.591,1.544-6.141,3.187-7.374,4.471-3.354,33.611,2.078,45.932,4.569a4.644,4.644,0,0,1,3.734,4.719c-.237,7.109-1.066,19.314-3.958,21.19a12.93,12.93,0,0,1-4.614,1.066Zm-3.189-4.33.088.1c1.033,1.174,2.157,2.4,2.731,3.026l.519-3.394.209-.023c3.023-.333,4.162-.73,4.585-1,1.96-1.271,3.312-8.834,3.709-20.749a4.1,4.1,0,0,0-3.3-4.164c-5.3-1.071-15.6-3.062-25.14-4.366-14.512-1.984-19.079-1.26-20.356-.3-1.521,1.141-2.549,3.563-2.972,7-.85,6.9.939,16.339,3.752,19.8,2.918,3.593,23.293,4.816,36.037,4.079Z" transform="translate(-349.073 -330.166)" fill="#e25f71"/>
    </g>
    <g id="Grupo_73230" data-name="Grupo 73230" transform="translate(329.105 319.998)">
      <path id="Trazado_166728" data-name="Trazado 166728" d="M568.713,1452.693H330.06a.438.438,0,1,1,0-.876H568.713a.438.438,0,1,1,0,.876Z" transform="translate(-329.622 -1451.817)" fill="#333144"/>
    </g>
    <path id="Trazado_166729" data-name="Trazado 166729" d="M382.4,313.029c-10.6-2.142-41.25-7.968-45.714-4.619-5.412,4.06-3.425,22.079.731,27.2,3.084,3.8,24.077,4.884,36.266,4.18,1.478,1.68,3.122,3.448,3.122,3.448l.573-3.748a13.648,13.648,0,0,0,4.7-1.047c2.839-1.841,3.62-14.548,3.834-20.97A4.384,4.384,0,0,0,382.4,313.029Z" transform="translate(-8.701 -147.758)" fill="#ff788b"/>
    <rect id="Rectángulo_21155" data-name="Rectángulo 21155" width="124.041" height="9.867" rx="4.933" transform="translate(389.46 153.055)" fill="#515177"/>
    <g id="Grupo_73231" data-name="Grupo 73231" transform="translate(411.691 207.517)">
      <rect id="Rectángulo_21156" data-name="Rectángulo 21156" width="9.683" height="73.459" fill="#fff"/>
      <rect id="Rectángulo_21157" data-name="Rectángulo 21157" width="9.683" height="56.397" transform="translate(17.431 17.062)" fill="#7da2ff"/>
      <rect id="Rectángulo_21158" data-name="Rectángulo 21158" width="9.683" height="38.76" transform="translate(33.547 34.699)" fill="#fff"/>
      <rect id="Rectángulo_21159" data-name="Rectángulo 21159" width="9.683" height="38.76" transform="translate(50.321 34.699)" fill="#ffc655"/>
      <rect id="Rectángulo_21160" data-name="Rectángulo 21160" width="9.683" height="29.158" transform="translate(67.752 44.301)" fill="#fff"/>
    </g>
    <g id="Grupo_73232" data-name="Grupo 73232" transform="translate(509.093 196.265)">
      <path id="Trazado_166730" data-name="Trazado 166730" d="M1696.853,523.965h0a.211.211,0,0,1-.21-.213l.078-11.478a.211.211,0,0,1,.211-.21h0a.211.211,0,0,1,.21.213l-.078,11.479A.211.211,0,0,1,1696.853,523.965Z" transform="translate(-1696.642 -512.064)" fill="#fff"/>
    </g>
    <g id="Grupo_73233" data-name="Grupo 73233" transform="translate(389.223 198.372)">
      <path id="Trazado_166731" data-name="Trazado 166731" d="M786.438,539.926a.211.211,0,0,1-.211-.211V528.276a.211.211,0,0,1,.423,0v11.438A.211.211,0,0,1,786.438,539.926Z" transform="translate(-786.227 -528.065)" fill="#fff"/>
    </g>
    <g id="Grupo_73234" data-name="Grupo 73234" transform="translate(525.224 178.974)">
      <path id="Trazado_166732" data-name="Trazado 166732" d="M1825.69,385.078a.346.346,0,0,1-.255-.112l-2.781-3.008-2.9,3.013a.347.347,0,1,1-.5-.481l3.153-3.278a.352.352,0,0,1,.254-.106.346.346,0,0,1,.251.111l2.8,3.027,2.944-2.645a.347.347,0,0,1,.456-.006l2.585,2.195,2.754-2.944a.342.342,0,0,1,.27-.11.348.348,0,0,1,.259.135l2.459,3.186a.347.347,0,1,1-.55.424l-2.209-2.863-2.7,2.888a.347.347,0,0,1-.478.027l-2.606-2.212-2.973,2.671A.345.345,0,0,1,1825.69,385.078Z" transform="translate(-1819.158 -380.733)" fill="#fff"/>
    </g>
    <g id="Grupo_73235" data-name="Grupo 73235" transform="translate(525.224 186.797)">
      <path id="Trazado_166733" data-name="Trazado 166733" d="M1829.415,446.731a.347.347,0,0,1-.218-.077c-.569-.46-5.365-4.338-6.209-5.161a18.907,18.907,0,0,0-3.211,3.394.347.347,0,0,1-.543-.432c1.089-1.368,3.032-3.665,3.8-3.679a.5.5,0,0,1,.384.168c.3.35,3.6,3.06,5.926,4.939l3.512-4.96a.347.347,0,0,1,.585.029l2.066,3.64,3.7-4.319a.347.347,0,0,1,.5-.028l5.036,4.681,3.713-3.993a.347.347,0,0,1,.508.473l-3.949,4.247a.348.348,0,0,1-.491.018L1839.5,441l-3.788,4.42a.347.347,0,0,1-.565-.055l-2.04-3.6-3.41,4.816a.345.345,0,0,1-.283.146Z" transform="translate(-1819.158 -440.151)" fill="#fff"/>
    </g>
    <path id="Trazado_166734" data-name="Trazado 166734" d="M2066.7,378.132l-3.84,2.222.154-.864,3.427,5.681a.668.668,0,0,1,.013.667l-2.31,4.172a.666.666,0,1,1-1.165-.645l2.31-4.172.012.666-3.427-5.681a.657.657,0,0,1,.08-.784l.075-.08,3.015-3.255a1.341,1.341,0,1,1,1.968,1.823A1.376,1.376,0,0,1,2066.7,378.132Z" transform="translate(-1504.607 -197.328)" fill="#fff"/>
    <circle id="Elipse_4400" data-name="Elipse 4400" cx="1.08" cy="1.08" r="1.08" transform="translate(556.938 196.606) rotate(-45)" fill="#fff"/>
    <g id="Grupo_73236" data-name="Grupo 73236" transform="translate(334.346 165.347)">
      <path id="Trazado_166735" data-name="Trazado 166735" d="M429.74,357.748a.346.346,0,0,1-.221-.08l-3.914-3.243-3.243,2.684a.347.347,0,0,1-.468-.023L418.834,354l-4.467,2.347a.347.347,0,0,1-.424-.081l-3.931-4.566-2.66,4.516a.347.347,0,0,1-.6-.352l2.906-4.933a.347.347,0,0,1,.562-.05l4.067,4.724,4.45-2.338a.347.347,0,0,1,.408.063l3.018,3.043,3.22-2.665a.347.347,0,0,1,.443,0l3.913,3.242,4.473-3.727a.347.347,0,0,1,.444.533l-4.694,3.912A.347.347,0,0,1,429.74,357.748Z" transform="translate(-406.706 -350.761)" fill="#fff"/>
    </g>
    <g id="Grupo_73237" data-name="Grupo 73237" transform="translate(341.499 174.993)">
      <path id="Trazado_166736" data-name="Trazado 166736" d="M480.378,430.2a.346.346,0,0,1-.28-.142l-2.561-3.488-1.726,1.632a.347.347,0,0,1-.449.024l-3.7-2.821-3.528,2.816a.347.347,0,0,1-.492-.06l-2.555-3.34-3.537,1.983a.347.347,0,0,1-.339-.606l3.8-2.13a.347.347,0,0,1,.445.092l2.523,3.3,3.463-2.764a.347.347,0,0,1,.427,0l3.682,2.806,1.8-1.7a.347.347,0,0,1,.518.047l2.794,3.805a.347.347,0,0,1-.28.553Z" transform="translate(-461.031 -424.024)" fill="#fff"/>
    </g>
    <ellipse id="Elipse_4401" data-name="Elipse 4401" cx="4.181" cy="1.145" rx="4.181" ry="1.145" transform="translate(542.903 228.143) rotate(-50.107)" fill="#99f"/>
    <path id="Trazado_166737" data-name="Trazado 166737" d="M491.989,735.552c-1.633-1.633-2.594-3.319-2.146-3.766s2.133.514,3.766,2.146,2.594,3.319,2.146,3.766S493.622,737.185,491.989,735.552Z" transform="translate(-139.547 -506.496)" fill="#81a1ff"/>
    <path id="Trazado_166738" data-name="Trazado 166738" d="M765.179,424.888c-1.294-1.912-1.917-3.75-1.393-4.1s2,.909,3.291,2.821,1.917,3.75,1.393,4.1S766.473,426.8,765.179,424.888Z" transform="translate(-377.356 -236.485)" fill="#ffe07d"/>
    <g id="Grupo_73238" data-name="Grupo 73238" transform="translate(335.301 242.165)">
      <path id="Trazado_166739" data-name="Trazado 166739" d="M388.135,874.042a.222.222,0,0,1-.209-.146c-.137-.379-.223-.7-.3-.979-.265-.987-.386-1.438-2.287-2.388-2.654-1.326-2.654-2.908-2.654-6.73a2.257,2.257,0,0,0-.787-1.823c-1.563-1.306-4.922-.719-4.956-.713a.222.222,0,0,1-.079-.437c.146-.026,3.6-.63,5.319.809a2.681,2.681,0,0,1,.947,2.164c0,3.837,0,5.13,2.409,6.333,2.079,1.039,2.235,1.618,2.517,2.669.073.272.156.581.287.943a.222.222,0,0,1-.209.3Z" transform="translate(-376.682 -860.678)" fill="#9292e8"/>
    </g>
    <g id="Grupo_73239" data-name="Grupo 73239" transform="translate(542.842 248.848)">
      <path id="Trazado_166740" data-name="Trazado 166740" d="M1953.19,920.857a.234.234,0,0,1-.04,0,.222.222,0,0,1-.179-.258c.031-.173.79-4.255,3.04-5.266a3,3,0,0,1,2.89.37c2.548,1.557,5.018,2.132,6.956,1.62a4.209,4.209,0,0,0,2.7-2.1,7.607,7.607,0,0,1,4.461-3.641,2.677,2.677,0,0,1,2.017.084.222.222,0,1,1-.229.38,2.3,2.3,0,0,0-1.673-.036,7.152,7.152,0,0,0-4.188,3.427,4.7,4.7,0,0,1-2.977,2.313c-2.056.543-4.649-.05-7.3-1.671a2.587,2.587,0,0,0-2.477-.343c-2.039.915-2.778,4.9-2.785,4.94A.222.222,0,0,1,1953.19,920.857Z" transform="translate(-1952.968 -911.431)" fill="#ffd05c"/>
    </g>
    <g id="Grupo_73240" data-name="Grupo 73240" transform="translate(482.332 224.644)">
      <path id="Trazado_166741" data-name="Trazado 166741" d="M1496.52,735.246a.222.222,0,0,1-.206-.139l-2.905-7.2a.222.222,0,1,1,.411-.166l2.905,7.2a.222.222,0,0,1-.123.289A.22.22,0,0,1,1496.52,735.246Z" transform="translate(-1493.393 -727.603)" fill="#2e2b3f"/>
    </g>
    <g id="Grupo_73241" data-name="Grupo 73241" transform="translate(488.904 220.303)">
      <path id="Trazado_166742" data-name="Trazado 166742" d="M1543.527,707.384a.222.222,0,0,1-.222-.222V694.855a.222.222,0,1,1,.444,0v12.307A.222.222,0,0,1,1543.527,707.384Z" transform="translate(-1543.305 -694.633)" fill="#2e2b3f"/>
    </g>
    <g id="Grupo_73242" data-name="Grupo 73242" transform="translate(490.894 225.448)">
      <path id="Trazado_166743" data-name="Trazado 166743" d="M1558.638,741.317a.219.219,0,0,1-.085-.017.222.222,0,0,1-.119-.29l3-7.161a.222.222,0,1,1,.409.172l-3,7.161A.222.222,0,0,1,1558.638,741.317Z" transform="translate(-1558.416 -733.712)" fill="#2e2b3f"/>
    </g>
    <g id="Grupo_73243" data-name="Grupo 73243" transform="translate(428.311 289.303)">
      <path id="Trazado_166744" data-name="Trazado 166744" d="M1134.061,1219.975h-50.321a.643.643,0,0,1,0-1.286h50.321a.643.643,0,1,1,0,1.286Z" transform="translate(-1083.098 -1218.69)" fill="#515177"/>
    </g>
  </g>
</svg>
