<?xml version="1.0" encoding="utf-8"?>
<!-- Generator: Adobe Illustrator 26.0.1, SVG Export Plug-In . SVG Version: 6.00 Build 0)  -->
<svg version="1.1" id="Capa_1" xmlns="http://www.w3.org/2000/svg" xmlns:xlink="http://www.w3.org/1999/xlink" x="0px" y="0px"
	 viewBox="0 0 505 343" style="enable-background:new 0 0 505 343;" xml:space="preserve">
<style type="text/css">
	.st0{fill:#FFFFFF;}
	.st1{fill:#A0A603;}
	.st2{fill:#12263F;}
	.st3{fill:none;stroke:#707070;stroke-width:2;stroke-dasharray:2,2;}
	.st4{fill:none;stroke:#707070;}
	.st5{fill:none;stroke:#529AD9;stroke-width:3;}
	.st6{fill:#FF0000;}
</style>
<g id="Trazado_177493" transform="translate(-4271 -7842)">
	<path class="st0" d="M4774.5,8183.5h-502V7862c0-4.9,1.9-9.6,5.4-13.1s8.1-5.4,13.1-5.4h465c4.9,0,9.6,1.9,13.1,5.4
		s5.4,8.1,5.4,13.1V8183.5z"/>
	<path class="st1" d="M4291,7845c-4.5,0-8.8,1.8-12,5c-3.2,3.2-5,7.5-5,12v320h499v-320c0-4.5-1.8-8.8-5-12c-3.2-3.2-7.5-5-12-5
		H4291 M4291,7842h465c11,0,20,9,20,20v323h-505v-323C4271,7851,4280,7842,4291,7842z"/>
</g>
<path id="Trazado_177494" class="st2" d="M50,52v1.4h-0.2c-0.8,0-1.6,0.2-2.2,0.8c-0.6,0.6-0.9,1.3-1,2.1c0.5-0.6,1.3-0.9,2-0.8
	c0.8,0,1.6,0.3,2.1,0.9c0.5,0.7,0.8,1.5,0.8,2.4c0,0.9-0.3,1.8-0.9,2.5c-0.6,0.6-1.5,1-2.3,0.9c-0.9,0-1.8-0.4-2.4-1.1
	c-0.6-0.8-1-1.8-0.9-2.9v-0.6c-0.1-1.5,0.4-2.9,1.3-4.1c0.9-1,2.3-1.6,3.7-1.5H50z M48.2,56.7c-0.4,0-0.7,0.1-1,0.3
	c-0.3,0.2-0.5,0.5-0.7,0.8v0.5c0,0.6,0.1,1.2,0.5,1.8c0.3,0.4,0.7,0.7,1.2,0.7c0.5,0,0.9-0.2,1.2-0.6c0.3-0.4,0.5-0.9,0.4-1.5
	c0-0.5-0.1-1-0.4-1.5C49.1,57,48.6,56.7,48.2,56.7z M59.2,57.8c0.1,1.1-0.2,2.3-0.8,3.2c-0.6,0.7-1.5,1.2-2.4,1.1
	c-0.9,0.1-1.8-0.3-2.4-1.1c-0.6-0.9-0.9-2-0.8-3.1v-1.7c-0.1-1.1,0.2-2.3,0.8-3.2c0.6-0.7,1.5-1.1,2.5-1.1c0.9-0.1,1.8,0.3,2.4,1
	c0.6,0.9,0.9,2,0.8,3.1L59.2,57.8z M57.6,55.9c0-0.7-0.1-1.4-0.4-2c-0.4-0.7-1.4-0.9-2-0.4c-0.2,0.1-0.3,0.2-0.4,0.4
	c-0.3,0.6-0.4,1.3-0.4,1.9V58c0,0.7,0.1,1.4,0.4,2.1c0.2,0.4,0.7,0.7,1.2,0.7c0.5,0,0.9-0.2,1.2-0.6c0.3-0.6,0.4-1.3,0.4-2
	L57.6,55.9z M45.2,90.1l0.5-5h5.3v1.4h-4l-0.3,2.4c0.5-0.3,1-0.4,1.6-0.4c0.8,0,1.6,0.3,2.2,0.9c0.6,0.7,0.8,1.6,0.8,2.4
	c0,0.9-0.3,1.8-0.9,2.4c-0.6,0.6-1.5,0.9-2.4,0.9c-0.8,0-1.6-0.2-2.3-0.8c-0.6-0.5-1-1.3-1-2h1.6c0,0.4,0.2,0.8,0.5,1.1
	c0.3,0.3,0.7,0.4,1.1,0.4c0.5,0,0.9-0.2,1.2-0.5c0.3-0.4,0.5-1,0.4-1.5c0-0.5-0.1-1-0.5-1.4C49,90,48.5,89.8,48,89.8
	c-0.3,0-0.5,0-0.8,0.1c-0.3,0.1-0.5,0.3-0.7,0.5L45.2,90.1z M59.2,90.8c0.1,1.1-0.2,2.3-0.8,3.2c-0.6,0.7-1.5,1.2-2.4,1.1
	c-0.9,0.1-1.8-0.3-2.4-1.1c-0.6-0.9-0.9-2-0.8-3.1v-1.7c-0.1-1.1,0.2-2.3,0.8-3.2c0.6-0.7,1.5-1.1,2.5-1.1c0.9-0.1,1.8,0.3,2.4,1
	c0.6,0.9,0.9,2,0.8,3.1L59.2,90.8z M57.6,88.9c0-0.7-0.1-1.4-0.4-2.1c-0.4-0.7-1.4-0.9-2-0.4c-0.2,0.1-0.3,0.2-0.4,0.4
	c-0.3,0.6-0.4,1.3-0.4,1.9V91c0,0.7,0.1,1.4,0.4,2.1c0.2,0.4,0.7,0.7,1.2,0.7c0.5,0,0.9-0.2,1.2-0.6c0.3-0.6,0.4-1.3,0.4-2
	L57.6,88.9z M50.4,124.4h1.2v1.3h-1.2v2.2h-1.7v-2.2h-4.3l0-1l4.3-6.7h1.7L50.4,124.4z M46.1,124.4h2.6v-4.1l-0.1,0.2L46.1,124.4z
	 M59.2,123.8c0.1,1.1-0.2,2.3-0.8,3.2c-0.6,0.7-1.5,1.2-2.4,1.1c-0.9,0.1-1.8-0.3-2.4-1.1c-0.6-0.9-0.9-2-0.8-3.1v-1.7
	c-0.1-1.1,0.2-2.3,0.8-3.2c0.6-0.7,1.5-1.1,2.5-1.1c0.9-0.1,1.8,0.3,2.4,1c0.6,0.9,0.9,2,0.8,3.1L59.2,123.8z M57.6,121.9
	c0-0.7-0.1-1.4-0.4-2.1c-0.4-0.7-1.4-0.9-2-0.4c-0.2,0.1-0.3,0.2-0.4,0.4c-0.3,0.6-0.4,1.3-0.4,1.9v2.3c0,0.7,0.1,1.4,0.4,2.1
	c0.2,0.4,0.7,0.7,1.2,0.7c0.5,0,0.9-0.2,1.2-0.6c0.3-0.6,0.4-1.3,0.4-2L57.6,121.9z M46.7,155.3h1c0.4,0,0.9-0.1,1.2-0.4
	c0.3-0.3,0.5-0.7,0.4-1.1c0-0.4-0.1-0.8-0.4-1.1c-0.3-0.3-0.7-0.4-1.1-0.4c-0.4,0-0.8,0.1-1.1,0.4c-0.3,0.3-0.4,0.6-0.4,1h-1.7
	c0-0.5,0.1-1,0.4-1.4c0.3-0.4,0.7-0.8,1.1-1c0.5-0.2,1.1-0.4,1.6-0.4c0.8,0,1.7,0.2,2.3,0.7c0.6,0.5,0.9,1.3,0.9,2.1
	c0,0.5-0.2,0.9-0.4,1.3c-0.3,0.4-0.7,0.7-1.1,0.9c0.5,0.2,0.9,0.5,1.2,0.9c0.3,0.4,0.4,0.9,0.4,1.4c0,0.8-0.3,1.6-0.9,2.1
	c-0.7,0.6-1.5,0.8-2.4,0.8c-0.9,0-1.7-0.2-2.4-0.8c-0.6-0.5-0.9-1.3-0.9-2h1.7c0,0.4,0.1,0.8,0.4,1.1c0.3,0.3,0.8,0.4,1.2,0.4
	c0.4,0,0.9-0.1,1.2-0.4c0.3-0.3,0.5-0.7,0.4-1.2c0-0.5-0.1-0.9-0.5-1.2c-0.4-0.3-0.9-0.5-1.4-0.4h-1V155.3z M59.2,156.8
	c0.1,1.1-0.2,2.3-0.8,3.2c-0.6,0.7-1.5,1.2-2.4,1.1c-0.9,0.1-1.8-0.3-2.4-1.1c-0.6-0.9-0.9-2-0.8-3.1v-1.7c-0.1-1.1,0.2-2.3,0.8-3.2
	c0.6-0.7,1.5-1.1,2.5-1.1c0.9-0.1,1.8,0.3,2.4,1c0.6,0.9,0.9,2,0.8,3.1L59.2,156.8z M57.6,155c0-0.7-0.1-1.4-0.4-2.1
	c-0.4-0.7-1.4-0.9-2-0.4c-0.2,0.1-0.3,0.2-0.4,0.4c-0.3,0.6-0.4,1.3-0.4,1.9v2.3c0,0.7,0.1,1.4,0.4,2.1c0.2,0.4,0.7,0.7,1.2,0.7
	c0.5,0,0.9-0.2,1.2-0.6c0.3-0.6,0.4-1.3,0.4-2L57.6,155z M51.5,194h-6.7v-1.1l3.3-3.6c0.4-0.4,0.7-0.9,1-1.3
	c0.2-0.3,0.3-0.7,0.3-1.1c0-0.4-0.1-0.8-0.4-1.1c-0.3-0.3-0.7-0.5-1.1-0.4c-0.5,0-0.9,0.2-1.3,0.5c-0.3,0.4-0.5,0.9-0.4,1.3h-1.7
	c0-0.6,0.1-1.1,0.4-1.6c0.3-0.5,0.7-0.9,1.2-1.1c0.5-0.3,1.2-0.4,1.8-0.4c0.8,0,1.6,0.2,2.3,0.7c0.6,0.5,0.9,1.2,0.8,2
	c0,0.5-0.2,1.1-0.4,1.6c-0.4,0.7-0.8,1.3-1.4,1.9l-2.4,2.6h4.6V194z M59.2,189.8c0.1,1.1-0.2,2.3-0.8,3.2c-0.6,0.7-1.5,1.2-2.4,1.1
	c-0.9,0.1-1.8-0.3-2.4-1.1c-0.6-0.9-0.9-2-0.8-3.1v-1.7c-0.1-1.1,0.2-2.3,0.8-3.2c0.6-0.7,1.5-1.1,2.5-1.1c0.9-0.1,1.8,0.3,2.4,1
	c0.6,0.9,0.9,2,0.8,3.1L59.2,189.8z M57.6,188c0-0.7-0.1-1.4-0.4-2.1c-0.4-0.7-1.4-0.9-2-0.4c-0.2,0.1-0.3,0.2-0.4,0.4
	c-0.3,0.6-0.4,1.3-0.4,1.9v2.3c0,0.7,0.1,1.4,0.4,2.1c0.2,0.4,0.7,0.7,1.2,0.7c0.5,0,0.9-0.2,1.2-0.6c0.3-0.6,0.4-1.3,0.4-2
	L57.6,188z M49.3,227h-1.7v-8l-2.4,0.8v-1.4l3.9-1.4h0.2L49.3,227z M59.2,222.8c0.1,1.1-0.2,2.3-0.8,3.2c-0.6,0.7-1.5,1.2-2.4,1.1
	c-0.9,0.1-1.8-0.3-2.4-1.1c-0.6-0.9-0.9-2-0.8-3.1v-1.7c-0.1-1.1,0.2-2.3,0.8-3.2c0.6-0.7,1.5-1.1,2.5-1.1c0.9-0.1,1.8,0.3,2.4,1
	c0.6,0.9,0.9,2,0.8,3.1L59.2,222.8z M57.6,221c0-0.7-0.1-1.4-0.4-2.1c-0.4-0.7-1.4-0.9-2-0.4c-0.2,0.1-0.3,0.2-0.4,0.4
	c-0.3,0.6-0.4,1.3-0.4,1.9v2.3c0,0.7,0.1,1.4,0.4,2.1c0.2,0.4,0.7,0.7,1.2,0.7c0.5,0,0.9-0.2,1.2-0.6c0.3-0.6,0.4-1.3,0.4-2
	L57.6,221z M49.2,255.1l0.5-5h5.3v1.4h-4l-0.3,2.4c0.5-0.3,1-0.4,1.6-0.4c0.8,0,1.6,0.3,2.2,0.9c0.6,0.7,0.8,1.6,0.8,2.4
	c0,0.9-0.3,1.8-0.9,2.4c-0.6,0.6-1.5,0.9-2.4,0.9c-0.8,0-1.6-0.2-2.3-0.8c-0.6-0.5-1-1.3-1-2h1.6c0,0.4,0.2,0.8,0.5,1.1
	c0.3,0.3,0.7,0.4,1.1,0.4c0.5,0,0.9-0.2,1.2-0.5c0.3-0.4,0.5-1,0.4-1.5c0-0.5-0.1-1-0.5-1.4c-0.3-0.4-0.8-0.6-1.3-0.5
	c-0.3,0-0.5,0-0.8,0.1c-0.3,0.1-0.5,0.3-0.7,0.5L49.2,255.1z"/>
<path id="Trazado_177495" class="st2" d="M94.2,296h-1.7v-8l-2.4,0.8v-1.4L94,286h0.2V296z M118.3,296h-6.7v-1.1l3.3-3.6
	c0.4-0.4,0.7-0.9,1-1.3c0.2-0.3,0.3-0.7,0.3-1.1c0-0.4-0.1-0.8-0.4-1.1c-0.3-0.3-0.7-0.5-1.1-0.4c-0.5,0-0.9,0.2-1.3,0.5
	c-0.3,0.4-0.5,0.9-0.4,1.3h-1.7c0-0.6,0.1-1.1,0.4-1.6c0.3-0.5,0.7-0.9,1.2-1.1c0.5-0.3,1.2-0.4,1.8-0.4c0.8,0,1.6,0.2,2.3,0.7
	c0.6,0.5,0.9,1.2,0.8,2c0,0.5-0.2,1.1-0.4,1.6c-0.4,0.7-0.8,1.3-1.4,1.9l-2.4,2.6h4.6L118.3,296z M135.5,290.3h1
	c0.4,0,0.9-0.1,1.2-0.4c0.3-0.3,0.5-0.7,0.4-1.1c0-0.4-0.1-0.8-0.4-1.1c-0.3-0.3-0.7-0.4-1.1-0.4c-0.4,0-0.8,0.1-1.1,0.4
	c-0.3,0.3-0.4,0.6-0.4,1h-1.7c0-0.5,0.1-1,0.4-1.4c0.3-0.4,0.7-0.8,1.1-1c0.5-0.2,1.1-0.4,1.6-0.4c0.8,0,1.7,0.2,2.3,0.7
	c0.6,0.5,0.9,1.3,0.8,2.1c0,0.5-0.2,0.9-0.4,1.3c-0.3,0.4-0.7,0.7-1.1,0.9c0.5,0.2,0.9,0.5,1.2,0.9c0.3,0.4,0.4,0.9,0.4,1.4
	c0,0.8-0.3,1.6-0.9,2.1c-1.4,1-3.3,1.1-4.8,0c-0.6-0.5-0.9-1.3-0.9-2h1.7c0,0.4,0.1,0.8,0.4,1.1c0.3,0.3,0.8,0.4,1.2,0.4
	c0.4,0,0.9-0.1,1.2-0.4c0.3-0.3,0.5-0.7,0.4-1.2c0-0.5-0.1-0.9-0.5-1.2c-0.4-0.3-0.9-0.5-1.4-0.4h-1L135.5,290.3z M161.1,292.5h1.2
	v1.3h-1.2v2.2h-1.7v-2.2h-4.3l0-1l4.3-6.7h1.7L161.1,292.5z M156.8,292.5h2.6v-4.2l-0.1,0.2L156.8,292.5z M177.8,291.1l0.5-5h5.3
	v1.4h-4l-0.3,2.4c0.5-0.3,1-0.4,1.6-0.4c0.8,0,1.6,0.3,2.2,0.9c0.6,0.7,0.8,1.6,0.8,2.4c0,0.9-0.3,1.8-0.9,2.4
	c-0.6,0.6-1.5,0.9-2.4,0.9c-0.8,0-1.6-0.2-2.3-0.8c-0.6-0.5-1-1.3-1-2h1.6c0,0.4,0.2,0.8,0.5,1.1c0.3,0.3,0.7,0.4,1.1,0.4
	c0.5,0,0.9-0.2,1.2-0.5c0.3-0.4,0.5-1,0.4-1.5c0-0.5-0.1-1-0.5-1.4c-0.3-0.4-0.8-0.6-1.3-0.5c-0.5,0-1.1,0.2-1.4,0.6L177.8,291.1z
	 M204.4,286v1.4h-0.2c-0.8,0-1.6,0.2-2.2,0.8c-0.6,0.6-0.9,1.3-1,2.1c0.5-0.6,1.3-0.9,2-0.8c0.8,0,1.6,0.3,2.1,0.9
	c0.5,0.7,0.8,1.5,0.8,2.4c0,0.9-0.3,1.8-0.9,2.5c-0.6,0.6-1.5,1-2.3,0.9c-0.9,0-1.8-0.4-2.4-1.1c-0.6-0.8-1-1.8-0.9-2.9v-0.6
	c-0.1-1.5,0.4-2.9,1.3-4.1c0.9-1,2.3-1.6,3.7-1.5H204.4z M202.6,290.8c-0.4,0-0.7,0.1-1,0.3c-0.3,0.2-0.5,0.5-0.7,0.8v0.5
	c0,0.6,0.1,1.2,0.5,1.8c0.3,0.4,0.7,0.7,1.2,0.7c0.5,0,0.9-0.2,1.2-0.6c0.3-0.4,0.5-0.9,0.4-1.5c0-0.5-0.1-1-0.4-1.5
	C203.5,291,203.1,290.7,202.6,290.8z M227.8,287l-4,9h-1.7l4-8.6h-5.1V286h6.9L227.8,287z M249.3,288.7c0,0.5-0.1,0.9-0.4,1.3
	c-0.3,0.4-0.6,0.7-1,0.9c0.5,0.2,0.9,0.6,1.2,1c0.3,0.4,0.4,0.9,0.4,1.4c0,0.8-0.3,1.6-0.9,2.1c-1.4,1-3.3,1-4.7,0
	c-0.6-0.5-0.9-1.3-0.9-2.1c0-0.5,0.1-1,0.4-1.4c0.3-0.4,0.7-0.8,1.2-1c-0.4-0.2-0.8-0.5-1-0.9c-0.3-0.4-0.4-0.8-0.4-1.3
	c0-0.8,0.3-1.5,0.8-2c1.3-1,3.1-1,4.4,0C249.1,287.2,249.4,287.9,249.3,288.7L249.3,288.7z M247.9,293.2c0-0.4-0.1-0.9-0.4-1.2
	c-0.3-0.3-0.7-0.5-1.2-0.5c-0.4,0-0.9,0.1-1.2,0.5c-0.3,0.3-0.5,0.8-0.4,1.2c0,0.4,0.1,0.9,0.4,1.2c0.7,0.6,1.7,0.6,2.4,0
	C247.8,294.1,247.9,293.6,247.9,293.2z M247.7,288.7c0-0.4-0.1-0.8-0.4-1.1c-0.6-0.6-1.5-0.6-2,0c-0.3,0.3-0.4,0.7-0.4,1.1
	c0,0.4,0.1,0.8,0.4,1.1c0.6,0.5,1.5,0.5,2,0C247.6,289.5,247.7,289.1,247.7,288.7L247.7,288.7z M269.7,291.8c-1,1.1-2.7,1.2-3.8,0.2
	c-0.1-0.1-0.1-0.1-0.2-0.2c-0.5-0.7-0.8-1.5-0.8-2.4c0-0.6,0.1-1.2,0.4-1.8c0.2-0.5,0.6-0.9,1.1-1.2c0.5-0.3,1.1-0.5,1.7-0.4
	c0.9,0,1.8,0.4,2.4,1.1c0.6,0.9,0.9,1.9,0.9,3v0.5c0.1,1.5-0.3,2.9-1.2,4.1c-0.9,1-2.3,1.5-3.6,1.4h-0.2v-1.4h0.2
	c0.8,0,1.6-0.2,2.3-0.7C269.4,293.4,269.7,292.6,269.7,291.8L269.7,291.8z M268.1,291.4c0.3,0,0.7-0.1,0.9-0.3
	c0.3-0.2,0.5-0.5,0.7-0.8v-0.6c0-0.6-0.1-1.2-0.5-1.8c-0.2-0.4-0.7-0.7-1.2-0.7c-0.5,0-0.9,0.2-1.1,0.6c-0.3,0.4-0.4,1-0.4,1.5
	c0,0.5,0.1,1.1,0.4,1.5C267.2,291.2,267.6,291.4,268.1,291.4L268.1,291.4z M291.4,296h-1.7v-8l-2.4,0.8v-1.4l3.9-1.4h0.2L291.4,296z
	 M301.3,291.8c0.1,1.1-0.2,2.3-0.8,3.2c-0.6,0.7-1.5,1.2-2.4,1.1c-0.9,0.1-1.8-0.3-2.4-1.1c-0.6-0.9-0.9-2-0.8-3.1v-1.7
	c-0.1-1.1,0.2-2.3,0.8-3.2c1.3-1.4,3.4-1.4,4.7-0.2c0.1,0,0.1,0.1,0.2,0.2c0.6,0.9,0.9,2,0.8,3.1L301.3,291.8z M299.6,289.9
	c0-0.7-0.1-1.4-0.4-2.1c-0.4-0.7-1.4-0.9-2-0.4c-0.2,0.1-0.3,0.2-0.4,0.4c-0.3,0.6-0.4,1.3-0.4,1.9v2.3c0,0.7,0.1,1.4,0.4,2.1
	c0.2,0.4,0.7,0.7,1.2,0.7c0.5,0,0.9-0.2,1.2-0.6c0.3-0.6,0.4-1.3,0.4-2L299.6,289.9z M321.2,296h-1.7v-8l-2.4,0.8v-1.4l3.9-1.4h0.2
	L321.2,296z M329.2,296h-1.7v-8l-2.4,0.8v-1.4l3.9-1.4h0.2L329.2,296z M351.1,296h-1.7v-8l-2.4,0.8v-1.4l3.9-1.4h0.2L351.1,296z
	 M361.2,296h-6.7v-1.1l3.3-3.6c0.4-0.4,0.7-0.9,1-1.3c0.2-0.3,0.3-0.7,0.3-1.1c0-0.4-0.1-0.8-0.4-1.1c-0.3-0.3-0.7-0.5-1.1-0.4
	c-0.5,0-0.9,0.2-1.3,0.5c-0.3,0.4-0.5,0.9-0.4,1.3h-1.7c0-0.6,0.1-1.1,0.4-1.6c0.3-0.5,0.7-0.9,1.2-1.1c0.5-0.3,1.2-0.4,1.8-0.4
	c0.8,0,1.6,0.2,2.3,0.7c0.6,0.5,0.9,1.2,0.8,2c0,0.5-0.2,1.1-0.4,1.6c-0.4,0.7-0.8,1.3-1.4,1.9l-2.4,2.6h4.6L361.2,296z M380.9,296
	h-1.7v-8l-2.4,0.8v-1.4l3.9-1.4h0.2L380.9,296z M386.3,290.3h1c0.4,0,0.9-0.1,1.2-0.4c0.3-0.3,0.5-0.7,0.5-1.1
	c0-0.4-0.1-0.8-0.4-1.1c-0.3-0.3-0.7-0.4-1.1-0.4c-0.4,0-0.8,0.1-1.1,0.4c-0.3,0.3-0.4,0.6-0.4,1h-1.7c0-0.5,0.1-1,0.4-1.4
	c0.3-0.4,0.7-0.8,1.1-1c0.5-0.2,1.1-0.4,1.6-0.4c0.8,0,1.7,0.2,2.3,0.7c0.6,0.5,0.9,1.3,0.9,2.1c0,0.5-0.2,0.9-0.4,1.3
	c-0.3,0.4-0.7,0.7-1.1,0.9c0.5,0.2,0.9,0.5,1.2,0.9c0.3,0.4,0.4,0.9,0.4,1.4c0,0.8-0.3,1.6-0.9,2.1c-1.4,1-3.3,1.1-4.8,0
	c-0.6-0.5-0.9-1.3-0.9-2h1.7c0,0.4,0.1,0.8,0.4,1.1c0.3,0.3,0.8,0.4,1.2,0.4c0.4,0,0.9-0.1,1.2-0.4c0.3-0.3,0.5-0.7,0.4-1.2
	c0-0.5-0.1-0.9-0.5-1.2c-0.4-0.3-0.9-0.5-1.4-0.4h-1L386.3,290.3z M410.8,296h-1.7v-8l-2.4,0.8v-1.4l3.9-1.4h0.2L410.8,296z
	 M419.9,292.5h1.2v1.3h-1.2v2.2h-1.7v-2.2h-4.3l0-1l4.3-6.7h1.7L419.9,292.5z M415.6,292.5h2.6v-4.2l-0.1,0.2L415.6,292.5z
	 M440.7,296H439v-8l-2.4,0.8v-1.4l3.9-1.4h0.2L440.7,296z M444.6,291.1l0.5-5h5.3v1.4h-4l-0.3,2.4c0.5-0.3,1-0.4,1.6-0.4
	c0.8,0,1.6,0.3,2.2,0.9c0.6,0.7,0.8,1.6,0.8,2.4c0,0.9-0.3,1.8-0.9,2.4c-0.6,0.6-1.5,0.9-2.4,0.9c-0.8,0-1.6-0.2-2.3-0.8
	c-0.6-0.5-1-1.3-1-2h1.6c0,0.4,0.2,0.8,0.5,1.1c0.3,0.3,0.7,0.4,1.1,0.4c0.5,0,0.9-0.2,1.2-0.5c0.3-0.4,0.5-1,0.4-1.5
	c0-0.5-0.1-1-0.5-1.4c-0.3-0.4-0.8-0.6-1.3-0.5c-0.5,0-1.1,0.2-1.4,0.6L444.6,291.1z"/>
<path id="Trazado_166247" class="st3" d="M65,58h29.2v216.4"/>
<path id="Trazado_166248" class="st3" d="M67.4,91.2h48.4v183.2"/>
<path id="Trazado_166249" class="st3" d="M65,124.8h72.4v147.7"/>
<path id="Trazado_166250" class="st3" d="M65,156.5h94v117.9"/>
<path id="Trazado_166251" class="st3" d="M67.4,190.8H204v83.6"/>
<path id="Trazado_166252" class="st3" d="M65,223.2h230.6v50.3"/>
<path id="Trazado_166253" class="st3" d="M65,254.8h378.6v31.6"/>
<path id="Trazado_177496" class="st3" d="M181.5,272.5v-94"/>
<path id="Trazado_177497" class="st4" d="M65.5,39.5v238"/>
<path id="Trazado_177498" class="st4" d="M60.5,273.5h409"/>
<path id="Trazado_166254" class="st5" d="M94.2,55l22.2,33.6l21.6,34l20.4,31.6l23.2,22l23.2,12l90,32l147.6,32"/>
<g id="Trazado_177499" transform="translate(-4181 -7788)">
	<path class="st0" d="M4275,7849.5c-1.9,0-3.5-1.6-3.5-3.5s1.6-3.5,3.5-3.5s3.5,1.6,3.5,3.5S4276.9,7849.5,4275,7849.5z"/>
	<path class="st1" d="M4275,7843c-1.7,0-3,1.3-3,3s1.3,3,3,3s3-1.3,3-3S4276.7,7843,4275,7843 M4275,7842c2.2,0,4,1.8,4,4
		s-1.8,4-4,4s-4-1.8-4-4S4272.8,7842,4275,7842z"/>
</g>
<g id="Trazado_177500" transform="translate(-4159 -7755)">
	<path class="st0" d="M4275,7849.5c-1.9,0-3.5-1.6-3.5-3.5s1.6-3.5,3.5-3.5s3.5,1.6,3.5,3.5S4276.9,7849.5,4275,7849.5z"/>
	<path class="st1" d="M4275,7843c-1.7,0-3,1.3-3,3s1.3,3,3,3s3-1.3,3-3S4276.7,7843,4275,7843 M4275,7842c2.2,0,4,1.8,4,4
		s-1.8,4-4,4s-4-1.8-4-4S4272.8,7842,4275,7842z"/>
</g>
<g id="Trazado_177501" transform="translate(-4137 -7722)">
	<path class="st0" d="M4275,7849.5c-1.9,0-3.5-1.6-3.5-3.5s1.6-3.5,3.5-3.5s3.5,1.6,3.5,3.5S4276.9,7849.5,4275,7849.5z"/>
	<path class="st1" d="M4275,7843c-1.7,0-3,1.3-3,3s1.3,3,3,3s3-1.3,3-3S4276.7,7843,4275,7843 M4275,7842c2.2,0,4,1.8,4,4
		s-1.8,4-4,4s-4-1.8-4-4S4272.8,7842,4275,7842z"/>
</g>
<g id="Trazado_177502" transform="translate(-4116 -7689)">
	<path class="st0" d="M4275,7849.5c-1.9,0-3.5-1.6-3.5-3.5s1.6-3.5,3.5-3.5s3.5,1.6,3.5,3.5S4276.9,7849.5,4275,7849.5z"/>
	<path class="st1" d="M4275,7843c-1.7,0-3,1.3-3,3s1.3,3,3,3s3-1.3,3-3S4276.7,7843,4275,7843 M4275,7842c2.2,0,4,1.8,4,4
		s-1.8,4-4,4s-4-1.8-4-4S4272.8,7842,4275,7842z"/>
</g>
<g id="Trazado_177503" transform="translate(-4071 -7655)">
	<path class="st0" d="M4275,7849.5c-1.9,0-3.5-1.6-3.5-3.5s1.6-3.5,3.5-3.5s3.5,1.6,3.5,3.5S4276.9,7849.5,4275,7849.5z"/>
	<path class="st1" d="M4275,7843c-1.7,0-3,1.3-3,3s1.3,3,3,3s3-1.3,3-3S4276.7,7843,4275,7843 M4275,7842c2.2,0,4,1.8,4,4
		s-1.8,4-4,4s-4-1.8-4-4S4272.8,7842,4275,7842z"/>
</g>
<g id="Trazado_177504" transform="translate(-3979 -7623)">
	<path class="st0" d="M4275,7849.5c-1.9,0-3.5-1.6-3.5-3.5s1.6-3.5,3.5-3.5s3.5,1.6,3.5,3.5S4276.9,7849.5,4275,7849.5z"/>
	<path class="st1" d="M4275,7843c-1.7,0-3,1.3-3,3s1.3,3,3,3s3-1.3,3-3S4276.7,7843,4275,7843 M4275,7842c2.2,0,4,1.8,4,4
		s-1.8,4-4,4s-4-1.8-4-4S4272.8,7842,4275,7842z"/>
</g>
<g id="Trazado_177505" transform="translate(-3833 -7591)">
	<path class="st0" d="M4275,7849.5c-1.9,0-3.5-1.6-3.5-3.5s1.6-3.5,3.5-3.5s3.5,1.6,3.5,3.5S4276.9,7849.5,4275,7849.5z"/>
	<path class="st1" d="M4275,7843c-1.7,0-3,1.3-3,3s1.3,3,3,3s3-1.3,3-3S4276.7,7843,4275,7843 M4275,7842c2.2,0,4,1.8,4,4
		s-1.8,4-4,4s-4-1.8-4-4S4272.8,7842,4275,7842z"/>
</g>
<g id="Grupo_72895" transform="translate(-5079 -11701)">
	<path id="Trazado_166255" class="st6" d="M5111.5,11862.1h-3v-26.1h3V11862.1z"/>
	<g id="Polígono_1" transform="translate(834 3994)">
		<path class="st0" d="M4280.2,7850.5h-8.3l4.2-7.5L4280.2,7850.5z"/>
		<path class="st6" d="M4276,7844.1l-3.3,5.9h6.6L4276,7844.1 M4276,7842l5,9h-10L4276,7842z"/>
	</g>
</g>
<g id="Grupo_72896" transform="matrix(0.719, -0.695, 0.695, 0.719, -7488.312, -9995.936)">
	<path id="Trazado_166255-2" class="st6" d="M-1538.9,12626.9h-3v-26.1h3V12626.9z"/>
	<g id="Polígono_1-2" transform="translate(834 3991)">
		<path class="st0" d="M-2370.2,8615.4h-8.3l4.2-7.5L-2370.2,8615.4z"/>
		<path class="st6" d="M-2374.4,8608.9l-3.3,5.9h6.6L-2374.4,8608.9 M-2374.4,8606.9l5,9h-10L-2374.4,8606.9z"/>
	</g>
</g>
<g id="Grupo_72897" transform="translate(-8129.525 -6695.419) rotate(-90)">
	<path id="Trazado_166255-3" class="st6" d="M-7001.5,8291.1h-3v-26.1h3V8291.1z"/>
	<g id="Polígono_1-3" transform="translate(834 3991)">
		<path class="st0" d="M-7832.8,4279.5h-8.3l4.2-7.5L-7832.8,4279.5z"/>
		<path class="st6" d="M-7837,4273.1l-3.3,5.9h6.6L-7837,4273.1 M-7837,4271l5,9h-10L-7837,4271z"/>
	</g>
</g>
<path id="Trazado_177506" class="st2" d="M30.7,24.5L29.9,29h-1.5l2-11.4l3.8,0c1-0.1,2,0.3,2.7,0.9c0.6,0.7,0.9,1.6,0.8,2.5
	c0,1-0.5,1.9-1.3,2.6c-0.9,0.7-2,1-3.1,0.9L30.7,24.5z M30.9,23.3l2.5,0c0.7,0,1.4-0.2,2-0.6c0.5-0.4,0.8-1,0.9-1.7
	c0.1-0.6,0-1.1-0.4-1.6c-0.4-0.4-1-0.6-1.5-0.6l-2.7,0L30.9,23.3z M42.9,24.4c0-1.1,0.2-2.3,0.5-3.4c0.3-1.1,0.8-2.1,1.4-3
	c0.5-0.8,1.2-1.4,1.9-1.9l0.3,1c-0.9,0.7-1.5,1.6-1.9,2.7c-0.5,1.3-0.8,2.6-0.8,4l0,0.7c0,1.8,0.3,3.6,1.1,5.2
	c0.4,0.8,0.9,1.5,1.6,2.1l-0.3,0.9c-0.8-0.5-1.5-1.1-2-1.9C43.5,28.9,42.8,26.6,42.9,24.4z M55.6,24.9c0.1,1.1-0.3,2.2-0.9,3.1
	c-0.6,0.8-1.4,1.2-2.4,1.2c-0.9,0-1.8-0.3-2.4-1v4.1h-1.4V20.5h1.3l0.1,0.9c0.6-0.7,1.5-1.1,2.5-1.1c0.9,0,1.8,0.4,2.4,1.1
	c0.6,0.9,1,2.1,0.9,3.2L55.6,24.9z M54.1,24.7c0-0.8-0.2-1.6-0.6-2.3c-0.4-0.5-1-0.9-1.7-0.8c-0.8,0-1.6,0.4-2,1.2v4
	c0.4,0.7,1.2,1.2,2,1.2c0.7,0,1.3-0.3,1.7-0.8C54,26.4,54.2,25.6,54.1,24.7z M61.5,21.8c-0.2,0-0.5-0.1-0.7-0.1
	c-0.8-0.1-1.6,0.4-1.9,1.2v6h-1.4v-8.5h1.4l0,1c0.4-0.7,1.2-1.2,2-1.1c0.2,0,0.4,0,0.6,0.1L61.5,21.8z M66.2,29.2
	c-1.1,0-2.1-0.4-2.8-1.1c-0.7-0.8-1.1-1.9-1.1-3v-0.3c0-0.8,0.2-1.5,0.5-2.2c0.3-0.6,0.8-1.2,1.3-1.5c0.6-0.4,1.2-0.6,1.9-0.6
	c1-0.1,1.9,0.3,2.6,1.1c0.7,0.9,1,2,0.9,3.1v0.6h-5.7c0,0.7,0.2,1.5,0.7,2c0.5,0.5,1.1,0.8,1.8,0.8c0.5,0,0.9-0.1,1.3-0.3
	c0.4-0.2,0.7-0.5,0.9-0.8l0.9,0.7C68.7,28.6,67.4,29.2,66.2,29.2L66.2,29.2z M66,21.6c-0.6,0-1.1,0.2-1.5,0.6
	c-0.4,0.5-0.7,1.1-0.7,1.8H68v-0.1c0-0.6-0.2-1.2-0.6-1.7C67.1,21.8,66.5,21.6,66,21.6L66,21.6z M74.5,28c0.5,0,1-0.2,1.4-0.5
	c0.4-0.3,0.6-0.7,0.6-1.2h1.4c0,0.5-0.2,1-0.5,1.4c-0.3,0.4-0.7,0.8-1.2,1c-0.5,0.3-1.1,0.4-1.6,0.4c-1,0-2.1-0.4-2.7-1.2
	c-0.7-0.9-1.1-2-1-3.2v-0.2c0-0.8,0.1-1.5,0.5-2.2c0.3-0.6,0.7-1.1,1.3-1.5c0.6-0.4,1.3-0.5,2-0.5c0.9,0,1.7,0.3,2.4,0.9
	c0.6,0.6,1,1.4,1,2.2h-1.4c0-0.5-0.2-1-0.6-1.3c-0.4-0.4-0.9-0.5-1.4-0.5c-0.7,0-1.3,0.3-1.7,0.8c-0.4,0.7-0.7,1.5-0.6,2.3v0.3
	c-0.1,0.8,0.2,1.6,0.6,2.2C73.2,27.7,73.9,28,74.5,28L74.5,28z M81.1,29h-1.4v-8.5h1.4V29z M79.5,18.3c0-0.2,0.1-0.4,0.2-0.6
	c0.2-0.2,0.4-0.3,0.6-0.2c0.2,0,0.5,0.1,0.6,0.2c0.1,0.2,0.2,0.4,0.2,0.6c0,0.2-0.1,0.4-0.2,0.6c-0.2,0.2-0.4,0.3-0.6,0.2
	c-0.2,0-0.5-0.1-0.6-0.2C79.6,18.7,79.5,18.5,79.5,18.3z M83,24.7c0-0.8,0.2-1.5,0.5-2.2c0.3-0.6,0.8-1.2,1.4-1.5
	c0.6-0.4,1.3-0.6,2-0.5c1.1,0,2.1,0.4,2.8,1.2c0.7,0.9,1.1,2,1.1,3.2v0.1c0,0.8-0.1,1.5-0.5,2.2c-0.3,0.6-0.8,1.2-1.4,1.5
	c-0.6,0.4-1.3,0.6-2,0.5c-1.1,0-2.1-0.4-2.8-1.2c-0.7-0.9-1.1-2-1.1-3.2V24.7z M84.5,24.9c0,0.8,0.2,1.6,0.7,2.3
	c0.7,1,2.1,1.1,3.1,0.4c0.1-0.1,0.3-0.3,0.4-0.4c0.5-0.7,0.7-1.6,0.6-2.4c0-0.8-0.2-1.6-0.7-2.3c-0.4-0.6-1.1-0.9-1.8-0.9
	c-0.7,0-1.3,0.3-1.7,0.9C84.6,23.2,84.4,24,84.5,24.9L84.5,24.9z M95.8,24.5c0,1.1-0.1,2.3-0.5,3.3c-0.3,1.1-0.8,2.1-1.4,2.9
	c-0.5,0.8-1.2,1.4-2,1.9l-0.3-0.9c0.9-0.8,1.6-1.7,1.9-2.9c0.5-1.4,0.8-2.8,0.7-4.3v-0.2c0-1-0.1-2.1-0.3-3.1
	c-0.2-0.9-0.5-1.7-1-2.5c-0.3-0.7-0.8-1.3-1.4-1.7l0.3-0.9c0.8,0.5,1.5,1.1,2,1.9c0.6,0.9,1.1,1.9,1.4,2.9
	C95.7,22.1,95.9,23.3,95.8,24.5L95.8,24.5z"/>
<path id="Trazado_177507" class="st2" d="M149.1,129l2-11.4l3.3,0c0.9-0.1,1.9,0.2,2.6,0.8c0.6,0.6,0.9,1.4,0.8,2.2
	c-0.1,1.2-0.9,2.1-2.1,2.5c0.5,0.2,0.9,0.5,1.1,1c0.3,0.5,0.4,1,0.3,1.6c0,1-0.5,1.8-1.2,2.4c-0.8,0.6-1.9,0.9-2.9,0.9H149.1z
	 M151.5,123.7l-0.7,4.1l2.3,0c0.6,0,1.3-0.2,1.8-0.6c0.5-0.4,0.8-0.9,0.8-1.5c0.1-0.5,0-1-0.3-1.4c-0.3-0.4-0.8-0.6-1.4-0.5
	L151.5,123.7z M151.7,122.5l2.1,0c0.6,0,1.2-0.2,1.7-0.5c0.5-0.3,0.7-0.8,0.8-1.4c0.1-0.4,0-0.9-0.3-1.3c-0.4-0.3-0.9-0.5-1.4-0.5
	l-2.2,0L151.7,122.5z"/>
<path id="Trazado_177508" class="st2" d="M187.5,161h-4.6l-1.6,3h-1.6l6.2-11.4h1.3l2.2,11.4H188L187.5,161z M183.5,159.8h3.7
	l-0.9-5.3L183.5,159.8z"/>
<path id="Trazado_177509" class="st2" d="M392.3,310.4l1.7,1.6l-1.1,0.9l-2-1.9c-0.4,0.1-0.8,0.1-1.2,0.1c-0.7,0-1.3-0.2-1.9-0.5
	c-0.6-0.4-1-0.9-1.3-1.5c-0.3-0.7-0.5-1.4-0.5-2.2c0-0.8,0-1.6,0.2-2.3c0.2-0.9,0.4-1.7,0.9-2.5c0.4-0.7,0.9-1.3,1.5-1.8
	c0.8-0.6,1.8-1,2.9-0.9c0.7,0,1.3,0.2,1.9,0.5c0.6,0.4,1,0.9,1.3,1.5c0.3,0.7,0.5,1.4,0.5,2.2c0,0.4,0,0.9-0.1,1.3l-0.1,0.7
	C395,307.6,393.9,309.3,392.3,310.4z M393.8,304c0.1-0.8-0.1-1.7-0.5-2.4c-0.4-0.6-1-0.9-1.7-0.9c-0.7,0-1.3,0.2-1.9,0.6
	c-0.6,0.5-1.1,1.1-1.4,1.8c-0.4,1-0.6,2-0.7,3l0,0.5c0,0.6,0,1.1,0.2,1.7c0.1,0.5,0.4,0.9,0.8,1.2c0.4,0.3,0.8,0.4,1.3,0.4
	c0.9,0,1.8-0.3,2.4-1c0.7-0.9,1.2-2,1.3-3.1C393.7,305.2,393.8,304.6,393.8,304z M401,306.4c0-1.1,0.2-2.3,0.5-3.4
	c0.3-1.1,0.8-2.1,1.4-3c0.5-0.8,1.2-1.4,1.9-1.9l0.3,1c-0.9,0.7-1.5,1.6-1.9,2.7c-0.5,1.3-0.8,2.6-0.8,4l0,0.7
	c0,1.8,0.3,3.6,1.1,5.2c0.4,0.8,0.9,1.5,1.6,2.1l-0.3,0.9c-0.8-0.5-1.5-1.1-2-1.9C401.6,310.9,400.9,308.6,401,306.4z M409.9,310
	c0.5,0,1-0.2,1.4-0.5c0.4-0.3,0.6-0.7,0.6-1.2h1.4c0,0.5-0.2,1-0.5,1.4c-0.3,0.4-0.7,0.8-1.2,1c-0.5,0.3-1.1,0.4-1.6,0.4
	c-1,0-2.1-0.4-2.7-1.2c-0.7-0.9-1.1-2-1-3.2v-0.2c0-0.8,0.1-1.5,0.5-2.2c0.3-0.6,0.7-1.1,1.3-1.5c0.6-0.4,1.3-0.5,2-0.5
	c0.9,0,1.7,0.3,2.4,0.9c0.6,0.6,1,1.4,1,2.2h-1.4c0-0.5-0.2-1-0.6-1.3c-0.4-0.3-0.9-0.5-1.4-0.5c-0.7,0-1.3,0.3-1.7,0.8
	c-0.4,0.7-0.7,1.5-0.6,2.3v0.3c-0.1,0.8,0.2,1.6,0.6,2.2C408.6,309.7,409.2,310,409.9,310L409.9,310z M420.1,311
	c-0.1-0.3-0.2-0.6-0.2-0.9c-0.6,0.7-1.5,1.1-2.4,1c-0.7,0-1.5-0.2-2.1-0.7c-0.5-0.4-0.8-1.1-0.8-1.8c0-0.8,0.3-1.6,1-2.1
	c0.8-0.5,1.8-0.8,2.8-0.7h1.4v-0.7c0-0.4-0.1-0.9-0.4-1.2c-0.4-0.3-0.8-0.5-1.3-0.4c-0.5,0-0.9,0.1-1.3,0.4
	c-0.3,0.2-0.5,0.6-0.5,0.9h-1.5c0-0.4,0.2-0.9,0.4-1.2c0.3-0.4,0.7-0.7,1.2-0.9c0.5-0.2,1.1-0.4,1.7-0.3c0.8,0,1.6,0.2,2.3,0.7
	c0.6,0.5,0.9,1.2,0.9,2v3.9c0,0.6,0.1,1.3,0.3,1.9v0.1H420.1z M417.7,309.9c0.5,0,0.9-0.1,1.3-0.4c0.4-0.2,0.7-0.5,0.9-0.9v-1.7
	h-1.1c-1.8,0-2.7,0.5-2.7,1.6c0,0.4,0.1,0.8,0.5,1.1C416.9,309.8,417.3,309.9,417.7,309.9L417.7,309.9z M425,302.5l0,1.1
	c0.6-0.8,1.5-1.2,2.5-1.2c1.8,0,2.7,1,2.7,3v5.6h-1.4v-5.6c0-0.5-0.1-1-0.4-1.4c-0.3-0.3-0.8-0.5-1.3-0.4c-0.4,0-0.9,0.1-1.2,0.4
	c-0.4,0.3-0.6,0.6-0.8,1v6h-1.4v-8.5L425,302.5z M434.4,300.5v2h1.6v1.1h-1.6v5.2c0,0.3,0.1,0.5,0.2,0.8c0.2,0.2,0.5,0.3,0.7,0.3
	c0.2,0,0.5,0,0.7-0.1v1.2c-0.4,0.1-0.7,0.2-1.1,0.2c-0.6,0-1.1-0.2-1.5-0.6c-0.4-0.5-0.5-1.1-0.5-1.7v-5.2h-1.5v-1.1h1.5v-2H434.4z
	 M439.2,311h-1.4v-8.5h1.4L439.2,311z M437.7,300.3c0-0.2,0.1-0.4,0.2-0.6c0.2-0.2,0.4-0.3,0.6-0.2c0.2,0,0.5,0.1,0.6,0.2
	c0.1,0.2,0.2,0.4,0.2,0.6c0,0.2-0.1,0.4-0.2,0.6c-0.2,0.2-0.4,0.3-0.6,0.2c-0.2,0-0.5-0.1-0.6-0.2
	C437.7,300.7,437.7,300.5,437.7,300.3z M441.2,306.7c-0.1-1.1,0.3-2.2,0.9-3.1c1.1-1.4,3.1-1.6,4.4-0.5c0.1,0.1,0.2,0.2,0.4,0.3V299
	h1.4v12H447l-0.1-0.9c-0.6,0.7-1.5,1.1-2.4,1.1c-0.9,0-1.8-0.4-2.4-1.2c-0.7-0.9-1-2-0.9-3.1L441.2,306.7z M442.6,306.9
	c0,0.8,0.2,1.6,0.6,2.2c0.4,0.5,1,0.8,1.6,0.8c0.9,0,1.7-0.4,2-1.2v-3.9c-0.4-0.8-1.1-1.2-2-1.2c-0.7,0-1.3,0.3-1.7,0.8
	C442.8,305.2,442.6,306,442.6,306.9L442.6,306.9z M455.8,311c-0.1-0.3-0.2-0.6-0.2-0.9c-0.6,0.7-1.5,1.1-2.4,1
	c-0.7,0-1.5-0.2-2.1-0.7c-0.5-0.4-0.8-1.1-0.8-1.8c0-0.8,0.3-1.6,1-2.1c0.8-0.5,1.8-0.8,2.8-0.7h1.4v-0.7c0-0.4-0.1-0.9-0.4-1.2
	c-0.4-0.3-0.8-0.5-1.3-0.4c-0.5,0-0.9,0.1-1.3,0.4c-0.3,0.2-0.5,0.6-0.5,0.9h-1.5c0-0.4,0.2-0.9,0.4-1.2c0.3-0.4,0.7-0.7,1.2-0.9
	c0.5-0.2,1.1-0.4,1.7-0.3c0.8,0,1.6,0.2,2.3,0.7c0.6,0.5,0.9,1.3,0.9,2v3.9c0,0.6,0.1,1.3,0.3,1.9v0.1H455.8z M453.4,309.9
	c0.5,0,0.9-0.1,1.3-0.4c0.4-0.2,0.7-0.5,0.9-0.9v-1.7h-1.1c-1.8,0-2.7,0.5-2.7,1.6c0,0.4,0.1,0.8,0.5,1.1
	C452.5,309.8,453,309.9,453.4,309.9L453.4,309.9z M458.9,306.7c-0.1-1.1,0.3-2.2,0.9-3.1c1.1-1.4,3.1-1.6,4.4-0.5
	c0.1,0.1,0.3,0.2,0.4,0.3V299h1.4v12h-1.3l-0.1-0.9c-0.6,0.7-1.5,1.1-2.4,1.1c-0.9,0-1.8-0.4-2.4-1.2c-0.7-0.9-1-2-0.9-3.1
	L458.9,306.7z M460.4,306.9c0,0.8,0.2,1.6,0.6,2.2c0.4,0.5,1,0.8,1.6,0.8c0.9,0,1.7-0.4,2-1.2v-3.9c-0.4-0.8-1.1-1.2-2-1.2
	c-0.7,0-1.3,0.3-1.7,0.8C460.5,305.2,460.3,306,460.4,306.9L460.4,306.9z M471.6,306.5c0,1.1-0.1,2.3-0.5,3.3
	c-0.3,1.1-0.8,2.1-1.4,2.9c-0.5,0.8-1.2,1.4-2,1.9l-0.3-0.9c0.9-0.8,1.6-1.7,1.9-2.9c0.5-1.4,0.8-2.8,0.7-4.3v-0.2
	c0-1-0.1-2.1-0.3-3.1c-0.2-0.9-0.5-1.7-1-2.5c-0.3-0.7-0.8-1.3-1.4-1.7l0.3-0.9c0.8,0.5,1.5,1.1,2,1.9c0.6,0.9,1.1,1.9,1.4,2.9
	C471.5,304.1,471.6,305.3,471.6,306.5L471.6,306.5z"/>
<path id="Trazado_178368" d="M55.7,291.5c0.1,1.2-0.2,2.4-0.9,3.5c-0.6,0.8-1.6,1.2-2.6,1.2c-1,0.1-2-0.4-2.6-1.1
	c-0.7-1-1-2.2-0.9-3.4v-1.8c-0.1-1.2,0.2-2.4,0.9-3.4c0.6-0.8,1.6-1.2,2.6-1.1c1-0.1,2,0.3,2.6,1.1c0.6,1,1,2.2,0.9,3.4V291.5z
	 M53.9,289.5c0.1-0.8-0.1-1.5-0.4-2.2c-0.3-0.5-0.8-0.7-1.3-0.7c-0.5,0-1,0.2-1.3,0.7c-0.3,0.6-0.5,1.4-0.4,2.1v2.4
	c0,0.8,0.1,1.5,0.4,2.2c0.3,0.5,0.8,0.8,1.3,0.7c0.5,0,1-0.2,1.3-0.7c0.3-0.7,0.5-1.4,0.4-2.1V289.5z"/>
</svg>
