<?xml version="1.0" encoding="utf-8"?>
<!-- Generator: Adobe Illustrator 25.4.1, SVG Export Plug-In . SVG Version: 6.00 Build 0)  -->
<svg version="1.1" id="Capa_1" xmlns="http://www.w3.org/2000/svg" xmlns:xlink="http://www.w3.org/1999/xlink" x="0px" y="0px"
	 viewBox="0 0 125 181.5" style="enable-background:new 0 0 125 181.5;" xml:space="preserve">
<style type="text/css">
	.st0{fill:none;}
	.st1{fill:#009A9A;}
	.st2{fill:#F9AC29;}
	.st3{fill:#F9CA29;}
	.st4{fill:#E30613;}
	.st5{fill:#EFCAA6;}
	.st6{fill:#F4D9BF;}
	.st7{fill:#7E440C;}
	.st8{fill:#C39368;}
	.st9{fill:#461A00;}
	.st10{fill:#FFFFFF;}
	.st11{fill:#A5C627;}
	.st12{fill:#F9CBC0;}
	.st13{fill:#DFEFE7;}
	.st14{fill:#C0C0C0;}
	.st15{fill:#E9E9E9;}
	.st16{opacity:0.5;}
	.st17{opacity:0.5;fill:#009A9A;enable-background:new    ;}
</style>
<rect y="0" class="st0" width="125" height="214"/>
<g id="Grupo_73294" transform="translate(21.216 183.832)">
	<path id="Trazado_166931" class="st1" d="M83.7,13.2c-0.6-2.4-1-4-1-4l-76,0.6c0,0-0.6,1.7-1.4,4.6C14.5,16.3,52.3,22.9,83.7,13.2z
		"/>
</g>
<g id="Grupo_73298" transform="translate(11.079 102.054)">
	<path id="Trazado_166934" class="st2" d="M11.7,88.6c-0.5,1.2-0.6,2.5-0.5,3.8c11.7,4.1,66.8,8.3,85.6-1.4c0-1.6-0.2-3.3-0.7-4.8
		C77.3,102.8,11.7,88.6,11.7,88.6z"/>
	<path id="Trazado_166935" class="st3" d="M95,69.6c8.1-4.5,13.8-8.6,11.2-27.9c-2.4-16.2-8.6-28.3-17.1-32.4
		C68.9,21.7,39.4,33.6,7,20.5c0,0-6.6,12.4,6.2,43C9.1,75.9,5.6,86,11.7,88.6c0,0,65.7,14.2,84.4-2.4C96,86.2,100,83.1,95,69.6z"/>
	<g id="Grupo_73296" transform="translate(52.792)">
		<path id="Trazado_166936" class="st3" d="M54,51.4c-2.5-3.4-4.4-7.3-5.6-11.4c-1.7-5.2-2.1-11.2,0-16.3c-3.1-7-7.2-12.1-12.1-14.5
			c-6.3,3.9-12.9,7.3-19.8,10.1c2.3,11,3.3,22.3,2.7,33.6c0,0-7,3.2-10.1,5.9c2.5-1.3,5.1-2.3,7.6-3.6c1.6-0.8,4.7-2.6,4.7,0.5
			c0,1.3-0.3,2.6-0.2,3.8c0.2,2,0.4,4,0.9,6c0.5,2.5,2,5.8,0.9,8.2c-1.7,3.7-9.3,3-11.2-0.2c-1.7-2.9-1.4-6.2-2.7-9.3
			c-0.2-0.5-0.5-1-0.9-1.3c0.1,0.2,0.1,0.3,0.1,0.3c-1.2,0.3-2.2,1-2.9,2c0.4-0.2,0.9-0.1,1.3,0.2c1.2,1.5,2.3,3.1,3,4.9
			c1.1,2.3,3.2,5.4,2.5,8.1c0,0.1-0.1,0.2-0.1,0.3c1,0,1.9-0.5,2.4-1.4c2,1.1,7.3,0.5,10-1c0,0,0.1,0.2,0.1,0.5
			c1.8-0.3,3.5-0.8,5.2-1.4c1.5-0.6,2.9-1.6,4.4-2.1c2.6-0.9,3.7,0.9,4.6,3.2c1.6,3.9,2.5,8.1-0.5,11.5c-0.9,1-1.9,1.8-3,2.5
			c2.9-1,5.5-2.5,7.9-4.5c0,0,4-3.1-1-16.6C48.7,66,53.7,62.7,54,51.4z"/>
	</g>
	<g id="Grupo_73297" transform="translate(0.542)">
		<path id="Trazado_166937" class="st3" d="M41.7,29.9c18.4-0.9,37-9.4,52.9-16c-1.7-1.9-3.7-3.5-6-4.7
			C68.4,21.7,38.9,33.6,6.5,20.5c-0.6,1.2-0.9,2.5-1.1,3.9C17,28.6,29.3,30.5,41.7,29.9z"/>
	</g>
</g>
<path id="Trazado_166938" class="st4" d="M100.6,85.4c0,0,8.4,3.9,7.2,8.4c-0.7,2.2,0.3,3.7,1.6,5.7c1.3,2,1,5.7-0.1,8.2
	c-1.1,2.5-15.6-14.1-15.6-14.1L100.6,85.4z"/>
<g id="Grupo_73299" transform="translate(7.609 62.994)">
	<path id="Trazado_166939" class="st5" d="M14,10.4C7.1,7,5.3,13.9,5.3,13.9s-0.6,10.8,7.2,9.3C14.2,18.8,15.3,13.8,14,10.4z"/>
	<path id="Trazado_166940" class="st0" d="M13.7,9.8c0.1,0.2,0.2,0.4,0.3,0.6l0.1,0C13.9,10.2,13.8,10,13.7,9.8z"/>
	<path id="Trazado_166941" class="st4" d="M13.3,10.1l-0.2-0.3L14,9.3c0.1,0.1,0.1,0.2,0.1,0.2s0,0.1,0.1,0.1l0,0l0,0L13.3,10.1z"/>
</g>
<path id="Trazado_166942" class="st5" d="M108,76.5c0,0-0.1-0.1-0.1-0.1c-2.2-2.8-6.1-3.5-9.1-1.8c-0.4,2.6,0.4,8,1.4,12.6
	c4.3,0.4,7.4-1,8.4-4.7C109.3,80.4,109,78.3,108,76.5z"/>
<g id="Grupo_73300" transform="translate(14.786 49.209)">
	<path id="Trazado_166943" class="st6" d="M79.6,13.9c-6.6-2-18.6-4.7-35.7-4.6c-18.3,0.2-28.9,3-34.7,5.4c1.5,4.9,5.4,20.1-4,23.6
		c0,5.2,4.9,12.6,24,16.5c13.8,1.8,37.6-2.8,50.4-8.6c3.7-2.2,5.5-4.9,5.6-7.3C78.6,31.8,79.2,18.4,79.6,13.9z"/>
	<path id="Trazado_166944" class="st7" d="M85.4,37.9c-1-4.5-1.8-10-1.4-12.6c0.1-3.1,0.5-6.3,1.4-9.3c-1.9-0.8-3.8-1.6-5.8-2.1
		c-0.4,4.5-1,17.9,5.8,25C85.5,38.5,85.5,38.2,85.4,37.9z"/>
</g>
<path id="Trazado_166945" class="st4" d="M107.6,76.7l0.4-0.3L107.6,76.7L107.6,76.7L107.6,76.7c-0.1-0.1-0.1-0.1-0.1-0.2l0.8-0.5
	c0,0,0,0.1,0.1,0.2L107.6,76.7z"/>
<g id="Grupo_73301" transform="translate(32.756 54.73)">
	<path id="Trazado_166946" class="st8" d="M9.6,40.5c0,0,0.1-0.1,0.4-0.2c0.4-0.2,0.8-0.4,1.2-0.5c0.6-0.2,1.3-0.3,2-0.3
		c0.4,0,0.8,0.1,1.2,0.3c0.2,0.1,0.4,0.2,0.6,0.3c0.2,0.1,0.4,0.2,0.6,0.3c0.4,0.2,0.8,0.3,1.3,0.3c0.5,0,0.9-0.1,1.3-0.4
		c0.4-0.3,0.9-0.6,1.2-1c0.2-0.2,0.4-0.4,0.7-0.6c0.3-0.2,0.5-0.3,0.8-0.5c1.2-0.5,2.6-0.6,3.8-0.3c0.3,0.1,0.7,0.1,1,0.3
		c0.2,0,0.3,0.1,0.5,0.2l0.2,0.1l0.1,0.1l0.1,0l0,0c-0.1-0.1,0,0,0,0l0,0c0.3,0.1,0.5,0.2,0.8,0.3l0.4,0.1c0.1,0,0.3,0,0.4,0
		c1.1,0,2.3-0.4,3.2-1.1c0.2-0.2,0.5-0.3,0.6-0.5l0.3-0.3l0.3-0.3c0.2-0.2,0.5-0.5,0.7-0.7c0.3-0.2,0.5-0.4,0.8-0.5
		c1-0.6,2.2-0.9,3.4-0.9c1-0.1,2.1,0.1,3.1,0.4c0.8,0.3,1.6,0.7,2.3,1.1c0.6,0.3,1.2,0.5,1.8,0.5c0.4,0,0.8-0.1,1.1-0.5
		c0.1-0.1,0.1-0.3,0.2-0.4c0,0.1-0.1,0.3-0.1,0.4c-0.2,0.4-0.7,0.6-1.1,0.6c-0.7,0-1.4-0.1-2-0.4c-0.4-0.1-0.7-0.3-1.1-0.5
		c-0.4-0.2-0.8-0.3-1.2-0.5c-0.9-0.2-1.9-0.3-2.9-0.2c-1.1,0.1-2.1,0.4-3,1c-0.2,0.1-0.5,0.3-0.7,0.5c-0.2,0.2-0.4,0.4-0.6,0.6
		c-0.4,0.5-0.9,0.9-1.4,1.3c-1.1,0.8-2.4,1.3-3.7,1.3c-0.2,0-0.3,0-0.5,0l-0.6-0.1c-0.3-0.1-0.6-0.2-0.9-0.3l-0.4-0.2
		c-0.1-0.1-0.3-0.1-0.4-0.2c-0.3-0.1-0.5-0.2-0.8-0.2c-1.1-0.2-2.2-0.2-3.3,0.1c-0.2,0.1-0.5,0.2-0.7,0.4c-0.2,0.2-0.4,0.3-0.7,0.5
		c-0.4,0.4-0.9,0.7-1.4,1c-0.5,0.3-1.1,0.4-1.7,0.4c-0.5,0-1.1-0.2-1.5-0.5c-0.4-0.2-0.8-0.5-1.1-0.7c-0.3-0.2-0.7-0.3-1.1-0.4
		c-0.6-0.1-1.3-0.1-1.9,0.1C10.6,40,10.1,40.2,9.6,40.5z"/>
	<path id="Trazado_166947" class="st8" d="M24.1,31.3c0-0.2,0-0.4,0.1-0.6c0.1-0.5,0.4-0.9,0.8-1.1c0.2-0.2,0.5-0.2,0.8-0.2
		c0.3,0,0.5,0.1,0.7,0.2c0.2,0.1,0.3,0.3,0.4,0.5c0,0-0.3,0-0.6,0c-0.1,0-0.1,0-0.2,0c-0.1,0-0.1,0.1-0.2,0.1
		c-0.1,0.1-0.3,0.1-0.4,0.2c-0.3,0.2-0.6,0.4-0.9,0.6C24.4,31.1,24.3,31.2,24.1,31.3z"/>
	<path id="Trazado_166948" class="st7" d="M5.3,11c0.4-0.2,0.8-0.3,1.2-0.5c0.7-0.3,1.7-0.5,2.7-0.7c0.5-0.1,1-0.2,1.5-0.2
		c0.5-0.1,0.9-0.2,1.3-0.2c0.4-0.1,0.9-0.1,1.3-0.1c-0.4,0.2-0.8,0.4-1.2,0.6c-0.2,0.1-0.4,0.2-0.6,0.3c-0.2,0.1-0.4,0.2-0.7,0.2
		c-0.5,0.1-1,0.3-1.5,0.4C9,10.8,8.5,10.9,8,11c-0.5,0-0.9,0.1-1.3,0.1C6.2,11.1,5.8,11.1,5.3,11z"/>
	<path id="Trazado_166949" class="st7" d="M32.1,9.9c0.4,0,0.9,0,1.3,0c0.4,0,0.8,0.1,1.3,0.1s1,0.1,1.5,0.2c1,0.2,2,0.3,2.8,0.5
		c0.4,0.1,0.7,0.1,0.9,0.2s0.4,0.1,0.4,0.1s-0.1,0-0.4,0.1c-0.3,0.1-0.6,0.1-1,0.2c-0.5,0-0.9,0-1.4,0c-0.5,0-1-0.1-1.5-0.2
		c-0.9-0.1-1.9-0.4-2.8-0.7C32.9,10.3,32.5,10.1,32.1,9.9z"/>
</g>
<g id="Grupo_73302" transform="translate(37.397 64.004)">
	<path id="Trazado_166950" class="st9" d="M8.8,12.7c0.1,1.9-0.7,3.5-1.6,3.5s-1.8-1.6-1.8-3.5S6,9.3,7,9.3S8.7,10.8,8.8,12.7z"/>
	<path id="Trazado_166951" class="st10" d="M6.8,11.3c0,0.6-0.3,1-0.6,1s-0.5-0.5-0.5-1.1s0.3-1,0.6-1S6.8,10.7,6.8,11.3z"/>
</g>
<g id="Grupo_73303" transform="translate(62.028 62.627)">
	<path id="Trazado_166952" class="st9" d="M8.8,12.7c0.1,1.9-0.7,3.5-1.6,3.5s-1.8-1.6-1.8-3.5S6,9.3,7,9.3S8.7,10.8,8.8,12.7z"/>
	<path id="Trazado_166953" class="st10" d="M6.8,11.3c0,0.6-0.3,1-0.6,1s-0.5-0.5-0.5-1.1s0.3-1,0.6-1S6.8,10.7,6.8,11.3z"/>
</g>
<path id="Trazado_166954" class="st8" d="M15.3,78.5c0,0,3.7-0.6,4.1,2.3C18.4,79.5,16.9,78.6,15.3,78.5z"/>
<path id="Trazado_166955" class="st8" d="M104.8,79c0,0-3.7,0.6-3.2,3.4C102.1,80.8,103.3,79.6,104.8,79z"/>
<g id="Grupo_73304" transform="translate(4.372 80.91)">
	<path id="Trazado_166956" class="st1" d="M106.4,59.4c-1.7-2.7-1.5-3.8,0.1-14.4s3.2-14.6-2.3-20.9S93.1,11.7,87.1,13.2
		c-6,1.5-7.7,2.9-7.7,2.9s-7.5-2-10.5-1.2s-6.8,4.1-9.2,7.5l3-0.3l3.5-3c0,0,9.3,6.6,11,11.1c1.2,3.5,2,7.1,2.6,10.7
		c2.3,11.4,3.2,45.7,5.1,50.2c4.8-1.2,21.1-5.6,27.5-9.6c1.2-0.9,2.4-1.6,3.8-2.1C116.1,79.4,110.1,67.5,106.4,59.4z"/>
	<path id="Trazado_166957" class="st4" d="M66.2,19l-3.5,3l-3,0.3c-8.1,2.4-35.7,2.6-43.6-13.1c0,0-5.3,0.4-8.6,3.3
		s-2.7,6.6,0.7,9.6s1.8,3.6-0.1,9.3s-2,10.2,9.9,13.4s34.8,8.9,61.7-4.1c-0.5-3.6-1.4-7.2-2.6-10.7C75.5,25.7,66.2,19,66.2,19z"/>
</g>
<g id="Grupo_73305" transform="translate(8.966 87.682)">
	<path id="Trazado_166958" class="st4" d="M30.5,29l1.4,0.1c0.9,0.1,2.1,0.2,3.7,0.3c1.5,0.1,3.3,0.1,5.2,0.2c0.9,0,1.9,0,2.9,0
		c1,0,2-0.1,3-0.1c1-0.1,2-0.1,3-0.2s2-0.2,2.9-0.3s1.8-0.2,2.7-0.4c0.8-0.2,1.7-0.3,2.4-0.5c0.7-0.2,1.4-0.4,2-0.5
		c0.6-0.2,1.1-0.4,1.5-0.5c0.9-0.3,1.3-0.4,1.3-0.4L61.1,27c-0.4,0.2-0.9,0.4-1.5,0.7c-0.6,0.2-1.2,0.5-2,0.7
		c-0.7,0.3-1.5,0.4-2.4,0.7s-1.8,0.4-2.7,0.6c-0.9,0.2-1.9,0.3-2.9,0.4c-1,0.1-2,0.2-3,0.3c-1,0.1-2,0.1-3,0.1c-1,0-2,0-2.9-0.1
		c-1.9-0.1-3.7-0.3-5.2-0.5s-2.8-0.4-3.6-0.6C30.9,29.1,30.5,29,30.5,29z"/>
	<path id="Trazado_166959" class="st4" d="M5.3,16.9c0,0,0.5,0.5,1.3,1.2c0.4,0.3,0.8,0.8,1.3,1.2c0.5,0.4,1,0.9,1.5,1.3
		c0.3,0.2,0.5,0.4,0.8,0.6c0.3,0.2,0.5,0.4,0.8,0.6c0.3,0.2,0.5,0.4,0.8,0.5s0.5,0.3,0.7,0.4c0.2,0.1,0.4,0.2,0.6,0.3
		s0.4,0.2,0.5,0.2c0.3,0.1,0.4,0.2,0.4,0.2s-0.2,0-0.5,0c-0.2,0-0.4,0-0.6-0.1c-0.2,0-0.5-0.1-0.7-0.2c-0.6-0.2-1.2-0.4-1.7-0.7
		c-0.6-0.4-1.2-0.7-1.7-1.2c-0.5-0.4-1-0.9-1.5-1.5c-0.4-0.5-0.8-0.9-1.1-1.4C5.9,18,5.6,17.5,5.3,16.9z"/>
	<path id="Trazado_166960" class="st11" d="M74.8,9.3c0.7,0,1.3,0.1,2,0.2c1.4,0.2,2.8,0.6,4.2,1c0.8,0.2,1.5,0.5,2.2,0.8
		c0.6,0.2,1.2,0.5,1.8,0.8c0.4,0.2,0.8,0.5,1.2,0.7c0.3,0.2,0.4,0.3,0.4,0.3s-0.2-0.1-0.5-0.1c-0.3-0.1-0.8-0.3-1.4-0.4
		c-0.6-0.1-1.2-0.4-1.9-0.5s-1.4-0.4-2.2-0.7c-1.5-0.5-3-1-4.1-1.4S74.8,9.3,74.8,9.3z"/>
</g>
<path id="Trazado_166961" class="st7" d="M24.1,63.9c-2.1,0.8-4.1,1.9-5.9,3.3c0,0,0.4,0.6,3,5.3c0,0.1,0.1,0.1,0.1,0.2
	c0,0,0,0.1,0.1,0.2c0.1,0.2,0.2,0.4,0.3,0.6l-0.1,0c1.3,3.4,0.2,8.4-1.4,12.8c-0.1,0.4-0.1,0.8-0.1,1.2C29.5,84,25.6,68.7,24.1,63.9
	z"/>
<path id="Trazado_166962" class="st12" d="M43.5,83.7c0,1.3-2.5,2.4-5.7,2.4s-5.7-1.1-5.7-2.4s2.6-2.4,5.7-2.4S43.5,82.3,43.5,83.7z
	"/>
<path id="Trazado_166963" class="st12" d="M83.6,81c0.1,1.3-2.4,2.5-5.5,2.8c-3.1,0.2-5.7-0.7-5.8-2c-0.1-1.3,2.4-2.5,5.5-2.8
	C80.9,78.8,83.5,79.7,83.6,81z"/>
<g id="Grupo_73306" transform="translate(0 0.028)">
	<path id="Trazado_166964" class="st1" d="M56.3,9.3C15.6,10,5.5,40.9,7.8,58.7C7.8,58.7,27,43.3,58,43s47.5,11.8,52.9,16
		C110.9,59,112.4,7.9,56.3,9.3z"/>
	<path id="Trazado_166965" class="st13" d="M7.8,58.7c-5.3,4-1.2,15.8,5.2,18.2c0,0,1.8-6.9,8.7-3.5c-3-5.7-3.5-6.3-3.5-6.3
		s8.7-8.4,40.5-8.7c27.1-0.2,41.5,6.8,41.5,6.8c-0.9,3-1.4,6.2-1.4,9.3c3-1.8,6.9-1,9.1,1.8c2.6-2.4,4.3-5.6,4.6-9.2
		c0.7-6.2-1.6-8.1-1.6-8.1c-5.4-4.2-22-16.3-52.9-16S7.8,58.7,7.8,58.7z"/>
</g>
<g id="Grupo_73307" transform="translate(7.992 0)">
	<path id="Trazado_166966" class="st14" d="M7.2,53.9c0,0,0.1,0.8,0.3,2.1c0.1,0.6,0.2,1.3,0.3,2.1s0.3,1.6,0.5,2.4
		c0.1,0.4,0.2,0.8,0.3,1.2s0.2,0.8,0.4,1.1c0.1,0.4,0.2,0.7,0.4,1s0.2,0.6,0.4,0.9c0.1,0.3,0.2,0.5,0.4,0.8c0.1,0.2,0.2,0.4,0.3,0.6
		c0.2,0.3,0.3,0.5,0.3,0.5l-0.4-0.4c-0.4-0.4-0.7-0.8-1-1.2c-0.2-0.3-0.4-0.6-0.5-0.9c-0.2-0.3-0.4-0.7-0.5-1
		c-0.3-0.8-0.6-1.6-0.8-2.4C7.2,59.8,7.1,59,7,58.2c-0.1-0.7-0.1-1.4,0-2.2C7,55.3,7.1,54.6,7.2,53.9z"/>
	<path id="Trazado_166967" class="st14" d="M25.5,46.3c0,0,0,0.2-0.1,0.6s-0.1,1-0.1,1.6c0,0.7-0.1,1.5-0.1,2.3c0,0.4,0,0.9,0,1.3
		c0,0.4,0,0.9,0.1,1.3c0,0.4,0,0.9,0.1,1.3s0.1,0.9,0.2,1.3c0.1,0.4,0.1,0.8,0.2,1.2s0.1,0.7,0.3,1.1c0.1,0.3,0.2,0.6,0.2,0.9
		s0.2,0.5,0.2,0.7c0.1,0.4,0.2,0.6,0.2,0.6s-0.1-0.2-0.4-0.5c-0.3-0.5-0.6-0.9-0.8-1.5c-0.2-0.3-0.3-0.7-0.4-1
		c-0.1-0.4-0.3-0.8-0.4-1.2c-0.1-0.4-0.2-0.9-0.3-1.3c-0.1-0.4-0.1-0.9-0.1-1.4c-0.1-0.9,0-1.8,0-2.7c0.1-0.8,0.2-1.6,0.4-2.3
		C25,47.8,25.2,47,25.5,46.3z"/>
	<path id="Trazado_166968" class="st14" d="M43.5,43.5c0,0,0,0.2,0.1,0.6c0.1,0.4,0.2,1,0.2,1.7c0.2,1.4,0.3,3.2,0.4,5
		c0.1,1.8,0.1,3.7,0.1,5c0,0.7-0.1,1.3-0.1,1.7c0,0.4-0.1,0.6-0.1,0.6s-0.1-0.2-0.1-0.6c-0.1-0.4-0.2-1-0.3-1.6
		c-0.2-1.4-0.4-3.2-0.5-5c-0.1-1.8,0-3.7,0-5.1c0-0.7,0.1-1.3,0.1-1.7S43.5,43.5,43.5,43.5z"/>
	<path id="Trazado_166969" class="st14" d="M62.9,43.6c0,0,0.1,0.2,0.2,0.6c0.1,0.4,0.3,1,0.5,1.6c0.4,1.7,0.7,3.4,0.8,5.1
		c0,0.5,0,0.9,0.1,1.4c0,0.5,0,0.9,0,1.4c0,0.4-0.1,0.9-0.1,1.3c0,0.4-0.1,0.8-0.2,1.1c-0.1,0.3-0.1,0.6-0.2,0.9
		c-0.1,0.2-0.1,0.5-0.2,0.7c-0.2,0.4-0.3,0.6-0.3,0.6s0-0.2,0.1-0.6c0-0.2,0.1-0.5,0.1-0.7c0-0.3,0-0.6,0-0.9c0-1.4,0-3.2-0.2-5.1
		c0-0.9-0.1-1.8-0.2-2.7c-0.1-0.9-0.1-1.7-0.2-2.4C62.9,44.6,62.9,43.6,62.9,43.6z"/>
	<path id="Trazado_166970" class="st14" d="M83.4,48.2c0.3,0.7,0.5,1.4,0.6,2.1c0.2,0.7,0.3,1.5,0.3,2.2c0.1,0.9,0.1,1.7,0.1,2.6
		c0,0.9-0.1,1.7-0.3,2.6c-0.1,0.4-0.2,0.8-0.3,1.2s-0.2,0.7-0.3,1c-0.2,0.5-0.4,1-0.7,1.4l-0.3,0.5c0,0,0.1-0.2,0.1-0.6
		c0.1-0.4,0.2-0.9,0.4-1.5c0.1-0.3,0.1-0.7,0.2-1c0.1-0.4,0.1-0.7,0.1-1.1c0.1-0.4,0.1-0.8,0.1-1.2c0-0.4,0-0.8,0.1-1.3
		c0.1-1.7,0-3.4,0-4.7C83.4,49.1,83.4,48.2,83.4,48.2z"/>
	<path id="Trazado_166971" class="st14" d="M100.1,56.9c0.1,0.6,0.1,1.2,0.1,1.8c0,0.6-0.1,1.2-0.1,1.8c-0.1,0.7-0.3,1.4-0.5,2.1
		c-0.2,0.7-0.5,1.3-0.8,2c-0.3,0.6-0.7,1.1-1.1,1.6c-0.2,0.2-0.4,0.4-0.5,0.5c-0.1,0.1-0.3,0.2-0.5,0.4c-0.3,0.2-0.4,0.3-0.4,0.3
		l0.3-0.4c0.1-0.1,0.2-0.3,0.3-0.5c0.1-0.2,0.2-0.4,0.4-0.6c0.1-0.2,0.2-0.5,0.4-0.7c0.1-0.3,0.2-0.6,0.4-0.8
		c0.2-0.6,0.5-1.2,0.7-1.9c0.2-0.7,0.4-1.3,0.6-2c0.2-0.6,0.3-1.2,0.4-1.7C100,57.6,100.1,56.9,100.1,56.9z"/>
	<path id="Trazado_166972" class="st14" d="M92.2,65.2c0.4,0.1,0.9,0.2,1.3,0.3c0.4,0.1,0.9,0.3,1.3,0.5c0.5,0.2,0.9,0.4,1.4,0.7
		c0.5,0.2,0.9,0.5,1.3,0.8c0.2,0.1,0.4,0.3,0.6,0.4s0.3,0.3,0.5,0.4c0.1,0.1,0.3,0.3,0.4,0.4c0.1,0.1,0.2,0.2,0.3,0.3
		c0.1,0.2,0.2,0.3,0.2,0.3s-0.1-0.1-0.3-0.1s-0.5-0.3-0.8-0.4c-0.4-0.2-0.8-0.4-1.2-0.6c-0.4-0.2-0.9-0.5-1.3-0.7
		c-0.5-0.2-0.9-0.5-1.3-0.7c-0.4-0.2-0.8-0.5-1.1-0.7C92.7,65.6,92.2,65.2,92.2,65.2z"/>
	<path id="Trazado_166973" class="st14" d="M10.2,67.1c0,0-0.3,0.3-0.7,0.7C9.3,68,9,68.2,8.8,68.4c-0.3,0.2-0.6,0.4-0.9,0.7
		c-0.3,0.2-0.6,0.4-0.9,0.6c-0.3,0.2-0.5,0.3-0.8,0.5c-0.3,0.2-0.6,0.3-0.9,0.4c0.2-0.3,0.3-0.6,0.5-0.8c0.2-0.3,0.4-0.5,0.6-0.7
		c0.3-0.3,0.5-0.5,0.9-0.7c0.3-0.2,0.6-0.4,1-0.6c0.3-0.2,0.6-0.3,0.9-0.4C9.6,67.2,9.9,67.2,10.2,67.1z"/>
	<path id="Trazado_166974" class="st14" d="M7.8,53.6C7.7,53,7.5,52.5,7.4,52c-0.1-0.5-0.2-1.1-0.3-1.9c-0.1-0.8-0.2-1.7-0.2-2.5
		c0-0.9-0.1-1.9,0-3c0-1.1,0.1-2.2,0.2-3.3c0.1-1.2,0.3-2.3,0.6-3.5c0.2-1.2,0.6-2.3,0.9-3.5c0.4-1.2,0.8-2.3,1.2-3.4
		c0.5-1.1,1-2.2,1.5-3.2c0.6-1,1.1-2,1.6-2.9c0.5-0.9,1.1-1.7,1.6-2.5c0.4-0.7,0.9-1.4,1.5-2c0.5-0.6,0.9-1.1,1.2-1.5
		c0.7-0.8,1.1-1.3,1.1-1.3L17.3,19c-0.3,0.4-0.7,1-1.1,1.6c-0.4,0.6-0.8,1.3-1.3,2.1c-0.5,0.8-1,1.6-1.5,2.5c-0.5,0.9-1,1.9-1.5,2.9
		c-0.4,1-0.9,2.1-1.4,3.2c-0.4,1.1-0.8,2.2-1.2,3.4c-0.3,1.2-0.7,2.3-0.9,3.4c-0.2,1.2-0.5,2.3-0.6,3.4c-0.2,1.1-0.3,2.2-0.4,3.2
		c-0.1,1-0.1,2-0.1,2.9s0,1.7,0.1,2.5c0,0.7,0.1,1.4,0.2,1.9C7.7,53,7.8,53.6,7.8,53.6z"/>
	<path id="Trazado_166975" class="st14" d="M14.3,50.6C14.2,50,14.1,49.5,14,49c-0.1-0.5-0.2-1.1-0.3-1.9s-0.2-1.5-0.2-2.4
		c-0.1-0.9,0-1.9,0-2.9c0-1,0.1-2.1,0.2-3.2c0.1-1.1,0.2-2.3,0.5-3.4c0.1-0.6,0.2-1.2,0.3-1.7l0.4-1.7c0.3-1.2,0.7-2.3,1-3.4
		l0.3-0.8l0.3-0.8c0.2-0.5,0.4-1.1,0.6-1.6c0.4-1,0.9-2,1.4-2.9c0.4-0.9,0.9-1.7,1.4-2.5c0.4-0.7,0.9-1.4,1.3-2
		c0.4-0.6,0.8-1.1,1.1-1.5c0.6-0.8,1-1.3,1-1.3s-0.3,0.5-0.9,1.4c-0.3,0.4-0.6,1-1,1.6s-0.7,1.4-1.2,2.1c-0.5,0.8-0.9,1.7-1.3,2.6
		c-0.2,0.5-0.4,0.9-0.6,1.4c-0.1,0.2-0.2,0.5-0.3,0.7c-0.1,0.3-0.2,0.5-0.3,0.8c-0.4,1-0.8,2.1-1.2,3.2c-0.3,1.1-0.7,2.2-1,3.4
		l-0.4,1.7c-0.1,0.6-0.2,1.1-0.3,1.7c-0.2,1.1-0.4,2.3-0.5,3.4c-0.1,1.1-0.2,2.2-0.3,3.2c0,1-0.1,2-0.1,2.9c0,1.8,0,3.2,0.1,4.3
		S14.3,50.6,14.3,50.6z"/>
	<path id="Trazado_166976" class="st14" d="M24.7,46.6c0,0-0.1-0.6-0.2-1.6s-0.2-2.5-0.2-4.3c0-0.9,0-1.9,0.1-2.9
		c0-1,0.1-2.1,0.2-3.2c0.1-1.1,0.3-2.3,0.5-3.4c0.2-1.2,0.5-2.3,0.7-3.5c0.3-1.2,0.6-2.3,1-3.4c0.4-1.1,0.8-2.2,1.2-3.2
		c0.4-1,0.9-2,1.4-2.9c0.5-0.9,0.9-1.7,1.5-2.5c0.5-0.7,1-1.4,1.4-2c0.5-0.6,0.9-1,1.2-1.4c0.7-0.8,1.1-1.2,1.1-1.2s-0.3,0.5-1,1.3
		c-0.3,0.4-0.7,0.9-1.1,1.5c-0.4,0.6-0.8,1.3-1.3,2.1c-0.5,0.8-0.9,1.7-1.3,2.5c-0.5,1-0.9,1.9-1.3,2.9c-0.5,1-0.8,2.1-1.1,3.2
		c-0.4,1.1-0.6,2.3-1,3.4c-0.3,1.1-0.5,2.3-0.8,3.4c-0.2,1.2-0.4,2.3-0.5,3.4c-0.1,1.1-0.3,2.2-0.4,3.2c-0.1,1-0.2,2-0.2,2.9
		c-0.1,1.8-0.2,3.3-0.1,4.3C24.7,46,24.7,46.6,24.7,46.6z"/>
	<path id="Trazado_166977" class="st14" d="M33.7,44.7c-0.3-1.9-0.6-3.7-0.7-5.6c0-0.9-0.1-1.8-0.1-2.8c0-1,0-2,0-3.1
		c0-1.1,0.1-2.2,0.2-3.3c0.1-1.1,0.3-2.2,0.4-3.4c0.2-1.1,0.4-2.3,0.7-3.3c0.1-0.5,0.3-1.1,0.4-1.6c0.1-0.5,0.3-1,0.5-1.6
		c0.3-1,0.6-2,1-2.9c0.4-0.9,0.7-1.8,1.1-2.5c0.4-0.8,0.8-1.4,1.1-2c0.4-0.6,0.7-1.1,1-1.5l0.9-1.3c0,0-0.3,0.5-0.8,1.4
		c-0.2,0.4-0.6,0.9-0.9,1.6c-0.3,0.6-0.6,1.3-1,2.1s-0.6,1.6-1,2.5c-0.4,0.9-0.6,1.9-0.9,2.9c-0.3,1-0.5,2.1-0.8,3.1
		c-0.3,1.1-0.4,2.2-0.6,3.3c-0.2,1.1-0.3,2.2-0.4,3.3c-0.1,1.1-0.2,2.2-0.3,3.2c-0.1,1-0.1,2.1-0.2,3c-0.1,1,0,1.9-0.1,2.7
		c0,1.7,0,3.1,0.1,4.1C33.7,44.2,33.7,44.7,33.7,44.7z"/>
	<path id="Trazado_166978" class="st14" d="M44.4,9.6c0,0,0,2.1-0.1,5.2c-0.1,3.1-0.2,7.3-0.3,11.5c0,1-0.1,2.1-0.1,3.1
		c0,1,0,2-0.1,3c0,1,0,1.9,0,2.8c0,0.9,0,1.7,0,2.5c0,0.4,0,0.8,0,1.1c0,0.4,0,0.7,0.1,1c0,0.6,0.1,1.2,0.1,1.6l0.1,1.4
		c0,0-0.1-0.5-0.3-1.4c-0.1-0.5-0.2-1-0.3-1.6c0-0.3-0.1-0.7-0.2-1c0-0.4-0.1-0.7-0.1-1.1c-0.1-0.8-0.1-1.6-0.2-2.5
		c0-0.5-0.1-0.9-0.1-1.4c0-0.5,0-1,0-1.5c0-2-0.1-4.1,0-6.2c0-1,0.1-2.1,0.1-3.1c0-1,0.1-2,0.2-3c0.1-2,0.3-3.8,0.5-5.4
		s0.3-2.9,0.4-3.8C44.3,10.1,44.4,9.6,44.4,9.6z"/>
	<path id="Trazado_166979" class="st14" d="M47.8,9.3c0,0,0.7,2,1.5,5.1c0.2,0.8,0.4,1.6,0.6,2.5c0.2,0.9,0.4,1.8,0.6,2.8
		c0.1,1,0.3,2,0.5,3c0.2,1,0.3,2.1,0.4,3.1c0.1,1,0.2,2.1,0.3,3.1c0.1,1,0.1,2.1,0.1,3c0,1,0,1.9,0.1,2.9c0,0.9,0,1.8,0,2.5
		c-0.1,1.6-0.2,2.9-0.2,3.8c-0.1,0.9-0.1,1.4-0.1,1.4s0-0.5-0.1-1.4c0-0.9-0.1-2.2-0.1-3.8c0-0.8,0-1.6-0.1-2.5
		c-0.1-0.9-0.1-1.8-0.2-2.8c-0.1-1-0.1-2-0.2-3c-0.1-1-0.2-2.1-0.3-3.1c-0.1-1-0.2-2.1-0.4-3.1c-0.1-1-0.3-2-0.4-3
		c-0.1-1-0.3-1.9-0.4-2.8c-0.1-0.9-0.2-1.7-0.4-2.5c-0.3-1.5-0.5-2.8-0.7-3.7C47.9,9.8,47.8,9.3,47.8,9.3z"/>
	<path id="Trazado_166980" class="st14" d="M50.9,9.3c0.1,0.1,0.2,0.1,0.3,0.2c0.3,0.2,0.6,0.4,0.9,0.7c0.4,0.4,0.9,0.8,1.2,1.3
		c0.2,0.3,0.5,0.6,0.7,0.9c0.2,0.3,0.4,0.7,0.7,1c0.2,0.4,0.4,0.7,0.7,1.1c0.2,0.4,0.5,0.8,0.7,1.3c0.5,0.9,0.8,1.9,1.2,2.8
		c0.4,1,0.7,2.1,1,3.1c0.3,1.1,0.5,2.2,0.7,3.3c0.2,1.1,0.3,2.2,0.5,3.3c0.2,1.1,0.2,2.2,0.3,3.3c0.1,1.1,0.1,2.1,0.1,3
		c0,1,0,1.9,0,2.7c0,0.8-0.1,1.6-0.1,2.3c0,0.7-0.1,1.3-0.1,1.8c-0.1,1-0.1,1.5-0.1,1.5s0-0.6-0.1-1.5c0-0.5,0-1.1,0-1.8
		s0-1.5-0.1-2.3s-0.1-1.8-0.1-2.7c0-1-0.1-2-0.2-3c-0.1-1-0.2-2.1-0.3-3.2s-0.3-2.2-0.5-3.3s-0.4-2.2-0.7-3.3
		c-0.3-1.1-0.5-2.1-0.9-3.1c-0.3-1-0.7-1.9-1-2.8c-0.2-0.4-0.4-0.8-0.6-1.3c-0.2-0.4-0.4-0.8-0.6-1.2c-0.2-0.4-0.4-0.7-0.6-1
		c-0.2-0.3-0.4-0.6-0.6-0.9c-0.3-0.5-0.7-0.9-1.1-1.4C51.7,9.9,51.3,9.6,50.9,9.3z"/>
	<path id="Trazado_166981" class="st14" d="M55.5,9.3c0.5,0.2,1,0.5,1.5,0.8c0.2,0.2,0.5,0.3,0.7,0.5c0.2,0.2,0.5,0.4,0.8,0.7
		c0.6,0.5,1.2,1.1,1.8,1.8c0.3,0.3,0.6,0.7,0.9,1.1c0.3,0.4,0.6,0.8,0.9,1.2c0.3,0.4,0.6,0.9,0.9,1.4c0.3,0.5,0.6,0.9,0.9,1.5
		c0.5,1,1,2.1,1.5,3.2c0.2,0.6,0.4,1.1,0.6,1.7c0.2,0.6,0.4,1.2,0.5,1.8l0.5,1.8c0.1,0.6,0.2,1.2,0.4,1.8c0.1,0.6,0.2,1.2,0.3,1.7
		c0.1,0.6,0.1,1.2,0.2,1.7c0.1,1.1,0.3,2.2,0.3,3.3c0,1,0.1,2,0.1,2.9c0,0.8,0,1.7,0,2.5c0,0.7-0.1,1.4-0.1,1.9
		c-0.1,1.1-0.1,1.7-0.1,1.7s0-0.6-0.1-1.7c0-0.5-0.1-1.2-0.1-1.9s0-1.6-0.1-2.5c-0.1-0.9-0.2-1.9-0.3-2.9c-0.1-1-0.3-2.1-0.4-3.2
		c-0.1-0.6-0.2-1.1-0.3-1.7c-0.1-0.6-0.2-1.1-0.4-1.7s-0.2-1.2-0.4-1.7l-0.5-1.7c-0.2-0.6-0.3-1.2-0.5-1.7c-0.2-0.6-0.4-1.1-0.6-1.7
		c-0.4-1.1-0.9-2.1-1.4-3.2c-0.2-0.5-0.5-1-0.8-1.5c-0.2-0.5-0.5-0.9-0.8-1.4c-0.3-0.4-0.5-0.9-0.8-1.3c-0.3-0.4-0.6-0.8-0.9-1.1
		c-0.3-0.4-0.6-0.7-0.8-1s-0.5-0.6-0.8-0.9c-0.3-0.2-0.5-0.5-0.7-0.7l-0.7-0.6c-0.4-0.3-0.7-0.6-1-0.7C55.6,9.3,55.5,9.3,55.5,9.3z"
		/>
	<path id="Trazado_166982" class="st14" d="M66.1,11c0,0,0.1,0.1,0.4,0.2c0.3,0.2,0.7,0.4,1,0.7c0.5,0.4,0.9,0.8,1.3,1.3
		c0.2,0.3,0.5,0.6,0.7,0.9c0.2,0.3,0.5,0.7,0.7,1c0.3,0.4,0.5,0.8,0.7,1.2c0.3,0.4,0.5,0.8,0.7,1.3c0.2,0.5,0.5,0.9,0.7,1.4
		c0.2,0.5,0.4,1,0.6,1.5c0.4,1.1,0.8,2.1,1.1,3.2c0.3,1.1,0.6,2.3,0.8,3.4c0.3,1.1,0.4,2.3,0.6,3.5c0.2,1.1,0.3,2.3,0.4,3.4
		c0.1,0.5,0.1,1.1,0.2,1.6c0,0.5,0,1,0.1,1.6c0,1,0.1,2,0.1,2.8c0,0.9,0,1.7,0,2.4c0,0.7,0,1.3-0.1,1.8c0,1-0.1,1.6-0.1,1.6
		s0-0.6-0.1-1.6c0-0.5-0.1-1.1-0.1-1.8c-0.1-0.7-0.1-1.5-0.2-2.4c-0.1-0.9-0.2-1.8-0.3-2.8c-0.1-1-0.2-2-0.4-3.1
		c-0.2-1.1-0.2-2.2-0.5-3.3c-0.2-1.1-0.4-2.3-0.6-3.4s-0.5-2.3-0.8-3.4s-0.6-2.2-1-3.2c-0.2-0.5-0.4-1-0.5-1.5
		c-0.2-0.5-0.4-0.9-0.6-1.4c-0.2-0.4-0.4-0.9-0.6-1.3c-0.2-0.4-0.4-0.8-0.6-1.2c-0.2-0.4-0.4-0.7-0.6-1.1c-0.2-0.3-0.4-0.6-0.6-0.9
		c-0.4-0.5-0.8-1-1.2-1.4C66.9,11.6,66.5,11.3,66.1,11z"/>
	<path id="Trazado_166983" class="st14" d="M73.6,13.2c0.4,0.3,0.8,0.7,1.2,1.1c0.4,0.4,0.8,0.8,1.3,1.4c0.5,0.6,1,1.3,1.5,1.9
		c0.2,0.4,0.5,0.8,0.8,1.2c0.3,0.4,0.5,0.9,0.7,1.3c0.5,0.9,1,1.9,1.4,2.9c0.4,1,0.9,2.1,1.2,3.2s0.8,2.2,1,3.4
		c0.3,1.2,0.6,2.3,0.7,3.5c0.2,1.2,0.4,2.3,0.5,3.4c0.1,1.1,0.2,2.2,0.3,3.2c0,1,0.1,2,0.1,2.9c0,0.4,0,0.9,0,1.3c0,0.4,0,0.8,0,1.1
		c0,0.7-0.1,1.3-0.1,1.9c-0.1,1-0.1,1.6-0.1,1.6l-0.1-1.6c-0.1-1-0.1-2.5-0.3-4.3c-0.1-0.9-0.2-1.8-0.2-2.8c-0.1-1-0.3-2.1-0.4-3.1
		s-0.4-2.2-0.6-3.3c-0.2-1.1-0.5-2.3-0.8-3.4c-0.2-1.1-0.6-2.2-1-3.3c-0.3-1.1-0.8-2.1-1.1-3.2c-0.5-1-0.8-2-1.3-2.9
		c-0.2-0.4-0.4-0.9-0.7-1.3c-0.2-0.4-0.5-0.8-0.7-1.2c-0.5-0.7-0.9-1.4-1.3-2s-0.8-1.1-1.1-1.5s-0.6-0.7-0.8-0.9
		C73.7,13.3,73.6,13.2,73.6,13.2z"/>
	<path id="Trazado_166984" class="st14" d="M85,19.5c0.4,0.3,0.7,0.7,1,1.1c0.8,1,1.5,2.1,2.2,3.3c0.4,0.7,0.8,1.5,1.2,2.3
		c0.2,0.4,0.4,0.9,0.6,1.3c0.2,0.5,0.4,0.9,0.5,1.4c0.4,0.9,0.6,2,1,3c0.3,1,0.5,2.1,0.7,3.2c0.2,1.1,0.4,2.1,0.5,3.2
		c0.1,1.1,0.2,2.1,0.3,3.1c0,1,0,2,0.1,2.9c0,0.9-0.1,1.8-0.1,2.6c0,0.7-0.1,1.5-0.2,2.2c-0.1,0.7-0.2,1.2-0.2,1.7
		c-0.1,0.9-0.2,1.5-0.2,1.5s0-0.5,0-1.5c0-0.5,0-1,0.1-1.7c0-0.7,0-1.4,0-2.2c0-0.8,0-1.7,0-2.6c-0.1-0.9-0.1-1.9-0.2-2.9
		c-0.1-1-0.2-2-0.3-3.1c-0.1-1-0.3-2.1-0.5-3.1c-0.2-1-0.5-2.1-0.7-3.1c-0.3-1-0.5-2-0.9-2.9c-0.2-0.5-0.3-0.9-0.5-1.4
		c-0.2-0.5-0.3-0.9-0.5-1.3c-0.3-0.9-0.7-1.6-1-2.4c-0.4-0.7-0.7-1.4-1-1.9c-0.3-0.6-0.6-1.1-0.9-1.5C85.3,19.9,85,19.5,85,19.5z"/>
	<path id="Trazado_166985" class="st14" d="M96.3,33.2c0.5,1.1,0.8,2.2,1.2,3.3c0.3,1,0.6,2.2,0.8,3.5c0.3,1.3,0.5,2.7,0.6,4.1
		c0,0.7,0.1,1.4,0.1,2.1c0,0.7,0,1.4,0,2c0,0.6-0.1,1.3-0.1,1.9c-0.1,0.6-0.1,1.2-0.2,1.7c-0.1,0.8-0.3,1.7-0.6,2.5
		c-0.2,0.6-0.3,0.9-0.3,0.9s0-0.3,0.1-1c0-0.3,0.1-0.7,0.1-1.1c0-0.4,0-0.9,0.1-1.4c0-0.5,0-1.1,0.1-1.7c0-0.6,0-1.2,0-1.9
		s0-1.3-0.1-2c0-0.7-0.1-1.4-0.1-2c-0.1-1.4-0.3-2.7-0.4-4c-0.2-1.3-0.4-2.5-0.5-3.5s-0.3-1.9-0.5-2.5S96.3,33.2,96.3,33.2z"/>
</g>
<g id="Grupo_73308" transform="translate(6.375 82.1)">
	<path id="Trazado_166986" class="st1" d="M16.3,11.5c-1.6,0.3-3.2,0.9-4.6,1.7c-0.7,0.4-1.3,0.9-1.8,1.6c-0.2,0.3-0.5,0.6-0.6,1
		L9,16.3l-0.2,0.6c-0.1,0.4-0.1,0.8-0.1,1.2c0,0.4,0,0.8,0.1,1.2c0,0.4,0.1,0.8,0.2,1.2c0.1,0.4,0.2,0.8,0.4,1.1
		c0.3,0.8,0.6,1.5,1,2.2c0.4,0.7,0.8,1.4,1.3,2.1l0.2,0.2l-0.2,0.3c-0.2,0.3-0.4,0.5-0.5,0.8c-0.1,0.3-0.3,0.6-0.3,0.9L10.5,29
		l-0.2,1c-0.1,0.3-0.1,0.7-0.1,1s0,0.7-0.1,1c0,0.7,0,1.3,0,2c0,1.4,0.1,2.7,0.3,4.1s0.3,2.7,0.5,4.1c-0.4-1.3-0.6-2.7-0.9-4
		c-0.2-1.3-0.4-2.7-0.5-4.1c0-0.7-0.1-1.4-0.1-2.1c0-0.3,0-0.7,0-1c0-0.3,0-0.7,0.1-1l0.1-1l0.2-1c0.1-0.3,0.3-0.7,0.4-1
		c0.2-0.3,0.4-0.6,0.6-1l0,0.6c-0.5-0.7-0.9-1.4-1.3-2.2c-0.4-0.8-0.8-1.5-1.1-2.3c-0.1-0.4-0.3-0.8-0.4-1.2
		c-0.1-0.4-0.2-0.9-0.2-1.3c0-0.4-0.1-0.9,0-1.3c0-0.4,0.1-0.9,0.2-1.3L8.3,16l0.3-0.6c0.2-0.4,0.5-0.7,0.8-1.1
		c0.6-0.6,1.3-1.2,2.1-1.6c0.4-0.2,0.8-0.4,1.2-0.5c0.4-0.1,0.8-0.3,1.2-0.4C14.6,11.7,15.4,11.6,16.3,11.5z"/>
	<path id="Trazado_166987" class="st1" d="M20.7,15.7c-0.5,0.4-0.9,0.9-1.4,1.4c-0.4,0.5-0.8,1-1.1,1.6c-0.1,0.3-0.3,0.5-0.4,0.8
		c-0.1,0.3-0.3,0.6-0.4,0.9l-0.3,0.9l-0.2,0.9c-0.1,0.3-0.1,0.6-0.1,0.9c0,0.3-0.1,0.6-0.1,0.9c0,0.3,0,0.6,0,0.9l0.1,0.9
		c0.1,0.6,0.2,1.2,0.4,1.8c0.1,0.3,0.2,0.6,0.3,0.9l0.3,0.9l0,0.1l0,0.1l-0.3,1.8c-0.1,0.6-0.2,1.2-0.3,1.8l-0.2,1.8l0,1.8
		c0,0.3,0,0.6,0,0.9l0,0.9l0,0.9c0,0.3,0.1,0.6,0.1,0.9c0,0.6,0.1,1.2,0.2,1.8c0.1,0.6,0.2,1.2,0.3,1.8c-0.2-0.6-0.4-1.2-0.5-1.7
		c-0.2-0.6-0.3-1.2-0.4-1.8c-0.1-0.6-0.2-1.2-0.3-1.8l-0.1-0.9c0-0.3,0-0.6-0.1-0.9c0-0.6-0.1-1.2-0.1-1.8l0.1-1.8
		c0-0.3,0-0.6,0.1-0.9l0.2-0.9l0.3-1.8l0,0.3l-0.3-0.9c-0.1-0.3-0.2-0.6-0.3-0.9c-0.2-0.6-0.3-1.3-0.4-2l-0.1-1c0-0.3,0-0.7,0-1
		c0-0.3,0-0.7,0.1-1c0-0.3,0.1-0.7,0.2-1l0.3-1l0.4-0.9c0.1-0.3,0.3-0.6,0.5-0.9C18.1,17.8,19.3,16.6,20.7,15.7L20.7,15.7z"/>
	<path id="Trazado_166988" class="st1" d="M28,19.3c-0.4,0.5-0.8,0.9-1.1,1.5c-0.3,0.5-0.6,1-0.8,1.6c-0.2,0.5-0.4,1.1-0.6,1.7
		l-0.2,0.9c0,0.3-0.1,0.6-0.1,0.9c0,0.3,0,0.6,0,0.9c0,0.3,0,0.6,0,0.9l0.1,0.9l0.2,0.8c0.1,0.3,0.1,0.6,0.3,0.8l0.3,0.8
		c0.1,0.3,0.3,0.5,0.4,0.8l0.4,0.8l0.1,0.1l0,0.1l-0.2,3.3l-0.1,1.6c-0.1,0.5,0,1.1-0.1,1.7c0,1.1-0.1,2.2-0.1,3.3s0,2.2,0,3.3
		c-0.1-0.5-0.2-1.1-0.3-1.6l-0.2-1.7C26,42.2,26,41.6,26,41.1l-0.1-1.7c0-0.6-0.1-1.1,0-1.7l0.1-1.7l0.1-3.3l0.1,0.3l-0.4-0.8
		c-0.1-0.3-0.3-0.6-0.4-0.9L25,30.4c-0.1-0.3-0.2-0.6-0.3-0.9l-0.2-0.9l-0.1-1c0-0.3,0-0.6,0-0.9c0-0.3,0-0.6,0.1-0.9
		c0.1-0.3,0.1-0.6,0.2-0.9l0.2-0.9c0.2-0.6,0.4-1.2,0.7-1.7C26.2,21.1,27,20.1,28,19.3z"/>
	<path id="Trazado_166989" class="st1" d="M38.6,22c-0.2,0.5-0.4,1-0.6,1.6c-0.2,0.5-0.3,1.1-0.3,1.6c-0.1,0.3-0.1,0.5-0.1,0.8
		c0,0.3-0.1,0.5-0.1,0.8c0,0.5,0,1.1,0,1.6c0,0.3,0.1,0.5,0.1,0.8s0,0.5,0.1,0.8l0.1,0.8l0.2,0.8c0.1,0.5,0.3,1,0.5,1.6
		c0.1,0.3,0.2,0.5,0.3,0.8l0.3,0.8l0,0.1v0.1c-0.1,2.1-0.1,4.2-0.3,6.4l-0.2,3.2c-0.1,1.1-0.2,2.1-0.3,3.2c-0.1-1.1-0.1-2.1-0.1-3.2
		l0-3.2c0-2.1,0-4.2,0.1-6.4l0,0.2l-0.3-0.8c-0.1-0.3-0.2-0.5-0.3-0.8c-0.2-0.5-0.4-1.1-0.5-1.7L36.9,31l-0.1-0.9
		c0-0.3-0.1-0.6-0.1-0.9c0-0.3,0-0.6,0-0.9c0-0.6,0.1-1.1,0.1-1.7c0-0.3,0.1-0.6,0.1-0.8c0-0.3,0.1-0.6,0.2-0.8
		c0.2-0.5,0.4-1.1,0.6-1.6C38,22.9,38.3,22.5,38.6,22z"/>
	<path id="Trazado_166990" class="st1" d="M52,22.2c0.4,1,0.6,2,0.9,3.1c0.2,1.1,0.3,2.1,0.4,3.2c0,0.5,0.1,1.1,0,1.6
		c0,0.5-0.1,1.1-0.1,1.6c-0.1,0.5-0.2,1.1-0.3,1.6c-0.1,0.5-0.3,1.1-0.5,1.6l0-0.2l0.2,3.1l0.1,1.5c0,0.5,0,1,0,1.5l-0.1,1.5
		c0,0.5,0,1-0.1,1.5l-0.2,1.5c-0.1,0.5-0.2,1-0.3,1.5c0-1,0-2,0-3.1c0-0.5,0-1,0-1.5l-0.1-1.5c0-0.5,0-1-0.1-1.5l-0.2-1.5l-0.3-3
		l0-0.1l0-0.1l0.3-0.7c0.1-0.2,0.2-0.5,0.2-0.7c0.1-0.5,0.2-1,0.3-1.5c0.1-0.5,0.1-1,0.2-1.5c0-0.5,0-1,0.1-1.6
		c0-1.1-0.1-2.1-0.2-3.2C52.3,24.3,52.2,23.2,52,22.2z"/>
	<path id="Trazado_166991" class="st1" d="M60.9,20.9c0.4,0.3,0.8,0.6,1.2,1c0.4,0.4,0.7,0.8,1,1.2c0.2,0.2,0.3,0.4,0.4,0.7
		c0.1,0.2,0.3,0.4,0.4,0.7c0.3,0.5,0.5,0.9,0.7,1.4c0.1,0.2,0.2,0.5,0.3,0.7c0.1,0.2,0.2,0.5,0.2,0.8c0.1,0.5,0.3,1,0.3,1.5
		c0.1,0.5,0.1,1,0.2,1.6c0,0.3,0,0.5,0,0.8v0.8l0-0.2l0.5,1.5l0.3,0.8c0.1,0.3,0.1,0.5,0.2,0.8l0.3,1.6c0.1,0.5,0.1,1.1,0.1,1.6
		c0,0.3,0,0.5,0,0.8l0,0.8c0,0.5-0.1,1.1-0.1,1.6c-0.1,0.5-0.2,1-0.3,1.5c-0.1,0.5-0.3,1-0.5,1.5c0.1-0.5,0.2-1,0.2-1.5
		c0.1-0.5,0.1-1,0.1-1.5c0-0.5,0-1,0-1.5l0-0.8c0-0.3-0.1-0.5-0.1-0.8l-0.1-0.8c0-0.3,0-0.5-0.1-0.8l-0.4-1.5c0-0.2-0.1-0.5-0.2-0.7
		l-0.3-0.7l-0.5-1.4l0-0.1V32l0-0.7c0-0.3,0-0.5,0-0.7c0-0.5,0-1-0.1-1.5c0-0.5-0.1-1-0.2-1.5c0-0.2-0.1-0.5-0.2-0.7
		s-0.1-0.5-0.2-0.7c-0.2-0.5-0.3-0.9-0.5-1.4c-0.2-0.5-0.4-0.9-0.7-1.3c-0.2-0.4-0.5-0.9-0.8-1.3C61.6,21.7,61.2,21.3,60.9,20.9z"/>
	<path id="Trazado_166992" class="st1" d="M92.9,9.3c0.2,0.1,0.5,0.1,0.7,0.2c0.6,0.2,1.2,0.5,1.8,0.8c0.8,0.4,1.6,1,2.3,1.5
		c0.4,0.3,0.8,0.6,1.2,1s0.8,0.7,1.2,1.2c0.4,0.4,0.7,0.8,1,1.3c0.3,0.4,0.6,0.9,0.9,1.3c0.3,0.4,0.5,0.9,0.7,1.3
		c0.1,0.2,0.2,0.4,0.3,0.6c0.1,0.2,0.1,0.4,0.2,0.6c0.1,0.4,0.3,0.7,0.3,1.1c0.1,0.3,0.1,0.6,0.2,0.8c0.1,0.5,0.1,0.7,0.1,0.7
		s-0.1-0.2-0.3-0.7c-0.1-0.2-0.2-0.5-0.3-0.8c-0.1-0.3-0.3-0.6-0.5-1c-0.2-0.4-0.4-0.8-0.6-1.1c-0.2-0.4-0.5-0.8-0.8-1.2
		c-0.3-0.4-0.6-0.8-0.9-1.2c-0.3-0.4-0.7-0.8-1-1.2c-0.7-0.8-1.4-1.5-2.2-2.2c-0.4-0.3-0.7-0.6-1.1-0.9s-0.7-0.6-1-0.8
		c-0.6-0.5-1.2-0.9-1.6-1.1C93.1,9.4,92.9,9.3,92.9,9.3z"/>
	<path id="Trazado_166993" class="st1" d="M5.3,11.6c0.6,0.9,1.2,1.7,1.8,2.5c0.8,0.9,1.6,1.8,2.4,2.6c1.1,1.1,2.3,2.1,3.5,3
		c1.4,1.1,2.9,2.1,4.5,3c1.7,1,3.5,1.9,5.4,2.6c2,0.8,4,1.5,6.1,2c2.2,0.5,4.3,0.9,6.6,1.1c1.1,0.2,2.2,0.2,3.3,0.3
		c1.1,0.1,2.2,0.1,3.3,0.1c1.1,0,2.2-0.1,3.3-0.1c1.1,0,2.1-0.2,3.2-0.3c0.5-0.1,1-0.1,1.6-0.2c0.5-0.1,1-0.1,1.5-0.2
		c1-0.2,2-0.2,2.9-0.4c0.9-0.2,1.9-0.4,2.8-0.5c0.9-0.2,1.7-0.4,2.6-0.6c1.6-0.4,3.1-0.8,4.4-1.2c0.7-0.2,1.3-0.4,1.9-0.5
		c0.6-0.2,1.1-0.4,1.5-0.5l2.9-0.9c0,0-1,0.4-2.9,1.1c-0.5,0.2-1,0.4-1.5,0.6l-1.8,0.6c-0.7,0.2-1.3,0.4-2.1,0.7s-1.5,0.4-2.3,0.7
		c-0.8,0.2-1.7,0.5-2.6,0.7s-1.8,0.4-2.8,0.6c-0.9,0.2-1.9,0.4-2.9,0.5c-0.5,0.1-1,0.2-1.5,0.2c-0.5,0.1-1,0.1-1.6,0.2
		c-1.1,0.1-2.1,0.2-3.2,0.3c-1.1,0.1-2.2,0.2-3.3,0.1c-1.1,0-2.2,0-3.4-0.1c-1.1,0-2.3-0.1-3.4-0.3c-2.2-0.3-4.5-0.7-6.7-1.2
		c-2.1-0.6-4.2-1.3-6.2-2.1c-1.9-0.8-3.7-1.7-5.4-2.8c-1.6-1-3.1-2-4.5-3.2c-1.2-1-2.3-2-3.4-3.2C8.5,16,7.7,15.1,7,14.1
		C6.4,13.3,5.8,12.5,5.3,11.6z"/>
	<path id="Trazado_166994" class="st1" d="M6,30.8c0,0,1,0.6,2.8,1.5c2.5,1.3,5,2.5,7.6,3.5c7.8,3.2,16.1,5.1,24.5,5.6
		c1.1,0.1,2.3,0.1,3.4,0.1c1.1,0,2.3,0,3.4-0.1c2.2-0.1,4.4-0.3,6.6-0.6c2.1-0.3,4.2-0.7,6.1-1.2c1-0.3,1.9-0.5,2.8-0.7
		c0.9-0.3,1.7-0.6,2.6-0.8s1.6-0.6,2.3-0.9c0.7-0.3,1.4-0.5,2.1-0.8c1.3-0.6,2.4-1,3.3-1.5l2.8-1.4c0,0-1,0.6-2.8,1.6
		c-0.9,0.5-2,1-3.3,1.7c-1.3,0.6-2.7,1.2-4.4,1.8c-0.8,0.3-1.7,0.6-2.6,0.9c-0.9,0.3-1.8,0.5-2.8,0.8c-2,0.6-4.1,1-6.1,1.3
		c-2.2,0.3-4.5,0.6-6.7,0.7c-1.1,0.1-2.3,0.1-3.5,0.1c-1.2,0-2.3,0-3.5-0.1c-2.3-0.2-4.6-0.4-6.9-0.8c-2.3-0.4-4.5-0.9-6.6-1.4
		c-3.8-1-7.6-2.3-11.2-3.9c-2.6-1.1-5.1-2.4-7.5-3.8C7,31.5,6,30.8,6,30.8z"/>
</g>
<g id="Grupo_73309" transform="translate(7.28 41.582)">
	<path id="Trazado_166995" class="st15" d="M101.6,28.2c0,0-2.6-3.8-1.3-7.2c-3.2,3-14.8-1.8-16.2-7.6c-1.1,5.8-15.7,2.9-19.1-4
		c-0.1,7.7-18.3,6-21.1-0.2c-0.6,5.9-17.4,8.8-18.9,2.7c-0.6,9.1-15.3,10.1-17,7.1c1.6,7.1-1.8,8.2-2.8,11.6c4.2-3,6.7-2.2,8.2-0.4
		c-2.2-4.2-2.6-4.7-2.6-4.7s8.7-8.4,40.5-8.7c27.1-0.2,41.5,6.8,41.5,6.8c-0.7,2.4-1.1,4.8-1.4,7.2C94.5,23.7,101.6,28.2,101.6,28.2
		z"/>
</g>
<g id="Grupo_73310" transform="translate(2.152 14.672)" class="st16">
	<path id="Trazado_166996" class="st1" d="M96,9.9c9.4,12.4,11.8,31.5,3.8,26.4c-35.5-16.7-67-9.2-83.4-0.5c-9.8,5.1-10.7-1-9.8-6.8
		C5.4,33.9,5,39,5.6,44c0,0,19.3-15.4,50.2-15.7s47.5,11.8,52.9,16c0,0,0.6-20.4-13.2-35.1C95.7,9.5,95.8,9.7,96,9.9z"/>
</g>
<g id="Grupo_73311" transform="translate(56.103 90.688)">
	<path id="Trazado_166997" class="st14" d="M25.4,20.4c-1.7-4.5-11-11.1-11-11.1l-3.5,3l-3,0.3c-0.9,0.2-1.8,0.4-2.7,0.6
		c2.3,0.5,4.7,0.6,7,0.2c4.6-1,11.6,8,12.8,19.1c1-0.4,1.9-0.9,2.9-1.3C27.5,27.4,26.6,23.9,25.4,20.4z"/>
</g>
<g id="Grupo_73312" transform="translate(78.742 84.587)">
	<path id="Trazado_166998" class="st17" d="M41.8,75.7c0,0-6-11.9-9.8-20c-1.7-2.7-1.5-3.8,0.1-14.4s3.2-14.6-2.3-20.9
		S18.8,8,12.7,9.5C8,10.7,6,11.8,5.3,12.2l7.8,3c1.6-1.8,4.1-2.4,6.4-1.6c7.8,3.2,12.1,11.5,10.2,19.7c-2.4,11.6-8.1,15.9-1.3,28.3
		c3,5.6,5.5,11.4,7.4,17.5c0.8-0.4,1.5-0.8,2.2-1.2C39.2,76.9,40.4,76.2,41.8,75.7z"/>
</g>
<g id="Grupo_73314" transform="translate(16.23 119.955)">
	<path id="Trazado_166999" class="st3" d="M45.4,9.3c0,0,0.1,0.3,0.1,0.7s0.2,1.2,0.4,2.1c0.3,1.8,0.8,4.4,1.2,7.5
		c0.2,1.6,0.5,3.2,0.7,5s0.5,3.7,0.7,5.6c0.2,2,0.4,4,0.5,6s0.4,4.1,0.5,6.2c0.1,2.1,0.2,4.2,0.3,6.2c0,1,0.1,2,0.1,3c0,1,0,2,0,3
		c0,2,0,3.9,0,5.6c0,1.8,0,3.5-0.1,5.1c-0.1,3.1-0.3,5.7-0.4,7.6c-0.1,1.8-0.2,2.9-0.2,2.9s0-1,0-2.9c0-1.8,0-4.4,0.1-7.6
		c0.1-1.6,0-3.3-0.1-5c-0.1-1.8-0.1-3.7-0.2-5.6c0-1,0-2-0.1-3c0-1-0.1-2-0.2-3c-0.1-2-0.2-4.1-0.4-6.2c-0.1-2.1-0.3-4.2-0.4-6.2
		c-0.2-2-0.3-4.1-0.5-6c-0.4-3.9-0.7-7.5-1.1-10.6c-0.2-1.6-0.3-3-0.5-4.2c-0.2-1.3-0.3-2.4-0.4-3.3C45.5,10.3,45.4,9.3,45.4,9.3z"
		/>
	<g id="Grupo_73313" transform="translate(0 1.208)">
		<path id="Trazado_167000" class="st3" d="M5.3,22c0-0.5,0-0.9,0.1-1.4c0.1-0.5,0.3-0.9,0.5-1.3c0.1-0.2,0.3-0.5,0.4-0.7
			c0.2-0.2,0.3-0.4,0.5-0.7c0.2-0.2,0.4-0.4,0.6-0.6c0.2-0.2,0.4-0.3,0.7-0.5c0.2-0.1,0.4-0.2,0.7-0.3c0.2-0.1,0.4-0.2,0.6-0.2
			c0.3-0.1,0.7-0.1,1-0.2c0.2,0,0.4,0,0.4,0s-0.1,0.1-0.3,0.2c-0.1,0.1-0.2,0.1-0.4,0.2s-0.3,0.2-0.5,0.3s-0.3,0.2-0.5,0.3
			s-0.4,0.2-0.5,0.4c-0.4,0.3-0.7,0.6-1.1,1c-0.3,0.4-0.6,0.7-0.9,1.1c-0.1,0.2-0.3,0.4-0.4,0.6S6.1,20.7,6,20.9
			C5.6,21.6,5.3,22,5.3,22z"/>
		<path id="Trazado_167001" class="st3" d="M15.1,30.6c0.3-0.7,0.8-1.3,1.3-1.9c0.3-0.3,0.6-0.5,0.9-0.8c0.2-0.1,0.3-0.2,0.5-0.3
			c0.2-0.1,0.3-0.2,0.5-0.3c0.4-0.2,0.7-0.3,1.1-0.4c0.4-0.1,0.8-0.2,1.2-0.2c0.2,0,0.4,0,0.6,0l0.6,0c0.4,0,0.8,0.1,1.2,0.2
			l-0.5,0.5L21.6,25c-0.3-0.8-0.6-1.5-0.9-2.3l-0.9-2.3l-1-2.3c-0.3-0.8-0.7-1.5-1-2.3s-0.7-1.5-1.1-2.2c-0.7-1.5-1.4-3-2.2-4.5
			c0.5,0.7,1,1.4,1.4,2.1c0.4,0.7,0.9,1.4,1.3,2.1c0.4,0.7,0.8,1.4,1.2,2.2c0.4,0.7,0.8,1.5,1.1,2.2l1.1,2.3l1,2.3
			c0.3,0.8,0.6,1.5,0.9,2.3l0.8,2.4l0.2,0.7l-0.7-0.2l-0.5-0.1c-0.2,0-0.3-0.1-0.5-0.1l-0.5-0.1c-0.2,0-0.4,0-0.5,0
			c-0.4,0-0.7,0-1.1,0.1c-0.4,0.1-0.7,0.2-1,0.3c-0.2,0.1-0.3,0.1-0.5,0.2c-0.2,0.1-0.3,0.2-0.5,0.3c-0.3,0.2-0.6,0.4-0.9,0.6
			C16,29.4,15.5,30,15.1,30.6z"/>
		<path id="Trazado_167002" class="st3" d="M17.2,34.7c0.1-0.3,0.1-0.5,0.3-0.7l0.1-0.4l0.2-0.3c0.2-0.5,0.5-0.9,0.9-1.3l1-1.2
			c0.3-0.4,0.7-0.8,1.1-1.1l1.1-1.1c0.4-0.4,0.8-0.7,1.2-1l2.5-1.9l2.7-1.6c0.9-0.5,1.8-1.1,2.7-1.6l5.5-2.8l0.3-0.2l0.2,0.3
			l9.1,16.7l0.2,0.3L46,37.2c-0.7,0.7-1.4,1.3-2.1,1.9s-1.4,1.3-2.2,1.9l-2.2,1.8l-2.3,1.8c-0.7,0.6-1.5,1.2-2.3,1.7
			c-0.8,0.6-1.5,1.2-2.4,1.7l-2.4,1.6c-0.8,0.5-1.7,0.9-2.5,1.4c-0.4,0.2-0.8,0.4-1.3,0.7l-1.3,0.5c-0.9,0.3-1.9,0.5-2.9,0.7
			c-0.5,0.1-1,0.1-1.5,0.1c-0.5,0-1,0-1.5-0.1c-1-0.1-1.9-0.4-2.8-0.7c-0.9-0.4-1.8-0.8-2.6-1.3c-0.4-0.3-0.8-0.6-1.2-0.9
			c-0.4-0.3-0.7-0.6-1.1-1c-0.7-0.7-1.3-1.4-1.9-2.2C9,46,8.5,45.2,8.1,44.3c0.5,0.8,1,1.6,1.6,2.4c0.6,0.7,1.2,1.4,2,2.1
			c0.3,0.3,0.7,0.6,1.1,0.9c0.4,0.3,0.8,0.5,1.2,0.8c0.8,0.5,1.7,0.9,2.5,1.2c0.9,0.3,1.8,0.5,2.7,0.6c0.5,0.1,0.9,0.1,1.4,0.1
			c0.5,0,0.9,0,1.4-0.1c0.9-0.1,1.8-0.4,2.7-0.7L26,51l1.2-0.7c0.8-0.5,1.7-0.9,2.5-1.4l2.4-1.6c0.8-0.5,1.6-1.1,2.3-1.7
			c0.8-0.6,1.5-1.1,2.3-1.7l2.2-1.8l2.2-1.9c1.4-1.2,2.9-2.5,4.2-3.8l-0.1,0.6l-8.9-16.8l0.5,0.2l-5.6,2.7c-0.9,0.4-1.8,1-2.7,1.5
			l-2.7,1.6L23.4,28c-0.4,0.3-0.9,0.6-1.2,0.9l-1.2,1c-0.4,0.3-0.8,0.7-1.1,1l-1,1.1c-0.3,0.4-0.6,0.8-0.9,1.2l-0.2,0.3L17.5,34
			C17.4,34.2,17.3,34.4,17.2,34.7z"/>
		<path id="Trazado_167003" class="st3" d="M14.5,37.7c0,0,0,0.5,0,1.1c0,0.3,0,0.7-0.1,1.1s-0.1,0.8-0.1,1.2c0,0.2,0,0.4,0,0.6
			c0,0.2,0,0.4,0,0.6c0,0.4,0,0.8,0,1.1c0,0.4,0,0.7,0,1.1c-0.2-0.3-0.4-0.7-0.5-1c-0.1-0.4-0.2-0.8-0.3-1.1c0-0.4,0-0.9,0-1.3
			c0-0.4,0.1-0.9,0.2-1.3c0.1-0.4,0.2-0.7,0.4-1.1C14.1,38.4,14.3,38,14.5,37.7z"/>
		<path id="Trazado_167004" class="st3" d="M18.1,9.7c0.2,0.2,0.3,0.5,0.4,0.8c0.1,0.3,0.1,0.6,0.2,0.8c0,0.3,0,0.7,0,1
			c0,0.2-0.1,0.3-0.1,0.5c0,0.2-0.1,0.3-0.1,0.5c-0.1,0.3-0.2,0.5-0.3,0.8c-0.1,0.2-0.3,0.5-0.5,0.7c0-0.3,0-0.6,0-0.8
			c0-0.2,0-0.5,0.1-0.8s0.1-0.6,0.1-0.9c0.1-0.3,0.1-0.6,0.1-0.9c0-0.3,0.1-0.6,0.1-0.8C18,10,18.1,9.7,18.1,9.7z"/>
		<path id="Trazado_167005" class="st3" d="M37.5,21.6c0.7,1.1,1.3,2.1,1.9,3.2c0.6,1.1,1.3,2.2,1.9,3.3c1.3,2.2,2.5,4.4,3.7,6.6
			l-0.4-0.2c0.5-0.1,0.9-0.2,1.4-0.3c0.2-0.1,0.4-0.2,0.6-0.3c0.2-0.1,0.4-0.2,0.6-0.4c0.1-0.1,0.2-0.1,0.3-0.2l0.2-0.2l0.1-0.1
			l0.1-0.1l0,0c0,0,0-0.1,0,0.1l0,0l0,0l0,0c0-0.1,0.1-0.1,0.1-0.2c0,0,0,0,0-0.1c0-0.5-0.1-0.9-0.2-1.3c-0.3-1-0.6-1.9-1.1-2.8
			c-0.4-0.9-0.9-1.9-1.3-2.8c-0.9-1.8-2-3.6-3.2-5.2c-0.3-0.4-0.7-0.7-1.1-1c-0.2-0.1-0.4-0.2-0.5-0.1l-0.7,0.4
			c-0.5,0.2-0.9,0.5-1.3,0.8C38.2,20.9,37.8,21.2,37.5,21.6z M37.5,21.6c0.2-0.2,0.3-0.4,0.5-0.6c0.2-0.2,0.3-0.4,0.5-0.6
			c0.4-0.4,0.8-0.7,1.2-1l0.6-0.4c0.3-0.2,0.7-0.1,0.9,0c0.5,0.3,0.9,0.6,1.2,1c0.7,0.8,1.3,1.6,1.9,2.5c0.6,0.9,1.1,1.7,1.6,2.7
			C47.1,27,48,29,48.6,31c0.2,0.6,0.3,1.1,0.2,1.7c0,0.1,0,0.2-0.1,0.3c0,0.1,0,0.1-0.1,0.2l0,0v0h0c-0.1,0.1,0,0,0,0.1l0,0
			l-0.1,0.1l-0.1,0.2l-0.3,0.3c-0.1,0.1-0.2,0.2-0.3,0.3c-0.2,0.2-0.5,0.3-0.7,0.4c-0.2,0.1-0.5,0.2-0.8,0.3
			c-0.5,0.2-1.1,0.3-1.6,0.4l-0.3,0L44.2,35c-1.2-2.2-2.3-4.5-3.4-6.7c-0.6-1.1-1.1-2.2-1.7-3.4C38.6,23.8,38,22.7,37.5,21.6z"/>
		<path id="Trazado_167006" class="st3" d="M70.6,32.3c-2.5,1.1-5.1,2.3-7.5,3.7c-1.2,0.7-2.4,1.4-3.6,2.1c-0.3,0.2-0.6,0.4-0.8,0.6
			s-0.6,0.4-0.8,0.6l-0.8,0.6l-0.7,0.7l0,0c-0.4,0.8-0.5,1.8-0.3,2.7c0.1,1,0.4,2,0.6,2.9c0.6,1.9,1.3,3.8,2.2,5.6
			c0.9,1.8,1.9,3.5,3,5.2c0.3,0.4,0.6,0.8,0.9,1.2l0.1,0.2l0,0l0,0l0,0c-0.1-0.1,0,0,0-0.1l0.1,0.1l0.1,0.1h0c0,0,0,0,0.1,0
			c0.2,0.1,0.4,0.1,0.6,0.1c1,0,2,0,2.9-0.2c2-0.4,3.9-0.8,5.9-1.4c1.9-0.5,3.9-1.2,5.8-1.8c1.9-0.7,3.8-1.4,5.7-2.1
			c1.9-0.7,3.8-1.6,5.6-2.4c-1.8,1-3.6,1.8-5.5,2.7s-3.7,1.6-5.6,2.4c-3.8,1.5-7.7,2.7-11.7,3.5c-1,0.2-2.1,0.3-3.1,0.3
			c-0.3,0-0.6-0.1-0.9-0.1c-0.2-0.1-0.3-0.2-0.5-0.3l-0.1-0.1L62.3,59l0,0l0,0l0,0l-0.1-0.2c-0.3-0.4-0.6-0.8-0.9-1.2
			c-1.2-1.7-2.2-3.5-3.1-5.3c-0.9-1.9-1.6-3.8-2.2-5.8c-0.3-1-0.5-2-0.6-3c-0.1-0.5-0.1-1.1,0-1.6c0-0.6,0.2-1.2,0.6-1.6l0,0l0,0
			l0.8-0.7l0.8-0.7c0.3-0.2,0.6-0.4,0.9-0.6s0.6-0.4,0.9-0.6c1.2-0.7,2.4-1.4,3.7-2C65.4,34.3,68,33.3,70.6,32.3z"/>
		<path id="Trazado_167007" class="st3" d="M55.8,44.2c-0.7,0.4-1.3,0.8-1.9,1.3c-0.3,0.2-0.6,0.5-0.8,0.8c-0.1,0.1-0.2,0.3-0.3,0.4
			c-0.1,0.1-0.1,0.3-0.1,0.5l0-0.1c0.9,2.6,2,5.1,3.3,7.6c0.3,0.6,0.7,1.2,1,1.8c0.4,0.6,0.8,1.1,1.2,1.6l0.4,0.4l0.3,0.3
			c0.2,0.2,0.5,0.3,0.7,0.4c0.5,0.1,1.1,0,1.4-0.5c0.2-0.2,0.4-0.5,0.6-0.8l0,0l0,0c-0.1,0.1,0,0,0,0l0,0l0-0.1c0-0.1,0,0,0,0
			c0,0,0,0,0-0.1c0-0.1-0.1-0.2-0.2-0.4c-0.3-0.6-0.7-1.1-1.1-1.7c-0.8-1.2-1.5-2.4-2.1-3.7c-0.6-1.3-1.1-2.6-1.6-3.9
			C56.4,47,56.1,45.6,55.8,44.2z M55.8,44.2c0.4,1.3,0.9,2.7,1.4,3.9c0.5,1.3,1.1,2.5,1.8,3.8c0.7,1.2,1.4,2.4,2.2,3.5
			c0.4,0.6,0.8,1.1,1.2,1.8c0.1,0.2,0.2,0.4,0.2,0.6c0,0.1,0,0.3,0,0.4c0,0.1,0,0.2-0.1,0.3l0,0.1l-0.1,0.1l0,0
			c-0.2,0.3-0.4,0.6-0.7,0.9c-0.3,0.3-0.6,0.5-1,0.7c-0.4,0.2-0.9,0.2-1.3,0c-0.4-0.1-0.7-0.3-1-0.6l-0.4-0.4l-0.4-0.4
			c-0.4-0.6-0.9-1.2-1.3-1.8c-0.3-0.6-0.7-1.2-1-1.9s-0.6-1.3-0.9-1.9c-0.3-0.7-0.5-1.3-0.8-2c-0.5-1.3-0.9-2.6-1.3-4l0,0l0,0
			c0-0.2,0.1-0.4,0.2-0.6c0.1-0.2,0.2-0.3,0.4-0.5c0.3-0.3,0.6-0.5,0.9-0.8C54.4,44.9,55.1,44.5,55.8,44.2z"/>
	</g>
</g>
<path id="Trazado_167008" class="st6" d="M60.1,143.1c0,0,3.2-12,6.4-12.5c2.3-0.5-0.2,8.4-0.2,8.4s5.9-10.2,9.9-9.4
	c3.2,0.8-5.2,9.7-5.2,9.7s8.7-6.4,10.8-4.6c2.1,1.8-7.5,7.3-7.5,7.3s10.4-2.1,10.7-0.2c0.3,2-8.8,4.6-8.8,4.6s7.3,0.6,7.3,2.6
	c0,2-8.2,1.1-8.2,1.1c-2.8,2.7-6.7,3.9-10.5,3.2C63.7,149.7,62.2,146.2,60.1,143.1z"/>
<path id="Trazado_167009" class="st6" d="M68.8,168.4c0,0-10-6.3-11.8-3.8c-1.1,1.3,6,5.4,6,5.4s-13.9-0.5-14.5,4.3
	c-0.5,1.9,11.5,0.2,11.5,0.2s-12.9,2.2-12.8,5.7c0.2,2.1,8.2-0.9,13.4-1.1c-7.7,2.8-11,5.5-9.8,7.4c1.3,1.9,10.9-3.5,13.6-4.4
	c-7.3,7.3-9,9.1-6.8,10.1c2.2,0.9,6.1-5.5,10.1-8.2s6.4-4.2,6.4-4.2S70.1,173.6,68.8,168.4z"/>
</svg>
