<svg xmlns="http://www.w3.org/2000/svg" xmlns:xlink="http://www.w3.org/1999/xlink" width="85" height="85" viewBox="0 0 85 85">
  <defs>
    <clipPath id="clip-path">
      <rect id="Rectángulo_21203" data-name="Rectángulo 21203" width="85" height="85" transform="translate(1230 4837)" fill="#fff" stroke="#707070" stroke-width="1"/>
    </clipPath>
  </defs>
  <g id="Enmascarar_grupo_64" data-name="Enmascarar grupo 64" transform="translate(-1230 -4837)" opacity="0.75" clip-path="url(#clip-path)">
    <g id="shopping-online" transform="translate(1230 4837.01)">
      <path id="Trazado_167595" data-name="Trazado 167595" d="M83.57,73.642H80.737V70.809H77.9v2.833H75.072V70.809H72.239v2.833H51.159a3.957,3.957,0,0,0-3.567,2.2,1.134,1.134,0,0,1-1.024.633H38.411a1.133,1.133,0,0,1-1.024-.633,3.957,3.957,0,0,0-3.56-2.2H12.748v-25.5H9.915v25.5H7.082v-25.5H4.249v25.5H1.416A1.417,1.417,0,0,0,0,75.059v4.249a5.666,5.666,0,0,0,5.666,5.666H79.321a5.666,5.666,0,0,0,5.666-5.666V75.059a1.417,1.417,0,0,0-1.416-1.416Zm-1.416,5.666a2.833,2.833,0,0,1-2.833,2.833H5.666a2.833,2.833,0,0,1-2.833-2.833V76.475H33.827a1.133,1.133,0,0,1,1.024.633,3.957,3.957,0,0,0,3.56,2.2h8.164a3.956,3.956,0,0,0,3.567-2.2,1.134,1.134,0,0,1,1.017-.633H82.154Zm0,0" fill="#12263f"/>
      <path id="Trazado_167596" data-name="Trazado 167596" d="M36.828,22.65V19.817h-25.5A7.091,7.091,0,0,0,4.249,26.9v1.416H7.082V26.9a4.25,4.25,0,0,1,4.249-4.249Zm0,0" fill="#12263f"/>
      <path id="Trazado_167597" data-name="Trazado 167597" d="M9.915,28.316H39.661V25.483H12.748A2.833,2.833,0,0,0,9.915,28.316Zm0,0"/>
      <path id="Trazado_167598" data-name="Trazado 167598" d="M80.366,17.816l1.7-5.358a1.416,1.416,0,0,0-1.045-1.815l-5.495-1.2-1.2-5.489A1.417,1.417,0,0,0,72.522,2.9L67.164,4.6,63.37.449a1.46,1.46,0,0,0-2.093,0L57.489,4.608,52.125,2.9a1.416,1.416,0,0,0-1.814,1.046l-1.2,5.494-5.483,1.2a1.416,1.416,0,0,0-1.046,1.815l1.7,5.358L40.121,21.6a1.415,1.415,0,0,0,0,2.093l4.159,3.788-1.7,5.358a1.416,1.416,0,0,0,1.046,1.815l5.495,1.2,1.2,5.494A1.417,1.417,0,0,0,52.137,42.4l5.358-1.707,3.788,4.159a1.415,1.415,0,0,0,2.094,0l3.787-4.159L72.522,42.4a1.416,1.416,0,0,0,1.814-1.046l1.2-5.494,5.494-1.2a1.416,1.416,0,0,0,1.046-1.815l-1.7-5.358L84.538,23.7a1.416,1.416,0,0,0,0-2.093ZM77.787,26a1.416,1.416,0,0,0-.395,1.477l1.5,4.743-4.863,1.064a1.418,1.418,0,0,0-1.08,1.08L71.9,39.223l-4.743-1.511a1.424,1.424,0,0,0-1.477.4l-3.352,3.686-3.352-3.683a1.406,1.406,0,0,0-1.471-.395l-4.749,1.507L51.688,34.36a1.418,1.418,0,0,0-1.08-1.08l-4.857-1.058,1.511-4.743a1.416,1.416,0,0,0-.4-1.477L43.18,22.65,46.863,19.3a1.414,1.414,0,0,0,.395-1.477l-1.507-4.743,4.863-1.064a1.418,1.418,0,0,0,1.08-1.08l1.058-4.857,4.743,1.511a1.416,1.416,0,0,0,1.477-.4l3.352-3.686,3.352,3.683a1.414,1.414,0,0,0,1.477.395L71.9,6.077l1.064,4.863a1.418,1.418,0,0,0,1.08,1.08L78.9,13.083l-1.51,4.744a1.416,1.416,0,0,0,.395,1.477l3.68,3.345Zm0,0" fill="#529ad9"/>
      <path id="Trazado_167599" data-name="Trazado 167599" d="M54.24,28.731,68.4,14.566l2,2L56.243,30.734Zm0,0" fill="#12263f"/>
      <path id="Trazado_167600" data-name="Trazado 167600" d="M59.491,18.4a4.249,4.249,0,1,0-4.249,4.249A4.25,4.25,0,0,0,59.491,18.4Zm-5.666,0a1.416,1.416,0,1,1,1.416,1.416A1.417,1.417,0,0,1,53.825,18.4Zm0,0" fill="#12263f"/>
      <path id="Trazado_167601" data-name="Trazado 167601" d="M69.406,22.65A4.249,4.249,0,1,0,73.655,26.9a4.25,4.25,0,0,0-4.249-4.249Zm0,5.666A1.416,1.416,0,1,1,70.822,26.9,1.417,1.417,0,0,1,69.406,28.316Zm0,0" fill="#12263f"/>
      <path id="Trazado_167602" data-name="Trazado 167602" d="M36.776,37.9a1.405,1.405,0,0,0-1.318.371L21.633,51.954l-3.361,2a5.444,5.444,0,0,0,2.05,10.095l2.95,5.97a1.415,1.415,0,0,0,1.275.789H30.12a1.417,1.417,0,0,0,1.3-1.983l-2.932-6.77,15.4.255h.024a1.416,1.416,0,0,0,1.338-1.878L37.794,38.818a1.416,1.416,0,0,0-1.017-.916ZM18.556,59.478a2.61,2.61,0,0,1,1.163-3.1l2.213-1.313,2.477,4.9-2.1,1.038a2.712,2.712,0,0,1-2.249.073,2.625,2.625,0,0,1-1.506-1.6Zm6.873,8.5L23.286,63.65c.089-.039.185-.055.275-.1L25.6,62.54l2.354,5.436ZM27.2,59.207l-2.952-5.844L35.859,41.87,41.92,59.445Zm0,0" fill="#529ad9"/>
      <path id="Trazado_167603" data-name="Trazado 167603" d="M44.137,48.507l4.684-1.628.929,2.675-4.684,1.628Zm0,0" fill="#12263f"/>
      <path id="Trazado_167604" data-name="Trazado 167604" d="M40.456,39.091l3.124-3.256L45.624,37.8,42.5,41.052Zm0,0" fill="#12263f"/>
      <path id="Trazado_167605" data-name="Trazado 167605" d="M48.159,58.061h4.249v2.833H48.159Zm0,0" fill="#12263f"/>
      <path id="Trazado_167606" data-name="Trazado 167606" d="M83.57,48.146H80.737V38.231H77.9v9.915H75.072V45.313H72.239v2.833H56.658a1.417,1.417,0,0,0-1.416,1.416v17a1.417,1.417,0,0,0,1.416,1.416H83.57a1.417,1.417,0,0,0,1.416-1.416v-17A1.417,1.417,0,0,0,83.57,48.146Zm-1.416,17H58.074V50.979h24.08Zm0,0" fill="#529ad9"/>
      <path id="Trazado_167607" data-name="Trazado 167607" d="M60.907,53.812h5.666v2.833H60.907Zm0,0" fill="#12263f"/>
      <path id="Trazado_167608" data-name="Trazado 167608" d="M69.406,53.812h9.915v2.833H69.406Zm0,0" fill="#12263f"/>
      <path id="Trazado_167609" data-name="Trazado 167609" d="M60.907,59.478H79.321v2.833H60.907Zm0,0" fill="#12263f"/>
      <path id="Trazado_167610" data-name="Trazado 167610" d="M1.416,45.313H22.663A1.417,1.417,0,0,0,24.08,43.9V32.565a1.417,1.417,0,0,0-1.416-1.416H1.416A1.417,1.417,0,0,0,0,32.565V43.9A1.417,1.417,0,0,0,1.416,45.313ZM2.833,33.982H21.247v8.5H2.833Zm0,0"/>
      <path id="Trazado_167611" data-name="Trazado 167611" d="M5.666,36.815H8.5v2.833H5.666Zm0,0"/>
      <path id="Trazado_167612" data-name="Trazado 167612" d="M11.332,36.815h7.082v2.833H11.332Zm0,0"/>
    </g>
  </g>
</svg>
