<svg xmlns="http://www.w3.org/2000/svg" xmlns:xlink="http://www.w3.org/1999/xlink" width="85" height="85" viewBox="0 0 85 85">
  <defs>
    <linearGradient id="linear-gradient" x1="0.5" x2="0.5" y2="1" gradientUnits="objectBoundingBox">
      <stop offset="0" stop-color="#0f2771"/>
      <stop offset="1" stop-color="#2c6ae7"/>
    </linearGradient>
    <clipPath id="clip-path">
      <rect id="Rectángulo_21204" data-name="Rectángulo 21204" width="85" height="85" transform="translate(915 4839)" stroke="#707070" stroke-width="1" fill="url(#linear-gradient)"/>
    </clipPath>
  </defs>
  <g id="Enmascarar_grupo_65" data-name="Enmascarar grupo 65" transform="translate(-915 -4839)" opacity="0.85" clip-path="url(#clip-path)">
    <g id="price-tag_1_" data-name="price-tag (1)" transform="translate(915 4839)">
      <path id="Trazado_167613" data-name="Trazado 167613" d="M74.552,64.414A1.245,1.245,0,0,0,75.8,63.169V33.286a6.8,6.8,0,0,0-1.631-4.281L64.932,17.817a7.3,7.3,0,0,0-1.644-1.474c.037-.381.058-.765.058-1.153V1.245a1.245,1.245,0,0,0-2.49,0s0,14.064,0,14.123a6.165,6.165,0,0,0-1.076-.1h-16.1a6.393,6.393,0,0,0-3.24.9,1.262,1.262,0,0,0-.128.053L28.169,22.142a6.506,6.506,0,0,0-3.028,3.186l-.019.045L20.1,38.1a1.245,1.245,0,1,0,2.317.913l5.009-12.7a4,4,0,0,1,1.844-1.937l6.413-3.124-6.4,7.755a6.623,6.623,0,0,0-1.465,4.281v43a8.9,8.9,0,0,0,.124,1.469l-12.83-5.685a5.773,5.773,0,0,1-2.928-7.6l.016-.038,8.115-20.168a1.245,1.245,0,0,0-2.31-.93L9.9,63.478A8.267,8.267,0,0,0,14.1,74.345l15.045,6.667c.018.008.037.014.056.021A8.509,8.509,0,0,0,36.369,85H67.082A8.833,8.833,0,0,0,75.8,76.284v-7.3a1.245,1.245,0,0,0-2.49,0v7.3a6.309,6.309,0,0,1-6.226,6.226H36.369a6.151,6.151,0,0,1-6.06-6.226v-43a4.111,4.111,0,0,1,.9-2.7L40.439,19.4a4.252,4.252,0,0,1,3.235-1.639h16.1a3.668,3.668,0,0,1,.7.069,9.379,9.379,0,0,1-5.317,5.988,3.9,3.9,0,1,0,.52,2.473A11.865,11.865,0,0,0,62.7,19.057c.108.109.213.224.314.345l9.234,11.189a4.316,4.316,0,0,1,1.061,2.7V63.169a1.245,1.245,0,0,0,1.245,1.245ZM51.808,27.227a1.411,1.411,0,1,1,1.411-1.411A1.413,1.413,0,0,1,51.808,27.227Z" fill="#12263f"/>
      <path id="Trazado_167614" data-name="Trazado 167614" d="M41.017,66.24a1.241,1.241,0,0,0,.88-.365l21.25-21.25a1.245,1.245,0,0,0-1.761-1.761l-21.25,21.25a1.253,1.253,0,0,0,.88,2.126Z" fill="#529ad9"/>
      <path id="Trazado_167615" data-name="Trazado 167615" d="M43.673,53.125a5.4,5.4,0,0,0,0-10.791h-.166a5.4,5.4,0,0,0,0,10.791ZM40.6,47.73a2.909,2.909,0,0,1,2.905-2.905h.166a2.905,2.905,0,0,1,0,5.811h-.166A2.909,2.909,0,0,1,40.6,47.73Z" fill="#529ad9"/>
      <path id="Trazado_167616" data-name="Trazado 167616" d="M59.777,66.24h.166a5.4,5.4,0,0,0,0-10.791h-.166a5.4,5.4,0,0,0,0,10.791Zm0-8.3h.166a2.905,2.905,0,0,1,0,5.811h-.166a2.905,2.905,0,0,1,0-5.811Z" fill="#529ad9"/>
    </g>
  </g>
</svg>
