<svg xmlns="http://www.w3.org/2000/svg" width="505" height="343" viewBox="0 0 505 343">
  <g id="Grupo_79488" data-name="Grupo 79488" transform="translate(-810 -5577)">
    <g id="Grupo_73637" data-name="Grupo 73637" transform="translate(2 1718)">
      <g id="Rectángulo_21117" data-name="Rectángulo 21117" transform="translate(808 3859)" fill="#fff" stroke="#a0a603" stroke-width="3">
        <path d="M20,0H485a20,20,0,0,1,20,20V343a0,0,0,0,1,0,0H0a0,0,0,0,1,0,0V20A20,20,0,0,1,20,0Z" stroke="none"/>
        <path d="M20,1.5H485A18.5,18.5,0,0,1,503.5,20V340a1.5,1.5,0,0,1-1.5,1.5H3A1.5,1.5,0,0,1,1.5,340V20A18.5,18.5,0,0,1,20,1.5Z" fill="none"/>
      </g>
    </g>
    <path id="Trazado_177510" data-name="Trazado 177510" d="M10.956,3V4.373h-.205a3.3,3.3,0,0,0-2.229.766,3.2,3.2,0,0,0-.991,2.112A2.7,2.7,0,0,1,9.575,6.41a2.548,2.548,0,0,1,2.082.93,3.662,3.662,0,0,1,.762,2.4,3.423,3.423,0,0,1-.892,2.458,3.079,3.079,0,0,1-2.341.94,3.008,3.008,0,0,1-2.417-1.1,4.329,4.329,0,0,1-.926-2.885V8.584a6.092,6.092,0,0,1,1.275-4.1A4.571,4.571,0,0,1,10.785,3ZM9.172,7.75a1.749,1.749,0,0,0-1,.308,1.8,1.8,0,0,0-.667.82v.506a2.98,2.98,0,0,0,.465,1.76,1.418,1.418,0,0,0,1.2.653,1.4,1.4,0,0,0,1.169-.554,2.306,2.306,0,0,0,.431-1.456,2.339,2.339,0,0,0-.437-1.47A1.4,1.4,0,0,0,9.172,7.75ZM20.232,8.81a5.428,5.428,0,0,1-.8,3.237,2.837,2.837,0,0,1-2.444,1.09,2.874,2.874,0,0,1-2.43-1.063,5.2,5.2,0,0,1-.837-3.148V7.2a5.346,5.346,0,0,1,.8-3.22A2.863,2.863,0,0,1,16.972,2.91a2.879,2.879,0,0,1,2.437,1.046,5.183,5.183,0,0,1,.824,3.131ZM18.571,6.95A4.211,4.211,0,0,0,18.188,4.9a1.463,1.463,0,0,0-2.413-.034,3.892,3.892,0,0,0-.4,1.931V9.049a4.32,4.32,0,0,0,.39,2.078,1.309,1.309,0,0,0,1.224.684,1.286,1.286,0,0,0,1.183-.632,4.065,4.065,0,0,0,.4-1.979ZM6.232,41.064l.54-5.018h5.346v1.436H8.153L7.88,39.861a3.073,3.073,0,0,1,1.559-.4,2.773,2.773,0,0,1,2.211.909,3.6,3.6,0,0,1,.79,2.447,3.316,3.316,0,0,1-.875,2.417,3.193,3.193,0,0,1-2.4.9A3.345,3.345,0,0,1,6.9,45.361a2.805,2.805,0,0,1-.974-2.047H7.531a1.754,1.754,0,0,0,.52,1.111,1.58,1.58,0,0,0,1.107.386,1.428,1.428,0,0,0,1.193-.547,2.36,2.36,0,0,0,.427-1.49,2.086,2.086,0,0,0-.472-1.439,1.65,1.65,0,0,0-1.3-.53,2.161,2.161,0,0,0-.766.12,2.168,2.168,0,0,0-.684.468Zm14,.745a5.428,5.428,0,0,1-.8,3.237,2.837,2.837,0,0,1-2.444,1.09,2.874,2.874,0,0,1-2.43-1.063,5.2,5.2,0,0,1-.837-3.148V40.2a5.346,5.346,0,0,1,.8-3.22,2.863,2.863,0,0,1,2.451-1.073,2.879,2.879,0,0,1,2.437,1.046,5.183,5.183,0,0,1,.824,3.131ZM18.571,39.95a4.211,4.211,0,0,0-.383-2.054,1.463,1.463,0,0,0-2.413-.034,3.892,3.892,0,0,0-.4,1.931v2.256a4.32,4.32,0,0,0,.39,2.078,1.309,1.309,0,0,0,1.224.684,1.286,1.286,0,0,0,1.183-.632,4.065,4.065,0,0,0,.4-1.979Zm-7.164,35.5h1.237v1.333H11.407V79H9.746V76.785h-4.3L5.4,75.773l4.293-6.727h1.716Zm-4.266,0h2.6V71.3l-.123.219Zm13.091-.643a5.428,5.428,0,0,1-.8,3.237,2.837,2.837,0,0,1-2.444,1.09,2.874,2.874,0,0,1-2.43-1.063,5.2,5.2,0,0,1-.837-3.148V73.2a5.346,5.346,0,0,1,.8-3.22,2.863,2.863,0,0,1,2.451-1.073,2.879,2.879,0,0,1,2.437,1.046,5.183,5.183,0,0,1,.824,3.131ZM18.571,72.95a4.211,4.211,0,0,0-.383-2.054,1.463,1.463,0,0,0-2.413-.034,3.892,3.892,0,0,0-.4,1.931v2.256a4.32,4.32,0,0,0,.39,2.078,1.309,1.309,0,0,0,1.224.684,1.286,1.286,0,0,0,1.183-.632,4.065,4.065,0,0,0,.4-1.979ZM7.709,106.265H8.721a1.811,1.811,0,0,0,1.213-.4,1.414,1.414,0,0,0,.448-1.128,1.541,1.541,0,0,0-.373-1.1,1.5,1.5,0,0,0-1.138-.393,1.586,1.586,0,0,0-1.1.386,1.291,1.291,0,0,0-.431,1.008H5.679a2.514,2.514,0,0,1,.407-1.395,2.733,2.733,0,0,1,1.135-.981,3.7,3.7,0,0,1,1.63-.352,3.423,3.423,0,0,1,2.341.749,2.627,2.627,0,0,1,.851,2.082A2.115,2.115,0,0,1,11.616,106a2.679,2.679,0,0,1-1.1.892,2.442,2.442,0,0,1,1.248.882,2.414,2.414,0,0,1,.427,1.436,2.673,2.673,0,0,1-.919,2.133,3.57,3.57,0,0,1-2.417.793,3.543,3.543,0,0,1-2.352-.766,2.521,2.521,0,0,1-.916-2.037H7.244a1.39,1.39,0,0,0,.441,1.066,1.672,1.672,0,0,0,1.186.41,1.725,1.725,0,0,0,1.217-.41,1.539,1.539,0,0,0,.444-1.189,1.554,1.554,0,0,0-.465-1.21,1.987,1.987,0,0,0-1.381-.424H7.709Zm12.523,1.545a5.428,5.428,0,0,1-.8,3.237,2.837,2.837,0,0,1-2.444,1.09,2.874,2.874,0,0,1-2.43-1.063,5.2,5.2,0,0,1-.837-3.148V106.2a5.346,5.346,0,0,1,.8-3.22,2.863,2.863,0,0,1,2.451-1.073,2.879,2.879,0,0,1,2.437,1.046,5.183,5.183,0,0,1,.824,3.131Zm-1.661-1.859a4.211,4.211,0,0,0-.383-2.054,1.463,1.463,0,0,0-2.413-.034,3.892,3.892,0,0,0-.4,1.931v2.256a4.32,4.32,0,0,0,.39,2.078,1.309,1.309,0,0,0,1.224.684,1.286,1.286,0,0,0,1.183-.632,4.065,4.065,0,0,0,.4-1.979ZM12.48,145H5.788v-1.142L9.1,140.242a8.256,8.256,0,0,0,1.022-1.336,2.165,2.165,0,0,0,.3-1.077,1.636,1.636,0,0,0-.4-1.148,1.387,1.387,0,0,0-1.077-.437,1.6,1.6,0,0,0-1.251.492,1.936,1.936,0,0,0-.444,1.347H5.6a3.256,3.256,0,0,1,.414-1.637,2.848,2.848,0,0,1,1.183-1.131,3.764,3.764,0,0,1,1.774-.4,3.367,3.367,0,0,1,2.287.728,2.527,2.527,0,0,1,.837,2.013,3.416,3.416,0,0,1-.42,1.562,8.882,8.882,0,0,1-1.377,1.856l-2.434,2.6H12.48Zm7.752-4.19a5.428,5.428,0,0,1-.8,3.237,2.837,2.837,0,0,1-2.444,1.09,2.874,2.874,0,0,1-2.43-1.063,5.2,5.2,0,0,1-.837-3.148V139.2a5.346,5.346,0,0,1,.8-3.22,2.863,2.863,0,0,1,2.451-1.073,2.879,2.879,0,0,1,2.437,1.046,5.183,5.183,0,0,1,.824,3.131Zm-1.661-1.859a4.211,4.211,0,0,0-.383-2.054,1.463,1.463,0,0,0-2.413-.034,3.892,3.892,0,0,0-.4,1.931v2.256a4.32,4.32,0,0,0,.39,2.078,1.309,1.309,0,0,0,1.224.684,1.286,1.286,0,0,0,1.183-.632,4.065,4.065,0,0,0,.4-1.979ZM10.286,178H8.632v-8l-2.44.832v-1.395l3.883-1.429h.212Zm9.946-4.19a5.428,5.428,0,0,1-.8,3.237,2.837,2.837,0,0,1-2.444,1.09,2.874,2.874,0,0,1-2.43-1.063,5.2,5.2,0,0,1-.837-3.148V172.2a5.346,5.346,0,0,1,.8-3.22,2.863,2.863,0,0,1,2.451-1.073,2.879,2.879,0,0,1,2.437,1.046,5.183,5.183,0,0,1,.824,3.131Zm-1.661-1.859a4.211,4.211,0,0,0-.383-2.054,1.463,1.463,0,0,0-2.413-.034,3.892,3.892,0,0,0-.4,1.931v2.256a4.32,4.32,0,0,0,.39,2.078,1.309,1.309,0,0,0,1.224.684,1.286,1.286,0,0,0,1.183-.632,4.065,4.065,0,0,0,.4-1.979Zm-8.36,34.114.54-5.018H16.1v1.436H12.132l-.273,2.379a3.073,3.073,0,0,1,1.559-.4,2.773,2.773,0,0,1,2.211.909,3.6,3.6,0,0,1,.79,2.447,3.316,3.316,0,0,1-.875,2.417,3.193,3.193,0,0,1-2.4.9,3.345,3.345,0,0,1-2.266-.776,2.805,2.805,0,0,1-.974-2.047H11.51a1.754,1.754,0,0,0,.52,1.111,1.58,1.58,0,0,0,1.107.386,1.428,1.428,0,0,0,1.193-.547,2.36,2.36,0,0,0,.427-1.49,2.086,2.086,0,0,0-.472-1.439,1.65,1.65,0,0,0-1.3-.53,2.161,2.161,0,0,0-.766.12,2.169,2.169,0,0,0-.684.468Z" transform="translate(843 5633)" fill="#12263f"/>
    <path id="Trazado_177511" data-name="Trazado 177511" d="M5.243,13H3.589V5l-2.44.832V4.441L5.031,3.013h.212Zm24.1,0H22.647V11.858l3.315-3.616a8.256,8.256,0,0,0,1.022-1.336,2.165,2.165,0,0,0,.3-1.077,1.636,1.636,0,0,0-.4-1.148,1.387,1.387,0,0,0-1.077-.437,1.6,1.6,0,0,0-1.251.492,1.936,1.936,0,0,0-.444,1.347H22.456a3.256,3.256,0,0,1,.414-1.637,2.848,2.848,0,0,1,1.183-1.131,3.764,3.764,0,0,1,1.774-.4,3.367,3.367,0,0,1,2.287.728,2.527,2.527,0,0,1,.837,2.013,3.416,3.416,0,0,1-.42,1.562,8.882,8.882,0,0,1-1.377,1.856l-2.434,2.6H29.34ZM46.471,7.265h1.012a1.811,1.811,0,0,0,1.213-.4,1.414,1.414,0,0,0,.448-1.128,1.541,1.541,0,0,0-.373-1.1,1.5,1.5,0,0,0-1.138-.393,1.586,1.586,0,0,0-1.1.386A1.291,1.291,0,0,0,46.1,5.638H44.44a2.514,2.514,0,0,1,.407-1.395,2.733,2.733,0,0,1,1.135-.981,3.7,3.7,0,0,1,1.63-.352,3.423,3.423,0,0,1,2.341.749A2.627,2.627,0,0,1,50.8,5.74,2.115,2.115,0,0,1,50.377,7a2.679,2.679,0,0,1-1.1.892,2.442,2.442,0,0,1,1.248.882,2.414,2.414,0,0,1,.427,1.436,2.673,2.673,0,0,1-.919,2.133,4.037,4.037,0,0,1-4.768.027,2.521,2.521,0,0,1-.916-2.037h1.661a1.39,1.39,0,0,0,.441,1.066,1.672,1.672,0,0,0,1.186.41,1.725,1.725,0,0,0,1.217-.41,1.539,1.539,0,0,0,.444-1.189A1.554,1.554,0,0,0,48.829,9a1.987,1.987,0,0,0-1.381-.424h-.978Zm25.6,2.188h1.237v1.333H72.071V13H70.41V10.785h-4.3l-.048-1.012,4.293-6.727h1.716Zm-4.266,0h2.6V5.3l-.123.219ZM88.8,8.064l.54-5.018h5.346V4.482H90.72l-.273,2.379A3.073,3.073,0,0,1,92,6.465a2.773,2.773,0,0,1,2.211.909,3.6,3.6,0,0,1,.79,2.447,3.316,3.316,0,0,1-.875,2.417,3.193,3.193,0,0,1-2.4.9,3.345,3.345,0,0,1-2.266-.776,2.805,2.805,0,0,1-.974-2.047H90.1a1.754,1.754,0,0,0,.52,1.111,1.58,1.58,0,0,0,1.107.386,1.428,1.428,0,0,0,1.193-.547,2.36,2.36,0,0,0,.427-1.49,2.086,2.086,0,0,0-.472-1.439,1.65,1.65,0,0,0-1.3-.53,1.814,1.814,0,0,0-1.449.588ZM115.425,3V4.373h-.205a3.3,3.3,0,0,0-2.229.766A3.2,3.2,0,0,0,112,7.251a2.7,2.7,0,0,1,2.044-.841,2.548,2.548,0,0,1,2.082.93,3.662,3.662,0,0,1,.762,2.4A3.423,3.423,0,0,1,116,12.2a3.079,3.079,0,0,1-2.341.94,3.008,3.008,0,0,1-2.417-1.1,4.329,4.329,0,0,1-.926-2.885V8.584a6.092,6.092,0,0,1,1.275-4.1A4.571,4.571,0,0,1,115.254,3ZM113.641,7.75a1.749,1.749,0,0,0-1,.308,1.8,1.8,0,0,0-.667.82v.506a2.98,2.98,0,0,0,.465,1.76,1.418,1.418,0,0,0,1.2.653,1.4,1.4,0,0,0,1.169-.554,2.306,2.306,0,0,0,.431-1.456,2.339,2.339,0,0,0-.437-1.47A1.4,1.4,0,0,0,113.641,7.75Zm25.143-3.78L134.8,13h-1.743l3.972-8.62h-5.147V3.047h6.9Zm21.547,1.7a2.314,2.314,0,0,1-.376,1.3,2.608,2.608,0,0,1-1.025.9,2.84,2.84,0,0,1,1.2.991,2.5,2.5,0,0,1,.42,1.422,2.611,2.611,0,0,1-.889,2.082,4.03,4.03,0,0,1-4.741,0,2.609,2.609,0,0,1-.892-2.078,2.53,2.53,0,0,1,.424-1.436,2.723,2.723,0,0,1,1.189-.978,2.593,2.593,0,0,1-1.015-.9,2.329,2.329,0,0,1-.373-1.3,2.589,2.589,0,0,1,.82-2.017,3.675,3.675,0,0,1,4.437,0A2.589,2.589,0,0,1,160.33,5.672ZM158.888,10.2a1.641,1.641,0,0,0-.441-1.193,1.55,1.55,0,0,0-1.166-.455,1.533,1.533,0,0,0-1.159.451,1.653,1.653,0,0,0-.434,1.2,1.6,1.6,0,0,0,.427,1.169,1.82,1.82,0,0,0,2.352.014A1.606,1.606,0,0,0,158.888,10.2Zm-.212-4.471a1.545,1.545,0,0,0-.376-1.07,1.445,1.445,0,0,0-2.017-.021,1.545,1.545,0,0,0-.369,1.09,1.539,1.539,0,0,0,.373,1.087,1.462,1.462,0,0,0,2.017,0A1.539,1.539,0,0,0,158.676,5.733Zm22,3.1a2.715,2.715,0,0,1-4.04-.038,3.61,3.61,0,0,1-.779-2.417,3.962,3.962,0,0,1,.4-1.784,2.956,2.956,0,0,1,1.128-1.244,3.2,3.2,0,0,1,1.7-.444,2.875,2.875,0,0,1,2.386,1.121,4.722,4.722,0,0,1,.882,3V7.5a6.133,6.133,0,0,1-1.217,4.108,4.58,4.58,0,0,1-3.63,1.436h-.2V11.667h.239a3.4,3.4,0,0,0,2.256-.708A2.949,2.949,0,0,0,180.674,8.837Zm-1.6-.417a1.676,1.676,0,0,0,.937-.287,1.892,1.892,0,0,0,.677-.793V6.69a3.118,3.118,0,0,0-.451-1.771,1.359,1.359,0,0,0-1.169-.67,1.343,1.343,0,0,0-1.145.591,2.486,2.486,0,0,0-.427,1.494,2.455,2.455,0,0,0,.431,1.511A1.364,1.364,0,0,0,179.074,8.42ZM202.364,13H200.71V5l-2.44.832V4.441l3.883-1.429h.212Zm9.946-4.19a5.428,5.428,0,0,1-.8,3.237,2.837,2.837,0,0,1-2.444,1.09,2.874,2.874,0,0,1-2.43-1.063,5.2,5.2,0,0,1-.837-3.148V7.2a5.346,5.346,0,0,1,.8-3.22,3.348,3.348,0,0,1,4.888-.027,5.183,5.183,0,0,1,.824,3.131ZM210.649,6.95a4.211,4.211,0,0,0-.383-2.054,1.463,1.463,0,0,0-2.413-.034,3.892,3.892,0,0,0-.4,1.931V9.049a4.32,4.32,0,0,0,.39,2.078,1.309,1.309,0,0,0,1.224.684,1.286,1.286,0,0,0,1.183-.632,4.065,4.065,0,0,0,.4-1.979ZM232.224,13h-1.654V5l-2.44.832V4.441l3.883-1.429h.212Zm7.957,0h-1.654V5l-2.44.832V4.441l3.883-1.429h.212Zm21.9,0h-1.654V5l-2.44.832V4.441l3.883-1.429h.212Zm10.151,0h-6.692V11.858l3.315-3.616a8.255,8.255,0,0,0,1.022-1.336,2.165,2.165,0,0,0,.3-1.077,1.636,1.636,0,0,0-.4-1.148,1.387,1.387,0,0,0-1.077-.437,1.6,1.6,0,0,0-1.251.492,1.935,1.935,0,0,0-.444,1.347h-1.661a3.256,3.256,0,0,1,.414-1.637,2.848,2.848,0,0,1,1.183-1.131,3.764,3.764,0,0,1,1.774-.4,3.367,3.367,0,0,1,2.287.728,2.527,2.527,0,0,1,.837,2.013,3.416,3.416,0,0,1-.42,1.562,8.882,8.882,0,0,1-1.377,1.856l-2.434,2.6h4.621Zm19.708,0h-1.654V5l-2.44.832V4.441l3.883-1.429h.212Zm5.38-5.735h1.012a1.811,1.811,0,0,0,1.213-.4A1.415,1.415,0,0,0,300,5.74a1.541,1.541,0,0,0-.373-1.1,1.5,1.5,0,0,0-1.138-.393,1.586,1.586,0,0,0-1.1.386,1.291,1.291,0,0,0-.431,1.008h-1.661a2.514,2.514,0,0,1,.407-1.395,2.733,2.733,0,0,1,1.135-.981,3.7,3.7,0,0,1,1.63-.352,3.423,3.423,0,0,1,2.341.749,2.627,2.627,0,0,1,.851,2.082A2.115,2.115,0,0,1,301.229,7a2.679,2.679,0,0,1-1.1.892,2.442,2.442,0,0,1,1.248.882,2.414,2.414,0,0,1,.427,1.436,2.673,2.673,0,0,1-.919,2.133,4.037,4.037,0,0,1-4.768.027,2.521,2.521,0,0,1-.916-2.037h1.661A1.39,1.39,0,0,0,297.3,11.4a1.672,1.672,0,0,0,1.186.41,1.725,1.725,0,0,0,1.217-.41,1.539,1.539,0,0,0,.444-1.189A1.554,1.554,0,0,0,299.681,9a1.987,1.987,0,0,0-1.381-.424h-.978ZM321.8,13h-1.654V5l-2.44.832V4.441l3.883-1.429h.212Zm9.078-3.548h1.237v1.333H330.88V13h-1.661V10.785h-4.3l-.048-1.012,4.293-6.727h1.716Zm-4.266,0h2.6V5.3l-.123.219ZM351.661,13h-1.654V5l-2.44.832V4.441l3.883-1.429h.212Zm3.9-4.936.54-5.018h5.346V4.482h-3.965l-.273,2.379a3.073,3.073,0,0,1,1.559-.4,2.773,2.773,0,0,1,2.211.909,3.6,3.6,0,0,1,.79,2.447,3.316,3.316,0,0,1-.875,2.417,3.194,3.194,0,0,1-2.4.9,3.345,3.345,0,0,1-2.266-.776,2.805,2.805,0,0,1-.974-2.047h1.606a1.754,1.754,0,0,0,.52,1.111,1.58,1.58,0,0,0,1.107.386,1.428,1.428,0,0,0,1.193-.547,2.36,2.36,0,0,0,.427-1.49,2.086,2.086,0,0,0-.472-1.439,1.65,1.65,0,0,0-1.3-.53,1.814,1.814,0,0,0-1.449.588Z" transform="translate(893 5867)" fill="#12263f"/>
    <path id="Trazado_177512" data-name="Trazado 177512" d="M0,0V238" transform="translate(869.5 5623.5)" fill="none" stroke="#707070" stroke-width="1"/>
    <path id="Trazado_177513" data-name="Trazado 177513" d="M0,0H409" transform="translate(864.5 5857.5)" fill="none" stroke="#707070" stroke-width="1"/>
    <g id="Grupo_72897" data-name="Grupo 72897" transform="translate(1046.209 5896.581) rotate(-90)">
      <path id="Trazado_166255" data-name="Trazado 166255" d="M3,0H0V50.636H3Z" transform="translate(3.5 0)" fill="red"/>
      <g id="Polígono_1" data-name="Polígono 1" transform="translate(10 53.582) rotate(180)" fill="#fff">
        <path d="M 9.150241851806641 8.5 L 0.8497573137283325 8.5 L 4.999999523162842 1.029564023017883 L 9.150241851806641 8.5 Z" stroke="none"/>
        <path d="M 4.999999523162842 2.059127807617188 L 1.699515342712402 8 L 8.300483703613281 8 L 4.999999523162842 2.059127807617188 M 4.999999523162842 0 L 10 9 L -9.5367431640625e-07 9 L 4.999999523162842 0 Z" stroke="none" fill="red"/>
      </g>
    </g>
    <g id="Grupo_73636" data-name="Grupo 73636" transform="translate(839 5761.582) rotate(180)">
      <path id="Trazado_166255-2" data-name="Trazado 166255" d="M3,0H0V50.636H3Z" transform="translate(3.5 0)" fill="red"/>
      <g id="Polígono_1-2" data-name="Polígono 1" transform="translate(10 53.582) rotate(180)" fill="#fff">
        <path d="M 9.150241851806641 8.5 L 0.8497573137283325 8.5 L 4.999999523162842 1.029564023017883 L 9.150241851806641 8.5 Z" stroke="none"/>
        <path d="M 4.999999523162842 2.059127807617188 L 1.699515342712402 8 L 8.300483703613281 8 L 4.999999523162842 2.059127807617188 M 4.999999523162842 0 L 10 9 L -9.5367431640625e-07 9 L 4.999999523162842 0 Z" stroke="none" fill="red"/>
      </g>
    </g>
    <path id="Trazado_177514" data-name="Trazado 177514" d="M10.723,10.547,9.949,15H8.48L10.457,3.625l3.8.008a3.713,3.713,0,0,1,2.711.934,2.937,2.937,0,0,1,.82,2.48,3.541,3.541,0,0,1-1.3,2.57,4.718,4.718,0,0,1-3.059.938Zm.211-1.227,2.531.008a3.079,3.079,0,0,0,1.961-.6,2.407,2.407,0,0,0,.9-1.672,1.886,1.886,0,0,0-.4-1.559A2.005,2.005,0,0,0,14.4,4.867l-2.7-.008Zm11.953,1.063a12.079,12.079,0,0,1,.473-3.391,9.85,9.85,0,0,1,1.41-2.953,6,6,0,0,1,1.945-1.875l.3.953a6.222,6.222,0,0,0-1.871,2.672,11.583,11.583,0,0,0-.8,4.023l-.008.664a11.643,11.643,0,0,0,1.1,5.234,6.252,6.252,0,0,0,1.578,2.078l-.3.883a6.192,6.192,0,0,1-1.984-1.937A10.859,10.859,0,0,1,22.887,10.383Zm12.664.484a5.062,5.062,0,0,1-.883,3.109,2.829,2.829,0,0,1-2.391,1.18,3.1,3.1,0,0,1-2.422-.977v4.07H28.41V6.547h1.32l.07.938a2.977,2.977,0,0,1,2.453-1.094,2.882,2.882,0,0,1,2.41,1.148,5.117,5.117,0,0,1,.887,3.2ZM34.105,10.7A3.735,3.735,0,0,0,33.5,8.445a1.963,1.963,0,0,0-1.672-.828,2.125,2.125,0,0,0-1.969,1.164V12.82a2.129,2.129,0,0,0,1.984,1.156,1.954,1.954,0,0,0,1.652-.824A4.077,4.077,0,0,0,34.105,10.7Zm7.367-2.859a4.331,4.331,0,0,0-.711-.055A1.9,1.9,0,0,0,38.832,9v6H37.387V6.547h1.406l.023.977a2.251,2.251,0,0,1,2.016-1.133,1.477,1.477,0,0,1,.641.109Zm4.688,7.313a3.693,3.693,0,0,1-2.8-1.129,4.19,4.19,0,0,1-1.078-3.02v-.266a5.073,5.073,0,0,1,.48-2.246,3.748,3.748,0,0,1,1.344-1.547,3.378,3.378,0,0,1,1.871-.559,3.166,3.166,0,0,1,2.563,1.086,4.7,4.7,0,0,1,.914,3.109v.6H43.73a3,3,0,0,0,.73,2.02,2.3,2.3,0,0,0,1.777.77,2.517,2.517,0,0,0,1.3-.312,3.259,3.259,0,0,0,.93-.828l.883.688A3.55,3.55,0,0,1,46.16,15.156Zm-.18-7.578a1.928,1.928,0,0,0-1.469.637A3.1,3.1,0,0,0,43.777,10h4.234V9.891a2.753,2.753,0,0,0-.594-1.707A1.815,1.815,0,0,0,45.98,7.578Zm8.539,6.4a2.082,2.082,0,0,0,1.352-.469,1.649,1.649,0,0,0,.641-1.172h1.367a2.621,2.621,0,0,1-.5,1.383,3.293,3.293,0,0,1-1.23,1.047,3.55,3.55,0,0,1-1.629.391A3.482,3.482,0,0,1,51.773,14a4.59,4.59,0,0,1-1.02-3.152v-.242a5.089,5.089,0,0,1,.453-2.2,3.451,3.451,0,0,1,1.3-1.492,3.7,3.7,0,0,1,2-.531,3.39,3.39,0,0,1,2.363.852,3.043,3.043,0,0,1,1,2.211H56.512a1.992,1.992,0,0,0-.621-1.348,1.932,1.932,0,0,0-1.379-.527,2.023,2.023,0,0,0-1.707.793,3.724,3.724,0,0,0-.605,2.293v.273a3.65,3.65,0,0,0,.6,2.25A2.033,2.033,0,0,0,54.52,13.977ZM61.074,15H59.629V6.547h1.445ZM59.512,4.3a.863.863,0,0,1,.215-.594.807.807,0,0,1,.637-.242A.819.819,0,0,1,61,3.711a.854.854,0,0,1,.219.594A.826.826,0,0,1,61,4.891a.834.834,0,0,1-.641.234.821.821,0,0,1-.637-.234A.834.834,0,0,1,59.512,4.3ZM63,10.7a4.993,4.993,0,0,1,.488-2.234A3.643,3.643,0,0,1,64.852,6.93a3.7,3.7,0,0,1,1.988-.539,3.565,3.565,0,0,1,2.793,1.2,4.6,4.6,0,0,1,1.066,3.18v.1a5.036,5.036,0,0,1-.473,2.215,3.589,3.589,0,0,1-1.352,1.527,3.743,3.743,0,0,1-2.02.547,3.556,3.556,0,0,1-2.785-1.2A4.575,4.575,0,0,1,63,10.8Zm1.453.172a3.616,3.616,0,0,0,.652,2.258,2.211,2.211,0,0,0,3.5-.012,3.955,3.955,0,0,0,.648-2.418,3.61,3.61,0,0,0-.66-2.254,2.1,2.1,0,0,0-1.754-.863,2.075,2.075,0,0,0-1.727.852A3.925,3.925,0,0,0,64.457,10.867Zm11.391-.406a12.084,12.084,0,0,1-.457,3.34,9.876,9.876,0,0,1-1.4,2.949,6.127,6.127,0,0,1-1.973,1.922l-.3-.883a6.281,6.281,0,0,0,1.934-2.863,12.387,12.387,0,0,0,.746-4.309v-.25a12.861,12.861,0,0,0-.344-3.051,10.3,10.3,0,0,0-.957-2.527,5.838,5.838,0,0,0-1.379-1.742l.3-.883A6.1,6.1,0,0,1,73.984,4.07a9.9,9.9,0,0,1,1.4,2.945A12.363,12.363,0,0,1,75.848,10.461Z" transform="translate(824 5598)" fill="#12263f"/>
    <path id="Trazado_177515" data-name="Trazado 177515" d="M14.332,14.406l1.7,1.633-1.086.883-1.984-1.9a5.457,5.457,0,0,1-1.156.125,3.507,3.507,0,0,1-1.883-.52,3.375,3.375,0,0,1-1.262-1.477,5.638,5.638,0,0,1-.5-2.184,10.385,10.385,0,0,1,.207-2.348A7.953,7.953,0,0,1,9.238,6.16a5.733,5.733,0,0,1,1.492-1.77,4.44,4.44,0,0,1,2.859-.922A3.69,3.69,0,0,1,15.5,4a3.325,3.325,0,0,1,1.258,1.473,5.684,5.684,0,0,1,.492,2.184,8.388,8.388,0,0,1-.055,1.3l-.094.664A6.3,6.3,0,0,1,14.332,14.406ZM15.8,8.016a3.866,3.866,0,0,0-.539-2.4,2.068,2.068,0,0,0-1.734-.867,2.963,2.963,0,0,0-1.871.563A4.258,4.258,0,0,0,10.3,7.09a9.158,9.158,0,0,0-.668,3l-.023.508a5.045,5.045,0,0,0,.211,1.68,2.307,2.307,0,0,0,.77,1.188,2.169,2.169,0,0,0,1.293.43A2.957,2.957,0,0,0,14.3,12.852a5.983,5.983,0,0,0,1.309-3.086A13.433,13.433,0,0,0,15.8,8.016ZM23,10.383a12.079,12.079,0,0,1,.473-3.391,9.85,9.85,0,0,1,1.41-2.953,6,6,0,0,1,1.945-1.875l.3.953A6.222,6.222,0,0,0,25.25,5.789a11.583,11.583,0,0,0-.8,4.023l-.008.664a11.643,11.643,0,0,0,1.1,5.234,6.252,6.252,0,0,0,1.578,2.078l-.3.883a6.192,6.192,0,0,1-1.984-1.937A10.859,10.859,0,0,1,23,10.383Zm8.914,3.594a2.082,2.082,0,0,0,1.352-.469,1.649,1.649,0,0,0,.641-1.172H35.27a2.621,2.621,0,0,1-.5,1.383,3.293,3.293,0,0,1-1.23,1.047,3.55,3.55,0,0,1-1.629.391A3.482,3.482,0,0,1,29.164,14a4.59,4.59,0,0,1-1.02-3.152v-.242a5.089,5.089,0,0,1,.453-2.2,3.451,3.451,0,0,1,1.3-1.492,3.7,3.7,0,0,1,2-.531,3.39,3.39,0,0,1,2.363.852,3.043,3.043,0,0,1,1,2.211H33.9a1.992,1.992,0,0,0-.621-1.348A1.932,1.932,0,0,0,31.9,7.578a2.023,2.023,0,0,0-1.707.793,3.724,3.724,0,0,0-.605,2.293v.273a3.65,3.65,0,0,0,.6,2.25A2.033,2.033,0,0,0,31.91,13.977ZM42.113,15a3.036,3.036,0,0,1-.2-.891A3.225,3.225,0,0,1,39.5,15.156a2.984,2.984,0,0,1-2.051-.707,2.287,2.287,0,0,1-.8-1.793,2.39,2.39,0,0,1,1-2.051,4.733,4.733,0,0,1,2.824-.73h1.406V9.211A1.623,1.623,0,0,0,41.434,8,1.821,1.821,0,0,0,40.1,7.555a2.107,2.107,0,0,0-1.3.391,1.151,1.151,0,0,0-.523.945H36.824a2,2,0,0,1,.449-1.223,3.066,3.066,0,0,1,1.219-.934,4.1,4.1,0,0,1,1.691-.344,3.342,3.342,0,0,1,2.289.73,2.635,2.635,0,0,1,.859,2.012v3.891a4.757,4.757,0,0,0,.3,1.852V15Zm-2.4-1.1A2.54,2.54,0,0,0,41,13.547a2.127,2.127,0,0,0,.883-.914V10.9H40.754q-2.656,0-2.656,1.555a1.316,1.316,0,0,0,.453,1.063A1.742,1.742,0,0,0,39.715,13.9Zm7.25-7.352.047,1.063a3.08,3.08,0,0,1,2.531-1.219q2.68,0,2.7,3.023V15H50.8V9.406a1.946,1.946,0,0,0-.418-1.352,1.675,1.675,0,0,0-1.277-.437,2.086,2.086,0,0,0-1.234.375,2.546,2.546,0,0,0-.828.984V15H45.6V6.547ZM56.387,4.5V6.547h1.578V7.664H56.387v5.249a1.173,1.173,0,0,0,.211.763.888.888,0,0,0,.719.254A3.5,3.5,0,0,0,58,13.836V15a4.215,4.215,0,0,1-1.109.155,1.8,1.8,0,0,1-1.461-.586,2.517,2.517,0,0,1-.492-1.664V7.664H53.4V6.547h1.539V4.5ZM61.223,15H59.777V6.547h1.445ZM59.66,4.3a.863.863,0,0,1,.215-.594.807.807,0,0,1,.637-.242.819.819,0,0,1,.641.242.854.854,0,0,1,.219.594.826.826,0,0,1-.219.586.834.834,0,0,1-.641.234.821.821,0,0,1-.637-.234A.834.834,0,0,1,59.66,4.3Zm3.523,6.4a4.952,4.952,0,0,1,.922-3.129,3.137,3.137,0,0,1,4.766-.168V3h1.445V15H68.988l-.07-.906A2.943,2.943,0,0,1,66.5,15.156a2.887,2.887,0,0,1-2.395-1.2,5.008,5.008,0,0,1-.926-3.141Zm1.445.164a3.749,3.749,0,0,0,.594,2.25,1.92,1.92,0,0,0,1.641.813A2.108,2.108,0,0,0,68.871,12.7V8.813a2.125,2.125,0,0,0-1.992-1.2,1.929,1.929,0,0,0-1.656.82A4.128,4.128,0,0,0,64.629,10.867ZM77.777,15a3.036,3.036,0,0,1-.2-.891,3.225,3.225,0,0,1-2.406,1.047,2.984,2.984,0,0,1-2.051-.707,2.288,2.288,0,0,1-.8-1.793,2.39,2.39,0,0,1,1-2.051,4.733,4.733,0,0,1,2.824-.73h1.406V9.211A1.623,1.623,0,0,0,77.1,8a1.821,1.821,0,0,0-1.336-.449,2.108,2.108,0,0,0-1.3.391,1.151,1.151,0,0,0-.523.945H72.488a2,2,0,0,1,.449-1.223,3.066,3.066,0,0,1,1.219-.934,4.1,4.1,0,0,1,1.691-.344,3.342,3.342,0,0,1,2.289.73A2.635,2.635,0,0,1,79,9.133v3.891a4.757,4.757,0,0,0,.3,1.852V15Zm-2.4-1.1a2.54,2.54,0,0,0,1.289-.352,2.127,2.127,0,0,0,.883-.914V10.9H76.418q-2.656,0-2.656,1.555a1.316,1.316,0,0,0,.453,1.063A1.742,1.742,0,0,0,75.379,13.9Zm5.531-3.2a4.952,4.952,0,0,1,.922-3.129A3.137,3.137,0,0,1,86.6,7.406V3h1.445V15H86.715l-.07-.906a2.943,2.943,0,0,1-2.414,1.063,2.887,2.887,0,0,1-2.395-1.2,5.008,5.008,0,0,1-.926-3.141Zm1.445.164a3.749,3.749,0,0,0,.594,2.25,1.92,1.92,0,0,0,1.641.813A2.108,2.108,0,0,0,86.6,12.7V8.813a2.125,2.125,0,0,0-1.992-1.2,1.929,1.929,0,0,0-1.656.82A4.128,4.128,0,0,0,82.355,10.867Zm11.266-.406a12.084,12.084,0,0,1-.457,3.34,9.876,9.876,0,0,1-1.4,2.949,6.127,6.127,0,0,1-1.973,1.922l-.3-.883a6.281,6.281,0,0,0,1.934-2.863,12.387,12.387,0,0,0,.746-4.309v-.25a12.861,12.861,0,0,0-.344-3.051,10.3,10.3,0,0,0-.957-2.527,5.838,5.838,0,0,0-1.379-1.742l.3-.883A6.1,6.1,0,0,1,91.758,4.07a9.9,9.9,0,0,1,1.4,2.945A12.363,12.363,0,0,1,93.621,10.461Z" transform="translate(1182 5884)" fill="#12263f"/>
    <path id="Trazado_167696" data-name="Trazado 167696" d="M-5619-5366l21.8-32.3,24.4-30.4,41.6-32.8,25.6-34.8,22.4-33.2,29.6-35.2" transform="translate(6581 11205)" fill="none" stroke="#529ad9" stroke-width="3"/>
    <path id="Trazado_166250" data-name="Trazado 166250" d="M-5710.6-7783h228.934v183.4" transform="translate(6579.6 13458)" fill="none" stroke="#707070" stroke-width="2" stroke-dasharray="2 2"/>
    <path id="Trazado_167691" data-name="Trazado 167691" d="M-5710.6-7783h203.9v150.4" transform="translate(6580.101 13491.001)" fill="none" stroke="#707070" stroke-width="2" stroke-dasharray="2 2"/>
    <path id="Trazado_167692" data-name="Trazado 167692" d="M-5710.6-7783h138.5v83.4" transform="translate(6580.101 13558.002)" fill="none" stroke="#707070" stroke-width="2" stroke-dasharray="2 2"/>
    <path id="Trazado_167693" data-name="Trazado 167693" d="M-5710.6-7783h115v51.4" transform="translate(6580.101 13590.001)" fill="none" stroke="#707070" stroke-width="2" stroke-dasharray="2 2"/>
    <path id="Trazado_166252" data-name="Trazado 166252" d="M-5710.6-7783h256.933v215.5" transform="translate(6579.6 13425)" fill="none" stroke="#707070" stroke-width="2" stroke-dasharray="2 2"/>
    <g id="Trazado_177516" data-name="Trazado 177516" transform="translate(1094 5671)" fill="#fff">
      <path d="M 4 7.5 C 2.070090055465698 7.5 0.5 5.929910182952881 0.5 4 C 0.5 2.070090055465698 2.070090055465698 0.5 4 0.5 C 5.929910182952881 0.5 7.5 2.070090055465698 7.5 4 C 7.5 5.929910182952881 5.929910182952881 7.5 4 7.5 Z" stroke="none"/>
      <path d="M 4 1 C 2.345789909362793 1 1 2.345789909362793 1 4 C 1 5.654210090637207 2.345789909362793 7 4 7 C 5.654210090637207 7 7 5.654210090637207 7 4 C 7 2.345789909362793 5.654210090637207 1 4 1 M 4 0 C 6.209139823913574 0 8 1.790860176086426 8 4 C 8 6.209139823913574 6.209139823913574 8 4 8 C 1.790860176086426 8 0 6.209139823913574 0 4 C 0 1.790860176086426 1.790860176086426 0 4 0 Z" stroke="none" fill="#a0a603"/>
    </g>
    <g id="Trazado_177517" data-name="Trazado 177517" transform="translate(1122 5638)" fill="#fff">
      <path d="M 4 7.5 C 2.070090055465698 7.5 0.5 5.929910182952881 0.5 4 C 0.5 2.070090055465698 2.070090055465698 0.5 4 0.5 C 5.929910182952881 0.5 7.5 2.070090055465698 7.5 4 C 7.5 5.929910182952881 5.929910182952881 7.5 4 7.5 Z" stroke="none"/>
      <path d="M 4 1 C 2.345789909362793 1 1 2.345789909362793 1 4 C 1 5.654210090637207 2.345789909362793 7 4 7 C 5.654210090637207 7 7 5.654210090637207 7 4 C 7 2.345789909362793 5.654210090637207 1 4 1 M 4 0 C 6.209139823913574 0 8 1.790860176086426 8 4 C 8 6.209139823913574 6.209139823913574 8 4 8 C 1.790860176086426 8 0 6.209139823913574 0 4 C 0 1.790860176086426 1.790860176086426 0 4 0 Z" stroke="none" fill="#a0a603"/>
    </g>
    <g id="Trazado_177518" data-name="Trazado 177518" transform="translate(1069 5704)" fill="#fff">
      <path d="M 4 7.5 C 2.070090055465698 7.5 0.5 5.929910182952881 0.5 4 C 0.5 2.070090055465698 2.070090055465698 0.5 4 0.5 C 5.929910182952881 0.5 7.5 2.070090055465698 7.5 4 C 7.5 5.929910182952881 5.929910182952881 7.5 4 7.5 Z" stroke="none"/>
      <path d="M 4 1 C 2.345789909362793 1 1 2.345789909362793 1 4 C 1 5.654210090637207 2.345789909362793 7 4 7 C 5.654210090637207 7 7 5.654210090637207 7 4 C 7 2.345789909362793 5.654210090637207 1 4 1 M 4 0 C 6.209139823913574 0 8 1.790860176086426 8 4 C 8 6.209139823913574 6.209139823913574 8 4 8 C 1.790860176086426 8 0 6.209139823913574 0 4 C 0 1.790860176086426 1.790860176086426 0 4 0 Z" stroke="none" fill="#a0a603"/>
    </g>
    <g id="Trazado_177519" data-name="Trazado 177519" transform="translate(980 5803)" fill="#fff">
      <path d="M 4 7.5 C 2.070090055465698 7.5 0.5 5.929910182952881 0.5 4 C 0.5 2.070090055465698 2.070090055465698 0.5 4 0.5 C 5.929910182952881 0.5 7.5 2.070090055465698 7.5 4 C 7.5 5.929910182952881 5.929910182952881 7.5 4 7.5 Z" stroke="none"/>
      <path d="M 4 1 C 2.345789909362793 1 1 2.345789909362793 1 4 C 1 5.654210090637207 2.345789909362793 7 4 7 C 5.654210090637207 7 7 5.654210090637207 7 4 C 7 2.345789909362793 5.654210090637207 1 4 1 M 4 0 C 6.209139823913574 0 8 1.790860176086426 8 4 C 8 6.209139823913574 6.209139823913574 8 4 8 C 1.790860176086426 8 0 6.209139823913574 0 4 C 0 1.790860176086426 1.790860176086426 0 4 0 Z" stroke="none" fill="#a0a603"/>
    </g>
    <g id="Trazado_177520" data-name="Trazado 177520" transform="translate(1004 5771)" fill="#fff">
      <path d="M 4 7.5 C 2.070090055465698 7.5 0.5 5.929910182952881 0.5 4 C 0.5 2.070090055465698 2.070090055465698 0.5 4 0.5 C 5.929910182952881 0.5 7.5 2.070090055465698 7.5 4 C 7.5 5.929910182952881 5.929910182952881 7.5 4 7.5 Z" stroke="none"/>
      <path d="M 4 1 C 2.345789909362793 1 1 2.345789909362793 1 4 C 1 5.654210090637207 2.345789909362793 7 4 7 C 5.654210090637207 7 7 5.654210090637207 7 4 C 7 2.345789909362793 5.654210090637207 1 4 1 M 4 0 C 6.209139823913574 0 8 1.790860176086426 8 4 C 8 6.209139823913574 6.209139823913574 8 4 8 C 1.790860176086426 8 0 6.209139823913574 0 4 C 0 1.790860176086426 1.790860176086426 0 4 0 Z" stroke="none" fill="#a0a603"/>
    </g>
    <g id="Grupo_72896" data-name="Grupo 72896" transform="translate(2939.468 2048.435) rotate(39)">
      <path id="Trazado_166255-3" data-name="Trazado 166255" d="M1.5,42.146h-3V0h3Z" transform="translate(839 3993.946)" fill="red"/>
      <g id="Polígono_1-3" data-name="Polígono 1" transform="translate(834 3991)" fill="#fff">
        <path d="M 9.150241851806641 8.5 L 0.8497577905654907 8.5 L 5 1.029564023017883 L 9.150241851806641 8.5 Z" stroke="none"/>
        <path d="M 5 2.059127807617188 L 1.699515342712402 8 L 8.300484657287598 8 L 5 2.059127807617188 M 5 0 L 10 9 L 0 9 L 5 0 Z" stroke="none" fill="red"/>
      </g>
    </g>
    <path id="Trazado_177521" data-name="Trazado 177521" d="M7.09,15,9.066,3.625l3.336.008a3.793,3.793,0,0,1,2.609.781,2.5,2.5,0,0,1,.758,2.18,2.957,2.957,0,0,1-2.055,2.461,2.117,2.117,0,0,1,1.145,1.016,2.839,2.839,0,0,1,.309,1.586A3.318,3.318,0,0,1,13.934,14.1a4.456,4.456,0,0,1-2.891.9ZM9.48,9.68,8.77,13.766l2.32.008a2.78,2.78,0,0,0,1.781-.569,2.218,2.218,0,0,0,.836-1.536,1.821,1.821,0,0,0-.32-1.435,1.745,1.745,0,0,0-1.352-.546Zm.211-1.2,2.117.008a2.727,2.727,0,0,0,1.676-.509,2,2,0,0,0,.8-1.4,1.431,1.431,0,0,0-.324-1.253,2.075,2.075,0,0,0-1.41-.462l-2.234-.008Z" transform="translate(1079 5653)" fill="#12263f"/>
    <path id="Trazado_177522" data-name="Trazado 177522" d="M11.5,12.023H6.891L5.336,15H3.766L9.945,3.625h1.289L13.484,15H12.039ZM7.539,10.8h3.742l-.945-5.3Z" transform="translate(1030 5721)" fill="#12263f"/>
    <path id="Trazado_167694" data-name="Trazado 167694" d="M-5710.6-7783h179.3v115.9" transform="translate(6580.101 13525.505)" fill="none" stroke="#707070" stroke-width="2" stroke-dasharray="2 2"/>
    <path id="Trazado_167695" data-name="Trazado 167695" d="M-5710.6-7783h93.5v19.4" transform="translate(6580.101 13622.001)" fill="none" stroke="#707070" stroke-width="2" stroke-dasharray="2 2"/>
    <g id="Trazado_177523" data-name="Trazado 177523" transform="translate(958 5835)" fill="#fff">
      <path d="M 4 7.5 C 2.070090055465698 7.5 0.5 5.929910182952881 0.5 4 C 0.5 2.070090055465698 2.070090055465698 0.5 4 0.5 C 5.929910182952881 0.5 7.5 2.070090055465698 7.5 4 C 7.5 5.929910182952881 5.929910182952881 7.5 4 7.5 Z" stroke="none"/>
      <path d="M 4 1 C 2.345789909362793 1 1 2.345789909362793 1 4 C 1 5.654210090637207 2.345789909362793 7 4 7 C 5.654210090637207 7 7 5.654210090637207 7 4 C 7 2.345789909362793 5.654210090637207 1 4 1 M 4 0 C 6.209139823913574 0 8 1.790860176086426 8 4 C 8 6.209139823913574 6.209139823913574 8 4 8 C 1.790860176086426 8 0 6.209139823913574 0 4 C 0 1.790860176086426 1.790860176086426 0 4 0 Z" stroke="none" fill="#a0a603"/>
    </g>
    <g id="Trazado_177524" data-name="Trazado 177524" transform="translate(1045 5739)" fill="#fff">
      <path d="M 4 7.5 C 2.070090055465698 7.5 0.5 5.929910182952881 0.5 4 C 0.5 2.070090055465698 2.070090055465698 0.5 4 0.5 C 5.929910182952881 0.5 7.5 2.070090055465698 7.5 4 C 7.5 5.929910182952881 5.929910182952881 7.5 4 7.5 Z" stroke="none"/>
      <path d="M 4 1 C 2.345789909362793 1 1 2.345789909362793 1 4 C 1 5.654210090637207 2.345789909362793 7 4 7 C 5.654210090637207 7 7 5.654210090637207 7 4 C 7 2.345789909362793 5.654210090637207 1 4 1 M 4 0 C 6.209139823913574 0 8 1.790860176086426 8 4 C 8 6.209139823913574 6.209139823913574 8 4 8 C 1.790860176086426 8 0 6.209139823913574 0 4 C 0 1.790860176086426 1.790860176086426 0 4 0 Z" stroke="none" fill="#a0a603"/>
    </g>
    <path id="Trazado_178368" data-name="Trazado 178368" d="M7.749-4.49a5.816,5.816,0,0,1-.861,3.468A3.04,3.04,0,0,1,4.27.146a3.08,3.08,0,0,1-2.6-1.139,5.569,5.569,0,0,1-.9-3.373V-6.211a5.728,5.728,0,0,1,.861-3.45,3.068,3.068,0,0,1,2.626-1.15A3.085,3.085,0,0,1,6.866-9.69a5.553,5.553,0,0,1,.883,3.354ZM5.969-6.482a4.512,4.512,0,0,0-.41-2.2,1.4,1.4,0,0,0-1.3-.7,1.4,1.4,0,0,0-1.282.663A4.17,4.17,0,0,0,2.542-6.65v2.417a4.629,4.629,0,0,0,.417,2.227,1.4,1.4,0,0,0,1.311.732,1.378,1.378,0,0,0,1.267-.677,4.355,4.355,0,0,0,.432-2.12Z" transform="translate(851 5874)"/>
    <path id="Trazado_178369" data-name="Trazado 178369" d="M4.922.166a3.87,3.87,0,0,1-2-.556A3.6,3.6,0,0,1,1.577-1.955a5.894,5.894,0,0,1-.54-2.32,11.019,11.019,0,0,1,.224-2.482,8.511,8.511,0,0,1,.946-2.665,6,6,0,0,1,1.635-1.9,4.707,4.707,0,0,1,2.972-.93A3.576,3.576,0,0,1,9.6-11.028,5.091,5.091,0,0,1,10.7-7.8a11.874,11.874,0,0,1-.178,2.216,9.175,9.175,0,0,1-.755,2.5A6.236,6.236,0,0,1,8.384-1.154,4.753,4.753,0,0,1,4.922.166ZM9.164-7.421a4.188,4.188,0,0,0-.573-2.536,2.181,2.181,0,0,0-1.851-.934,3.148,3.148,0,0,0-1.988.6A4.525,4.525,0,0,0,3.316-8.4a9.73,9.73,0,0,0-.71,3.183l-.025.54a4.224,4.224,0,0,0,.581,2.548A2.163,2.163,0,0,0,5-1.179,3.2,3.2,0,0,0,7.6-2.312a6.435,6.435,0,0,0,1.374-3.3A14.867,14.867,0,0,0,9.164-7.421Z" transform="translate(1133 5635)"/>
  </g>
</svg>
