<svg id="Grupo_79324" data-name="Grupo 79324" xmlns="http://www.w3.org/2000/svg" width="153.252" height="128.189" viewBox="0 0 153.252 128.189">
  <path id="Trazado_178098" data-name="Trazado 178098" d="M391.19,1498.734q-.865.854-1.733,1.665H261.221c-.258-.551-.506-1.1-.743-1.665-11.1-26.036-1.749-62.421,15.244-69.576,19.07-8.028,42.274,23.075,74.514,12.646,7.1-2.3,10.614-5.3,18.566-5.156,15.455.286,33.3,12.222,36.734,27.815C408.467,1477.793,400.031,1490,391.19,1498.734Z" transform="translate(-252.877 -1372.209)" fill="#030504" opacity="0.08"/>
  <path id="Trazado_178099" data-name="Trazado 178099" d="M682.61,1191.274v-7.146h-7.98a24.1,24.1,0,0,0-4.454-10.767l5.64-5.64-5.063-5.047-5.64,5.64a23.966,23.966,0,0,0-10.752-4.454v-7.979H647.2v7.979a24.326,24.326,0,0,0-10.751,4.454l-5.64-5.64-5.047,5.047,5.64,5.64a24.1,24.1,0,0,0-4.454,10.767h-7.98v7.146h7.98a24.038,24.038,0,0,0,4.454,10.752l-5.64,5.64,5.047,5.063,5.64-5.64a24.326,24.326,0,0,0,10.751,4.455v7.979h7.163v-7.979a23.963,23.963,0,0,0,10.752-4.455l5.64,5.64,5.063-5.063-5.64-5.64a24.037,24.037,0,0,0,4.454-10.752Zm-18.282,4.9a16.015,16.015,0,0,1-9.966,7.1,16.216,16.216,0,0,1-7.163,0,15.372,15.372,0,0,1-4.887-2.051,15.936,15.936,0,0,1-7.1-9.95,16.135,16.135,0,0,1,0-7.146,15.908,15.908,0,0,1,7.1-9.966,15.7,15.7,0,0,1,4.887-2.035,16.207,16.207,0,0,1,7.163,0,15.953,15.953,0,0,1,4.9,2.035,16.186,16.186,0,0,1,7.1,9.966,16.139,16.139,0,0,1,0,7.146A15.959,15.959,0,0,1,664.328,1196.177Z" transform="translate(-549.839 -1149.928)" fill="#6999d1"/>
  <path id="Trazado_178100" data-name="Trazado 178100" d="M473.457,1138.348v-3.041h-3.4a10.252,10.252,0,0,0-1.9-4.582l2.4-2.4-2.154-2.147-2.4,2.4a10.2,10.2,0,0,0-4.575-1.9v-3.4H458.39v3.4a10.35,10.35,0,0,0-4.574,1.9l-2.4-2.4-2.147,2.147,2.4,2.4a10.257,10.257,0,0,0-1.9,4.582h-3.4v3.041h3.4a10.23,10.23,0,0,0,1.9,4.575l-2.4,2.4,2.147,2.154,2.4-2.4a10.352,10.352,0,0,0,4.574,1.9v3.4h3.047v-3.4a10.2,10.2,0,0,0,4.575-1.9l2.4,2.4,2.154-2.154-2.4-2.4a10.225,10.225,0,0,0,1.9-4.575Zm-7.779,2.086a6.813,6.813,0,0,1-4.241,3.02,6.887,6.887,0,0,1-3.047,0,6.542,6.542,0,0,1-2.079-.872,6.781,6.781,0,0,1-3.02-4.234,6.862,6.862,0,0,1,0-3.041,6.767,6.767,0,0,1,3.02-4.24,6.68,6.68,0,0,1,2.079-.866,6.887,6.887,0,0,1,3.047,0,6.785,6.785,0,0,1,2.086.866,6.886,6.886,0,0,1,3.02,4.24,6.868,6.868,0,0,1,0,3.041A6.794,6.794,0,0,1,465.678,1140.434Z" transform="translate(-408.766 -1123.288)" fill="#a9d2db"/>
  <path id="Trazado_178101" data-name="Trazado 178101" d="M778.022,1647.857l.011.007a15.91,15.91,0,0,1,8.74-4.8c2.338-.427,5.1-.5,6.5-2.42,1.172-1.6.845-3.8.758-5.782-.262-6,6.032-6.208,10.361-8.027,4.807-2.02,8.73-5.133,9.692-10.53,1.332-7.481-5.694-6.477-10.607-4.956-4.786,1.481-11.285-.973-13.711,4.617-1.184,2.729-1.916,5.7-4.966,6.929a20.355,20.355,0,0,1-5.263.827c-2.912.347-5.254,1.751-5.376,4.94-.061,1.6.351,3.173.418,4.769a11.24,11.24,0,0,1-4.459,9.333Z" transform="translate(-673.388 -1521.35)" fill="#caddf2"/>
  <path id="Trazado_178102" data-name="Trazado 178102" d="M786.19,1666.324q3.4-4.574,7.221-8.8a106.543,106.543,0,0,1,8.065-8,94.791,94.791,0,0,1,8.9-7.024c1.553-1.076,3.141-2.1,4.768-3.058q1.218-.721,2.47-1.382c.835-.439,1.677-.864,2.543-1.237-.849.408-1.673.866-2.487,1.338s-1.615.966-2.4,1.478c-1.582,1.018-3.12,2.1-4.62,3.235a94.1,94.1,0,0,0-8.548,7.327,105.407,105.407,0,0,0-7.649,8.236q-3.6,4.313-6.761,8.958Z" transform="translate(-686.526 -1543.046)" fill="#fff"/>
  <path id="Trazado_178103" data-name="Trazado 178103" d="M795.472,1504.992l.013.005a17.057,17.057,0,0,1,8.324-6.7c2.388-.89,5.284-1.483,6.4-3.772.936-1.912.18-4.166-.284-6.244-1.4-6.278,5.2-7.683,9.43-10.415,4.695-3.034,8.251-7.054,8.254-12.93,0-8.145-7.224-5.768-12.123-3.242-4.773,2.461-12.093,1.089-13.6,7.443-.738,3.1-.953,6.378-3.942,8.244-1.621,1.012-3.571,1.3-5.4,1.859-3.009.912-5.217,2.833-4.748,6.221.235,1.7.966,3.283,1.335,4.954a12.048,12.048,0,0,1-2.956,10.687Z" transform="translate(-686.514 -1397.945)" fill="#6999d1"/>
  <path id="Trazado_178104" data-name="Trazado 178104" d="M805.052,1528.054q2.727-5.464,5.971-10.639a114.19,114.19,0,0,1,7.011-9.96,101.582,101.582,0,0,1,8.081-9.083c1.437-1.427,2.921-2.807,4.459-4.121q1.15-.99,2.347-1.922c.8-.62,1.608-1.226,2.452-1.782-.82.59-1.6,1.228-2.374,1.878s-1.524,1.322-2.261,2.01c-1.478,1.371-2.9,2.8-4.268,4.281a100.847,100.847,0,0,0-7.648,9.336,113.015,113.015,0,0,0-6.528,10.126q-2.99,5.227-5.456,10.722Z" transform="translate(-701.944 -1423.482)" fill="#fff"/>
  <path id="Trazado_178105" data-name="Trazado 178105" d="M281.256,1647.857l-.011.007a15.911,15.911,0,0,0-8.74-4.8c-2.338-.427-5.1-.5-6.5-2.42-1.172-1.6-.845-3.8-.758-5.782.262-6-6.032-6.208-10.361-8.027-4.807-2.02-8.73-5.133-9.692-10.53-1.332-7.481,5.694-6.477,10.606-4.956,4.786,1.481,11.285-.973,13.711,4.617,1.184,2.729,1.916,5.7,4.966,6.929a20.355,20.355,0,0,0,5.263.827c2.913.347,5.254,1.751,5.376,4.94.061,1.6-.351,3.173-.418,4.769a11.24,11.24,0,0,0,4.459,9.333Z" transform="translate(-244.187 -1521.35)" fill="#caddf2"/>
  <path id="Trazado_178106" data-name="Trazado 178106" d="M318.558,1666.324q-3.4-4.574-7.221-8.8a106.528,106.528,0,0,0-8.065-8,94.84,94.84,0,0,0-8.9-7.024c-1.553-1.076-3.141-2.1-4.768-3.058q-1.218-.721-2.47-1.382c-.835-.439-1.678-.864-2.543-1.237.849.408,1.673.866,2.487,1.338s1.615.966,2.4,1.478c1.582,1.018,3.12,2.1,4.619,3.235a94.088,94.088,0,0,1,8.548,7.327,105.445,105.445,0,0,1,7.649,8.236q3.6,4.313,6.761,8.958Z" transform="translate(-276.519 -1543.046)" fill="#fff"/>
  <path id="Trazado_178107" data-name="Trazado 178107" d="M275.852,1504.992l-.013.005a17.056,17.056,0,0,0-8.324-6.7c-2.388-.89-5.284-1.483-6.4-3.772-.936-1.912-.18-4.166.284-6.244,1.4-6.278-5.2-7.683-9.43-10.415-4.695-3.034-8.251-7.054-8.255-12.93,0-8.145,7.224-5.768,12.123-3.242,4.773,2.461,12.093,1.089,13.6,7.443.738,3.1.952,6.378,3.942,8.244,1.621,1.012,3.571,1.3,5.4,1.859,3.009.912,5.217,2.833,4.748,6.221-.235,1.7-.966,3.283-1.335,4.954a12.048,12.048,0,0,0,2.956,10.687Z" transform="translate(-243.107 -1397.945)" fill="#6999d1"/>
  <path id="Trazado_178108" data-name="Trazado 178108" d="M316.037,1528.054q-2.727-5.464-5.971-10.639a114.2,114.2,0,0,0-7.011-9.96,101.608,101.608,0,0,0-8.081-9.083c-1.437-1.427-2.921-2.807-4.459-4.121q-1.15-.99-2.347-1.922c-.8-.62-1.608-1.226-2.452-1.782.82.59,1.6,1.228,2.374,1.878s1.524,1.322,2.261,2.01c1.479,1.371,2.9,2.8,4.269,4.281a100.851,100.851,0,0,1,7.648,9.336,112.981,112.981,0,0,1,6.528,10.126q2.99,5.227,5.456,10.722Z" transform="translate(-277.442 -1423.482)" fill="#fff"/>
  <path id="Trazado_178109" data-name="Trazado 178109" d="M616.691,1231.642a4.61,4.61,0,1,0,4.612,4.612A4.611,4.611,0,0,0,616.691,1231.642Zm0,6.844a2.233,2.233,0,1,1,2.234-2.232A2.233,2.233,0,0,1,616.691,1238.486Z" transform="translate(-544.209 -1211.856)" fill="#3883bb"/>
  <path id="Trazado_178110" data-name="Trazado 178110" d="M589.873,1269.942H568.605l-2.345,8.732h25.957Z" transform="translate(-506.757 -1243.162)" fill="#003665"/>
  <path id="Trazado_178111" data-name="Trazado 178111" d="M488.056,1306.084H422.822a8.027,8.027,0,0,0-8.018,8.018v77.1a8.027,8.027,0,0,0,8.018,8.018h65.234a8.029,8.029,0,0,0,8.021-8.018v-77.1A8.029,8.029,0,0,0,488.056,1306.084ZM491.9,1391.2a3.846,3.846,0,0,1-3.843,3.84H422.822a3.846,3.846,0,0,1-3.843-3.84v-77.1a3.846,3.846,0,0,1,3.843-3.84h65.234a3.846,3.846,0,0,1,3.843,3.84Z" transform="translate(-382.958 -1272.704)" fill="#1e3e61"/>
  <path id="Trazado_178112" data-name="Trazado 178112" d="M510.59,1332.8v77.1a3.846,3.846,0,0,1-3.843,3.84H441.514a3.846,3.846,0,0,1-3.843-3.84v-77.1a3.846,3.846,0,0,1,3.843-3.84h65.234A3.846,3.846,0,0,1,510.59,1332.8Z" transform="translate(-401.649 -1291.405)" fill="#caddf2"/>
  <g id="Grupo_79298" data-name="Grupo 79298" transform="translate(44.256 74.276)">
    <g id="Grupo_79297" data-name="Grupo 79297" transform="translate(0 2.615)">
      <g id="Grupo_79296" data-name="Grupo 79296">
        <path id="Trazado_178113" data-name="Trazado 178113" d="M484.639,1564.71l-1.872-3.57,32-16.782,3.932,8.872,12.108-8.537,2.323,3.295L517,1559.357l-4.179-9.429Z" transform="translate(-482.766 -1544.357)" fill="#2d709c"/>
      </g>
    </g>
    <path id="Trazado_178114" data-name="Trazado 178114" d="M728.191,1541.316l-1.937-6.132-5.1-3.92,12.449-1.224Z" transform="translate(-677.625 -1530.039)" fill="#2d709c"/>
  </g>
  <path id="Trazado_178115" data-name="Trazado 178115" d="M568.6,1579.291s3.3-1.354,3.609.307c.419,2.277-2.439,2.035-4.177,1S568.6,1579.291,568.6,1579.291Z" transform="translate(-507.674 -1495.597)" fill="#fa9c66"/>
  <path id="Trazado_178116" data-name="Trazado 178116" d="M505.815,1526.758a57.007,57.007,0,0,1-8.637.347,8.436,8.436,0,0,1-1.622-.263c-1.468-.434-3.039-3.388-4.162-5.979-.933-2.15-1.557-4.052-1.557-4.052l1.074-4.724a.53.53,0,0,1,.045.03.182.182,0,0,1,.03.021l.007.007a17.075,17.075,0,0,1,6.5,10.614l8.583,1.552A5.323,5.323,0,0,1,505.815,1526.758Z" transform="translate(-444.289 -1441.09)" fill="#00233c"/>
  <path id="Trazado_178117" data-name="Trazado 178117" d="M502.183,1527.2a8.436,8.436,0,0,1-1.622-.263c-1.468-.434-3.039-3.388-4.162-5.979l-.084-.593-.354-8.152v-.009l.03.03.007.007A25.074,25.074,0,0,1,502.183,1527.2Z" transform="translate(-449.295 -1441.185)" fill="#00233c" style="mix-blend-mode: multiply;isolation: isolate"/>
  <g id="Grupo_79304" data-name="Grupo 79304" transform="translate(43.555 87.928)">
    <g id="Grupo_79303" data-name="Grupo 79303">
      <g id="Grupo_79299" data-name="Grupo 79299" transform="translate(0 15.489)">
        <rect id="Rectángulo_22480" data-name="Rectángulo 22480" width="8.901" height="13.089" fill="#6999d1"/>
      </g>
      <g id="Grupo_79300" data-name="Grupo 79300" transform="translate(16.005 10.326)">
        <rect id="Rectángulo_22481" data-name="Rectángulo 22481" width="8.901" height="18.252" fill="#a0cd8a"/>
      </g>
      <g id="Grupo_79301" data-name="Grupo 79301" transform="translate(32.011 5.163)">
        <rect id="Rectángulo_22482" data-name="Rectángulo 22482" width="8.901" height="23.415" fill="#6999d1"/>
      </g>
      <g id="Grupo_79302" data-name="Grupo 79302" transform="translate(48.016)">
        <rect id="Rectángulo_22483" data-name="Rectángulo 22483" width="8.901" height="28.578" fill="#a0cd8a"/>
      </g>
    </g>
  </g>
  <path id="Trazado_178118" data-name="Trazado 178118" d="M497.525,1800.16s4.347.979,4.261,2.188-6.679.6-6.679.6a2.715,2.715,0,0,1,.173-1.9C495.769,1800.39,497.525,1800.16,497.525,1800.16Z" transform="translate(-448.515 -1676.559)" fill="#0b141b"/>
  <path id="Trazado_178119" data-name="Trazado 178119" d="M395.507,1789.252s3.264,3.034,2.58,4.036-6.076-2.84-6.076-2.84.35-1.229,1.106-1.555S395.507,1789.252,395.507,1789.252Z" transform="translate(-364.328 -1667.277)" fill="#0b141b"/>
  <path id="Trazado_178120" data-name="Trazado 178120" d="M471.08,1614.462s-1.313,1.44-4.471.638l-.907-9.416-.645-6.689-.052-.542-.337-3.515-.507-2.115-.164-.68-.094-.387-2.769-11.53-.469-1.953.237-.41,2.844-4.888.239-.415,2.982,1.637,1.669.914s.045.321.117.882c.033.232.068.5.11.811.075.57.164,1.261.263,2.042.047.375.1.769.148,1.179.33,2.6.72,5.845,1.015,8.766.007.075.014.15.023.225a49.163,49.163,0,0,1,.406,7.02C470.712,1596.088,471.08,1614.462,471.08,1614.462Z" transform="translate(-420.445 -1490.521)" fill="#74586e"/>
  <path id="Trazado_178121" data-name="Trazado 178121" d="M416.778,1580.426s-.169.452-.462,1.221v0c-.373.992-.949,2.509-1.625,4.253-1.179,3.052-5.371,12.888-5.472,13.085-.082.159-1.782,3.458-3.674,7.127-2.448,4.757-5.219,10.14-5.219,10.14a4.256,4.256,0,0,1-4.241-1.555l4.035-9.636,1.137-2.713.1-.232,1.423-3.4,1.13-2.7.044-.171,1.939-7.383,2.265-8.626.1-.4,2.745-1.691,2.884-1.775.033.052,1.418,2.183Z" transform="translate(-367.657 -1493.312)" fill="#a18198"/>
  <path id="Trazado_178122" data-name="Trazado 178122" d="M467.54,1528.425a5.24,5.24,0,0,1-.584.3,6.739,6.739,0,0,1-1,.347,9.772,9.772,0,0,1-1.664.284,16.134,16.134,0,0,1-3.095-.049,23.407,23.407,0,0,1-2.377-.38c-.614-.134-.987-.241-.987-.241l1.92-17.281.164-1.477.075-.012a11.85,11.85,0,0,1,3.885.089l0,0,.073.145.007.016c.155.3.335.664.532,1.055,1.132,2.26,2.8,5.606,2.8,5.73C467.284,1517.141,467.54,1528.425,467.54,1528.425Z" transform="translate(-418.126 -1439.215)" fill="#f7dcd7"/>
  <path id="Trazado_178123" data-name="Trazado 178123" d="M494.766,1539.293c-2.9.361-4.119-1.254-4.119-1.254s.192-3.233.413-7.106c.122-2.1.251-4.4.361-6.459.152-2.762.27-5.118.3-6.082a22.3,22.3,0,0,0-1.135-6.558l.138-.106.007.016c.155.3.335.663.532,1.055,1.132,2.26,2.8,5.606,2.8,5.73,0,.192.256,11.476.256,11.476a5.261,5.261,0,0,1-.584.3c.331,2.6.72,5.845,1.015,8.766C494.75,1539.144,494.757,1539.219,494.766,1539.293Z" transform="translate(-444.898 -1440.797)" fill="#c9b5b4" style="mix-blend-mode: multiply;isolation: isolate"/>
  <path id="Trazado_178124" data-name="Trazado 178124" d="M427.25,1644.672s-3.482,9.568-9.069,16.287l1.137-2.713.1-.232,1.423-3.4,1.13-2.7.044-.171,1.939-7.383Z" transform="translate(-385.718 -1549.207)" fill="#a18198" style="mix-blend-mode: multiply;isolation: isolate"/>
  <g id="Grupo_79305" data-name="Grupo 79305" transform="translate(34.699 92.628)">
    <path id="Trazado_178125" data-name="Trazado 178125" d="M430.78,1656.58a.352.352,0,0,1-.312-.513l6.5-12.625,5.315-12.682a.352.352,0,0,1,.649.272l-5.332,12.72-6.511,12.637A.352.352,0,0,1,430.78,1656.58Z" transform="translate(-430.429 -1630.544)" fill="#f7d9e9"/>
  </g>
  <path id="Trazado_178126" data-name="Trazado 178126" d="M439.091,1529.824c-.736,3.425-1.606,6.25-2.373,6.537-1.913.718-2.631-1-5.929-1.674,0,0,0,0,0,0a58.107,58.107,0,0,0,2.687-8.426,21.063,21.063,0,0,0,.563-4.194c.047-4.924-.671-8.56.047-9.8a1.44,1.44,0,0,1,.145-.206,6.014,6.014,0,0,1,2.558-1.432c.352-.075.692-.131,1.02-.176l.075-.012c.117.223.4.757.745,1.451a29.137,29.137,0,0,1,2.056,4.966C441,1518.169,440.2,1524.677,439.091,1529.824Z" transform="translate(-396.024 -1439.737)" fill="#00233c"/>
  <g id="Grupo_79306" data-name="Grupo 79306" transform="translate(49.218 95.531)">
    <path id="Trazado_178127" data-name="Trazado 178127" d="M511.354,1672.439a.351.351,0,0,1-.351-.344l-.345-17.106-.719-8.168a.352.352,0,1,1,.7-.062l.721,8.2.345,17.118a.351.351,0,0,1-.344.359Z" transform="translate(-509.936 -1646.439)" fill="#f7d9e9"/>
  </g>
  <path id="Trazado_178128" data-name="Trazado 178128" d="M490.609,1510.267c.019.04.04.08.061.122l0,0C490.649,1510.344,490.628,1510.3,490.609,1510.267Z" transform="translate(-444.921 -1439.602)" fill="#102770"/>
  <rect id="Rectángulo_22484" data-name="Rectángulo 22484" width="29.857" height="3.631" transform="translate(40.912 59.099)" fill="#6895a7"/>
  <rect id="Rectángulo_22485" data-name="Rectángulo 22485" width="29.857" height="3.631" transform="translate(40.912 66.368)" fill="#6895a7"/>
  <path id="Trazado_178129" data-name="Trazado 178129" d="M484.632,1673.4l-3.282,14.71-.645-6.689-.052-.542-.338-3.515-.506-2.115Z" transform="translate(-436.093 -1572.946)" fill="#a18198" style="mix-blend-mode: multiply;isolation: isolate"/>
  <path id="Trazado_178130" data-name="Trazado 178130" d="M496.521,1534.97a6.125,6.125,0,0,1-3.7.572s.094-2.434.2-5.542c.169-4.978.366-11.692.249-12.947a19.851,19.851,0,0,0-1.744-4.9c-.183-.394-.354-.753-.5-1.057l-.08-.162a8.339,8.339,0,0,1,.917.232c.183.284.385.6.6.952a20.844,20.844,0,0,1,2.79,6.274C495.82,1521.77,496.521,1534.97,496.521,1534.97Z" transform="translate(-445.194 -1440.147)" fill="#00233c"/>
  <path id="Trazado_178131" data-name="Trazado 178131" d="M460.6,1454.635c3.2,0,3.844,4.758,2.854,8.308l-7.767.459S453.882,1454.635,460.6,1454.635Z" transform="translate(-416.193 -1394.129)" fill="#003666"/>
  <rect id="Rectángulo_22486" data-name="Rectángulo 22486" width="29.857" height="6.768" transform="translate(40.912 46.981)" fill="#fff"/>
  <path id="Trazado_178132" data-name="Trazado 178132" d="M474.923,1490.551c-1.376.971-3.5-.068-3.5-.068l.26-3.807,1.613-.572.865-.307.3-.106.028.293.4,4.22Z" transform="translate(-429.24 -1419.514)" fill="#fa9c66"/>
  <path id="Trazado_178133" data-name="Trazado 178133" d="M475.929,1490.2a3.938,3.938,0,0,1-3.233-3.095l1.641-1.006.673-.413s.07.037.192.106l.326.188Z" transform="translate(-430.279 -1419.514)" fill="#fa9c66" style="mix-blend-mode: multiply;isolation: isolate"/>
  <path id="Trazado_178134" data-name="Trazado 178134" d="M465.407,1654.108l-8.386,2.073-1.306.323-.087.019a1.428,1.428,0,0,1-1.641-1.062l-1.1-4.443a1.427,1.427,0,0,1,1.043-1.728l9.692-2.4a1.421,1.421,0,0,1,1.238.277,1.4,1.4,0,0,1,.49.766l1.1,4.443A1.427,1.427,0,0,1,465.407,1654.108Z" transform="translate(-414.054 -1551.246)" fill="#12171d"/>
  <g id="Grupo_79309" data-name="Grupo 79309" transform="translate(41.692 94.253)">
    <g id="Grupo_79308" data-name="Grupo 79308">
      <g id="Grupo_79307" data-name="Grupo 79307">
        <path id="Trazado_178135" data-name="Trazado 178135" d="M468.762,1641.784l.231.933.91-.225-.231-.933a.341.341,0,0,1,.014-.209.348.348,0,0,1,.24-.211l3.029-.749a.348.348,0,0,1,.422.253l.231.933.91-.225-.231-.933a1.287,1.287,0,0,0-1.558-.939l-3.029.749a1.286,1.286,0,0,0-.89.785A1.27,1.27,0,0,0,468.762,1641.784Z" transform="translate(-468.724 -1639.442)" fill="#0b1c41"/>
      </g>
    </g>
  </g>
  <path id="Trazado_178136" data-name="Trazado 178136" d="M472.136,1458.752s1.142,4.312.646,5.791-4.238,2.454-5.234-1.443,1.636-4.779,1.636-4.779Z" transform="translate(-425.887 -1397.142)" fill="#fa9c66"/>
  <path id="Trazado_178137" data-name="Trazado 178137" d="M474.589,1457.38a2.734,2.734,0,0,1-2.771,2.274l-.568,1.228-.925-2.774,2.272-1.466Z" transform="translate(-428.34 -1395.769)" fill="#fa9c66" style="mix-blend-mode: multiply;isolation: isolate"/>
  <path id="Trazado_178138" data-name="Trazado 178138" d="M464.971,1466.767a8.62,8.62,0,0,1-.293,4.668c-.9,1.956-1.79-2.126-1.79-2.126l.218-2.793Z" transform="translate(-422.261 -1403.84)" fill="#003666"/>
  <path id="Trazado_178139" data-name="Trazado 178139" d="M468.769,1476.881a.951.951,0,1,0,.8-1.084A.951.951,0,0,0,468.769,1476.881Z" transform="translate(-427.059 -1411.418)" fill="#fa9c66"/>
  <path id="Trazado_178140" data-name="Trazado 178140" d="M469.84,1457.38s-1.046,2.076-5.326,1.719l1.262-2.15s1.349-.307,1.4-.307S469.84,1457.38,469.84,1457.38Z" transform="translate(-423.591 -1395.769)" fill="#003666"/>
  <path id="Trazado_178141" data-name="Trazado 178141" d="M438.018,1603.658l-.331,1.453s-4.67-2.766-6.886.4a58.107,58.107,0,0,0,2.687-8.426l1.477.783Z" transform="translate(-396.035 -1510.566)" fill="#00233c" style="mix-blend-mode: multiply;isolation: isolate"/>
  <path id="Trazado_178142" data-name="Trazado 178142" d="M442.745,1532.772s-3.992,10.191,1.1,18.2l-3.26-3.278-4.982-7.028Z" transform="translate(-399.96 -1457.997)" fill="#00233c" style="mix-blend-mode: multiply;isolation: isolate"/>
  <path id="Trazado_178143" data-name="Trazado 178143" d="M471.071,1632.471s3,1.875,1.711,3.079c-1.782,1.663-3.067-2-3.067-2Z" transform="translate(-427.841 -1539.491)" fill="#fa9c66"/>
  <path id="Trazado_178144" data-name="Trazado 178144" d="M435.278,1521.814l-3.961,8.834,5.062,9.361a3.27,3.27,0,0,1-2.233,1.577s-7.183-8.722-7.6-10.473c-.5-2.089,1.379-8.845,4.118-11.747Z" transform="translate(-392.493 -1447.039)" fill="#00233c"/>
  <rect id="Rectángulo_22487" data-name="Rectángulo 22487" width="43.855" height="8.321" transform="translate(50.554 31.748)" fill="#3883bb"/>
  <g id="Grupo_79311" data-name="Grupo 79311" transform="translate(33.764 72.092)">
    <g id="Grupo_79310" data-name="Grupo 79310">
      <path id="Trazado_178145" data-name="Trazado 178145" d="M431.307,1538.431a.234.234,0,0,1-.17-.073c-.255-.27-6.251-6.653-5.808-9.95a25.053,25.053,0,0,1,4.2-10.231.234.234,0,0,1,.376.281,24.545,24.545,0,0,0-4.109,10.013c-.414,3.076,5.622,9.5,5.684,9.566a.235.235,0,0,1-.17.4Z" transform="translate(-425.306 -1518.081)" fill="#5589aa"/>
    </g>
  </g>
  <g id="Grupo_79312" data-name="Grupo 79312" transform="translate(49.709 74.046)">
    <path id="Trazado_178146" data-name="Trazado 178146" d="M522.847,1537.858a.243.243,0,0,1-.042,0l-6.886-1.245-.031-.157a16.457,16.457,0,0,0-3.2-7.278.234.234,0,1,1,.35-.312,16.565,16.565,0,0,1,3.283,7.343l6.571,1.188a.234.234,0,0,1-.041.465Z" transform="translate(-512.624 -1528.784)" fill="#5589aa"/>
  </g>
  <g id="Grupo_79313" data-name="Grupo 79313" transform="translate(17.279 29.007)">
    <rect id="Rectángulo_22488" data-name="Rectángulo 22488" width="32.713" height="18.283" transform="translate(1.132 1.47)" fill="#a0cd8a"/>
    <rect id="Rectángulo_22489" data-name="Rectángulo 22489" width="2.822" height="12.433" transform="translate(3.089 5.541)" fill="#fff"/>
    <rect id="Rectángulo_22490" data-name="Rectángulo 22490" width="2.822" height="7.363" transform="translate(8.306 10.611)" fill="#fff"/>
    <rect id="Rectángulo_22491" data-name="Rectángulo 22491" width="2.822" height="10.611" transform="translate(13.523 7.363)" fill="#fff"/>
    <rect id="Rectángulo_22492" data-name="Rectángulo 22492" width="2.822" height="5.614" transform="translate(18.74 12.36)" fill="#fff"/>
    <rect id="Rectángulo_22493" data-name="Rectángulo 22493" width="2.822" height="4.174" transform="translate(29.175 13.8)" fill="#fff"/>
    <rect id="Rectángulo_22494" data-name="Rectángulo 22494" width="2.822" height="9.788" transform="translate(23.958 8.186)" fill="#fff"/>
    <path id="Trazado_178147" data-name="Trazado 178147" d="M368.538,1285.077H336.5a1.47,1.47,0,0,1-1.47-1.47h0a1.47,1.47,0,0,1,1.47-1.47h32.038a1.47,1.47,0,0,1,1.47,1.47h0A1.47,1.47,0,0,1,368.538,1285.077Z" transform="translate(-335.03 -1282.138)" fill="#003665"/>
    <path id="Trazado_178148" data-name="Trazado 178148" d="M373.94,1290.188v18.282H341.227C367.347,1307.234,373.94,1290.188,373.94,1290.188Z" transform="translate(-340.095 -1288.718)" fill="#caddf2" style="mix-blend-mode: multiply;isolation: isolate"/>
  </g>
  <g id="Grupo_79320" data-name="Grupo 79320" transform="translate(0 102.846)">
    <g id="Grupo_79315" data-name="Grupo 79315" transform="translate(11.031 15.296)">
      <g id="Grupo_79314" data-name="Grupo 79314">
        <path id="Trazado_178149" data-name="Trazado 178149" d="M309.106,1770.634l-.006-.369a11.41,11.41,0,0,0-6.737,2.332,5.015,5.015,0,0,0-1.545,1.855l.343.137-.171-.068.171.069a4.775,4.775,0,0,1,1.452-1.719A11.069,11.069,0,0,1,309.106,1770.634Z" transform="translate(-300.817 -1770.265)" fill="#131e17"/>
      </g>
    </g>
    <g id="Grupo_79317" data-name="Grupo 79317" transform="translate(6.813 12.064)">
      <g id="Grupo_79316" data-name="Grupo 79316">
        <path id="Trazado_178150" data-name="Trazado 178150" d="M281.567,1760.26l.368-.023a10.182,10.182,0,0,0-2.175-6.212,5.012,5.012,0,0,0-1.922-1.461l-.121.348.061-.174-.061.174a4.772,4.772,0,0,1,1.781,1.374A9.847,9.847,0,0,1,281.567,1760.26Z" transform="translate(-277.717 -1752.564)" fill="#131e17"/>
      </g>
    </g>
    <path id="Trazado_178151" data-name="Trazado 178151" d="M246.394,1732.765c-.295-.465-2.792.713-2.792.713l-.106.077c-.046-.042-.091-.085-.136-.129a14.746,14.746,0,0,1-2.141-2.675s2.829-.245,2.689-.727-2.9.349-2.9.349h0c-.653-1.222-.895-2.448-.078-3.265a4.855,4.855,0,0,1,3.452-.931c.03.12.745,2.918,1.285,2.478s-.959-2.462-.96-2.463a8.212,8.212,0,0,1,3.853,1.144c-.046,1-.1,3.241.3,3.109.523-.171,0-2.882,0-2.882.067.056.131.114.19.173a4.016,4.016,0,0,1-5.305,6.031C244.809,1733.536,246.6,1733.093,246.394,1732.765Z" transform="translate(-240.407 -1718.927)" fill="#72a566"/>
    <g id="Grupo_79319" data-name="Grupo 79319" transform="translate(10.889 7.523)">
      <g id="Grupo_79318" data-name="Grupo 79318">
        <path id="Trazado_178152" data-name="Trazado 178152" d="M300.591,1739.407l-.538.02c-.178-4.8,1.136-7.725,2.269-9.333a7.321,7.321,0,0,1,2.582-2.4l.226.489-.113-.244.114.244a6.966,6.966,0,0,0-2.39,2.251C301.666,1731.974,300.42,1734.78,300.591,1739.407Z" transform="translate(-300.037 -1727.696)" fill="#131e17"/>
      </g>
    </g>
    <path id="Trazado_178153" data-name="Trazado 178153" d="M308.581,1696.462c.361-.717,4.157.636,4.157.636l.165.1c.06-.068.12-.136.179-.207a21.509,21.509,0,0,0,2.727-4.192s-4.144.048-4.008-.671,4.266.092,4.266.092h0c.773-1.868.949-3.683-.353-4.752-1.1-.906-3.088-1.125-5.147-.859-.027.178-.665,4.345-1.511,3.783-.864-.574,1.04-3.712,1.041-3.714a11.983,11.983,0,0,0-5.432,2.212c.21,1.453.613,4.693,0,4.558-.784-.173-.413-4.185-.413-4.185-.089.092-.174.184-.252.279a5.861,5.861,0,0,0,8.568,8C310.992,1697.356,308.325,1696.969,308.581,1696.462Z" transform="translate(-291.194 -1686.5)" fill="#a0c689"/>
    <path id="Trazado_178154" data-name="Trazado 178154" d="M274.359,1793.816h1.8a4.98,4.98,0,0,0,4.98-4.98H269.379a4.979,4.979,0,0,0,4.98,4.98Z" transform="translate(-264.089 -1770.149)" fill="#4e2c30"/>
    <path id="Trazado_178155" data-name="Trazado 178155" d="M334.437,1759.884c.5-.221,1.919,2.149,1.919,2.149l.045.123c.062-.009.123-.019.185-.031a14.728,14.728,0,0,0,3.269-1.026s-2.211-1.782-1.825-2.1,2.214,1.909,2.214,1.909h0c1.224-.65,2.108-1.533,1.886-2.665a4.853,4.853,0,0,0-2.345-2.7c-.092.083-2.247,2.006-2.449,1.34s2.169-1.508,2.17-1.509a8.213,8.213,0,0,0-3.835-1.2c-.523.859-1.723,2.747-1.986,2.411-.339-.433,1.608-2.391,1.608-2.391-.087.009-.173.022-.255.038a4.016,4.016,0,0,0,1.038,7.965C335.321,1761.408,334.08,1760.041,334.437,1759.884Z" transform="translate(-314.927 -1741.815)" fill="#bfddb3"/>
  </g>
  <g id="Grupo_79323" data-name="Grupo 79323" transform="translate(94.619 95.151)">
    <path id="Trazado_178156" data-name="Trazado 178156" d="M817.018,1655.046s-1.971-3.315-.448-5.914.09-5.242-1.21-4.7-2.106,2.554-3.718,2.643-2.778-1.255-4.256-.538.09,2.151-2.061,2.733,4.57,4.468,4.57,4.468l-.224,2.834Z" transform="translate(-796.44 -1644.358)" fill="#fcae32"/>
    <path id="Trazado_178157" data-name="Trazado 178157" d="M834.847,1686.44s-.134-3.226-2.778-3.181a16.605,16.605,0,0,0-5.053,1.259,2.427,2.427,0,0,0-1.209,3.524l.035.055Z" transform="translate(-813.238 -1676.155)" fill="#821716"/>
    <path id="Trazado_178158" data-name="Trazado 178158" d="M800.62,1717.807H758.567s1.343-15.846,12.214-20.759h0a15.853,15.853,0,0,1,4.152-1.223C779.564,1695.111,792.378,1697.14,800.62,1717.807Z" transform="translate(-758.567 -1686.332)" fill="#ffc72e"/>
    <g id="Grupo_79322" data-name="Grupo 79322" transform="translate(16.88 15.04)">
      <g id="Grupo_79321" data-name="Grupo 79321">
        <path id="Trazado_178159" data-name="Trazado 178159" d="M856.668,1733.39v-2.758a6.621,6.621,0,0,1,2.482.844l.81-2a7.347,7.347,0,0,0-3.292-.99v-1.768h-1.622v1.8c-2.565.292-3.813,1.768-3.813,3.487,0,2.32,2.011,2.92,3.813,3.359v2.709a6.582,6.582,0,0,1-3.148-1.151l-.891,1.979a7.672,7.672,0,0,0,4.039,1.3v1.768h1.622v-1.818c2.547-.307,3.779-1.768,3.779-3.454C860.447,1734.411,858.468,1733.811,856.668,1733.39Zm-1.622-.406c-.714-.227-1.2-.537-1.2-1.1,0-.534.341-1.005,1.2-1.2Zm1.622,5.029v-2.24c.7.245,1.167.552,1.167,1.12C857.835,1737.413,857.478,1737.835,856.668,1738.012Z" transform="translate(-851.006 -1726.72)" fill="#fbcdc8"/>
      </g>
    </g>
    <path id="Trazado_178160" data-name="Trazado 178160" d="M785.506,1723.8H758.567s1.343-15.846,12.214-20.759h0S752.224,1721.576,785.506,1723.8Z" transform="translate(-758.567 -1692.327)" fill="#fcae32" opacity="0.5" style="mix-blend-mode: multiply;isolation: isolate"/>
  </g>
  <path id="Trazado_178161" data-name="Trazado 178161" d="M672.384,1378.441l6.432,2.691a5.074,5.074,0,0,1,3.792-2.711v-6.992A12.036,12.036,0,0,0,672.384,1378.441Z" transform="translate(-593.502 -1326.117)" fill="#3e7daf"/>
  <path id="Trazado_178162" data-name="Trazado 178162" d="M712.514,1441.887a5.075,5.075,0,0,1-6.7,3.929l-3.849,5.9a12.04,12.04,0,0,0,17.548-9.829Z" transform="translate(-617.683 -1383.709)" fill="#fff"/>
  <path id="Trazado_178163" data-name="Trazado 178163" d="M673.465,1421.725a5.21,5.21,0,0,1-.071-.852,5.088,5.088,0,0,1,.034-.595c.014-.114.032-.229.054-.343L667,1417.221a12.039,12.039,0,0,0,4.681,13.59l3.806-5.831A5.081,5.081,0,0,1,673.465,1421.725Z" transform="translate(-588.638 -1363.547)" fill="#20485b"/>
  <path id="Trazado_178164" data-name="Trazado 178164" d="M751.654,1364.875H736.28v-15.434A16.086,16.086,0,0,1,751.654,1364.875Z" transform="translate(-645.73 -1308.144)" fill="#a0cd8a"/>
  <path id="Trazado_178165" data-name="Trazado 178165" d="M484.087,1655.532,475.7,1657.6c9.13-2.549,7.842-9.01,7.842-9.01a1.4,1.4,0,0,1,.49.766l1.1,4.443A1.427,1.427,0,0,1,484.087,1655.532Z" transform="translate(-432.735 -1552.671)" fill="#12171d" opacity="0.8" style="mix-blend-mode: multiply;isolation: isolate"/>
</svg>
