<svg xmlns="http://www.w3.org/2000/svg" xmlns:xlink="http://www.w3.org/1999/xlink" width="181.074" height="109.315" viewBox="0 0 181.074 109.315">
  <defs>
    <clipPath id="clip-path">
      <rect id="Rect치ngulo_21531" data-name="Rect치ngulo 21531" width="69" height="69" transform="translate(236 3667)" fill="#fff" stroke="#707070" stroke-width="1"/>
    </clipPath>
  </defs>
  <g id="Grupo_79476" data-name="Grupo 79476" transform="translate(-180 -3626.685)">
    <rect id="Rect치ngulo_21518" data-name="Rect치ngulo 21518" width="181.074" height="11.898" transform="translate(361.074 3638.583) rotate(180)" fill="#6f7302"/>
    <path id="Trazado_169427" data-name="Trazado 169427" d="M295.3,1699.232l-18.317,23.8h36.633Z" transform="translate(565.833 5349.712) rotate(180)" fill="#fff"/>
    <g id="Enmascarar_grupo_83" data-name="Enmascarar grupo 83" clip-path="url(#clip-path)">
      <g id="magnifier" transform="translate(236 3667)">
        <g id="Grupo_75459" data-name="Grupo 75459">
          <g id="Grupo_75458" data-name="Grupo 75458">
            <g id="Grupo_75454" data-name="Grupo 75454">
              <g id="Grupo_75453" data-name="Grupo 75453">
                <g id="Grupo_75452" data-name="Grupo 75452">
                  <g id="Grupo_75451" data-name="Grupo 75451">
                    <path id="Trazado_169458" data-name="Trazado 169458" d="M61.143,30.267a1.348,1.348,0,1,1,1.325-1.107A1.361,1.361,0,0,1,61.143,30.267Z" fill="#fff"/>
                  </g>
                </g>
              </g>
            </g>
            <g id="Grupo_75457" data-name="Grupo 75457">
              <g id="Grupo_75456" data-name="Grupo 75456">
                <g id="Grupo_75455" data-name="Grupo 75455">
                  <path id="Trazado_169459" data-name="Trazado 169459" d="M40.564,32.216a9.509,9.509,0,1,1,9.508-9.509A9.519,9.519,0,0,1,40.564,32.216Zm0-16.322a6.813,6.813,0,1,0,6.812,6.813,6.821,6.821,0,0,0-6.812-6.813Z" fill="#fff"/>
                </g>
              </g>
            </g>
          </g>
        </g>
        <g id="Grupo_75462" data-name="Grupo 75462">
          <g id="Grupo_75461" data-name="Grupo 75461">
            <g id="Grupo_75460" data-name="Grupo 75460">
              <path id="Trazado_169460" data-name="Trazado 169460" d="M60.443,33.944a1.347,1.347,0,0,0-1.716.828,19.1,19.1,0,0,1-4.566,7.26A19.434,19.434,0,0,1,51.864,44V37.95A4.073,4.073,0,0,0,47.8,33.881H33.333a4.073,4.073,0,0,0-4.068,4.068v6.072a19.245,19.245,0,0,1-2.3-29.184A19.129,19.129,0,0,1,40.575,9.2h.009A19.229,19.229,0,0,1,58.753,22.138,1.348,1.348,0,0,0,61.3,21.26,21.924,21.924,0,0,0,40.585,6.5h-.011A21.945,21.945,0,0,0,29.962,47.653h0A21.958,21.958,0,0,0,40.544,50.37h.021a21.984,21.984,0,0,0,10.6-2.737h0a22.038,22.038,0,0,0,10.1-11.972,1.347,1.347,0,0,0-.828-1.716ZM31.961,45.658V37.95a1.374,1.374,0,0,1,1.373-1.373H47.8a1.374,1.374,0,0,1,1.373,1.373v7.69a19.4,19.4,0,0,1-17.207.018Z" fill="#fff"/>
              <path id="Trazado_169461" data-name="Trazado 169461" d="M40.562,0a28.42,28.42,0,0,0-23.1,44.986l-2.585,2.585-.643-.643a1.348,1.348,0,0,0-1.906,0l-3.919,3.92h0L2.024,57.231a6.894,6.894,0,1,0,9.749,9.75L18.156,60.6h0l3.919-3.919a1.348,1.348,0,0,0,0-1.906l-.643-.643,2.586-2.586A28.427,28.427,0,1,0,40.562,0ZM9.867,65.075A4.2,4.2,0,0,1,3.93,59.137l5.43-5.431,2.966,2.966L15.3,59.644ZM17.2,57.738l-2.966-2.966L11.266,51.8l2.013-2.013,5.937,5.938Zm2.323-5.516L18.154,50.85l-1.373-1.373,2.365-2.365a28.686,28.686,0,0,0,2.745,2.745Zm21.037,1.948A25.738,25.738,0,1,1,66.3,28.433,25.765,25.765,0,0,1,40.562,54.171Z" fill="#fff"/>
            </g>
          </g>
        </g>
      </g>
    </g>
  </g>
</svg>
