<svg xmlns="http://www.w3.org/2000/svg" xmlns:xlink="http://www.w3.org/1999/xlink" width="181.074" height="109.315" viewBox="0 0 181.074 109.315">
  <defs>
    <clipPath id="clip-path">
      <rect id="Rect치ngulo_21527" data-name="Rect치ngulo 21527" width="69" height="69" transform="translate(658 3667)" fill="#fff" stroke="#707070" stroke-width="1"/>
    </clipPath>
  </defs>
  <g id="Grupo_79478" data-name="Grupo 79478" transform="translate(-603.569 -3626.685)">
    <rect id="Rect치ngulo_21524" data-name="Rect치ngulo 21524" width="181.074" height="11.898" transform="translate(784.644 3638.583) rotate(180)" fill="#4f5202"/>
    <path id="Trazado_169434" data-name="Trazado 169434" d="M1168.891,1699.232l-18.317,23.8h36.633Z" transform="translate(1862.997 5349.712) rotate(180)" fill="#fff"/>
    <g id="Enmascarar_grupo_79" data-name="Enmascarar grupo 79" clip-path="url(#clip-path)">
      <g id="motivation" transform="translate(673.633 3667)">
        <path id="Trazado_169438" data-name="Trazado 169438" d="M18.867,47.977a1.348,1.348,0,1,1-1.348-1.348A1.348,1.348,0,0,1,18.867,47.977Zm0,0" fill="#fff"/>
        <path id="Trazado_169439" data-name="Trazado 169439" d="M32.344,18.867a5.359,5.359,0,0,0-3,.912A5.388,5.388,0,0,0,20.216,18a5.383,5.383,0,0,0-8.088,0A5.387,5.387,0,0,0,2.7,21.563v7.55A6.763,6.763,0,0,0,0,34.5,22.931,22.931,0,0,0,9.164,52.828a4.042,4.042,0,0,1,1.617,3.234v11.59A1.348,1.348,0,0,0,12.129,69H33.691a1.348,1.348,0,0,0,1.348-1.348V56.279a54.124,54.124,0,0,0,2-8.2,54.06,54.06,0,0,0,.7-8.629V24.258a5.389,5.389,0,0,0-5.391-5.391Zm0,2.7a2.7,2.7,0,0,1,2.7,2.7v8.895a2.7,2.7,0,0,1-5.391,0V24.258A2.7,2.7,0,0,1,32.344,21.563Zm-8.086-2.7a2.7,2.7,0,0,1,2.7,2.7v8.895a2.7,2.7,0,0,1-5.391,0V21.563A2.7,2.7,0,0,1,24.258,18.867Zm-8.086,0a2.7,2.7,0,0,1,2.7,2.7v6.2H13.477v-6.2A2.7,2.7,0,0,1,16.172,18.867Zm-8.086,0a2.7,2.7,0,0,1,2.7,2.7v6.2H6.738a6.754,6.754,0,0,0-1.348.137V21.563a2.7,2.7,0,0,1,2.7-2.7ZM13.477,66.3v-6.2H32.344v6.2Zm20.9-18.655c-.869,5.343-2.035,7.766-2.035,8.413V57.41H13.477V56.062a6.739,6.739,0,0,0-2.7-5.391A20.233,20.233,0,0,1,2.7,34.5a4.047,4.047,0,0,1,4.043-4.045H18.732a6.751,6.751,0,0,1-6.6,5.392h-2.7a1.348,1.348,0,0,0,0,2.7h1.348a5.4,5.4,0,0,1,5.287,4.331,1.348,1.348,0,0,0,2.644-.526,8.054,8.054,0,0,0-2.755-4.62A9.494,9.494,0,0,0,20.2,34a5.379,5.379,0,0,0,7.061.939,5.384,5.384,0,0,0,7.782,2.884v1.635a51.423,51.423,0,0,1-.66,8.2Zm0,0" fill="#fff"/>
        <path id="Trazado_169440" data-name="Trazado 169440" d="M21.563,9.434V1.348a1.348,1.348,0,0,0-2.7,0V9.434a1.348,1.348,0,0,0,2.7,0Zm0,0" fill="#fff"/>
        <path id="Trazado_169441" data-name="Trazado 169441" d="M30.63,11.148,36.347,5.43A1.348,1.348,0,0,0,34.44,3.524L28.723,9.242a1.348,1.348,0,0,0,1.906,1.906Zm0,0" fill="#fff"/>
        <path id="Trazado_169442" data-name="Trazado 169442" d="M12.5,10.358a1.348,1.348,0,0,0,0-1.906L6.777,2.735A1.348,1.348,0,0,0,4.872,4.642l5.718,5.717a1.348,1.348,0,0,0,1.906,0Zm0,0" fill="#fff"/>
      </g>
    </g>
  </g>
</svg>
