<svg xmlns="http://www.w3.org/2000/svg" xmlns:xlink="http://www.w3.org/1999/xlink" width="181.074" height="109.315" viewBox="0 0 181.074 109.315">
  <defs>
    <clipPath id="clip-path">
      <rect id="Rect치ngulo_21526" data-name="Rect치ngulo 21526" width="69" height="69" transform="translate(448 3667)" fill="#fff" stroke="#707070" stroke-width="1"/>
    </clipPath>
  </defs>
  <g id="Grupo_79477" data-name="Grupo 79477" transform="translate(-391.785 -3626.685)">
    <rect id="Rect치ngulo_21521" data-name="Rect치ngulo 21521" width="181.074" height="11.898" transform="translate(572.859 3638.583) rotate(180)" fill="#3a82c0"/>
    <path id="Trazado_169430" data-name="Trazado 169430" d="M732.094,1699.232l-18.317,23.8h36.633Z" transform="translate(1214.415 5349.712) rotate(180)" fill="#fff"/>
    <g id="Enmascarar_grupo_78" data-name="Enmascarar grupo 78" clip-path="url(#clip-path)">
      <g id="Page-1" transform="translate(448.002 3667.001)">
        <g id="_007---Autism" data-name="007---Autism" transform="translate(-1.15)">
          <path id="Shape" d="M2.843,43a8.311,8.311,0,0,0,1.194.69c.5.254,1.331.68,1.389.977a2,2,0,0,1-.136,1.165c-.171.368-.351.684-.506.957-.421.744-1.126,1.991-.063,2.859.248.23.677.562,1.068.862a2.9,2.9,0,0,0-.374,1.659A1.661,1.661,0,0,0,6.1,53.3c.255.179.528.336.8.489.681.386.946.567,1.035.928a3.168,3.168,0,0,1-.115,1.38c-.068.307-.133.615-.172.92a6.843,6.843,0,0,0,.378,3.1,4.308,4.308,0,0,0,4.069,3.134,4.624,4.624,0,0,0,.943-.1,87.263,87.263,0,0,0,9.7-2.9c2.591,1.52,4.227,6.143,4.654,7.878A1.15,1.15,0,0,0,28.5,69l28.864-.08a1.15,1.15,0,0,0,1.095-1.495,8.873,8.873,0,0,0-1.165-2.185,10.735,10.735,0,0,1-.744-1.244,21.671,21.671,0,0,1-1.3-3.273,38.58,38.58,0,0,1-1.36-6.8A19.42,19.42,0,0,1,54.635,46H57.5a3.45,3.45,0,0,0,3.45-3.45V27.6a1.15,1.15,0,0,0-1.15-1.15H55.157a4.181,4.181,0,0,0,.041-.575,4.025,4.025,0,1,0-8.05,0,4.181,4.181,0,0,0,.041.575H43.7v-3.49a4.069,4.069,0,0,0,1.891-.178,4.026,4.026,0,0,0-1.891-7.79V10.35a1.15,1.15,0,0,0-1.15-1.15H27.6a3.45,3.45,0,0,0-3.45,3.45v29.9A3.45,3.45,0,0,0,27.6,46H52.22a21.748,21.748,0,0,0-.613,8.2,41,41,0,0,0,1.447,7.21,24.1,24.1,0,0,0,1.427,3.6,12.756,12.756,0,0,0,.891,1.5l.077.115L29.366,66.7a18.319,18.319,0,0,0-4.048-7.344l1.035-.362c.77-.269,1.351-.471,1.649-.567,4.926-1.558,7.39-3.8,7.323-6.67a1.15,1.15,0,1,0-2.3.054c.028,1.183-.942,2.909-5.722,4.422-.312.1-.912.309-1.709.588-.854.3-1.941.678-3.139,1.086h-.008a89.477,89.477,0,0,1-9.89,2.99,2.034,2.034,0,0,1-2.36-1.533,4.572,4.572,0,0,1-.27-2.052c.03-.241.085-.481.138-.721a5.033,5.033,0,0,0,.1-2.447,3.814,3.814,0,0,0-2.13-2.353L7.8,51.653a4.311,4.311,0,0,1,.443-.711A1.15,1.15,0,0,0,8.02,49.3c-.276-.2-.927-.69-1.4-1.074.055-.1.115-.21.172-.31.181-.316.386-.684.588-1.11a4.311,4.311,0,0,0,.307-2.574c-.276-1.4-1.62-2.091-2.6-2.592a6.659,6.659,0,0,1-.949-.551,4.984,4.984,0,0,1-.685-.558c0-.175.187-.6,1.064-1.664A46.426,46.426,0,0,0,9.78,30.321a3.421,3.421,0,0,0,.443-1.554,4.025,4.025,0,0,0-1.68-2.875c-.46-.427-.9-.829-.954-1.2a2.07,2.07,0,0,1,.179-.787c.187-.493.4-.976.621-1.46a16.8,16.8,0,0,0,1.125-3.032l.115-.49a28.75,28.75,0,0,1,.937-3.395,19.721,19.721,0,0,1,4.126-6.74c2.2-2.328,5.662-3.974,10.308-4.9A74.618,74.618,0,0,1,35.786,2.333,24.74,24.74,0,0,1,50.6,6.362V7.475a1.15,1.15,0,0,0,1.84.92,1.773,1.773,0,0,1,2.377.3,1.734,1.734,0,0,1,.332,1.487,1.705,1.705,0,0,1-1.1,1.216,1.736,1.736,0,0,1-1.617-.247,1.15,1.15,0,0,0-1.833.92V17.25a2.3,2.3,0,0,0,2.3,2.3h5.175a1.15,1.15,0,0,0,.92-1.84,1.725,1.725,0,1,1,2.76,0,1.15,1.15,0,0,0,.92,1.84H69a1.15,1.15,0,0,0,1.15-1.15V3.45A3.45,3.45,0,0,0,66.7,0H51.749A1.15,1.15,0,0,0,50.6,1.15V3.607A27.24,27.24,0,0,0,35.67.036a76.754,76.754,0,0,0-11.124,1.6C19.361,2.667,15.592,4.485,13.02,7.2a22.033,22.033,0,0,0-4.613,7.524A31.192,31.192,0,0,0,7.389,18.4l-.115.485A15,15,0,0,1,6.29,21.5c-.23.524-.469,1.049-.675,1.592a3.84,3.84,0,0,0-.3,1.923A4.395,4.395,0,0,0,6.987,27.59c.562.515.931.879.936,1.195a1.892,1.892,0,0,1-.2.5A44.488,44.488,0,0,1,2.7,37.461c-.834,1.014-1.708,2.2-1.524,3.382A3.514,3.514,0,0,0,2.843,43ZM26.449,12.65A1.15,1.15,0,0,1,27.6,11.5H41.4v5.175a1.15,1.15,0,0,0,1.84.92,1.773,1.773,0,0,1,2.377.3,1.734,1.734,0,0,1,.332,1.487,1.705,1.705,0,0,1-1.1,1.216,1.737,1.737,0,0,1-1.62-.252,1.15,1.15,0,0,0-1.83.925v5.175H37.91a4.089,4.089,0,0,0-.179-1.888A4.025,4.025,0,0,0,29.9,25.874a4.182,4.182,0,0,0,.041.575H26.449Zm0,29.9v-13.8h5.175a1.15,1.15,0,0,0,.92-1.84A1.727,1.727,0,0,1,34.337,24.2a1.7,1.7,0,0,1,1.214,1.1,1.725,1.725,0,0,1-.253,1.619,1.15,1.15,0,0,0,.926,1.831H41.4v3.491a4.025,4.025,0,1,0,0,7.967V43.7H27.6A1.15,1.15,0,0,1,26.449,42.549Zm16.611-5.06a1.157,1.157,0,0,0-1.206.115,1.725,1.725,0,1,1,0-2.76,1.15,1.15,0,0,0,1.84-.92V28.749h5.175a1.15,1.15,0,0,0,.92-1.84,1.725,1.725,0,1,1,2.76,0,1.15,1.15,0,0,0,.92,1.84h5.179v13.8A1.15,1.15,0,0,1,57.5,43.7H43.7V38.524A1.15,1.15,0,0,0,43.061,37.489ZM52.9,2.3H66.7a1.15,1.15,0,0,1,1.15,1.15v13.8H64.357a4.183,4.183,0,0,0,.041-.575,4.025,4.025,0,0,0-8.05,0,4.182,4.182,0,0,0,.041.575H52.9v-3.49a4.069,4.069,0,0,0,1.891-.178A4.026,4.026,0,0,0,52.9,5.791Z" fill="#fff"/>
          <path id="Shape-2" data-name="Shape" d="M13.991,20.459l.115-.5a25.833,25.833,0,0,1,.775-2.842,15.025,15.025,0,0,1,3.164-5.175,9.708,9.708,0,0,1,3.128-2.107,1.15,1.15,0,1,0-.941-2.1,11.94,11.94,0,0,0-3.86,2.627A17.3,17.3,0,0,0,12.72,16.33a27.593,27.593,0,0,0-.859,3.118l-.115.506a1.151,1.151,0,1,0,2.245.506Z" fill="#fff"/>
          <circle id="Oval" cx="1.15" cy="1.15" r="1.15" transform="translate(10.35 22.999)" fill="#fff"/>
        </g>
      </g>
    </g>
  </g>
</svg>
