<svg xmlns="http://www.w3.org/2000/svg" width="292" height="290" viewBox="0 0 292 290">
  <g id="Grupo_79474" data-name="Grupo 79474" transform="translate(-444 -2315)">
    <g id="Grupo_75178" data-name="Grupo 75178" transform="translate(443.916 2315.002)">
      <g id="Elipse_4562" data-name="Elipse 4562" transform="translate(0.084 -0.002)" fill="none" stroke="#a0a603" stroke-width="3" stroke-dasharray="3 5">
        <ellipse cx="146" cy="145" rx="146" ry="145" stroke="none"/>
        <ellipse cx="146" cy="145" rx="144.5" ry="143.5" fill="none"/>
      </g>
      <g id="Elipse_4563" data-name="Elipse 4563" transform="translate(14.084 11.998)" fill="#fff" stroke="#a0a603" stroke-width="2">
        <ellipse cx="132.5" cy="134" rx="132.5" ry="134" stroke="none"/>
        <ellipse cx="132.5" cy="134" rx="131.5" ry="133" fill="none"/>
      </g>
    </g>
    <g id="Grupo_75437" data-name="Grupo 75437" transform="translate(-695.67 2091.69)">
      <g id="Grupo_75397" data-name="Grupo 75397" transform="translate(1209.034 326.225)">
        <g id="Grupo_75394" data-name="Grupo 75394" transform="translate(0 26.153)">
          <path id="Trazado_169255" data-name="Trazado 169255" d="M1297.6,918.892c-2.416,2.457,3.542,4.56,7.139,7.81s1.613,15.744,9.936,19.169c12.048,4.958,1.24,4.977,10.575,10.609,8.6,5.186,8.227,14.1,10.691,11.5,3.524-3.707-5.8-19.393-5.239-24.086s-.966-5.936-6.85-7.381c-4.716-1.158-2.409-14.031-11.644-14.064S1300.392,916.054,1297.6,918.892Z" transform="translate(-1297.039 -918.163)" fill="#0064cb"/>
          <path id="Trazado_169256" data-name="Trazado 169256" d="M1442.918,1041.114c-.261-.511-6.412-12.554-7.381-15.183a19.531,19.531,0,0,0-9.137-9.378c-4.943-2.38-8.107-12.848-8.239-13.292l.657-.2c.032.106,3.209,10.621,7.88,12.87a20.3,20.3,0,0,1,9.483,9.758c.954,2.591,7.284,14.983,7.348,15.108Z" transform="translate(-1404.869 -993.748)" fill="#004b98"/>
        </g>
        <g id="Grupo_75396" data-name="Grupo 75396" transform="translate(16.684 0)">
          <path id="Trazado_169257" data-name="Trazado 169257" d="M1454.273,680.033c4.545-1.558,3.6,7.2,5.521,13.684s21.367,2.828,13.2,19.06,10.323,5.428,4.8,19.593-.48,29.313-6.482,25.46-3.372-21.69-9.614-23.809-7.26-4.592-1.08-10.353-16.195-11.483-10.672-23.117S1449.021,681.834,1454.273,680.033Z" transform="translate(-1449.067 -679.851)" fill="#3397fe"/>
          <g id="Grupo_75395" data-name="Grupo 75395" transform="translate(8.184 20.25)">
            <path id="Trazado_169258" data-name="Trazado 169258" d="M1535.62,921.17c.572-2.425,5.454-23.765.9-26.344-4.015-2.273-3.915-11.116-3.289-19.466.555-7.392-8.938-10.847-9.343-10.99l-.241.679c.094.033,9.379,3.415,8.866,10.258-.643,8.574-.712,17.675,3.652,20.146,3.458,1.959.274,19.108-1.245,25.551Z" transform="translate(-1523.645 -864.371)" fill="#004b98"/>
          </g>
        </g>
      </g>
      <g id="Grupo_75402" data-name="Grupo 75402" transform="translate(1313.719 360.59)">
        <g id="Grupo_75399" data-name="Grupo 75399" transform="translate(3.262 0)">
          <path id="Trazado_169259" data-name="Trazado 169259" d="M2283.654,1031.9c.18.445.3.7.31.725.047-.245.093-.489.141-.725,2.048-10.494,4.786-11.59,13-20.769,8.4-9.388,3.568-18.135,3.568-18.135C2272.536,1001.12,2281.741,1027.2,2283.654,1031.9Z" transform="translate(-2280.689 -992.991)" fill="#0064cb"/>
          <g id="Grupo_75398" data-name="Grupo 75398" transform="translate(2.871 10.96)">
            <path id="Trazado_169260" data-name="Trazado 169260" d="M2306.947,1120.81c.18.445.3.7.31.725.047-.245.093-.489.141-.725-.912-9.072,4.561-19.717,6.281-21.627a20.045,20.045,0,0,0,3.29-5.724c.07-.17.135-.331.156-.37l-.4-.224c-.035.062-.08.175-.182.423a19.553,19.553,0,0,1-3.207,5.586C2311.16,1101.3,2306.11,1111.995,2306.947,1120.81Z" transform="translate(-2306.854 -1092.866)" fill="#004b98"/>
          </g>
        </g>
        <g id="Grupo_75401" data-name="Grupo 75401" transform="translate(0 14.263)">
          <path id="Trazado_169261" data-name="Trazado 169261" d="M2254.521,1144.871c-3.063,6.684-4.784,13.009-2.529,15.83a3.656,3.656,0,0,0,.437.46c1.737,1.53,5.154,1.565,10.922-.714,15.352-6.064,16.081-16.531,19.186-26.75,3.061-10.092,13.753-8.386,14.026-8.342C2271.648,1116.676,2259.718,1133.539,2254.521,1144.871Z" transform="translate(-2250.962 -1122.961)" fill="#3397fe"/>
          <g id="Grupo_75400" data-name="Grupo 75400" transform="translate(1.03 9.316)">
            <path id="Trazado_169262" data-name="Trazado 169262" d="M2260.348,1236.272a3.645,3.645,0,0,0,.436.46c2.884-1.737,8.406-5.421,11.009-9.556a61.281,61.281,0,0,0,3.355-6.466c2.066-4.391,4.206-8.931,7.94-12.413l-.417-.449c-3.819,3.565-5.982,8.158-8.075,12.6a59.742,59.742,0,0,1-3.32,6.4C2268.738,1230.883,2263.159,1234.581,2260.348,1236.272Z" transform="translate(-2260.348 -1207.847)" fill="#004b98"/>
          </g>
        </g>
      </g>
      <g id="Grupo_75424" data-name="Grupo 75424" transform="translate(1198.186 282.634)">
        <path id="Trazado_169263" data-name="Trazado 169263" d="M1437.738,436.816a.62.62,0,1,1-.62-.62A.62.62,0,0,1,1437.738,436.816Z" transform="translate(-1410.345 -419.344)" fill="#0064cb"/>
        <path id="Trazado_169264" data-name="Trazado 169264" d="M1567.967,710.734a.97.97,0,1,1-.97-.97A.97.97,0,0,1,1567.967,710.734Z" transform="translate(-1525.659 -662.89)" fill="none" stroke="#0064cb" stroke-miterlimit="10" stroke-width="6"/>
        <path id="Trazado_169265" data-name="Trazado 169265" d="M2628.3,609.017a.62.62,0,1,1-.62-.62A.62.62,0,0,1,2628.3,609.017Z" transform="translate(-2470.256 -572.647)" fill="#0064cb"/>
        <path id="Trazado_169266" data-name="Trazado 169266" d="M1952.685,448.117a.62.62,0,1,1-.62-.62A.62.62,0,0,1,1952.685,448.117Z" transform="translate(-1868.781 -429.405)" fill="#0064cb"/>
        <g id="Grupo_75405" data-name="Grupo 75405" transform="translate(0 50.838)">
          <g id="Grupo_75403" data-name="Grupo 75403" transform="translate(0.859)">
            <path id="Trazado_169267" data-name="Trazado 169267" d="M1206.258,748.086a.243.243,0,0,1-.244-.243v-1.718a.243.243,0,1,1,.487,0v1.718A.243.243,0,0,1,1206.258,748.086Z" transform="translate(-1206.015 -745.881)" fill="#0064cb"/>
          </g>
          <g id="Grupo_75404" data-name="Grupo 75404" transform="translate(0 0.859)">
            <path id="Trazado_169268" data-name="Trazado 169268" d="M1200.148,754.2h-1.718a.243.243,0,1,1,0-.487h1.718a.243.243,0,1,1,0,.487Z" transform="translate(-1198.186 -753.71)" fill="#0064cb"/>
          </g>
        </g>
        <g id="Grupo_75408" data-name="Grupo 75408" transform="translate(165.867 7.451)">
          <g id="Grupo_75406" data-name="Grupo 75406" transform="translate(0.859)">
            <path id="Trazado_169269" data-name="Trazado 169269" d="M2717.688,352.734a.244.244,0,0,1-.244-.244v-1.719a.244.244,0,0,1,.487,0v1.719A.244.244,0,0,1,2717.688,352.734Z" transform="translate(-2717.444 -350.529)" fill="#0064cb"/>
          </g>
          <g id="Grupo_75407" data-name="Grupo 75407" transform="translate(0 0.859)">
            <path id="Trazado_169270" data-name="Trazado 169270" d="M2711.578,358.846h-1.718a.243.243,0,1,1,0-.487h1.718a.243.243,0,1,1,0,.487Z" transform="translate(-2709.616 -358.359)" fill="#0064cb"/>
          </g>
        </g>
        <g id="Grupo_75411" data-name="Grupo 75411" transform="translate(132.355 6.348)">
          <g id="Grupo_75409" data-name="Grupo 75409" transform="translate(0.859)">
            <path id="Trazado_169271" data-name="Trazado 169271" d="M2412.318,342.685a.244.244,0,0,1-.244-.244v-1.718a.244.244,0,0,1,.487,0v1.718A.244.244,0,0,1,2412.318,342.685Z" transform="translate(-2412.074 -340.48)" fill="#0064cb"/>
          </g>
          <g id="Grupo_75410" data-name="Grupo 75410" transform="translate(0 0.859)">
            <path id="Trazado_169272" data-name="Trazado 169272" d="M2406.208,348.8h-1.719a.244.244,0,1,1,0-.487h1.719a.244.244,0,1,1,0,.487Z" transform="translate(-2404.245 -348.308)" fill="#0064cb"/>
          </g>
        </g>
        <g id="Grupo_75414" data-name="Grupo 75414" transform="translate(172.763 66.269)">
          <g id="Grupo_75412" data-name="Grupo 75412" transform="translate(0.859)">
            <path id="Trazado_169273" data-name="Trazado 169273" d="M2780.524,888.7a.244.244,0,0,1-.244-.244v-1.718a.244.244,0,0,1,.488,0v1.718A.244.244,0,0,1,2780.524,888.7Z" transform="translate(-2780.28 -886.499)" fill="#0064cb"/>
          </g>
          <g id="Grupo_75413" data-name="Grupo 75413" transform="translate(0 0.859)">
            <path id="Trazado_169274" data-name="Trazado 169274" d="M2774.414,894.815H2772.7a.243.243,0,1,1,0-.487h1.719a.243.243,0,1,1,0,.487Z" transform="translate(-2772.452 -894.328)" fill="#0064cb"/>
          </g>
        </g>
        <g id="Grupo_75417" data-name="Grupo 75417" transform="translate(90.001)">
          <g id="Grupo_75415" data-name="Grupo 75415" transform="translate(0.859)">
            <path id="Trazado_169275" data-name="Trazado 169275" d="M2026.375,284.839a.244.244,0,0,1-.244-.244v-1.719a.244.244,0,0,1,.487,0V284.6A.244.244,0,0,1,2026.375,284.839Z" transform="translate(-2026.131 -282.634)" fill="#0064cb"/>
          </g>
          <g id="Grupo_75416" data-name="Grupo 75416" transform="translate(0 0.859)">
            <path id="Trazado_169276" data-name="Trazado 169276" d="M2020.264,290.951h-1.719a.244.244,0,1,1,0-.487h1.719a.244.244,0,1,1,0,.487Z" transform="translate(-2018.302 -290.464)" fill="#0064cb"/>
          </g>
        </g>
        <path id="Trazado_169277" data-name="Trazado 169277" d="M2366.366,939.021a.62.62,0,1,1-.62-.62A.62.62,0,0,1,2366.366,939.021Z" transform="translate(-2237.064 -866.436)" fill="#0064cb"/>
        <g id="Grupo_75420" data-name="Grupo 75420" transform="translate(135.399 53.873)">
          <g id="Grupo_75418" data-name="Grupo 75418" transform="translate(0.859)">
            <path id="Trazado_169278" data-name="Trazado 169278" d="M2440.057,775.743a.244.244,0,0,1-.244-.243v-1.719a.244.244,0,0,1,.487,0V775.5A.244.244,0,0,1,2440.057,775.743Z" transform="translate(-2439.813 -773.538)" fill="#0064cb"/>
          </g>
          <g id="Grupo_75419" data-name="Grupo 75419" transform="translate(0 0.859)">
            <path id="Trazado_169279" data-name="Trazado 169279" d="M2433.946,781.855h-1.719a.243.243,0,1,1,0-.487h1.719a.243.243,0,1,1,0,.487Z" transform="translate(-2431.984 -781.368)" fill="#0064cb"/>
          </g>
        </g>
        <g id="Grupo_75423" data-name="Grupo 75423" transform="translate(10.144 83.933)">
          <g id="Grupo_75421" data-name="Grupo 75421" transform="translate(0.859)">
            <path id="Trazado_169280" data-name="Trazado 169280" d="M1298.7,1049.658a.244.244,0,0,1-.244-.244V1047.7a.244.244,0,0,1,.487,0v1.719A.244.244,0,0,1,1298.7,1049.658Z" transform="translate(-1298.453 -1047.453)" fill="#0064cb"/>
          </g>
          <g id="Grupo_75422" data-name="Grupo 75422" transform="translate(0 0.859)">
            <path id="Trazado_169281" data-name="Trazado 169281" d="M1292.587,1055.77h-1.719a.244.244,0,1,1,0-.487h1.719a.244.244,0,1,1,0,.487Z" transform="translate(-1290.625 -1055.283)" fill="#0064cb"/>
          </g>
        </g>
      </g>
      <g id="Grupo_75432" data-name="Grupo 75432" transform="translate(1247.244 307.97)">
        <path id="Trazado_169282" data-name="Trazado 169282" d="M1703.691,652.455h-45.123a13.348,13.348,0,0,1-13.348-13.348V526.847a13.348,13.348,0,0,1,13.348-13.348h45.123a13.348,13.348,0,0,1,13.348,13.348v112.26a13.348,13.348,0,0,1-13.348,13.348Z" transform="translate(-1645.22 -513.499)" fill="#1a2f37"/>
        <path id="Trazado_169283" data-name="Trazado 169283" d="M1724.941,546.618h-9.175a4.438,4.438,0,0,1-4.284,3.282h-21.469a4.438,4.438,0,0,1-4.284-3.282h-9.175a9.3,9.3,0,0,0-9.3,9.3V669.282a9.3,9.3,0,0,0,9.3,9.3h48.388a9.3,9.3,0,0,0,9.3-9.3V555.916a9.3,9.3,0,0,0-9.3-9.3Z" transform="translate(-1664.838 -542.983)" fill="#cce5ff"/>
        <g id="Grupo_75431" data-name="Grupo 75431" transform="translate(2.418 12.628)">
          <g id="Grupo_75425" data-name="Grupo 75425" transform="translate(4.174 63.653)">
            <rect id="Rectángulo_21508" data-name="Rectángulo 21508" width="29.317" height="5.644" rx="2.822" transform="translate(0)" fill="#fff"/>
            <path id="Trazado_169284" data-name="Trazado 169284" d="M1762.517,1336.99H1706.7a1.411,1.411,0,0,1-1.411-1.411h0a1.411,1.411,0,0,1,1.411-1.411h55.812a1.411,1.411,0,0,1,1.411,1.411h0A1.411,1.411,0,0,1,1762.517,1336.99Z" transform="translate(-1705.294 -1320.387)" fill="#fff"/>
            <path id="Trazado_169285" data-name="Trazado 169285" d="M1762.517,1417.665H1706.7a1.411,1.411,0,0,1-1.411-1.411h0a1.411,1.411,0,0,1,1.411-1.411h55.812a1.411,1.411,0,0,1,1.411,1.411h0A1.411,1.411,0,0,1,1762.517,1417.665Z" transform="translate(-1705.294 -1392.209)" fill="#fff"/>
            <rect id="Rectángulo_21509" data-name="Rectángulo 21509" width="58.634" height="2.822" rx="1.411" transform="translate(0 31.488)" fill="#fff"/>
            <path id="Trazado_169286" data-name="Trazado 169286" d="M1762.517,1579.014H1706.7a1.411,1.411,0,0,1-1.411-1.411h0a1.411,1.411,0,0,1,1.411-1.411h55.812a1.411,1.411,0,0,1,1.411,1.411h0A1.411,1.411,0,0,1,1762.517,1579.014Z" transform="translate(-1705.294 -1535.851)" fill="#fff"/>
            <path id="Trazado_169287" data-name="Trazado 169287" d="M1762.517,1659.689H1706.7a1.411,1.411,0,0,1-1.411-1.411h0a1.411,1.411,0,0,1,1.411-1.411h55.812a1.411,1.411,0,0,1,1.411,1.411h0A1.411,1.411,0,0,1,1762.517,1659.689Z" transform="translate(-1705.294 -1607.672)" fill="#fff"/>
          </g>
          <g id="Grupo_75427" data-name="Grupo 75427" transform="translate(2.309 14.769)">
            <rect id="Rectángulo_21510" data-name="Rectángulo 21510" width="62.365" height="43.71" fill="#a0a603"/>
            <g id="Grupo_75426" data-name="Grupo 75426" transform="translate(7.097 10.035)">
              <path id="Trazado_169288" data-name="Trazado 169288" d="M1769.458,877.851h-3.61l-1.435-5.283h-6.569l-1.356,5.283h-3.52l6.4-23.259h3.509Zm-6.11-9.2-2.265-8.631-2.22,8.631Z" transform="translate(-1752.968 -854.592)" fill="#fff"/>
              <path id="Trazado_169289" data-name="Trazado 169289" d="M1924.255,877.851h-2.926v-2.475a5.738,5.738,0,0,1-1.721,2.15,3.43,3.43,0,0,1-2,.706,4.173,4.173,0,0,1-3.515-2.34,15.453,15.453,0,0,1-.039-13.041,4.184,4.184,0,0,1,3.6-2.229q2,0,3.453,2.348v-8.377h3.15Zm-8.408-8.789a10.5,10.5,0,0,0,.527,3.9q.762,1.746,2.13,1.745a2.181,2.181,0,0,0,1.85-1.309,7.945,7.945,0,0,0,.762-3.911,8.773,8.773,0,0,0-.74-4.18,2.036,2.036,0,0,0-3.772-.016A7.465,7.465,0,0,0,1915.847,869.061Z" transform="translate(-1895.108 -854.592)" fill="#fff"/>
              <path id="Trazado_169290" data-name="Trazado 169290" d="M2036.743,921.952l3.161-.682a3.712,3.712,0,0,0,.819,1.975,2.22,2.22,0,0,0,1.726.674,2.453,2.453,0,0,0,1.839-.635,1.673,1.673,0,0,0,.415-1.19,1.475,1.475,0,0,0-.224-.841,2.193,2.193,0,0,0-1.054-.587q-3.812-1.19-4.832-2.174a5.026,5.026,0,0,1-1.412-3.792,5.617,5.617,0,0,1,1.222-3.681,4.614,4.614,0,0,1,3.789-1.491,5.115,5.115,0,0,1,3.632,1.126,6.148,6.148,0,0,1,1.637,3.332l-2.971.777a2.8,2.8,0,0,0-.723-1.507,2.076,2.076,0,0,0-1.519-.524,2.614,2.614,0,0,0-1.783.492,1.206,1.206,0,0,0-.359.9,1.136,1.136,0,0,0,.314.809,9.546,9.546,0,0,0,2.943,1.253,7.636,7.636,0,0,1,3.514,1.983,5.052,5.052,0,0,1,.987,3.316,6.076,6.076,0,0,1-1.368,3.982,4.932,4.932,0,0,1-4.047,1.666,5.249,5.249,0,0,1-3.851-1.4A6.891,6.891,0,0,1,2036.743,921.952Z" transform="translate(-2005.601 -903.5)" fill="#fff"/>
              <path id="Trazado_169291" data-name="Trazado 169291" d="M2163.205,1030.366v-4.458h3.15v4.458Z" transform="translate(-2118.185 -1007.107)" fill="#fff"/>
            </g>
          </g>
          <g id="Grupo_75430" data-name="Grupo 75430">
            <rect id="Rectángulo_21511" data-name="Rectángulo 21511" width="66.983" height="9.595" fill="#fff"/>
            <g id="Grupo_75429" data-name="Grupo 75429" transform="translate(4.24 0.773)">
              <g id="Grupo_75428" data-name="Grupo 75428" transform="translate(0 1.785)">
                <path id="Trazado_169292" data-name="Trazado 169292" d="M1710.994,652.493H1706.2a.308.308,0,0,1-.308-.308h0a.308.308,0,0,1,.308-.308h4.794a.308.308,0,0,1,.308.308h0A.308.308,0,0,1,1710.994,652.493Z" transform="translate(-1705.892 -651.877)" fill="#1a2f37"/>
                <path id="Trazado_169293" data-name="Trazado 169293" d="M1710.994,670.1H1706.2a.308.308,0,0,1-.308-.308h0a.308.308,0,0,1,.308-.308h4.794a.308.308,0,0,1,.308.308h0A.308.308,0,0,1,1710.994,670.1Z" transform="translate(-1705.892 -667.549)" fill="#1a2f37"/>
                <path id="Trazado_169294" data-name="Trazado 169294" d="M1710.994,687.7H1706.2a.308.308,0,0,1-.308-.308h0a.308.308,0,0,1,.308-.308h4.794a.308.308,0,0,1,.308.308h0A.308.308,0,0,1,1710.994,687.7Z" transform="translate(-1705.892 -683.22)" fill="#1a2f37"/>
              </g>
              <circle id="Elipse_4583" data-name="Elipse 4583" cx="3.508" cy="3.508" r="3.508" transform="matrix(0.16, -0.987, 0.987, 0.16, 13.603, 6.925)" fill="#1a2f37"/>
              <circle id="Elipse_4584" data-name="Elipse 4584" cx="3.508" cy="3.508" r="3.508" transform="matrix(0.16, -0.987, 0.987, 0.16, 32.876, 6.925)" fill="#1a2f37"/>
              <circle id="Elipse_4585" data-name="Elipse 4585" cx="3.508" cy="3.508" r="3.508" transform="matrix(0.16, -0.987, 0.987, 0.16, 50.97, 6.925)" fill="#1a2f37"/>
            </g>
          </g>
        </g>
      </g>
      <g id="Grupo_75434" data-name="Grupo 75434" transform="translate(1309.214 391.729)">
        <path id="Trazado_169295" data-name="Trazado 169295" d="M2239.654,1318.263a5.226,5.226,0,0,0,1.775-.65l27.92-17.293-27.843-22.858a2.749,2.749,0,0,0-3.706,0l-27.9,22.858,27.9,17.224A5.236,5.236,0,0,0,2239.654,1318.263Z" transform="translate(-2209.901 -1276.744)" fill="#c99600"/>
        <rect id="Rectángulo_21512" data-name="Rectángulo 21512" width="44.468" height="52.43" transform="translate(7.464 6.647)" fill="#d1d5d7"/>
        <path id="Trazado_169296" data-name="Trazado 169296" d="M2241.507,1508.8a2.749,2.749,0,0,1-3.706,0l-27.9-17.224v32.146a4.03,4.03,0,0,0,4.031,4.031h51.386a4.03,4.03,0,0,0,4.031-4.031v-32.146Z" transform="translate(-2209.901 -1468.003)" fill="#fcc933"/>
        <path id="Trazado_169297" data-name="Trazado 169297" d="M2250.844,1629.708a2.749,2.749,0,0,1-3.706,0l-3.759-2.32-22.991,20.063a4.216,4.216,0,0,0,2.586,1.252h51.863a4.159,4.159,0,0,0,2.645-1.2l-22.9-20.106Z" transform="translate(-2219.238 -1588.908)" fill="#fbbb00"/>
        <g id="Grupo_75433" data-name="Grupo 75433" transform="translate(12.321 14.234)">
          <path id="Trazado_169298" data-name="Trazado 169298" d="M2326.8,1406.444l-4.625,11.875h2.543l.98-2.7h4.747l1.037,2.7h2.608l-4.755-11.875Zm-.365,7.177,1.6-4.407,1.636,4.407Z" transform="translate(-2322.178 -1406.444)" fill="#1a2f37"/>
          <path id="Trazado_169299" data-name="Trazado 169299" d="M2443.667,1410.721a3.221,3.221,0,0,0-2.495-1.2,3.354,3.354,0,0,0-2.6,1.138,4.8,4.8,0,0,0-1.029,3.325,4.86,4.86,0,0,0,1.057,3.333,3.276,3.276,0,0,0,2.539,1.195,3.193,3.193,0,0,0,1.446-.36,3.416,3.416,0,0,0,1.243-1.1v1.264h2.114v-11.875h-2.276Zm-.543,5.326a1.675,1.675,0,0,1-1.336.668,1.72,1.72,0,0,1-1.539-.891,3.934,3.934,0,0,1-.381-1.993,2.91,2.91,0,0,1,.547-1.924,1.711,1.711,0,0,1,1.357-.644,1.692,1.692,0,0,1,1.369.652,3.375,3.375,0,0,1,.535,2.134A3.083,3.083,0,0,1,2443.124,1416.047Z" transform="translate(-2424.883 -1406.444)" fill="#1a2f37"/>
          <path id="Trazado_169300" data-name="Trazado 169300" d="M2534.543,1438.906a6.332,6.332,0,0,0-2.539-1.012,8.535,8.535,0,0,1-2.126-.64.5.5,0,0,1-.227-.413.539.539,0,0,1,.259-.462,2.473,2.473,0,0,1,1.288-.251,1.911,1.911,0,0,1,1.1.267,1.328,1.328,0,0,1,.522.769l2.146-.4a2.941,2.941,0,0,0-1.183-1.7,4.777,4.777,0,0,0-2.625-.575,4.124,4.124,0,0,0-2.738.761,2.386,2.386,0,0,0-.883,1.879,2.216,2.216,0,0,0,1.021,1.936,12.27,12.27,0,0,0,3.491,1.11,1.817,1.817,0,0,1,.761.3.6.6,0,0,1,.162.429.723.723,0,0,1-.3.608,2.25,2.25,0,0,1-1.329.324,2,2,0,0,1-1.247-.344,1.673,1.673,0,0,1-.591-1.008l-2.284.348a3.283,3.283,0,0,0,1.341,1.936,4.8,4.8,0,0,0,2.782.713,4.375,4.375,0,0,0,2.924-.851,2.6,2.6,0,0,0,.988-2.033A2.106,2.106,0,0,0,2534.543,1438.906Z" transform="translate(-2504.719 -1431.414)" fill="#1a2f37"/>
          <rect id="Rectángulo_21513" data-name="Rectángulo 21513" width="2.276" height="2.276" transform="translate(32.53 9.599)" fill="#1a2f37"/>
        </g>
      </g>
      <g id="Grupo_75435" data-name="Grupo 75435" transform="translate(1198.719 374.074)">
        <path id="Trazado_169301" data-name="Trazado 169301" d="M1348.906,1628.529l-2.462,3.509a1.634,1.634,0,0,0,.4,2.269l18.563,13.028a1.633,1.633,0,0,0,2.269-.4l2.463-3.509a1.634,1.634,0,0,0-.4-2.269l-18.563-13.028A1.634,1.634,0,0,0,1348.906,1628.529Z" transform="translate(-1330.444 -1571.653)" fill="#1a2f37" fill-rule="evenodd"/>
        <path id="Trazado_169302" data-name="Trazado 169302" d="M1214.314,1567.494q.745-1.446,1.491-2.891a.566.566,0,0,0-.5-.826l-2.857-.027a.553.553,0,0,0-.493.279l-1.817,3.079a.552.552,0,0,0-.005.566l1.406,2.488a.566.566,0,0,0,.963.036Q1213.408,1568.846,1214.314,1567.494Z" transform="translate(-1209.29 -1514.598)" fill="#afbdc1" fill-rule="evenodd"/>
        <path id="Trazado_169303" data-name="Trazado 169303" d="M1203.1,1575.879c-.506.722,2.237,4.063,5.027,6.021s6.182,3.575,6.688,2.853l8.908-11.033-7.446-4.092-5.83-5.877Z" transform="translate(-1203.041 -1514.598)" fill="#c99600" fill-rule="evenodd"/>
        <path id="Trazado_169304" data-name="Trazado 169304" d="M1259.761,1693.5c2.186,1.292,4.221,2.371,4.938,2.329l2.657-4.665c-1.628-1.261-3.424-2.52-3.424-2.52l-3.839-.275S1262.505,1688.957,1259.761,1693.5Z" transform="translate(-1253.536 -1625.539)" fill="#05090b" fill-rule="evenodd" opacity="0.1"/>
        <path id="Trazado_169305" data-name="Trazado 169305" d="M1206.543,1494.994c-.742,1.058,1.971,4.242,6.061,7.113s8.007,4.339,8.749,3.281l13.064-16.181-8.55-6-8.549-6Z" transform="translate(-1206.05 -1437.553)" fill="#d7dee0" fill-rule="evenodd"/>
        <path id="Trazado_169306" data-name="Trazado 169306" d="M1294.412,1486.834l-4.49,5.519c-4.948.643-15.162-6.855-16.135-11.749l3.719-6.08Z" transform="translate(-1266.023 -1435.163)" fill="#48595f" fill-rule="evenodd"/>
        <path id="Trazado_169307" data-name="Trazado 169307" d="M1279.248,1579.662c3.379,2.064,6.309,2.994,6.94,2.094l13.064-16.181-3.686-2.587-9.572,13.638A6.985,6.985,0,0,1,1279.248,1579.662Z" transform="translate(-1270.885 -1513.92)" fill="#05090b" fill-rule="evenodd" opacity="0.1"/>
        <path id="Trazado_169308" data-name="Trazado 169308" d="M1304.863,1182.224s7.1-11.967,7.357-36.363l22.03,12.671,19.407,16.411c-22.855,8.535-31.7,19.281-31.7,19.281-.742,1.058-5.172-.771-9.894-4.084S1304.12,1183.281,1304.863,1182.224Z" transform="translate(-1293.594 -1142.569)" fill="#fbbb00" fill-rule="evenodd"/>
        <path id="Trazado_169309" data-name="Trazado 169309" d="M1433.189,1243.314l1.758,1.011,19.407,16.411c-22.855,8.535-31.7,19.281-31.7,19.281-.458.653-2.322.206-4.792-1.011l11.9-16.952c6.068-8.647-3.947-19.824-3.947-19.824S1428.793,1242.645,1433.189,1243.314Z" transform="translate(-1394.291 -1228.362)" fill="#05090b" fill-rule="evenodd" opacity="0.1"/>
        <path id="Trazado_169310" data-name="Trazado 169310" d="M1373.274,1117.3c-2.588,3.688,4.827,13.354,16.562,21.591s23.347,11.923,25.935,8.235-4.827-13.355-16.562-21.591S1375.862,1113.607,1373.274,1117.3Z" transform="translate(-1354.133 -1115.864)" fill="#d7dee0" fill-rule="evenodd"/>
        <path id="Trazado_169311" data-name="Trazado 169311" d="M1396.344,1131.6c-2.043,2.91,4.847,11.266,15.389,18.665s20.742,11.037,22.784,8.127-4.848-11.266-15.389-18.665S1398.385,1128.693,1396.344,1131.6Z" transform="translate(-1374.811 -1128.983)" fill="#48595f" fill-rule="evenodd"/>
        <path id="Trazado_169312" data-name="Trazado 169312" d="M1397.452,1160.875c1.048,3.865,7.145,10.4,15.587,16.326s16.661,9.436,20.652,9.108c-1.048-3.865-7.146-10.4-15.587-16.326S1401.442,1160.546,1397.452,1160.875Z" transform="translate(-1376.117 -1155.916)" fill="#1a2f37" fill-rule="evenodd"/>
        <path id="Trazado_169313" data-name="Trazado 169313" d="M1509.2,1251.44l2.855-5.746-3.432-2.408-3.431-2.408-4.433,4.638c1.3,1.038,2.679,2.074,4.13,3.092S1507.78,1250.572,1509.2,1251.44Z" transform="translate(-1468.084 -1227.159)" fill="#d7dee0" fill-rule="evenodd"/>
        <path id="Trazado_169314" data-name="Trazado 169314" d="M1540.1,1239.451c-.419.6.78,2.16,2.677,3.491s3.775,1.927,4.194,1.33-.779-2.16-2.677-3.491S1540.522,1238.854,1540.1,1239.451Z" transform="translate(-1503.039 -1225.682)" fill="#c99600" fill-rule="evenodd"/>
      </g>
      <g id="Grupo_75436" data-name="Grupo 75436" transform="translate(1232.024 439.866)">
        <path id="Trazado_169315" data-name="Trazado 169315" d="M1506.751,1729.494a9.925,9.925,0,0,1,.454-5.684c1.189-2.642,2.618-3.084,4.068-2.95a2.594,2.594,0,0,1,1.915,1.359s1.885-4.2,5.187-6.008,5.713-.481,5.02,2.005a24.322,24.322,0,0,1-2.786,5.594s2.563-.555,2.906.9-1.573,3.561-3.62,4.786Z" transform="translate(-1506.527 -1715.375)" fill="#3397fe"/>
        <path id="Trazado_169316" data-name="Trazado 169316" d="M1578.151,1732.417a19.59,19.59,0,0,0-6.989,12.249" transform="translate(-1564.069 -1730.547)" fill="none" stroke="#004b98" stroke-miterlimit="10" stroke-width="1"/>
      </g>
    </g>
  </g>
</svg>
