<svg xmlns="http://www.w3.org/2000/svg" xmlns:xlink="http://www.w3.org/1999/xlink" width="181.074" height="109.315" viewBox="0 0 181.074 109.315">
  <defs>
    <clipPath id="clip-path">
      <rect id="Rect치ngulo_21528" data-name="Rect치ngulo 21528" width="69" height="69" transform="translate(870 3667)" fill="#fff" stroke="#707070" stroke-width="1"/>
    </clipPath>
  </defs>
  <g id="Grupo_79479" data-name="Grupo 79479" transform="translate(-813.57 -3626.685)">
    <rect id="Rect치ngulo_21518" data-name="Rect치ngulo 21518" width="181.074" height="11.898" transform="translate(994.644 3638.583) rotate(180)" fill="#6f7302"/>
    <path id="Trazado_169427" data-name="Trazado 169427" d="M295.3,1699.232l-18.317,23.8h36.633Z" transform="translate(1199.403 5349.712) rotate(180)" fill="#fff"/>
    <g id="Enmascarar_grupo_80" data-name="Enmascarar grupo 80" clip-path="url(#clip-path)">
      <g id="wishlist" transform="translate(870 3667)">
        <path id="Trazado_169443" data-name="Trazado 169443" d="M28.3,42.047a1.348,1.348,0,1,0,1.348,1.348A1.348,1.348,0,0,0,28.3,42.047Zm0,0" fill="#fff"/>
        <path id="Trazado_169444" data-name="Trazado 169444" d="M28.3,50.133a1.348,1.348,0,1,0,1.348,1.348A1.348,1.348,0,0,0,28.3,50.133Zm0,0" fill="#fff"/>
        <path id="Trazado_169445" data-name="Trazado 169445" d="M51.48,42.047H33.691a1.348,1.348,0,0,0,0,2.7H51.48a1.348,1.348,0,0,0,0-2.7Zm0,0" fill="#fff"/>
        <path id="Trazado_169446" data-name="Trazado 169446" d="M51.48,50.133H33.691a1.348,1.348,0,0,0,0,2.7H51.48a1.348,1.348,0,0,0,0-2.7Zm0,0" fill="#fff"/>
        <path id="Trazado_169447" data-name="Trazado 169447" d="M4.043,65.406v2.246a1.348,1.348,0,0,0,2.7,0V65.406l.539-.719a17.628,17.628,0,0,0,3.5-10.512v-38h1.348a1.349,1.349,0,0,1,1.348,1.348v12.4a1.348,1.348,0,1,0,2.7,0V17.52a4.047,4.047,0,0,0-4.043-4.043H10.781v-2.7A5.347,5.347,0,0,0,9.434,7.218V4.043a4.043,4.043,0,0,0-8.086,0V7.219A5.389,5.389,0,0,0,0,10.781V54.176A17.627,17.627,0,0,0,3.5,64.687ZM8.086,52.828H2.7V16.172H8.086ZM2.7,13.477v-2.7a2.7,2.7,0,0,1,5.391,0v2.7ZM5.391,2.7A1.349,1.349,0,0,1,6.738,4.043v1.52a5.353,5.353,0,0,0-2.7,0V4.043A1.349,1.349,0,0,1,5.391,2.7ZM8.023,55.523A14.937,14.937,0,0,1,5.391,62.7a14.937,14.937,0,0,1-2.633-7.175Zm0,0" fill="#fff"/>
        <path id="Trazado_169448" data-name="Trazado 169448" d="M69,21.832V15.094A5.4,5.4,0,0,0,63.609,9.7h-38a6.746,6.746,0,0,0-6.738,6.738V58.219H14.824a1.348,1.348,0,0,0-1.348,1.348A9.444,9.444,0,0,0,22.91,69H54.176a6.876,6.876,0,0,0,6.738-7.027V23.18h6.738A1.348,1.348,0,0,0,69,21.832ZM22.91,66.3a6.75,6.75,0,0,1-6.6-5.391h31.13v1.348A6.706,6.706,0,0,0,48.788,66.3ZM58.219,15.094V61.973A4.168,4.168,0,0,1,54.176,66.3a4.047,4.047,0,0,1-4.043-4.043v-2.7a1.348,1.348,0,0,0-1.348-1.348H21.563V16.441a4.059,4.059,0,0,1,4.043-4.057H58.939a5.437,5.437,0,0,0-.721,2.709ZM66.3,20.484H60.914V15.094a2.7,2.7,0,0,1,5.391,0Zm0,0" fill="#fff"/>
        <path id="Trazado_169449" data-name="Trazado 169449" d="M36.571,34.277c.768.649,1.563,1.319,2.406,2.05a1.348,1.348,0,0,0,1.765,0c.843-.731,1.637-1.4,2.406-2.049,4.29-3.62,7.389-6.236,7.389-10.077a6.156,6.156,0,0,0-6.013-6.412,5.662,5.662,0,0,0-4.665,2.452,5.663,5.663,0,0,0-4.666-2.452A6.155,6.155,0,0,0,29.182,24.2c0,3.841,3.1,6.456,7.389,10.076ZM35.194,20.484c2.461,0,3.333,2.936,3.369,3.061a1.346,1.346,0,0,0,1.291.979h.007a1.352,1.352,0,0,0,1.3-.979c.036-.125.908-3.061,3.367-3.061A3.456,3.456,0,0,1,47.842,24.2c0,2.588-2.421,4.632-6.432,8.017-.5.424-1.017.858-1.55,1.313-.533-.455-1.048-.889-1.55-1.314-4.011-3.385-6.432-5.428-6.432-8.016a3.456,3.456,0,0,1,3.316-3.717Zm0,0" fill="#fff"/>
      </g>
    </g>
  </g>
</svg>
