<svg xmlns="http://www.w3.org/2000/svg" xmlns:xlink="http://www.w3.org/1999/xlink" width="253" height="227.91" viewBox="0 0 253 227.91">
  <defs>
    <clipPath id="clip-path">
      <path id="Trazado_169424" data-name="Trazado 169424" d="M959.711,884.068s.01-.016.008-.019c-.462-.5-3.305-8.378-3.305-8.378h0c.437-2.164.878-4.321,1.262-6.191a36.689,36.689,0,0,0,8.972-6.132c9.91-9.5,17.195-27.6,2.964-37.541a9.652,9.652,0,0,0-4.573-6.16c-3.756-1.993-14.955-3.706-22.729-5.045s-9.382-3.816-12.264-5.353-6.451,2.625-8.51,10.1c-1.318,4.791,2.358,7.428,7.117,9.026a38.583,38.583,0,0,0-5.6,8.155,119.757,119.757,0,0,0-8.038,19.286l4.39,2.651a1.876,1.876,0,0,0-1.236,1.861s-5.824,16.558-1.191,18.818c2.167,1.057,7.153,2.124,12.5,2.313l-2.36,10.935-2.772,1.633,1.918,2.324-.309,1.43-1.138.643c-8.9,5.036-18.979,32.611-25.129,64.241-20.343-1.205-44.428-17.068-44.529-17.153l-8.086,9.465c.086.073,19.509,16.186,42.247,23.645q1.843.6,3.714,1.13,1.818.509,3.654.93c-2.757,19.9-3.687,40.022-1.611,56.135l48.846-1.741C951.837,999.115,982.249,905.126,959.711,884.068Zm-4.247-19.613c.019,0,.044.007.068.011l-.16.027A.142.142,0,0,1,955.464,864.454Zm8.934-13.923c.032.061.064.125.094.191C964.462,850.655,964.428,850.594,964.4,850.531Zm.1.206a4.649,4.649,0,0,1,.371,1.462A5.249,5.249,0,0,0,964.5,850.737Zm.4,1.919c0-.052-.006-.1-.009-.151C964.9,852.557,964.9,852.6,964.9,852.656Z" transform="translate(-847.079 -808.932)" fill="none"/>
    </clipPath>
  </defs>
  <g id="Grupo_75443" data-name="Grupo 75443" transform="translate(-699.901 -800.607)">
    <path id="Trazado_169317" data-name="Trazado 169317" d="M911.612,950.861c-.581-.1-.993,3.365-3.678,8.18-4.865,8.729.2,9.262,4.365,5.243,2.668-2.58,4.93-5.578,4.156-8.971s-4.842-4.453-4.842-4.453Z" transform="translate(-34.617 -32.142)" fill="#101115" fill-rule="evenodd"/>
    <path id="Trazado_169318" data-name="Trazado 169318" d="M927.534,948.228c6.511.929,22.2,28.6,30.377,55.6,0,0-17.047,5.419-17.047,3.486,0-5.643-15.2-42.718-18.447-47.692,0,0,4.491-11.48,5.117-11.393Z" transform="translate(-37.384 -31.7)" fill="#101115" fill-rule="evenodd"/>
    <path id="Trazado_169319" data-name="Trazado 169319" d="M798.831,922.784h14.137l2.761,7.5H801.592Z" transform="translate(-16.621 -27.425)" fill="#101115" fill-rule="evenodd"/>
    <path id="Trazado_169320" data-name="Trazado 169320" d="M913.582,965.465c3.563-1.087,7.274-3.552,7.351-4.221a.419.419,0,0,1,.05-.122c.148-.389.653-1.669,1.3-3.233a11.035,11.035,0,0,1-3.239,3.739c-.829.587-2.366,1.6-2.13,1.053a8.485,8.485,0,0,0,.691-1.839c.11-.488-1.642,1.988-1.647,1.988a22.117,22.117,0,0,1-2.371,2.635Z" transform="translate(-35.9 -33.323)" fill="#101115" fill-rule="evenodd"/>
    <path id="Trazado_169321" data-name="Trazado 169321" d="M785.921,936.5h45.7l-1.108-2.774h-45.7Z" transform="translate(-14.266 -29.263)" fill="#101115" fill-rule="evenodd"/>
    <path id="Trazado_169322" data-name="Trazado 169322" d="M800.876,950.066h32.558a.693.693,0,0,1,.621.494h0a.364.364,0,0,1-.36.487H801.137a.678.678,0,0,1-.614-.487h0a.363.363,0,0,1,.353-.494Z" transform="translate(-16.902 -32.009)" fill="#101115" fill-rule="evenodd"/>
    <path id="Trazado_169323" data-name="Trazado 169323" d="M801.957,953.3h24.715a.625.625,0,0,1,.586.487h0a.387.387,0,0,1-.389.488H802.155a.632.632,0,0,1-.586-.488h0a.386.386,0,0,1,.388-.487Z" transform="translate(-17.079 -32.552)" fill="#101115" fill-rule="evenodd"/>
    <path id="Trazado_169324" data-name="Trazado 169324" d="M803.347,956.591H814.96a.554.554,0,0,1,.537.494h0a.432.432,0,0,1-.438.487h-11.62a.554.554,0,0,1-.537-.487h0a.444.444,0,0,1,.444-.494Z" transform="translate(-17.305 -33.105)" fill="#101115" fill-rule="evenodd"/>
    <path id="Trazado_169325" data-name="Trazado 169325" d="M797.066,940.274h32.551a.685.685,0,0,1,.621.488h0a.364.364,0,0,1-.359.487H797.32a.678.678,0,0,1-.614-.487h0a.364.364,0,0,1,.36-.488Z" transform="translate(-16.261 -30.363)" fill="#101115" fill-rule="evenodd"/>
    <path id="Trazado_169326" data-name="Trazado 169326" d="M798.138,943.5h24.715a.631.631,0,0,1,.586.494h0a.386.386,0,0,1-.388.488H798.337a.631.631,0,0,1-.587-.488h0a.392.392,0,0,1,.389-.494Z" transform="translate(-16.438 -30.905)" fill="#101115" fill-rule="evenodd"/>
    <path id="Trazado_169327" data-name="Trazado 169327" d="M799.53,946.8h11.613a.554.554,0,0,1,.537.487h0a.433.433,0,0,1-.438.487H799.629a.549.549,0,0,1-.537-.487h0a.433.433,0,0,1,.438-.487Z" transform="translate(-16.664 -31.46)" fill="#101115" fill-rule="evenodd"/>
    <path id="Trazado_169331" data-name="Trazado 169331" d="M974.885,923.892c-1.164-.291-8.811-2.032-8.811-2.032l-4.711,9.608Z" transform="translate(-43.928 -27.27)" fill="#101115" fill-rule="evenodd"/>
    <path id="Trazado_169333" data-name="Trazado 169333" d="M793.213,907.594h20.023a.626.626,0,0,1,.592.51h0a.426.426,0,0,1-.428.511H793.373a.621.621,0,0,1-.588-.511h0a.426.426,0,0,1,.428-.51Z" transform="translate(-15.604 -24.873)" fill="#101115" fill-rule="evenodd"/>
    <path id="Trazado_169334" data-name="Trazado 169334" d="M789.229,902.763h10.31a.574.574,0,0,1,.555.511h0a.465.465,0,0,1-.467.511h-10.31a.563.563,0,0,1-.549-.511h0a.458.458,0,0,1,.461-.511Z" transform="translate(-14.93 -24.061)" fill="#101115" fill-rule="evenodd"/>
    <path id="Trazado_169335" data-name="Trazado 169335" d="M816.725,902.763h2.86a.53.53,0,0,1,.522.511h0a.5.5,0,0,1-.494.511h-2.855a.534.534,0,0,1-.527-.511h0a.5.5,0,0,1,.493-.511Z" transform="translate(-19.544 -24.061)" fill="#101115" fill-rule="evenodd"/>
    <path id="Trazado_169336" data-name="Trazado 169336" d="M823.476,902.651h2.86a.523.523,0,0,1,.522.505h0a.493.493,0,0,1-.494.511h-2.855a.535.535,0,0,1-.527-.511h0a.491.491,0,0,1,.494-.505Z" transform="translate(-20.679 -24.043)" fill="#101115" fill-rule="evenodd"/>
    <path id="Trazado_169337" data-name="Trazado 169337" d="M830.226,902.532h2.86a.527.527,0,0,1,.522.511h0a.488.488,0,0,1-.494.505h-2.855a.531.531,0,0,1-.528-.505h0a.5.5,0,0,1,.494-.511Z" transform="translate(-21.813 -24.023)" fill="#101115" fill-rule="evenodd"/>
    <path id="Trazado_169338" data-name="Trazado 169338" d="M794.605,911.032h20.028a.615.615,0,0,1,.588.505h0a.42.42,0,0,1-.424.51H794.77a.63.63,0,0,1-.592-.51h0a.421.421,0,0,1,.428-.505Z" transform="translate(-15.838 -25.451)" fill="#101115" fill-rule="evenodd"/>
    <path id="Trazado_169339" data-name="Trazado 169339" d="M796,914.463h20.028a.619.619,0,0,1,.587.511h0a.422.422,0,0,1-.428.505H796.169a.62.62,0,0,1-.592-.505h0a.426.426,0,0,1,.428-.511Z" transform="translate(-16.073 -26.027)" fill="#101115" fill-rule="evenodd"/>
    <path id="Trazado_169340" data-name="Trazado 169340" d="M797.436,917.9h10.5a.568.568,0,0,1,.555.505h0a.465.465,0,0,1-.467.511h-10.5a.573.573,0,0,1-.554-.511h0a.46.46,0,0,1,.467-.505Z" transform="translate(-16.308 -26.605)" fill="#101115" fill-rule="evenodd"/>
    <path id="Trazado_169341" data-name="Trazado 169341" d="M786.276,883.614a.959.959,0,0,1,.879.7.527.527,0,0,1-.522.7.965.965,0,0,1-.879-.7.526.526,0,0,1,.522-.7Z" transform="translate(-14.42 -20.844)" fill="#101115" fill-rule="evenodd"/>
    <path id="Trazado_169342" data-name="Trazado 169342" d="M961.014,887.131a10.068,10.068,0,0,0,9.918.54c.482-.233.061-.951-.42-.719a9.2,9.2,0,0,1-9.078-.539c-.454-.287-.872.433-.42.718Z" transform="translate(-43.836 -21.303)" fill="#101115"/>
    <path id="Trazado_169343" data-name="Trazado 169343" d="M970.738,856.26a5.878,5.878,0,0,1,5.438,2.161c1.218,1.47,3.3-.636,2.1-2.095a8.563,8.563,0,0,0-7.534-3.029c-1.871.221-1.893,3.187,0,2.964Z" transform="translate(-45.265 -15.741)" fill="#101115"/>
    <g id="Grupo_75439" data-name="Grupo 75439" transform="translate(924.809 842.733)">
      <path id="Trazado_169344" data-name="Trazado 169344" d="M972.64,862.031" transform="translate(-970.631 -859.951)" fill="#101115" fill-rule="evenodd"/>
      <g id="Grupo_75438" data-name="Grupo 75438">
        <path id="Trazado_169345" data-name="Trazado 169345" d="M972.234,863.691c2.677,0,2.681-4.16,0-4.16s-2.682,4.16,0,4.16Z" transform="translate(-970.225 -859.531)" fill="#101115"/>
      </g>
    </g>
    <path id="Trazado_169346" data-name="Trazado 169346" d="M874.55,936.219c-3.974,2.81-17.92,20.823-16.174,21.208s3.2-.044,6.39-3.245,8.087-8.322,8.087-8.322c1.181,4.4.615,7.406,5.957,7.406,4.068,0,10.261-3.875,10.359-4.743.072-.653,6.857-7.34,6.122-10.656-.209-.961-16.569-4.6-20.742-1.647Z" transform="translate(-26.6 -29.492)" fill="#f5b090" fill-rule="evenodd"/>
    <path id="Trazado_169347" data-name="Trazado 169347" d="M884.613,940.175c-.582-.1-.993,3.365-3.678,8.18-4.865,8.729.2,9.262,4.365,5.243,2.668-2.581,4.93-5.578,4.156-8.971s-4.842-4.452-4.842-4.452Z" transform="translate(-30.081 -30.346)" fill="#f5b090" fill-rule="evenodd"/>
    <path id="Trazado_169348" data-name="Trazado 169348" d="M900.535,937.542c6.511.928,22.2,28.6,30.377,55.6,0,0-17.047,5.419-17.047,3.486,0-5.644-15.2-42.718-18.447-47.692,0,0,4.491-11.48,5.117-11.392Z" transform="translate(-32.848 -29.904)" fill="#002842" fill-rule="evenodd"/>
    <path id="Trazado_169349" data-name="Trazado 169349" d="M810.078,966.794h75.73v1.971a1.98,1.98,0,0,1-1.971,1.971H812.049a1.98,1.98,0,0,1-1.971-1.971Z" transform="translate(-18.511 -34.819)" fill="#3e3938" fill-rule="evenodd"/>
    <path id="Trazado_169350" data-name="Trazado 169350" d="M948.11,879.518,940.9,912.947s29.185-13.181,29.136-14.406,4.617-23.574,4.617-23.574Z" transform="translate(-40.489 -19.391)" fill="#f5a37d" fill-rule="evenodd"/>
    <path id="Trazado_169351" data-name="Trazado 169351" d="M973.645,835.761c-3.925-5.968-14.461-7.434-26.215-6.956-3.585.143-7.346,5.04-10.585,11.019a119.7,119.7,0,0,0-8.037,19.286l4.463,2.7s-4.557,17.161-3.063,17.964c26.4,14.269,38.09-12.194,39.045-12.018s6.7.374,9.053-8.674-6.5-7.911-6.5-7.911Z" transform="translate(-38.458 -11.622)" fill="#f5b090" fill-rule="evenodd"/>
    <path id="Trazado_169352" data-name="Trazado 169352" d="M967.558,851.477c1.179.615.776.913,1.522-.187a15.044,15.044,0,0,1,3.724-2.732s9.119-2.108,6.763,6.94c-1.317,5.045-3.683,7.219-5.687,8.119l-.357,1.713c-.214,1.037-.516,2.487-.856,4.145a36.783,36.783,0,0,0,9.031-6.159c9.909-9.5,17.195-27.6,2.964-37.541a9.653,9.653,0,0,0-4.573-6.16c-3.755-1.993-14.955-3.706-22.728-5.045s-9.382-3.815-12.265-5.353-6.45,2.624-8.51,10.1c-2.789,10.14,16.783,10.635,21.675,12.046,9.5,2.744,9.485,9.827,7.838,16.906a2.879,2.879,0,0,0,1.459,3.213Z" transform="translate(-39.719 -8.292)" fill="#3b1710" fill-rule="evenodd"/>
    <path id="Trazado_169353" data-name="Trazado 169353" d="M964.851,895.733l-30.492,17.244c-16.014,9.059-35.839,91.047-29.74,138.394l48.845-1.74c8.362-38.019,41.889-140.919,11.387-153.9Z" transform="translate(-34.204 -22.88)" fill="#002e4d" fill-rule="evenodd"/>
    <path id="Trazado_169354" data-name="Trazado 169354" d="M780.41,966.794h75.73v1.971a1.98,1.98,0,0,1-1.971,1.971H782.381a1.98,1.98,0,0,1-1.971-1.971Z" transform="translate(-13.526 -34.819)" fill="#231915" fill-rule="evenodd"/>
    <path id="Trazado_169355" data-name="Trazado 169355" d="M849.575,976.528c-.383-4.727-2.037-5.539-5.869-6.133l-20.747-3.217s-3.009-.62-3.277,1.4,9.332,2.805,9.459,3.646-25.5-3.086-25.973-.889,36.454,9.926,36.454,9.926Z" transform="translate(-17.349 -34.868)" fill="#f5b090" fill-rule="evenodd"/>
    <path id="Trazado_169356" data-name="Trazado 169356" d="M965.448,921.107c.006.1,4.519,37.569-27.209,68.094-32.934,31.683-90.943-16.432-91.091-16.558l8.087-9.465c.137.116,44.492,29.323,63.657,11.425,15.915-16.536,19.484-34.774,20.088-48.153-1.718-15.789,26.879-14.752,26.467-5.342Z" transform="translate(-24.739 -25.993)" fill="#003c63"/>
    <path id="Trazado_169357" data-name="Trazado 169357" d="M775.789,954.811c-25.43-64.058-29.773-69.432-24.135-71.853l27.9,70.4Z" transform="translate(-8.328 -20.734)" fill="#231915" fill-rule="evenodd"/>
    <path id="Trazado_169358" data-name="Trazado 169358" d="M752.1,882.958l48.845,1.076,25.622,68.675H779.737Z" transform="translate(-8.769 -20.734)" fill="#3e3938" fill-rule="evenodd"/>
    <path id="Trazado_169359" data-name="Trazado 169359" d="M756.47,886l25.671,64.772h41.626l-23.8-63.816Z" transform="translate(-9.504 -21.245)" fill="#73d0eb" fill-rule="evenodd"/>
    <path id="Trazado_169360" data-name="Trazado 169360" d="M771.831,912.1h14.137l2.762,7.505H774.593Z" transform="translate(-12.085 -25.63)" fill="#fefefe" fill-rule="evenodd"/>
    <path id="Trazado_169361" data-name="Trazado 169361" d="M860.885,957.3a4.913,4.913,0,0,1-2.383.654c-.307.659-.374,1.059-.126,1.114,1.74.39,3.2-.044,6.39-3.245s8.087-8.322,8.087-8.322c.84,3.14.8,5.573,2.647,6.708a9.215,9.215,0,0,1,.571-2.168s3.058-5.391,2.767-5.666c-.231-.214-3.173,5.573-3.448,5a65.939,65.939,0,0,1-1.96-6.511s-9.926,11.035-12.545,12.44Z" transform="translate(-26.599 -31.134)" fill="#eea283" fill-rule="evenodd"/>
    <path id="Trazado_169362" data-name="Trazado 169362" d="M886.583,954.779c3.563-1.087,7.274-3.553,7.351-4.222a.413.413,0,0,1,.05-.121c.148-.389.653-1.669,1.3-3.234a11.046,11.046,0,0,1-3.239,3.739c-.829.587-2.366,1.6-2.131,1.054a8.446,8.446,0,0,0,.692-1.839c.11-.488-1.641,1.987-1.647,1.987a22.13,22.13,0,0,1-2.371,2.636Z" transform="translate(-31.364 -31.527)" fill="#eea283" fill-rule="evenodd"/>
    <path id="Trazado_169364" data-name="Trazado 169364" d="M757.814,923.037h45.7l9.671,24.256h-45.7Z" transform="translate(-9.73 -27.468)" fill="#73d0eb" fill-rule="evenodd"/>
    <path id="Trazado_169365" data-name="Trazado 169365" d="M758.922,925.812h45.7l-1.108-2.774h-45.7Z" transform="translate(-9.73 -27.468)" fill="#7386a2" fill-rule="evenodd"/>
    <path id="Trazado_169366" data-name="Trazado 169366" d="M773.877,939.379h32.558a.694.694,0,0,1,.621.494h0a.365.365,0,0,1-.36.487H774.138a.677.677,0,0,1-.614-.487h0a.363.363,0,0,1,.353-.494Z" transform="translate(-12.366 -30.213)" fill="#fefefe" fill-rule="evenodd"/>
    <path id="Trazado_169367" data-name="Trazado 169367" d="M774.958,942.612h24.715a.623.623,0,0,1,.586.487h0a.386.386,0,0,1-.388.487H775.156a.629.629,0,0,1-.586-.487h0a.386.386,0,0,1,.388-.487Z" transform="translate(-12.543 -30.756)" fill="#fefefe" fill-rule="evenodd"/>
    <path id="Trazado_169368" data-name="Trazado 169368" d="M776.348,945.9h11.613a.555.555,0,0,1,.537.494h0a.433.433,0,0,1-.438.487H776.44a.554.554,0,0,1-.537-.487h0a.443.443,0,0,1,.444-.494Z" transform="translate(-12.769 -31.309)" fill="#fefefe" fill-rule="evenodd"/>
    <path id="Trazado_169369" data-name="Trazado 169369" d="M770.066,929.588h32.552a.686.686,0,0,1,.621.487h0a.364.364,0,0,1-.359.487H770.321a.677.677,0,0,1-.614-.487h0a.364.364,0,0,1,.359-.487Z" transform="translate(-11.725 -28.568)" fill="#fefefe" fill-rule="evenodd"/>
    <path id="Trazado_169370" data-name="Trazado 169370" d="M771.139,932.812h24.715a.631.631,0,0,1,.586.494h0a.386.386,0,0,1-.389.487H771.337a.631.631,0,0,1-.587-.487h0a.392.392,0,0,1,.389-.494Z" transform="translate(-11.902 -29.11)" fill="#fefefe" fill-rule="evenodd"/>
    <path id="Trazado_169371" data-name="Trazado 169371" d="M772.531,936.113h11.613a.554.554,0,0,1,.537.487h0a.433.433,0,0,1-.438.487H772.63a.548.548,0,0,1-.537-.487h0a.433.433,0,0,1,.438-.487Z" transform="translate(-12.128 -29.664)" fill="#fefefe" fill-rule="evenodd"/>
    <path id="Trazado_169372" data-name="Trazado 169372" d="M809.913,923.86a1.239,1.239,0,0,1,1.129.9.681.681,0,0,1-.671.9,1.251,1.251,0,0,1-1.136-.9.68.68,0,0,1,.678-.9Z" transform="translate(-18.364 -27.606)" fill="#fff000" fill-rule="evenodd"/>
    <path id="Trazado_169391" data-name="Trazado 169391" d="M947.885,913.2c-1.164-.291-8.812-2.031-8.812-2.031l-4.71,9.607Z" transform="translate(-39.391 -25.475)" fill="#002842" fill-rule="evenodd"/>
    <path id="Trazado_169392" data-name="Trazado 169392" d="M972.088,889.114c-1.565.346-32.062,18.354-32.062,18.354l8.235,9.975s27.593-19.451,27.132-19.95-3.3-8.378-3.3-8.378Z" transform="translate(-40.343 -21.768)" fill="#003c63" fill-rule="evenodd"/>
    <path id="Trazado_169393" data-name="Trazado 169393" d="M799.962,886.955,756.47,886l2.641,6.659h42.976Z" transform="translate(-9.504 -21.245)" fill="#7386a2" fill-rule="evenodd"/>
    <path id="Trazado_169394" data-name="Trazado 169394" d="M766.214,896.907h20.022a.626.626,0,0,1,.593.511h0a.426.426,0,0,1-.428.511H766.373a.621.621,0,0,1-.587-.511h0a.426.426,0,0,1,.429-.511Z" transform="translate(-11.068 -23.078)" fill="#fefefe" fill-rule="evenodd"/>
    <path id="Trazado_169395" data-name="Trazado 169395" d="M762.229,892.077h10.31a.573.573,0,0,1,.555.511h0a.465.465,0,0,1-.467.51h-10.31a.563.563,0,0,1-.549-.51h0a.457.457,0,0,1,.461-.511Z" transform="translate(-10.394 -22.266)" fill="#fefefe" fill-rule="evenodd"/>
    <path id="Trazado_169396" data-name="Trazado 169396" d="M789.726,892.077h2.86a.53.53,0,0,1,.522.511h0a.5.5,0,0,1-.494.51H789.76a.536.536,0,0,1-.528-.51h0a.5.5,0,0,1,.494-.511Z" transform="translate(-15.008 -22.266)" fill="#fefefe" fill-rule="evenodd"/>
    <path id="Trazado_169397" data-name="Trazado 169397" d="M796.477,891.965h2.86a.522.522,0,0,1,.522.505h0a.493.493,0,0,1-.494.511H796.51a.536.536,0,0,1-.527-.511h0a.491.491,0,0,1,.494-.505Z" transform="translate(-16.142 -22.247)" fill="#fefefe" fill-rule="evenodd"/>
    <path id="Trazado_169398" data-name="Trazado 169398" d="M803.227,891.846h2.86a.526.526,0,0,1,.522.511h0a.488.488,0,0,1-.494.505H803.26a.531.531,0,0,1-.528-.505h0a.5.5,0,0,1,.494-.511Z" transform="translate(-17.277 -22.227)" fill="#fefefe" fill-rule="evenodd"/>
    <path id="Trazado_169399" data-name="Trazado 169399" d="M767.606,900.345h20.028a.614.614,0,0,1,.587.505h0a.419.419,0,0,1-.423.511H767.771a.63.63,0,0,1-.592-.511h0a.422.422,0,0,1,.428-.505Z" transform="translate(-11.302 -23.655)" fill="#fefefe" fill-rule="evenodd"/>
    <path id="Trazado_169400" data-name="Trazado 169400" d="M769.005,903.777h20.028a.62.62,0,0,1,.587.51h0a.421.421,0,0,1-.428.505H769.17a.62.62,0,0,1-.592-.505h0a.426.426,0,0,1,.428-.51Z" transform="translate(-11.537 -24.232)" fill="#fefefe" fill-rule="evenodd"/>
    <path id="Trazado_169401" data-name="Trazado 169401" d="M770.437,907.214h10.5a.568.568,0,0,1,.554.505h0a.464.464,0,0,1-.466.511h-10.5a.573.573,0,0,1-.554-.511h0a.46.46,0,0,1,.467-.505Z" transform="translate(-11.772 -24.809)" fill="#fefefe" fill-rule="evenodd"/>
    <path id="Trazado_169402" data-name="Trazado 169402" d="M699.9,851.756h61.2l12.954,32.487h-61.2Z" transform="translate(0 -15.492)" fill="#73d0eb" fill-rule="evenodd"/>
    <path id="Trazado_169403" data-name="Trazado 169403" d="M701.383,855.477h61.2l-1.482-3.72H699.9Z" transform="translate(0 -15.492)" fill="#7386a2" fill-rule="evenodd"/>
    <path id="Trazado_169404" data-name="Trazado 169404" d="M717.351,862.71H743.1a.8.8,0,0,1,.755.65h0a.548.548,0,0,1-.551.656H717.557a.8.8,0,0,1-.755-.656h0a.545.545,0,0,1,.55-.65Z" transform="translate(-2.838 -17.332)" fill="#fefefe" fill-rule="evenodd"/>
    <path id="Trazado_169405" data-name="Trazado 169405" d="M719.171,867.123h18.171a.763.763,0,0,1,.735.656h0a.573.573,0,0,1-.579.649H719.326a.757.757,0,0,1-.734-.649h0a.578.578,0,0,1,.579-.656Z" transform="translate(-3.14 -18.074)" fill="#fefefe" fill-rule="evenodd"/>
    <path id="Trazado_169406" data-name="Trazado 169406" d="M722.892,877.975h25.746a.8.8,0,0,1,.762.656h0a.542.542,0,0,1-.551.65H723.1a.792.792,0,0,1-.755-.65h0a.548.548,0,0,1,.551-.656Z" transform="translate(-3.769 -19.897)" fill="#fefefe" fill-rule="evenodd"/>
    <path id="Trazado_169407" data-name="Trazado 169407" d="M724.719,882.387h15.559a.742.742,0,0,1,.72.657h0a.586.586,0,0,1-.586.656H724.853a.743.743,0,0,1-.72-.656h0a.582.582,0,0,1,.586-.657Z" transform="translate(-4.071 -20.638)" fill="#fefefe" fill-rule="evenodd"/>
    <path id="Trazado_169408" data-name="Trazado 169408" d="M752.567,861.888h18.178l3.551,9.65H756.118Z" transform="translate(-8.848 -17.194)" fill="#fefefe" fill-rule="evenodd"/>
    <path id="Trazado_169409" data-name="Trazado 169409" d="M759.277,872.928a.958.958,0,0,1,.878.7.527.527,0,0,1-.521.7.965.965,0,0,1-.878-.7.525.525,0,0,1,.522-.7Z" transform="translate(-9.884 -19.049)" fill="#fff000" fill-rule="evenodd"/>
    <path id="Trazado_169410" data-name="Trazado 169410" d="M815.321,849.38h61.2l12.954,32.488h-61.2Z" transform="translate(-19.391 -15.093)" fill="#73d0eb" fill-rule="evenodd"/>
    <path id="Trazado_169411" data-name="Trazado 169411" d="M816.8,853.1H878l-1.482-3.72h-61.2Z" transform="translate(-19.391 -15.093)" fill="#7386a2" fill-rule="evenodd"/>
    <path id="Trazado_169412" data-name="Trazado 169412" d="M836.839,871.28h43.606a.9.9,0,0,1,.826.65h0a.49.49,0,0,1-.48.656H837.185a.911.911,0,0,1-.826-.656h0a.482.482,0,0,1,.48-.65Z" transform="translate(-22.922 -18.772)" fill="#fefefe" fill-rule="evenodd"/>
    <path id="Trazado_169413" data-name="Trazado 169413" d="M838.284,875.6h33.1a.855.855,0,0,1,.79.657h0a.518.518,0,0,1-.522.65H838.545a.834.834,0,0,1-.784-.65h0a.523.523,0,0,1,.522-.657Z" transform="translate(-23.16 -19.498)" fill="#fefefe" fill-rule="evenodd"/>
    <path id="Trazado_169414" data-name="Trazado 169414" d="M840.14,880.02H855.7a.737.737,0,0,1,.72.649h0a.587.587,0,0,1-.586.657H840.274a.743.743,0,0,1-.72-.657h0a.577.577,0,0,1,.586-.649Z" transform="translate(-23.462 -20.24)" fill="#fefefe" fill-rule="evenodd"/>
    <path id="Trazado_169415" data-name="Trazado 169415" d="M845.986,856.822h18.178l3.551,9.65H849.537Z" transform="translate(-24.543 -16.343)" fill="#fefefe" fill-rule="evenodd"/>
    <path id="Trazado_169416" data-name="Trazado 169416" d="M886.512,850.6a1.25,1.25,0,0,1,1.129.9.679.679,0,0,1-.671.9,1.242,1.242,0,0,1-1.136-.9.682.682,0,0,1,.678-.9Z" transform="translate(-31.233 -15.298)" fill="#fff000" fill-rule="evenodd"/>
    <path id="Trazado_169417" data-name="Trazado 169417" d="M932,868.212a1.885,1.885,0,0,1,1.639-1.972c.772-.128,10.713.644,12.819,3.731s5.838,7.267,10.342,3.7,8.8-19.289,8.134-17.489c-.115.31,3.447,1.7,3.318,2.082s-2.287,6.237-1.544,11.066-.9,9.651-7.335,15.956-23.933,4.005-28.566,1.746S932,868.212,932,868.212Z" transform="translate(-38.493 -16.211)" fill="#3b1710" fill-rule="evenodd"/>
    <path id="Trazado_169418" data-name="Trazado 169418" d="M934.015,876.444a10.072,10.072,0,0,0,9.918.54c.482-.233.061-.951-.42-.719a9.205,9.205,0,0,1-9.079-.54c-.453-.287-.871.433-.419.719Z" transform="translate(-39.3 -19.508)" fill="#f2f2f3"/>
    <path id="Trazado_169419" data-name="Trazado 169419" d="M943.738,845.573a5.882,5.882,0,0,1,5.439,2.161c1.217,1.47,3.3-.636,2.1-2.1a8.569,8.569,0,0,0-7.535-3.029c-1.871.221-1.893,3.188,0,2.964Z" transform="translate(-40.729 -13.946)" fill="#3b1710"/>
    <g id="Grupo_75440" data-name="Grupo 75440" transform="translate(902.345 833.842)">
      <path id="Trazado_169420" data-name="Trazado 169420" d="M945.235,853.005c2.677,0,2.681-4.16,0-4.16s-2.681,4.16,0,4.16Z" transform="translate(-943.226 -848.845)" fill="#101115"/>
    </g>
    <path id="Trazado_169421" data-name="Trazado 169421" d="M978.011,859.895a2.948,2.948,0,0,1,1.461-1.089,5.491,5.491,0,0,1,2.533-.287,2.328,2.328,0,0,1,1.827,1.007,2.655,2.655,0,0,1,.24,1.241,11.952,11.952,0,0,1-1.388,6.168c-.7,1.183-2.076,3.156-3.676,3.033-1.948-.15-2.847-1.949-1.5-3.247.55-.53,1.275-1.191,1.1-2.033-.185-.915-1.018-1.449-1.119-2.44A3.449,3.449,0,0,1,978.011,859.895Z" transform="translate(-46.532 -16.621)" fill="#c77a55" fill-rule="evenodd"/>
    <path id="Trazado_169422" data-name="Trazado 169422" d="M945.656,972.745c-11.995,14.043-22.82,24.867-50.454,19.309s-43.873-21.125-43.873-21.125h0l-4.181,4.893c.148.126,58.156,48.242,91.091,16.558a88.168,88.168,0,0,0,27.334-59.2C964.629,936.135,956.884,959.6,945.656,972.745Z" transform="translate(-24.739 -29.173)" fill="#003354"/>
    <g id="Grupo_75442" data-name="Grupo 75442" transform="translate(822.352 800.635)">
      <g id="Grupo_75441" data-name="Grupo 75441" transform="translate(0)" clip-path="url(#clip-path)">
        <path id="Trazado_169423" data-name="Trazado 169423" d="M924.3,826.782l22.785,5.743,5.023,13.059L948.335,858.9l-5.553,6.157.532,10.221v16.541l6.715,9.981-14.8,39.024-28.071,21.145,16.3-60.451s-11.079-61.775-10.87-62.611,11.5-10.51,11.5-10.51Z" transform="translate(-857.172 -811.931)" fill="#fff" opacity="0.46" style="mix-blend-mode: overlay;isolation: isolate"/>
      </g>
    </g>
  </g>
</svg>
