<svg xmlns="http://www.w3.org/2000/svg" xmlns:xlink="http://www.w3.org/1999/xlink" width="85" height="85" viewBox="0 0 85 85">
  <defs>
    <clipPath id="clip-path">
      <rect id="Rectángulo_21418" data-name="Rectángulo 21418" width="85" height="85" transform="translate(343 2720)" fill="#fff" stroke="#707070" stroke-width="1"/>
    </clipPath>
  </defs>
  <g id="Enmascarar_grupo_67" data-name="Enmascarar grupo 67" transform="translate(-343 -2720)" clip-path="url(#clip-path)">
    <g id="rating_1_" data-name="rating (1)" transform="translate(343 2720)">
      <path id="Trazado_168663" data-name="Trazado 168663" d="M67.665,30.966a1.638,1.638,0,0,0,1.477-.016c1.323-.69,5.643-3.209,5.693-6.676a4.169,4.169,0,0,0-6.44-3.5,4.129,4.129,0,0,0-2.262-.672A4.292,4.292,0,0,0,61.95,24.23c-.073,3.6,4.356,6.065,5.715,6.735Zm-1.544-8.379h.012a1.662,1.662,0,0,1,1.144.459h0a1.635,1.635,0,0,0,2.231,0,1.681,1.681,0,0,1,2.837,1.191c-.024,1.641-2.348,3.379-3.968,4.294-1.637-.881-3.971-2.578-3.937-4.251a1.767,1.767,0,0,1,1.681-1.694Z" fill="#2971af"/>
      <path id="Trazado_168664" data-name="Trazado 168664" d="M15.846,30.966a1.638,1.638,0,0,0,1.477-.016c1.323-.69,5.643-3.209,5.693-6.676a4.169,4.169,0,0,0-6.44-3.5,4.131,4.131,0,0,0-2.292-.672A4.23,4.23,0,0,0,10.13,24.23c-.072,3.6,4.356,6.065,5.715,6.735ZM14.3,22.587h.012a1.662,1.662,0,0,1,1.144.459h0a1.635,1.635,0,0,0,2.231,0,1.681,1.681,0,0,1,2.837,1.191c-.024,1.641-2.348,3.379-3.968,4.294-1.636-.881-3.971-2.578-3.937-4.251A1.767,1.767,0,0,1,14.3,22.587Z" fill="#2971af"/>
      <path id="Trazado_168665" data-name="Trazado 168665" d="M7.973,34.808h4.006a.533.533,0,0,1,.378.156l2.712,2.706a2.142,2.142,0,0,0,3.006.01l2.764-2.72a.532.532,0,0,1,.376-.154h3.958a4.455,4.455,0,0,0,4.451-4.451V25.689a5.672,5.672,0,0,0,1.933.338h5.368a1.427,1.427,0,0,1,1.07.484l2.714,3.083a2.493,2.493,0,0,0,1.86.845h.01a2.493,2.493,0,0,0,1.857-.83l2.78-3.107a1.427,1.427,0,0,1,1.063-.475h5.309a5.676,5.676,0,0,0,1.755-.278v4.608a4.455,4.455,0,0,0,4.451,4.451H63.8a.533.533,0,0,1,.378.156l2.712,2.706a2.142,2.142,0,0,0,3.006.01l2.764-2.72a.533.533,0,0,1,.376-.154h3.958a4.455,4.455,0,0,0,4.45-4.451V18.8a4.455,4.455,0,0,0-4.45-4.451H59.284V5.7a5.7,5.7,0,0,0-5.7-5.7H43.443a1.245,1.245,0,0,0,0,2.49H53.587A3.21,3.21,0,0,1,56.793,5.7V20.33a3.21,3.21,0,0,1-3.207,3.207H48.278a3.921,3.921,0,0,0-2.919,1.3l-2.782,3.107-2.714-3.083a3.918,3.918,0,0,0-2.94-1.328H31.556a3.21,3.21,0,0,1-3.207-3.207V5.7A3.21,3.21,0,0,1,31.556,2.49h6.077a1.245,1.245,0,0,0,0-2.49H31.556a5.7,5.7,0,0,0-5.7,5.7v8.657H7.973A4.455,4.455,0,0,0,3.522,18.8V30.358a4.455,4.455,0,0,0,4.451,4.45Zm69.02-17.965a1.962,1.962,0,0,1,1.96,1.96V30.358a1.962,1.962,0,0,1-1.96,1.96H73.034a3.008,3.008,0,0,0-2.122.869L68.4,35.66,65.936,33.2a3.006,3.006,0,0,0-2.137-.884H59.792a1.963,1.963,0,0,1-1.96-1.96V24.124a5.674,5.674,0,0,0,1.452-3.794V16.844H76.992ZM6.012,18.8a1.963,1.963,0,0,1,1.96-1.96H25.859V20.33a5.67,5.67,0,0,0,1.274,3.585v6.442a1.963,1.963,0,0,1-1.96,1.96H21.214a3.008,3.008,0,0,0-2.122.869L16.578,35.66,14.116,33.2a3.006,3.006,0,0,0-2.137-.884H7.972a1.963,1.963,0,0,1-1.96-1.96V18.8Z" fill="#2971af"/>
      <path id="Trazado_168666" data-name="Trazado 168666" d="M33.353,11.743c-.1,5.128,6.4,8.739,8.4,9.723a1.846,1.846,0,0,0,1.665-.018c1.947-1.015,8.3-4.711,8.376-9.662a5.733,5.733,0,0,0-9.216-4.554,5.7,5.7,0,0,0-3.51-1.18,5.82,5.82,0,0,0-5.711,5.69Zm5.729-3.2h.023a3.212,3.212,0,0,1,2.21.885h0a1.842,1.842,0,0,0,2.514,0A3.245,3.245,0,0,1,49.3,11.75c-.04,2.756-3.593,5.632-6.745,7.334-3.2-1.639-6.77-4.468-6.713-7.291A3.354,3.354,0,0,1,39.082,8.543Z" fill="#2971af"/>
      <path id="Trazado_168667" data-name="Trazado 168667" d="M81.992,75.419V57.283A13.542,13.542,0,0,0,62.277,45.234a1.245,1.245,0,0,0,1.138,2.215,10.924,10.924,0,0,1,5.04-1.214A11.06,11.06,0,0,1,79.5,57.283v15.94c-.034-.015-.066-.032-.1-.046h0l-6.271-2.584V68.158A14.732,14.732,0,0,0,77.369,58.4c0-4.546-2.024-8.118-5.414-9.555a1.247,1.247,0,0,0-.965,0,1.3,1.3,0,0,0-.738.883,8.982,8.982,0,0,1-6.88,6.847l-2.85.61a1.444,1.444,0,0,0-.981,1.467,14.767,14.767,0,0,0,4.238,9.526v2.419l-4.954,2.041a6.2,6.2,0,0,0-1.418-1.28V57.282A10.977,10.977,0,0,1,59.4,50.948a1.245,1.245,0,1,0-2.039-1.43,13.454,13.454,0,0,0-2.446,7.764V70.2L48.1,67.393v-4.73c3.119-2.527,4.968-7.073,5.312-11.545,1.632-1.171,2.586-3.541,3.113-5.437a4.619,4.619,0,0,0-.606-3.8,4.564,4.564,0,0,0-1.875-1.609A4.775,4.775,0,0,0,54.1,39a4.729,4.729,0,0,0-6.74-3.844,5.481,5.481,0,0,0-7.5-2.27,4.733,4.733,0,0,0-7.423,2.255A6.226,6.226,0,0,0,28.7,45.066a15.726,15.726,0,0,0,.212,3.225,5.924,5.924,0,0,0,2.907,4.081,20.4,20.4,0,0,0,.475,2.412,1.312,1.312,0,0,0,1.52.889,1.245,1.245,0,0,0,.889-1.52,17.925,17.925,0,0,1-.477-2.587c-.055-.481.125-.693,1.217-1.226a5.031,5.031,0,0,0,2.268-1.733,7.284,7.284,0,0,0,6.6-3.222,5.569,5.569,0,0,0,3.465.914,5.775,5.775,0,0,0,2.221,2.45c.742.511.97.67.975,1.61-.258,5.819-3.477,11.828-8.43,11.828a7.023,7.023,0,0,1-5.635-3.2,1.245,1.245,0,1,0-2.015,1.463,11.618,11.618,0,0,0,2.085,2.224v4.717l-8.251,3.4a6.224,6.224,0,0,0-2.49,1.864l-5.009-2.064V66.764a14.5,14.5,0,0,0,4.042-6.333,1.244,1.244,0,0,0,.872-.56c1.294-2.022,3.781-8.154-.205-12.19A6.177,6.177,0,0,0,20.34,46.11a3.939,3.939,0,0,0-.261-.479c-1.682-2.627-6.028-3-9.895-.838A1.245,1.245,0,1,0,11.4,46.966c2.9-1.617,5.746-1.3,6.584.006a2.716,2.716,0,0,1,.061,2.286A6.685,6.685,0,0,1,13.967,53.2,14.62,14.62,0,0,0,8.339,56.88a11.339,11.339,0,0,1-.095-6.121A1.245,1.245,0,0,0,5.86,50.04a13.645,13.645,0,0,0,1.1,9.934,1.245,1.245,0,0,0,.9.564,14.54,14.54,0,0,0,4.008,6.215v3.839c-.114.05-6.22,2.557-6.341,2.616a5.38,5.38,0,0,0-3.273,4.961v3.924A2.91,2.91,0,0,0,5.163,85H79.837a2.91,2.91,0,0,0,2.907-2.907V78.169a5.39,5.39,0,0,0-.752-2.75ZM49.77,44.539a1.245,1.245,0,0,0-1.583-.849,2.824,2.824,0,0,1-3.211-1.1,1.245,1.245,0,0,0-2.214.31,4.722,4.722,0,0,1-4.5,3.256,8.476,8.476,0,0,1-1.095-.144,1.245,1.245,0,0,0-1.449.955c-.107.487-.477.708-1.359,1.129a5.072,5.072,0,0,0-2.086,1.524,3.406,3.406,0,0,1-.923-1.784,13.909,13.909,0,0,1-.151-3.1,1.245,1.245,0,0,0-.328-.943,3.733,3.733,0,0,1,2.628-6.268,1.245,1.245,0,0,0,1.2-1.129,2.237,2.237,0,0,1,4.013-1.14,1.245,1.245,0,0,0,1.812.183,2.987,2.987,0,0,1,4.935,1.907,1.245,1.245,0,0,0,2.2.655,2.221,2.221,0,0,1,1.931-.8,2.241,2.241,0,0,1,1.761,3.309,1.245,1.245,0,0,0,.961,1.838,2.09,2.09,0,0,1,1.533.916,2.131,2.131,0,0,1,.278,1.755,11.75,11.75,0,0,1-1.263,3.06,4.83,4.83,0,0,0-1.46-1.376,3.328,3.328,0,0,1-1.635-2.16ZM63.893,59.007a11.483,11.483,0,0,0,8.316-7.148c1.693,1.322,2.67,3.663,2.67,6.54,0,4.468-3.888,9.637-6.425,9.637-2.351,0-5.862-4.4-6.365-8.643ZM40.326,82.51a24.465,24.465,0,0,0-4.636-11.9l2.233-.92a6.953,6.953,0,0,0,4.613,1.752h0a6.955,6.955,0,0,0,4.615-1.752l2.2.906A24.478,24.478,0,0,0,44.676,82.51Zm11.41-10.926,3.67,1.512a3.728,3.728,0,0,1,2.316,3.458V82.51H47.186A21.953,21.953,0,0,1,51.736,71.583Zm-9.2-6.906a8.552,8.552,0,0,0,3.077-.563V67.73a4.467,4.467,0,0,1-3.076,1.226h0a4.467,4.467,0,0,1-3.075-1.225V64.118a8.608,8.608,0,0,0,3.074.56ZM24.863,82.51H22.692l2.171-2.521Zm.015-6.354L19.4,82.51H13.739L8.031,74.868l4.8-1.978a5.779,5.779,0,0,0,3.713,1.351h0a5.778,5.778,0,0,0,3.714-1.351l4.834,1.992a6.238,6.238,0,0,0-.215,1.274Zm-.72-26.725c2.167,2.195,1.485,5.523.63,7.609a21.077,21.077,0,0,0-3.41-2.758,6,6,0,0,1-2.05-2.138A8.122,8.122,0,0,0,20.4,50.057a6.471,6.471,0,0,0,.318-1.477,3.777,3.777,0,0,1,3.438.851Zm-14.2,9.362a12.094,12.094,0,0,1,4.861-3.257,9.8,9.8,0,0,0,2.736-1.526,8.678,8.678,0,0,0,2.481,2.369,18.687,18.687,0,0,1,3.073,2.5c-.96,4.088-4.308,7.491-6.565,7.491s-5.653-3.461-6.587-7.583Zm6.587,10.073a5.6,5.6,0,0,0,2.187-.48v2.534a3.29,3.29,0,0,1-2.185.83h0a3.29,3.29,0,0,1-2.185-.831V68.383a5.575,5.575,0,0,0,2.184.484ZM4.746,82.093V78.169a2.9,2.9,0,0,1,1-2.2L10.63,82.51H5.163A.417.417,0,0,1,4.746,82.093Zm22.607-5.539A3.728,3.728,0,0,1,29.669,73.1l3.639-1.5A21.946,21.946,0,0,1,37.817,82.51H27.354V76.554ZM60.212,82.51V76.554a6.257,6.257,0,0,0-.238-1.7l3.815-1.572c.048,3.137.339,6.434,2.084,9.228Zm6.057-11.086V69.987a4.682,4.682,0,0,0,4.371,0s0,1.316,0,1.445c0,3.737,0,7.593-2.185,10.434-2.185-2.837-2.186-6.7-2.186-10.437a.014.014,0,0,0,0,0ZM80.254,82.093a.417.417,0,0,1-.417.417h-8.8c1.746-2.8,2.037-6.092,2.085-9.228l5.332,2.2h0a2.9,2.9,0,0,1,1.8,2.69Z" fill="#2971af"/>
    </g>
  </g>
</svg>
