<svg xmlns="http://www.w3.org/2000/svg" xmlns:xlink="http://www.w3.org/1999/xlink" width="85" height="85" viewBox="0 0 85 85">
  <defs>
    <clipPath id="clip-path">
      <rect id="Rectángulo_21102" data-name="Rectángulo 21102" width="85" height="85" transform="translate(285 3094)" fill="#585c03" stroke="#707070" stroke-width="1"/>
    </clipPath>
  </defs>
  <g id="Enmascarar_grupo_53" data-name="Enmascarar grupo 53" transform="translate(-285 -3094)" clip-path="url(#clip-path)">
    <g id="demand" transform="translate(285 3094)">
      <g id="Grupo_72673" data-name="Grupo 72673">
        <g id="Grupo_72672" data-name="Grupo 72672">
          <path id="Trazado_166051" data-name="Trazado 166051" d="M13.351,67.468a7.083,7.083,0,1,0-10.012-.311q.151.16.311.311A6.958,6.958,0,0,0,0,73.563v10.02A1.417,1.417,0,0,0,1.417,85H15.583A1.417,1.417,0,0,0,17,83.583V73.563A6.958,6.958,0,0,0,13.351,67.468ZM8.5,58.083a4.25,4.25,0,1,1-4.25,4.25A4.25,4.25,0,0,1,8.5,58.083Zm5.667,24.083H2.833v-8.6A4.151,4.151,0,0,1,6.98,69.417H10.02a4.151,4.151,0,0,1,4.147,4.147Z" fill="#585c03"/>
        </g>
      </g>
      <g id="Grupo_72675" data-name="Grupo 72675">
        <g id="Grupo_72674" data-name="Grupo 72674">
          <path id="Trazado_166052" data-name="Trazado 166052" d="M36.017,67.468A7.083,7.083,0,1,0,26,67.157q.151.16.311.311a6.957,6.957,0,0,0-3.649,6.1v10.02A1.417,1.417,0,0,0,24.083,85H38.25a1.417,1.417,0,0,0,1.417-1.417V73.563A6.958,6.958,0,0,0,36.017,67.468Zm-4.851-9.385a4.25,4.25,0,1,1-4.25,4.25A4.25,4.25,0,0,1,31.167,58.083Zm5.667,24.083H25.5v-8.6a4.151,4.151,0,0,1,4.147-4.147h3.039a4.151,4.151,0,0,1,4.147,4.147Z" fill="#585c03"/>
        </g>
      </g>
      <g id="Grupo_72677" data-name="Grupo 72677">
        <g id="Grupo_72676" data-name="Grupo 72676">
          <path id="Trazado_166053" data-name="Trazado 166053" d="M58.684,67.468a7.083,7.083,0,1,0-10.012-.311q.151.16.311.311a6.958,6.958,0,0,0-3.649,6.1v10.02A1.417,1.417,0,0,0,46.75,85H60.917a1.417,1.417,0,0,0,1.417-1.417V73.563A6.958,6.958,0,0,0,58.684,67.468Zm-4.851-9.385a4.25,4.25,0,1,1-4.25,4.25A4.25,4.25,0,0,1,53.833,58.083ZM59.5,82.166H48.167v-8.6a4.151,4.151,0,0,1,4.147-4.147h3.039A4.151,4.151,0,0,1,59.5,73.563Z" fill="#585c03"/>
        </g>
      </g>
      <g id="Grupo_72679" data-name="Grupo 72679">
        <g id="Grupo_72678" data-name="Grupo 72678">
          <path id="Trazado_166054" data-name="Trazado 166054" d="M81.351,67.468a7.083,7.083,0,1,0-10.012-.311q.151.16.311.311A6.958,6.958,0,0,0,68,73.563v10.02A1.417,1.417,0,0,0,69.417,85H83.583A1.417,1.417,0,0,0,85,83.583V73.563A6.958,6.958,0,0,0,81.351,67.468ZM76.5,58.083a4.25,4.25,0,1,1-4.25,4.25A4.25,4.25,0,0,1,76.5,58.083Zm5.667,24.083H70.833v-8.6a4.151,4.151,0,0,1,4.147-4.147H78.02a4.151,4.151,0,0,1,4.147,4.147Z" fill="#585c03"/>
        </g>
      </g>
      <g id="Grupo_72681" data-name="Grupo 72681">
        <g id="Grupo_72680" data-name="Grupo 72680">
          <path id="Trazado_166055" data-name="Trazado 166055" d="M83.583,0H1.417A1.417,1.417,0,0,0,0,1.417V46.75a1.417,1.417,0,0,0,1.417,1.417H15.979l2.51,7.532a1.417,1.417,0,0,0,2.688,0l2.511-7.532H38.646l2.51,7.532a1.417,1.417,0,0,0,2.688,0l2.51-7.532H61.312l2.51,7.532a1.417,1.417,0,0,0,2.688,0l2.51-7.532H83.583A1.417,1.417,0,0,0,85,46.75V1.417A1.417,1.417,0,0,0,83.583,0ZM82.166,45.333H68a1.417,1.417,0,0,0-1.344.968L65.167,50.77,63.677,46.3a1.417,1.417,0,0,0-1.344-.968h-17a1.417,1.417,0,0,0-1.344.968L42.5,50.77,41.011,46.3a1.417,1.417,0,0,0-1.344-.968h-17a1.417,1.417,0,0,0-1.344.968L19.833,50.77,18.344,46.3A1.417,1.417,0,0,0,17,45.333H2.833V2.833H82.166Z" fill="#585c03"/>
        </g>
      </g>
      <g id="Grupo_72683" data-name="Grupo 72683">
        <g id="Grupo_72682" data-name="Grupo 72682">
          <path id="Trazado_166056" data-name="Trazado 166056" d="M24.717,29.9a1.417,1.417,0,0,0-.633-.149h-.457l-.9-2.247h0a7.695,7.695,0,0,0-14.288,0l-.9,2.247H7.083A1.417,1.417,0,0,0,5.816,31.8l2.833,5.667a1.416,1.416,0,0,0,1.267.783H21.25a1.416,1.416,0,0,0,1.267-.783L25.35,31.8A1.417,1.417,0,0,0,24.717,29.9ZM11.071,28.555a4.861,4.861,0,0,1,9.026,0l.478,1.2H10.592Zm9.3,6.861H10.792L9.376,32.583H21.791Z" fill="#585c03"/>
        </g>
      </g>
      <g id="Grupo_72685" data-name="Grupo 72685">
        <g id="Grupo_72684" data-name="Grupo 72684">
          <path id="Trazado_166057" data-name="Trazado 166057" d="M10.5,14.165l1.831-1.829-2-2L8.5,12.16a2.834,2.834,0,0,0,0,4.008h0L9.331,17,7.5,18.832l2,2L11.335,19a2.837,2.837,0,0,0,0-4.006Z" fill="#585c03"/>
        </g>
      </g>
      <g id="Grupo_72687" data-name="Grupo 72687">
        <g id="Grupo_72686" data-name="Grupo 72686">
          <path id="Trazado_166058" data-name="Trazado 166058" d="M16.17,14.165,18,12.336l-2-2L14.168,12.16a2.834,2.834,0,0,0,0,4.008h0L15,17l-1.832,1.833,2,2L17,19A2.837,2.837,0,0,0,17,15Z" fill="#585c03"/>
        </g>
      </g>
      <g id="Grupo_72689" data-name="Grupo 72689">
        <g id="Grupo_72688" data-name="Grupo 72688">
          <path id="Trazado_166059" data-name="Trazado 166059" d="M21.837,14.165l1.831-1.829-2-2L19.835,12.16a2.834,2.834,0,0,0,0,4.008h0l.831.831-1.832,1.833,2,2L22.668,19a2.837,2.837,0,0,0,0-4.006Z" fill="#585c03"/>
        </g>
      </g>
      <g id="Grupo_72691" data-name="Grupo 72691">
        <g id="Grupo_72690" data-name="Grupo 72690">
          <path id="Trazado_166060" data-name="Trazado 166060" d="M53.383,21.631l-3.8-3.546V11.333a1.417,1.417,0,0,0-1.417-1.417h-4.25A1.417,1.417,0,0,0,42.5,11.333v.706L40.633,10.3a1.416,1.416,0,0,0-1.908-.024L25.975,21.607a1.417,1.417,0,0,0,.941,2.476H29.75v12.75a1.417,1.417,0,0,0,1.417,1.417h17a1.417,1.417,0,0,0,1.417-1.417V24.083h2.833a1.417,1.417,0,0,0,.966-2.452Zm-5.216-.381a1.417,1.417,0,0,0-1.417,1.417v12.75H32.583V22.667a1.417,1.417,0,0,0-1.417-1.417h-.524l9-8,3.307,3.086A1.417,1.417,0,0,0,45.333,15.3V12.75H46.75V18.7a1.416,1.416,0,0,0,.45,1.036l1.622,1.514h-.656Z" fill="#585c03"/>
        </g>
      </g>
      <g id="Grupo_72693" data-name="Grupo 72693">
        <g id="Grupo_72692" data-name="Grupo 72692">
          <path id="Trazado_166061" data-name="Trazado 166061" d="M68,12.75A11.333,11.333,0,1,0,79.333,24.083,11.333,11.333,0,0,0,68,12.75Zm0,15.583a1.417,1.417,0,0,1-1.417-1.417H63.75a4.243,4.243,0,0,0,2.833,3.989v1.55a8.489,8.489,0,0,1,0-16.744v1.55A4.243,4.243,0,0,0,63.75,21.25c0,2.99,2.4,3.737,3.827,4.183,1.6.5,1.84.693,1.84,1.484A1.417,1.417,0,0,1,68,28.333Zm1.417,4.122v-1.55a4.243,4.243,0,0,0,2.833-3.989c0-2.994-2.4-3.742-3.83-4.188-1.6-.5-1.837-.691-1.837-1.478a1.417,1.417,0,0,1,2.833,0H72.25a4.243,4.243,0,0,0-2.833-3.989v-1.55a8.489,8.489,0,0,1,0,16.744Z" fill="#585c03"/>
        </g>
      </g>
    </g>
  </g>
</svg>
