<?xml version="1.0" encoding="utf-8"?>
<!-- Generator: Adobe Illustrator 25.4.1, SVG Export Plug-In . SVG Version: 6.00 Build 0)  -->
<svg version="1.1" id="Capa_1" xmlns="http://www.w3.org/2000/svg" xmlns:xlink="http://www.w3.org/1999/xlink" x="0px" y="0px"
	 viewBox="0 0 85 85" style="enable-background:new 0 0 85 85;" xml:space="preserve">
<style type="text/css">
	.st0{fill:#A0A603;}
</style>
<g>
	<g>
		<path class="st0" d="M82.5,42.5v17.3v3.3v17.3H65.2h-33c0,0,0,0-0.1,0H14.9V63.1v-3.3V42.5h17.3h33H82.5 M22.5,48.4
			c-0.1,0.9-0.8,1.6-1.7,1.7c-0.1,0-0.1,0-0.2,0c-0.2-0.1-0.5-0.1-0.7-0.1c-0.7,0-1.3,0.3-1.8,0.7l-2.2,2.2
			c-0.5,0.5-0.7,1.1-0.7,1.8v13.9c0,0.7,0.3,1.3,0.7,1.8l2.2,2.2c0.5,0.5,1.1,0.7,1.8,0.7c0.2,0,0.5,0,0.7-0.1c0.1,0,0.1,0,0.2,0
			c0.9,0.1,1.6,0.8,1.7,1.7c0,0.1,0,0.1,0,0.2c-0.3,0.9,0,1.9,0.6,2.5l2.1,2.1c0.5,0.5,1.1,0.7,1.8,0.7h43.5c0.7,0,1.3-0.3,1.8-0.7
			l2.2-2.2c0.7-0.7,0.9-1.6,0.6-2.5c0-0.1,0-0.1,0-0.2c0.1-0.9,0.8-1.6,1.7-1.7c0.1,0,0.1,0,0.2,0c0.2,0.1,0.5,0.1,0.7,0.1
			c0.7,0,1.3-0.3,1.8-0.7l2.2-2.2c0.5-0.5,0.7-1.1,0.7-1.8V54.5c0-0.7-0.3-1.3-0.7-1.8l-2.2-2.2c-0.5-0.5-1.1-0.7-1.8-0.7
			c-0.2,0-0.5,0-0.7,0.1c-0.1,0-0.1,0-0.2,0C75.7,50,75,49.3,75,48.4c0-0.1,0-0.1,0-0.2c0.3-0.9,0-1.9-0.6-2.5l-2.1-2.1
			c-0.5-0.5-1.1-0.7-1.8-0.7H26.9c-0.7,0-1.3,0.3-1.8,0.7L23,45.7c-0.7,0.7-0.9,1.6-0.6,2.5C22.4,48.2,22.4,48.3,22.5,48.4 M85,40
			H65.2h-33H12.4v19.8v3.3v19.8v0h19.8l0,0h33H85V63.1v-3.3V40L85,40z M20.7,52.5c2.4,0,4.3-1.9,4.3-4.3c0,0,0,0,0,0
			c0-0.3-0.1-0.5-0.2-0.8l2.2-2.2h43.5l2.1,2.1c-0.1,0.3-0.1,0.5-0.2,0.8c0,2.4,1.9,4.3,4.3,4.3c0,0,0,0,0,0c0.3,0,0.5-0.1,0.8-0.2
			l2.2,2.2v13.9l-2.2,2.2c-0.3-0.1-0.5-0.1-0.8-0.2c-2.4,0-4.3,1.9-4.3,4.3c0,0,0,0,0,0c0,0.3,0.1,0.5,0.2,0.8l-2.2,2.2H26.9
			l-2.1-2.1c0.1-0.3,0.1-0.5,0.2-0.8c0-2.4-1.9-4.3-4.3-4.3c0,0,0,0,0,0c-0.3,0-0.5,0.1-0.8,0.2l-2.2-2.2V54.5l2.2-2.2
			C20.1,52.4,20.4,52.5,20.7,52.5L20.7,52.5z"/>
	</g>
	<g>
		<path class="st0" d="M70.2,59.7c1,0,1.8,0.8,1.8,1.8c0,1-0.8,1.8-1.8,1.8s-1.8-0.8-1.8-1.8C68.4,60.5,69.2,59.7,70.2,59.7
			 M70.2,57.2c-2.4,0-4.3,1.9-4.3,4.3c0,2.4,1.9,4.3,4.3,4.3c2.4,0,4.3-1.9,4.3-4.3C74.4,59.1,72.5,57.2,70.2,57.2L70.2,57.2z"/>
	</g>
	<g>
		<path class="st0" d="M48.7,52.7c5.8,0,10.4,3.9,10.4,8.8s-4.7,8.8-10.4,8.8c-5.8,0-10.4-3.9-10.4-8.8S43,52.7,48.7,52.7
			 M48.7,50.2c-7.2,0-12.9,5-12.9,11.3c0,6.2,5.8,11.3,12.9,11.3s12.9-5,12.9-11.3C61.7,55.2,55.9,50.2,48.7,50.2L48.7,50.2z"/>
	</g>
	<g>
		<path class="st0" d="M27.3,59.7c1,0,1.8,0.8,1.8,1.8s-0.8,1.8-1.8,1.8c-1,0-1.8-0.8-1.8-1.8S26.3,59.7,27.3,59.7 M27.3,57.2
			c-2.4,0-4.3,1.9-4.3,4.3s1.9,4.3,4.3,4.3c2.4,0,4.3-1.9,4.3-4.3S29.6,57.2,27.3,57.2L27.3,57.2z"/>
	</g>
	<g>
		<path class="st0" d="M60.9,26.3c1,0,1.8,0.8,1.8,1.8c0,1-0.8,1.8-1.8,1.8s-1.8-0.8-1.8-1.8C59.2,27.1,59.9,26.3,60.9,26.3
			 M60.9,23.8c-2.4,0-4.3,1.9-4.3,4.3s1.9,4.3,4.3,4.3s4.3-1.9,4.3-4.3S63.3,23.8,60.9,23.8L60.9,23.8z"/>
	</g>
	<g>
		<path class="st0" d="M62.7,5.5L71,20.7l6.5,11.9h-3.1l0.7-2.3c0.2-0.6,0.1-1.3-0.2-1.9l-6.7-12.1c-0.3-0.6-0.9-1-1.5-1.2l-2.9-0.9
			c-0.2-0.1-0.5-0.1-0.7-0.1c-0.7,0-1.3,0.3-1.8,0.8c0,0-0.1,0.1-0.1,0.1c-0.2,0.1-0.5,0.2-0.7,0.2c-0.6,0-1.2-0.3-1.5-0.8
			c0-0.1,0-0.1-0.1-0.2c-0.2-0.9-0.9-1.6-1.7-1.9l-2.9-0.9c-0.2-0.1-0.5-0.1-0.7-0.1c-0.4,0-0.8,0.1-1.2,0.3L14.1,32.4
			c-0.1,0-0.1,0.1-0.2,0.1h-0.6l5.3-2.9l28.9-15.8L62.7,5.5 M5.8,36.7C5.3,37.7,5,38.8,5,40v0.9L3.4,38L5.8,36.7 M63.6,2.1
			l-17.4,9.5L17.4,27.5L0,37l7.5,13.7V40c0-2.7,2.2-4.9,4.9-4.9h2.7l0.1-0.4l38.2-20.9l2.9,0.9c0.1,0.3,0.1,0.5,0.3,0.8
			c0.8,1.4,2.2,2.2,3.8,2.2c0.7,0,1.4-0.2,2-0.5c0,0,0,0,0,0c0.2-0.2,0.4-0.3,0.6-0.5l2.9,0.9l6.7,12.1l-0.9,2.9
			c-0.3,0.1-0.5,0.1-0.8,0.2c-0.9,0.5-1.6,1.4-1.9,2.4h12.6l-8.5-15.6L63.6,2.1L63.6,2.1z"/>
	</g>
	<g>
		<path class="st0" d="M43.6,29.2c3.1,0,5.7,1.3,7.2,3.4H35.4c0.8-0.7,1.6-1.4,2.6-1.9C39.7,29.7,41.7,29.2,43.6,29.2 M43.6,26.7
			c-2.3,0-4.7,0.6-6.9,1.8c-2.7,1.5-4.8,3.8-6.1,6.6h23.9c-0.2-1-0.5-2-1-2.9C51.5,28.6,47.7,26.7,43.6,26.7L43.6,26.7z"/>
	</g>
</g>
</svg>
