<svg xmlns="http://www.w3.org/2000/svg" xmlns:xlink="http://www.w3.org/1999/xlink" width="85" height="85" viewBox="0 0 85 85">
  <defs>
    <clipPath id="clip-path">
      <rect id="Rectángulo_21421" data-name="Rectángulo 21421" width="85" height="85" transform="translate(343 3197)" fill="#fff" stroke="#707070" stroke-width="1"/>
    </clipPath>
  </defs>
  <g id="Enmascarar_grupo_69" data-name="Enmascarar grupo 69" transform="translate(-343 -3197)" clip-path="url(#clip-path)">
    <g id="client" transform="translate(343 3197)">
      <path id="Trazado_168682" data-name="Trazado 168682" d="M5.218,85H62.136a3.409,3.409,0,0,0,3.4-3.4V80.121h5.245v1.594A3.288,3.288,0,0,0,74.07,85h2.67a3.288,3.288,0,0,0,3.285-3.285V80.107a3.493,3.493,0,0,0,3.162-3.429V69.421a3.412,3.412,0,0,0-.818-2.2,3.412,3.412,0,0,0,.818-2.2V57.768a3.411,3.411,0,0,0-.818-2.2,3.411,3.411,0,0,0,.818-2.2V46.115a3.49,3.49,0,0,0-3.444-3.444H67.2a1.245,1.245,0,1,0,0,2.49H79.743a.978.978,0,0,1,.953.953v7.256a.978.978,0,0,1-.953.953H47.994a.978.978,0,0,1-.953-.953V46.115a.978.978,0,0,1,.953-.953h13.4a1.245,1.245,0,0,0,0-2.49h-13.4a3.5,3.5,0,0,0-3.417,3.04l-3.029-1.173,0-3.3a13.066,13.066,0,0,0,5.2-8.957c3.057-.378,5.647-2.811,5.647-5.8A6.446,6.446,0,0,0,49.738,21.3a3.481,3.481,0,0,0,.251-1.3V17.566a1.245,1.245,0,1,0-2.49,0v2.441a1,1,0,0,1-.376.784,1.436,1.436,0,0,1-1.284.16,3.2,3.2,0,0,1-2.44-3.243,1.468,1.468,0,0,0-2.74-.446,7.094,7.094,0,0,1-6.265,3.759H20.139a2.277,2.277,0,0,1-2.269-2.269V9.591a7.109,7.109,0,0,1,7.1-7.1h12.56c2.917,0,3.41,1.288,3.691,2.723a3.462,3.462,0,0,0,3.7,2.737,2.5,2.5,0,0,1,2.577,2.5v1.308a1.245,1.245,0,1,0,2.49,0V10.448a4.986,4.986,0,0,0-5.258-4.98.963.963,0,0,1-1.065-.732C43.043,1.549,41.036,0,37.531,0H24.971A9.6,9.6,0,0,0,15.38,9.591v9.16a4.742,4.742,0,0,0,1.343,3.309,6.388,6.388,0,0,0-1.905,4.418c0,2.984,2.584,5.421,5.646,5.8a12.94,12.94,0,0,0,3.6,7.557,12.8,12.8,0,0,0,1.74,1.488v3.206c-.063.034-16.642,6.457-16.709,6.483l-.024.009a12.273,12.273,0,0,0-7.253,11.2V81.6a3.409,3.409,0,0,0,3.4,3.4ZM46.839,23.493a3.652,3.652,0,0,0,1.18-.338A3.9,3.9,0,0,1,49.9,26.478a3.657,3.657,0,0,1-3.063,3.259ZM20.371,29.737a3.655,3.655,0,0,1-3.063-3.259,3.981,3.981,0,0,1,1.708-3.1,5.185,5.185,0,0,0,1.355.135Zm34.09,51.978a.8.8,0,0,1-.794.794H51a.8.8,0,0,1-.794-.794V80.121h4.258Zm8.589-.12a.916.916,0,0,1-.915.915H56.85a3.266,3.266,0,0,0,.1-.794V80.121h6.1Zm14.483.12a.8.8,0,0,1-.794.794H74.07a.8.8,0,0,1-.794-.794V80.121h4.258ZM47.04,57.768a.978.978,0,0,1,.953-.953H79.743a.978.978,0,0,1,.953.953v7.256a.978.978,0,0,1-.953.953H47.994a.978.978,0,0,1-.953-.953V57.768Zm0,11.653a.978.978,0,0,1,.953-.953H79.743a.978.978,0,0,1,.953.953v7.256a.978.978,0,0,1-.953.953H47.994a.978.978,0,0,1-.953-.953Zm-5.332-22.15,2.842,1.1v.6l-4.7,5.119-2.39-2.2ZM35.3,50.577H32.085c-.1-.122.424.456-4.229-4.612a2.3,2.3,0,0,0,.433-1.4V42.717A14.189,14.189,0,0,0,33.776,43.8a13.1,13.1,0,0,0,5.281-1.117v1.89a2.44,2.44,0,0,0,.449,1.409c-4.647,5.06-4.1,4.467-4.21,4.591Zm.016,2.714v7.59H32.069V53.29a2.673,2.673,0,0,0,.169-.223h2.908a2.725,2.725,0,0,0,.169.224ZM22.861,30.741v-7.23H34.394a9.579,9.579,0,0,0,7.092-3.134,5.588,5.588,0,0,0,2.83,2.689l.034.015v7.66a10.745,10.745,0,0,1-21.488,0Zm2.8,16.517,4.261,4.64-2.39,2.195-5.12-5.575,3.249-1.26ZM4.3,62.226a9.875,9.875,0,0,1,5.7-8.9l9.918-3.845,6.051,6.59a2.086,2.086,0,0,0,2.949.126l.659-.6v5.329a2.449,2.449,0,0,0,2.446,2.446h3.333A2.449,2.449,0,0,0,37.8,60.924V55.6l.658.6a2.087,2.087,0,0,0,2.949-.126l3.139-3.418v.715a3.46,3.46,0,0,0,.817,2.2,3.489,3.489,0,0,0-.817,2.2v7.256h0a3.469,3.469,0,0,0,.817,2.2,3.484,3.484,0,0,0-.817,2.2v7.256a3.492,3.492,0,0,0,3.162,3.429v1.609a3.265,3.265,0,0,0,.1.794H13.347V63.722a1.245,1.245,0,0,0-2.49,0V82.51H5.218A.916.916,0,0,1,4.3,81.6V62.226Z" fill="#a0a603"/>
      <path id="Trazado_168683" data-name="Trazado 168683" d="M51.178,74.295H61.8a1.245,1.245,0,0,0,0-2.49H51.178a1.245,1.245,0,0,0,0,2.49Z" fill="#a0a603"/>
      <path id="Trazado_168684" data-name="Trazado 168684" d="M51.178,62.641H61.8a1.245,1.245,0,0,0,0-2.49H51.178a1.245,1.245,0,1,0,0,2.49Z" fill="#a0a603"/>
      <path id="Trazado_168685" data-name="Trazado 168685" d="M74.294,62.641h2.248a1.245,1.245,0,1,0,0-2.49H74.294a1.245,1.245,0,1,0,0,2.49Z" fill="#a0a603"/>
      <path id="Trazado_168686" data-name="Trazado 168686" d="M51.178,48.5a1.245,1.245,0,1,0,0,2.49H61.8a1.245,1.245,0,0,0,0-2.49Z" fill="#a0a603"/>
      <path id="Trazado_168687" data-name="Trazado 168687" d="M76.542,50.988a1.245,1.245,0,1,0,0-2.49H74.294a1.245,1.245,0,1,0,0,2.49Z" fill="#a0a603"/>
      <path id="Trazado_168688" data-name="Trazado 168688" d="M74.294,74.295h2.248a1.245,1.245,0,0,0,0-2.49H74.294a1.245,1.245,0,0,0,0,2.49Z" fill="#a0a603"/>
      <path id="Trazado_168689" data-name="Trazado 168689" d="M67.666,62.641h2.248a1.245,1.245,0,0,0,0-2.49H67.666a1.245,1.245,0,0,0,0,2.49Z" fill="#a0a603"/>
      <path id="Trazado_168690" data-name="Trazado 168690" d="M69.914,50.988a1.245,1.245,0,1,0,0-2.49H67.666a1.245,1.245,0,1,0,0,2.49Z" fill="#a0a603"/>
      <path id="Trazado_168691" data-name="Trazado 168691" d="M67.666,74.295h2.248a1.245,1.245,0,0,0,0-2.49H67.666a1.245,1.245,0,0,0,0,2.49Z" fill="#a0a603"/>
    </g>
  </g>
</svg>
