<svg xmlns="http://www.w3.org/2000/svg" width="525" height="231.689" viewBox="0 0 525 231.689">
  <g id="Grupo_69983" data-name="Grupo 69983" transform="translate(-28.727 -66.598)">
    <g id="Grupo_69954" data-name="Grupo 69954" transform="translate(434.408 118.742)">
      <path id="Trazado_161773" data-name="Trazado 161773" d="M408.938,102.806v3.921a3.114,3.114,0,1,1-3.112.089v-4.011h-9.613v3.949a3.12,3.12,0,1,1-3.112.033v-3.982h-9.729v3.916a3.115,3.115,0,1,1-3.112.1v-4.016h-9.77v3.859a3.111,3.111,0,1,1-3.112.216v-4.076h-9.5v3.952a3.117,3.117,0,1,1-3.112.03v-3.982H345v3.9a3.11,3.11,0,1,1-3.113.141v-4.037h-9.572v3.944a3.118,3.118,0,1,1-3.113.043v-3.988h-9.689v3.932a3.114,3.114,0,1,1-3.115.069v-4h-5.969V219.7c0,15.874,4.542,26.967,15.975,26.967H429.748c-15.01,0-15.978-10.467-15.978-22.921V102.806Z" transform="translate(-310.429 -102.806)" fill="#bbd9ea"/>
      <rect id="Rectángulo_20522" data-name="Rectángulo 20522" width="78.579" height="4.185" transform="translate(13.216 47.385)" fill="#6c8e9f"/>
      <rect id="Rectángulo_20523" data-name="Rectángulo 20523" width="78.579" height="4.186" transform="translate(13.216 54.07)" fill="#6c8e9f"/>
      <rect id="Rectángulo_20524" data-name="Rectángulo 20524" width="41.869" height="4.186" transform="translate(13.216 60.753)" fill="#6c8e9f"/>
      <rect id="Rectángulo_20525" data-name="Rectángulo 20525" width="78.579" height="4.187" transform="translate(13.216 112.092)" fill="#6c8e9f"/>
      <rect id="Rectángulo_20526" data-name="Rectángulo 20526" width="78.579" height="4.186" transform="translate(13.216 118.777)" fill="#6c8e9f"/>
      <rect id="Rectángulo_20527" data-name="Rectángulo 20527" width="50.559" height="4.841" transform="translate(41.237 14.709)" fill="#6c8e9f"/>
      <rect id="Rectángulo_20528" data-name="Rectángulo 20528" width="50.559" height="4.84" transform="translate(41.237 22.441)" fill="#6c8e9f"/>
      <rect id="Rectángulo_20529" data-name="Rectángulo 20529" width="30.521" height="4.84" transform="translate(41.237 30.17)" fill="#6c8e9f"/>
      <rect id="Rectángulo_20530" data-name="Rectángulo 20530" width="78.579" height="9.54" transform="translate(13.216 71.957)" fill="#353e44"/>
      <g id="Grupo_69951" data-name="Grupo 69951" transform="translate(13.216 71.956)">
        <path id="Trazado_161774" data-name="Trazado 161774" d="M397.838,153.12v34.547H319.954V153.12h77.884m.347-.349H319.606v35.244h78.579V152.772Z" transform="translate(-319.606 -152.772)" fill="#353e44"/>
      </g>
      <g id="Grupo_69952" data-name="Grupo 69952" transform="translate(15.264 27.116)">
        <path id="Trazado_161775" data-name="Trazado 161775" d="M327.655,123.392v5.971A1.553,1.553,0,0,1,327,130.6a2.329,2.329,0,0,1-1.492.524h-3.952c-.353,0-.53-.144-.53-.435v-8.613q0-.436.53-.436H325.5a2.32,2.32,0,0,1,1.5.531A1.557,1.557,0,0,1,327.655,123.392Zm-2.131,5.976v-5.982h-2.357v5.982Z" transform="translate(-321.028 -121.635)" fill="#353e44"/>
        <path id="Trazado_161776" data-name="Trazado 161776" d="M331.4,130.768l-.426-1.761h-2.234l-.426,1.761a.465.465,0,0,1-.521.351H326.7a.551.551,0,0,1-.412-.157.356.356,0,0,1-.11-.363l2.1-8.613c.053-.235.225-.351.516-.351h2.129a.466.466,0,0,1,.521.351l2.094,8.613a.374.374,0,0,1-.109.363.557.557,0,0,1-.4.157h-1.1C331.629,131.12,331.455,131,331.4,130.768Zm-.853-3.512-.691-2.837-.688,2.837Z" transform="translate(-318.766 -121.635)" fill="#353e44"/>
        <path id="Trazado_161777" data-name="Trazado 161777" d="M335.077,127.624v3.06c0,.291-.179.435-.53.435h-1.1c-.353,0-.529-.144-.529-.435v-3.073l-2.314-5.4a.345.345,0,0,1,.068-.4.562.562,0,0,1,.432-.183h1.073a.488.488,0,0,1,.5.3L334,125.168l1.306-3.236a.482.482,0,0,1,.5-.3h1.138a.533.533,0,0,1,.426.189.351.351,0,0,1,.065.392Z" transform="translate(-316.83 -121.635)" fill="#353e44"/>
      </g>
      <g id="Grupo_69953" data-name="Grupo 69953" transform="translate(13.811 14.832)">
        <path id="Trazado_161778" data-name="Trazado 161778" d="M326.2,114.958h-1.678v7.726c0,.307-.186.459-.56.459h-1.142q-.56,0-.56-.459v-7.726h-1.681q-.559,0-.559-.454v-.939c0-.308.186-.461.559-.461H326.2c.374,0,.562.153.562.461v.939Q326.76,114.958,326.2,114.958Z" transform="translate(-320.019 -113.105)" fill="#353e44"/>
        <path id="Trazado_161779" data-name="Trazado 161779" d="M329.542,122.774l-.451-1.866h-2.363l-.452,1.866a.493.493,0,0,1-.553.37h-1.158a.579.579,0,0,1-.435-.166.368.368,0,0,1-.115-.385l2.222-9.119a.484.484,0,0,1,.544-.37h2.255a.5.5,0,0,1,.553.37l2.215,9.119a.392.392,0,0,1-.117.385.588.588,0,0,1-.428.166h-1.166C329.782,123.144,329.6,123.022,329.542,122.774Zm-.9-3.72-.732-3-.729,3Z" transform="translate(-318.267 -113.105)" fill="#353e44"/>
        <path id="Trazado_161780" data-name="Trazado 161780" d="M336.949,123.144h-1.243a.532.532,0,0,1-.514-.281l-1.306-2.512-1.3,2.512a.524.524,0,0,1-.514.281h-1.244a.533.533,0,0,1-.459-.2.356.356,0,0,1-.055-.435l2.349-4.523-2.2-4.238a.368.368,0,0,1,.039-.436.559.559,0,0,1,.465-.2h1.244a.541.541,0,0,1,.514.281l1.165,2.238,1.167-2.238a.512.512,0,0,1,.513-.281h1.247a.58.58,0,0,1,.465.2.4.4,0,0,1,.046.436l-2.208,4.238,2.347,4.523a.414.414,0,0,1-.046.435A.587.587,0,0,1,336.949,123.144Z" transform="translate(-315.513 -113.105)" fill="#353e44"/>
      </g>
      <line id="Línea_879" data-name="Línea 879" x2="78.579" transform="translate(13.216 85.606)" fill="none" stroke="#353e44" stroke-miterlimit="10" stroke-width="0.241"/>
      <line id="Línea_880" data-name="Línea 880" x2="78.579" transform="translate(13.216 89.86)" fill="none" stroke="#353e44" stroke-miterlimit="10" stroke-width="0.241"/>
      <line id="Línea_881" data-name="Línea 881" x2="78.579" transform="translate(13.216 94.117)" fill="none" stroke="#353e44" stroke-miterlimit="10" stroke-width="0.241"/>
      <line id="Línea_882" data-name="Línea 882" x2="78.579" transform="translate(13.216 98.37)" fill="none" stroke="#353e44" stroke-miterlimit="10" stroke-width="0.241"/>
      <line id="Línea_883" data-name="Línea 883" x2="78.579" transform="translate(13.216 102.626)" fill="none" stroke="#353e44" stroke-miterlimit="10" stroke-width="0.241"/>
      <line id="Línea_884" data-name="Línea 884" y1="35.243" transform="translate(20.929 71.957)" fill="none" stroke="#353e44" stroke-miterlimit="10" stroke-width="0.241"/>
      <line id="Línea_885" data-name="Línea 885" y1="35.243" transform="translate(67.647 71.957)" fill="none" stroke="#353e44" stroke-miterlimit="10" stroke-width="0.241"/>
      <line id="Línea_886" data-name="Línea 886" y1="35.243" transform="translate(79.977 71.957)" fill="none" stroke="#353e44" stroke-miterlimit="10" stroke-width="0.241"/>
    </g>
    <g id="Grupo_69955" data-name="Grupo 69955" transform="translate(159.553 66.598)">
      <path id="Rectángulo_20531" data-name="Rectángulo 20531" d="M4.849,0H270.977a4.848,4.848,0,0,1,4.848,4.848v160.2a4.849,4.849,0,0,1-4.849,4.849H4.85A4.85,4.85,0,0,1,0,165.044V4.849A4.849,4.849,0,0,1,4.849,0Z" fill="#a9b9c1"/>
      <path id="Trazado_161782" data-name="Trazado 161782" d="M183.082,207.733V204.05c0-1.47,2.751-5.323,3.8-5.323H273.3c1.048,0,3.8,3.852,3.8,5.323v3.684Z" transform="translate(-91.62 -8.447)" fill="#a9b9c1"/>
      <path id="Trazado_161783" data-name="Trazado 161783" d="M184.827,207.347v-3.165c0-1.26,2.6-4.575,3.6-4.575h81.8c.992,0,3.6,3.315,3.6,4.575v3.165Z" transform="translate(-90.852 -8.06)" fill="#cde0ea"/>
      <path id="Trazado_161784" data-name="Trazado 161784" d="M391.283,226.744a6.792,6.792,0,0,1-6.823,6.757H128.582a6.789,6.789,0,0,1-6.822-6.757V76.181a6.789,6.789,0,0,1,6.822-6.757H384.46a6.792,6.792,0,0,1,6.823,6.757Z" transform="translate(-118.608 -65.354)" fill="#cde0ea"/>
      <rect id="Rectángulo_20532" data-name="Rectángulo 20532" width="252.111" height="151.124" transform="translate(11.856 12.013)" fill="#1d8d9c"/>
      <path id="Trazado_161785" data-name="Trazado 161785" d="M379.915,226.063H127.8V74.939l7.814,148.42Z" transform="translate(-115.948 -62.926)" fill="#14565d"/>
      <path id="Trazado_161786" data-name="Trazado 161786" d="M239.024,184.571H206.4s11.813,10.438,0,20.386h32.629C226.086,194.573,239.024,184.571,239.024,184.571Z" transform="translate(-82.422 -14.677)" fill="#88959b"/>
    </g>
    <g id="Grupo_69956" data-name="Grupo 69956" transform="translate(197.322 95.393)">
      <rect id="Rectángulo_20533" data-name="Rectángulo 20533" width="206.456" height="114.628" fill="#fff" stroke="#353e44" stroke-miterlimit="10" stroke-width="0.989"/>
      <rect id="Rectángulo_20534" data-name="Rectángulo 20534" width="11.383" height="4.988" transform="translate(13.933 11.109)" fill="#bababa"/>
      <rect id="Rectángulo_20535" data-name="Rectángulo 20535" width="11.383" height="4.988" transform="translate(108.921 11.109)" fill="#bababa"/>
      <rect id="Rectángulo_20536" data-name="Rectángulo 20536" width="11.384" height="4.99" transform="translate(45.689 98.821)" fill="#bababa"/>
      <rect id="Rectángulo_20537" data-name="Rectángulo 20537" width="5.692" height="2.494" transform="translate(108.921 91.392)" fill="#bababa"/>
      <rect id="Rectángulo_20538" data-name="Rectángulo 20538" width="5.692" height="2.494" transform="translate(118.753 97.574)" fill="#bababa"/>
      <rect id="Rectángulo_20539" data-name="Rectángulo 20539" width="5.691" height="2.494" transform="translate(126.67 97.574)" fill="#bababa"/>
      <rect id="Rectángulo_20540" data-name="Rectángulo 20540" width="5.691" height="2.494" transform="translate(134.585 97.574)" fill="#bababa"/>
      <rect id="Rectángulo_20541" data-name="Rectángulo 20541" width="5.693" height="2.494" transform="translate(142.5 97.574)" fill="#bababa"/>
      <rect id="Rectángulo_20542" data-name="Rectángulo 20542" width="5.692" height="2.494" transform="translate(150.417 97.574)" fill="#bababa"/>
      <rect id="Rectángulo_20543" data-name="Rectángulo 20543" width="5.691" height="2.494" transform="translate(158.334 97.574)" fill="#bababa"/>
      <rect id="Rectángulo_20544" data-name="Rectángulo 20544" width="5.691" height="2.494" transform="translate(166.249 97.574)" fill="#bababa"/>
      <rect id="Rectángulo_20545" data-name="Rectángulo 20545" width="5.691" height="2.494" transform="translate(174.166 97.574)" fill="#bababa"/>
      <rect id="Rectángulo_20546" data-name="Rectángulo 20546" width="5.691" height="2.494" transform="translate(182.081 97.574)" fill="#bababa"/>
      <rect id="Rectángulo_20547" data-name="Rectángulo 20547" width="5.691" height="2.494" transform="translate(189.997 97.574)" fill="#bababa"/>
      <rect id="Rectángulo_20548" data-name="Rectángulo 20548" width="5.692" height="2.494" transform="translate(108.921 83.792)" fill="#bababa"/>
      <rect id="Rectángulo_20549" data-name="Rectángulo 20549" width="5.692" height="2.493" transform="translate(108.921 76.192)" fill="#bababa"/>
      <rect id="Rectángulo_20550" data-name="Rectángulo 20550" width="5.692" height="2.495" transform="translate(108.921 68.593)" fill="#bababa"/>
      <rect id="Rectángulo_20551" data-name="Rectángulo 20551" width="5.692" height="2.494" transform="translate(108.921 60.993)" fill="#bababa"/>
      <rect id="Rectángulo_20552" data-name="Rectángulo 20552" width="5.692" height="2.495" transform="translate(108.921 53.393)" fill="#bababa"/>
      <rect id="Rectángulo_20553" data-name="Rectángulo 20553" width="5.692" height="2.495" transform="translate(108.921 45.793)" fill="#bababa"/>
      <rect id="Rectángulo_20554" data-name="Rectángulo 20554" width="5.692" height="2.496" transform="translate(108.921 38.194)" fill="#bababa"/>
      <rect id="Rectángulo_20555" data-name="Rectángulo 20555" width="5.692" height="2.496" transform="translate(108.921 30.594)" fill="#bababa"/>
      <rect id="Rectángulo_20556" data-name="Rectángulo 20556" width="4.987" height="68.43" transform="translate(76.867 25.931)" fill="#003b62"/>
      <rect id="Rectángulo_20557" data-name="Rectángulo 20557" width="4.988" height="55.097" transform="translate(69.861 39.264)" fill="#003b62"/>
      <rect id="Rectángulo_20558" data-name="Rectángulo 20558" width="4.987" height="41.324" transform="translate(63.092 53.038)" fill="#003b62"/>
      <rect id="Rectángulo_20559" data-name="Rectángulo 20559" width="4.987" height="23.928" transform="translate(56.087 70.434)" fill="#003b62"/>
      <rect id="Rectángulo_20560" data-name="Rectángulo 20560" width="4.987" height="68.43" transform="translate(48.888 25.931)" fill="#003b62"/>
      <rect id="Rectángulo_20561" data-name="Rectángulo 20561" width="4.988" height="55.097" transform="translate(41.881 39.264)" fill="#003b62"/>
      <rect id="Rectángulo_20562" data-name="Rectángulo 20562" width="4.986" height="47.854" transform="translate(35.113 46.508)" fill="#003b62"/>
      <rect id="Rectángulo_20563" data-name="Rectángulo 20563" width="4.988" height="33.272" transform="translate(28.107 61.089)" fill="#003b62"/>
      <rect id="Rectángulo_20564" data-name="Rectángulo 20564" width="4.988" height="37.048" transform="translate(21.338 57.313)" fill="#003b62"/>
      <line id="Línea_887" data-name="Línea 887" x2="65.871" transform="translate(19.624 94.362)" fill="#fff" stroke="#353e44" stroke-miterlimit="10" stroke-width="0.989"/>
      <rect id="Rectángulo_20565" data-name="Rectángulo 20565" width="77.896" height="68.43" transform="translate(117.003 25.931)" fill="#fff" stroke="#353e44" stroke-miterlimit="10" stroke-width="0.66"/>
      <line id="Línea_888" data-name="Línea 888" y1="68.43" transform="translate(124.445 25.931)" fill="none" stroke="#353e44" stroke-miterlimit="10" stroke-width="0.66"/>
      <line id="Línea_889" data-name="Línea 889" y1="68.43" transform="translate(132.36 25.931)" fill="none" stroke="#353e44" stroke-miterlimit="10" stroke-width="0.66"/>
      <line id="Línea_890" data-name="Línea 890" y1="68.43" transform="translate(140.276 25.931)" fill="none" stroke="#353e44" stroke-miterlimit="10" stroke-width="0.66"/>
      <line id="Línea_891" data-name="Línea 891" y1="68.43" transform="translate(148.193 25.931)" fill="none" stroke="#353e44" stroke-miterlimit="10" stroke-width="0.66"/>
      <line id="Línea_892" data-name="Línea 892" y1="68.43" transform="translate(156.109 25.931)" fill="none" stroke="#353e44" stroke-miterlimit="10" stroke-width="0.66"/>
      <line id="Línea_893" data-name="Línea 893" y1="68.43" transform="translate(164.024 25.931)" fill="none" stroke="#353e44" stroke-miterlimit="10" stroke-width="0.66"/>
      <line id="Línea_894" data-name="Línea 894" y1="68.43" transform="translate(171.941 25.931)" fill="none" stroke="#353e44" stroke-miterlimit="10" stroke-width="0.66"/>
      <line id="Línea_895" data-name="Línea 895" y1="68.43" transform="translate(179.857 25.931)" fill="none" stroke="#353e44" stroke-miterlimit="10" stroke-width="0.66"/>
      <line id="Línea_896" data-name="Línea 896" y1="68.43" transform="translate(187.772 25.931)" fill="none" stroke="#353e44" stroke-miterlimit="10" stroke-width="0.66"/>
      <line id="Línea_897" data-name="Línea 897" x2="77.896" transform="translate(117.003 32.283)" fill="#fff" stroke="#353e44" stroke-miterlimit="10" stroke-width="0.66"/>
      <line id="Línea_898" data-name="Línea 898" x2="77.896" transform="translate(117.003 40.198)" fill="#fff" stroke="#353e44" stroke-miterlimit="10" stroke-width="0.66"/>
      <line id="Línea_899" data-name="Línea 899" x2="77.896" transform="translate(117.003 48.114)" fill="#fff" stroke="#353e44" stroke-miterlimit="10" stroke-width="0.66"/>
      <line id="Línea_900" data-name="Línea 900" x2="77.896" transform="translate(117.003 56.03)" fill="#fff" stroke="#353e44" stroke-miterlimit="10" stroke-width="0.66"/>
      <line id="Línea_901" data-name="Línea 901" x2="77.896" transform="translate(117.003 63.946)" fill="#fff" stroke="#353e44" stroke-miterlimit="10" stroke-width="0.66"/>
      <line id="Línea_902" data-name="Línea 902" x2="77.896" transform="translate(117.003 71.861)" fill="#fff" stroke="#353e44" stroke-miterlimit="10" stroke-width="0.66"/>
      <line id="Línea_903" data-name="Línea 903" x2="77.896" transform="translate(117.003 79.778)" fill="#fff" stroke="#353e44" stroke-miterlimit="10" stroke-width="0.66"/>
      <line id="Línea_904" data-name="Línea 904" x2="77.896" transform="translate(117.003 87.693)" fill="#fff" stroke="#353e44" stroke-miterlimit="10" stroke-width="0.66"/>
      <path id="Trazado_161787" data-name="Trazado 161787" d="M241.894,137.473a3.207,3.207,0,1,1-3.206-3.206A3.207,3.207,0,0,1,241.894,137.473Z" transform="translate(-106.328 -65.612)" fill="#006194"/>
      <path id="Trazado_161788" data-name="Trazado 161788" d="M239.442,136.9a1.329,1.329,0,1,1-1.328-1.328A1.328,1.328,0,0,1,239.442,136.9Z" transform="translate(-105.754 -65.038)" fill="#003956"/>
      <path id="Trazado_161789" data-name="Trazado 161789" d="M252.889,142.972a3.207,3.207,0,1,1-3.207-3.209A3.208,3.208,0,0,1,252.889,142.972Z" transform="translate(-101.489 -63.193)" fill="#006194"/>
      <path id="Trazado_161790" data-name="Trazado 161790" d="M250.434,142.4a1.327,1.327,0,1,1-1.326-1.329A1.327,1.327,0,0,1,250.434,142.4Z" transform="translate(-100.915 -62.619)" fill="#003956"/>
      <path id="Trazado_161791" data-name="Trazado 161791" d="M258.386,131.977a3.207,3.207,0,1,1-3.206-3.207A3.208,3.208,0,0,1,258.386,131.977Z" transform="translate(-99.07 -68.031)" fill="#006194"/>
      <path id="Trazado_161792" data-name="Trazado 161792" d="M255.933,131.4a1.328,1.328,0,1,1-1.326-1.329A1.328,1.328,0,0,1,255.933,131.4Z" transform="translate(-98.496 -67.457)" fill="#003956"/>
      <path id="Trazado_161793" data-name="Trazado 161793" d="M269.382,137.473a3.208,3.208,0,1,1-3.209-3.206A3.21,3.21,0,0,1,269.382,137.473Z" transform="translate(-94.231 -65.612)" fill="#006194"/>
      <path id="Trazado_161794" data-name="Trazado 161794" d="M266.927,136.9a1.328,1.328,0,1,1-1.328-1.328A1.328,1.328,0,0,1,266.927,136.9Z" transform="translate(-93.657 -65.038)" fill="#003956"/>
      <path id="Trazado_161795" data-name="Trazado 161795" d="M280.373,120.985a3.207,3.207,0,1,1-3.207-3.209A3.207,3.207,0,0,1,280.373,120.985Z" transform="translate(-89.393 -72.869)" fill="#006194"/>
      <path id="Trazado_161796" data-name="Trazado 161796" d="M277.92,120.41a1.328,1.328,0,1,1-1.328-1.329A1.328,1.328,0,0,1,277.92,120.41Z" transform="translate(-88.819 -72.295)" fill="#003956"/>
      <path id="Trazado_161797" data-name="Trazado 161797" d="M227.044,164.421,242.4,148.589l15.833,7.916,7.916-15.831,15.832,7.915,15.831-23.748,7.127-15.831" transform="translate(-110.041 -76.727)" fill="none" stroke="#003956" stroke-miterlimit="10" stroke-width="0.66"/>
    </g>
    <g id="Grupo_69977" data-name="Grupo 69977" transform="translate(28.726 94.211)">
      <rect id="Rectángulo_20566" data-name="Rectángulo 20566" width="175.073" height="98.018" transform="translate(0 84.028) rotate(-14.606)" fill="#c45521"/>
      <path id="Trazado_161798" data-name="Trazado 161798" d="M198.142,125.65,28.727,169.8,97.289,85.772Z" transform="translate(-28.727 -85.772)" fill="#df5f26"/>
      <g id="Grupo_69960" data-name="Grupo 69960" transform="translate(52.884 16.894)">
        <rect id="Rectángulo_20567" data-name="Rectángulo 20567" width="106.571" height="49.38" transform="translate(0 86.02) rotate(-53.82)" fill="#1c5120"/>
        <path id="Trazado_161799" data-name="Trazado 161799" d="M154.824,121.046l-23.4-17.11a6.776,6.776,0,0,1-9.464,1.469L71.792,174a6.773,6.773,0,0,1,1.467,9.464l23.4,17.111a6.767,6.767,0,0,1,9.462-1.467l50.17-68.6A6.774,6.774,0,0,1,154.824,121.046Z" transform="translate(-62.657 -94.673)" fill="#2e8128"/>
        <path id="Trazado_161800" data-name="Trazado 161800" d="M118.883,127.552a19.815,19.815,0,1,1-27.69,4.3A19.815,19.815,0,0,1,118.883,127.552Z" transform="translate(-55.801 -85.962)" fill="#1c5120"/>
        <path id="Trazado_161801" data-name="Trazado 161801" d="M132.365,115.913a7.593,7.593,0,0,1,1.646,10.609L96.582,177.7a7.594,7.594,0,0,1-10.609,1.645h0a7.592,7.592,0,0,1-1.645-10.609l37.43-51.178a7.591,7.591,0,0,1,10.608-1.646Z" transform="translate(-57.784 -90.046)" fill="#1c5120"/>
        <path id="Trazado_161802" data-name="Trazado 161802" d="M116.819,128.706a17.512,17.512,0,1,1-24.473,3.8A17.514,17.514,0,0,1,116.819,128.706Z" transform="translate(-55.097 -85.258)" fill="#879915"/>
        <g id="Grupo_69957" data-name="Grupo 69957" transform="translate(27.779 80.711)">
          <path id="Trazado_161803" data-name="Trazado 161803" d="M92.126,159.5,91.04,158.7a1.384,1.384,0,0,1-.354.312.773.773,0,0,1-.4.092,1.047,1.047,0,0,1-.469-.082,3.6,3.6,0,0,1-.67-.416c-.118-.085-.217-.166-.3-.241s-.154-.141-.209-.2l.505-.691a3.027,3.027,0,0,0,.383.32,3.733,3.733,0,0,0,.421.281.773.773,0,0,0,.265.086.344.344,0,0,0,.183-.046.8.8,0,0,0,.177-.187.823.823,0,0,0,.143-.259.416.416,0,0,0-.016-.21.777.777,0,0,0-.192-.249,5.221,5.221,0,0,0-.444-.351c-.157-.115-.271-.2-.338-.242a.818.818,0,0,0-.228-.105.33.33,0,0,0-.19,0,2.292,2.292,0,0,0-.253.1c-.089.052-.189.1-.3.158s-.215.111-.321.168-.213.107-.315.153a1.71,1.71,0,0,1-.285.107.617.617,0,0,1-.262.029,1.17,1.17,0,0,1-.321-.086,2.879,2.879,0,0,1-.422-.22c-.161-.1-.351-.23-.573-.393a2.73,2.73,0,0,1-.592-.54,1.041,1.041,0,0,1-.194-.48,1,1,0,0,1,.027-.328,1.518,1.518,0,0,1,.187-.387l-.946-.691.4-.543.945.693a2.208,2.208,0,0,1,.357-.351.782.782,0,0,1,.36-.134.839.839,0,0,1,.446.079,3.449,3.449,0,0,1,.567.354,4.272,4.272,0,0,1,.344.274c.084.073.156.141.21.2l-.487.665a.859.859,0,0,0-.153-.138l-.246-.18a2.818,2.818,0,0,0-.392-.253.39.39,0,0,0-.265-.039.24.24,0,0,0-.157.046,1.072,1.072,0,0,0-.17.2.9.9,0,0,0-.125.206.357.357,0,0,0,.006.177.638.638,0,0,0,.147.222,2.845,2.845,0,0,0,.359.3l.259.19a1.662,1.662,0,0,0,.168.109c.045.023.082.045.111.06a.255.255,0,0,0,.089.032.347.347,0,0,0,.174.019,1.106,1.106,0,0,0,.256-.092,4.46,4.46,0,0,0,.471-.248c.167-.1.336-.193.5-.276.141-.058.249-.1.323-.121a.813.813,0,0,1,.268-.024.789.789,0,0,1,.173.039,1.2,1.2,0,0,1,.21.1c.082.046.181.108.3.186s.264.179.432.3.333.249.454.351a2.022,2.022,0,0,1,.3.3,1.4,1.4,0,0,1,.18.287,1.143,1.143,0,0,1,.088.292.985.985,0,0,1-.012.374,1.51,1.51,0,0,1-.192.416l1.086.795Z" transform="translate(-84.738 -153.549)" fill="#2e8128"/>
        </g>
        <g id="Grupo_69958" data-name="Grupo 69958" transform="translate(67.055 27.008)">
          <path id="Trazado_161804" data-name="Trazado 161804" d="M119.4,122.2l-1.086-.795a1.364,1.364,0,0,1-.356.312.759.759,0,0,1-.4.092,1.049,1.049,0,0,1-.469-.082,5.077,5.077,0,0,1-.972-.657c-.082-.073-.153-.141-.209-.2l.505-.691a3.127,3.127,0,0,0,.383.321,3.794,3.794,0,0,0,.421.279.783.783,0,0,0,.265.086.345.345,0,0,0,.183-.046.723.723,0,0,0,.177-.187.806.806,0,0,0,.143-.258.42.42,0,0,0-.014-.212.805.805,0,0,0-.193-.249,4.92,4.92,0,0,0-.442-.35c-.157-.117-.271-.2-.34-.242a.786.786,0,0,0-.228-.107.325.325,0,0,0-.189,0,2.092,2.092,0,0,0-.253.1c-.091.05-.19.1-.3.158l-.323.167c-.108.056-.212.108-.314.154a1.634,1.634,0,0,1-.285.107.626.626,0,0,1-.264.029,1.183,1.183,0,0,1-.321-.086,2.875,2.875,0,0,1-.421-.22c-.161-.1-.351-.23-.575-.393a2.765,2.765,0,0,1-.592-.54.913.913,0,0,1-.167-.808,1.594,1.594,0,0,1,.187-.386l-.945-.693.4-.543.945.693a2.026,2.026,0,0,1,.357-.35.751.751,0,0,1,.359-.134.817.817,0,0,1,.448.079,3.475,3.475,0,0,1,.566.353,4.348,4.348,0,0,1,.346.274c.084.073.154.141.209.2l-.487.665a.769.769,0,0,0-.153-.14l-.245-.18a2.808,2.808,0,0,0-.393-.253.4.4,0,0,0-.265-.039.245.245,0,0,0-.157.046,1.129,1.129,0,0,0-.17.2.935.935,0,0,0-.124.206.355.355,0,0,0,0,.177.661.661,0,0,0,.148.223,2.974,2.974,0,0,0,.359.3c.107.076.192.138.259.189a1.666,1.666,0,0,0,.167.109c.046.023.084.045.111.061a.255.255,0,0,0,.091.033.377.377,0,0,0,.173.019,1.184,1.184,0,0,0,.256-.094,4.08,4.08,0,0,0,.471-.248c.168-.1.336-.193.5-.277.141-.058.249-.1.323-.12a.8.8,0,0,1,.268-.026.827.827,0,0,1,.173.039,1.249,1.249,0,0,1,.21.1c.081.046.181.109.3.186s.262.179.431.3.333.249.455.353a2.072,2.072,0,0,1,.3.3,1.44,1.44,0,0,1,.18.287,1.145,1.145,0,0,1,.089.292.984.984,0,0,1-.013.374,1.472,1.472,0,0,1-.192.416l1.087.795Z" transform="translate(-112.011 -116.258)" fill="#2e8128"/>
        </g>
        <g id="Grupo_69959" data-name="Grupo 69959" transform="translate(35.901 45.202)">
          <path id="Trazado_161805" data-name="Trazado 161805" d="M119.688,152.481l-4.306-3.15a5.5,5.5,0,0,1-1.41,1.234,3.05,3.05,0,0,1-1.574.369,4.21,4.21,0,0,1-1.868-.327,14.569,14.569,0,0,1-2.658-1.65q-.691-.508-1.194-.953c-.334-.3-.612-.562-.831-.795l2.008-2.743a11.808,11.808,0,0,0,1.519,1.273,15.763,15.763,0,0,0,1.666,1.11,3.148,3.148,0,0,0,1.054.346,1.374,1.374,0,0,0,.724-.19,2.9,2.9,0,0,0,.7-.74,3.168,3.168,0,0,0,.565-1.027,1.7,1.7,0,0,0-.053-.837,3.312,3.312,0,0,0-.769-.989,20.9,20.9,0,0,0-1.755-1.391q-.938-.685-1.351-.961a3.208,3.208,0,0,0-.894-.415,1.314,1.314,0,0,0-.759-.022,8.085,8.085,0,0,0-1,.387q-.538.3-1.181.628t-1.282.662q-.642.331-1.246.609a7.262,7.262,0,0,1-1.135.421,2.441,2.441,0,0,1-1.044.117,4.732,4.732,0,0,1-1.269-.341,11.107,11.107,0,0,1-1.676-.88q-.955-.59-2.274-1.555a10.918,10.918,0,0,1-2.349-2.144,4.079,4.079,0,0,1-.772-1.9,3.964,3.964,0,0,1,.105-1.311,6.317,6.317,0,0,1,.747-1.531l-3.75-2.743,1.575-2.153,3.749,2.742a8.311,8.311,0,0,1,1.417-1.39,3.031,3.031,0,0,1,1.427-.529,3.223,3.223,0,0,1,1.771.31,14.127,14.127,0,0,1,2.251,1.406q.868.635,1.368,1.082c.333.3.611.562.831.793l-1.931,2.64a3.425,3.425,0,0,0-.608-.551l-.974-.711a11.636,11.636,0,0,0-1.555-1.005,1.607,1.607,0,0,0-1.057-.16.959.959,0,0,0-.616.189,4.229,4.229,0,0,0-.68.782,3.447,3.447,0,0,0-.49.817,1.384,1.384,0,0,0,.017.7,2.6,2.6,0,0,0,.583.88,11.472,11.472,0,0,0,1.43,1.179q.624.456,1.024.749a6.048,6.048,0,0,0,.667.435c.18.1.325.176.439.239a1.013,1.013,0,0,0,.359.13,1.513,1.513,0,0,0,.688.078,4.688,4.688,0,0,0,1.021-.373,16.7,16.7,0,0,0,1.862-.982q1-.6,2-1.1.838-.346,1.28-.477a2.805,2.805,0,0,1,1.748.052,5.206,5.206,0,0,1,.83.395c.328.187.724.433,1.192.739s1.038.707,1.711,1.2c.717.524,1.319.992,1.8,1.4a8.489,8.489,0,0,1,1.184,1.187,5.571,5.571,0,0,1,.716,1.135,4.392,4.392,0,0,1,.348,1.162,3.816,3.816,0,0,1-.046,1.485,5.885,5.885,0,0,1-.759,1.658l4.307,3.15Z" transform="translate(-90.378 -128.892)" fill="#1c5120"/>
        </g>
      </g>
      <g id="Grupo_69964" data-name="Grupo 69964" transform="translate(8.48 3.848)">
        <rect id="Rectángulo_20568" data-name="Rectángulo 20568" width="49.38" height="106.57" transform="translate(0 26.515) rotate(-32.478)" fill="#1c5120"/>
        <path id="Trazado_161806" data-name="Trazado 161806" d="M67.174,94.6,42.721,110.166a6.771,6.771,0,0,1-2.077,9.348l45.637,71.7a6.774,6.774,0,0,1,9.351,2.077l24.452-15.563a6.773,6.773,0,0,1,2.078-9.351l-45.638-71.7A6.771,6.771,0,0,1,67.174,94.6Z" transform="translate(-31.961 -85.735)" fill="#2e8128"/>
        <path id="Trazado_161807" data-name="Trazado 161807" d="M64.363,118.205a19.815,19.815,0,1,1-6.077,27.355A19.813,19.813,0,0,1,64.363,118.205Z" transform="translate(-25.562 -76.712)" fill="#1c5120"/>
        <path id="Trazado_161808" data-name="Trazado 161808" d="M55.37,106.209a7.589,7.589,0,0,1,10.478,2.327L99.9,162.025a7.6,7.6,0,0,1-2.329,10.483h0a7.59,7.59,0,0,1-10.478-2.327L53.042,116.689a7.59,7.59,0,0,1,2.327-10.48Z" transform="translate(-27.028 -81.149)" fill="#1c5120"/>
        <path id="Trazado_161809" data-name="Trazado 161809" d="M64.9,119.444a17.511,17.511,0,1,1-5.37,24.176A17.51,17.51,0,0,1,64.9,119.444Z" transform="translate(-24.858 -76.008)" fill="#879915"/>
        <g id="Grupo_69961" data-name="Grupo 69961" transform="translate(62.553 83.338)">
          <path id="Trazado_161810" data-name="Trazado 161810" d="M86.133,146.881,85,147.6a1.411,1.411,0,0,1,.158.442.773.773,0,0,1-.058.4,1.049,1.049,0,0,1-.248.409,3.631,3.631,0,0,1-.631.472,3.838,3.838,0,0,1-.334.193c-.1.05-.187.091-.264.121l-.459-.721a2.967,2.967,0,0,0,.439-.24,3.844,3.844,0,0,0,.413-.289.74.74,0,0,0,.177-.216.348.348,0,0,0,.023-.187.775.775,0,0,0-.109-.233.835.835,0,0,0-.189-.225.423.423,0,0,0-.2-.065.834.834,0,0,0-.3.089,5.269,5.269,0,0,0-.488.284c-.164.105-.281.181-.349.229a.846.846,0,0,0-.18.171.357.357,0,0,0-.075.177,2.385,2.385,0,0,0,0,.271c.013.1.026.213.039.334s.026.243.037.363.022.236.029.347a1.766,1.766,0,0,1,0,.305.637.637,0,0,1-.069.256,1.275,1.275,0,0,1-.2.268,3,3,0,0,1-.361.311q-.225.169-.573.392a2.668,2.668,0,0,1-.719.353,1.012,1.012,0,0,1-.516.009.991.991,0,0,1-.3-.145,1.56,1.56,0,0,1-.291-.314l-.988.628-.361-.566.988-.629a2.168,2.168,0,0,1-.2-.461.769.769,0,0,1,.006-.383.815.815,0,0,1,.236-.387,3.517,3.517,0,0,1,.536-.4c.153-.1.279-.171.38-.223s.187-.092.262-.121l.442.693a1.021,1.021,0,0,0-.186.094c-.066.043-.151.1-.256.164a2.923,2.923,0,0,0-.377.272.409.409,0,0,0-.135.233.248.248,0,0,0-.012.163,1.062,1.062,0,0,0,.121.232.918.918,0,0,0,.145.189.335.335,0,0,0,.169.059.662.662,0,0,0,.261-.055,2.926,2.926,0,0,0,.406-.228c.109-.071.2-.127.271-.173a1.335,1.335,0,0,0,.164-.115c.037-.035.071-.061.1-.081a.3.3,0,0,0,.063-.072.409.409,0,0,0,.082-.156,1.26,1.26,0,0,0,.006-.274,4.269,4.269,0,0,0-.059-.527c-.033-.194-.059-.385-.075-.57a3.419,3.419,0,0,1,.006-.346.852.852,0,0,1,.073-.258.95.95,0,0,1,.1-.148,1.334,1.334,0,0,1,.168-.158c.073-.058.168-.13.284-.212s.261-.179.436-.292.354-.217.5-.292a2.114,2.114,0,0,1,.386-.171,1.5,1.5,0,0,1,.333-.063,1.272,1.272,0,0,1,.305.025.99.99,0,0,1,.344.148,1.411,1.411,0,0,1,.318.331l1.135-.723Z" transform="translate(-78.051 -146.314)" fill="#2e8128"/>
        </g>
        <g id="Grupo_69962" data-name="Grupo 69962" transform="translate(26.828 27.211)">
          <path id="Trazado_161811" data-name="Trazado 161811" d="M61.324,107.907l-1.135.723a1.327,1.327,0,0,1,.16.442.764.764,0,0,1-.058.4,1.062,1.062,0,0,1-.248.408,3.56,3.56,0,0,1-.631.472,3.833,3.833,0,0,1-.334.193,2.823,2.823,0,0,1-.262.122l-.461-.723a2.718,2.718,0,0,0,.439-.24,4.383,4.383,0,0,0,.413-.288.78.78,0,0,0,.177-.216.338.338,0,0,0,.022-.189.725.725,0,0,0-.108-.232.8.8,0,0,0-.19-.226.428.428,0,0,0-.2-.065.872.872,0,0,0-.3.089c-.111.055-.274.15-.487.285-.166.105-.281.18-.35.229a.813.813,0,0,0-.18.171.326.326,0,0,0-.073.177,2.012,2.012,0,0,0,0,.269c.013.1.026.215.039.336s.026.242.039.363.022.236.027.346a1.786,1.786,0,0,1,0,.307.637.637,0,0,1-.069.256,1.308,1.308,0,0,1-.2.266,2.95,2.95,0,0,1-.36.313c-.151.112-.343.243-.575.39a2.681,2.681,0,0,1-.719.354,1.028,1.028,0,0,1-.516.009.991.991,0,0,1-.3-.145,1.617,1.617,0,0,1-.291-.315l-.988.628-.36-.567.988-.628a2.037,2.037,0,0,1-.2-.459.774.774,0,0,1,.006-.385.822.822,0,0,1,.236-.387,3.567,3.567,0,0,1,.537-.4c.151-.1.278-.171.379-.222s.187-.092.262-.122l.442.694a.878.878,0,0,0-.184.092l-.256.164a3.007,3.007,0,0,0-.379.272.4.4,0,0,0-.134.235.245.245,0,0,0-.013.161,1,1,0,0,0,.121.232.827.827,0,0,0,.147.189.356.356,0,0,0,.167.06.656.656,0,0,0,.259-.055,2.914,2.914,0,0,0,.408-.228l.271-.173a1.448,1.448,0,0,0,.163-.117c.039-.035.072-.059.1-.081a.306.306,0,0,0,.065-.072.385.385,0,0,0,.081-.156,1.252,1.252,0,0,0,.006-.274,4.325,4.325,0,0,0-.06-.527c-.033-.194-.058-.383-.072-.57,0-.153,0-.268,0-.344a.86.86,0,0,1,.073-.259.878.878,0,0,1,.1-.147,1.445,1.445,0,0,1,.168-.158c.073-.059.168-.13.284-.212s.261-.179.438-.292.353-.217.494-.294a2.248,2.248,0,0,1,.386-.17,1.419,1.419,0,0,1,.333-.063,1.139,1.139,0,0,1,.305.025.973.973,0,0,1,.344.147,1.5,1.5,0,0,1,.32.331l1.135-.723Z" transform="translate(-53.244 -107.34)" fill="#2e8128"/>
        </g>
        <g id="Grupo_69963" data-name="Grupo 69963" transform="translate(32.865 47.168)">
          <path id="Trazado_161812" data-name="Trazado 161812" d="M89.5,123.449,85,126.315a5.44,5.44,0,0,1,.637,1.761,3.04,3.04,0,0,1-.23,1.6,4.182,4.182,0,0,1-.984,1.62,14.547,14.547,0,0,1-2.5,1.875q-.726.462-1.325.766t-1.041.485l-1.826-2.867a11.88,11.88,0,0,0,1.74-.955,15.71,15.71,0,0,0,1.64-1.146,3.1,3.1,0,0,0,.7-.857,1.346,1.346,0,0,0,.088-.743,2.91,2.91,0,0,0-.433-.923,3.154,3.154,0,0,0-.75-.9,1.72,1.72,0,0,0-.8-.256,3.419,3.419,0,0,0-1.2.356,21.846,21.846,0,0,0-1.933,1.129q-.979.624-1.385.909a3.271,3.271,0,0,0-.713.684,1.283,1.283,0,0,0-.3.7,7.574,7.574,0,0,0,0,1.074q.082.611.156,1.328c.05.478.1.958.15,1.436s.088.939.114,1.381a7.242,7.242,0,0,1-.02,1.211A2.456,2.456,0,0,1,74.51,137a4.743,4.743,0,0,1-.781,1.057,11.064,11.064,0,0,1-1.429,1.241q-.9.672-2.277,1.551a10.813,10.813,0,0,1-2.853,1.407,4.079,4.079,0,0,1-2.046.029,3.932,3.932,0,0,1-1.182-.575,6.381,6.381,0,0,1-1.155-1.253l-3.919,2.5L57.436,140.7l3.919-2.5a8.422,8.422,0,0,1-.779-1.825,3.048,3.048,0,0,1,.027-1.521,3.248,3.248,0,0,1,.933-1.538,14.105,14.105,0,0,1,2.128-1.584q.907-.579,1.5-.881c.4-.2.746-.364,1.043-.485l1.755,2.758a3.491,3.491,0,0,0-.736.367l-1.017.647a11.655,11.655,0,0,0-1.5,1.084,1.606,1.606,0,0,0-.533.926.975.975,0,0,0-.05.642,4.277,4.277,0,0,0,.482.917,3.53,3.53,0,0,0,.582.755,1.408,1.408,0,0,0,.662.239,2.549,2.549,0,0,0,1.031-.223,11.207,11.207,0,0,0,1.619-.9l1.071-.681a5.669,5.669,0,0,0,.647-.464c.156-.132.284-.238.385-.32a1.083,1.083,0,0,0,.249-.288,1.481,1.481,0,0,0,.324-.613,4.723,4.723,0,0,0,.024-1.086,16.6,16.6,0,0,0-.238-2.092q-.2-1.151-.292-2.262-.015-.909.023-1.367a3.264,3.264,0,0,1,.291-1.025,3.1,3.1,0,0,1,.395-.583,5.139,5.139,0,0,1,.668-.631q.439-.354,1.123-.841t1.737-1.158q1.125-.715,1.959-1.169a8.672,8.672,0,0,1,1.535-.673,5.51,5.51,0,0,1,1.319-.251,4.307,4.307,0,0,1,1.21.1,3.817,3.817,0,0,1,1.367.585,5.844,5.844,0,0,1,1.266,1.309l4.5-2.866Z" transform="translate(-57.436 -121.198)" fill="#1c5120"/>
        </g>
      </g>
      <g id="Grupo_69968" data-name="Grupo 69968" transform="translate(50.594 25.468)">
        <rect id="Rectángulo_20569" data-name="Rectángulo 20569" width="106.57" height="49.38" transform="translate(0 106.502) rotate(-87.954)" fill="#1c5120"/>
        <path id="Trazado_161813" data-name="Trazado 161813" d="M105.515,107.533,76.549,106.5a6.775,6.775,0,0,1-7.012,6.527L66.5,197.961a6.775,6.775,0,0,1,6.527,7.009L102,206.006a6.774,6.774,0,0,1,7.01-6.527l3.034-84.936A6.772,6.772,0,0,1,105.515,107.533Z" transform="translate(-62.695 -102.119)" fill="#2e8128"/>
        <path id="Trazado_161814" data-name="Trazado 161814" d="M89.077,127.3a19.815,19.815,0,1,1-20.51,19.1A19.815,19.815,0,0,1,89.077,127.3Z" transform="translate(-61.792 -92.97)" fill="#1c5120"/>
        <path id="Trazado_161815" data-name="Trazado 161815" d="M86.383,113.781a7.589,7.589,0,0,1,7.316,7.856L91.433,185a7.592,7.592,0,0,1-7.857,7.314h0a7.591,7.591,0,0,1-7.314-7.857l2.265-63.366a7.588,7.588,0,0,1,7.856-7.314Z" transform="translate(-58.402 -98.916)" fill="#1c5120"/>
        <path id="Trazado_161816" data-name="Trazado 161816" d="M88.291,128.9a17.511,17.511,0,1,1-18.127,16.874A17.511,17.511,0,0,1,88.291,128.9Z" transform="translate(-61.088 -92.266)" fill="#879915"/>
        <g id="Grupo_69965" data-name="Grupo 69965" transform="translate(20.316 85.306)">
          <path id="Trazado_161817" data-name="Trazado 161817" d="M87.112,164.667l-1.344-.049a1.346,1.346,0,0,1-.12.458.779.779,0,0,1-.276.3,1.078,1.078,0,0,1-.435.2,3.643,3.643,0,0,1-.788.03c-.145,0-.272-.014-.385-.029s-.206-.032-.287-.049l.032-.857a2.85,2.85,0,0,0,.5.05,4.155,4.155,0,0,0,.5,0,.8.8,0,0,0,.269-.078.336.336,0,0,0,.124-.141.688.688,0,0,0,.042-.253.766.766,0,0,0-.027-.3.436.436,0,0,0-.13-.167.833.833,0,0,0-.3-.1,5.259,5.259,0,0,0-.563-.042c-.194-.007-.334-.01-.418-.01a.829.829,0,0,0-.245.04.326.326,0,0,0-.163.1,2.209,2.209,0,0,0-.154.223c-.048.092-.1.192-.157.3l-.173.318c-.059.108-.117.207-.174.3a1.793,1.793,0,0,1-.177.249.615.615,0,0,1-.2.171,1.152,1.152,0,0,1-.314.108,2.773,2.773,0,0,1-.472.053c-.189.009-.42.007-.7,0a2.79,2.79,0,0,1-.794-.115,1.02,1.02,0,0,1-.428-.287,1,1,0,0,1-.164-.288,1.67,1.67,0,0,1-.06-.425l-1.171-.042.024-.673,1.171.042a2,2,0,0,1,.1-.488.767.767,0,0,1,.222-.314.827.827,0,0,1,.413-.186,3.528,3.528,0,0,1,.67-.024c.18.006.325.017.436.032s.207.032.287.048l-.03.824a.882.882,0,0,0-.2-.029l-.3-.012a2.753,2.753,0,0,0-.467.012.408.408,0,0,0-.243.115.253.253,0,0,0-.1.127,1.169,1.169,0,0,0-.032.259.9.9,0,0,0,.014.239.343.343,0,0,0,.1.145.646.646,0,0,0,.245.1,2.929,2.929,0,0,0,.465.043c.131.006.238.009.32.011a1.427,1.427,0,0,0,.2,0c.05,0,.092-.009.125-.01a.267.267,0,0,0,.094-.026.363.363,0,0,0,.154-.079,1.15,1.15,0,0,0,.16-.222,4.12,4.12,0,0,0,.249-.469c.084-.177.171-.347.264-.511a3.4,3.4,0,0,1,.2-.279.853.853,0,0,1,.206-.173.825.825,0,0,1,.166-.065,1.275,1.275,0,0,1,.229-.035c.1-.007.212-.013.353-.014s.317,0,.526.007c.225.009.416.02.575.037a2.169,2.169,0,0,1,.415.079,1.352,1.352,0,0,1,.308.137,1.074,1.074,0,0,1,.239.193.951.951,0,0,1,.2.315,1.462,1.462,0,0,1,.076.454l1.344.048Z" transform="translate(-77.966 -162.693)" fill="#2e8128"/>
        </g>
        <g id="Grupo_69966" data-name="Grupo 69966" transform="translate(22.692 18.816)">
          <path id="Trazado_161818" data-name="Trazado 161818" d="M88.762,118.5l-1.344-.049a1.336,1.336,0,0,1-.12.458.78.78,0,0,1-.276.3,1.078,1.078,0,0,1-.435.2,3.663,3.663,0,0,1-.789.03c-.144,0-.271-.014-.384-.029s-.206-.032-.285-.049l.032-.855a2.975,2.975,0,0,0,.5.05,4.489,4.489,0,0,0,.5,0,.772.772,0,0,0,.269-.079.336.336,0,0,0,.124-.141.719.719,0,0,0,.042-.253.782.782,0,0,0-.027-.294.451.451,0,0,0-.13-.167.84.84,0,0,0-.3-.1,5.6,5.6,0,0,0-.563-.042c-.194-.007-.334-.01-.416-.009a.76.76,0,0,0-.246.04.322.322,0,0,0-.161.1,2.16,2.16,0,0,0-.154.222c-.048.092-.1.193-.157.3l-.173.32c-.059.107-.117.207-.174.3a1.793,1.793,0,0,1-.177.249.646.646,0,0,1-.2.171,1.17,1.17,0,0,1-.314.108,2.651,2.651,0,0,1-.474.053c-.187.009-.42.007-.694,0a2.74,2.74,0,0,1-.793-.115.918.918,0,0,1-.592-.573,1.62,1.62,0,0,1-.06-.426l-1.171-.042.024-.671,1.169.042a2.062,2.062,0,0,1,.1-.49.771.771,0,0,1,.223-.314.827.827,0,0,1,.413-.186,3.51,3.51,0,0,1,.668-.024c.18.006.327.017.438.032s.207.032.287.049l-.03.824a.89.89,0,0,0-.2-.03l-.3-.01a2.948,2.948,0,0,0-.467.01.4.4,0,0,0-.243.117.249.249,0,0,0-.1.125,1.086,1.086,0,0,0-.032.259.841.841,0,0,0,.014.239.351.351,0,0,0,.1.145.664.664,0,0,0,.246.1,3.049,3.049,0,0,0,.465.045c.13,0,.238.009.32.01a1.433,1.433,0,0,0,.2,0l.127-.012a.274.274,0,0,0,.094-.024.38.38,0,0,0,.154-.081,1.151,1.151,0,0,0,.16-.222,4.219,4.219,0,0,0,.249-.468c.084-.179.17-.348.264-.511a2.939,2.939,0,0,1,.2-.281.852.852,0,0,1,.206-.173.813.813,0,0,1,.164-.065,1.306,1.306,0,0,1,.23-.033c.094-.009.212-.013.353-.016s.317,0,.526.009c.225.009.415.019.573.037a2.169,2.169,0,0,1,.416.078,1.42,1.42,0,0,1,.308.137,1.034,1.034,0,0,1,.238.193.961.961,0,0,1,.2.317,1.512,1.512,0,0,1,.075.454l1.344.048Z" transform="translate(-79.616 -116.523)" fill="#2e8128"/>
        </g>
        <g id="Grupo_69967" data-name="Grupo 69967" transform="translate(8.016 47.8)">
          <path id="Trazado_161819" data-name="Trazado 161819" d="M105.714,144.483l-5.331-.19a5.453,5.453,0,0,1-.472,1.812,3.042,3.042,0,0,1-1.1,1.188,4.2,4.2,0,0,1-1.728.778,14.563,14.563,0,0,1-3.126.125c-.573-.02-1.082-.059-1.524-.12s-.821-.122-1.135-.192l.121-3.4a11.83,11.83,0,0,0,1.974.2,15.722,15.722,0,0,0,2-.013,3.19,3.19,0,0,0,1.066-.307,1.366,1.366,0,0,0,.494-.565,2.893,2.893,0,0,0,.166-1.005,3.157,3.157,0,0,0-.109-1.167,1.694,1.694,0,0,0-.514-.664,3.345,3.345,0,0,0-1.192-.387,21.433,21.433,0,0,0-2.232-.166q-1.162-.041-1.656-.037a3.287,3.287,0,0,0-.975.158,1.289,1.289,0,0,0-.638.408,7.943,7.943,0,0,0-.613.883q-.279.549-.624,1.182l-.691,1.267q-.343.633-.688,1.2a7.33,7.33,0,0,1-.7.986,2.453,2.453,0,0,1-.8.683,4.775,4.775,0,0,1-1.241.428,10.918,10.918,0,0,1-1.881.213c-.747.032-1.666.026-2.755-.012a10.858,10.858,0,0,1-3.148-.458,4.076,4.076,0,0,1-1.7-1.136,3.969,3.969,0,0,1-.648-1.143,6.345,6.345,0,0,1-.24-1.686l-4.644-.166.1-2.667,4.643.167a8.3,8.3,0,0,1,.393-1.946,3.006,3.006,0,0,1,.883-1.238,3.237,3.237,0,0,1,1.64-.737,14.085,14.085,0,0,1,2.653-.1c.716.024,1.3.068,1.738.125s.821.124,1.135.192l-.117,3.268a3.459,3.459,0,0,0-.815-.114l-1.2-.043a11.415,11.415,0,0,0-1.852.042,1.583,1.583,0,0,0-.963.461.959.959,0,0,0-.406.5,4.237,4.237,0,0,0-.122,1.03,3.526,3.526,0,0,0,.052.949,1.413,1.413,0,0,0,.41.575,2.6,2.6,0,0,0,.976.4,11.54,11.54,0,0,0,1.845.173c.517.019.939.035,1.269.045a5.693,5.693,0,0,0,.8-.013q.3-.032.5-.048a1.038,1.038,0,0,0,.369-.094,1.52,1.52,0,0,0,.615-.323,4.687,4.687,0,0,0,.634-.881,16.965,16.965,0,0,0,.994-1.859q.488-1.058,1.04-2.031.5-.756.794-1.112a3.337,3.337,0,0,1,.821-.681,3.3,3.3,0,0,1,.655-.256,4.994,4.994,0,0,1,.909-.14q.562-.045,1.4-.058t2.087.032q1.333.048,2.277.145a8.5,8.5,0,0,1,1.646.318,5.5,5.5,0,0,1,1.23.539,4.355,4.355,0,0,1,.94.766,3.8,3.8,0,0,1,.795,1.254,5.841,5.841,0,0,1,.3,1.8l5.331.192Z" transform="translate(-69.425 -136.649)" fill="#1c5120"/>
        </g>
      </g>
      <g id="Grupo_69970" data-name="Grupo 69970" transform="translate(21.148 70.653)">
        <path id="Trazado_161820" data-name="Trazado 161820" d="M83.616,156.263a18.774,18.774,0,1,1-18.773-18.772A18.775,18.775,0,0,1,83.616,156.263Z" transform="translate(-42.242 -133.664)" fill="#ffbd00"/>
        <circle id="Elipse_4303" data-name="Elipse 4303" cx="15.98" cy="15.98" r="15.98" transform="translate(0 22.6) rotate(-45)" fill="#fb9a00"/>
        <path id="Trazado_161821" data-name="Trazado 161821" d="M65.384,169.271A15.977,15.977,0,0,1,54.493,141.6,15.979,15.979,0,1,0,74.88,166.143,15.912,15.912,0,0,1,65.384,169.271Z" transform="translate(-41.388 -131.855)" fill="#ddc3bb" style="mix-blend-mode: multiply;isolation: isolate"/>
        <g id="Grupo_69969" data-name="Grupo 69969" transform="translate(16.319 9.409)">
          <path id="Trazado_161822" data-name="Trazado 161822" d="M62.571,142.453v1.427a8.3,8.3,0,0,1,2.425.582,4.793,4.793,0,0,1,1.764,1.322,5.67,5.67,0,0,1,.92,1.387A3.23,3.23,0,0,1,68,148.481a1.566,1.566,0,0,1-.482,1.143,1.6,1.6,0,0,1-1.168.482,1.645,1.645,0,0,1-1.681-1.4,3,3,0,0,0-2.1-2.195v5.5c1.09.3,1.963.573,2.609.819a5.374,5.374,0,0,1,1.74,1.071,4.949,4.949,0,0,1,1.262,1.738,5.433,5.433,0,0,1,.444,2.215,5.87,5.87,0,0,1-.707,2.821,5.569,5.569,0,0,1-2.084,2.149,7.408,7.408,0,0,1-3.263.992v3.292a3.163,3.163,0,0,1-.153,1.138.648.648,0,0,1-.668.356.736.736,0,0,1-.667-.291,1.647,1.647,0,0,1-.193-.9v-3.57a8.358,8.358,0,0,1-2.7-.726,6.426,6.426,0,0,1-1.931-1.382,5.78,5.78,0,0,1-1.142-1.718,4.543,4.543,0,0,1-.372-1.751,1.6,1.6,0,0,1,.5-1.145,1.656,1.656,0,0,1,1.236-.51,1.76,1.76,0,0,1,1.005.279,1.431,1.431,0,0,1,.569.779,17.155,17.155,0,0,0,.621,1.659,3.167,3.167,0,0,0,.8,1.051,3.561,3.561,0,0,0,1.42.727v-6.148a16.191,16.191,0,0,1-2.961-1.09A4.99,4.99,0,0,1,56,152.155a5.672,5.672,0,0,1,.707-6.583,6.494,6.494,0,0,1,4.185-1.692v-1.4q0-1.113.834-1.112C62.288,141.367,62.571,141.73,62.571,142.453Zm-1.681,9.068v-5.063a4.6,4.6,0,0,0-1.731.874,2.455,2.455,0,0,0-.042,3.219A5.407,5.407,0,0,0,60.891,151.521Zm1.681,3.927v5.791a3.647,3.647,0,0,0,2.061-1.07,2.72,2.72,0,0,0,.729-1.878,2.252,2.252,0,0,0-.709-1.779A5.767,5.767,0,0,0,62.571,155.448Z" transform="translate(-54.743 -141.367)" fill="#bd6100"/>
        </g>
        <path id="Trazado_161823" data-name="Trazado 161823" d="M70.015,145.113c3.914,4.26,4.362,10.219,3.749,10.784s-2.062-4.476-5.978-8.736-8.816-6.123-8.2-6.688S66.1,140.855,70.015,145.113Z" transform="translate(-36.317 -132.416)" fill="#fec691" style="mix-blend-mode: soft-light;isolation: isolate"/>
        <line id="Línea_905" data-name="Línea 905" y1="1.481" x2="1.48" transform="translate(9.573 34.187)" fill="none" stroke="#fb9a00" stroke-linecap="round" stroke-linejoin="round" stroke-width="0.323"/>
        <line id="Línea_906" data-name="Línea 906" y1="1.48" x2="1.482" transform="translate(34.144 9.615)" fill="none" stroke="#fb9a00" stroke-linecap="round" stroke-linejoin="round" stroke-width="0.323"/>
        <line id="Línea_907" data-name="Línea 907" x2="1.48" y2="1.48" transform="translate(9.573 9.615)" fill="none" stroke="#fb9a00" stroke-linecap="round" stroke-linejoin="round" stroke-width="0.323"/>
        <line id="Línea_908" data-name="Línea 908" x2="1.482" y2="1.481" transform="translate(34.144 34.187)" fill="none" stroke="#fb9a00" stroke-linecap="round" stroke-linejoin="round" stroke-width="0.323"/>
        <line id="Línea_909" data-name="Línea 909" y1="2.095" transform="translate(22.6 38.97)" fill="none" stroke="#fb9a00" stroke-linecap="round" stroke-linejoin="round" stroke-width="0.323"/>
        <line id="Línea_910" data-name="Línea 910" y1="2.093" transform="translate(22.6 4.219)" fill="none" stroke="#fb9a00" stroke-linecap="round" stroke-linejoin="round" stroke-width="0.323"/>
        <line id="Línea_911" data-name="Línea 911" x2="2.095" transform="translate(4.177 22.641)" fill="none" stroke="#fb9a00" stroke-linecap="round" stroke-linejoin="round" stroke-width="0.323"/>
        <line id="Línea_912" data-name="Línea 912" x2="2.093" transform="translate(38.928 22.641)" fill="none" stroke="#fb9a00" stroke-linecap="round" stroke-linejoin="round" stroke-width="0.323"/>
        <line id="Línea_913" data-name="Línea 913" y1="0.777" x2="1.946" transform="translate(5.487 28.691)" fill="none" stroke="#fb9a00" stroke-linecap="round" stroke-linejoin="round" stroke-width="0.323"/>
        <line id="Línea_914" data-name="Línea 914" y1="0.777" x2="1.946" transform="translate(37.765 15.815)" fill="none" stroke="#fb9a00" stroke-linecap="round" stroke-linejoin="round" stroke-width="0.323"/>
        <line id="Línea_915" data-name="Línea 915" x2="0.776" y2="1.945" transform="translate(15.773 5.53)" fill="none" stroke="#fb9a00" stroke-linecap="round" stroke-linejoin="round" stroke-width="0.323"/>
        <line id="Línea_916" data-name="Línea 916" x2="0.776" y2="1.947" transform="translate(28.65 37.807)" fill="none" stroke="#fb9a00" stroke-linecap="round" stroke-linejoin="round" stroke-width="0.323"/>
        <line id="Línea_917" data-name="Línea 917" y1="1.924" x2="0.828" transform="translate(15.327 37.643)" fill="none" stroke="#fb9a00" stroke-linecap="round" stroke-linejoin="round" stroke-width="0.323"/>
        <line id="Línea_918" data-name="Línea 918" y1="1.924" x2="0.827" transform="translate(29.046 5.715)" fill="none" stroke="#fb9a00" stroke-linecap="round" stroke-linejoin="round" stroke-width="0.323"/>
        <line id="Línea_919" data-name="Línea 919" x2="1.924" y2="0.827" transform="translate(5.673 15.368)" fill="none" stroke="#fb9a00" stroke-linecap="round" stroke-linejoin="round" stroke-width="0.323"/>
        <line id="Línea_920" data-name="Línea 920" x2="1.925" y2="0.828" transform="translate(37.601 29.086)" fill="none" stroke="#fb9a00" stroke-linecap="round" stroke-linejoin="round" stroke-width="0.323"/>
        <line id="Línea_921" data-name="Línea 921" y1="1.187" x2="1.726" transform="translate(7.417 31.889)" fill="none" stroke="#fb9a00" stroke-linecap="round" stroke-linejoin="round" stroke-width="0.323"/>
        <line id="Línea_922" data-name="Línea 922" y1="1.186" x2="1.726" transform="translate(36.056 12.207)" fill="none" stroke="#fb9a00" stroke-linecap="round" stroke-linejoin="round" stroke-width="0.323"/>
        <line id="Línea_923" data-name="Línea 923" x2="1.186" y2="1.726" transform="translate(12.165 7.458)" fill="none" stroke="#fb9a00" stroke-linecap="round" stroke-linejoin="round" stroke-width="0.323"/>
        <line id="Línea_924" data-name="Línea 924" x2="1.186" y2="1.727" transform="translate(31.848 36.098)" fill="none" stroke="#fb9a00" stroke-linecap="round" stroke-linejoin="round" stroke-width="0.323"/>
        <line id="Línea_925" data-name="Línea 925" y1="2.059" x2="0.383" transform="translate(19.241 38.696)" fill="none" stroke="#fb9a00" stroke-linecap="round" stroke-linejoin="round" stroke-width="0.323"/>
        <line id="Línea_926" data-name="Línea 926" y1="2.06" x2="0.382" transform="translate(25.575 4.527)" fill="none" stroke="#fb9a00" stroke-linecap="round" stroke-linejoin="round" stroke-width="0.323"/>
        <line id="Línea_927" data-name="Línea 927" x2="2.06" y2="0.381" transform="translate(4.486 19.284)" fill="none" stroke="#fb9a00" stroke-linecap="round" stroke-linejoin="round" stroke-width="0.323"/>
        <line id="Línea_928" data-name="Línea 928" x2="2.06" y2="0.382" transform="translate(38.654 25.617)" fill="none" stroke="#fb9a00" stroke-linecap="round" stroke-linejoin="round" stroke-width="0.323"/>
        <line id="Línea_929" data-name="Línea 929" y1="0.408" x2="2.055" transform="translate(4.531 25.826)" fill="none" stroke="#fb9a00" stroke-linecap="round" stroke-linejoin="round" stroke-width="0.323"/>
        <line id="Línea_930" data-name="Línea 930" y1="0.409" x2="2.055" transform="translate(38.614 19.048)" fill="none" stroke="#fb9a00" stroke-linecap="round" stroke-linejoin="round" stroke-width="0.323"/>
        <line id="Línea_931" data-name="Línea 931" x2="0.409" y2="2.055" transform="translate(19.006 4.572)" fill="none" stroke="#fb9a00" stroke-linecap="round" stroke-linejoin="round" stroke-width="0.323"/>
        <line id="Línea_932" data-name="Línea 932" x2="0.409" y2="2.054" transform="translate(25.784 38.656)" fill="none" stroke="#fb9a00" stroke-linecap="round" stroke-linejoin="round" stroke-width="0.323"/>
        <line id="Línea_933" data-name="Línea 933" y1="1.742" x2="1.164" transform="translate(12.363 36.217)" fill="none" stroke="#fb9a00" stroke-linecap="round" stroke-linejoin="round" stroke-width="0.323"/>
        <line id="Línea_934" data-name="Línea 934" y1="1.743" x2="1.164" transform="translate(31.671 7.323)" fill="none" stroke="#fb9a00" stroke-linecap="round" stroke-linejoin="round" stroke-width="0.323"/>
        <line id="Línea_935" data-name="Línea 935" x2="1.742" y2="1.163" transform="translate(7.282 12.406)" fill="none" stroke="#fb9a00" stroke-linecap="round" stroke-linejoin="round" stroke-width="0.323"/>
        <line id="Línea_936" data-name="Línea 936" x2="1.743" y2="1.163" transform="translate(36.174 31.714)" fill="none" stroke="#fb9a00" stroke-linecap="round" stroke-linejoin="round" stroke-width="0.323"/>
      </g>
      <g id="Grupo_69972" data-name="Grupo 69972" transform="translate(99.94 67.661)">
        <path id="Trazado_161824" data-name="Trazado 161824" d="M135.672,151.529A18.774,18.774,0,1,1,116.9,132.756,18.774,18.774,0,0,1,135.672,151.529Z" transform="translate(-98.124 -132.756)" fill="#ffbd00"/>
        <path id="Trazado_161825" data-name="Trazado 161825" d="M132.026,150.676a15.981,15.981,0,1,1-15.981-15.981A15.981,15.981,0,0,1,132.026,150.676Z" transform="translate(-97.27 -131.903)" fill="#fb9a00"/>
        <path id="Trazado_161826" data-name="Trazado 161826" d="M117.442,164.537a15.978,15.978,0,0,1-10.893-27.67,15.979,15.979,0,1,0,20.389,24.542A15.915,15.915,0,0,1,117.442,164.537Z" transform="translate(-97.27 -130.947)" fill="#ddc3bb" style="mix-blend-mode: multiply;isolation: isolate"/>
        <g id="Grupo_69971" data-name="Grupo 69971" transform="translate(12.494 5.583)">
          <path id="Trazado_161827" data-name="Trazado 161827" d="M114.627,137.717v1.427a8.335,8.335,0,0,1,2.425.582,4.819,4.819,0,0,1,1.767,1.323,5.609,5.609,0,0,1,.917,1.388,3.193,3.193,0,0,1,.324,1.308,1.552,1.552,0,0,1-.484,1.143,1.586,1.586,0,0,1-1.168.484,1.647,1.647,0,0,1-1.681-1.4,2.992,2.992,0,0,0-2.1-2.195v5.5q1.64.449,2.611.819a5.429,5.429,0,0,1,1.74,1.071,4.961,4.961,0,0,1,1.262,1.737,5.466,5.466,0,0,1,.442,2.215,5.88,5.88,0,0,1-.707,2.823,5.575,5.575,0,0,1-2.082,2.149,7.446,7.446,0,0,1-3.265.992v3.291a3.127,3.127,0,0,1-.151,1.138.65.65,0,0,1-.668.357.738.738,0,0,1-.668-.291,1.651,1.651,0,0,1-.192-.9V159.11a8.406,8.406,0,0,1-2.7-.729A6.371,6.371,0,0,1,108.315,157a5.726,5.726,0,0,1-1.143-1.717,4.544,4.544,0,0,1-.372-1.753,1.6,1.6,0,0,1,.5-1.143,1.65,1.65,0,0,1,1.236-.508,1.759,1.759,0,0,1,1.005.276,1.432,1.432,0,0,1,.567.781,17.029,17.029,0,0,0,.622,1.658,3.153,3.153,0,0,0,.8,1.053,3.6,3.6,0,0,0,1.421.727v-6.148a16.151,16.151,0,0,1-2.961-1.09,4.99,4.99,0,0,1-1.931-1.714,5.665,5.665,0,0,1,.707-6.583,6.49,6.49,0,0,1,4.185-1.694v-1.4q0-1.11.832-1.11C114.343,136.633,114.627,137,114.627,137.717Zm-1.679,9.07v-5.063a4.631,4.631,0,0,0-1.732.873,2.46,2.46,0,0,0-.039,3.219A5.357,5.357,0,0,0,112.948,146.787Zm1.679,3.926V156.5a3.629,3.629,0,0,0,2.062-1.07,2.723,2.723,0,0,0,.727-1.878,2.257,2.257,0,0,0-.706-1.779A5.805,5.805,0,0,0,114.627,150.713Z" transform="translate(-106.8 -136.633)" fill="#bd6100"/>
        </g>
        <path id="Trazado_161828" data-name="Trazado 161828" d="M122.071,140.38c3.916,4.26,4.364,10.219,3.747,10.784s-2.058-4.477-5.975-8.736-8.818-6.123-8.2-6.689S118.155,136.12,122.071,140.38Z" transform="translate(-92.199 -131.509)" fill="#fec691" style="mix-blend-mode: soft-light;isolation: isolate"/>
        <line id="Línea_937" data-name="Línea 937" y1="1.481" x2="1.482" transform="translate(5.747 30.361)" fill="none" stroke="#fb9a00" stroke-linecap="round" stroke-linejoin="round" stroke-width="0.323"/>
        <line id="Línea_938" data-name="Línea 938" y1="1.482" x2="1.481" transform="translate(30.321 5.788)" fill="none" stroke="#fb9a00" stroke-linecap="round" stroke-linejoin="round" stroke-width="0.323"/>
        <line id="Línea_939" data-name="Línea 939" x2="1.482" y2="1.482" transform="translate(5.747 5.788)" fill="none" stroke="#fb9a00" stroke-linecap="round" stroke-linejoin="round" stroke-width="0.323"/>
        <line id="Línea_940" data-name="Línea 940" x2="1.481" y2="1.481" transform="translate(30.321 30.361)" fill="none" stroke="#fb9a00" stroke-linecap="round" stroke-linejoin="round" stroke-width="0.323"/>
        <line id="Línea_941" data-name="Línea 941" y1="2.095" transform="translate(18.775 35.143)" fill="none" stroke="#fb9a00" stroke-linecap="round" stroke-linejoin="round" stroke-width="0.323"/>
        <line id="Línea_942" data-name="Línea 942" y1="2.095" transform="translate(18.775 0.392)" fill="none" stroke="#fb9a00" stroke-linecap="round" stroke-linejoin="round" stroke-width="0.323"/>
        <line id="Línea_943" data-name="Línea 943" x2="2.095" transform="translate(0.352 18.815)" fill="none" stroke="#fb9a00" stroke-linecap="round" stroke-linejoin="round" stroke-width="0.323"/>
        <line id="Línea_944" data-name="Línea 944" x2="2.095" transform="translate(35.103 18.815)" fill="none" stroke="#fb9a00" stroke-linecap="round" stroke-linejoin="round" stroke-width="0.323"/>
        <line id="Línea_945" data-name="Línea 945" y1="0.776" x2="1.946" transform="translate(1.663 24.865)" fill="none" stroke="#fb9a00" stroke-linecap="round" stroke-linejoin="round" stroke-width="0.323"/>
        <line id="Línea_946" data-name="Línea 946" y1="0.777" x2="1.946" transform="translate(33.941 11.988)" fill="none" stroke="#fb9a00" stroke-linecap="round" stroke-linejoin="round" stroke-width="0.323"/>
        <line id="Línea_947" data-name="Línea 947" x2="0.776" y2="1.946" transform="translate(11.948 1.703)" fill="none" stroke="#fb9a00" stroke-linecap="round" stroke-linejoin="round" stroke-width="0.323"/>
        <line id="Línea_948" data-name="Línea 948" x2="0.777" y2="1.945" transform="translate(24.824 33.981)" fill="none" stroke="#fb9a00" stroke-linecap="round" stroke-linejoin="round" stroke-width="0.323"/>
        <line id="Línea_949" data-name="Línea 949" y1="1.925" x2="0.826" transform="translate(11.503 33.816)" fill="none" stroke="#fb9a00" stroke-linecap="round" stroke-linejoin="round" stroke-width="0.323"/>
        <line id="Línea_950" data-name="Línea 950" y1="1.923" x2="0.825" transform="translate(25.222 1.889)" fill="none" stroke="#fb9a00" stroke-linecap="round" stroke-linejoin="round" stroke-width="0.323"/>
        <line id="Línea_951" data-name="Línea 951" x2="1.925" y2="0.828" transform="translate(1.848 11.542)" fill="none" stroke="#fb9a00" stroke-linecap="round" stroke-linejoin="round" stroke-width="0.323"/>
        <line id="Línea_952" data-name="Línea 952" x2="1.925" y2="0.828" transform="translate(33.776 25.261)" fill="none" stroke="#fb9a00" stroke-linecap="round" stroke-linejoin="round" stroke-width="0.323"/>
        <line id="Línea_953" data-name="Línea 953" y1="1.186" x2="1.726" transform="translate(3.592 28.063)" fill="none" stroke="#fb9a00" stroke-linecap="round" stroke-linejoin="round" stroke-width="0.323"/>
        <line id="Línea_954" data-name="Línea 954" y1="1.186" x2="1.727" transform="translate(32.231 8.38)" fill="none" stroke="#fb9a00" stroke-linecap="round" stroke-linejoin="round" stroke-width="0.323"/>
        <line id="Línea_955" data-name="Línea 955" x2="1.185" y2="1.726" transform="translate(8.341 3.632)" fill="none" stroke="#fb9a00" stroke-linecap="round" stroke-linejoin="round" stroke-width="0.323"/>
        <line id="Línea_956" data-name="Línea 956" x2="1.186" y2="1.727" transform="translate(28.022 32.271)" fill="none" stroke="#fb9a00" stroke-linecap="round" stroke-linejoin="round" stroke-width="0.323"/>
        <line id="Línea_957" data-name="Línea 957" y1="2.058" x2="0.382" transform="translate(15.416 34.87)" fill="none" stroke="#fb9a00" stroke-linecap="round" stroke-linejoin="round" stroke-width="0.323"/>
        <line id="Línea_958" data-name="Línea 958" y1="2.059" x2="0.382" transform="translate(21.751 0.701)" fill="none" stroke="#fb9a00" stroke-linecap="round" stroke-linejoin="round" stroke-width="0.323"/>
        <line id="Línea_959" data-name="Línea 959" x2="2.06" y2="0.382" transform="translate(0.66 15.456)" fill="none" stroke="#fb9a00" stroke-linecap="round" stroke-linejoin="round" stroke-width="0.323"/>
        <line id="Línea_960" data-name="Línea 960" x2="2.06" y2="0.382" transform="translate(34.83 21.791)" fill="none" stroke="#fb9a00" stroke-linecap="round" stroke-linejoin="round" stroke-width="0.323"/>
        <line id="Línea_961" data-name="Línea 961" y1="0.409" x2="2.053" transform="translate(0.707 21.999)" fill="none" stroke="#fb9a00" stroke-linecap="round" stroke-linejoin="round" stroke-width="0.323"/>
        <line id="Línea_962" data-name="Línea 962" y1="0.409" x2="2.053" transform="translate(34.79 15.221)" fill="none" stroke="#fb9a00" stroke-linecap="round" stroke-linejoin="round" stroke-width="0.323"/>
        <line id="Línea_963" data-name="Línea 963" x2="0.409" y2="2.056" transform="translate(15.182 0.745)" fill="none" stroke="#fb9a00" stroke-linecap="round" stroke-linejoin="round" stroke-width="0.323"/>
        <line id="Línea_964" data-name="Línea 964" x2="0.409" y2="2.054" transform="translate(21.959 34.83)" fill="none" stroke="#fb9a00" stroke-linecap="round" stroke-linejoin="round" stroke-width="0.323"/>
        <line id="Línea_965" data-name="Línea 965" y1="1.742" x2="1.164" transform="translate(8.538 32.39)" fill="none" stroke="#fb9a00" stroke-linecap="round" stroke-linejoin="round" stroke-width="0.323"/>
        <line id="Línea_966" data-name="Línea 966" y1="1.742" x2="1.163" transform="translate(27.847 3.497)" fill="none" stroke="#fb9a00" stroke-linecap="round" stroke-linejoin="round" stroke-width="0.323"/>
        <line id="Línea_967" data-name="Línea 967" x2="1.742" y2="1.163" transform="translate(3.458 8.579)" fill="none" stroke="#fb9a00" stroke-linecap="round" stroke-linejoin="round" stroke-width="0.323"/>
        <line id="Línea_968" data-name="Línea 968" x2="1.742" y2="1.164" transform="translate(32.351 27.886)" fill="none" stroke="#fb9a00" stroke-linecap="round" stroke-linejoin="round" stroke-width="0.323"/>
      </g>
      <g id="Grupo_69974" data-name="Grupo 69974" transform="translate(49.675 83.366)">
        <path id="Trazado_161829" data-name="Trazado 161829" d="M96.338,150.322a18.774,18.774,0,1,1-26.455-2.229A18.775,18.775,0,0,1,96.338,150.322Z" transform="translate(-63.22 -143.661)" fill="#ffbd00"/>
        <path id="Trazado_161830" data-name="Trazado 161830" d="M93.35,151.27a15.981,15.981,0,1,1-22.52-1.9A15.982,15.982,0,0,1,93.35,151.27Z" transform="translate(-62.367 -142.808)" fill="#fb9a00"/>
        <path id="Trazado_161831" data-name="Trazado 161831" d="M91.768,168.246a15.978,15.978,0,0,1-26.175-14.113A15.978,15.978,0,1,0,97,159.728,15.93,15.93,0,0,1,91.768,168.246Z" transform="translate(-62.366 -139.052)" fill="#ddc3bb" style="mix-blend-mode: multiply;isolation: isolate"/>
        <g id="Grupo_69973" data-name="Grupo 69973" transform="translate(9.66 8.028)">
          <path id="Trazado_161832" data-name="Trazado 161832" d="M72.414,149.734l.92,1.092a8.36,8.36,0,0,1,2.229-1.122,4.812,4.812,0,0,1,2.2-.128,5.633,5.633,0,0,1,1.6.468,3.183,3.183,0,0,1,1.09.792,1.555,1.555,0,0,1,.37,1.182,1.59,1.59,0,0,1-.583,1.125,1.647,1.647,0,0,1-2.188.014,2.991,2.991,0,0,0-3.021-.323l3.548,4.2q1.54-.715,2.524-1.058a5.4,5.4,0,0,1,2.019-.3,4.929,4.929,0,0,1,2.087.513,5.5,5.5,0,0,1,1.767,1.406,5.9,5.9,0,0,1,1.28,2.614,5.589,5.589,0,0,1-.2,2.984,7.443,7.443,0,0,1-1.855,2.866l2.124,2.514a3.12,3.12,0,0,1,.616.966.647.647,0,0,1-.278.7.747.747,0,0,1-.7.209,1.67,1.67,0,0,1-.726-.563l-2.3-2.729a8.33,8.33,0,0,1-2.535,1.19,6.413,6.413,0,0,1-2.366.19,5.773,5.773,0,0,1-1.984-.575,4.562,4.562,0,0,1-1.413-1.1,1.611,1.611,0,0,1-.359-1.194,1.656,1.656,0,0,1,.616-1.185,1.739,1.739,0,0,1,.948-.436,1.43,1.43,0,0,1,.936.229,17.287,17.287,0,0,0,1.547.867,3.2,3.2,0,0,0,1.289.287,3.6,3.6,0,0,0,1.555-.361l-3.967-4.7a16.329,16.329,0,0,1-2.965,1.077,4.746,4.746,0,0,1-4.987-1.767,5.061,5.061,0,0,1-1.3-3.782,6.5,6.5,0,0,1,2.105-3.993l-.9-1.07q-.717-.849-.081-1.387T72.414,149.734Zm4.569,8.013-3.268-3.868a4.608,4.608,0,0,0-.76,1.784A2.454,2.454,0,0,0,75,158.147,5.385,5.385,0,0,0,76.983,157.747Zm3.815,1.915,3.737,4.425a3.648,3.648,0,0,0,.886-2.15,2.724,2.724,0,0,0-.657-1.9,2.255,2.255,0,0,0-1.688-.9A5.788,5.788,0,0,0,80.8,159.662Z" transform="translate(-69.928 -149.236)" fill="#bd6100"/>
        </g>
        <path id="Trazado_161833" data-name="Trazado 161833" d="M81.059,146.506c5.739.729,9.927,4.991,9.822,5.819s-4.463-2.091-10.2-2.818-10.687,1.011-10.583.183S75.319,145.777,81.059,146.506Z" transform="translate(-60.196 -142.458)" fill="#fec691" style="mix-blend-mode: soft-light;isolation: isolate"/>
        <line id="Línea_969" data-name="Línea 969" y1="2.087" x2="0.175" transform="translate(17.253 35.076)" fill="none" stroke="#fb9a00" stroke-linecap="round" stroke-linejoin="round" stroke-width="0.323"/>
        <line id="Línea_970" data-name="Línea 970" y1="2.088" x2="0.175" transform="translate(20.172 0.448)" fill="none" stroke="#fb9a00" stroke-linecap="round" stroke-linejoin="round" stroke-width="0.323"/>
        <line id="Línea_971" data-name="Línea 971" x2="2.088" y2="0.177" transform="translate(0.443 17.258)" fill="none" stroke="#fb9a00" stroke-linecap="round" stroke-linejoin="round" stroke-width="0.323"/>
        <line id="Línea_972" data-name="Línea 972" x2="2.086" y2="0.175" transform="translate(35.072 20.176)" fill="none" stroke="#fb9a00" stroke-linecap="round" stroke-linejoin="round" stroke-width="0.323"/>
        <line id="Línea_973" data-name="Línea 973" x1="1.353" y1="1.599" transform="translate(29.335 31.28)" fill="none" stroke="#fb9a00" stroke-linecap="round" stroke-linejoin="round" stroke-width="0.323"/>
        <line id="Línea_974" data-name="Línea 974" x1="1.35" y1="1.6" transform="translate(6.915 4.73)" fill="none" stroke="#fb9a00" stroke-linecap="round" stroke-linejoin="round" stroke-width="0.323"/>
        <line id="Línea_975" data-name="Línea 975" y1="1.351" x2="1.6" transform="translate(4.726 29.34)" fill="none" stroke="#fb9a00" stroke-linecap="round" stroke-linejoin="round" stroke-width="0.323"/>
        <line id="Línea_976" data-name="Línea 976" y1="1.352" x2="1.601" transform="translate(31.275 6.918)" fill="none" stroke="#fb9a00" stroke-linecap="round" stroke-linejoin="round" stroke-width="0.323"/>
        <line id="Línea_977" data-name="Línea 977" y1="1.849" x2="0.985" transform="translate(10.132 33.213)" fill="none" stroke="#fb9a00" stroke-linecap="round" stroke-linejoin="round" stroke-width="0.323"/>
        <line id="Línea_978" data-name="Línea 978" y1="1.849" x2="0.986" transform="translate(26.484 2.549)" fill="none" stroke="#fb9a00" stroke-linecap="round" stroke-linejoin="round" stroke-width="0.323"/>
        <line id="Línea_979" data-name="Línea 979" x2="1.848" y2="0.984" transform="translate(2.544 10.137)" fill="none" stroke="#fb9a00" stroke-linecap="round" stroke-linejoin="round" stroke-width="0.323"/>
        <line id="Línea_980" data-name="Línea 980" x2="1.849" y2="0.986" transform="translate(33.208 26.488)" fill="none" stroke="#fb9a00" stroke-linecap="round" stroke-linejoin="round" stroke-width="0.323"/>
        <line id="Línea_981" data-name="Línea 981" x1="0.61" y1="2.003" transform="translate(23.555 34.426)" fill="none" stroke="#fb9a00" stroke-linecap="round" stroke-linejoin="round" stroke-width="0.323"/>
        <line id="Línea_982" data-name="Línea 982" x1="0.61" y1="2.005" transform="translate(13.435 1.181)" fill="none" stroke="#fb9a00" stroke-linecap="round" stroke-linejoin="round" stroke-width="0.323"/>
        <line id="Línea_983" data-name="Línea 983" y1="0.61" x2="2.004" transform="translate(1.177 23.56)" fill="none" stroke="#fb9a00" stroke-linecap="round" stroke-linejoin="round" stroke-width="0.323"/>
        <line id="Línea_984" data-name="Línea 984" y1="0.61" x2="2.003" transform="translate(34.421 13.44)" fill="none" stroke="#fb9a00" stroke-linecap="round" stroke-linejoin="round" stroke-width="0.323"/>
        <line id="Línea_985" data-name="Línea 985" y1="2.019" x2="0.553" transform="translate(13.934 34.554)" fill="none" stroke="#fb9a00" stroke-linecap="round" stroke-linejoin="round" stroke-width="0.323"/>
        <line id="Línea_986" data-name="Línea 986" y1="2.021" x2="0.553" transform="translate(23.115 1.037)" fill="none" stroke="#fb9a00" stroke-linecap="round" stroke-linejoin="round" stroke-width="0.323"/>
        <line id="Línea_987" data-name="Línea 987" x2="2.019" y2="0.553" transform="translate(1.033 13.938)" fill="none" stroke="#fb9a00" stroke-linecap="round" stroke-linejoin="round" stroke-width="0.323"/>
        <line id="Línea_988" data-name="Línea 988" x2="2.019" y2="0.554" transform="translate(34.549 23.119)" fill="none" stroke="#fb9a00" stroke-linecap="round" stroke-linejoin="round" stroke-width="0.323"/>
        <line id="Línea_989" data-name="Línea 989" x1="1.037" y1="1.82" transform="translate(26.886 32.99)" fill="none" stroke="#fb9a00" stroke-linecap="round" stroke-linejoin="round" stroke-width="0.323"/>
        <line id="Línea_990" data-name="Línea 990" x1="1.036" y1="1.82" transform="translate(9.679 2.799)" fill="none" stroke="#fb9a00" stroke-linecap="round" stroke-linejoin="round" stroke-width="0.323"/>
        <line id="Línea_991" data-name="Línea 991" y1="1.038" x2="1.82" transform="translate(2.795 26.89)" fill="none" stroke="#fb9a00" stroke-linecap="round" stroke-linejoin="round" stroke-width="0.323"/>
        <line id="Línea_992" data-name="Línea 992" y1="1.036" x2="1.82" transform="translate(32.986 9.684)" fill="none" stroke="#fb9a00" stroke-linecap="round" stroke-linejoin="round" stroke-width="0.323"/>
        <line id="Línea_993" data-name="Línea 993" y1="1.637" x2="1.306" transform="translate(7.313 31.571)" fill="none" stroke="#fb9a00" stroke-linecap="round" stroke-linejoin="round" stroke-width="0.323"/>
        <line id="Línea_994" data-name="Línea 994" y1="1.637" x2="1.306" transform="translate(28.981 4.402)" fill="none" stroke="#fb9a00" stroke-linecap="round" stroke-linejoin="round" stroke-width="0.323"/>
        <line id="Línea_995" data-name="Línea 995" x2="1.639" y2="1.306" transform="translate(4.396 7.319)" fill="none" stroke="#fb9a00" stroke-linecap="round" stroke-linejoin="round" stroke-width="0.323"/>
        <line id="Línea_996" data-name="Línea 996" x2="1.636" y2="1.306" transform="translate(31.567 28.985)" fill="none" stroke="#fb9a00" stroke-linecap="round" stroke-linejoin="round" stroke-width="0.323"/>
        <line id="Línea_997" data-name="Línea 997" x1="0.236" y1="2.081" transform="translate(20.628 35.03)" fill="none" stroke="#fb9a00" stroke-linecap="round" stroke-linejoin="round" stroke-width="0.323"/>
        <line id="Línea_998" data-name="Línea 998" x1="0.235" y1="2.081" transform="translate(16.737 0.499)" fill="none" stroke="#fb9a00" stroke-linecap="round" stroke-linejoin="round" stroke-width="0.323"/>
        <line id="Línea_999" data-name="Línea 999" y1="0.235" x2="2.082" transform="translate(0.494 20.632)" fill="none" stroke="#fb9a00" stroke-linecap="round" stroke-linejoin="round" stroke-width="0.323"/>
        <line id="Línea_1000" data-name="Línea 1000" y1="0.236" x2="2.081" transform="translate(35.026 16.742)" fill="none" stroke="#fb9a00" stroke-linecap="round" stroke-linejoin="round" stroke-width="0.323"/>
      </g>
      <g id="Grupo_69976" data-name="Grupo 69976" transform="translate(111.486 52.385)">
        <path id="Trazado_161834" data-name="Trazado 161834" d="M139.259,128.808a18.774,18.774,0,1,1-26.456-2.229A18.776,18.776,0,0,1,139.259,128.808Z" transform="translate(-106.142 -122.148)" fill="#ffbd00"/>
        <path id="Trazado_161835" data-name="Trazado 161835" d="M136.271,129.758a15.981,15.981,0,1,1-22.52-1.9A15.977,15.977,0,0,1,136.271,129.758Z" transform="translate(-105.288 -121.295)" fill="#fb9a00"/>
        <path id="Trazado_161836" data-name="Trazado 161836" d="M134.689,146.733a15.979,15.979,0,0,1-26.175-14.113,15.978,15.978,0,1,0,31.41,5.6A15.912,15.912,0,0,1,134.689,146.733Z" transform="translate(-105.288 -117.54)" fill="#ddc3bb" style="mix-blend-mode: multiply;isolation: isolate"/>
        <g id="Grupo_69975" data-name="Grupo 69975" transform="translate(9.661 8.029)">
          <path id="Trazado_161837" data-name="Trazado 161837" d="M115.334,128.221l.92,1.092a8.41,8.41,0,0,1,2.231-1.122,4.8,4.8,0,0,1,2.2-.128,5.633,5.633,0,0,1,1.6.468,3.18,3.18,0,0,1,1.094.792,1.567,1.567,0,0,1,.369,1.184,1.591,1.591,0,0,1-.582,1.123,1.643,1.643,0,0,1-2.188.013,3,3,0,0,0-3.024-.32l3.55,4.2q1.542-.715,2.524-1.058a5.378,5.378,0,0,1,2.019-.3,4.949,4.949,0,0,1,2.087.513,5.471,5.471,0,0,1,1.767,1.408,5.865,5.865,0,0,1,1.28,2.611,5.6,5.6,0,0,1-.2,2.985,7.443,7.443,0,0,1-1.855,2.866l2.124,2.513a3.131,3.131,0,0,1,.618.966.645.645,0,0,1-.281.7.734.734,0,0,1-.7.209,1.643,1.643,0,0,1-.726-.563l-2.3-2.728a8.416,8.416,0,0,1-2.535,1.19,6.381,6.381,0,0,1-2.366.189,5.685,5.685,0,0,1-1.982-.575,4.531,4.531,0,0,1-1.414-1.1,1.591,1.591,0,0,1-.359-1.194,1.654,1.654,0,0,1,.615-1.187,1.764,1.764,0,0,1,.948-.436,1.434,1.434,0,0,1,.938.229,16.8,16.8,0,0,0,1.544.867,3.214,3.214,0,0,0,1.29.288,3.6,3.6,0,0,0,1.555-.361l-3.966-4.7a16.253,16.253,0,0,1-2.968,1.079,4.991,4.991,0,0,1-2.579-.063,5.669,5.669,0,0,1-3.707-5.487,6.48,6.48,0,0,1,2.1-3.992l-.9-1.071q-.717-.849-.081-1.387T115.334,128.221Zm4.568,8.013-3.265-3.868a4.631,4.631,0,0,0-.762,1.784,2.457,2.457,0,0,0,2.046,2.486A5.379,5.379,0,0,0,119.9,136.234Zm3.816,1.917,3.737,4.424a3.628,3.628,0,0,0,.884-2.149,2.7,2.7,0,0,0-.655-1.9,2.256,2.256,0,0,0-1.688-.9A5.8,5.8,0,0,0,123.718,138.151Z" transform="translate(-112.85 -127.724)" fill="#bd6100"/>
        </g>
        <path id="Trazado_161838" data-name="Trazado 161838" d="M123.98,124.993c5.74.729,9.927,4.993,9.82,5.821s-4.461-2.091-10.2-2.818-10.687,1.011-10.582.181S118.241,124.265,123.98,124.993Z" transform="translate(-103.117 -120.945)" fill="#fec691" style="mix-blend-mode: soft-light;isolation: isolate"/>
        <line id="Línea_1001" data-name="Línea 1001" y1="2.087" x2="0.177" transform="translate(17.252 35.076)" fill="none" stroke="#fb9a00" stroke-linecap="round" stroke-linejoin="round" stroke-width="0.323"/>
        <line id="Línea_1002" data-name="Línea 1002" y1="2.088" x2="0.176" transform="translate(20.172 0.448)" fill="none" stroke="#fb9a00" stroke-linecap="round" stroke-linejoin="round" stroke-width="0.323"/>
        <line id="Línea_1003" data-name="Línea 1003" x2="2.086" y2="0.177" transform="translate(0.443 17.258)" fill="none" stroke="#fb9a00" stroke-linecap="round" stroke-linejoin="round" stroke-width="0.323"/>
        <line id="Línea_1004" data-name="Línea 1004" x2="2.088" y2="0.176" transform="translate(35.07 20.176)" fill="none" stroke="#fb9a00" stroke-linecap="round" stroke-linejoin="round" stroke-width="0.323"/>
        <line id="Línea_1005" data-name="Línea 1005" x1="1.352" y1="1.599" transform="translate(29.335 31.281)" fill="none" stroke="#fb9a00" stroke-linecap="round" stroke-linejoin="round" stroke-width="0.323"/>
        <line id="Línea_1006" data-name="Línea 1006" x1="1.352" y1="1.6" transform="translate(6.913 4.73)" fill="none" stroke="#fb9a00" stroke-linecap="round" stroke-linejoin="round" stroke-width="0.323"/>
        <line id="Línea_1007" data-name="Línea 1007" y1="1.351" x2="1.6" transform="translate(4.725 29.341)" fill="none" stroke="#fb9a00" stroke-linecap="round" stroke-linejoin="round" stroke-width="0.323"/>
        <line id="Línea_1008" data-name="Línea 1008" y1="1.351" x2="1.601" transform="translate(31.274 6.919)" fill="none" stroke="#fb9a00" stroke-linecap="round" stroke-linejoin="round" stroke-width="0.323"/>
        <line id="Línea_1009" data-name="Línea 1009" y1="1.849" x2="0.985" transform="translate(10.132 33.213)" fill="none" stroke="#fb9a00" stroke-linecap="round" stroke-linejoin="round" stroke-width="0.323"/>
        <line id="Línea_1010" data-name="Línea 1010" y1="1.851" x2="0.986" transform="translate(26.483 2.548)" fill="none" stroke="#fb9a00" stroke-linecap="round" stroke-linejoin="round" stroke-width="0.323"/>
        <line id="Línea_1011" data-name="Línea 1011" x2="1.847" y2="0.985" transform="translate(2.545 10.137)" fill="none" stroke="#fb9a00" stroke-linecap="round" stroke-linejoin="round" stroke-width="0.323"/>
        <line id="Línea_1012" data-name="Línea 1012" x2="1.848" y2="0.986" transform="translate(33.208 26.488)" fill="none" stroke="#fb9a00" stroke-linecap="round" stroke-linejoin="round" stroke-width="0.323"/>
        <line id="Línea_1013" data-name="Línea 1013" x1="0.61" y1="2.005" transform="translate(23.555 34.425)" fill="none" stroke="#fb9a00" stroke-linecap="round" stroke-linejoin="round" stroke-width="0.323"/>
        <line id="Línea_1014" data-name="Línea 1014" x1="0.611" y1="2.004" transform="translate(13.434 1.181)" fill="none" stroke="#fb9a00" stroke-linecap="round" stroke-linejoin="round" stroke-width="0.323"/>
        <line id="Línea_1015" data-name="Línea 1015" y1="0.61" x2="2.004" transform="translate(1.176 23.56)" fill="none" stroke="#fb9a00" stroke-linecap="round" stroke-linejoin="round" stroke-width="0.323"/>
        <line id="Línea_1016" data-name="Línea 1016" y1="0.61" x2="2.003" transform="translate(34.421 13.441)" fill="none" stroke="#fb9a00" stroke-linecap="round" stroke-linejoin="round" stroke-width="0.323"/>
        <line id="Línea_1017" data-name="Línea 1017" y1="2.02" x2="0.553" transform="translate(13.933 34.554)" fill="none" stroke="#fb9a00" stroke-linecap="round" stroke-linejoin="round" stroke-width="0.323"/>
        <line id="Línea_1018" data-name="Línea 1018" y1="2.02" x2="0.553" transform="translate(23.115 1.037)" fill="none" stroke="#fb9a00" stroke-linecap="round" stroke-linejoin="round" stroke-width="0.323"/>
        <line id="Línea_1019" data-name="Línea 1019" x2="2.018" y2="0.553" transform="translate(1.033 13.938)" fill="none" stroke="#fb9a00" stroke-linecap="round" stroke-linejoin="round" stroke-width="0.323"/>
        <line id="Línea_1020" data-name="Línea 1020" x2="2.022" y2="0.553" transform="translate(34.547 23.12)" fill="none" stroke="#fb9a00" stroke-linecap="round" stroke-linejoin="round" stroke-width="0.323"/>
        <line id="Línea_1021" data-name="Línea 1021" x1="1.038" y1="1.82" transform="translate(26.885 32.991)" fill="none" stroke="#fb9a00" stroke-linecap="round" stroke-linejoin="round" stroke-width="0.323"/>
        <line id="Línea_1022" data-name="Línea 1022" x1="1.037" y1="1.82" transform="translate(9.678 2.8)" fill="none" stroke="#fb9a00" stroke-linecap="round" stroke-linejoin="round" stroke-width="0.323"/>
        <line id="Línea_1023" data-name="Línea 1023" y1="1.036" x2="1.82" transform="translate(2.794 26.891)" fill="none" stroke="#fb9a00" stroke-linecap="round" stroke-linejoin="round" stroke-width="0.323"/>
        <line id="Línea_1024" data-name="Línea 1024" y1="1.037" x2="1.82" transform="translate(32.986 9.683)" fill="none" stroke="#fb9a00" stroke-linecap="round" stroke-linejoin="round" stroke-width="0.323"/>
        <line id="Línea_1025" data-name="Línea 1025" y1="1.638" x2="1.306" transform="translate(7.313 31.57)" fill="none" stroke="#fb9a00" stroke-linecap="round" stroke-linejoin="round" stroke-width="0.323"/>
        <line id="Línea_1026" data-name="Línea 1026" y1="1.637" x2="1.306" transform="translate(28.98 4.403)" fill="none" stroke="#fb9a00" stroke-linecap="round" stroke-linejoin="round" stroke-width="0.323"/>
        <line id="Línea_1027" data-name="Línea 1027" x2="1.638" y2="1.307" transform="translate(4.397 7.319)" fill="none" stroke="#fb9a00" stroke-linecap="round" stroke-linejoin="round" stroke-width="0.323"/>
        <line id="Línea_1028" data-name="Línea 1028" x2="1.636" y2="1.306" transform="translate(31.567 28.986)" fill="none" stroke="#fb9a00" stroke-linecap="round" stroke-linejoin="round" stroke-width="0.323"/>
        <line id="Línea_1029" data-name="Línea 1029" x1="0.236" y1="2.081" transform="translate(20.628 35.031)" fill="none" stroke="#fb9a00" stroke-linecap="round" stroke-linejoin="round" stroke-width="0.323"/>
        <line id="Línea_1030" data-name="Línea 1030" x1="0.234" y1="2.081" transform="translate(16.737 0.499)" fill="none" stroke="#fb9a00" stroke-linecap="round" stroke-linejoin="round" stroke-width="0.323"/>
        <line id="Línea_1031" data-name="Línea 1031" y1="0.235" x2="2.081" transform="translate(0.494 20.633)" fill="none" stroke="#fb9a00" stroke-linecap="round" stroke-linejoin="round" stroke-width="0.323"/>
        <line id="Línea_1032" data-name="Línea 1032" y1="0.235" x2="2.08" transform="translate(35.026 16.743)" fill="none" stroke="#fb9a00" stroke-linecap="round" stroke-linejoin="round" stroke-width="0.323"/>
      </g>
      <path id="Trazado_161839" data-name="Trazado 161839" d="M53.445,238.971l-24.718-94.85,95.422,25.78Z" transform="translate(-28.727 -60.093)" fill="#ec9227"/>
      <path id="Trazado_161840" data-name="Trazado 161840" d="M192.692,208.313l-24.718-94.85-70.7,69.072Z" transform="translate(1.441 -73.585)" fill="#ec9227"/>
      <path id="Trazado_161841" data-name="Trazado 161841" d="M215.306,191.514,45.891,235.663l68.563-84.028Z" transform="translate(-21.172 -56.786)" fill="#e78027"/>
    </g>
    <g id="Grupo_69981" data-name="Grupo 69981" transform="translate(137.304 181.272)">
      <g id="Grupo_69978" data-name="Grupo 69978" transform="translate(0 4.292)">
        <rect id="Rectángulo_20570" data-name="Rectángulo 20570" width="101.592" height="109.94" rx="5.315" transform="translate(1.392 1.392)" fill="#eaeaea"/>
        <path id="Trazado_161842" data-name="Trazado 161842" d="M199.451,151.991a6.262,6.262,0,0,1,6.263,6.262v94.632a6.262,6.262,0,0,1-6.263,6.263H113.167a6.261,6.261,0,0,1-6.262-6.263V158.252a6.26,6.26,0,0,1,6.262-6.262h86.284m0-2.784H113.167a9.056,9.056,0,0,0-9.045,9.045v94.632a9.055,9.055,0,0,0,9.045,9.045h86.284a9.055,9.055,0,0,0,9.045-9.045V158.252a9.056,9.056,0,0,0-9.045-9.045Z" transform="translate(-104.122 -149.207)" fill="#fff"/>
      </g>
      <path id="Trazado_161843" data-name="Trazado 161843" d="M204.864,187.783V157.4a6.262,6.262,0,0,0-6.263-6.262H112.317a6.26,6.26,0,0,0-6.262,6.262v30.382Z" transform="translate(-103.271 -144.065)" fill="#d9000d"/>
      <path id="Trazado_161844" data-name="Trazado 161844" d="M115.821,156.206a2.87,2.87,0,1,1-2.87-2.87A2.87,2.87,0,0,1,115.821,156.206Z" transform="translate(-101.499 -143.098)" fill="#fff"/>
      <path id="Trazado_161845" data-name="Trazado 161845" d="M123.985,156.206a2.871,2.871,0,1,1-2.87-2.87A2.871,2.871,0,0,1,123.985,156.206Z" transform="translate(-97.907 -143.098)" fill="#fff"/>
      <path id="Trazado_161846" data-name="Trazado 161846" d="M132.147,156.206a2.871,2.871,0,1,1-2.872-2.87A2.871,2.871,0,0,1,132.147,156.206Z" transform="translate(-94.315 -143.098)" fill="#fff"/>
      <path id="Trazado_161847" data-name="Trazado 161847" d="M140.308,156.206a2.87,2.87,0,1,1-2.87-2.87A2.871,2.871,0,0,1,140.308,156.206Z" transform="translate(-90.723 -143.098)" fill="#fff"/>
      <path id="Trazado_161848" data-name="Trazado 161848" d="M148.47,156.206a2.87,2.87,0,1,1-2.87-2.87A2.871,2.871,0,0,1,148.47,156.206Z" transform="translate(-87.13 -143.098)" fill="#fff"/>
      <path id="Trazado_161849" data-name="Trazado 161849" d="M156.632,156.206a2.87,2.87,0,1,1-2.87-2.87A2.87,2.87,0,0,1,156.632,156.206Z" transform="translate(-83.538 -143.098)" fill="#fff"/>
      <path id="Trazado_161850" data-name="Trazado 161850" d="M164.8,156.206a2.87,2.87,0,1,1-2.87-2.87A2.871,2.871,0,0,1,164.8,156.206Z" transform="translate(-79.946 -143.098)" fill="#fff"/>
      <path id="Trazado_161851" data-name="Trazado 161851" d="M172.957,156.206a2.87,2.87,0,1,1-2.87-2.87A2.87,2.87,0,0,1,172.957,156.206Z" transform="translate(-76.354 -143.098)" fill="#fff"/>
      <g id="Grupo_69979" data-name="Grupo 69979" transform="translate(33.082 54.882)">
        <path id="Trazado_161852" data-name="Trazado 161852" d="M137.986,230.206h-8.468V194.76h-.35a1.832,1.832,0,0,1-2.074-2.072v-4.934a1.991,1.991,0,0,1,1.344-1.986l3.533-1.285a2.023,2.023,0,0,1,.73-.147h3.211a1.846,1.846,0,0,1,2.074,2.1Z" transform="translate(-127.094 -184.337)" fill="#0a2d64"/>
        <path id="Trazado_161853" data-name="Trazado 161853" d="M154.341,230.147h-8.38a8.179,8.179,0,0,1-5.912-2.512,8,8,0,0,1-2.555-5.9v-1.606a1.858,1.858,0,0,1,2.1-2.1h4.263a1.858,1.858,0,0,1,2.1,2.1v1.606h8.38V208.365h-8.38a8.184,8.184,0,0,1-5.912-2.51,8,8,0,0,1-2.555-5.9V186.44a1.858,1.858,0,0,1,2.1-2.1h20.788a1.858,1.858,0,0,1,2.1,2.1v4.292a1.845,1.845,0,0,1-2.1,2.074H145.992V199.9h8.379a8.207,8.207,0,0,1,5.9,2.512,7.987,7.987,0,0,1,2.569,5.9v13.4a8.005,8.005,0,0,1-2.585,5.912A8.219,8.219,0,0,1,154.341,230.147Z" transform="translate(-122.516 -184.337)" fill="#0a2d64"/>
      </g>
      <g id="Grupo_69980" data-name="Grupo 69980" transform="translate(38.437 22.388)">
        <path id="Trazado_161854" data-name="Trazado 161854" d="M136.539,173.929l-.467-2.346H133.63l-.467,2.346a.527.527,0,0,1-.57.467h-1.2a.548.548,0,0,1-.451-.209.532.532,0,0,1-.119-.482l2.3-11.465a.518.518,0,0,1,.563-.467h2.33a.527.527,0,0,1,.57.467l2.29,11.465a.562.562,0,0,1-.12.482.554.554,0,0,1-.442.209H137.11A.52.52,0,0,1,136.539,173.929Zm-.932-4.676-.756-3.776-.756,3.776Z" transform="translate(-130.812 -161.773)" fill="#fff"/>
        <path id="Trazado_161855" data-name="Trazado 161855" d="M141.9,170.113h-2.347v3.7a.508.508,0,0,1-.57.579H137.8a.511.511,0,0,1-.577-.579V162.352a.511.511,0,0,1,.577-.579h4.106a2.262,2.262,0,0,1,1.632.7,2.226,2.226,0,0,1,.714,1.636v3.664a2.22,2.22,0,0,1-.714,1.639A2.284,2.284,0,0,1,141.9,170.113Zm.023-2.33V164.1h-2.37v3.679Z" transform="translate(-127.989 -161.773)" fill="#fff"/>
        <path id="Trazado_161856" data-name="Trazado 161856" d="M149.559,174.4H148.3a.529.529,0,0,1-.531-.37l-1.848-4.773h-.691v4.564a.512.512,0,0,1-.579.579h-1.179a.511.511,0,0,1-.579-.579V162.352a.511.511,0,0,1,.579-.579h4.1a2.269,2.269,0,0,1,1.639.7,2.227,2.227,0,0,1,.716,1.636v2.8a2.164,2.164,0,0,1-.458,1.342,2.483,2.483,0,0,1-1.125.851l1.751,4.508a.55.55,0,0,1-.056.539A.56.56,0,0,1,149.559,174.4Zm-1.97-7.48V164.1h-2.362v2.813Z" transform="translate(-125.497 -161.773)" fill="#fff"/>
        <path id="Trazado_161857" data-name="Trazado 161857" d="M150.513,174.4h-1.181a.512.512,0,0,1-.579-.579V162.352a.512.512,0,0,1,.579-.579h1.181a.512.512,0,0,1,.579.579v11.465A.512.512,0,0,1,150.513,174.4Z" transform="translate(-122.916 -161.773)" fill="#fff"/>
        <path id="Trazado_161858" data-name="Trazado 161858" d="M156.364,174.4h-2.98a2.23,2.23,0,0,1-2.226-2.218v-9.826a.512.512,0,0,1,.579-.579h1.181a.512.512,0,0,1,.579.579v9.714h2.867a.507.507,0,0,1,.57.579v1.172A.507.507,0,0,1,156.364,174.4Z" transform="translate(-121.858 -161.773)" fill="#fff"/>
      </g>
      <path id="Trazado_161859" data-name="Trazado 161859" d="M114.308,158.1c0,1.257-.766,2.277-1.711,2.277h0c-.945,0-1.711-1.02-1.711-2.277v-9.6c0-1.257.766-2.277,1.711-2.277h0c.945,0,1.711,1.02,1.711,2.277Z" transform="translate(-101.145 -146.227)" fill="#ffac00"/>
      <path id="Trazado_161860" data-name="Trazado 161860" d="M112.4,146.246a2.136,2.136,0,0,0-1.509,2.249v9.6a2.137,2.137,0,0,0,1.509,2.249Z" transform="translate(-101.145 -146.219)" fill="#e6c5ae" style="mix-blend-mode: multiply;isolation: isolate"/>
      <path id="Trazado_161861" data-name="Trazado 161861" d="M113.574,152.15c0,3.3.03,7.713-1.352,7.886.86-1.024.838-4.182.889-7.48.076-5-.664-5.556-.87-6.146C112.827,146.432,113.806,147.193,113.574,152.15Z" transform="translate(-100.557 -146.146)" fill="#fff" style="mix-blend-mode: soft-light;isolation: isolate"/>
      <path id="Trazado_161862" data-name="Trazado 161862" d="M122.471,158.1c0,1.257-.768,2.277-1.711,2.277h0c-.946,0-1.711-1.02-1.711-2.277v-9.6c0-1.257.765-2.277,1.711-2.277h0c.943,0,1.711,1.02,1.711,2.277Z" transform="translate(-97.553 -146.227)" fill="#ffac00"/>
      <path id="Trazado_161863" data-name="Trazado 161863" d="M120.555,146.246a2.135,2.135,0,0,0-1.506,2.249v9.6a2.136,2.136,0,0,0,1.506,2.249Z" transform="translate(-97.553 -146.219)" fill="#e6c5ae" style="mix-blend-mode: multiply;isolation: isolate"/>
      <path id="Trazado_161864" data-name="Trazado 161864" d="M121.737,152.15c0,3.3.029,7.713-1.352,7.886.858-1.024.838-4.182.887-7.48.076-5-.665-5.556-.87-6.146C120.988,146.432,121.968,147.193,121.737,152.15Z" transform="translate(-96.965 -146.146)" fill="#fff" style="mix-blend-mode: soft-light;isolation: isolate"/>
      <path id="Trazado_161865" data-name="Trazado 161865" d="M130.632,158.1c0,1.257-.763,2.277-1.709,2.277h0c-.945,0-1.712-1.02-1.712-2.277v-9.6c0-1.257.768-2.277,1.712-2.277h0c.946,0,1.709,1.02,1.709,2.277Z" transform="translate(-93.961 -146.227)" fill="#ffac00"/>
      <path id="Trazado_161866" data-name="Trazado 161866" d="M128.719,146.246a2.136,2.136,0,0,0-1.509,2.249v9.6a2.137,2.137,0,0,0,1.509,2.249Z" transform="translate(-93.961 -146.219)" fill="#e6c5ae" style="mix-blend-mode: multiply;isolation: isolate"/>
      <path id="Trazado_161867" data-name="Trazado 161867" d="M129.9,152.15c0,3.3.027,7.713-1.352,7.886.86-1.024.838-4.182.889-7.48.076-5-.665-5.556-.87-6.146C129.152,146.432,130.131,147.193,129.9,152.15Z" transform="translate(-93.372 -146.146)" fill="#fff" style="mix-blend-mode: soft-light;isolation: isolate"/>
      <path id="Trazado_161868" data-name="Trazado 161868" d="M138.793,158.1c0,1.257-.765,2.277-1.709,2.277h0c-.945,0-1.711-1.02-1.711-2.277v-9.6c0-1.257.766-2.277,1.711-2.277h0c.945,0,1.709,1.02,1.709,2.277Z" transform="translate(-90.368 -146.227)" fill="#ffac00"/>
      <path id="Trazado_161869" data-name="Trazado 161869" d="M136.881,146.246a2.136,2.136,0,0,0-1.508,2.249v9.6a2.137,2.137,0,0,0,1.508,2.249Z" transform="translate(-90.368 -146.219)" fill="#e6c5ae" style="mix-blend-mode: multiply;isolation: isolate"/>
      <path id="Trazado_161870" data-name="Trazado 161870" d="M138.061,152.15c0,3.3.029,7.713-1.352,7.886.86-1.024.84-4.182.889-7.48.078-5-.665-5.556-.87-6.146C137.312,146.432,138.295,147.193,138.061,152.15Z" transform="translate(-89.78 -146.146)" fill="#fff" style="mix-blend-mode: soft-light;isolation: isolate"/>
      <path id="Trazado_161871" data-name="Trazado 161871" d="M146.957,158.1c0,1.257-.766,2.277-1.711,2.277h0c-.945,0-1.711-1.02-1.711-2.277v-9.6c0-1.257.766-2.277,1.711-2.277h0c.945,0,1.711,1.02,1.711,2.277Z" transform="translate(-86.776 -146.227)" fill="#ffac00"/>
      <path id="Trazado_161872" data-name="Trazado 161872" d="M145.043,146.246a2.136,2.136,0,0,0-1.508,2.249v9.6a2.137,2.137,0,0,0,1.508,2.249Z" transform="translate(-86.776 -146.219)" fill="#e6c5ae" style="mix-blend-mode: multiply;isolation: isolate"/>
      <path id="Trazado_161873" data-name="Trazado 161873" d="M146.224,152.15c0,3.3.029,7.713-1.352,7.886.858-1.024.837-4.182.889-7.48.076-5-.667-5.556-.87-6.146C145.477,146.432,146.456,147.193,146.224,152.15Z" transform="translate(-86.188 -146.146)" fill="#fff" style="mix-blend-mode: soft-light;isolation: isolate"/>
      <path id="Trazado_161874" data-name="Trazado 161874" d="M155.12,158.1c0,1.257-.766,2.277-1.711,2.277h0c-.945,0-1.711-1.02-1.711-2.277v-9.6c0-1.257.766-2.277,1.711-2.277h0c.945,0,1.711,1.02,1.711,2.277Z" transform="translate(-83.184 -146.227)" fill="#ffac00"/>
      <path id="Trazado_161875" data-name="Trazado 161875" d="M153.206,146.246A2.135,2.135,0,0,0,151.7,148.5v9.6a2.136,2.136,0,0,0,1.508,2.249Z" transform="translate(-83.184 -146.219)" fill="#e6c5ae" style="mix-blend-mode: multiply;isolation: isolate"/>
      <path id="Trazado_161876" data-name="Trazado 161876" d="M154.387,152.15c0,3.3.029,7.713-1.354,7.886.861-1.024.841-4.182.889-7.48.078-5-.665-5.556-.87-6.146C153.638,146.432,154.619,147.193,154.387,152.15Z" transform="translate(-82.596 -146.146)" fill="#fff" style="mix-blend-mode: soft-light;isolation: isolate"/>
      <path id="Trazado_161877" data-name="Trazado 161877" d="M163.281,158.1c0,1.257-.766,2.277-1.711,2.277h0c-.945,0-1.709-1.02-1.709-2.277v-9.6c0-1.257.765-2.277,1.709-2.277h0c.945,0,1.711,1.02,1.711,2.277Z" transform="translate(-79.591 -146.227)" fill="#ffac00"/>
      <path id="Trazado_161878" data-name="Trazado 161878" d="M161.367,146.246a2.134,2.134,0,0,0-1.506,2.249v9.6a2.135,2.135,0,0,0,1.506,2.249Z" transform="translate(-79.591 -146.219)" fill="#e6c5ae" style="mix-blend-mode: multiply;isolation: isolate"/>
      <path id="Trazado_161879" data-name="Trazado 161879" d="M162.548,152.15c0,3.3.029,7.713-1.351,7.886.86-1.024.837-4.182.887-7.48.076-5-.664-5.556-.87-6.146C161.8,146.432,162.78,147.193,162.548,152.15Z" transform="translate(-79.003 -146.146)" fill="#fff" style="mix-blend-mode: soft-light;isolation: isolate"/>
      <path id="Trazado_161880" data-name="Trazado 161880" d="M171.444,158.1c0,1.257-.765,2.277-1.709,2.277h0c-.946,0-1.712-1.02-1.712-2.277v-9.6c0-1.257.766-2.277,1.712-2.277h0c.945,0,1.709,1.02,1.709,2.277Z" transform="translate(-75.999 -146.227)" fill="#ffac00"/>
      <path id="Trazado_161881" data-name="Trazado 161881" d="M169.531,146.246a2.136,2.136,0,0,0-1.509,2.249v9.6a2.137,2.137,0,0,0,1.509,2.249Z" transform="translate(-75.999 -146.219)" fill="#e6c5ae" style="mix-blend-mode: multiply;isolation: isolate"/>
      <path id="Trazado_161882" data-name="Trazado 161882" d="M170.711,152.15c0,3.3.029,7.713-1.352,7.886.86-1.024.838-4.182.889-7.48.075-5-.665-5.556-.871-6.146C169.962,146.432,170.942,147.193,170.711,152.15Z" transform="translate(-75.411 -146.146)" fill="#fff" style="mix-blend-mode: soft-light;isolation: isolate"/>
    </g>
    <g id="Grupo_69982" data-name="Grupo 69982" transform="translate(397.642 172.102)">
      <path id="Trazado_161883" data-name="Trazado 161883" d="M352.7,230.843a6.082,6.082,0,0,1-6.145,6.017H291.045a6.081,6.081,0,0,1-6.146-6.017V145.876a6.081,6.081,0,0,1,6.146-6.017h55.507a6.082,6.082,0,0,1,6.145,6.017Z" transform="translate(-284.899 -139.859)" fill="#979797"/>
      <path id="Trazado_161884" data-name="Trazado 161884" d="M348.807,226.225a5.661,5.661,0,0,1-5.606,5.713H292.574a5.66,5.66,0,0,1-5.6-5.713V145.57a5.659,5.659,0,0,1,5.6-5.711H343.2a5.66,5.66,0,0,1,5.606,5.711Z" transform="translate(-283.988 -139.859)" fill="#bababa"/>
      <path id="Trazado_161885" data-name="Trazado 161885" d="M342.369,170.4a2.089,2.089,0,0,1-1.84,2.268H292.672a2.09,2.09,0,0,1-1.84-2.268V150.582a2.089,2.089,0,0,1,1.84-2.268h47.856a2.088,2.088,0,0,1,1.84,2.268Z" transform="translate(-282.288 -136.138)" fill="#353e44"/>
      <path id="Trazado_161886" data-name="Trazado 161886" d="M338.354,167.568a1.838,1.838,0,0,1-1.62,2H294.588a1.837,1.837,0,0,1-1.62-2v-13.5a1.838,1.838,0,0,1,1.62-2h42.146a1.839,1.839,0,0,1,1.62,2Z" transform="translate(-281.348 -134.486)" fill="#77ab16"/>
      <path id="Rectángulo_20571" data-name="Rectángulo 20571" d="M1.011,0h9.895a1.012,1.012,0,0,1,1.012,1.012V4.166a1.011,1.011,0,0,1-1.011,1.011h-9.9A1.011,1.011,0,0,1,0,4.166V1.011A1.011,1.011,0,0,1,1.011,0Z" transform="translate(8.544 42.528)" fill="#d9000d"/>
      <path id="Rectángulo_20572" data-name="Rectángulo 20572" d="M1.011,0h9.9a1.01,1.01,0,0,1,1.01,1.01V4.166a1.011,1.011,0,0,1-1.011,1.011H1.011A1.011,1.011,0,0,1,0,4.166V1.011A1.011,1.011,0,0,1,1.011,0Z" transform="translate(21.752 42.528)" fill="#2c3f6b"/>
      <path id="Rectángulo_20573" data-name="Rectángulo 20573" d="M1.011,0h9.9a1.011,1.011,0,0,1,1.011,1.011V4.167a1.011,1.011,0,0,1-1.011,1.011h-9.9A1.012,1.012,0,0,1,0,4.166V1.011A1.011,1.011,0,0,1,1.011,0Z" transform="translate(34.958 42.528)" fill="#2c3f6b"/>
      <path id="Rectángulo_20574" data-name="Rectángulo 20574" d="M1.011,0h9.895a1.012,1.012,0,0,1,1.012,1.012V4.166a1.011,1.011,0,0,1-1.011,1.011H1.01A1.01,1.01,0,0,1,0,4.167V1.011A1.011,1.011,0,0,1,1.011,0Z" transform="translate(48.164 42.528)" fill="#2c3f6b"/>
      <path id="Rectángulo_20575" data-name="Rectángulo 20575" d="M1.011,0h9.895a1.012,1.012,0,0,1,1.012,1.012V8.7a1.011,1.011,0,0,1-1.011,1.011H1.011A1.011,1.011,0,0,1,0,8.7V1.011A1.011,1.011,0,0,1,1.011,0Z" transform="translate(8.544 48.78)" fill="#2c3f6b"/>
      <path id="Rectángulo_20576" data-name="Rectángulo 20576" d="M1.01,0h9.9a1.01,1.01,0,0,1,1.01,1.01V8.7a1.011,1.011,0,0,1-1.011,1.011H1.011A1.011,1.011,0,0,1,0,8.7V1.01A1.01,1.01,0,0,1,1.01,0Z" transform="translate(21.752 48.78)" fill="#2c3f6b"/>
      <path id="Rectángulo_20577" data-name="Rectángulo 20577" d="M1.012,0h9.9a1.011,1.011,0,0,1,1.011,1.011V8.7a1.011,1.011,0,0,1-1.011,1.011H1.011A1.011,1.011,0,0,1,0,8.7V1.012A1.012,1.012,0,0,1,1.012,0Z" transform="translate(34.958 48.78)" fill="#2c3f6b"/>
      <path id="Rectángulo_20578" data-name="Rectángulo 20578" d="M1.01,0h9.9a1.01,1.01,0,0,1,1.01,1.01V8.7a1.011,1.011,0,0,1-1.011,1.011H1.01A1.01,1.01,0,0,1,0,8.7V1.01A1.01,1.01,0,0,1,1.01,0Z" transform="translate(48.164 48.78)" fill="#e8e8e8"/>
      <path id="Rectángulo_20579" data-name="Rectángulo 20579" d="M1.011,0h9.9a1.012,1.012,0,0,1,1.012,1.012V8.7a1.01,1.01,0,0,1-1.01,1.01h-9.9A1.011,1.011,0,0,1,0,8.7V1.011A1.011,1.011,0,0,1,1.011,0Z" transform="translate(8.544 60.922)" fill="#2c3f6b"/>
      <path id="Rectángulo_20580" data-name="Rectángulo 20580" d="M1.011,0h9.9a1.01,1.01,0,0,1,1.01,1.01V8.7a1.01,1.01,0,0,1-1.01,1.01h-9.9A1.011,1.011,0,0,1,0,8.7V1.011A1.011,1.011,0,0,1,1.011,0Z" transform="translate(21.752 60.922)" fill="#2c3f6b"/>
      <path id="Rectángulo_20581" data-name="Rectángulo 20581" d="M1.011,0h9.9a1.011,1.011,0,0,1,1.011,1.011V8.7a1.01,1.01,0,0,1-1.01,1.01h-9.9A1.012,1.012,0,0,1,0,8.7V1.011A1.011,1.011,0,0,1,1.011,0Z" transform="translate(34.958 60.922)" fill="#2c3f6b"/>
      <path id="Rectángulo_20582" data-name="Rectángulo 20582" d="M1.01,0h9.9a1.012,1.012,0,0,1,1.012,1.012V8.7a1.011,1.011,0,0,1-1.011,1.011h-9.9A1.011,1.011,0,0,1,0,8.7V1.01A1.01,1.01,0,0,1,1.01,0Z" transform="translate(8.544 73.063)" fill="#2c3f6b"/>
      <path id="Rectángulo_20583" data-name="Rectángulo 20583" d="M1.01,0h9.9a1.01,1.01,0,0,1,1.01,1.01V8.7a1.011,1.011,0,0,1-1.011,1.011h-9.9A1.011,1.011,0,0,1,0,8.7V1.01A1.01,1.01,0,0,1,1.01,0Z" transform="translate(21.752 73.063)" fill="#2c3f6b"/>
      <path id="Rectángulo_20584" data-name="Rectángulo 20584" d="M1.01,0h9.9a1.011,1.011,0,0,1,1.011,1.011V8.7a1.011,1.011,0,0,1-1.011,1.011H1.012A1.012,1.012,0,0,1,0,8.7V1.01A1.01,1.01,0,0,1,1.01,0Z" transform="translate(34.958 73.063)" fill="#2c3f6b"/>
      <path id="Trazado_161887" data-name="Trazado 161887" d="M328.806,182.163H319.8a1.455,1.455,0,0,0-1.456,1.455v18.943a1.455,1.455,0,0,0,1.456,1.455h9.006a1.454,1.454,0,0,0,1.455-1.455V183.618A1.454,1.454,0,0,0,328.806,182.163Z" transform="translate(-270.18 -121.241)" fill="#e8e8e8"/>
    </g>
  </g>
</svg>
