<svg xmlns="http://www.w3.org/2000/svg" width="84.896" height="82" viewBox="0 0 84.896 82">
  <g id="Grupo_74741" data-name="Grupo 74741" transform="translate(-1841.979 735.046)">
    <path id="Trazado_168668" data-name="Trazado 168668" d="M2061.957-707.722c0-6.822-.018-13.645.01-20.467a6.624,6.624,0,0,1,3.433-5.931,6.911,6.911,0,0,1,3.666-.926q8.692.017,17.385,0,11.5,0,23,0c4.395,0,7.277,2.893,7.278,7.3q0,20.124,0,40.249a6.663,6.663,0,0,1-4.1,6.6,8.17,8.17,0,0,1-3.185.605c-6.456.052-12.913.023-19.369.022q-10.54,0-21.081,0a6.808,6.808,0,0,1-6.952-5.831,8.847,8.847,0,0,1-.083-1.5Q2061.952-697.66,2061.957-707.722Zm27.454-24.576v0q-10.094,0-20.188,0c-2.851,0-4.517,1.663-4.519,4.5q-.009,20.122-.005,40.245c0,2.866,1.681,4.539,4.555,4.539q12.113,0,24.226,0,8.144,0,16.288-.009a4.009,4.009,0,0,0,3.967-2.787,7.251,7.251,0,0,0,.24-2.09q.02-19.951.009-39.9a4.146,4.146,0,0,0-4.52-4.5Q2099.437-732.3,2089.411-732.3Z" transform="translate(-189.855)" fill="#a0a603"/>
    <path id="Trazado_168669" data-name="Trazado 168669" d="M1855.662-316.362h-2.733c0-.28,0-.524,0-.768,0-2.031.018-4.062-.024-6.092a1.731,1.731,0,0,0-.43-1.064q-4.576-4.809-9.2-9.57a4.145,4.145,0,0,1-1.288-3.13,4.056,4.056,0,0,1,3.962-3.893c3.4.12,6.8.029,10.2.043a.986.986,0,0,0,.948-.484,8.168,8.168,0,0,1,13.563-.031,1.051,1.051,0,0,0,1,.515c3.331-.013,6.662-.022,9.994,0a4.1,4.1,0,0,1,4.135,4.261,4.181,4.181,0,0,1-1.281,2.723q-4.624,4.764-9.214,9.561a1.728,1.728,0,0,0-.431,1.065c-.041,2.03-.019,4.061-.018,6.092v.771H1872.1v-.727c0-2.282.02-4.564-.012-6.846a2.312,2.312,0,0,1,.7-1.769q4.8-4.926,9.568-9.885c.437-.452.891-.906.591-1.609a1.581,1.581,0,0,0-1.682-.9c-2.852.016-5.7,0-8.556,0-.222,0-.445.019-.7.03v3.259l3.583-1.77,1.214,2.414c-.228.128-.414.242-.608.339-2.3,1.154-4.611,2.3-6.912,3.459-.792.4-1.54.9-2.357,1.237a7.944,7.944,0,0,1-6.935-.37c-2.776-1.431-5.545-2.875-8.341-4.265-.611-.3-.68-.574-.342-1.121.321-.518.561-1.088.864-1.69l3.572,1.755V-338.1h-.776c-2.92,0-5.841.013-8.761-.011a1.26,1.26,0,0,0-1.376.758,1.35,1.35,0,0,0,.377,1.556q2.8,2.906,5.609,5.81c1.41,1.46,2.835,2.907,4.222,4.39a1.943,1.943,0,0,1,.589,1.107C1855.685-321.8,1855.662-319.115,1855.662-316.362Zm2.75-20.392a5.476,5.476,0,0,0,5.467,5.492,5.5,5.5,0,0,0,5.477-5.493,5.5,5.5,0,0,0-5.443-5.455A5.472,5.472,0,0,0,1858.411-336.754Z" transform="translate(0 -336.684)" fill="#a0a603"/>
    <path id="Trazado_168670" data-name="Trazado 168670" d="M1876.906-503.407c1.135,1.635,2.223,3.182,3.287,4.745a3.976,3.976,0,0,1,.291,4.395,3.914,3.914,0,0,1-3.572,2.142,4.041,4.041,0,0,1-4.016-3.174,4.073,4.073,0,0,1,2.161-4.586c.2-.1.406-.189.686-.319-.323-.484-.613-.936-.919-1.377q-2.147-3.091-4.3-6.177c-.091-.131-.185-.26-.27-.4a1.357,1.357,0,0,1,1.118-2.24,5.514,5.514,0,0,0,5.4-3.764,1.342,1.342,0,0,1,2.445-.276c1.028,1.423,2.007,2.882,3.02,4.317a1.675,1.675,0,0,1,.109,1.748,8.263,8.263,0,0,1-4.917,4.752C1877.282-503.563,1877.14-503.5,1876.906-503.407Zm-3.079-4.434c.341.5.665,1.041,1.065,1.522a.934.934,0,0,0,.718.3,5.151,5.151,0,0,0,3.824-2.674.651.651,0,0,0,.043-.549c-.369-.594-.786-1.158-1.182-1.727a21.983,21.983,0,0,1-2.022,1.8A23.613,23.613,0,0,1,1873.827-507.841Zm1.718,11.633a1.332,1.332,0,0,0,1.34,1.338,1.378,1.378,0,0,0,1.371-1.394,1.4,1.4,0,0,0-1.393-1.311A1.35,1.35,0,0,0,1875.545-496.207Z" transform="translate(-24.144 -189.829)" fill="#a0a603"/>
    <path id="Trazado_168671" data-name="Trazado 168671" d="M2107.677-670.818h-12.495c-1.435,0-1.858-.43-1.859-1.888q0-9.138,0-18.276a1.252,1.252,0,0,0-.463-1.121,2.465,2.465,0,0,1-.906-1.989c0-1.848-.021-3.7.006-5.544a2.714,2.714,0,0,1,2.669-2.672c.906-.024,1.813,0,2.8,0,0-.478-.011-.882,0-1.286a1.357,1.357,0,0,1,1.4-1.447q2.019-.035,4.038,0a1.352,1.352,0,0,1,1.4,1.377c.021.409,0,.819,0,1.292h8.218c0-.427-.016-.854,0-1.28a1.346,1.346,0,0,1,1.389-1.386q2.019-.037,4.038,0a1.357,1.357,0,0,1,1.413,1.435c.015.4,0,.81,0,1.292.891,0,1.706-.005,2.521,0a2.762,2.762,0,0,1,2.956,2.95c.007,1.688-.007,3.377.005,5.065a2.918,2.918,0,0,1-1.047,2.353.865.865,0,0,0-.306.551c-.018,3.17-.013,6.339-.013,9.567h6.837c0-.834.013-1.649,0-2.463a1.436,1.436,0,0,1,.752-1.425,1.38,1.38,0,0,1,1.59.219c1.731,1.3,3.473,2.593,5.2,3.907a1.371,1.371,0,0,1-.017,2.393c-1.723,1.314-3.464,2.6-5.2,3.906a1.372,1.372,0,0,1-1.53.227,1.4,1.4,0,0,1-.792-1.4c.01-.819,0-1.638,0-2.505a5.539,5.539,0,0,0-.555-.058c-3.7,0-7.392-.022-11.087,0a8.21,8.21,0,0,0-8.194,8.726,8.279,8.279,0,0,0,7.659,7.682,8.232,8.232,0,0,0,8.616-6.745,8.191,8.191,0,0,0-1.066-5.72c-.078-.133-.133-.279-.22-.466l2.129-1.488a10.731,10.731,0,0,1,.817,11.244,11.037,11.037,0,0,1-10.95,5.871,10.967,10.967,0,0,1-6.951-3.6A11.085,11.085,0,0,1,2107.677-670.818Zm-11.593-2.79a2.815,2.815,0,0,0,.326.045c3.717,0,7.434-.008,11.151.009.458,0,.561-.236.674-.592a10.666,10.666,0,0,1,3.373-5.048,11.12,11.12,0,0,1,7.865-2.583c.4.016.8,0,1.187,0V-691.3h-24.575Zm23.254-25.94c0,.465.012.871,0,1.276a1.359,1.359,0,0,1-1.418,1.43q-1.984.033-3.97.005a1.374,1.374,0,0,1-1.454-1.467c-.012-.4,0-.806,0-1.21h-8.213c0,.379,0,.7,0,1.015-.01,1.162-.507,1.657-1.675,1.662-1.186.005-2.373.01-3.559,0a1.417,1.417,0,0,1-1.613-1.587c-.006-.375,0-.75,0-1.1h-2.692v5.361h27.285v-5.389Zm-17.848-.068v-2.637h-1.274v2.637Zm15.065,0v-2.645h-1.281v2.645Zm18.3,19.2-1.76-1.305v2.625Z" transform="translate(-215.745 -25.878)" fill="#a0a603"/>
    <path id="Trazado_168672" data-name="Trazado 168672" d="M2256.478-487.6c1.059-.708,2.032-1.38,3.028-2.015a.907.907,0,0,0,.474-.885c-.026-1.362-.01-2.726-.01-4.134h2.741c0,.346,0,.7,0,1.053,0,1.391.039,2.783-.017,4.171a1.742,1.742,0,0,1-.473,1.206c-1.344,1.007-2.763,1.916-4.213,2.9Z" transform="translate(-357.748 -207.492)" fill="#a0a603"/>
    <path id="Trazado_168673" data-name="Trazado 168673" d="M2142.141-571.953v-2.637h19.109v2.637Z" transform="translate(-259.065 -138.487)" fill="#a0a603"/>
    <path id="Trazado_168674" data-name="Trazado 168674" d="M2142.13-521.956v-2.631h9.521v2.631Z" transform="translate(-259.056 -181.644)" fill="#a0a603"/>
  </g>
</svg>
