<svg xmlns="http://www.w3.org/2000/svg" xmlns:xlink="http://www.w3.org/1999/xlink" width="181.074" height="109.315" viewBox="0 0 181.074 109.315">
  <defs>
    <clipPath id="clip-path">
      <rect id="Rect치ngulo_21530" data-name="Rect치ngulo 21530" width="69" height="69" transform="translate(1291 3667)" fill="#fff" stroke="#707070" stroke-width="1"/>
    </clipPath>
  </defs>
  <g id="Grupo_79481" data-name="Grupo 79481" transform="translate(-1237.139 -3626.685)">
    <rect id="Rect치ngulo_21524" data-name="Rect치ngulo 21524" width="181.074" height="11.898" transform="translate(1418.213 3638.583) rotate(180)" fill="#4f5202"/>
    <path id="Trazado_169434" data-name="Trazado 169434" d="M1168.891,1699.232l-18.317,23.8h36.633Z" transform="translate(2496.567 5349.712) rotate(180)" fill="#fff"/>
    <g id="Enmascarar_grupo_82" data-name="Enmascarar grupo 82" clip-path="url(#clip-path)">
      <g id="positive-thinking" transform="translate(1289.887 3665.887)">
        <path id="Trazado_169450" data-name="Trazado 169450" d="M34.5,34.5H32.274a1.113,1.113,0,1,1-2.226,0H27.823a3.339,3.339,0,1,0,6.677,0Z" fill="#fff"/>
        <path id="Trazado_169451" data-name="Trazado 169451" d="M40.065,35.613A1.113,1.113,0,0,1,38.952,34.5H36.726a3.339,3.339,0,1,0,6.677,0H41.177A1.113,1.113,0,0,1,40.065,35.613Z" fill="#fff"/>
        <path id="Trazado_169452" data-name="Trazado 169452" d="M38.952,42.11a3.519,3.519,0,0,1-6.677,0l-.058-.171-2.11.709.058.169a5.744,5.744,0,0,0,10.9,0l.058-.171-2.11-.709Z" fill="#fff"/>
        <path id="Trazado_169453" data-name="Trazado 169453" d="M59.8,11.023l2.932-6.19L56.9,8.475A34.491,34.491,0,0,0,1.113,35.613v3.339H19.538a4.437,4.437,0,0,0,3.833,2.226h.213a12.271,12.271,0,0,0,6.163,8.515L29.2,51.329l-7.312,1.33A13.1,13.1,0,0,0,11.129,65.55v4.563H60.1V65.55a13.1,13.1,0,0,0-10.76-12.891l-7.312-1.33-.546-1.637a12.271,12.271,0,0,0,6.163-8.515h.213a4.437,4.437,0,0,0,3.833-2.226H70.113V35.613A34.631,34.631,0,0,0,59.8,11.023ZM47.855,28.935A3.343,3.343,0,0,0,44.516,25.6H41.177v2.226h3.339a1.113,1.113,0,1,1,0,2.226h-7.79a2.226,2.226,0,1,1,0-4.452V23.371a4.44,4.44,0,0,0-4.068,6.246,8.336,8.336,0,0,1-2.61.432,2.226,2.226,0,1,1,0-4.452V23.371a4.441,4.441,0,0,0-4.4,3.972,8.782,8.782,0,0,0-2.221,4.931h-.053a4.42,4.42,0,0,0-1.672.332A12.267,12.267,0,0,1,33.437,16.694h4.351A12.267,12.267,0,0,1,49.526,32.606a4.42,4.42,0,0,0-1.672-.332ZM36.726,7.834A27.521,27.521,0,0,1,50.778,12.3l-6.187,3.866a14.428,14.428,0,0,0-6.8-1.7H36.726Zm9.922,9.676,10.817-6.761L51.31,23.739a14.576,14.576,0,0,0-4.663-6.23ZM3.339,35.613A32.238,32.238,0,0,1,54.867,9.747l-2.029,1.268a30.024,30.024,0,0,0-47.274,24.6v1.113H3.339ZM7.79,36.726V35.613A27.853,27.853,0,0,1,34.5,7.818v6.65H33.437a14.52,14.52,0,0,0-13.773,19.11l.161.485a4.409,4.409,0,0,0-.906,2.663Zm13.355,0A2.228,2.228,0,0,1,23.371,34.5v4.452A2.228,2.228,0,0,1,21.145,36.726Zm8.6,16.766,3.718,2.975-4.957,2.125L27.04,53.984Zm4.442,9.944h2.848l1.485,4.452H32.706Zm2.984-2.226H34.052l-1.123-2.091,2.684-1.15L38.3,59.12ZM13.355,65.55a10.881,10.881,0,0,1,8.932-10.7l2.546-.463,2.3,7.216,3.74-1.6,1.3,2.427-1.82,5.461h-8.1V63.435H20.032v4.452H13.355Zm41.994-6.961a10.887,10.887,0,0,1,2.522,6.961v2.337H51.194V63.435H48.968v4.452h-8.1l-1.82-5.461L40.351,60l3.74,1.6,2.3-7.216,2.546.463a10.892,10.892,0,0,1,6.41,3.74ZM44.183,53.984l-1.469,4.607-4.957-2.125,3.718-2.975Zm-4.307-2.062-4.264,3.411-4.264-3.411.448-1.344a12.111,12.111,0,0,0,7.63,0Zm-4.264-2.954A10.027,10.027,0,0,1,25.6,38.952V33.2a6.512,6.512,0,0,1,.722-2.958,4.443,4.443,0,0,0,3.729,2.037,10.612,10.612,0,0,0,4.087-.846,4.423,4.423,0,0,0,2.591.846h7.79a3.3,3.3,0,0,0,1.113-.2v6.882A10.027,10.027,0,0,1,35.613,48.968ZM47.855,38.952V34.5a2.226,2.226,0,0,1,0,4.452ZM51.4,34.063l.161-.485a14.1,14.1,0,0,0,.611-6.459L56.728,17.5a27.657,27.657,0,0,1,6.707,18.11v1.113H52.306A4.409,4.409,0,0,0,51.4,34.063Zm16.487,2.663H65.661V35.613a29.89,29.89,0,0,0-7.9-20.294l1.026-2.166a31.93,31.93,0,0,1,9.1,22.46Z" fill="#fff"/>
        <path id="Trazado_169454" data-name="Trazado 169454" d="M63.435,45.629H61.21v2.226H58.984v2.226H61.21v2.226h2.226V50.081h2.226V47.855H63.435Z" fill="#fff"/>
        <path id="Trazado_169455" data-name="Trazado 169455" d="M62.323,41.177a7.79,7.79,0,1,0,7.79,7.79A7.8,7.8,0,0,0,62.323,41.177Zm0,13.355a5.565,5.565,0,1,1,5.565-5.565A5.571,5.571,0,0,1,62.323,54.532Z" fill="#fff"/>
        <path id="Trazado_169456" data-name="Trazado 169456" d="M5.565,47.855h6.677v2.226H5.565Z" fill="#fff"/>
        <path id="Trazado_169457" data-name="Trazado 169457" d="M16.694,48.968a7.79,7.79,0,1,0-7.79,7.79A7.8,7.8,0,0,0,16.694,48.968ZM8.9,54.532a5.565,5.565,0,1,1,5.565-5.565A5.571,5.571,0,0,1,8.9,54.532Z" fill="#fff"/>
      </g>
    </g>
  </g>
</svg>
