<?xml version="1.0" encoding="utf-8"?>
<!-- Generator: Adobe Illustrator 25.4.1, SVG Export Plug-In . SVG Version: 6.00 Build 0)  -->
<svg version="1.1" id="Capa_1" xmlns="http://www.w3.org/2000/svg" xmlns:xlink="http://www.w3.org/1999/xlink" x="0px" y="0px"
	 viewBox="0 0 155.2 184.7" style="enable-background:new 0 0 155.2 184.7;" xml:space="preserve">
<style type="text/css">
	.st0{fill:#0A7070;}
	.st1{fill:#0C6666;}
	.st2{fill:#FFC08D;}
	.st3{fill:#FFB680;}
	.st4{fill:#F9F9F9;}
	.st5{fill:#EFEFEF;}
	.st6{fill:#E2E2E2;}
	.st7{fill:#095959;}
	.st8{fill:#FFAC27;}
	.st9{fill:#F99F00;}
	.st10{fill:#FFDBA9;}
	.st11{fill:#A32082;}
	.st12{fill:#96117A;}
	.st13{fill:#233250;}
	.st14{fill:#FFCB99;}
	.st15{fill:#7FF7F4;}
	.st16{fill:#99FFFF;}
	.st17{fill:#D44700;}
	.st18{fill:#C43C00;}
	.st19{fill:#E25314;}
	.st20{clip-path:url(#SVGID_00000157302631708615779190000001832005683633898158_);}
	.st21{fill:#282828;}
	.st22{clip-path:url(#SVGID_00000119089579573029132470000003006971005666862730_);}
	.st23{fill:none;}
	.st24{fill:#EF2200;}
	.st25{fill:#D31E00;}
	.st26{fill:#EA805C;}
	.st27{fill:#F49267;}
	.st28{fill:#8FA3AC;}
	.st29{fill:#636E75;}
	.st30{fill:#00CC00;}
	.st31{fill:#00B700;}
</style>
<g id="Grupo_72959" transform="translate(12.205 0)">
	<path id="Trazado_166255" class="st0" d="M57,89.1c0,0-12.8,11.9-24,14.4c-2.8,0.6-4.6,3.2-4.3,6c0.8,6.2,4.1,15.6,8.9,20.2
		c7,6.7,18.4,0,18.4,0L57,89.1z"/>
	<g id="Grupo_72910" transform="translate(0 103.839)">
		<g id="Grupo_72905">
			<g id="Grupo_72904">
				<path id="Trazado_166256" class="st0" d="M6.9,65.5l10-50.8c0.8-6.2,5.4-11.8,12.2-14c9.1-2.9,18.6,1.4,21.2,9.7
					c2.1,6.5-0.1,11.2-6.8,13.5c-6.6,2.3-11.7,10.4-12.4,13l-7.3,31.8c-0.9,4.8-5.6,7.8-10.3,6.9C9,74.6,6,70.1,6.9,65.5
					C6.9,65.5,6.9,65.5,6.9,65.5z"/>
				<path id="Trazado_166257" class="st0" d="M38.2,14.2c0.8,2.3-0.5,4.9-2.9,5.6c-2.3,0.8-4.9-0.5-5.6-2.9
					c-0.7-2.3,0.5-4.9,2.9-5.6C34.9,10.6,37.5,11.9,38.2,14.2C38.2,14.2,38.2,14.2,38.2,14.2z"/>
			</g>
		</g>
		<g id="Grupo_72909" transform="translate(4.664 63.723)">
			<g id="Grupo_72908">
				<g id="Grupo_72907">
					<g id="Grupo_72906">
						<path id="Trazado_166258" class="st0" d="M14.6,4.4C14.2,6.6,12.1,8,10,7.6S6.4,5.1,6.8,3c0.4-2.1,2.5-3.6,4.6-3.2
							c0,0,0,0,0,0C13.6,0.2,15,2.3,14.6,4.4z"/>
					</g>
				</g>
			</g>
		</g>
	</g>
	<path id="Trazado_166259" class="st1" d="M69.4,89.1c0,0,12.8,11.9,24,14.4c2.8,0.6,4.6,3.2,4.3,6c-0.8,6.2-4.1,15.6-8.9,20.2
		c-7,6.7-18.4,0-18.4,0L69.4,89.1z"/>
	<g id="Grupo_72914" transform="translate(67.746 103.994)">
		<g id="Grupo_72911">
			<path id="Trazado_166260" class="st1" d="M52.1,64.9L41,14.3C40.1,8.1,35.3,2.6,28.4,0.6c-9.1-2.7-18.6,1.8-21,10.1
				c-1.9,6.5,0.4,11.2,7,13.3s11.9,10.1,12.7,12.8l8,31.6c1.1,4.7,5.7,7.7,10.5,6.7C50.2,74.1,53.1,69.5,52.1,64.9z"/>
			<path id="Trazado_166261" class="st1" d="M19.7,14.3c-0.7,2.4,0.6,4.8,3,5.5c2.4,0.7,4.8-0.6,5.5-3c0.7-2.4-0.6-4.8-3-5.5
				C22.9,10.6,20.4,11.9,19.7,14.3z"/>
		</g>
		<g id="Grupo_72913" transform="translate(32.979 63.292)">
			<g id="Grupo_72912">
				<path id="Trazado_166262" class="st1" d="M6.8,4.5c0.4,2.1,2.5,3.5,4.7,3c2.1-0.4,3.5-2.5,3-4.7c-0.4-2.1-2.5-3.5-4.7-3
					c0,0,0,0,0,0C7.8,0.3,6.4,2.4,6.8,4.5C6.8,4.5,6.8,4.5,6.8,4.5z"/>
			</g>
		</g>
	</g>
	<g id="Grupo_72915" transform="translate(32.495 84.831)">
		<path id="Trazado_166263" class="st2" d="M20.6-0.2v11.1c0,1.1-0.8,2-1.8,2.2c-2.4,0.5-10.7,3.5-11.6,5.8s-0.5,3.5,1,5.4
			c3.8,5.1,16.1,8,22.5,8l4.9-17h0L30.7-0.2L20.6-0.2z"/>
		<path id="Trazado_166264" class="st3" d="M53.1,24.3c1.5-1.9,1.8-3.2,1-5.5s-9.2-5.2-11.6-5.7c-1-0.2-1.8-1.1-1.8-2.2V-0.2H30.7
			v32.5C37,32.3,49.3,29.3,53.1,24.3z"/>
	</g>
	<g id="Grupo_72918" transform="translate(32.164 93.996)">
		<path id="Trazado_166265" class="st4" d="M31,12.3l-5.9-2.9l-4.3-6.9l-14,5v126.1l19.9,3.6c0.3,0.1,0.6-0.1,0.6-0.4c0,0,0,0,0,0
			l3.7-24.2l4.2-0.5l2-78.7L31,12.3z"/>
		<path id="Trazado_166266" class="st5" d="M41.3,2.5l-4.4,7.2L31,12.3v100.3l3.7,24.2c0,0.3,0.3,0.5,0.6,0.5c0,0,0,0,0,0l21.3-3.6
			V7.9L41.3,2.5z"/>
		<g id="Grupo_72916" transform="translate(28.312 36.31)">
			<path id="Trazado_166267" class="st6" d="M17.8,14.4c-3,1.3-6,2.2-9.2,2.8c-4,0.6-1.7,3.9,7.1,6S17.8,14.4,17.8,14.4z"/>
			<path id="Trazado_166268" class="st6" d="M18.5,5.1c0,0,0.1-1.3-2.3-3.2s2.1-2.6,4.8-1.8S18.5,5.1,18.5,5.1z"/>
		</g>
		<path id="Trazado_166269" class="st6" d="M45.6,3.9c0.1-0.1,0.1-0.1,0.1-0.2c0-0.1-0.1-0.1-0.1-0.2c-0.7-0.4-1.4-0.8-2.1-1.1
			c-1.4-0.5-2.3-2.6-2.3-2.6l0,0C39.3,5,35.7,9.4,31,12.3l5.8,8.3c0.1,0.1,0.2,0.1,0.4,0.1c0,0,0,0,0,0L45.6,3.9z"/>
		<path id="Trazado_166270" class="st5" d="M16.4,3.9c0-0.1-0.1-0.1-0.1-0.2c0-0.1,0.1-0.1,0.1-0.2c0.7-0.4,1.4-0.8,2.1-1.1
			c1.4-0.5,2.3-2.6,2.3-2.6l0,0C22.7,5,26.3,9.4,31,12.3l-5.8,8.3c-0.1,0.1-0.2,0.1-0.4,0.1c0,0,0,0,0,0L16.4,3.9z"/>
		<g id="Grupo_72917" transform="translate(5.179 36.31)">
			<path id="Trazado_166271" class="st5" d="M10.8,14.4c3,1.3,6,2.2,9.2,2.8c4,0.6,1.7,3.9-7.1,6S10.8,14.4,10.8,14.4z"/>
			<path id="Trazado_166272" class="st5" d="M10.1,5.1c0,0-0.1-1.3,2.3-3.2s-2.1-2.6-4.8-1.8S10.1,5.1,10.1,5.1z"/>
		</g>
	</g>
	<path id="Trazado_166283" class="st1" d="M100.8,230c0.7-0.4,1-1.2,0.9-2l-5.2-24.7c-2.8-13.2-3.9-26.7-3.3-40.2l1.6-39.2
		l-3.8-21.2l-13.1-5.3l3.8,36.6l-5.8,21.2c-0.2,0.9-0.4,1.8-0.4,2.7l-0.1,74.3c0,1.1,0.9,2,2,2c0,0,0,0,0,0h7.3
		C89.6,234.1,96.4,232.7,100.8,230z"/>
	<path id="Trazado_166284" class="st7" d="M94.6,120.1l-6.6-4.8c-0.4-0.3-0.5-0.8-0.2-1.2c0,0,0-0.1,0.1-0.1l3.1-3.3
		c0.3-0.4,0.3-0.9-0.1-1.2L77.8,97.4c0,0,3.4,32.2-2.4,60c9.5-18.5,17.7-33,19.5-36.2C95.1,120.8,95,120.3,94.6,120.1z"/>
	<path id="Trazado_166285" class="st0" d="M51,157.7c0-0.8-0.1-1.6-0.3-2.4L44.8,134l3.8-36.6l-13.1,5.3l-3.8,21.2l1.6,39.2
		c0.5,13.5-0.6,27-3.3,40.2L24.8,228c-0.2,0.8,0.2,1.6,0.9,2c4.4,2.7,11.2,4.1,16.3,4.1h7.3c1.1,0,2-0.9,2-2c0,0,0,0,0,0L51,157.7z"
		/>
	<path id="Trazado_166286" class="st1" d="M48.6,97.4l-13.2,12.1c-0.4,0.3-0.4,0.9-0.1,1.2c0,0,0,0,0,0l3.1,3.4
		c0.3,0.3,0.3,0.9,0,1.2c0,0-0.1,0-0.1,0.1l-6.5,4.8c-0.4,0.3-0.5,0.7-0.2,1.1c1.8,3.2,10,17.8,19.5,36.2
		C45.3,129.6,48.6,97.4,48.6,97.4z"/>
	<g id="Grupo_72926" transform="translate(45.012 102.727)">
		<path id="Trazado_166287" class="st8" d="M6.8,0.6c0-0.5,0.4-0.8,0.8-0.8c0.1,0,0.2,0,0.3,0.1l2.7,1.2c1,0.5,2.1,0.8,3.2,0.9
			c0.5,0,0.9,0.4,1,0.8C15.4,2.3,16.1,2,16.8,2h1.4L20,3.8l0.5,3.9l-2.3,1.7h-1.4c-0.7,0-1.4-0.3-1.9-0.8c-0.1,0.5-0.5,0.8-1,0.8
			c-1.1,0.1-2.2,0.4-3.2,0.9l-2.7,1.2c-0.4,0.2-0.9,0-1.1-0.4c0-0.1-0.1-0.2-0.1-0.3L6.8,0.6z"/>
		<path id="Trazado_166288" class="st9" d="M29.6,0.6c0-0.5-0.4-0.8-0.8-0.8c-0.1,0-0.2,0-0.3,0.1l-2.7,1.2c-1,0.5-2.1,0.8-3.2,0.9
			c-0.5,0-0.9,0.4-1,0.8C21,2.3,20.3,2,19.6,2h-1.4v7.4h1.4c0.7,0,1.4-0.3,1.9-0.8c0.1,0.5,0.5,0.8,1,0.8c1.1,0.1,2.2,0.4,3.2,0.9
			l2.7,1.2c0.4,0.2,0.9,0,1.1-0.4c0-0.1,0.1-0.2,0.1-0.3V0.6z"/>
	</g>
	<g id="Grupo_72931" transform="translate(65.15 147.943)">
		<g id="Grupo_72930" transform="translate(0 0)">
			<g id="Grupo_72929">
				<path id="Trazado_166309" class="st1" d="M49.5,13.9c4.6,2.1,6.6,7.4,4.6,12c-2.1,4.6-7.4,6.6-12,4.6c-0.1,0-0.1-0.1-0.2-0.1
					L6.8,11.2L12-0.2L49.5,13.9z"/>
			</g>
		</g>
		<path id="Trazado_166310" class="st1" d="M47.3,19.6c-1.4-0.7-3.2,0-3.8,1.4s0,3.2,1.4,3.8c1.4,0.7,3.2,0,3.8-1.4c0,0,0,0,0,0
			C49.3,21.9,48.7,20.2,47.3,19.6z"/>
	</g>
	<g id="Grupo_72932" transform="translate(18.463 125.916)">
		<path id="Trazado_166311" class="st3" d="M35.3,4.6c-0.5-3.3-1.3-1.8-5.5-4.2C29,0,27.9-0.5,27.2,0c0,0-8.1,11.1-9.2,12.2
			C17.2,13,6.8,22,6.8,22s4.8,7.8,6.3,9.5c0.7-0.6,9.5-10.7,11.2-10.6c2.6,0.1,3.5-6.1,5.6-10C31.9,7,35.5,6.1,35.3,4.6z"/>
	</g>
	<g id="Grupo_72933" transform="translate(31.412 117.63)">
		<path id="Trazado_166312" class="st10" d="M24.5,24l2.6-2.1l2.9,6.3L24.5,24z"/>
		<path id="Trazado_166313" class="st11" d="M27.1,21.9c0-0.1-0.1-0.3-0.2-0.4L9.7,0.1C9.3-0.3,8.7-0.4,8.3,0L7.1,1
			C6.7,1.3,6.6,1.9,7,2.3l17.2,21.4c0.1,0.1,0.2,0.2,0.3,0.3L27.1,21.9z"/>
		<path id="Trazado_166314" class="st12" d="M25.8,22.9L7.7,0.5L7.1,1C6.7,1.3,6.6,1.9,7,2.3l17.2,21.4c0.1,0.1,0.2,0.2,0.3,0.3
			L25.8,22.9z"/>
		<path id="Trazado_166315" class="st13" d="M28.1,26.7l1.9,1.5L29,26L28.1,26.7z"/>
	</g>
	<g id="Grupo_72936" transform="translate(0.137 138.795)">
		<path id="Trazado_166316" class="st5" d="M39.2,13.5l-9.5-8.3l4.3-5c0.5-0.5,1.3-0.6,1.8-0.1c0,0,0,0,0,0l7.6,6.6
			c0.5,0.5,0.6,1.3,0.1,1.8c0,0,0,0,0,0L39.2,13.5z"/>
		<path id="Trazado_166317" class="st0" d="M13.7,29.3c1-1.3,2.9-1.5,4.1-0.5c1.3,1,1.5,2.9,0.5,4.1c-1,1.3-2.9,1.5-4.1,0.5h0
			C12.9,32.5,12.7,30.6,13.7,29.3z"/>
		<g id="Grupo_72935" transform="translate(0 2.1)">
			<g id="Grupo_72934">
				<path id="Trazado_166318" class="st0" d="M8.9,23.2c-3.3,3.9-2.8,9.8,1.1,13.1c3.9,3.3,9.8,2.8,13.1-1.1c0,0,0,0,0,0l19-26.6
					L31.9-0.2L8.9,23.2z"/>
			</g>
		</g>
	</g>
	<g id="Grupo_72937" transform="translate(32.037 123.768)">
		<path id="Trazado_166319" class="st3" d="M7.4,17.7l5.1-15.2l6.2,1.8L7.4,17.7z"/>
		<path id="Trazado_166320" class="st14" d="M11.7,1c-0.4,1,0.1,2.1,1.1,2.5l7,2.9c1,0.4,2.1,0,2.5-1c0,0,0,0,0,0
			c0.4-1-0.1-2.1-1.1-2.5l-7-2.9C13.2-0.5,12.1-0.1,11.7,1C11.7,0.9,11.7,0.9,11.7,1z"/>
		<path id="Trazado_166321" class="st14" d="M10.1,5.1c-0.4,1,0.1,2.1,1.1,2.5L16,9.6c1,0.4,2.1,0,2.5-1c0,0,0,0,0,0
			c0.4-1-0.1-2.1-1.1-2.5l-4.7-1.9C11.7,3.7,10.6,4.1,10.1,5.1C10.2,5.1,10.2,5.1,10.1,5.1z"/>
		<path id="Trazado_166322" class="st14" d="M8.5,9.3c-0.4,1,0.1,2.1,1.1,2.5l2.7,1.1c1,0.4,2.1,0,2.5-1c0,0,0,0,0,0
			c0.4-1-0.1-2.1-1.1-2.5l-2.7-1.1C10.1,7.8,9,8.3,8.5,9.3C8.5,9.2,8.5,9.3,8.5,9.3z"/>
		<path id="Trazado_166323" class="st14" d="M6.9,13.5C6.5,14.5,7,15.6,8,16l1.8,0.7c1,0.4,2.1,0,2.5-1c0,0,0,0,0,0
			c0.4-1-0.1-2.1-1.1-2.5l-1.8-0.7C8.5,12,7.3,12.5,6.9,13.5C6.9,13.5,6.9,13.5,6.9,13.5z"/>
	</g>
	<g id="Grupo_72938" transform="translate(38.039 122.582)">
		<path id="Trazado_166324" class="st15" d="M11.7,6.3c-3.2,3.6-4.9,8.2-4.9,13v39.4h44.4V19.3c0-4.8,1.8-9.4,4.9-13L37.8,3.7
			L11.7,6.3z"/>
		<path id="Trazado_166325" class="st16" d="M70.8-0.2H26.3c-5.6,0-10.9,2.4-14.6,6.6h44.4C59.8,2.2,65.2-0.2,70.8-0.2z"/>
	</g>
	<g id="Grupo_72939" transform="translate(77.374 148.769)">
		<path id="Trazado_166326" class="st3" d="M12.1,19.9l4.2-15.5l-4.1-4.7L12.1,19.9z"/>
		<path id="Trazado_166327" class="st14" d="M17.8,3.6c-0.2,1-1.2,1.7-2.3,1.5c0,0,0,0,0,0L8.3,3.6c-1-0.2-1.7-1.2-1.5-2.3
			S8-0.4,9.1-0.2l7.2,1.6C17.3,1.6,18,2.6,17.8,3.6C17.8,3.6,17.8,3.6,17.8,3.6z"/>
		<path id="Trazado_166328" class="st14" d="M16.7,8c-0.2,1-1.2,1.7-2.3,1.5c0,0,0,0,0,0l-4.9-1c-1-0.2-1.7-1.2-1.5-2.3
			c0.2-1,1.2-1.7,2.3-1.5l4.9,1C16.3,5.9,16.9,6.9,16.7,8C16.7,8,16.7,8,16.7,8z"/>
		<path id="Trazado_166329" class="st14" d="M15.8,12.3c-0.2,1-1.2,1.7-2.3,1.5c0,0,0,0,0,0l-2.7-0.6c-1-0.2-1.7-1.2-1.5-2.3
			s1.2-1.7,2.3-1.5l2.7,0.6C15.3,10.2,16,11.2,15.8,12.3C15.8,12.3,15.8,12.3,15.8,12.3z"/>
		<path id="Trazado_166330" class="st14" d="M14.8,16.7c-0.2,1-1.2,1.7-2.3,1.5c0,0,0,0,0,0l-1.8-0.4c-1-0.2-1.7-1.2-1.5-2.3
			c0.2-1,1.2-1.7,2.3-1.5l1.8,0.4C14.3,14.6,15,15.7,14.8,16.7C14.8,16.7,14.8,16.7,14.8,16.7z"/>
	</g>
	<g id="Grupo_72958" transform="translate(21.777)">
		<path id="Trazado_166331" class="st17" d="M15.9,74.6c1.3-2,0.3-4.1-1-5.9c-1.9-2.6-1.4-5.4,0.4-7.7c0.9-0.9,1.4-2.1,1.4-3.3
			c0-2-1.8-3.9-2.5-6.5s0.1,4.1,0.1,4.1s2.2,3.1,0.3,5.3c0,0,0,0,0,0c-1.9,2.4-2.6,5.5-0.7,8.2c1.1,1.6,2.5,3.4,1.5,5.4
			c-1,2-0.5,3.7,1.4,5.2c0.2,0.2,0.5,0.3,0.8,0.4C16.1,78.7,14.8,76.4,15.9,74.6z"/>
		<path id="Trazado_166332" class="st18" d="M61.6,43.1c0,0-3.1,1.5-1.5,5.3s5.2,4.1,4.4,7.5c0.8-2.1,0.3-2.9-2.7-6
			c-3-3.2,0.5-6.7,0.5-6.7L61.6,43.1z"/>
		<path id="Trazado_166333" class="st18" d="M60.4,69.3c-0.2,2,0.2,4,1.2,5.7c1.7,3.3,4.8,3.3,4.4,6.4c0.3-2.2-0.3-2.9-2.3-4.8
			c-2.8-2.6-1.4-7.6-1.4-7.6L60.4,69.3z"/>
		<path id="Trazado_166334" class="st17" d="M28.4,81.8c-0.2,2,0.2,4,1.2,5.7c1.7,3.3,4.8,3.3,4.4,6.4c0.3-2.2-0.3-2.9-2.3-4.8
			c-2.8-2.6-1.4-7.6-1.4-7.6L28.4,81.8z"/>
		<path id="Trazado_166335" class="st17" d="M26.4,78.1c-0.6,1.9-0.5,3.9,0.2,5.8c1.1,3.6,4.1,4.1,3.1,7.1c0.7-2.1,0.3-2.9-1.4-5.2
			c-2.3-3.1,0-7.8,0-7.8L26.4,78.1z"/>
		<path id="Trazado_166336" class="st17" d="M15.5,59.1c-0.3,2-1.2,3.8-2.6,5.2c-2.5,2.8-5.5,2-5.8,5.1c0.2-2.2,1-2.8,3.5-4.1
			c3.4-1.8,3.2-7.1,3.2-7.1L15.5,59.1z"/>
		<path id="Trazado_166337" class="st18" d="M60.7,83.4c-1.7-3.5-0.4-7.5-2.1-11c-0.2-0.4-0.4-0.7-0.7-1c-0.3-0.5-0.7-0.9-1.1-1.2
			c-1.5-1.1-2.9-1.1-3.6-4.1c0-0.2,0-0.3,0-0.5s-4.6-2.6-4.6-2.8c0,0.1,0.8,0.5,1.1,0.9c0.7,0.8,1.3,1.6,1.9,2.5
			c0.5,0.8,1.1,1.6,1.7,2.4l0,0c0.3,0.3,0.7,0.6,1.1,0.9c2.2,1.3,3.5,2.9,3.8,4.4c0,0.1,0,0.2,0,0.2c0,0.1,0,0.1,0,0.2
			c0.3,2.2,0.1,4.5,0.9,6.7c2,5.5,4.2,6.4,4.5,6.6C62.4,86.4,61.4,85,60.7,83.4z"/>
		<g id="Grupo_72940" transform="translate(0.301 25.874)">
			<path id="Trazado_166338" class="st17" d="M6.8,16.9c0.7,8.6,9.5,21.4,9.5,21.4s11.5-1.6,22.8-3.7L32.3,1
				C22.1,3.7,6.2,10.5,6.8,16.9z"/>
			<path id="Trazado_166339" class="st18" d="M39.5-0.2c-1.3-0.2-4,0.3-7.3,1.2L39,34.6c10.6-2,21.2-4.3,22-6c1.7-3.5,2.4-12,1.2-20
				S44.7,0.5,39.5-0.2z"/>
		</g>
		<path id="Trazado_166340" class="st3" d="M59.9,54l1.9-2c0.6-0.6,1.6-0.6,2.3,0c0.1,0.1,0.1,0.1,0.2,0.2c1.4,2,2.1,4.5,1.8,7
			l-0.2,1.8c0.2,2.3,0.1,3.3-0.9,4.6l-0.3,0.2c-0.4,0.3-1,0.3-1.5,0.1l-1.9-1L59.9,54z"/>
		<path id="Trazado_166341" class="st2" d="M17.8,62.5l-2.6-1.1c-0.8-0.3-1.8,0-2.1,0.9c0,0.1-0.1,0.2-0.1,0.3
			c-0.5,2.4-0.1,5,1.1,7.2l0.9,1.6c0.7,2.2,1.2,3.1,2.6,3.9l0.4,0.1c0.5,0.1,1.1-0.1,1.4-0.5l1.4-1.7L17.8,62.5z"/>
		<path id="Trazado_166342" class="st19" d="M28.6,92.1c-1.5-1.2-1.3-3.1-0.8-4.8c0.7-2.2-0.2-4.7-2.3-5.8c-0.9-0.5-1.6-1.3-2-2.2
			c-0.6-1.5,0.4-3.5,0.2-5.7s1,3.2,1,3.2s-0.9,3,1.2,4.2c0,0,0,0,0,0c2.2,1.2,3.3,3.7,2.7,6.1c-0.4,1.6-1,3.3,0.2,4.6
			c1.3,1.3,1.3,2.7,0.3,4.4c-0.1,0.2-0.3,0.4-0.5,0.5C29.6,95.2,30,93.1,28.6,92.1z"/>
		<path id="Trazado_166343" class="st17" d="M64.9,78.5c-1.5,0.5-2.7-0.5-3.5-1.6c-1.2-1.5-3.3-1.9-4.9-1c-0.7,0.4-1.5,0.5-2.3,0.3
			c-1.3-0.3-2.2-1.8-3.7-2.7s2.5,0.7,2.5,0.7s1.6,1.9,3.3,1.1h0c1.8-0.8,3.7-1.6,5.1,0c0.8,1,1.8,2.8,3.3,2.5c1.4-0.3,2.5,0.6,3.1,2
			c0.1,0.2,0.1,0.4,0.1,0.6C67.4,79.3,66.2,78.1,64.9,78.5z"/>
		<g id="Grupo_72941" transform="translate(3.292 21.624)">
			<path id="Trazado_166344" class="st14" d="M28.4-0.2l10.7,36.6l5.7,15.5l-2.1,18.9l-1.6,0.3c-2.9,0.5-5.8-0.2-8.1-1.9l-10.7-8
				c-3.6-3.1-6.2-7.3-7.3-12c-2.3-8.3-8.2-33.1-8.2-33.1L28.4-0.2z"/>
			<path id="Trazado_166345" class="st2" d="M28.1-0.2l14.4,71l1.6-0.3c2.8-0.6,5.2-2.4,6.6-4.9l6.8-11.5c2.2-5,3.1-10,1.5-17.9
				c-1.5-7.4-4.6-29.7-4.6-29.7L28.1-0.2z"/>
			<path id="Trazado_166346" class="st2" d="M34.4,52.2c-0.1,0.2-0.1,0.5,0.1,0.7c0.2,0.2,0.4,0.3,0.7,0.2l4.3-0.9l-0.6-2.8
				c-0.1,0-0.2,0.1-0.3,0.1C35.8,50.4,34.8,51.4,34.4,52.2z"/>
		</g>
		<path id="Trazado_166347" class="st18" d="M55.5,22.2c-4.7-3.9-11.9-5.9-17.9-6.2c1.9-1,2.1-1.9,1.9-2.5c2.2-1.6,3.4-4.3,3.2-7.1
			C41.9-1.4,29-0.3,27.2,0h0L24,3.5h0l1,3.2l4.9,23.1l4,3.1c0.4,0,0.8-0.1,1.1-0.1c6.8-0.4,23.5,8.1,25.4,13.8
			C66.2,33.2,60,26,55.5,22.2z"/>
		<path id="Trazado_166348" class="st17" d="M27.2,0c-1.9,0.3-16.4,1.2-14.3,9.7c0.7,3.2,2.9,5.8,6,7c0,0.3,0,0.5,0.1,0.8
			c0.3,0.7,0.9,1.2,1.6,1.3c-4.7,2-9.6,5.8-12.4,13.7c-5.3,15.1,6.1,22.8,6.1,22.8s1.5-11.4,4.9-15.3c3.8-4.1,9-6.7,14.6-7.1
			l-2.9-14.6c0,0,0,0,0,0L27.2,0z"/>
		<g id="Grupo_72949" transform="translate(12.511 50.647)">
			<g id="Grupo_72945" transform="translate(0 5.355)">
				<g>
					<defs>
						<path id="SVGID_1_" d="M20.1,3.1c-0.8-0.9-6.6-6.9-13.4-0.3c0,0,0,0,0,0c0,0,0,0,0,0c0,0,0,0,0,0c0.1,0,0.2-0.1,0.3-0.2
							c0.3,0.9,3.1,7.4,12.9,0.4l0,0L20.1,3.1C20.1,3.1,20.1,3.1,20.1,3.1C20.1,3.1,20.1,3.1,20.1,3.1C20.1,3.1,20.1,3.1,20.1,3.1z"
							/>
					</defs>
					<clipPath id="SVGID_00000087377720242646612830000013821915866890426763_">
						<use xlink:href="#SVGID_1_"  style="overflow:visible;"/>
					</clipPath>
					<g id="Grupo_72944" style="clip-path:url(#SVGID_00000087377720242646612830000013821915866890426763_);">
						<path id="Trazado_166349" class="st4" d="M7,2.6c0,0,2.5,8,13,0.5C20,3.1,14.7-2.6,7,2.6z"/>
						<g id="Grupo_72943" transform="translate(5.227 -0.595)">
							<g id="Grupo_72942">
								<path id="Trazado_166350" class="st21" d="M6.8,3.2c0.4,1.5,1.9,2.4,3.4,2.1c1.5-0.4,2.4-1.9,2.1-3.4
									c-0.4-1.5-1.9-2.4-3.4-2.1C7.4,0.2,6.5,1.7,6.8,3.2C6.8,3.2,6.8,3.2,6.8,3.2z"/>
								<path id="Trazado_166351" class="st4" d="M7.9,2.3C8,2.8,8.5,3.1,8.9,3c0.5-0.1,0.7-0.6,0.6-1C9.4,1.5,9,1.2,8.5,1.3
									C8.1,1.4,7.8,1.9,7.9,2.3z"/>
							</g>
						</g>
						<path id="Trazado_166352" class="st21" d="M6.8,2.8C6.8,2.8,6.8,2.8,6.8,2.8C6.8,2.8,6.8,2.8,6.8,2.8C6.8,2.8,6.8,2.8,6.8,2.8
							c2.4-1.7,5.4-2.4,8.3-1.9c1.8,0.5,3.5,1.2,5,2.2c0,0,0,0,0,0c0,0,0,0,0,0c0,0,0,0,0,0C19.3,2.2,13.5-3.7,6.8,2.8z"/>
					</g>
				</g>
			</g>
			<g id="Grupo_72948" transform="translate(25.234)">
				<g>
					<defs>
						<path id="SVGID_00000041987432851861408920000013905687819970256539_" d="M18.9,0.6C10.2-2.8,7.2,4.9,6.8,6.1c0,0,0,0,0,0
							c0,0,0,0,0,0c0,0,0.1-0.1,0.1-0.1l0,0c11.7,2.7,11.8-4.4,11.8-5.4C18.8,0.6,18.9,0.7,18.9,0.6C19,0.7,19,0.7,18.9,0.6
							C19,0.7,19,0.6,18.9,0.6z"/>
					</defs>
					<clipPath id="SVGID_00000077290760404601035320000000069779529002857378_">
						<use xlink:href="#SVGID_00000041987432851861408920000013905687819970256539_"  style="overflow:visible;"/>
					</clipPath>
					<g id="Grupo_72947" style="clip-path:url(#SVGID_00000077290760404601035320000000069779529002857378_);">
						<path id="Trazado_166354" class="st4" d="M18.6,0.5c0,0,0.8,8.3-11.8,5.5C6.9,6,9.5-1.3,18.6,0.5z"/>
						<g id="Grupo_72946" transform="translate(4.86 -0.24)">
							<path id="Trazado_166355" class="st21" d="M6.8,3C7,4.5,8.5,5.6,10,5.3c1.5-0.3,2.6-1.7,2.3-3.2c-0.3-1.5-1.7-2.6-3.2-2.3
								C7.6,0.1,6.5,1.5,6.8,3C6.8,3,6.8,3,6.8,3z"/>
							<path id="Trazado_166356" class="st4" d="M7.9,2.2C8,2.7,8.4,3,8.9,2.9c0,0,0,0,0,0c0.5-0.1,0.8-0.5,0.7-1
								c-0.1-0.5-0.5-0.8-1-0.7S7.8,1.8,7.9,2.2C7.9,2.2,7.9,2.2,7.9,2.2L7.9,2.2z"/>
						</g>
						<path id="Trazado_166357" class="st21" d="M18.9,0.6C10.2-2.8,7.2,4.9,6.8,6.1c0,0,0,0,0,0c0,0,0,0,0,0
							C8,4.3,9.6,2.8,11.4,1.6C13.7,0.4,16.4,0.1,18.9,0.6C19,0.7,19,0.7,18.9,0.6C19,0.7,19,0.6,18.9,0.6z"/>
					</g>
				</g>
			</g>
		</g>
		<g id="Grupo_72954" transform="translate(9.73 41.564)">
			<g id="Grupo_72951" transform="translate(0 8.055)">
				<g id="Grupo_72950">
					<path id="Trazado_166359" class="st17" d="M21.2,0.7c-0.9-0.7-3.7-1.2-6.3-0.8c-3.5,0.4-6.5,2.5-8.1,5.6c0,0,0,0.1,0,0.1
						c0,0,0.1,0,0.1,0c4-5.3,11-4.5,13.8-3.9c0.3,0.1,0.6-0.1,0.6-0.4C21.4,1,21.3,0.8,21.2,0.7L21.2,0.7z"/>
				</g>
			</g>
			<g id="Grupo_72953" transform="translate(25.087)">
				<g id="Grupo_72952">
					<path id="Trazado_166360" class="st18" d="M6.9,1.7c0.8-0.9,3.4-1.9,6-1.9c3.5-0.2,6.8,1.3,9,4c0,0,0,0.1,0,0.1
						c0,0-0.1,0-0.1,0C16.9-0.6,10.2,1.5,7.5,2.6c-0.3,0.1-0.6,0-0.7-0.3C6.7,2.1,6.8,1.9,6.9,1.7L6.9,1.7z"/>
				</g>
			</g>
		</g>
		<path id="Trazado_166361" class="st17" d="M59.4,47.7c-0.8-2.3-3.1-2.7-5.2-2.8c-3.3-0.1-5.1-2.2-5.8-5c-0.2-1.2-0.8-2.4-1.8-3.2
			c-1.6-1.3-6.1-2.5-8.6-3.5s1.1,1.5,1.1,1.5s7.6,1.7,8.5,5.5c0,0,0,0,0,0c0.7,3,2.8,5.4,6.1,5.5c2,0.1,4.2,0.1,5.2,2.1
			c1,2,2.6,2.7,5,2.1c0.3-0.1,0.6-0.2,0.8-0.4C62.8,50.1,60.2,49.7,59.4,47.7z"/>
		<path id="Trazado_166362" class="st19" d="M8.5,61.9c1.9-3.4,5.9-4.5,7.9-7.9c0.2-0.4,0.4-0.7,0.5-1.1c0.2-0.5,0.4-1,0.4-1.6
			c0-4.4,4.2-11.4,4.4-11.5s-3,0.7-2.8,0.6c-0.1,0.1,0,0.9-0.1,1.4c-0.3,1-0.6,2-1,3c-0.4,0.9-0.7,1.8-1,2.7l0,0v0
			c-0.1,0.4-0.2,0.9-0.1,1.4c0.2,2.6-0.5,4.6-1.5,5.6c-0.1,0.1-0.1,0.1-0.2,0.2c0,0-0.1,0.1-0.1,0.1c-1.6,1.5-3.7,2.6-5,4.5
			c-3.4,4.7-3,7.1-3,7.4C7,64.9,7.6,63.3,8.5,61.9z"/>
		<path id="Trazado_166363" class="st17" d="M63.3,59.5c-1.7-3.5-0.4-7.5-2.1-11c-0.2-0.4-0.4-0.7-0.7-1c-0.3-0.5-0.7-0.9-1.1-1.2
			c-1.5-1.1-2.9-1.1-3.6-4.1c0-0.2,0-0.3,0-0.5s-4.6-2.6-4.6-2.8c0,0.1,0.8,0.5,1.1,0.9c0.7,0.8,1.3,1.6,1.9,2.5
			c0.5,0.8,1.1,1.6,1.7,2.4l0,0l0,0c0.3,0.3,0.7,0.6,1.1,0.9c2.2,1.3,3.5,2.9,3.8,4.4c0,0.1,0,0.2,0,0.2c0,0.1,0,0.1,0,0.2
			c0.3,2.2,0.1,4.5,0.9,6.7c2,5.5,4.2,6.4,4.5,6.6C65,62.5,64,61.1,63.3,59.5z"/>
		<path id="Trazado_166364" class="st19" d="M31.6,31.9c-1.9-0.5-7.4-1-11.1,1.8s-2.7,5.6-4.9,7.4s-1.2,7-1.4,8.6
			c1-1.4-0.4-6.3,1.8-8.2s2.5-4.1,3.1-5.2S24,32,29.3,32.8S31.6,31.9,31.6,31.9z"/>
		<path id="Trazado_166365" class="st17" d="M34.1,31.5c1.9-1.4,4.3-2.1,6.7-1.8c3.9,0.5,2.7,3,7.1,3.4c2.4,0.2,6.4,4.6,6.3,4.8
			s-3.5-2.6-5.1-3.4s-3.9,0.2-5.8-2.4c-1.9-2.7-7.4-0.7-7.4-0.7L34.1,31.5z"/>
		<g id="Grupo_72955" transform="translate(7.237 31.166)">
			<path id="Trazado_166366" class="st17" d="M44.5,6.3c-2.7-1.5-5.7-2.9-8-4c-2.9-1.4-6.1-2.3-9.4-2.5c-0.3,0-0.7,0-1-0.1l-0.5,1
				l0.1,1.7l1.1,0.7c3.5-0.2,7,0.5,10.2,1.8c3.6,1.4,6.5,3.7,8,4.2c4.6,1.4,8.5,5.2,8.7,9.6C55,13,50.4,9.6,44.5,6.3z"/>
			<path id="Trazado_166367" class="st19" d="M8.2,12.9c-1.1,3-2.6,13.9,0.1,16c0,0-1.7-7.7,1.9-14.2c2-3.7,4.5-5.8,8.4-8
				c2.2-1.2,5.3-3.3,7.9-3.5c0.1,0,0.1,0,0.2,0l-0.7-3.4c-3,0-5.3,2.4-8.1,3.4C12.7,4.9,9.2,10.1,8.2,12.9z"/>
		</g>
		<path id="Trazado_166368" class="st19" d="M21.5,38.1c-0.2,0-0.4,0-0.7,0.1c-0.3,0.9-0.5,1.8-0.6,2.7c0,0,0,0,0,0v0
			c0,0.5,0,0.9,0.1,1.4c0.5,2.5,0.2,4.6-0.7,5.7c-0.1,0.1-0.1,0.1-0.2,0.2c0,0-0.1,0.1-0.1,0.1C18,50,16.1,51.5,15,53.5
			c-2.7,5.1-1.9,7.4-1.9,7.8c0-1.7,0.4-3.4,1.1-4.9c1.4-3.6,5.2-5.3,6.7-8.9c0.2-0.4,0.3-0.8,0.3-1.2c0.1-0.5,0.2-1.1,0.2-1.6
			c-0.1-2.1-1.1-3.2,1.7-5.1c0.1-0.1-0.8-0.5-0.6-0.6c0-0.3,0-0.7-0.1-1C21.9,38,21.7,38.1,21.5,38.1z"/>
		<g id="Grupo_72956" transform="translate(7.335 47.641)">
			<path id="Trazado_166369" class="st23" d="M22.7,5.8L11.1,8.1c-1.4,0.3-2.2,1.6-2,2.9c0,0.2,0.1,0.5,0.3,0.7l3.2,5.5
				c1.2,2.2,3.6,3.3,6.1,2.8l6.5-1.3c1.1-0.2,1.9-1.1,2-2.2l1.1-6.4c0.2-1.2-0.2-2.3-1.1-3.1C26.1,6,24.4,5.5,22.7,5.8z"/>
			<path id="Trazado_166370" class="st23" d="M49.2,0.5L37.6,2.8c-1.7,0.3-3,1.4-3.7,3c-0.5,1.1-0.4,2.3,0.2,3.3l3.5,5.5
				c0.6,0.9,1.6,1.4,2.7,1.2l6.5-1.3c2.4-0.5,4.2-2.5,4.5-4.9l0.8-6.3c0.1-1.4-0.9-2.6-2.2-2.7C49.7,0.4,49.5,0.4,49.2,0.5L49.2,0.5
				z"/>
			<path id="Trazado_166371" class="st24" d="M30.5,7.6c-0.5,0.1-1.1,0-1.5-0.3l-0.7-0.5c-1.5-1.5-3.7-2.1-5.7-1.7L11,7.5
				c-1,0.2-1.9,0.8-2.4,1.6v0L8.4,9.3c-0.3,0.3-0.6,0.5-1,0.6L7.1,10C7,10,6.9,10,6.8,10.1c-0.1,0.1-0.1,0.2-0.1,0.3L7,11.7
				c0,0.2,0.3,0.4,0.5,0.4c0,0,0,0,0,0l0.1,0c0.2,0,0.4,0.1,0.5,0.2l0.3,0.6v0c0,0.1,0.1,0.1,0.1,0.2l3.2,5.1
				c1.4,2.7,4.5,4.1,7.4,3.5l6.5-1.3c1.6-0.3,2.8-1.6,3.1-3.2l1.1-5.7l0.1-0.2c0.2-0.7,0.8-1.2,1.5-1.4c0,0,0,0,0.1,0L33,8.3
				l-2.1-0.8L30.5,7.6z M28.5,10.9l-1.1,6.4c-0.2,1.1-1,1.9-2,2.2l-6.5,1.3c-2.4,0.5-4.9-0.7-6.1-2.8l-3.2-5.5
				c-0.7-1.2-0.2-2.7,1-3.4c0.2-0.1,0.4-0.2,0.7-0.2l11.6-2.3c1.7-0.3,3.4,0.2,4.6,1.3C28.3,8.5,28.7,9.7,28.5,10.9L28.5,10.9z"/>
			<path id="Trazado_166372" class="st25" d="M54,0.7c-0.1-0.1-0.2-0.1-0.3-0.1l-0.3,0.1c-0.4,0.1-0.8,0-1.1-0.1l-0.3-0.1h0
				c-0.8-0.6-1.9-0.8-2.8-0.6L37.5,2.1c-2.1,0.4-3.8,1.8-4.6,3.7l-0.5,0.7c-0.3,0.5-0.8,0.8-1.3,0.9l-0.2,0l0.5,2.3
				c0.7-0.1,1.4,0.2,1.8,0.7l0.1,0.2l3.3,4.8c0.8,1.4,2.5,2.1,4.1,1.8l6.5-1.3c3-0.6,5.2-3.1,5.5-6.1l0.9-6c0-0.1,0-0.1,0-0.2l0,0
				l0-0.6c0-0.2,0.2-0.3,0.3-0.4l0.1,0c0.2,0,0.4-0.3,0.4-0.5c0,0,0,0,0,0l-0.2-1.2C54.1,0.8,54.1,0.7,54,0.7z M52.3,3.8l-0.8,6.3
				c-0.2,2.5-2.1,4.5-4.5,4.9l-6.5,1.3c-1.1,0.2-2.2-0.3-2.7-1.2l-3.5-5.5c-0.6-1-0.7-2.2-0.2-3.3c0.7-1.5,2.1-2.7,3.7-3l11.6-2.3
				c1.4-0.3,2.7,0.6,2.9,2C52.3,3.3,52.3,3.5,52.3,3.8L52.3,3.8z"/>
		</g>
		<g id="Grupo_72957" transform="translate(29.378 77.912)">
			<path id="Trazado_166373" class="st26" d="M14.9-0.2c-0.6-0.1-1.1,0.2-1.4,0.7c-0.2,0.3-0.5,0.4-0.8,0.2c0,0,0,0-0.1,0
				c-0.5-0.3-1.1-0.4-1.6-0.1C10,1.2,8.3,3.8,6.8,5l14.7-5.3C19.3-0.1,17.1-0.1,14.9-0.2z"/>
			<path id="Trazado_166374" class="st27" d="M6.8,5.1c1.6,0.6,4.6,0.2,7.1-0.2c4.2-0.7,5.8-3.3,7.6-5.1C18.3,0.8,10.7,2,6.8,5.1z"
				/>
		</g>
	</g>
</g>
<g id="Grupo_72996" transform="translate(0 189.799)">
	<rect id="Rectángulo_21123" x="19.7" y="-43.3" class="st28" width="3.9" height="29.7"/>
	<rect id="Rectángulo_21124" x="135.6" y="-43.3" class="st28" width="3.9" height="29.7"/>
	<path id="Rectángulo_21125" class="st29" d="M18-46.9h123.1c1.9,0,3.5,1.6,3.5,3.5l0,0c0,1.9-1.6,3.5-3.5,3.5H18
		c-1.9,0-3.5-1.6-3.5-3.5l0,0C14.5-45.3,16.1-46.9,18-46.9z"/>
	<g id="Grupo_72960" transform="translate(16.061 29.714)">
		<path id="Trazado_166375" class="st11" d="M8.4-46.9c-0.9,0-1.6,0.7-1.6,1.6l0,0v81.7c0,1.3,1.1,2.4,2.4,2.4h22.1l6.5-47.8
			l-6.5-37.9L8.4-46.9z"/>
		<path id="Trazado_166376" class="st12" d="M54.3-46.9c0.9,0,1.6,0.7,1.6,1.6c0,0,0,0,0,0v81.7c0,1.3-1.1,2.4-2.4,2.4c0,0,0,0,0,0
			H31.3v-85.7H54.3z"/>
		<path id="Trazado_166377" class="st4" d="M31.3-5.4H6.8v-28.1h24.6l4,13.2L31.3-5.4z"/>
		<rect id="Rectángulo_21126" x="31.3" y="-33.5" class="st5" width="24.6" height="28.1"/>
	</g>
	<g id="Grupo_72964" transform="translate(47.752 3.516)">
		<g id="Grupo_72961" transform="translate(12.91 1.099)">
			<path id="Trazado_166378" class="st30" d="M26.1-27.5c-2.9,9-9.3,14.9-14.2,13.3L14-29.7l8.4-16.9C27.3-45,29-36.4,26.1-27.5z"/>
			<path id="Trazado_166379" class="st31" d="M22.4-46.6L11.9-14.1c-4.9-1.6-6.6-10.2-3.7-19.1S17.5-48.2,22.4-46.6z"/>
		</g>
		<g id="Grupo_72962">
			<path id="Trazado_166380" class="st30" d="M25.8-31.7c1.7,9.3-1,17.5-6.1,18.5l-5.6-14.7l-0.7-18.9C18.5-47.7,24-41,25.8-31.7z"
				/>
			<path id="Trazado_166381" class="st31" d="M13.4-46.8l6.3,33.5c-5.1,1-10.6-5.8-12.4-15S8.3-45.8,13.4-46.8z"/>
		</g>
		<g id="Grupo_72963" transform="translate(6.436 31.807)">
			<path id="Trazado_166382" class="st1" d="M22.8-43.5c1.9,2.1,2.8,4.8,2.6,7.6L21.8,8.2c-0.2,3.1-2.9,5.4-5.9,5.4l-0.4,0
				l-3.8-32.2l5-28.1C19.1-46.4,21.2-45.3,22.8-43.5z"/>
			<path id="Trazado_166383" class="st7" d="M15.5,13.5l-3-0.1c-3.2-0.1-5.8-2.7-5.7-6l1-46.9c0.1-4.2,3.6-7.5,7.8-7.4
				c0.4,0,0.8,0,1.3,0.1L15.5,13.5z"/>
		</g>
	</g>
	<g id="Grupo_72968" transform="translate(29.329 14.676)">
		<g id="Grupo_72965" transform="translate(12.677)">
			<path id="Trazado_166384" class="st30" d="M22.6-32.1c-0.4,7.9-4.3,14.2-8.7,13.9l-1.6-13.1l3.2-15.6C19.8-46.6,23-40,22.6-32.1z
				"/>
			<path id="Trazado_166385" class="st31" d="M15.5-46.9l-1.5,28.7C9.6-18.4,6.4-25,6.8-32.9S11.1-47.1,15.5-46.9z"/>
		</g>
		<g id="Grupo_72966" transform="translate(0 3.291)">
			<path id="Trazado_166386" class="st30" d="M23.4-36.9c3.4,7.2,3,14.5-0.9,16.4l-7.7-10.7L10-46.4C14-48.3,19.9-44,23.4-36.9z"/>
			<path id="Trazado_166387" class="st31" d="M10-46.4l12.4,25.9c-3.9,1.9-9.9-2.4-13.3-9.5S6.1-44.5,10-46.4z"/>
		</g>
		<g id="Grupo_72967" transform="translate(12.225 27.443)">
			<path id="Trazado_166388" class="st1" d="M18.3-45.5c2,1.3,3.3,3.3,3.7,5.6l6.7,36.7c0.5,2.6-1.1,5-3.7,5.7l-0.3,0.1l-10-25.4
				l-2-24C14.6-47,16.6-46.6,18.3-45.5z"/>
			<path id="Trazado_166389" class="st7" d="M24.7,2.5l-2.5,0.6c-2.6,0.6-5.3-1-5.9-3.6L6.9-38.9c-0.8-3.4,1.3-6.9,4.7-7.7
				c0.3-0.1,0.7-0.1,1-0.2L24.7,2.5z"/>
		</g>
	</g>
	<g id="Grupo_72969" transform="translate(72.618 17.149)">
		<path id="Trazado_166390" class="st19" d="M8.4-46.9c-0.9,0-1.6,0.7-1.6,1.6v74.7c0,1.3,1.1,2.4,2.4,2.4h22.1l6.5-47.8l-6.5-31
			H8.4z"/>
		<path id="Trazado_166391" class="st17" d="M54.3-46.9c0.9,0,1.6,0.7,1.6,1.6c0,0,0,0,0,0v74.7c0,1.3-1.1,2.4-2.4,2.4H31.3v-78.8
			H54.3z"/>
	</g>
	<path id="Trazado_166439" class="st28" d="M131.4,113H25.1c-3.7,0-6.9-2.8-7.2-6.5L6.8-7.6c-0.4-4,2.5-7.5,6.5-7.9
		c0.2,0,0.5,0,0.7,0h128.5c4,0,7.2,3.2,7.2,7.2c0,0.2,0,0.5,0,0.7l-11.1,114.1C138.2,110.2,135.1,113,131.4,113z M14-11.7
		c-1.8,0-3.3,1.5-3.3,3.3c0,0.1,0,0.2,0,0.3l11.1,114.1c0.2,1.7,1.6,3,3.3,3h106.3c1.7,0,3.2-1.3,3.3-3L145.8-8
		c0.2-1.8-1.2-3.5-3-3.7c-0.1,0-0.2,0-0.3,0L14-11.7z"/>
	<g id="Grupo_72995" transform="translate(19.868 33.197)">
		
			<rect id="Rectángulo_21127" x="9.7" y="-46.9" transform="matrix(0.9989 -4.699506e-02 4.699506e-02 0.9989 -0.7174 0.5295)" class="st28" width="2.4" height="124.8"/>
		
			<rect id="Rectángulo_21128" x="46.1" y="14.3" transform="matrix(4.656597e-02 -0.9989 0.9989 4.656597e-02 87.9278 123.1564)" class="st28" width="124.8" height="2.4"/>
		
			<rect id="Rectángulo_21129" x="34.1" y="-46.8" transform="matrix(0.9997 -2.333293e-02 2.333293e-02 0.9997 -0.3525 0.8274)" class="st28" width="2.4" height="124.7"/>
		<rect id="Rectángulo_21130" x="58.5" y="-46.8" class="st28" width="2.4" height="124.6"/>
		
			<rect id="Rectángulo_21131" x="21.7" y="14.3" transform="matrix(2.321083e-02 -0.9997 0.9997 2.321083e-02 66.6163 99.2138)" class="st28" width="124.7" height="2.4"/>
	</g>
	<rect id="Rectángulo_21132" x="11.4" y="23" class="st28" width="133.9" height="2.4"/>
</g>
</svg>
