<svg xmlns="http://www.w3.org/2000/svg" width="174.945" height="114.542" viewBox="0 0 174.945 114.542">
  <g id="Grupo_73291" data-name="Grupo 73291" transform="translate(-263.388 -336.542)">
    <path id="Trazado_166914" data-name="Trazado 166914" d="M438.271,366.286c-.01-.105-.02-.209-.032-.313-.045-.389-.1-.775-.176-1.154,0-.017-.006-.035-.009-.052-.08-.389-.183-.771-.3-1.148-.031-.1-.063-.207-.1-.31-.11-.336-.23-.668-.364-.993-.017-.041-.031-.083-.048-.124-.148-.348-.315-.686-.491-1.018-.056-.107-.114-.211-.173-.316q-.231-.412-.49-.808c-.041-.062-.079-.128-.121-.19-.2-.3-.421-.584-.647-.864-.084-.106-.171-.209-.259-.312-.183-.214-.372-.421-.567-.624-.081-.084-.16-.17-.243-.252-.239-.235-.488-.459-.744-.677-.113-.1-.228-.188-.345-.281q-.3-.242-.623-.466c-.109-.077-.216-.157-.328-.232-.235-.155-.473-.3-.717-.445v.01a13.561,13.561,0,0,0-6.812-1.834H286.251a13.644,13.644,0,0,0-13.644,13.643V437.44a13.644,13.644,0,0,0,13.644,13.644h45.742l2.126-.758v.014l7.286-2.549v-.06l.12-.043H424.69a13.561,13.561,0,0,0,6.812-1.834v.01q.366-.212.717-.446c.112-.074.219-.154.328-.231.212-.15.421-.305.624-.467q.174-.138.344-.28c.255-.218.5-.442.744-.677.084-.082.162-.169.244-.253.194-.2.383-.409.565-.622.088-.1.175-.207.26-.313.226-.28.444-.567.647-.864.042-.062.079-.128.121-.19q.26-.4.491-.809c.058-.1.116-.209.172-.315.176-.332.343-.67.491-1.018.017-.041.031-.084.048-.125.135-.325.254-.656.363-.992.034-.1.067-.207.1-.311.112-.377.215-.758.295-1.148,0-.017.005-.035.009-.052.076-.378.131-.764.176-1.153.012-.1.022-.208.032-.313.037-.409.062-.822.062-1.24V367.526C438.333,367.107,438.308,366.7,438.271,366.286Z" fill="#c6c2c2" opacity="0.26" style="mix-blend-mode: multiply;isolation: isolate"/>
    <g id="Grupo_73290" data-name="Grupo 73290">
      <path id="Trazado_166915" data-name="Trazado 166915" d="M415.471,345.322H277.032a13.644,13.644,0,0,0-13.644,13.644v69.913a13.643,13.643,0,0,0,13.644,13.644h45.742l9.531-3.4h83.166a13.644,13.644,0,0,0,13.643-13.644V358.966A13.644,13.644,0,0,0,415.471,345.322Z" fill="#f2f0f0"/>
      <path id="Trazado_166916" data-name="Trazado 166916" d="M429.114,381.843V358.966a13.644,13.644,0,0,0-13.643-13.644H277.032a13.644,13.644,0,0,0-13.644,13.644v22.877Z" fill="#25baba"/>
      <rect id="Rectángulo_21164" data-name="Rectángulo 21164" width="165.726" height="4.018" transform="translate(263.388 377.825)" fill="#139995"/>
      <path id="Trazado_166917" data-name="Trazado 166917" d="M324.9,345.322v96.457l7.286-2.549V345.322Z" fill="#e0dede"/>
      <rect id="Rectángulo_21165" data-name="Rectángulo 21165" width="7.286" height="36.521" transform="translate(324.9 345.322)" fill="#1aa09c"/>
      <path id="Trazado_166918" data-name="Trazado 166918" d="M379.7,348.479a42.178,42.178,0,1,0,42.179,42.179A42.179,42.179,0,0,0,379.7,348.479Zm0,81.349a39.171,39.171,0,1,1,39.171-39.17A39.17,39.17,0,0,1,379.7,429.828Z" fill="#fff"/>
      <circle id="Elipse_4402" data-name="Elipse 4402" cx="39.171" cy="39.171" r="39.171" transform="translate(334.826 358.18) rotate(-9.105)" fill="#848383"/>
      <circle id="Elipse_4403" data-name="Elipse 4403" cx="30.82" cy="30.82" r="30.82" transform="translate(348.882 359.837)" fill="#f2f0f0"/>
      <path id="Trazado_166919" data-name="Trazado 166919" d="M379.7,363.065A27.592,27.592,0,1,0,407.3,390.658,27.592,27.592,0,0,0,379.7,363.065Zm0,52.808a25.215,25.215,0,1,1,25.215-25.215A25.215,25.215,0,0,1,379.7,415.873Z" fill="#cccaca"/>
      <path id="Rectángulo_21166" data-name="Rectángulo 21166" d="M4.769,0H30.86a4.769,4.769,0,0,1,4.769,4.769V8.6a0,0,0,0,1,0,0H0a0,0,0,0,1,0,0V4.769A4.769,4.769,0,0,1,4.769,0Z" transform="translate(378.483 336.542)" fill="#848383"/>
      <path id="Rectángulo_21167" data-name="Rectángulo 21167" d="M3.823,0H24.741a3.823,3.823,0,0,1,3.823,3.823v3.07a0,0,0,0,1,0,0H0a0,0,0,0,1,0,0V3.823A3.823,3.823,0,0,1,3.823,0Z" transform="translate(277.216 338.247)" fill="#848383"/>
      <path id="Trazado_166920" data-name="Trazado 166920" d="M283.643,345.322h-6.611a13.644,13.644,0,0,0-13.644,13.644v69.913a13.643,13.643,0,0,0,13.644,13.644h6.611Z" fill="#fff" opacity="0.23"/>
      <rect id="Rectángulo_21168" data-name="Rectángulo 21168" width="31.612" height="20.372" rx="6.706" transform="translate(277.482 352.636)" fill="#666"/>
      <path id="Trazado_166921" data-name="Trazado 166921" d="M292.487,363.408a5.268,5.268,0,1,1-5.268-5.269A5.268,5.268,0,0,1,292.487,363.408Z" fill="#f2f0f0" opacity="0.6"/>
      <circle id="Elipse_4404" data-name="Elipse 4404" cx="3.786" cy="3.786" r="3.786" transform="translate(295.727 359.622)" fill="#f2f0f0" opacity="0.6"/>
      <path id="Trazado_166922" data-name="Trazado 166922" d="M422.283,347.146V437.3a13.635,13.635,0,0,0,6.831-11.819V358.966A13.635,13.635,0,0,0,422.283,347.146Z" fill="#fff" opacity="0.23"/>
      <g id="Grupo_73289" data-name="Grupo 73289">
        <rect id="Rectángulo_21169" data-name="Rectángulo 21169" width="37.347" height="23.951" rx="3.664" transform="translate(361.129 378.367)" fill="#686767"/>
        <path id="Trazado_166923" data-name="Trazado 166923" d="M388.862,380.3h-17.4a13.088,13.088,0,0,0,.677,20.127h16.049a13.088,13.088,0,0,0,.677-20.127Z" fill="#588aa0"/>
        <path id="Trazado_166924" data-name="Trazado 166924" d="M380.541,387.067a3.82,3.82,0,1,0-3.82,3.82A3.82,3.82,0,0,0,380.541,387.067Z" fill="#f2f0f0"/>
        <path id="Trazado_166925" data-name="Trazado 166925" d="M386.223,392.988a2.965,2.965,0,1,0-2.965,2.965A2.966,2.966,0,0,0,386.223,392.988Z" fill="#f2f0f0"/>
      </g>
    </g>
  </g>
</svg>
