<svg xmlns="http://www.w3.org/2000/svg" xmlns:xlink="http://www.w3.org/1999/xlink" width="216" height="201" viewBox="0 0 216 201">
  <defs>
    <clipPath id="clip-path">
      <rect id="Rectángulo_21434" data-name="Rectángulo 21434" width="216" height="201" transform="translate(574 3689)" fill="#fff" stroke="#707070" stroke-width="1"/>
    </clipPath>
  </defs>
  <g id="Enmascarar_grupo_70" data-name="Enmascarar grupo 70" transform="translate(-574 -3689)" clip-path="url(#clip-path)">
    <g id="Grupo_74818" data-name="Grupo 74818" transform="translate(-2180.989 3161.554)">
      <g id="Grupo_74751" data-name="Grupo 74751" transform="translate(2898.466 706.793)" opacity="0">
        <g id="Grupo_74750" data-name="Grupo 74750" transform="translate(0)">
          <path id="Trazado_168708" data-name="Trazado 168708" d="M3084.526,949.5a0,0,0,0,0,0,0,0,0,0,0,0,0,0s0,0,0,0A0,0,0,0,0,3084.526,949.5Z" transform="translate(-3084.526 -949.493)" fill="#84a9ff"/>
        </g>
      </g>
      <g id="Grupo_74753" data-name="Grupo 74753" transform="translate(2860.641 933.058)">
        <g id="Grupo_74752" data-name="Grupo 74752" transform="translate(0)">
          <path id="Trazado_168709" data-name="Trazado 168709" d="M2996.378,1488.474a4.9,4.9,0,0,1,3.1-1.652,29.8,29.8,0,0,1,3.593-.208,19.02,19.02,0,0,0,8.4-2.433,28.45,28.45,0,0,1,4.033-2.2l8.438.221a9.667,9.667,0,0,1,2.254,4.549,17.037,17.037,0,0,1,.267,4.624v1.759h-30.951v-1.759h-.007A4.767,4.767,0,0,1,2996.378,1488.474Z" transform="translate(-2995.508 -1481.981)" fill="#050f64"/>
        </g>
      </g>
      <g id="Grupo_74755" data-name="Grupo 74755" transform="translate(2856.282 773.12)">
        <g id="Grupo_74754" data-name="Grupo 74754" transform="translate(0)">
          <path id="Trazado_168710" data-name="Trazado 168710" d="M2985.708,1129.923l4.99-24.337,39.7,10.036-10.531,22.185-1.5,116.97-.333,10.96-8.458-.213-1.256-9.815-22.727-118.41h.007l-.026-.127c-.1-.541-.184-1.08-.237-1.618l-.005-.027A17.247,17.247,0,0,1,2985.708,1129.923Z" transform="translate(-2985.251 -1105.586)" fill="#f5bdc8"/>
        </g>
      </g>
      <g id="Grupo_74757" data-name="Grupo 74757" transform="translate(2861.73 692.358)">
        <g id="Grupo_74756" data-name="Grupo 74756" transform="translate(0 0)">
          <path id="Trazado_168711" data-name="Trazado 168711" d="M2998.071,996.284l15.767-75.108c1.857-12.419,64.938-.509,64.938-.509,10.331,12.695,12.489,31.9,12.931,54.315a187.638,187.638,0,0,1-1.2,25.185l-46.109,7.018-.378-5.773q-1.38,2.949-2.826,5.773Z" transform="translate(-2998.071 -915.521)" fill="#050f64"/>
        </g>
      </g>
      <g id="Grupo_74759" data-name="Grupo 74759" transform="translate(2921.151 706.897)" opacity="0">
        <g id="Grupo_74758" data-name="Grupo 74758" transform="translate(0)">
          <path id="Trazado_168712" data-name="Trazado 168712" d="M3137.913,949.742a0,0,0,0,0,0,0,0,0,0,0,0,0,0,0,0,0,0,0,0,0A0,0,0,0,0,3137.913,949.742Z" transform="translate(-3137.913 -949.738)" fill="#84a9ff"/>
        </g>
      </g>
      <g id="Grupo_74761" data-name="Grupo 74761" transform="translate(2914.122 932.996)">
        <g id="Grupo_74760" data-name="Grupo 74760">
          <path id="Trazado_168713" data-name="Trazado 168713" d="M3122.23,1488.387a4.908,4.908,0,0,1,3.1-1.661,29.787,29.787,0,0,1,3.592-.219,19.019,19.019,0,0,0,8.391-2.459,28.413,28.413,0,0,1,4.027-2.213l8.438.2a9.665,9.665,0,0,1,2.269,4.542,17.05,17.05,0,0,1,.281,4.623l.006,1.76-30.951.1-.005-1.759h-.007A4.768,4.768,0,0,1,3122.23,1488.387Z" transform="translate(-3121.369 -1481.836)" fill="#050f64"/>
        </g>
      </g>
      <g id="Grupo_74763" data-name="Grupo 74763" transform="translate(2910.243 777.539)">
        <g id="Grupo_74762" data-name="Grupo 74762">
          <path id="Trazado_168714" data-name="Trazado 168714" d="M3112.241,1122.136l40.408-6.15-8.122,155.652-8.438-.2Z" transform="translate(-3112.241 -1115.986)" fill="#f5bdc8"/>
        </g>
      </g>
      <g id="Grupo_74765" data-name="Grupo 74765" transform="translate(2910.253 552.248)">
        <g id="Grupo_74764" data-name="Grupo 74764">
          <path id="Trazado_168715" data-name="Trazado 168715" d="M3112.264,617.1s18.532,5.906,20.55-24.305c0,0-6.662-6.656-7.154-7s-11.022,18.724-11.022,18.724Z" transform="translate(-3112.264 -585.788)" fill="#050f64"/>
        </g>
      </g>
      <g id="Grupo_74771" data-name="Grupo 74771" transform="translate(2760.989 583.463)">
        <g id="Grupo_74768" data-name="Grupo 74768" transform="translate(0 0.956)">
          <g id="Grupo_74767" data-name="Grupo 74767">
            <g id="Grupo_74766" data-name="Grupo 74766">
              <path id="Trazado_168716" data-name="Trazado 168716" d="M2761.007,719.142a4.138,4.138,0,0,1,3.929-3.97l4.469.013,4.459-.057c2.972-.011,5.93-.149,8.886-.229,5.9-.275,11.772-.613,17.533-1.287a144.187,144.187,0,0,0,16.872-2.869,89.088,89.088,0,0,0,15.568-5.181,85.867,85.867,0,0,0,14.061-7.929c4.516-3.1,8.947-6.6,13.432-10.311s9.015-7.61,13.643-11.522,9.335-7.854,14.156-11.713a12.773,12.773,0,0,1,10.659-2.256,15.277,15.277,0,0,1,9.4,6.685h0a16.115,16.115,0,0,1,2.508,11.246,12.421,12.421,0,0,1-5.64,8.791c-5.052,2.943-10.071,6.021-15.139,9.157s-10.179,6.367-15.487,9.58-10.837,6.4-16.727,9.267a103.98,103.98,0,0,1-37.879,10.472,159.626,159.626,0,0,1-18.925.407c-6.222-.2-12.344-.748-18.429-1.364-3.032-.365-6.069-.673-9.077-1.107l-4.517-.612-4.5-.68A4.075,4.075,0,0,1,2761.007,719.142Z" transform="translate(-2760.989 -661.498)" fill="#ea8096"/>
            </g>
          </g>
        </g>
        <g id="Grupo_74770" data-name="Grupo 74770" transform="translate(93.164)">
          <g id="Grupo_74769" data-name="Grupo 74769">
            <path id="Trazado_168717" data-name="Trazado 168717" d="M3001.065,712.116l28.114-19.011c8.5-5.75,11.378-16.879,5.627-25.383h0c-5.75-8.5-17.948-11.163-26.452-5.413l-28.114,19.011Z" transform="translate(-2980.241 -659.249)" fill="#478fce"/>
          </g>
        </g>
      </g>
      <g id="Grupo_74773" data-name="Grupo 74773" transform="translate(2871.772 579.706)">
        <g id="Grupo_74772" data-name="Grupo 74772" transform="translate(0 0)">
          <path id="Trazado_168718" data-name="Trazado 168718" d="M3066.607,650.493h0a42.235,42.235,0,0,0-44.743,45.784l5.565,72.436c18,8.058,43.219,4.094,64.939-.509l6.627-77.9A34.943,34.943,0,0,0,3066.607,650.493Z" transform="translate(-3021.703 -650.407)" fill="#529ad9"/>
        </g>
      </g>
      <g id="Grupo_74775" data-name="Grupo 74775" transform="translate(2871.019 581.675)">
        <g id="Grupo_74774" data-name="Grupo 74774">
          <path id="Trazado_168719" data-name="Trazado 168719" d="M3027.848,670.444l.664.375a42.422,42.422,0,0,1,19.77-15.146l-.393-.629a43.126,43.126,0,0,0-16.649,11.219A44.016,44.016,0,0,0,3027.848,670.444Zm-3.972,77.751,1.821,23.686.408.184a49.2,49.2,0,0,0,9.274,3.046v-.783a47.915,47.915,0,0,1-8.971-2.949l-1.776-23.113Zm67.473,22.675a249.276,249.276,0,0,1-27.7,4.553v.757a248.733,248.733,0,0,0,27.857-4.576l.543-.116,1.578-18.534-.731-.259Zm6.628-77.894-2.027,23.81.734.217,2.039-23.945a35.469,35.469,0,0,0,.307-6.756l-.73.187A34.844,34.844,0,0,1,3097.977,692.976Zm-77.878,6.033,1.35,17.541h.749l-1.353-17.608a41.962,41.962,0,0,1,4.313-22.566l-.682-.36A42.517,42.517,0,0,0,3020.1,699.009Zm60.484-41.407a35.117,35.117,0,0,1,14.981,16.795l.76-.086a35.467,35.467,0,0,0-15.536-17.425Z" transform="translate(-3019.932 -655.043)" fill="#fff"/>
        </g>
      </g>
      <g id="Grupo_74786" data-name="Grupo 74786" transform="translate(2891.196 527.465)">
        <g id="Grupo_74777" data-name="Grupo 74777" transform="translate(11.433 44.249)">
          <g id="Grupo_74776" data-name="Grupo 74776">
            <path id="Trazado_168720" data-name="Trazado 168720" d="M3094.323,632.726l.865,19.537q8.788,4.907,16.845-1.127l-.865-19.537Z" transform="translate(-3094.323 -631.599)" fill="#f5bdc8"/>
          </g>
        </g>
        <g id="Grupo_74779" data-name="Grupo 74779" transform="translate(11.588 46.591)">
          <g id="Grupo_74778" data-name="Grupo 74778">
            <path id="Trazado_168721" data-name="Trazado 168721" d="M3094.688,638.239l.429,6.412a18.423,18.423,0,0,0,8.728,2.006c.175-.006.351-.012.526-.024a11.227,11.227,0,0,0,7.557-3.607l-.4-5.914Z" transform="translate(-3094.688 -637.112)" fill="#ea8096"/>
          </g>
        </g>
        <g id="Grupo_74781" data-name="Grupo 74781" transform="translate(1.508 13.834)">
          <g id="Grupo_74780" data-name="Grupo 74780">
            <path id="Trazado_168722" data-name="Trazado 168722" d="M3070.967,576.366l1.791,6.252,1.193,3.441a16.055,16.055,0,0,0,16.281,14.447,9.038,9.038,0,0,0,2.5-.4,9.713,9.713,0,0,0,.936-.344c.064-.024.128-.054.193-.084a8.757,8.757,0,0,0,3.089-2.337,27.054,27.054,0,0,0,4.065-7.091,46.294,46.294,0,0,0,2.287-6.442,20.765,20.765,0,0,0,.6-7.94l-.95-15.841-24.893,5.594Z" transform="translate(-3070.967 -560.023)" fill="#f5bdc8"/>
          </g>
        </g>
        <g id="Grupo_74783" data-name="Grupo 74783" transform="translate(0 0)">
          <g id="Grupo_74782" data-name="Grupo 74782">
            <path id="Trazado_168723" data-name="Trazado 168723" d="M3071.157,552.633a27.509,27.509,0,0,1,3.226-10.8c2.555-4.619,11.878-10.406,20-5.648a9.6,9.6,0,0,1,4.09-7.065,10.325,10.325,0,0,1,11.675,17,9.413,9.413,0,0,1-4.414,1.6c.1.255.2.517.293.8,1.419,4.255,2.164,13.245-3.042,16.356-1.754,1.049-5.978-.222-6.235-6.035-.014-.326.783-9.822-.325-12.481-.679,1.026-2.828,3-9.017,1.915a15.949,15.949,0,0,0-7.841.336c-3.334,2.731-5.658,5.737-8.178,8.2-2.474,2.42-.891,4.839.781,7.147,2.468,3.407.084,8.193-2.685,9.448,0,0,4.564-4.623-.2-8.925C3065.563,561.125,3068.043,553.372,3071.157,552.633Z" transform="translate(-3067.417 -527.465)" fill="#050f64"/>
          </g>
        </g>
        <g id="Grupo_74785" data-name="Grupo 74785" transform="translate(28.563 26.213)">
          <g id="Grupo_74784" data-name="Grupo 74784" transform="translate(0 0)">
            <circle id="Elipse_4546" data-name="Elipse 4546" cx="6.142" cy="6.142" r="6.142" transform="translate(0 0.571) rotate(-2.664)" fill="#f5bdc8"/>
          </g>
        </g>
      </g>
      <g id="Grupo_74809" data-name="Grupo 74809" transform="translate(2758.747 566.912)">
        <g id="Grupo_74788" data-name="Grupo 74788" transform="translate(0 31.771)">
          <g id="Grupo_74787" data-name="Grupo 74787" transform="translate(0 0)">
            <rect id="Rectángulo_21428" data-name="Rectángulo 21428" width="137.82" height="23.962" transform="translate(0 16.91) rotate(-7.048)" fill="#a0a603"/>
          </g>
        </g>
        <g id="Grupo_74790" data-name="Grupo 74790" transform="translate(14.094 56.931)">
          <g id="Grupo_74789" data-name="Grupo 74789" transform="translate(0 0)">
            <rect id="Rectángulo_21429" data-name="Rectángulo 21429" width="115.343" height="69.206" transform="translate(0 14.152) rotate(-7.048)" fill="#a0a603"/>
          </g>
        </g>
        <g id="Grupo_74792" data-name="Grupo 74792" transform="translate(21.405 18.52)">
          <g id="Grupo_74791" data-name="Grupo 74791">
            <path id="Trazado_168724" data-name="Trazado 168724" d="M2858.271,699.095l.5,4.031-40.185,4.968s-2.755-10.585-1.451-18.594c1.058-6.29,4.646-10.952,14.1-7.523,18.51,6.7,25.2,14.561,26.723,16.609l.005.041c.13.194.22.352.265.431Z" transform="translate(-2816.784 -680.815)" fill="#ced351"/>
          </g>
        </g>
        <g id="Grupo_74794" data-name="Grupo 74794" transform="translate(71.715 0)">
          <g id="Grupo_74793" data-name="Grupo 74793">
            <path id="Trazado_168725" data-name="Trazado 168725" d="M2967,675.808l-42.262,5.225-.648-5.249.04-.062-.007-.057a10.132,10.132,0,0,0,.448-1.029c2.688-6.178,16.062-35.281,29.5-33.219,4.4.661,7.339,3.907,9.3,8.135C2968.086,659.743,2967,675.808,2967,675.808Z" transform="translate(-2924.093 -641.313)" fill="#ced351"/>
          </g>
        </g>
        <g id="Grupo_74796" data-name="Grupo 74796" transform="translate(71.748 0)">
          <g id="Grupo_74795" data-name="Grupo 74795">
            <path id="Trazado_168726" data-name="Trazado 168726" d="M2963.412,649.552c-.626,5.407-4.661,13.872-15.642,13.853-8.727-.009-19.658,8.907-22.994,11.783-.3.267-.518.466-.6.534l-.007-.057a10.313,10.313,0,0,0,.448-1.029c2.688-6.178,16.061-35.281,29.5-33.219C2958.509,642.079,2961.452,645.325,2963.412,649.552Z" transform="translate(-2924.164 -641.313)" fill="#6f7302"/>
          </g>
        </g>
        <g id="Grupo_74798" data-name="Grupo 74798" transform="translate(21.756 18.52)">
          <g id="Grupo_74797" data-name="Grupo 74797">
            <path id="Trazado_168727" data-name="Trazado 168727" d="M2858.628,699.057a.791.791,0,0,1-.253-.053c-2.339-.934-18.5-9.778-27.857-7.23-6.933,1.87-9.856-.933-12.986-2.275,1.058-6.29,4.645-10.952,14.1-7.523,18.51,6.7,25.2,14.561,26.723,16.609l.005.041C2858.494,698.82,2858.583,698.978,2858.628,699.057Z" transform="translate(-2817.531 -680.815)" fill="#6f7302"/>
          </g>
        </g>
        <g id="Grupo_74800" data-name="Grupo 74800" transform="translate(62.595 31.447)">
          <g id="Grupo_74799" data-name="Grupo 74799">
            <path id="Trazado_168728" data-name="Trazado 168728" d="M2915.49,714.01l.635,5.137-10.785,1.333-.635-5.137a3.293,3.293,0,0,1-.037-.708,1.864,1.864,0,0,1-.015-.531l-.008-.058a6.2,6.2,0,0,1,.107-.785,5.506,5.506,0,0,1,4.6-4.836,5.563,5.563,0,0,1,5.666,3.8l.007.059a1.376,1.376,0,0,1,.144.338,2.926,2.926,0,0,1,.172.571A4.48,4.48,0,0,1,2915.49,714.01Z" transform="translate(-2904.641 -708.39)" fill="#fc0"/>
          </g>
        </g>
        <g id="Grupo_74802" data-name="Grupo 74802" transform="translate(63.039 39.676)">
          <g id="Grupo_74801" data-name="Grupo 74801" transform="translate(0 0)">
            <rect id="Rectángulo_21430" data-name="Rectángulo 21430" width="10.81" height="93.054" transform="translate(0 1.326) rotate(-7.048)" fill="#fff"/>
          </g>
        </g>
        <g id="Grupo_74804" data-name="Grupo 74804" transform="translate(76.693 56.932)">
          <g id="Grupo_74803" data-name="Grupo 74803" transform="translate(0 0)">
            <rect id="Rectángulo_21431" data-name="Rectángulo 21431" width="52.267" height="3.993" transform="translate(0 6.413) rotate(-7.048)" fill="#6f7302"/>
          </g>
        </g>
        <g id="Grupo_74806" data-name="Grupo 74806" transform="translate(14.094 64.671)">
          <g id="Grupo_74805" data-name="Grupo 74805" transform="translate(0 0)">
            <rect id="Rectángulo_21432" data-name="Rectángulo 21432" width="52.265" height="3.993" transform="matrix(0.992, -0.123, 0.123, 0.992, 0, 6.413)" fill="#6f7302"/>
          </g>
        </g>
        <g id="Grupo_74808" data-name="Grupo 74808" transform="translate(65.965 63.344)">
          <g id="Grupo_74807" data-name="Grupo 74807" transform="translate(0 0)">
            <rect id="Rectángulo_21433" data-name="Rectángulo 21433" width="10.81" height="3.993" transform="matrix(0.992, -0.123, 0.123, 0.992, 0, 1.326)" fill="#e5e6eb"/>
          </g>
        </g>
      </g>
      <g id="Grupo_74817" data-name="Grupo 74817" transform="translate(2819.999 594.481)">
        <g id="Grupo_74812" data-name="Grupo 74812" transform="translate(0 0.86)">
          <g id="Grupo_74811" data-name="Grupo 74811">
            <g id="Grupo_74810" data-name="Grupo 74810">
              <path id="Trazado_168729" data-name="Trazado 168729" d="M2900.121,795.585a4.137,4.137,0,0,1,1.988-5.221l4.092-1.8,4.055-1.855c2.714-1.213,5.363-2.536,8.033-3.805,5.283-2.637,10.518-5.323,15.514-8.27a144.3,144.3,0,0,0,14.268-9.45,89.066,89.066,0,0,0,12.141-11.036,85.824,85.824,0,0,0,9.652-12.939c2.877-4.66,5.512-9.657,8.113-14.863s5.165-10.606,7.815-16.056,5.359-10.959,8.208-16.439a12.771,12.771,0,0,1,8.834-6.375,15.278,15.278,0,0,1,11.3,2.31,16.119,16.119,0,0,1,6.844,9.27,12.421,12.421,0,0,1-1.6,10.321c-3.43,4.736-6.774,9.58-10.14,14.5s-6.732,9.941-10.287,15.026-7.321,10.238-11.548,15.242a103.984,103.984,0,0,1-30.4,24.9,159.625,159.625,0,0,1-17.143,8.029c-5.769,2.338-11.591,4.31-17.406,6.208-2.921.893-5.822,1.839-8.749,2.66l-4.378,1.268-4.388,1.2A4.075,4.075,0,0,1,2900.121,795.585Z" transform="translate(-2899.862 -687.204)" fill="#f5bdc8"/>
            </g>
          </g>
        </g>
        <g id="Grupo_74814" data-name="Grupo 74814" transform="translate(70.664 0.764)">
          <g id="Grupo_74813" data-name="Grupo 74813">
            <path id="Trazado_168730" data-name="Trazado 168730" d="M3097.665,744.1l18.019-28.759c5.451-8.7,3.577-20.039-5.123-25.489h0c-8.7-5.45-20.929-2.948-26.38,5.751l-18.019,28.76Z" transform="translate(-3066.163 -686.979)" fill="#529ad9"/>
          </g>
        </g>
        <g id="Grupo_74816" data-name="Grupo 74816" transform="translate(69.631 0)">
          <g id="Grupo_74815" data-name="Grupo 74815">
            <path id="Trazado_168731" data-name="Trazado 168731" d="M3063.732,723.571l5.717,3.582.429-.617-5.113-3.2,4.2-6.705-.543-.541Zm10.056-14.639,7.494-11.964-.6-.454-7.5,11.976Zm13.686-20.253.271.723a19.748,19.748,0,0,1,21.42-.582,17.2,17.2,0,0,1,7.526,10.081l.739-.147a17.974,17.974,0,0,0-7.866-10.569,19.478,19.478,0,0,0-3.162-1.594A20.515,20.515,0,0,0,3087.473,688.679Zm-12.26,41.2-.452.6,11.111,6.96.393-.639Zm37.724-13.416-14.108,22.519.684.318,14.132-22.558Z" transform="translate(-3063.732 -685.18)" fill="#fff"/>
          </g>
        </g>
      </g>
    </g>
  </g>
</svg>
