<svg xmlns="http://www.w3.org/2000/svg" xmlns:xlink="http://www.w3.org/1999/xlink" width="208" height="221" viewBox="0 0 208 221">
  <defs>
    <clipPath id="clip-path">
      <rect id="Rectángulo_21162" data-name="Rectángulo 21162" width="208" height="221" transform="translate(-2424 -7105)" fill="#fff" stroke="#707070" stroke-width="1"/>
    </clipPath>
  </defs>
  <g id="Enmascarar_grupo_59" data-name="Enmascarar grupo 59" transform="translate(2424 7105)" clip-path="url(#clip-path)">
    <g id="Grupo_73288" data-name="Grupo 73288" transform="translate(-3486.569 -7616.17)">
      <path id="Trazado_166745" data-name="Trazado 166745" d="M2628.854,2903.53c-3.724.342-15.39,1.412-18.916,1.735l-.178-1.12-.328-2.567-5.818-24.285,2.388-2.268c3.934-.73,17.514-3.264,21.669-4.037C2627.8,2874.731,2628.73,2900.115,2628.854,2903.53Z" transform="translate(-1387.26 -2120.771)" fill="#f8c099"/>
      <g id="Grupo_73245" data-name="Grupo 73245" transform="translate(1168.083 742.492)">
        <path id="Trazado_166746" data-name="Trazado 166746" d="M2129.153,2791.438c-.594,7.8-2.124,28-2.71,35.751l-18.679,2.179-.1-5.831-.006-.47.068-.851h0l-1.3-24.382v-1.269l.8.485-.065-4.023Z" transform="translate(-2106.432 -2791.438)" fill="#f8c099"/>
        <path id="Trazado_166747" data-name="Trazado 166747" d="M2128.762,2844.245c-.361,4.759-2,26.344-2.32,30.624l-10.249,1.195-8.527-4.846-.512-.292a1.687,1.687,0,0,1,.506-.179,57.264,57.264,0,0,1,7.42.062c5.56-.1,9.349-2.411,9.584-5.816.439-6.357.613-12.734-6.509-14.98-5.217-1.645-11.654-3.171-11.654-3.171h0l-.07-2.6s.759.485.8.485C2108.3,2844.7,2121.622,2844.424,2128.762,2844.245Z" transform="translate(-2106.432 -2839.118)" fill="#f8c099" opacity="0.35" style="mix-blend-mode: multiply;isolation: isolate"/>
      </g>
      <path id="Trazado_166748" data-name="Trazado 166748" d="M2614.134,2914.434a16.948,16.948,0,0,0,4.527-11.182,6.909,6.909,0,0,0-7.04-7.367,117.122,117.122,0,0,1-14.281-.631l-1.309-5.225c6.344-.189,18.026-1.255,24.853-1.8.073,2.042,1.089,29.936,1.123,30.869l-13.667,1.254C2608.447,2920.246,2609.171,2919.5,2614.134,2914.434Z" transform="translate(-1380.415 -2136.339)" fill="#f8c099" opacity="0.35" style="mix-blend-mode: multiply;isolation: isolate"/>
      <path id="Trazado_166749" data-name="Trazado 166749" d="M2015.381,2023.846h0c0-.037,0-.067,0-.087Z" transform="translate(-856.136 -1355.798)" fill="#568bb4"/>
      <g id="Grupo_73246" data-name="Grupo 73246" transform="translate(1159.243 667.961)">
        <path id="Trazado_166750" data-name="Trazado 166750" d="M2015.381,2023.846h0c0-.037,0-.067,0-.087Z" transform="translate(-2015.379 -2023.759)" fill="#568bb4"/>
      </g>
      <g id="Grupo_73255" data-name="Grupo 73255" transform="translate(1067.185 544.609)">
        <g id="Grupo_73250" data-name="Grupo 73250" transform="translate(0 13.371)">
          <path id="Trazado_166751" data-name="Trazado 166751" d="M1219.768,1057.32a.55.55,0,0,0,0,1.1A.55.55,0,0,0,1219.768,1057.32Z" transform="translate(-1204.474 -1041.169)" fill="#76952b"/>
          <path id="Trazado_166752" data-name="Trazado 166752" d="M1198,1053.722a.609.609,0,0,0-1-.25.572.572,0,1,0,1,.25Z" transform="translate(-1184.258 -1037.546)" fill="#76952b"/>
          <path id="Trazado_166753" data-name="Trazado 166753" d="M1175.557,1055.83a.688.688,0,0,0-.612-.481.555.555,0,0,0-.532.689.689.689,0,0,0,.612.481A.556.556,0,0,0,1175.557,1055.83Z" transform="translate(-1163.985 -1039.39)" fill="#76952b"/>
          <g id="Grupo_73248" data-name="Grupo 73248">
            <path id="Trazado_166754" data-name="Trazado 166754" d="M1330.162,919.779a15.93,15.93,0,0,1-.124,2.307c-1.216.982-2.563,1.827-3.919,1.488.051-.45.131-.9.2-1.345a8.6,8.6,0,0,1-1.469.177c-.432-1.031-.185-2.389.564-2.788.491-.262,1.007-.535,1.52-.825a13.3,13.3,0,0,0,3.3-2.391A23.111,23.111,0,0,0,1330.162,919.779Z" transform="translate(-1299.643 -913.934)" fill="#facaa7"/>
            <g id="Grupo_73247" data-name="Grupo 73247">
              <path id="Trazado_166755" data-name="Trazado 166755" d="M1327.349,987.194q-.552.115-1.05.267c-.844-2.986-1.858-7.178-2.568-10.8.086.067.28.177.5.3a2.317,2.317,0,0,1-.2-.378,8.584,8.584,0,0,0,1.469-.177A15.394,15.394,0,0,0,1327.349,987.194Z" transform="translate(-1298.823 -968.118)" fill="#8db634"/>
              <path id="Trazado_166756" data-name="Trazado 166756" d="M1148.318,913.869c-1.734.5-3.492,1-5.24,1.5-1.786-2.115-3.1-7.012-3.474-9.187-.562,2.55-1.735,7.835-2.22,10.032-1.15-.258-2.754-.62-3.968-.892a29.925,29.925,0,0,1,.815-9.988,19.323,19.323,0,0,1-5.7,7.153h0l-.054.045c-1.3-.775-2.628-1.56-4.022-2.38a0,0,0,0,0,0,0c-.715-.425-1.456-.864-2.134-1.265,4.659-.015,11.017-9.281,13.327-13.387.5-.881,1.342-2.631,1.243-3.267,1.613-.265,5.871-.969,7.538-1.244a.741.741,0,0,1,.787,1.015,51.351,51.351,0,0,0-1.6,7.309,9.265,9.265,0,0,1-1.443.169,2.246,2.246,0,0,0,.2.378,5.76,5.76,0,0,1-.5-.3c.715,3.6,1.58,7.279,2.568,10.793.33-.1.682-.188,1.05-.265A20.32,20.32,0,0,0,1148.318,913.869Z" transform="translate(-1116.962 -890.966)" fill="#8db634"/>
              <path id="Trazado_166757" data-name="Trazado 166757" d="M1167.034,932.58s-7.074,10.748-11.383,13.008c-2.6,3.126-.1,1.372-.1,1.372S1165.538,937.173,1167.034,932.58Z" transform="translate(-1145.996 -928.54)" fill="#87ad32"/>
              <path id="Trazado_166758" data-name="Trazado 166758" d="M1301.339,956.117s3.635,11.747,2.825,15.623c.755,3.686.913,1.1.913,1.1S1303.745,960.376,1301.339,956.117Z" transform="translate(-1278.606 -949.792)" fill="#87ad32"/>
              <path id="Trazado_166759" data-name="Trazado 166759" d="M1255.244,924.8c-.307,2.13-1.649,11.5-3.362,15.74C1253.292,942.789,1254.944,928.275,1255.244,924.8Z" transform="translate(-1233.95 -921.513)" fill="#87ad32"/>
              <path id="Trazado_166760" data-name="Trazado 166760" d="M1321.776,964.063c-2.274-3.305-3.207-13.994-3.311-14.455A134.4,134.4,0,0,0,1321.776,964.063Z" transform="translate(-1294.068 -943.914)" fill="#87ad32"/>
              <path id="Trazado_166761" data-name="Trazado 166761" d="M1280.746,948.333s-2.126,11.646-1.1,14.688C1279.729,959.145,1280.165,952.679,1280.746,948.333Z" transform="translate(-1258.767 -942.763)" fill="#87ad32"/>
              <path id="Trazado_166762" data-name="Trazado 166762" d="M1185.759,984.253s-7.543,7.667-8.206,10.46A132.242,132.242,0,0,1,1185.759,984.253Z" transform="translate(-1166.838 -975.196)" fill="#87ad32"/>
              <path id="Trazado_166763" data-name="Trazado 166763" d="M1301.2,1129.382c-1.11-2.642-4.653-3.887-7.912-2.781-7.664,2.725-3.936,12.322,4.2,9.9C1301.937,1135.134,1302.309,1132.024,1301.2,1129.382Z" transform="translate(-1267.556 -1103.359)" fill="#76952b"/>
              <path id="Trazado_166764" data-name="Trazado 166764" d="M1117.055,1116.641c.649-2.809-1.7-5.624-5.255-6.287s-6.956,1.077-7.605,3.887,1.591,6.036,5.139,6.714C1113.875,1121.823,1116.405,1119.451,1117.055,1116.641Z" transform="translate(-1100.5 -1088.927)" fill="#76952b"/>
              <path id="Trazado_166765" data-name="Trazado 166765" d="M1079.957,1057.091c2.268-2.474,1.549-6.373-1.606-8.707-7.8-5.371-15.571,3.117-8.212,8.96C1073.294,1059.678,1077.689,1059.565,1079.957,1057.091Z" transform="translate(-1067.185 -1031.557)" fill="#7c9d2c"/>
              <path id="Trazado_166766" data-name="Trazado 166766" d="M1312.154,1094.828a9.385,9.385,0,0,1-5.891,1.426c-3.2-.248-5.124-2.02-5.493-4.037-.442-2.189,1.17-4.314,3.325-5.283,3.89-1.987,9.638-.8,10.5,2.983C1315,1091.751,1313.989,1093.6,1312.154,1094.828Z" transform="translate(-1278.025 -1067.049)" fill="#7c9d2c"/>
              <path id="Trazado_166767" data-name="Trazado 166767" d="M1175.779,1089.376c.631-4.141-3.39-8.056-8.982-8.744s-10.636,2.11-11.267,6.25,3.266,8.8,8.857,9.485S1175.148,1093.517,1175.779,1089.376Z" transform="translate(-1146.893 -1062.123)" fill="#87ad32"/>
              <path id="Trazado_166768" data-name="Trazado 166768" d="M1265.474,1110.209a.929.929,0,0,0-.869-.122.568.568,0,0,0,.239,1.1.972.972,0,0,0,.416-.046A.549.549,0,0,0,1265.474,1110.209Z" transform="translate(-1245.078 -1088.764)" fill="#7c9d2c"/>
              <path id="Trazado_166769" data-name="Trazado 166769" d="M1229.3,1107.014a.886.886,0,0,0-.957-.494.578.578,0,0,0-.458.7.723.723,0,0,0,.478.438C1228.817,1107.9,1229.444,1107.53,1229.3,1107.014Z" transform="translate(-1212.261 -1085.579)" fill="#7c9d2c"/>
              <path id="Trazado_166770" data-name="Trazado 166770" d="M1280.083,1146.77a.675.675,0,0,0-1.042-.193.665.665,0,1,0,1.094.408A.4.4,0,0,0,1280.083,1146.77Z" transform="translate(-1258.3 -1121.611)" fill="#7c9d2c"/>
              <path id="Trazado_166771" data-name="Trazado 166771" d="M1239.3,1120.6a.676.676,0,0,0-1.042-.193l-.088.079a.548.548,0,0,0,.136.908C1238.831,1121.685,1239.562,1121.1,1239.3,1120.6Z" transform="translate(-1221.405 -1097.986)" fill="#7c9d2c"/>
              <path id="Trazado_166772" data-name="Trazado 166772" d="M1188.772,1137.749a.577.577,0,1,0,0,1.152A.577.577,0,1,0,1188.772,1137.749Z" transform="translate(-1176.408 -1113.79)" fill="#7c9d2c"/>
              <path id="Trazado_166773" data-name="Trazado 166773" d="M1220.683,1173.623a.649.649,0,0,0-.48-.415c-.438-.454-1.26-.051-1.1.526a.941.941,0,0,0,1.121.592A.579.579,0,0,0,1220.683,1173.623Z" transform="translate(-1204.336 -1145.63)" fill="#7c9d2c"/>
              <path id="Trazado_166774" data-name="Trazado 166774" d="M1211.233,1129.2a.62.62,0,0,0-.722-.567.922.922,0,0,0-.535.294.558.558,0,0,0,.264.958A.645.645,0,0,0,1211.233,1129.2Z" transform="translate(-1195.945 -1105.552)" fill="#7c9d2c"/>
              <path id="Trazado_166775" data-name="Trazado 166775" d="M1193.1,1111.722a1.075,1.075,0,0,0-.39-.281.676.676,0,0,0-.693.121.54.54,0,0,0,0,.814.881.881,0,0,0,.63.328A.573.573,0,0,0,1193.1,1111.722Z" transform="translate(-1179.732 -1089.992)" fill="#7c9d2c"/>
              <path id="Trazado_166776" data-name="Trazado 166776" d="M1198.427,1159.586a.709.709,0,0,0-.453-.169h-.265a.579.579,0,1,0,0,1.152h.265A.573.573,0,0,0,1198.427,1159.586Z" transform="translate(-1184.463 -1133.354)" fill="#7c9d2c"/>
              <path id="Trazado_166777" data-name="Trazado 166777" d="M1177.385,1161.424a.7.7,0,0,0-.906,0,.78.78,0,0,0-.194.645.656.656,0,0,0,1.094.408.78.78,0,0,0,.194-.645A.56.56,0,0,0,1177.385,1161.424Z" transform="translate(-1165.692 -1135.015)" fill="#7c9d2c"/>
              <path id="Trazado_166778" data-name="Trazado 166778" d="M1168.037,1122.151c-.516-.7-1.64-.022-1.222.694a.693.693,0,0,0,1.03.149C1168.052,1122.764,1168.23,1122.433,1168.037,1122.151Z" transform="translate(-1157.06 -1099.439)" fill="#7c9d2c"/>
              <path id="Trazado_166779" data-name="Trazado 166779" d="M1210.157,1199.867a.677.677,0,0,0-1.042-.193l-.089.079a.548.548,0,0,0,.136.908C1209.684,1200.948,1210.415,1200.362,1210.157,1199.867Z" transform="translate(-1195.088 -1169.554)" fill="#7c9d2c"/>
              <path id="Trazado_166780" data-name="Trazado 166780" d="M1253.889,1213.734a.663.663,0,0,0-.782-.411l-.352.082c-.814.221-.5,1.272.324,1.114l.353-.082A.579.579,0,0,0,1253.889,1213.734Z" transform="translate(-1234.309 -1182.01)" fill="#7c9d2c"/>
              <path id="Trazado_166781" data-name="Trazado 166781" d="M1271.868,1168.845l-.264-.4a.692.692,0,0,0-.874-.217.554.554,0,0,0-.241.785l.264.4a.692.692,0,0,0,.874.217A.554.554,0,0,0,1271.868,1168.845Z" transform="translate(-1250.674 -1141.243)" fill="#7c9d2c"/>
              <path id="Trazado_166782" data-name="Trazado 166782" d="M1244.109,1174.131c-.151-.449-.619-.5-1.051-.344-.811.221-.5,1.28.325,1.115a.958.958,0,0,0,.663-.34A.535.535,0,0,0,1244.109,1174.131Z" transform="translate(-1225.555 -1146.258)" fill="#7c9d2c"/>
              <path id="Trazado_166783" data-name="Trazado 166783" d="M1200.636,1179.61a.791.791,0,0,0-.713-.5.6.6,0,0,0-.62.722.791.791,0,0,0,.713.5A.6.6,0,0,0,1200.636,1179.61Z" transform="translate(-1186.457 -1151.131)" fill="#7c9d2c"/>
              <path id="Trazado_166784" data-name="Trazado 166784" d="M1233.64,1195.848a.752.752,0,0,0-1.074-.343.635.635,0,0,0,.1,1.2.685.685,0,0,0,.682-.22A.554.554,0,0,0,1233.64,1195.848Z" transform="translate(-1216.165 -1165.848)" fill="#7c9d2c"/>
              <path id="Trazado_166785" data-name="Trazado 166785" d="M1292.089,1195.5a.78.78,0,0,0-.469-.463c-.632-.249-1.18.5-.693.936C1291.381,1196.479,1292.238,1196.14,1292.089,1195.5Z" transform="translate(-1269.036 -1165.468)" fill="#7c9d2c"/>
              <path id="Trazado_166786" data-name="Trazado 166786" d="M1243.984,1139.262a.778.778,0,0,0-.468-.463c-.632-.249-1.18.5-.693.936C1243.275,1140.244,1244.133,1139.9,1243.984,1139.262Z" transform="translate(-1225.601 -1114.693)" fill="#7c9d2c"/>
              <path id="Trazado_166787" data-name="Trazado 166787" d="M1316.98,1162.887l-.264-.635a.638.638,0,0,0-.3-.355.718.718,0,0,0-.479-.057c-.3.084-.583.4-.458.7l.265.635a.638.638,0,0,0,.3.355C1316.491,1163.79,1317.158,1163.354,1316.98,1162.887Z" transform="translate(-1291.342 -1135.525)" fill="#7c9d2c"/>
              <path id="Trazado_166788" data-name="Trazado 166788" d="M1265.957,1191.417a.653.653,0,0,0-1.229.214.627.627,0,0,0,.8.637A.609.609,0,0,0,1265.957,1191.417Z" transform="translate(-1245.546 -1161.925)" fill="#7c9d2c"/>
              <path id="Trazado_166789" data-name="Trazado 166789" d="M1276.913,1213.065a.7.7,0,0,0-.874.216l-.265.4c-.389.678.658,1.209,1.115.569l.265-.4A.551.551,0,0,0,1276.913,1213.065Z" transform="translate(-1255.445 -1181.73)" fill="#7c9d2c"/>
              <path id="Trazado_166790" data-name="Trazado 166790" d="M1297.047,1171.687a.751.751,0,0,0-1.354-.329.548.548,0,0,0-.005.585C1296.05,1172.455,1297,1172.428,1297.047,1171.687Z" transform="translate(-1273.429 -1143.851)" fill="#7c9d2c"/>
              <path id="Trazado_166791" data-name="Trazado 166791" d="M1252.8,1157.59c-.086-.294-.418-.412-.656-.593-.474-.258-1.089.167-.937.646.086.294.418.412.657.593C1252.335,1158.495,1252.949,1158.07,1252.8,1157.59Z" transform="translate(-1233.317 -1131.099)" fill="#7c9d2c"/>
              <path id="Trazado_166792" data-name="Trazado 166792" d="M1285.068,1119a.784.784,0,0,0-.708-.51.6.6,0,0,0-.62.721.783.783,0,0,0,.708.51A.6.6,0,0,0,1285.068,1119Z" transform="translate(-1262.696 -1096.396)" fill="#7c9d2c"/>
              <path id="Trazado_166793" data-name="Trazado 166793" d="M1310.384,1123.045l-.262-.24a.7.7,0,0,0-.906,0,.54.54,0,0,0,0,.814c.2.182.4.419.715.409A.573.573,0,0,0,1310.384,1123.045Z" transform="translate(-1285.55 -1100.146)" fill="#7c9d2c"/>
              <path id="Trazado_166794" data-name="Trazado 166794" d="M1324.841,1141.131c-.334-.836-1.614-.384-1.2.41C1323.971,1142.377,1325.251,1141.926,1324.841,1141.131Z" transform="translate(-1298.666 -1116.44)" fill="#7c9d2c"/>
              <path id="Trazado_166795" data-name="Trazado 166795" d="M1259.742,1126.631c-.334-.836-1.614-.384-1.2.41C1258.872,1127.877,1260.152,1127.425,1259.742,1126.631Z" transform="translate(-1239.887 -1103.347)" fill="#7c9d2c"/>
              <path id="Trazado_166796" data-name="Trazado 166796" d="M1299.3,1102.2a.8.8,0,0,0-1.359-.065.656.656,0,0,0,.624.983C1299.083,1103.137,1299.527,1102.644,1299.3,1102.2Z" transform="translate(-1275.447 -1081.328)" fill="#7c9d2c"/>
              <path id="Trazado_166797" data-name="Trazado 166797" d="M1304.438,1142.131c-.013-.682-1.081-.785-1.291-.13a.613.613,0,0,0,.066.47c.007.009.1.123.111.13s.131.091.138.095A.652.652,0,0,0,1304.438,1142.131Z" transform="translate(-1280.219 -1117.231)" fill="#7c9d2c"/>
              <path id="Trazado_166798" data-name="Trazado 166798" d="M1341.621,1172.882a.783.783,0,0,0-.708-.509.6.6,0,0,0-.62.722.784.784,0,0,0,.708.509A.6.6,0,0,0,1341.621,1172.882Z" transform="translate(-1313.758 -1145.052)" fill="#7c9d2c"/>
              <path id="Trazado_166799" data-name="Trazado 166799" d="M1328.481,1189.677a.709.709,0,0,0-.453-.169h-.353a.579.579,0,1,0,0,1.152h.353A.573.573,0,0,0,1328.481,1189.677Z" transform="translate(-1301.811 -1160.523)" fill="#7c9d2c"/>
              <path id="Trazado_166800" data-name="Trazado 166800" d="M1310.21,1199.025a.69.69,0,0,0-1.01-.123,2.374,2.374,0,0,0-.344.658c-.155.478.459.9.936.647.3-.157.342-.489.48-.751A.525.525,0,0,0,1310.21,1199.025Z" transform="translate(-1285.37 -1168.855)" fill="#7c9d2c"/>
              <path id="Trazado_166801" data-name="Trazado 166801" d="M1257.844,1092.763a.929.929,0,0,0-.869-.122.568.568,0,0,0,.239,1.1.97.97,0,0,0,.416-.046A.549.549,0,0,0,1257.844,1092.763Z" transform="translate(-1238.189 -1073.012)" fill="#7c9d2c"/>
              <path id="Trazado_166802" data-name="Trazado 166802" d="M1216.529,1094.795a.914.914,0,0,0-1.083,0,.539.539,0,0,0,0,.814.914.914,0,0,0,1.083,0A.539.539,0,0,0,1216.529,1094.795Z" transform="translate(-1200.884 -1074.845)" fill="#7c9d2c"/>
              <path id="Trazado_166803" data-name="Trazado 166803" d="M1164.019,1144.691a.656.656,0,0,0-.751-.342c-.487.128-.777.692-.38,1.044a.7.7,0,0,0,.906,0A.56.56,0,0,0,1164.019,1144.691Z" transform="translate(-1153.428 -1119.733)" fill="#7c9d2c"/>
              <path id="Trazado_166804" data-name="Trazado 166804" d="M1179.18,1189.953a.97.97,0,0,0-.669-.342.693.693,0,0,0-.616.15c-.256.216-.186.529-.108.8a.6.6,0,0,0,.3.355.7.7,0,0,0,.849-.179A.55.55,0,0,0,1179.18,1189.953Z" transform="translate(-1166.984 -1160.599)" fill="#7c9d2c"/>
              <path id="Trazado_166805" data-name="Trazado 166805" d="M1224.564,1212.956a.653.653,0,0,0-1.23.215.627.627,0,0,0,.8.637A.609.609,0,0,0,1224.564,1212.956Z" transform="translate(-1208.171 -1181.373)" fill="#7c9d2c"/>
              <path id="Trazado_166806" data-name="Trazado 166806" d="M1222.831,1151.238a.58.58,0,1,0-.055,1.151A.58.58,0,1,0,1222.831,1151.238Z" transform="translate(-1207.111 -1125.967)" fill="#7c9d2c"/>
              <path id="Trazado_166807" data-name="Trazado 166807" d="M1332.536,1125.42c-.065.771,1.276.824,1.282.05C1333.882,1124.7,1332.542,1124.646,1332.536,1125.42Z" transform="translate(-1306.771 -1102.156)" fill="#7c9d2c"/>
              <path id="Trazado_166808" data-name="Trazado 166808" d="M1348.391,1146.734a1.073,1.073,0,0,0-.39-.281.675.675,0,0,0-.693.121.54.54,0,0,0,0,.814.881.881,0,0,0,.63.328A.573.573,0,0,0,1348.391,1146.734Z" transform="translate(-1319.944 -1121.605)" fill="#7c9d2c"/>
              <path id="Trazado_166809" data-name="Trazado 166809" d="M1368.763,1100.18c-.344-.278-.688-.6-1.158-.3-.394.28-.254.656-.03.988a.65.65,0,0,0,.395.273,2.054,2.054,0,0,0,.339.019A.573.573,0,0,0,1368.763,1100.18Z" transform="translate(-1338.214 -1079.488)" fill="#76952b"/>
              <path id="Trazado_166810" data-name="Trazado 166810" d="M1399.253,1105.573a.653.653,0,0,0-1.23.215.627.627,0,0,0,.8.637A.609.609,0,0,0,1399.253,1105.573Z" transform="translate(-1365.9 -1084.415)" fill="#76952b"/>
              <path id="Trazado_166811" data-name="Trazado 166811" d="M1399.853,1135.71a.617.617,0,0,0-.63-.5c-.405.022-.9.318-.808.727a.616.616,0,0,0,.63.5C1399.45,1136.415,1399.941,1136.12,1399.853,1135.71Z" transform="translate(-1366.247 -1111.494)" fill="#76952b"/>
              <path id="Trazado_166812" data-name="Trazado 166812" d="M1386.311,1153.672c-.334-.836-1.614-.384-1.2.41C1385.441,1154.917,1386.721,1154.466,1386.311,1153.672Z" transform="translate(-1354.168 -1127.763)" fill="#76952b"/>
              <path id="Trazado_166813" data-name="Trazado 166813" d="M1369.81,1172.719a.746.746,0,0,0-1.161-.262c-.431.394-.065,1.039.541.983A.6.6,0,0,0,1369.81,1172.719Z" transform="translate(-1339.211 -1144.972)" fill="#76952b"/>
              <path id="Trazado_166814" data-name="Trazado 166814" d="M1407.107,1159.519a.653.653,0,0,0-1.229.215.627.627,0,0,0,.8.637A.609.609,0,0,0,1407.107,1159.519Z" transform="translate(-1372.992 -1133.124)" fill="#76952b"/>
              <path id="Trazado_166815" data-name="Trazado 166815" d="M1370.141,1119.06a.653.653,0,0,0-1.23.215.627.627,0,0,0,.8.637A.609.609,0,0,0,1370.141,1119.06Z" transform="translate(-1339.614 -1096.593)" fill="#76952b"/>
              <path id="Trazado_166816" data-name="Trazado 166816" d="M1418.443,1126.939a.931.931,0,0,0-.869-.122.568.568,0,0,0,.239,1.105.973.973,0,0,0,.416-.047A.549.549,0,0,0,1418.443,1126.939Z" transform="translate(-1383.196 -1103.87)" fill="#76952b"/>
              <path id="Trazado_166817" data-name="Trazado 166817" d="M1390.921,1122.219a.93.93,0,0,0-.869-.122.568.568,0,0,0,.239,1.1.976.976,0,0,0,.416-.046A.549.549,0,0,0,1390.921,1122.219Z" transform="translate(-1358.346 -1099.608)" fill="#76952b"/>
              <path id="Trazado_166818" data-name="Trazado 166818" d="M1417.9,1107.427a.653.653,0,0,0-1.23.215.627.627,0,0,0,.8.637A.609.609,0,0,0,1417.9,1107.427Z" transform="translate(-1382.735 -1086.089)" fill="#76952b"/>
              <path id="Trazado_166819" data-name="Trazado 166819" d="M1344.83,1102.79a.784.784,0,0,0-.708-.51.6.6,0,0,0-.62.722.7.7,0,0,0,.255.341C1344.217,1103.754,1344.988,1103.355,1344.83,1102.79Z" transform="translate(-1316.656 -1081.764)" fill="#76952b"/>
              <path id="Trazado_166820" data-name="Trazado 166820" d="M1417.541,1141.212c-.331-.837-1.614-.384-1.2.41C1416.668,1142.459,1417.951,1142.006,1417.541,1141.212Z" transform="translate(-1382.367 -1116.513)" fill="#76952b"/>
              <path id="Trazado_166821" data-name="Trazado 166821" d="M1368.453,1140.495a.577.577,0,1,0,0,1.152A.577.577,0,1,0,1368.453,1140.495Z" transform="translate(-1338.644 -1116.269)" fill="#76952b"/>
              <path id="Trazado_166822" data-name="Trazado 166822" d="M1385.756,1091.257a.677.677,0,0,0-1.042-.192l-.088.079a.548.548,0,0,0,.136.908C1385.283,1092.339,1386.014,1091.752,1385.756,1091.257Z" transform="translate(-1353.639 -1071.489)" fill="#76952b"/>
              <path id="Trazado_166823" data-name="Trazado 166823" d="M1155.148,1080.933a.577.577,0,1,0,0,1.152A.577.577,0,1,0,1155.148,1080.933Z" transform="translate(-1146.049 -1062.49)" fill="#76952b"/>
              <path id="Trazado_166824" data-name="Trazado 166824" d="M1125.988,1129.367a.93.93,0,0,0-.869-.122.568.568,0,0,0,.239,1.1.969.969,0,0,0,.416-.047A.549.549,0,0,0,1125.988,1129.367Z" transform="translate(-1119.135 -1106.062)" fill="#76952b"/>
              <path id="Trazado_166825" data-name="Trazado 166825" d="M1113.664,1110.22a.783.783,0,0,0-.708-.509.6.6,0,0,0-.62.722.784.784,0,0,0,.708.51A.6.6,0,0,0,1113.664,1110.22Z" transform="translate(-1107.933 -1088.473)" fill="#76952b"/>
              <path id="Trazado_166826" data-name="Trazado 166826" d="M1134.431,1148.969a.577.577,0,1,0,0,1.152A.577.577,0,1,0,1134.431,1148.969Z" transform="translate(-1127.342 -1123.92)" fill="#76952b"/>
              <path id="Trazado_166827" data-name="Trazado 166827" d="M1096.267,1127.878a.58.58,0,1,0-.055,1.152A.58.58,0,1,0,1096.267,1127.878Z" transform="translate(-1092.836 -1104.875)" fill="#76952b"/>
              <path id="Trazado_166828" data-name="Trazado 166828" d="M1144.817,1113.724a.885.885,0,0,0-.958-.492.578.578,0,0,0-.458.7.707.707,0,0,0,.479.435C1144.329,1114.617,1144.968,1114.234,1144.817,1113.724Z" transform="translate(-1135.981 -1091.639)" fill="#76952b"/>
              <path id="Trazado_166829" data-name="Trazado 166829" d="M1178.343,1080.945a.577.577,0,1,0,0,1.152A.577.577,0,1,0,1178.343,1080.945Z" transform="translate(-1166.991 -1062.5)" fill="#76952b"/>
              <path id="Trazado_166830" data-name="Trazado 166830" d="M1093.491,1099.424a.656.656,0,0,0-1.094-.408c-.224.191-.191.471-.18.724a.644.644,0,0,0,1.281,0Q1093.5,1099.583,1093.491,1099.424Z" transform="translate(-1089.78 -1078.666)" fill="#76952b"/>
              <path id="Trazado_166831" data-name="Trazado 166831" d="M1103.433,1080.475a.675.675,0,0,0-1.042-.193.665.665,0,1,0,1.094.408A.4.4,0,0,0,1103.433,1080.475Z" transform="translate(-1098.801 -1061.753)" fill="#76952b"/>
              <path id="Trazado_166832" data-name="Trazado 166832" d="M1082.83,1069.436a.7.7,0,0,0-.393-.585c-.807-.395-1.531.595-.691,1.018A.653.653,0,0,0,1082.83,1069.436Z" transform="translate(-1079.994 -1051.498)" fill="#76952b"/>
              <path id="Trazado_166833" data-name="Trazado 166833" d="M1132.009,1079.794a.783.783,0,0,0-.708-.51.6.6,0,0,0-.62.722.784.784,0,0,0,.708.51A.6.6,0,0,0,1132.009,1079.794Z" transform="translate(-1124.497 -1061.001)" fill="#76952b"/>
              <path id="Trazado_166834" data-name="Trazado 166834" d="M1075.616,1091.094a.746.746,0,0,0-1.161-.262c-.431.394-.065,1.039.541.983A.6.6,0,0,0,1075.616,1091.094Z" transform="translate(-1073.58 -1071.272)" fill="#76952b"/>
              <path id="Trazado_166835" data-name="Trazado 166835" d="M1075.764,1113.661a.722.722,0,0,0-1.353-.245.424.424,0,0,0-.057.23.7.7,0,0,0,.953.6A.668.668,0,0,0,1075.764,1113.661Z" transform="translate(-1073.658 -1091.473)" fill="#76952b"/>
              <path id="Trazado_166836" data-name="Trazado 166836" d="M1109.614,1143.951a.672.672,0,0,0-1.177.138c-.054.246-.172.514-.016.75a.688.688,0,0,0,.874.217.6.6,0,0,0,.3-.355C1109.653,1144.455,1109.771,1144.186,1109.614,1143.951Z" transform="translate(-1104.347 -1119.13)" fill="#76952b"/>
              <path id="Trazado_166837" data-name="Trazado 166837" d="M1155.867,1100.066a.774.774,0,0,0-.7-.515.6.6,0,0,0-.62.722.773.773,0,0,0,.7.515A.6.6,0,0,0,1155.867,1100.066Z" transform="translate(-1146.045 -1079.3)" fill="#76952b"/>
              <path id="Trazado_166838" data-name="Trazado 166838" d="M1132.253,1097.872a.746.746,0,0,0-1.161-.262c-.431.394-.065,1.039.541.983A.6.6,0,0,0,1132.253,1097.872Z" transform="translate(-1124.718 -1077.392)" fill="#76952b"/>
              <path id="Trazado_166839" data-name="Trazado 166839" d="M1148.245,1179.076a.472.472,0,1,0,0,.942A.472.472,0,1,0,1148.245,1179.076Z" transform="translate(-1139.918 -1151.104)" fill="#6d892b"/>
              <path id="Trazado_166840" data-name="Trazado 166840" d="M1127.957,1178.742a.6.6,0,0,0-.791-.314.449.449,0,0,0-.175.766C1127.359,1179.514,1128.092,1179.27,1127.957,1178.742Z" transform="translate(-1121.048 -1150.48)" fill="#6d892b"/>
              <path id="Trazado_166841" data-name="Trazado 166841" d="M1112.857,1174.183a.475.475,0,1,0-.055.942A.475.475,0,1,0,1112.857,1174.183Z" transform="translate(-1107.917 -1146.684)" fill="#6d892b"/>
              <path id="Trazado_166842" data-name="Trazado 166842" d="M1133.443,1192.89a.541.541,0,0,0-.8-.408c.127-.047.008,0,0,0a.487.487,0,0,0-.117.8A.542.542,0,0,0,1133.443,1192.89Z" transform="translate(-1126.036 -1163.152)" fill="#6d892b"/>
              <path id="Trazado_166843" data-name="Trazado 166843" d="M1148.244,1197.6a.6.6,0,0,0-.791-.314.449.449,0,0,0-.175.766C1147.646,1198.372,1148.379,1198.128,1148.244,1197.6Z" transform="translate(-1139.366 -1167.507)" fill="#6d892b"/>
              <path id="Trazado_166844" data-name="Trazado 166844" d="M1163.81,1202.464a.6.6,0,0,0-.791-.314.449.449,0,0,0-.175.766C1163.212,1203.236,1163.945,1202.992,1163.81,1202.464Z" transform="translate(-1153.42 -1171.899)" fill="#6d892b"/>
              <path id="Trazado_166845" data-name="Trazado 166845" d="M1348.445,1214.85a.593.593,0,0,0-1-.151.468.468,0,0,0-.053.558.581.581,0,0,0,1.05-.407Z" transform="translate(-1320.129 -1183.082)" fill="#6d892b"/>
              <path id="Trazado_166846" data-name="Trazado 166846" d="M1360.334,1199.3a.6.6,0,0,0-.791-.314.449.449,0,0,0-.175.766C1359.736,1200.069,1360.469,1199.825,1360.334,1199.3Z" transform="translate(-1330.864 -1169.039)" fill="#6d892b"/>
              <path id="Trazado_166847" data-name="Trazado 166847" d="M1370.78,1211.259a.472.472,0,1,0,0,.942A.472.472,0,1,0,1370.78,1211.259Z" transform="translate(-1340.847 -1180.163)" fill="#6d892b"/>
              <path id="Trazado_166848" data-name="Trazado 166848" d="M1379.881,1199.821a.472.472,0,1,0,0,.942A.472.472,0,1,0,1379.881,1199.821Z" transform="translate(-1349.065 -1169.835)" fill="#6d892b"/>
              <path id="Trazado_166849" data-name="Trazado 166849" d="M1393.816,1192.8a.534.534,0,0,0-1.006.176.514.514,0,0,0,.657.535A.507.507,0,0,0,1393.816,1192.8Z" transform="translate(-1361.193 -1163.233)" fill="#6d892b"/>
            </g>
          </g>
          <g id="Grupo_73249" data-name="Grupo 73249" transform="translate(0.018 0.004)" opacity="0.35" style="mix-blend-mode: multiply;isolation: isolate">
            <path id="Trazado_166850" data-name="Trazado 166850" d="M1185.2,910.081c-.33.073-.682.16-1.05.265-1.675-3.249-2.67-7.226-1.745-10.87.323-1.538.7-3.351,1.139-4.839.131-.454.224-.7.321-1.165.109-.5-.627-.81-1.133-.74-1.453.185-4.043.529-5.458.711a6.759,6.759,0,0,1-1.058,2.669,42.064,42.064,0,0,1-3.3,4.9,30.429,30.429,0,0,1-3.868,4.3,10.1,10.1,0,0,0-1.854,2.108c-.275-.15-.62-.342-.9-.477a44.409,44.409,0,0,0,9.172-11.626,7.963,7.963,0,0,0,1.128-3.053c1.613-.265,5.871-.969,7.538-1.244a.665.665,0,0,1,.6.17.864.864,0,0,1,.188.845C1183.292,898.141,1181.7,904.1,1185.2,910.081Z" transform="translate(-1156.696 -891.008)" fill="#8db634" opacity="0.34" style="mix-blend-mode: multiply;isolation: isolate"/>
            <path id="Trazado_166851" data-name="Trazado 166851" d="M1237.985,1043.025c-.138.013-.39.048-.528.067a36.682,36.682,0,0,1,.738-4.186C1237.964,1039.943,1238.191,1041.7,1237.985,1043.025Z" transform="translate(-1220.944 -1024.547)" fill="#8db634" opacity="0.34" style="mix-blend-mode: multiply;isolation: isolate"/>
            <path id="Trazado_166852" data-name="Trazado 166852" d="M1289.336,1050.735v.18c.093.031.162.033.253.066.245-1.108.492-2.285.67-3.091-.03-.2.166-.48.151-.618C1290.209,1048.068,1289.675,1049.4,1289.336,1050.735Z" transform="translate(-1267.786 -1032.102)" fill="#8db634" opacity="0.34" style="mix-blend-mode: multiply;isolation: isolate"/>
            <path id="Trazado_166853" data-name="Trazado 166853" d="M1103.911,1074.2c-.577-2.643-3.869-4.307-7.486-3.872a5.432,5.432,0,0,1,5.17,3.821c.72,2.873-1.68,5.78-1.68,5.781.392,3-4.8,4.9-6.014,2.808a15.3,15.3,0,0,1-8.148,1.94,20.028,20.028,0,0,1-8.094-3.063,3.431,3.431,0,0,1-1.833-.155c-.957-.341-1.275-1.955.387-2.71-4.376-2.709-7.7-3.37-7.6-10.174-.692.593-3.37,5,2.322,8.969-.045,4.043,4.476,6.709,8.527,5.855a11.508,11.508,0,0,0,12.4.808c3.77,1.906,10.418-.584,9.612-5.1C1103.3,1077.875,1104.312,1076.031,1103.911,1074.2Z" transform="translate(-1067.374 -1051.332)" fill="#8db634" opacity="0.34" style="mix-blend-mode: multiply;isolation: isolate"/>
          </g>
        </g>
        <g id="Grupo_73254" data-name="Grupo 73254" transform="translate(6.608 0)">
          <path id="Trazado_166854" data-name="Trazado 166854" d="M1230.962,768.855l-.013,24.394c-16.361-5.731-45.582-21.491-59.785-25.027-5.126-.6-9.052,4.057-12.133,6.542.281-1.638-.045-4.243.195-5.681a1.847,1.847,0,0,0-.149-2.6,5.444,5.444,0,0,0-5.408-1.577c-4.773,1.6-1.274,7.22-4.427,8.207-.874.329-1.229-.106-1.466.07-.48.358-.417,1.066-1.441,1.424a1.3,1.3,0,0,1-1.36-.241,2,2,0,0,1-1.041,1.945c-2.119,1.042-3.86-6.422-3.464-9.4a21.862,21.862,0,0,1-3.342,1.855c-2.055.841-2.62-1.416-.725-2.855.807-.611,2.789-2.408,4.572-4.052s3.359-3.135,3.359-3.135a16.692,16.692,0,0,1,5.181-3.841c6.118-2.874,13.107-1.885,21.529,2.136C1184.678,760.711,1230.962,768.855,1230.962,768.855Z" transform="translate(-1135.244 -753.241)" fill="#facaa7"/>
          <g id="Grupo_73251" data-name="Grupo 73251" transform="translate(11.811 5.395)">
            <path id="Trazado_166855" data-name="Trazado 166855" d="M1257.6,823.387c-1.245-5.026-1.239-11.438,3.578-14.569a.1.1,0,0,1,.1.175c-4.786,3.13-4.547,9.182-3.576,14.276A.1.1,0,0,1,1257.6,823.387Z" transform="translate(-1256.9 -808.806)" fill="#d8966b"/>
          </g>
          <g id="Grupo_73252" data-name="Grupo 73252" transform="translate(7.896 5.961)">
            <path id="Trazado_166856" data-name="Trazado 166856" d="M1218.413,829.906c-1.984-2.73-2.059-7.433-1.61-9.537.289-1.3,1.253-4.394,2.384-5.7a.1.1,0,0,1,.151.131c-1.106,1.277-2.054,4.333-2.34,5.612-.469,2.1-.317,6.521,1.5,9.34A.1.1,0,0,1,1218.413,829.906Z" transform="translate(-1216.578 -814.636)" fill="#d8966b"/>
          </g>
          <g id="Grupo_73253" data-name="Grupo 73253" transform="translate(5.249 7.6)">
            <path id="Trazado_166857" data-name="Trazado 166857" d="M1189.411,837.613a.1.1,0,0,1-.1-.1,9.554,9.554,0,0,1,1.583-5.945.1.1,0,0,1,.171.1,9.391,9.391,0,0,0-1.555,5.842A.1.1,0,0,1,1189.411,837.613Z" transform="translate(-1189.311 -831.52)" fill="#d8966b"/>
          </g>
          <path id="Trazado_166858" data-name="Trazado 166858" d="M1414,917.279c-15.9-5.608-44.615-21.236-58.342-24.374-5.044-.364-8.807,4.131-11.848,6.574-1.222.982-2.558,1.829-3.918,1.489.051-.449.131-.9.2-1.344,1.934-.413,2.38-1.1,3.842-2.45,2.712-2.138,4.995-4.944,8.363-5.613,3.943-.756,8.244.83,12.016,2.205,11.353,4.138,24.581,10.024,35.469,15.272.691.336,14.6,5.832,15.151,6.377C1415.453,915.929,1414.586,916.575,1414,917.279Z" transform="translate(-1320.026 -877.957)" fill="#facaa7" opacity="0.35" style="mix-blend-mode: multiply;isolation: isolate"/>
        </g>
      </g>
      <g id="Grupo_73261" data-name="Grupo 73261" transform="translate(1159.17 666.141)">
        <path id="Trazado_166859" data-name="Trazado 166859" d="M2416.984,2190.139c-12.769,4.791-29.154,2.7-36.066.436-2.392-11.073-14.592-67.579-16.954-78.52l53.685,6.043C2417.77,2133.736,2418.026,2168.835,2416.984,2190.139Z" transform="translate(-2330.048 -2101.663)" fill="#568bb4"/>
        <g id="Grupo_73260" data-name="Grupo 73260" transform="translate(0 0)">
          <path id="Trazado_166860" data-name="Trazado 166860" d="M2063.267,2015.281c-3.546,18.87-10.677,56.821-14.218,75.659,0,0-17.155,2.1-31.926-6.09.047-23.25-2.495-79.083-2.494-79.832Z" transform="translate(-2014.629 -2005.018)" fill="#568bb4"/>
          <g id="Grupo_73256" data-name="Grupo 73256" transform="translate(34.912 22.191)">
            <path id="Trazado_166861" data-name="Trazado 166861" d="M2381.069,2257.406q-3.18-11.821-6.359-23.641a.25.25,0,0,0-.482.133l6.359,23.641a.25.25,0,0,0,.482-.133Z" transform="translate(-2374.218 -2233.588)" fill="#477494"/>
          </g>
          <g id="Grupo_73257" data-name="Grupo 73257" transform="translate(63.099 21.957)">
            <path id="Trazado_166862" data-name="Trazado 166862" d="M2688.053,2244.307a22.926,22.926,0,0,1-23.04-13.012.25.25,0,0,0-.432.252,23.425,23.425,0,0,0,23.472,13.259.257.257,0,0,0,.25-.25.251.251,0,0,0-.25-.25Z" transform="translate(-2664.549 -2231.172)" fill="#477494"/>
          </g>
          <g id="Grupo_73258" data-name="Grupo 73258" transform="translate(51.591 81.371)">
            <path id="Trazado_166863" data-name="Trazado 166863" d="M2546.193,2845.272a59.956,59.956,0,0,0,34.368-1.639c.3-.107.172-.59-.133-.482a59.426,59.426,0,0,1-34.1,1.639A.25.25,0,0,0,2546.193,2845.272Z" transform="translate(-2546.015 -2843.135)" fill="#477494"/>
          </g>
          <g id="Grupo_73259" data-name="Grupo 73259" transform="translate(4.047 73.176)">
            <path id="Trazado_166864" data-name="Trazado 166864" d="M2056.434,2759.2a51.251,51.251,0,0,0,28.478,6.066c.318-.026.322-.526,0-.5a50.732,50.732,0,0,1-28.226-6C2056.4,2758.614,2056.151,2759.045,2056.434,2759.2Z" transform="translate(-2056.31 -2758.735)" fill="#477494"/>
          </g>
        </g>
        <path id="Trazado_166865" data-name="Trazado 166865" d="M2102.976,2043.7c-.019-2.506-.031-3.761-.039-4.513l-87.525-14.528c.073,1.951.406,9.654.413,9.865,0,0,8.8,3.613,35.246,7.046a312.7,312.7,0,0,0,40.391,2.291,6.713,6.713,0,0,1,6.718,6.324c.719,12.583,1.34,39.239-5.275,46.772-8.871,10.1-28.254,7.512-28.254,7.512l1.554,7.195c6.875,2.284,23.508,4.315,36.066-.436C2103.242,2092.72,2103.072,2056.4,2102.976,2043.7Z" transform="translate(-2015.336 -2022.749)" fill="#568bb4" opacity="0.33" style="mix-blend-mode: multiply;isolation: isolate"/>
        <path id="Trazado_166866" data-name="Trazado 166866" d="M2078.925,2486.25l-7.352,39.121s-17.155,2.1-31.926-6.09c.006-2.574-.021-5.564-.072-8.849.184.017,25.422,10.545,31.223-3.015,4.291-10.033,7.476-22.421,8.127-21.167Z" transform="translate(-2037.153 -2439.449)" fill="#568bb4" opacity="0.33" style="mix-blend-mode: multiply;isolation: isolate"/>
      </g>
      <g id="Grupo_73265" data-name="Grupo 73265" transform="translate(1222.083 774.959)">
        <g id="Grupo_73262" data-name="Grupo 73262" transform="translate(0.158 0.03)">
          <path id="Trazado_166867" data-name="Trazado 166867" d="M2861.659,3182.688l.013.03C2861.873,3182.733,2861.621,3182.6,2861.659,3182.688Z" transform="translate(-2842.49 -3177.173)" fill="#d08e10"/>
          <path id="Trazado_166868" data-name="Trazado 166868" d="M2688.281,3154.293c-.312,2.852-1.52,5.335-8.513,5.936-6.82.736-10.625-2.648-11.976-5.745-1.544-2.147-3.584-15.344-3.541-21.96,0,.3.323.63.922-.262,2.276-1.189,3.29-5.926,8.945-6.105,6.071.182,5.89,5.047,9.314,5.545C2686.88,3139.853,2689.067,3148.037,2688.281,3154.293Z" transform="translate(-2664.25 -3126.157)" fill="#d08e10"/>
        </g>
        <g id="Grupo_73263" data-name="Grupo 73263" transform="translate(0 0)">
          <path id="Trazado_166869" data-name="Trazado 166869" d="M2662.627,3196.456v0C2662.626,3196.453,2662.626,3196.452,2662.627,3196.456Z" transform="translate(-2662.626 -3189.599)" fill="#f6a713"/>
          <path id="Trazado_166870" data-name="Trazado 166870" d="M2688.229,3149.844c-.871,6.564-1.866,7.465-9.343,8.246a13.267,13.267,0,0,1-5.837-.535s0,0,0,0c-4.838-1.529-6.284-7.125-6.55-9.147-.5-3.089-2.016-13.415-2.238-16.164,3.388-.515,3.827-6.865,10.853-6.37,5.07.265,5.355,4.855,8.408,5.231,2.065,4.863,4.42,12.26,4.738,16.789A10.175,10.175,0,0,1,2688.229,3149.844Z" transform="translate(-2664.099 -3125.847)" fill="#f6a713"/>
        </g>
        <g id="Grupo_73264" data-name="Grupo 73264" transform="translate(3.344 8.131)">
          <path id="Trazado_166871" data-name="Trazado 166871" d="M2698.5,3213.49l-.032-.089a42.056,42.056,0,0,1,12.479-1.125,4.416,4.416,0,0,0,1.565-.1c.761-.2,1.544-.944.747-1.708-1.5-1.162-3.692-.832-5.516-.816-3.472.122-6.954.388-10.351.792l-.017-.045-.04.052c-.143,0-.257.1-.187.246l-.078.1.11-.013.872,2.4-.065.017.09.051c.052.18.122.236.3.173Zm14.759-2.265c-.085.321-.539.583-.927.669a4.256,4.256,0,0,1-1.364.067,42.307,42.307,0,0,0-12.609,1.141l-.858-2.36c3.213-.379,6.5-.636,9.774-.763.969-.038,1.972-.079,2.956-.054a4.624,4.624,0,0,1,2.8.761A.541.541,0,0,1,2713.26,3211.225Z" transform="translate(-2697.071 -3209.592)" fill="#d08e11"/>
          <path id="Trazado_166872" data-name="Trazado 166872" d="M2726.079,3262.31a6.3,6.3,0,0,0-2.555-.488c-.895-.027-1.8,0-2.685.034-3.358.1-6.74.34-10.039.708l-.017-.05-.043.056c-.144,0-.254.1-.188.246l-.076.1.106-.012.813,2.405-.072.018.1.054c.046.181.124.231.3.172l.109.062-.028-.082a42.23,42.23,0,0,1,12.341-1.045,3.286,3.286,0,0,0,2.137-.4C2727.1,3263.568,2726.951,3262.693,2726.079,3262.31Zm.432.912a.745.745,0,0,1-.439.626,3.393,3.393,0,0,1-2.1.315,42.171,42.171,0,0,0-12.271,1.071l-.8-2.364c4.2-.457,8.28-.706,12.126-.74C2723.884,3262.111,2726.359,3262.22,2726.511,3263.221Z" transform="translate(-2709.175 -3256.742)" fill="#d08e11"/>
        </g>
      </g>
      <g id="Grupo_73270" data-name="Grupo 73270" transform="translate(1137.801 772.295)">
        <g id="Grupo_73269" data-name="Grupo 73269" transform="translate(0 0)">
          <g id="Grupo_73266" data-name="Grupo 73266">
            <path id="Trazado_166873" data-name="Trazado 166873" d="M1847.8,3120.831c-2.964,1.656-8,3.8-12.1,2.167-3.7-1.468-4.074.059-6,1.005-4.981,2.449-6.792,2.087-13.789,2.313-10.479.158-24.641.864-20.722-7.641a5.568,5.568,0,0,1,1.3-1.571c-.1.091-.218.211-.311.3a11.293,11.293,0,0,1,3.893-1.726c2.313-.72,3.294-.914,6.888-2.144a17.611,17.611,0,0,0,7.161-2.915,21.963,21.963,0,0,0,6.172-3.524,12.714,12.714,0,0,0,3.562-6.246,16.556,16.556,0,0,0,.923-1.865,2.5,2.5,0,0,1,1.639-.578,6.473,6.473,0,0,1,2.867,1.026c.759.377,1.588.771,2.345,1.144,3.285,1.6,10.089,1.219,13.26-.435.083.022.17.048.262.07a23.805,23.805,0,0,0,1.632,6.559,21.749,21.749,0,0,0,2.429,6.62C1851.1,3115.989,1849.669,3120.056,1847.8,3120.831Z" transform="translate(-1794.525 -3098.405)" fill="#d08e10"/>
            <path id="Trazado_166874" data-name="Trazado 166874" d="M1855.682,3118.675c-2.961,1.653-8,3.795-12.1,2.163-3.692-1.464-4.122-.082-6,1.005-5,2.91-9.131,2.732-14.007,2.771-9.584.077-22.314,2.274-20.3-5.9a2.732,2.732,0,0,1,.929-1.6,5.716,5.716,0,0,1,1.6-.761c4.4-1.515,9.309-2.738,13.861-4.765,5.9-2.65,9.988-3.765,11.908-10.728.42-1.514.9-2.356,2.562-2.444,1.274-.025,2.55.945,3.8,1.477a20.6,20.6,0,0,0,1.885.888c3.074,1.321,10.268,1.017,13.007-.784h0c.236,1.152,1.038,4.693,1.75,7.023.812,2.538,1.857,4.546,2.521,6.655C1857.815,3115.53,1857.206,3117.837,1855.682,3118.675Z" transform="translate(-1802.238 -3098.419)" fill="#f6a713"/>
          </g>
          <g id="Grupo_73267" data-name="Grupo 73267" transform="translate(21.601 8.423)">
            <path id="Trazado_166875" data-name="Trazado 166875" d="M2024.3,3192.743l-5.407,2.436a.2.2,0,0,1-.3-.173,20.935,20.935,0,0,0-1.577-6.968c.125-.054.247-.112.365-.169a21.693,21.693,0,0,1,1.594,6.837c1.658-.748,3.323-1.493,4.981-2.241a58.952,58.952,0,0,0-2.761-7.017c.1-.1.205-.192.307-.292a61.064,61.064,0,0,1,2.893,7.36A.2.2,0,0,1,2024.3,3192.743Z" transform="translate(-2017.011 -3185.157)" fill="#d08e10"/>
          </g>
          <g id="Grupo_73268" data-name="Grupo 73268" transform="translate(12.868 13.014)">
            <path id="Trazado_166876" data-name="Trazado 166876" d="M1934.44,3239.018q-2.689,1.247-5.381,2.5a.2.2,0,0,1-.3-.173,20.989,20.989,0,0,0-1.7-6.965l.378-.134a21.685,21.685,0,0,1,1.693,6.8q2.478-1.156,4.959-2.3a59.74,59.74,0,0,0-2.468-6.13l.365-.16a61.662,61.662,0,0,1,2.544,6.341A.2.2,0,0,1,1934.44,3239.018Z" transform="translate(-1927.062 -3232.45)" fill="#d08e10"/>
          </g>
        </g>
        <path id="Trazado_166877" data-name="Trazado 166877" d="M1847.887,3135.567c-2.964,1.656-8,3.8-12.1,2.167-3.7-1.468-4.074.059-6,1.005-4.981,2.449-8.413,2.235-13.789,2.313-10.2.148-23.244,1.033-21.155-6.588a4.954,4.954,0,0,0,.57.6v0c4.779,4.32,19.358,2.5,24.482,2.234,6.177-.32,7.694-4.043,14.523-4.707,6.51-.632,8.05-4.829,7.243-9.31-.91-4.02-7.131-6.879-9.519-7.759a.333.333,0,0,0,.045-.012c3.284,1.315,10.012,1.057,13.007-.784h0a57.7,57.7,0,0,0,2.655,9.5c.585,1.453,1.176,2.779,1.608,4.146a9.945,9.945,0,0,0,.463,1.005C1850.836,3132.086,1849.292,3135,1847.887,3135.567Z" transform="translate(-1794.617 -3113.14)" fill="#f6a713" opacity="0.35" style="mix-blend-mode: multiply;isolation: isolate"/>
      </g>
      <path id="Trazado_166878" data-name="Trazado 166878" d="M2747.622,3449.6a1.019,1.019,0,0,1,.278.118C2747.8,3449.68,2747.711,3449.641,2747.622,3449.6Z" transform="translate(-1517.288 -2643.208)" fill="#f6a713"/>
      <path id="Trazado_166879" data-name="Trazado 166879" d="M2778.114,3154.229c-.312,2.852-1.52,5.335-8.513,5.936,8.714-1.967,8.207-18.711,3.647-26.962-.974-1.433-3.61-2.63-4.923-4.53a5.81,5.81,0,0,0-4.582-2.571c6.388-.335,6.178,4.721,9.6,5.219C2776.869,3140.012,2778.8,3147.323,2778.114,3154.229Z" transform="translate(-1531.842 -2351.104)" fill="#f6a713" opacity="0.35" style="mix-blend-mode: multiply;isolation: isolate"/>
      <path id="Trazado_166880" data-name="Trazado 166880" d="M2724.809,3318.866s6.662-4.081,13.672-1.378c4.231,10.095-6.312,9.1-6.312,9.1S2724.809,3326.653,2724.809,3318.866Z" transform="translate(-1496.689 -2523.087)" fill="#f6a713" opacity="0.28" style="mix-blend-mode: screen;isolation: isolate"/>
      <path id="Trazado_166881" data-name="Trazado 166881" d="M1830.555,3273.564l.281,1.285a2.078,2.078,0,0,1-1.95,2.519c-3.036.121-7.719-.077-7.046-2.527a2.327,2.327,0,0,1,1.1-1.376,16.2,16.2,0,0,1,5.294-1.515A2.075,2.075,0,0,1,1830.555,3273.564Z" transform="translate(-681.328 -2482.788)" fill="#f6a713" opacity="0.28" style="mix-blend-mode: screen;isolation: isolate"/>
      <g id="Grupo_73273" data-name="Grupo 73273" transform="translate(1153.525 558.583)">
        <g id="Grupo_73272" data-name="Grupo 73272" transform="translate(0 0)">
          <path id="Trazado_166882" data-name="Trazado 166882" d="M1957.512,1098.816l-1.027-.486a6.906,6.906,0,0,0,1.883,2.523,3.278,3.278,0,0,0,1.993-.846C1958.937,1099.428,1957.861,1098.982,1957.512,1098.816Z" transform="translate(-1956.485 -1078.8)" fill="#d08e10"/>
          <path id="Trazado_166883" data-name="Trazado 166883" d="M2067.11,975.007c-.184.947-.3,1.453-.3,1.453l-14.057-3.448,9.2,8.918c-.566,4.484-4.668,37.138-5.332,42.416-27.589.177-80.227-2.042-94.548-20.027,2.671-31.125,11.181-48.815,21.583-69.879a16.471,16.471,0,0,0,1.531-3.97,1.119,1.119,0,0,0-.285-.78c-2.72-4.506-18.75-9.678-21.487-10.468.106-.134.27-.352.393-.516h0a19.708,19.708,0,0,0,1.737-2.7c1.929-4.9,2.765-8.55,2.82-18.84,18.311,3.387,70.641,12.06,80.92,14.48,8.571,3.056,17.74,9.584,19.494,24.606A139.743,139.743,0,0,1,2067.11,975.007Z" transform="translate(-1961.528 -897.17)" fill="#f6a713"/>
          <g id="Grupo_73271" data-name="Grupo 73271" transform="translate(78.319 49.923)">
            <path id="Trazado_166884" data-name="Trazado 166884" d="M2763.855,1423.686c-.971-4.071-.631-7.755-.631-12.308h.926c-.007,4.562-.039,9.18,0,13.084Z" transform="translate(-2763.166 -1411.378)" fill="#f6a713" opacity="0.41" style="mix-blend-mode: multiply;isolation: isolate"/>
          </g>
          <path id="Trazado_166885" data-name="Trazado 166885" d="M2535.3,1008.05c-1.407-13.323-9.607-19.942-15.265-22.827h0a35.079,35.079,0,0,0-4.23-1.778c.054-.044.107-.088.16-.133l-1.465-.261-35.538-6.331-.174-.031-.029-.005c1.99,10.141,14.771,17.629,30.917,13.5a56.674,56.674,0,0,1,6.619-1.117c5.6-.627,9.75,4.332,12.327,8.97,7.787,12.219,2.373,45.839,1.82,48.161l3.192.6A139.11,139.11,0,0,0,2535.3,1008.05Z" transform="translate(-2428.05 -968.965)" fill="#f6a713" opacity="0.35" style="mix-blend-mode: multiply;isolation: isolate"/>
          <path id="Trazado_166886" data-name="Trazado 166886" d="M2786.331,1561a25.7,25.7,0,0,1-3.313-2.552c-2.431-2.3-5.375-5-7.715-7.388,3.611,2.779,6.38,6.3,9.978,8.923C2785.666,1560.254,2785.957,1560.673,2786.331,1561Z" transform="translate(-2695.806 -1487.572)" fill="#f6a713" opacity="0.41" style="mix-blend-mode: multiply;isolation: isolate"/>
          <path id="Trazado_166887" data-name="Trazado 166887" d="M2057.823,1165.276l-37.638-36.544c7.311,12.577,9.341,16.712,19.646,34.719,4.272,7.424,1.3,17.15-3.74,20.494-12.117,8.043-40.877,13.37-63.771,2.271-3.871-1.843-9.708-4.374-8.952-10.352,2.3-18.277,8.216-35.547,15.826-54.25,2.148-5.277,7.117-14.361,7.76-16.268.708-2.1-3.275-5.426-6.477-7.412-1.226-.759-11.686-5.5-14.937-6.716a19.715,19.715,0,0,1-1.737,2.7h0c-.124.166-.286.382-.393.517,2.867.908,18.663,5.856,21.487,10.468a1.12,1.12,0,0,1,.286.78,16.6,16.6,0,0,1-1.53,3.97c-10.4,21.059-18.917,38.762-21.583,69.879,14.514,18.1,66.523,20.034,94.455,20.027l4.4-35.014.145-1.15A5.72,5.72,0,0,0,2057.823,1165.276Z" transform="translate(-1961.528 -1072.38)" fill="#f6a713" opacity="0.35" style="mix-blend-mode: multiply;isolation: isolate"/>
        </g>
        <path id="Trazado_166888" data-name="Trazado 166888" d="M2137.139,1432.48s26.532-7.349,44.286,14.715C2178.475,1437.846,2156.679,1424.141,2137.139,1432.48Z" transform="translate(-2119.6 -1378.175)" fill="#f6a713" opacity="0.35" style="mix-blend-mode: multiply;isolation: isolate"/>
      </g>
      <g id="Grupo_73278" data-name="Grupo 73278" transform="translate(1205.018 578.316)">
        <g id="Grupo_73277" data-name="Grupo 73277">
          <path id="Trazado_166889" data-name="Trazado 166889" d="M2540.9,1158.574c-8.451,48.332-39.354-11.673-46.868-21.537a12.406,12.406,0,0,0-2.729-2.956,8.994,8.994,0,0,1-4.023-7.313c-.234-3.874-.368-7.866-.4-9.056-.023-.755-.048-3.278.318-3.939a1.4,1.4,0,0,1,2.43.38c.55,1.967.482,4.286,1.033,6a33.167,33.167,0,0,0,.345-13.6c-.141-.84-.452-3.144-.5-4.382-.04-.976.625-1.439,1.436-1.646a3.63,3.63,0,0,1,4.053,1.8c2.151,3.943,3.06,10.687,2.736,17.057a18.391,18.391,0,0,0,3.152,10.61c1.422,2.135,19.636,21.96,24.413,24.329C2530.039,1156.214,2537.248,1157.856,2540.9,1158.574Z" transform="translate(-2486.864 -1100.417)" fill="#f8c099"/>
          <g id="Grupo_73274" data-name="Grupo 73274" transform="translate(6.269 1.037)">
            <path id="Trazado_166890" data-name="Trazado 166890" d="M2552.148,1126.074a.1.1,0,0,1-.1-.1,51.621,51.621,0,0,0-.468-11.485c-.241-1.085-.413-3.176,1.5-3.391a.1.1,0,0,1,.024.2c-1.77.191-1.541,2.179-1.33,3.167a51.71,51.71,0,0,1,.469,11.517A.1.1,0,0,1,2552.148,1126.074Z" transform="translate(-2551.437 -1111.095)" fill="#dd9b6d"/>
          </g>
          <g id="Grupo_73275" data-name="Grupo 73275" transform="translate(4.452 0.355)">
            <path id="Trazado_166891" data-name="Trazado 166891" d="M2533.862,1118.2a.1.1,0,0,1-.1-.1c.045-4.049.024-4.9-1-11.165-.217-1.258.394-2.771,1.712-2.867a.1.1,0,0,1,.009.2c-1.2.1-1.717,1.492-1.524,2.635,1.02,6.263,1.043,7.212,1,11.2A.1.1,0,0,1,2533.862,1118.2Z" transform="translate(-2532.724 -1104.069)" fill="#dd9b6d"/>
          </g>
          <g id="Grupo_73276" data-name="Grupo 73276" transform="translate(1.962 20.956)">
            <path id="Trazado_166892" data-name="Trazado 166892" d="M2507.738,1324.825a.1.1,0,0,1-.111-.071c-1.434-4.9.286-7.712.847-8.456a.1.1,0,0,1,.16.12c-.547.725-2.222,3.466-.814,8.28A.1.1,0,0,1,2507.738,1324.825Z" transform="translate(-2507.07 -1316.259)" fill="#dd9b6d"/>
          </g>
        </g>
        <path id="Trazado_166893" data-name="Trazado 166893" d="M2598.646,1488.1c-8.743,48.873-39.818-12.916-47.785-22.724,7.575,9.29,14.494,20.032,21.791,28.832,5.03,6.242,14.8,15.1,19.092,6.07,1.749-4.013,2.756-8.585,3.836-12.833C2597.421,1487.866,2598.646,1488.1,2598.646,1488.1Z" transform="translate(-2544.648 -1429.948)" fill="#f8c099" opacity="0.35" style="mix-blend-mode: multiply;isolation: isolate"/>
      </g>
      <g id="Grupo_73287" data-name="Grupo 73287" transform="translate(1200.846 522.176)">
        <path id="Trazado_166894" data-name="Trazado 166894" d="M2447.645,786.713c-.726-.136-2.21.994-2.7-3.882a8.9,8.9,0,0,0-.376-1.853c-1.82-5.652.176-8.556,4.173-6.088l4.195,2.589Z" transform="translate(-2443.894 -749.555)" fill="#f8c099"/>
        <path id="Trazado_166895" data-name="Trazado 166895" d="M2447.645,786.713c-.726-.136-2.21.994-2.7-3.882a8.9,8.9,0,0,0-.376-1.853c-1.82-5.652.176-8.556,4.173-6.088l4.195,2.589Z" transform="translate(-2443.894 -749.555)" fill="#f8c099" style="mix-blend-mode: soft-light;isolation: isolate"/>
        <path id="Trazado_166896" data-name="Trazado 166896" d="M2510.061,661.328c-11.456,12.33-33.8,7.6-37.765-6.676a16.632,16.632,0,0,1,.761-10.971c3.628-8.825,1.827-17.73,1.146-17.957l36.949-5.514,1.014-.15a34.918,34.918,0,0,0,1.581,18.186C2517.151,647.462,2515.707,654.983,2510.061,661.328Z" transform="translate(-2468.995 -610.557)" fill="#e5b18c"/>
        <path id="Trazado_166897" data-name="Trazado 166897" d="M2509.426,662.838c-11.974,12.221-33.985,6.113-37.131-6.792a16.634,16.634,0,0,1,.761-10.971c3.627-8.825,1.827-17.73,1.146-17.957l36.95-5.514a35.139,35.139,0,0,0,1.613,18.036C2516.165,648.855,2516,655.437,2509.426,662.838Z" transform="translate(-2468.995 -611.95)" fill="#f8c099"/>
        <g id="Grupo_73279" data-name="Grupo 73279" transform="translate(14.152 29.914)">
          <path id="Trazado_166898" data-name="Trazado 166898" d="M2594.074,831.933a10.777,10.777,0,0,1-4.124-.683.5.5,0,0,1,.408-.913c.031.013,3.109,1.332,8.153-.022a.5.5,0,0,1,.26.966A18.072,18.072,0,0,1,2594.074,831.933Z" transform="translate(-2589.655 -830.295)" fill="#d8966b"/>
        </g>
        <g id="Grupo_73280" data-name="Grupo 73280" transform="translate(13.709 25.304)">
          <path id="Trazado_166899" data-name="Trazado 166899" d="M2594.622,785.933c-.844-.077-6.783-.932-8.433-1.248-.368-.073-1.053-.209-1.094-.932a.9.9,0,0,1,.847-.95c1.24.247,4.7.8,8.75,1.34A.9.9,0,0,1,2594.622,785.933Zm-7.73-2.284h0Zm0,0h0Z" transform="translate(-2585.094 -782.804)" fill="#763f11"/>
        </g>
        <g id="Grupo_73281" data-name="Grupo 73281" transform="translate(33.543 26.201)">
          <path id="Trazado_166900" data-name="Trazado 166900" d="M2789.916,795a.5.5,0,1,1-.032-1c4.391.027,6.166-1.78,6.156-1.792a.5.5,0,0,1,.746.666C2796.709,792.958,2794.844,795,2789.916,795Z" transform="translate(-2789.389 -792.041)" fill="#d8966b"/>
        </g>
        <g id="Grupo_73282" data-name="Grupo 73282" transform="translate(32.533 22.494)">
          <path id="Trazado_166901" data-name="Trazado 166901" d="M2779.885,758.358a.9.9,0,0,1-.34-1.733l6.608-2.694a.9.9,0,1,1,.679,1.666l-6.607,2.694A.9.9,0,0,1,2779.885,758.358Z" transform="translate(-2778.989 -753.864)" fill="#763f11"/>
        </g>
        <g id="Grupo_73283" data-name="Grupo 73283" transform="translate(27.863 26.378)">
          <path id="Trazado_166902" data-name="Trazado 166902" d="M2733.455,804.1a8.522,8.522,0,0,1-2.205-.309.5.5,0,1,1,.26-.965c1.9.513,3.66.288,4.589-.589a1.662,1.662,0,0,0,.452-1.608,2.355,2.355,0,0,0-1.819-1.6c-2.578-.727-2.792-3.959-2.708-4.72a.5.5,0,0,1,.994.111c-.055.492.069,3.107,1.985,3.647a3.347,3.347,0,0,1,2.519,2.319C2738.053,802.79,2735.747,804.147,2733.455,804.1Z" transform="translate(-2730.88 -793.871)" fill="#d8966b"/>
        </g>
        <g id="Grupo_73285" data-name="Grupo 73285" transform="translate(25.198 39.798)">
          <g id="Grupo_73284" data-name="Grupo 73284">
            <path id="Trazado_166903" data-name="Trazado 166903" d="M2710.966,936.3c-.723,2.574-2.015,5.53-5.623,5.542a1.725,1.725,0,0,1-1.4-.538,3.332,3.332,0,0,1-.48-2.3c.012-.111.677-6.724,4.606-6.9C2711.548,931.972,2711.823,933.336,2710.966,936.3Z" transform="translate(-2703.435 -932.095)" fill="#442c33"/>
          </g>
        </g>
        <path id="Trazado_166904" data-name="Trazado 166904" d="M2506.466,542.828c-.562,2.241-1.871,4.7-.515,6.461.024.032-.042-.309,0,0-5.986-2.256-5.952-5.453-5.952-5.453-1.8,1.152-5.844,3-3.582,6.122-3.6,1.059-8.106-.914-7.836-4.3-2.189.542-4.464,1.69-3.145,4.674-3.413.453-6.061-.609-7.312-3.316-.41-.061-.759.416-1,.692-1.476,1.681-2.053,4.672-2.848,6.787a3.657,3.657,0,0,1-2.347,2.194,6.877,6.877,0,0,1-2.5.471,1.089,1.089,0,0,1-.815-1.022c-.031-1.092-.123-3.515-1.713-9-2.323-6.769-.856-11.7,3.88-14.841,7.289-4.14,16.53-5.239,24.743-4.527C2504.2,528.482,2508.63,534.2,2506.466,542.828Z" transform="translate(-2463.686 -527.045)" fill="#f8c099" opacity="0.41" style="mix-blend-mode: multiply;isolation: isolate"/>
        <path id="Trazado_166905" data-name="Trazado 166905" d="M2507.289,537.43a19.424,19.424,0,0,0-.116,7.515q-.494-.187-.941-.394c-5.091-2.352-5.46-6.407-5.46-6.407-1.847.777-5.821,3.37-3.53,6.415-3.4,1.063-8.148-.865-7.836-4.3-2.137.525-4.479,1.66-3.146,4.674-3.095.47-6.122-.559-7.311-3.316-4.467-.51-4.353,10.292-6.851,10.619a4.575,4.575,0,0,1-2.673.053,1.09,1.09,0,0,1-.816-1.021c-.031-1.095-.123-3.517-1.714-9-2.32-6.769-.857-11.693,3.88-14.839,7.219-4.584,17.031-5.784,25.568-5.056C2505.024,523.081,2509.454,528.806,2507.289,537.43Z" transform="translate(-2463.685 -522.176)" fill="#763f11"/>
        <g id="Grupo_73286" data-name="Grupo 73286" transform="translate(1.288 27.445)">
          <path id="Trazado_166906" data-name="Trazado 166906" d="M2458.957,810.541a.249.249,0,0,1-.214-.179c0-.015-.453-1.516-1.377-1.687a.25.25,0,0,1,.091-.492,2.068,2.068,0,0,1,1.3,1.016,11.962,11.962,0,0,0-1.041-3.982.25.25,0,0,1,.449-.219,11.3,11.3,0,0,1,1.069,5.319A.251.251,0,0,1,2458.957,810.541Z" transform="translate(-2457.164 -804.859)" fill="#cf9065"/>
        </g>
        <path id="Trazado_166907" data-name="Trazado 166907" d="M2718.184,922.8s3.594-1.84,6.792-.626a1.784,1.784,0,0,0-.447-2.085s-2.119-.548-2.276-.548-2.678.7-2.678.7l-1.39,2.086Z" transform="translate(-2691.554 -880.961)" fill="#f3f3f3"/>
        <path id="Trazado_166908" data-name="Trazado 166908" d="M2705.252,923.235a2.673,2.673,0,0,0-1.043-1.286,16.688,16.688,0,0,0,.6-1.775,6.821,6.821,0,0,0,.052-4.314c-.282-.838-.779-1.776-2.373-1.056-.228.1-.622-.55-1.806-.36-4.666.748-5.277,7.566-5.323,8.03-.177,1.12.039,3.758,2.5,3.956C2700.745,928.2,2706.488,926.233,2705.252,923.235Zm-8.9-.653c.006-.067,1.052-6.72,4.77-6.878,1.525-.065,1.954.3,2.4.863.963,1.172.29,3.467-.316,5a3.9,3.9,0,0,0-1.518.038,4.333,4.333,0,0,0-1.139.628.5.5,0,0,1-.421.043,4.433,4.433,0,0,0-2.746-.018l-1.03.324c0,.034-.008.067-.012.1C2696.344,922.613,2696.345,922.622,2696.35,922.582Z" transform="translate(-2670.899 -876.328)" fill="#f8c099" opacity="0.4" style="mix-blend-mode: multiply;isolation: isolate"/>
        <path id="Trazado_166909" data-name="Trazado 166909" d="M2705.144,913.006c-.282-.838-.779-1.776-2.374-1.056-.227.1-.621-.55-1.805-.36-4.666.748-5.277,7.566-5.323,8.03a4.254,4.254,0,0,0,.709,3.083,2.684,2.684,0,0,0,2.143.889c4.329,0,5.846-3.582,6.6-6.272A6.821,6.821,0,0,0,2705.144,913.006Zm-1.094,4c-.722,2.577-1.944,5.581-5.555,5.584-1.984.055-1.961-2.11-1.863-2.835.009-.111,1.04-6.721,4.773-6.907C2704.146,912.627,2704.688,914.743,2704.049,917.008Z" transform="translate(-2671.161 -873.75)" fill="#d8966b"/>
        <path id="Trazado_166910" data-name="Trazado 166910" d="M2714.545,986.413c1.711,4.151-9.957,6.323-8.9-.653l1.03-.324a4.435,4.435,0,0,1,2.717.008.507.507,0,0,0,.45-.033,4.328,4.328,0,0,1,1.139-.628S2713.59,984.094,2714.545,986.413Z" transform="translate(-2680.17 -939.783)" fill="#f0878c"/>
        <path id="Trazado_166911" data-name="Trazado 166911" d="M2577.918,882.416c0-1.354-1.8-2.453-4.03-2.454-5.35.13-5.351,4.769,0,4.9C2576.112,884.867,2577.917,883.771,2577.918,882.416Z" transform="translate(-2557.644 -845.225)" fill="#ec5a5c" style="mix-blend-mode: soft-light;isolation: isolate"/>
        <path id="Trazado_166912" data-name="Trazado 166912" d="M2847.014,848.032c-.354-.992-1.963-1.323-3.594-.741-3.883,1.5-2.668,4.894,1.284,3.591C2846.334,850.3,2847.368,849.023,2847.014,848.032Z" transform="translate(-2802.492 -815.467)" fill="#ec5a5c" style="mix-blend-mode: soft-light;isolation: isolate"/>
        <path id="Trazado_166913" data-name="Trazado 166913" d="M2791.225,539.264a20.547,20.547,0,0,0-.116,7.515c-5.981-3.66,3.361-13.767-4.485-19.316a27.229,27.229,0,0,0-6.343-3.257C2788.96,524.915,2793.39,530.64,2791.225,539.264Z" transform="translate(-2747.621 -524.009)" fill="#763f11" opacity="0.28" style="mix-blend-mode: multiply;isolation: isolate"/>
      </g>
    </g>
  </g>
</svg>
