<?xml version="1.0" encoding="utf-8"?>
<!-- Generator: Adobe Illustrator 25.4.1, SVG Export Plug-In . SVG Version: 6.00 Build 0)  -->
<svg version="1.1" id="Capa_1" xmlns="http://www.w3.org/2000/svg" xmlns:xlink="http://www.w3.org/1999/xlink" x="0px" y="0px"
	 viewBox="0 0 164.2 172.8" style="enable-background:new 0 0 164.2 172.8;" xml:space="preserve">
<style type="text/css">
	.st0{opacity:0.6;fill:#BFE2E2;enable-background:new    ;}
	.st1{fill:#7BA4F6;}
	.st2{fill:#FDD247;}
	.st3{fill:#7793D4;}
	.st4{fill:#F45866;}
	.st5{fill:#D99C31;}
	.st6{fill:#427242;}
	.st7{fill:#538854;}
	.st8{fill:#5AA0A0;}
	.st9{fill:#8AC4C5;}
	.st10{fill:#F99C73;}
	.st11{fill:#171B23;}
	.st12{fill:#59589E;}
	.st13{fill:#EAEAEA;}
</style>
<g id="Grupo_79472" transform="translate(707 8127)">
	<path id="Trazado_178262" class="st0" d="M-552.8-8062.2c20,44.7-7.8,66.9-47.4,99.5c-44.7,36.8-121.6-56.7-101.3-74.2
		c48.3-41.7,10.3-101,88.9-88.3C-531.4-8112.1-573.7-8108.9-552.8-8062.2z"/>
	<path id="Trazado_178263" class="st1" d="M-624.8-8077.7c0,0-15.4-19.4-10.9-29.9c4.5-10.5,11.7-12.3,24.3-12.3s47.2-2.3,53.9,3.7
		c6.7,6.1,13.1,24.9-5.3,27.4s-51.6,0.6-54.6,0.3S-624.8-8077.7-624.8-8077.7z"/>
	<path id="Trazado_178264" class="st2" d="M-617-8108.7c0.9,0,0.9,2.8,1.7,3.4c0.8,0.6,3.5-0.4,3.7,0.5c0.2,0.9-2.5,1.7-2.7,2.6
		c-0.2,0.9,1.5,3.2,0.6,3.7c-0.8,0.5-2.4-1.9-3.3-1.8c-0.9,0.1-2.6,2.4-3.3,1.8s1-2.9,0.6-3.7s-3.1-1.8-2.7-2.6
		c0.4-0.9,3,0.1,3.7-0.5C-618-8106-618-8108.7-617-8108.7z"/>
	<path id="Trazado_178265" class="st2" d="M-604.8-8108.7c0.9,0,0.9,2.8,1.7,3.4c0.8,0.6,3.5-0.4,3.7,0.5c0.2,0.9-2.5,1.7-2.7,2.6
		c-0.2,0.9,1.4,3.2,0.6,3.7c-0.8,0.5-2.4-1.9-3.3-1.8c-0.9,0.1-2.6,2.4-3.3,1.8s1-2.9,0.6-3.7s-3.1-1.8-2.7-2.6
		c0.4-0.9,3.1,0.1,3.7-0.5C-605.7-8106-605.7-8108.7-604.8-8108.7z"/>
	<path id="Trazado_178266" class="st2" d="M-592.2-8108.7c0.9,0,0.9,2.8,1.7,3.4c0.8,0.6,3.5-0.4,3.7,0.5c0.2,0.9-2.5,1.7-2.7,2.6
		c-0.2,0.9,1.5,3.2,0.6,3.7c-0.8,0.5-2.4-1.9-3.3-1.8c-0.9,0.1-2.6,2.4-3.3,1.8s1-2.9,0.6-3.7s-3.1-1.8-2.7-2.6
		c0.4-0.9,3.1,0.1,3.7-0.5C-593.1-8106-593.1-8108.7-592.2-8108.7z"/>
	<path id="Trazado_178267" class="st2" d="M-578.8-8108.7c0.9,0,0.9,2.8,1.7,3.4c0.8,0.6,3.5-0.4,3.7,0.5c0.2,0.9-2.5,1.7-2.7,2.6
		c-0.2,0.9,1.4,3.2,0.6,3.7c-0.8,0.5-2.4-1.9-3.3-1.8c-0.9,0.1-2.6,2.4-3.3,1.8s1-2.9,0.6-3.7s-3.1-1.8-2.7-2.6
		c0.4-0.9,3,0.1,3.7-0.5C-579.8-8106-579.7-8108.7-578.8-8108.7z"/>
	<path id="Trazado_178268" class="st3" d="M-566.2-8108.7c0.9,0,0.9,2.8,1.7,3.4c0.8,0.6,3.5-0.4,3.7,0.5c0.2,0.9-2.5,1.7-2.7,2.6
		c-0.2,0.9,1.5,3.2,0.6,3.7c-0.8,0.5-2.4-1.9-3.3-1.8c-0.9,0.1-2.6,2.4-3.3,1.8s1-2.9,0.6-3.7s-3.1-1.8-2.7-2.6
		c0.4-0.9,3.1,0.1,3.7-0.5C-567.2-8106-567.1-8108.7-566.2-8108.7z"/>
	<path id="Trazado_178269" class="st1" d="M-639.8-8012.8c0,0,14-17.6,9.8-27.1s-10.6-11.2-22-11.2c-11.5,0-42.8-2.1-48.8,3.4
		c-6.1,5.5-11.9,22.6,4.8,24.9c16.7,2.3,46.8,0.5,49.5,0.3C-643.8-8022.7-639.8-8012.8-639.8-8012.8z"/>
	<path id="Trazado_178270" class="st2" d="M-646.9-8040.9c-0.9,0-0.8,2.6-1.5,3.1c-0.7,0.5-3.2-0.3-3.4,0.5
		c-0.2,0.8,2.3,1.5,2.5,2.4s-1.3,2.9-0.6,3.4s2.2-1.7,3-1.6c0.9,0.1,2.4,2.2,3,1.6s-0.9-2.6-0.6-3.4c0.4-0.8,2.8-1.6,2.5-2.4
		c-0.3-0.8-2.8,0.1-3.4-0.5C-646-8038.4-646-8040.9-646.9-8040.9z"/>
	<path id="Trazado_178271" class="st2" d="M-658-8040.9c-0.9,0-0.8,2.6-1.5,3.1c-0.7,0.5-3.2-0.3-3.4,0.5c-0.2,0.8,2.3,1.5,2.5,2.4
		c0.2,0.8-1.3,2.9-0.6,3.4s2.2-1.7,3-1.6c0.8,0.1,2.4,2.2,3,1.6s-0.9-2.6-0.6-3.4c0.4-0.8,2.8-1.6,2.5-2.4c-0.3-0.8-2.8,0.1-3.4-0.5
		C-657.1-8038.4-657.2-8040.9-658-8040.9z"/>
	<path id="Trazado_178272" class="st2" d="M-669.4-8040.9c-0.9,0-0.8,2.6-1.5,3.1c-0.7,0.5-3.2-0.3-3.4,0.5
		c-0.2,0.8,2.3,1.5,2.5,2.4s-1.3,2.9-0.6,3.4s2.2-1.7,3-1.6c0.9,0.1,2.4,2.2,3,1.6s-0.9-2.6-0.6-3.4c0.4-0.8,2.8-1.6,2.5-2.4
		c-0.3-0.8-2.8,0.1-3.4-0.5S-668.6-8040.9-669.4-8040.9z"/>
	<path id="Trazado_178273" class="st3" d="M-681.6-8040.9c-0.9,0-0.8,2.6-1.5,3.1c-0.7,0.5-3.2-0.3-3.4,0.5
		c-0.2,0.8,2.3,1.5,2.5,2.4c0.2,0.8-1.3,2.9-0.6,3.4c0.7,0.4,2.2-1.7,3-1.6s2.4,2.2,3,1.6c0.6-0.6-0.9-2.6-0.6-3.4
		c0.4-0.8,2.8-1.6,2.5-2.4c-0.3-0.8-2.8,0.1-3.4-0.5S-680.7-8040.9-681.6-8040.9z"/>
	<path id="Trazado_178274" class="st3" d="M-693-8040.9c-0.9,0-0.8,2.6-1.5,3.1s-3.2-0.3-3.4,0.5c-0.2,0.8,2.3,1.5,2.5,2.4
		s-1.3,2.9-0.6,3.4c0.7,0.4,2.2-1.7,3-1.6s2.4,2.2,3,1.6c0.6-0.6-0.9-2.6-0.6-3.4s2.8-1.6,2.5-2.4c-0.3-0.8-2.8,0.1-3.4-0.5
		S-692.1-8040.9-693-8040.9z"/>
	<path id="Trazado_178275" class="st4" d="M-666.3-8074.8c4.2,0.4,10.4,0,10.6-2.4c0.2-2.4-5.3-4.9-9.5-5.3s-5.2,1-5.4,3.4
		C-670.8-8076.8-670.4-8075.2-666.3-8074.8z"/>
	<path id="Trazado_178276" class="st5" d="M-669.1-8099.5c4.1,2.1,10.7,4,11.9,1.7s-3.6-7.1-7.7-9.2c-4.1-2.1-5.7-1-6.9,1.3
		S-673.2-8101.6-669.1-8099.5z"/>
	<path id="Trazado_178277" class="st6" d="M-585.6-8043.5c0,0,20.3-16.8,29.8-1.9s28.6,62-12.1,68.3s-89.6,5.6-72.7-12.9
		C-623.7-8008.5-600.1-8034.6-585.6-8043.5z"/>
	<path id="Trazado_178278" class="st7" d="M-568.7-8051.4c0,0,22,20.5,2.3,42.9s-57.4,30.7-69.6,13.5
		C-635.9-7995-596-8051-568.7-8051.4z"/>
	<g id="Grupo_79407" transform="translate(-620.019 -8022.175)">
		<g id="Grupo_79406">
			<g id="Grupo_79405">
				<g id="Grupo_79404">
					<path id="Trazado_178279" class="st8" d="M43,8l-21,1.7l-24.6,3.5c0,0-5.4,0.1-5,14l-0.4,25l2.8,0c0,0,7-15.1,8.2-27.5
						c0,0,19.9-1.1,27.2-4.4S44.6,8.9,43,8z"/>
				</g>
			</g>
		</g>
	</g>
	<g id="Grupo_79412" transform="translate(-609.809 -8020.88)">
		<g id="Grupo_79411">
			<g id="Grupo_79410">
				<g id="Grupo_79409">
					<g id="Grupo_79408">
						<path id="Trazado_178280" class="st9" d="M38.8,7.8c0,0-27.1,3.4-44.5,10.6c-3.5,1.4-5.2,1.3-0.9,15.1l6.6,25.6l2.8-0.9
							c0,0,2-16.4,0.1-29.5c0,0,20,1,28.8-2.5C39.6,23.1,41.5,11.7,38.8,7.8z"/>
					</g>
				</g>
			</g>
		</g>
	</g>
	<g id="Grupo_79416" transform="translate(-610.7 -7968.155)">
		<g id="Grupo_79415">
			<g id="Grupo_79414">
				<g id="Grupo_79413">
					<path id="Trazado_178281" class="st4" d="M-1.6,3.8c0,0,0,2.6-4.5,4.4s-3.4,4.3,0.4,3.4S8.1,10.8,6.4,8c-1-1.5-1.2-3.4-0.6-5.1
						L-1.6,3.8z"/>
				</g>
			</g>
		</g>
	</g>
	<g id="Grupo_79420" transform="translate(-630.84 -7975.688)">
		<g id="Grupo_79419">
			<g id="Grupo_79418">
				<g id="Grupo_79417">
					<path id="Trazado_178282" class="st4" d="M0.3,4.5c0,0,0,2.6-4.5,4.4s-3.4,4.3,0.4,3.4C0,11.4,9.9,11.5,8.3,8.7
						c-1-1.5-1.2-3.4-0.6-5.1L0.3,4.5z"/>
				</g>
			</g>
		</g>
	</g>
	<g id="Grupo_79432" transform="translate(-632.461 -8083.158)">
		<path id="Trazado_178283" class="st10" d="M39.7,45.5c0,0-0.3,24.2-9.5,22.1C20.9,65.4,8.8,56.1,8.8,56.1l1.4-2.6
			c0,0,12.8,8,17.7,3c2.1-2.2,5.1-11.1,5.1-11.1L39.7,45.5z"/>
		<path id="Trazado_178284" class="st2" d="M38.8,52.9l-8.3-4.7c0,0,6.8-12.4,10.6-8.9S40.4,49.6,38.8,52.9z"/>
		<path id="Trazado_178285" class="st5" d="M47.6,32.2c0,0-11.9,1.9-11,15.9c1,13.9-4.3,20.1,0.9,24.5c3.9,3.3,17.4,5.7,24.9,2.8
			C62.4,75.5,81.9,27.4,47.6,32.2z"/>
		<g id="Grupo_79429" transform="translate(57.238)">
			<path id="Trazado_178286" class="st10" d="M-2.4,27.4l1.7,7c0,0-2,3.9-6.8-0.2l1.8-7.3L-2.4,27.4z"/>
			<g id="Grupo_79428">
				<g id="Grupo_79424" transform="translate(4.585 1.439)">
					<g id="Grupo_79423">
						<g id="Grupo_79422">
							<g id="Grupo_79421">
								<path id="Trazado_178287" class="st10" d="M-6.5,14.6c0.8,1.3,2.5,3.8,2.1,5.7s-0.9,5.5-2.8,6.7c-1.9,1.2-3.5-0.4-4.1-1.2
									c-0.8-1.2-2.8-8.7,0.2-11.3C-8.9,12.7-7.2,13.6-6.5,14.6z"/>
							</g>
						</g>
					</g>
				</g>
				<g id="Grupo_79427">
					<g id="Grupo_79426">
						<g id="Grupo_79425">
							<path id="Trazado_178288" class="st11" d="M-12.3,16c0,0,6.5,2.9,8.7,1.8c2.2-1.1,2.4,1.3,2.4,1.5c0.1,0.2,0.3,3.6,1.1,3.5
								C0.8,22.8,1,18.5-0.8,16S-11.7,12.3-12.3,16z"/>
						</g>
					</g>
				</g>
			</g>
		</g>
		<path id="Trazado_178289" class="st10" d="M65.2,47.9c0,0-0.3,24.2-9.5,22.1S34.3,58.5,34.3,58.5l1.4-2.6c0,0,12.8,8,17.7,3
			c2.1-2.2,5.1-11.1,5.1-11.1L65.2,47.9z"/>
		<path id="Trazado_178290" class="st2" d="M65.9,54l-8.7-4.1c0,0,5.8-12.8,9.9-9.6C71.2,43.4,67.3,50.5,65.9,54z"/>
		<g id="Grupo_79431" transform="translate(0 41.867)">
			
				<rect id="Rectángulo_22496" x="38" y="19.7" transform="matrix(2.106458e-02 -0.9998 0.9998 2.106458e-02 7.4209 69.1398)" class="st12" width="2.1" height="22.2"/>
			<path id="Trazado_178291" class="st12" d="M-7,9.7l30.9,0.6l5.9,21.3L-1,31L-7,9.7z"/>
			<g id="Grupo_79430" transform="translate(15.977 10.794)">
				<path id="Trazado_178292" class="st13" d="M-3,11.5c0,1.5-1.3,2.7-2.8,2.7c-1.5,0-2.7-1.3-2.7-2.8s1.3-2.7,2.8-2.7c0,0,0,0,0,0
					C-4.2,8.8-3,10-3,11.5C-3,11.5-3,11.5-3,11.5z"/>
			</g>
		</g>
	</g>
</g>
</svg>
