<svg xmlns="http://www.w3.org/2000/svg" xmlns:xlink="http://www.w3.org/1999/xlink" width="181.074" height="109.315" viewBox="0 0 181.074 109.315">
  <defs>
    <clipPath id="clip-path">
      <rect id="Rect치ngulo_21529" data-name="Rect치ngulo 21529" width="69" height="69" transform="translate(1081 3667)" fill="#fff" stroke="#707070" stroke-width="1"/>
    </clipPath>
  </defs>
  <g id="Grupo_79480" data-name="Grupo 79480" transform="translate(-1025.354 -3626.685)">
    <rect id="Rect치ngulo_21521" data-name="Rect치ngulo 21521" width="181.074" height="11.898" transform="translate(1206.429 3638.583) rotate(180)" fill="#3a82c0"/>
    <path id="Trazado_169430" data-name="Trazado 169430" d="M732.094,1699.232l-18.317,23.8h36.633Z" transform="translate(1847.985 5349.712) rotate(180)" fill="#fff"/>
    <g id="Enmascarar_grupo_81" data-name="Enmascarar grupo 81" clip-path="url(#clip-path)">
      <g id="Page-1" transform="translate(1080.505 3667.089)">
        <g id="_026---Idea" data-name="026---Idea">
          <path id="Shape" d="M64.324,36.106a2.333,2.333,0,0,0-2.29-1.893H59.781l-.166-.993a2.345,2.345,0,0,0-1.949-1.933c-.222-.035-.446-.058-.666-.089a7.116,7.116,0,0,0-.887-5.2,4.773,4.773,0,0,0-3.459-6.385,9.926,9.926,0,0,0-9.7-8.1c-.117,0-.22.015-.331.019a4.745,4.745,0,0,0-7.259-.9,8.007,8.007,0,0,0-4.356-1.294,8.1,8.1,0,0,0-6.367,3.136,5.81,5.81,0,0,0-7.426,5.221,4.8,4.8,0,0,0-2.941,4.423,4.744,4.744,0,0,0,.117,1,9.388,9.388,0,0,0-1.119,8.049c-.313.043-.632.082-.933.126a2.347,2.347,0,0,0-1.964,1.932l-.166,1H7.955A2.333,2.333,0,0,0,5.667,36.1L.559,62.323A3.5,3.5,0,0,0,4,66.49H28.327c.966,1.593,3.9,2.333,6.668,2.333,2.738,0,5.645-.722,6.638-2.333H65.988a3.5,3.5,0,0,0,3.442-4.166ZM17.806,24.223a2.464,2.464,0,0,1,1.26-4.575,2.419,2.419,0,0,1,1.959.989,1.167,1.167,0,0,0,1.873-1.39,4.713,4.713,0,0,0-3.308-1.866,3.546,3.546,0,0,1,3.459-2.808,3.636,3.636,0,0,1,.425.047,7.662,7.662,0,0,0-.245.73,1.166,1.166,0,0,0,2.258.583,5.673,5.673,0,0,1,.605-1.46,5.76,5.76,0,0,1,4.92-2.808,5.666,5.666,0,0,1,3.09.933,4.742,4.742,0,0,0-.274,1.529,1.166,1.166,0,1,0,2.333,0,2.454,2.454,0,1,1,4.907,0,1.166,1.166,0,0,0,2.333,0c0-.09-.022-.175-.027-.265A7.572,7.572,0,0,1,50.283,19.7a4.734,4.734,0,0,0-1.509.752,1.166,1.166,0,0,0,1.4,1.866A2.459,2.459,0,0,1,53.78,25.5a2.488,2.488,0,0,1-1.1,1.022,1.166,1.166,0,0,0,.5,2.216,1.151,1.151,0,0,0,.495-.111,4.791,4.791,0,0,0,.871-.545,4.982,4.982,0,0,1-.987,4.975l-.028.029a5.038,5.038,0,0,1-5.949,1.092,4.63,4.63,0,0,1-.565-.352,3.973,3.973,0,0,0,.308-4.106,1.167,1.167,0,1,0-2.085,1.05,1.737,1.737,0,0,1-.562,2.2,1.76,1.76,0,0,1-2.534-.646,1.167,1.167,0,1,0-2.087,1.044,4.044,4.044,0,0,0,3.635,2.249,4,4,0,0,0,1.464-.288,6.9,6.9,0,0,0,1.367.933,7.186,7.186,0,0,0,5.388.5,7.435,7.435,0,0,1-4.8,2.945,1.166,1.166,0,0,0,.183,2.318,1.241,1.241,0,0,0,.185-.014,9.586,9.586,0,0,0,2.069-.6,10.431,10.431,0,0,1,.87,2,1.2,1.2,0,0,1,.061.377,1.259,1.259,0,0,1-.765,1.157,1.32,1.32,0,0,1-1.506-.4,7.446,7.446,0,0,0-3.414-2.269c-2.521-.845-3.494-1.6-3.907-2.42a11.2,11.2,0,0,0,1.788-.373,1.167,1.167,0,0,0-.686-2.23,8.84,8.84,0,0,1-2.013.37,8.658,8.658,0,0,1-3.866-.583,1.166,1.166,0,0,0-1.308.325,4.995,4.995,0,0,1-8.056-5.841,1.17,1.17,0,0,0-2.008-1.2,7.285,7.285,0,0,0-.667,1.5A1.75,1.75,0,0,1,22.4,30.1v-.029a1.154,1.154,0,0,0-1.166-1.151,1.178,1.178,0,0,0-1.166,1.18,4.059,4.059,0,0,0,3.622,4.026,7.323,7.323,0,0,0,.106,1.166,7.128,7.128,0,0,1-8.065-9.762,4.7,4.7,0,0,0,.868.692,1.166,1.166,0,0,0,1.2-2Zm-5.133,9.37c.538-.079,1.093-.149,1.645-.222a9.418,9.418,0,0,0,10.23,4.15,7.307,7.307,0,0,0,11.446,1.94,11.2,11.2,0,0,0,2.434.441c.563,2.137,2.192,3.432,5.613,4.578a5.17,5.17,0,0,1,2.375,1.564,3.715,3.715,0,0,0,2.818,1.324,3.543,3.543,0,0,0,1.385-.282,3.592,3.592,0,0,0,2.18-3.3,3.461,3.461,0,0,0-.177-1.1,12.751,12.751,0,0,0-1.031-2.374,9.833,9.833,0,0,0,3.876-5.928,7.307,7.307,0,0,0,.672-.94c.391.05.782.094,1.175.16l4.211,25.329a40.041,40.041,0,0,0-25.364,0v-14.6a1.166,1.166,0,1,0-2.333,0V58.933a40.048,40.048,0,0,0-25.364-.009ZM3.092,63.728a1.157,1.157,0,0,1-.245-.957L7.955,36.546H9.822l-3.66,22a2.341,2.341,0,0,0,3.011,2.606,39.025,39.025,0,0,1,19.267-1.222l-.348,4.229H4a1.175,1.175,0,0,1-.909-.429Zm31.9,2.762c-2.81,0-4.422-.831-4.659-1.2l.4-4.841a24.928,24.928,0,0,1,3.754,1.259,1.177,1.177,0,0,0,.5.117,1.16,1.16,0,0,0,.505-.117,24.846,24.846,0,0,1,3.753-1.267l.4,4.848c-.237.371-1.849,1.2-4.659,1.2Zm31.9-2.762a1.175,1.175,0,0,1-.909.429H41.9l-.35-4.237a39.036,39.036,0,0,1,19.275,1.233,2.34,2.34,0,0,0,3-2.612L60.17,36.547h1.866L67.145,62.77A1.157,1.157,0,0,1,66.9,63.728Z" fill="#fff"/>
          <path id="Shape-2" data-name="Shape" d="M31.129,26.462a1.166,1.166,0,0,0-.083,1.647,7.034,7.034,0,0,0,3.739,2.156,3.475,3.475,0,0,1-2.839,1.464,1.166,1.166,0,0,0,0,2.333,5.785,5.785,0,0,0,5.435-3.741,7.04,7.04,0,0,0,5.759-5.6,1.166,1.166,0,1,0-2.291-.439,4.65,4.65,0,0,1-1.932,2.962,4.762,4.762,0,0,1-6.14-.7,1.166,1.166,0,0,0-1.647-.083Z" fill="#fff"/>
          <path id="Shape-3" data-name="Shape" d="M27.063,25.2a1.166,1.166,0,0,0,1.166-1.166A3.033,3.033,0,0,1,31.262,21a1.166,1.166,0,0,0,0-2.333A5.372,5.372,0,0,0,25.9,24.03,1.166,1.166,0,0,0,27.063,25.2Z" fill="#fff"/>
          <path id="Shape-4" data-name="Shape" d="M36.161,2.333V1.166a1.166,1.166,0,1,0-2.333,0V2.333a1.166,1.166,0,1,0,2.333,0Z" fill="#fff"/>
          <path id="Shape-5" data-name="Shape" d="M54.137,8.371,52.97,9.537a1.166,1.166,0,1,0,1.649,1.649l1.166-1.166a1.166,1.166,0,1,0-1.649-1.649Z" fill="#fff"/>
          <path id="Shape-6" data-name="Shape" d="M16.194,11.528a1.166,1.166,0,0,0,.825-1.991L15.853,8.371A1.166,1.166,0,1,0,14.2,10.02l1.166,1.166a1.166,1.166,0,0,0,.825.342Z" fill="#fff"/>
          <path id="Shape-7" data-name="Shape" d="M25.174,6.62a1.183,1.183,0,0,0,.447-.089,1.166,1.166,0,0,0,.631-1.525l-1.34-3.234a1.166,1.166,0,1,0-2.155.894L24.1,5.9a1.166,1.166,0,0,0,1.078.72Z" fill="#fff"/>
          <path id="Shape-8" data-name="Shape" d="M46.6,1.142a1.166,1.166,0,0,0-1.523.631l-1.34,3.234a1.166,1.166,0,0,0,.631,1.526,1.183,1.183,0,0,0,.447.089,1.166,1.166,0,0,0,1.078-.72l1.339-3.234A1.166,1.166,0,0,0,46.6,1.142Z" fill="#fff"/>
          <path id="Shape-9" data-name="Shape" d="M58.7,20.509a1.167,1.167,0,0,0,.447-.09l3.232-1.339a1.167,1.167,0,0,0-.892-2.156l-3.234,1.339a1.166,1.166,0,0,0,.447,2.245Z" fill="#fff"/>
          <path id="Shape-10" data-name="Shape" d="M10.839,20.419a1.167,1.167,0,0,0,.894-2.156L8.5,16.925a1.167,1.167,0,0,0-.892,2.156Z" fill="#fff"/>
        </g>
      </g>
    </g>
  </g>
</svg>
