<svg xmlns="http://www.w3.org/2000/svg" width="345.808" height="412.167" viewBox="0 0 345.808 412.167">
  <g id="Grupo_72882" data-name="Grupo 72882" transform="translate(0 0)">
    <path id="Trazado_166076" data-name="Trazado 166076" d="M715.1,480.553c3.315-4.558,47.95-17.645,55.464-20.006q26.745-8.4,53.6-16.458c7.623-2.3,14.1-4.2,21.989-4.388,5.417-.132,8.755.325,11-5.538,11.8,3.516,23.243,8.466,34.9,12.468,4.916,1.688,27.164,7.059,16.264,13.921-6.578,4.14-14.257,4.674-21.537,6.99-10.324,3.289-20.106,8.005-30.432,11.278-16.226,5.142-32.6,9.805-48.989,14.419-6.237,1.756-13.773,3.343-19.606,6.048-2.878,1.334-8.432,4.371-11.264,4.867-6.558,1.149-16.157-5.869-22.428-7.988-11.8-3.988-23.3-7.2-37.441-12.982C717,482.708,714.863,481.125,715.1,480.553Z" transform="translate(-714.685 -326.795)" fill="#b1dcf1"/>
    <g id="Grupo_72696" data-name="Grupo 72696" transform="translate(54.842 128.401)">
      <g id="Grupo_72695" data-name="Grupo 72695">
        <path id="Trazado_166077" data-name="Trazado 166077" d="M712.639,554.2a5.082,5.082,0,0,1,1.39-.749c2.916-1.028,93.951-31.179,96.886-32.106,3.283-1.037,6.559-2.1,9.836-3.157,4.883-1.575,9.759-3.176,14.617-4.842,2.092-.717,4.186-1.432,6.267-2.2,1.044-.384,6.662-2.125,8.69-2.965,2-.825,3.789-.231,3.911,1.247.3,3.6-6.688,5.437-8.433,6.1-5.572,2.112-11.462,3.8-17.141,5.669q-10.23,3.369-20.525,6.533c-1.984.612-92.5,31.148-94.628,30.672C711.287,557.906,710.668,555.716,712.639,554.2Z" transform="translate(-711.453 -507.806)" fill="#84c6ed"/>
      </g>
    </g>
    <g id="Grupo_72705" data-name="Grupo 72705" transform="translate(91.771 86.134)">
      <g id="Grupo_72698" data-name="Grupo 72698" transform="translate(0 11.592)">
        <g id="Grupo_72697" data-name="Grupo 72697">
          <path id="Trazado_166078" data-name="Trazado 166078" d="M960.9,560.666c-.042-.415-.081-.826-.125-1.244.059.38.114.8.166,1.245Z" transform="translate(-926.284 -514.004)" fill="#e3941e"/>
          <path id="Trazado_166079" data-name="Trazado 166079" d="M986.672,408c2.005,4.488,2.841,15.372,2.479,20.162a100.225,100.225,0,0,0,.053,20.673c-.245-1.584-.541-2.385-.811-.306-3.406-.887-35.231-10.572-35.231-10.572s-.937-29.087-1.062-37.561C954.493,401.213,985.567,405.535,986.672,408Z" transform="translate(-952.1 -400.4)" fill="#e3941e"/>
        </g>
      </g>
      <g id="Grupo_72700" data-name="Grupo 72700" transform="translate(33.055 8.343)">
        <g id="Grupo_72699" data-name="Grupo 72699">
          <path id="Trazado_166080" data-name="Trazado 166080" d="M855.651,389.024c.469,7.3,1.713,29.384,1.855,38.139L817.294,440.4c-.909-4.7-2.255-13.025-3.315-39.711C818.571,399.709,855.571,390.733,855.651,389.024Z" transform="translate(-813.979 -389.024)" fill="#ec9a1c"/>
        </g>
      </g>
      <g id="Grupo_72702" data-name="Grupo 72702" transform="translate(1.15 0)">
        <g id="Grupo_72701" data-name="Grupo 72701">
          <path id="Trazado_166081" data-name="Trazado 166081" d="M860.361,359.814s25.986,1.71,33.689,8.343c-8,2.32-37.634,11.731-44.258,11.712-2.505-.007-23.06-7.464-29.318-8.534.075-.245.146-.492.207-.742C833,366.269,860.361,359.814,860.361,359.814Z" transform="translate(-820.473 -359.814)" fill="#feb229"/>
        </g>
      </g>
      <g id="Grupo_72704" data-name="Grupo 72704" transform="translate(0.655 7.995)">
        <g id="Grupo_72703" data-name="Grupo 72703">
          <path id="Trazado_166082" data-name="Trazado 166082" d="M823.661,391.173c1.332.424,2.671.826,4.009,1.227,3.426,1.027,6.864,2.017,10.3,3q7.511,2.149,15.039,4.233l1.8-.508q10.318-2.907,20.622-5.866c3.8-1.1,7.6-2.2,11.381-3.342,1.442-.435,2.885-.872,4.321-1.331.661-.211,4.258-1.652,3.416.009-.242.48-1.234.635-1.673.792-12.955,4.646-26.426,8.1-39.657,11.837l-.2.058-.206-.057q-8.525-2.357-17.027-4.8c-3.7-1.064-7.4-2.132-11.083-3.268-.761-.235-3.963-.778-4.037-1.814C820.6,390.347,822.99,390.959,823.661,391.173Z" transform="translate(-820.668 -387.806)" fill="#fcc67f"/>
        </g>
      </g>
    </g>
    <g id="Grupo_72714" data-name="Grupo 72714" transform="translate(27.512 101.816)">
      <g id="Grupo_72707" data-name="Grupo 72707" transform="translate(0 10.914)">
        <g id="Grupo_72706" data-name="Grupo 72706">
          <path id="Trazado_166083" data-name="Trazado 166083" d="M1184.215,625.631c-.031-.438-.059-.873-.092-1.315.05.4.094.851.135,1.317Z" transform="translate(-1149.134 -575.37)" fill="#e3941e"/>
          <path id="Trazado_166084" data-name="Trazado 166084" d="M1208.784,462.045c1.97,4.792,2.507,16.287,1.974,21.322a105.646,105.646,0,0,0-.6,21.784c-.208-1.676-.494-2.53-.844-.348-3.562-1.042-36.787-12.254-36.787-12.254s-.067-30.677.07-39.609C1175.093,453.872,1207.7,459.409,1208.784,462.045Z" transform="translate(-1172.511 -452.939)" fill="#e3941e"/>
        </g>
      </g>
      <g id="Grupo_72709" data-name="Grupo 72709" transform="translate(34.648 9.857)">
        <g id="Grupo_72708" data-name="Grupo 72708">
          <path id="Trazado_166085" data-name="Trazado 166085" d="M1072.365,449.236c.262,7.71.874,31.015.746,40.244l-42.788,12.674c-.809-4.98-1.964-13.795-2.235-41.947C1032.956,459.321,1072.226,451.034,1072.365,449.236Z" transform="translate(-1028.087 -449.236)" fill="#ec9a1c"/>
        </g>
      </g>
      <g id="Grupo_72711" data-name="Grupo 72711" transform="translate(1.301)">
        <g id="Grupo_72710" data-name="Grupo 72710">
          <path id="Trazado_166086" data-name="Trazado 166086" d="M1073.153,414.724s27.325,2.624,35.233,9.857c-8.507,2.191-40.025,11.169-47,10.939-2.639-.087-24.06-8.595-30.62-9.92.087-.256.169-.514.241-.775C1044.125,420.659,1073.153,414.724,1073.153,414.724Z" transform="translate(-1030.761 -414.724)" fill="#feb229"/>
        </g>
      </g>
      <g id="Grupo_72713" data-name="Grupo 72713" transform="translate(0.78 9.469)">
        <g id="Grupo_72712" data-name="Grupo 72712">
          <path id="Trazado_166087" data-name="Trazado 166087" d="M1034.126,449.2c1.39.488,2.787.955,4.185,1.42,3.578,1.19,7.168,2.343,10.761,3.487q7.848,2.5,15.712,4.937l1.917-.478q10.964-2.736,21.915-5.528c4.038-1.035,8.072-2.078,12.1-3.161,1.534-.413,3.068-.828,4.6-1.266.7-.2,4.539-1.606,3.6.117-.271.5-1.32.63-1.789.782-13.8,4.485-28.1,7.7-42.158,11.216l-.218.055-.214-.067q-8.908-2.753-17.788-5.594c-3.866-1.238-7.732-2.481-11.575-3.794-.794-.272-4.15-.945-4.2-2.039C1030.925,448.23,1033.426,448.95,1034.126,449.2Z" transform="translate(-1030.968 -447.878)" fill="#fcc67f"/>
        </g>
      </g>
    </g>
    <g id="Grupo_72716" data-name="Grupo 72716" transform="translate(0 152.929)">
      <g id="Grupo_72715" data-name="Grupo 72715">
        <path id="Trazado_166088" data-name="Trazado 166088" d="M1220.666,603.063c5.189,1.983,10.39,3.938,15.62,5.827,2.253.815,4.5,1.631,6.781,2.4,1.142.385,7.063,2.723,9.345,3.393,2.245.659,3.345,2.356,2.432,3.66-2.223,3.172-9.362,0-11.283-.631-6.137-2-12.25-4.567-18.311-6.84q-10.919-4.095-21.75-8.4c-.331-.132-3.069-1.144-7.437-2.759-.033-2.008-.069-4.02-.172-6.023,8.132,3.04,13.633,5.1,14.333,5.374C1213.7,600.41,1217.184,601.733,1220.666,603.063Z" transform="translate(-1195.891 -593.685)" fill="#84c6ed"/>
      </g>
    </g>
    <path id="Trazado_166089" data-name="Trazado 166089" d="M215.008,1017.658a35.387,35.387,0,0,1,7.468-1.252c13.083-.016,21.355,15.773,28.192,27.921,7.484,13.3,10.949,29.656,13.217,45.385a647.715,647.715,0,0,0,12.513,64.826H207.616s-9.2-1.161-7.576-14.479c1.171-9.583,6-16.382,7.87-25.415,5.188-25.03-9.9-56.921-15.1-80.385C191.014,1026.16,205.232,1020.142,215.008,1017.658Z" transform="translate(69.41 -742.745)" fill="#2d393a"/>
    <path id="Trazado_166090" data-name="Trazado 166090" d="M326.874,1100.652c2.749-18.811,6.962-37.815,14.406-54.458,2.247-5.023,7.956-14.946,12.675-17.249,3.334-1.627,8.956-.378,13.237.156.765.1,1.487.169,2.145.2,16.683.733,31.521,8.952,44.341,22.4,10.814,11.342,11.807,34.374,7.805,50.853-1.889,7.78-4.594,16.3-7.154,23.767-1.764,5.144-3.161,7.344-3.177,13.339-.005,1.879,3.277,23.47,4.534,23.265-19.889.843-74.168,0-94.057,0-.8-7.675,1.716-23.629,2.164-31.551C324.375,1121.067,325.391,1110.8,326.874,1100.652Z" transform="translate(-114.628 -751.126)" fill="#2d393a"/>
    <path id="Trazado_166091" data-name="Trazado 166091" d="M510.756,1092.135a3.316,3.316,0,0,1,2.667,3.667c-.347,6.623,6.957,11.714,12.187,14.6a3.232,3.232,0,0,1,1.593,4.2,3.2,3.2,0,0,1-4.255,1.457c-8.187-4.514-16.391-11.481-15.872-21.4C507.167,1092.944,509.166,1091.848,510.756,1092.135Z" transform="translate(-271.481 -796.813)" fill="#f1eef0"/>
    <path id="Trazado_166092" data-name="Trazado 166092" d="M549.271,1198.57c.131-1.005,1.716-.712,1.587.287-.187,1.44-.733,2.792-.919,4.232-.131,1.006-1.716.713-1.587-.286C548.539,1201.363,549.085,1200.01,549.271,1198.57Z" transform="translate(-306.646 -872.435)" fill="#fff"/>
    <path id="Trazado_166093" data-name="Trazado 166093" d="M566.669,1259.949a11.159,11.159,0,0,0-.273,5.676c.185.991-1.39,1.332-1.577.34a12.736,12.736,0,0,1,.313-6.506C565.475,1258.51,567.013,1259,566.669,1259.949Z" transform="translate(-327.126 -916.013)" fill="#fff"/>
    <path id="Trazado_166094" data-name="Trazado 166094" d="M575.225,1334.716c.151-.989,1.762-.9,1.609.1q-.648,4.235-1.295,8.47c-.151.988-1.762.9-1.609-.1Q574.577,1338.95,575.225,1334.716Z" transform="translate(-339.929 -969.645)" fill="#fff"/>
    <path id="Trazado_166095" data-name="Trazado 166095" d="M582,1436.263c.151-.989,1.762-.9,1.609.1l-1.3,8.47c-.151.988-1.762.9-1.609-.1Q581.353,1440.5,582,1436.263Z" transform="translate(-348.64 -1042.19)" fill="#fff"/>
    <g id="Grupo_72717" data-name="Grupo 72717" transform="translate(175.531 152.363)">
      <path id="Trazado_166096" data-name="Trazado 166096" d="M468.459,591.7c18.349,1.41,36.513,5.06,55.056,5.792,7.689.3,19.71-2.7,24.749,3.628,11.192,14.061,3.336,30.338-8.836,39.689-6.879,5.284-16.931,1.962-24.612.425-18.093-3.617-30.939-2.015-45.44-5.361-7.58-1.748-9.793-3.133-9.749-5.723.04-2.411,2.035-5.866,3.475-11.629C465.342,609.558,464.428,600.381,468.459,591.7Z" transform="translate(-459.626 -591.704)" fill="#c85540"/>
    </g>
    <g id="Grupo_72718" data-name="Grupo 72718" transform="translate(205.462 151.403)">
      <path id="Trazado_166097" data-name="Trazado 166097" d="M440.19,592.59c5.653-2.331,13.025-1.234,18.952-2.3,6.92-1.249,13.541-2.877,20.6-1.279,15.45,3.5,14.033,26.083,14.647,37.862a55.3,55.3,0,0,1-.3,9.761c-2.056,15.806-15.027,19.325-28.983,17.273-8.249-1.213-15.839-4.311-23.816-6.492-8.457-2.313-14.428-2.646-22.261-7.482C415.86,637.964,435.437,594.55,440.19,592.59Z" transform="translate(-418.686 -588.343)" fill="#cf7600"/>
    </g>
    <g id="Grupo_72719" data-name="Grupo 72719" transform="translate(160.583 174.266)">
      <path id="Trazado_166098" data-name="Trazado 166098" d="M782.98,668.561c11.13,1.766,7.711,14.95-.219,19.191C764.808,697.355,765.7,665.834,782.98,668.561Z" transform="translate(-769.654 -668.393)" fill="#c85540"/>
    </g>
    <g id="Grupo_72720" data-name="Grupo 72720" transform="translate(158.9 91.278)">
      <path id="Trazado_166099" data-name="Trazado 166099" d="M739.075,378.263c4.039,1.39,4.4,6.1,5.343,9.835.08.315.163.624.253.923,1.567,5.194,3.424,10.3,4.711,15.576,1.59,6.521,2.385,13.088,3.847,19.644,1.631,7.312,3.016,15.87,2.675,23.493-.335,7.482-3.392,19.835-11.2,24.377-23.912,13.9-26.376-33.672-24.794-44.267C720.856,421.5,722.988,372.726,739.075,378.263Z" transform="translate(-719.528 -377.826)" fill="#c85540"/>
    </g>
    <g id="Grupo_72721" data-name="Grupo 72721" transform="translate(161.939 98.18)">
      <path id="Trazado_166100" data-name="Trazado 166100" d="M768.383,423.13c.187-.984.351-2.11.58-3.269.86-4.344,5.377-17.968,10.959-17.869,1.1.021,7.787.769,6.573,2.994-.921,1.687-3.84-.133-5.182.7-1.9,1.176-2.672,4.209-3.544,6.125-2.709,5.955-5.23,12.144-6.158,18.662-1.376,9.664.486,19.8.872,29.486.083,2.092,3.651,17.807,3.427,18.045-1.717,1.833-3.941,1.051-5.351-2.7-5.01-13.351-3.944-27.4-3.138-41.586A80.686,80.686,0,0,1,768.383,423.13Z" transform="translate(-766.735 -401.992)" fill="#ba4b3f"/>
    </g>
    <path id="Trazado_166101" data-name="Trazado 166101" d="M749.961,279.7c13.935-4.572,29.751-3.472,44.042-6.891,12.388-2.964,24.357-8.569,36.378-12.7,7.466-2.566,15.043-4.789,22.634-6.95,5.931-1.688,12.679-5.168,18.79-5.793,6.58-.674,14.267,3.3,20.545,5.022,7.617,2.091,39.967,12.426,39.131,13.037-7.567,5.508-18.424,9.024-27.3,11.306-10.3,2.648-20.159,6.756-30.465,9.388-16.192,4.136-32.5,7.786-48.821,11.386-6.211,1.37-13.682,2.492-19.554,4.834-7.366,2.937-9.4,3.768-16.823.451-7.145-3.2-15.544-1.853-22.488-5.488-3.319-1.737-21.473-8.139-21.293-13.48C744.793,282.323,746.288,280.907,749.961,279.7Z" transform="translate(-743.37 -193.294)" fill="#b1dcf1"/>
    <g id="Grupo_72723" data-name="Grupo 72723" transform="translate(44.074 72.541)">
      <g id="Grupo_72722" data-name="Grupo 72722" transform="translate(0)">
        <path id="Trazado_166102" data-name="Trazado 166102" d="M741.332,349.941a5.1,5.1,0,0,1,1.433-.661c2.974-.847,95.694-25.33,98.68-26.075,3.341-.832,6.676-1.692,10.011-2.545,4.972-1.271,9.937-2.569,14.888-3.932,2.133-.587,4.267-1.172,6.391-1.809,1.066-.319,6.781-1.71,8.857-2.424,2.042-.7,3.8,0,3.827,1.485.075,3.608-7.01,5.014-8.793,5.567-5.692,1.764-11.674,3.086-17.458,4.6q-10.419,2.732-20.889,5.256c-2.018.489-94.24,25.389-96.339,24.783C739.755,353.558,739.271,351.334,741.332,349.941Z" transform="translate(-740.018 -312.222)" fill="#84c6ed"/>
      </g>
    </g>
    <path id="Trazado_166103" data-name="Trazado 166103" d="M548.42,528.922l-.511-1.816A2.417,2.417,0,0,1,548.42,528.922Z" transform="translate(-304.097 -393.193)" fill="#e76e43"/>
    <path id="Trazado_166104" data-name="Trazado 166104" d="M558.476,508.926l-.773-2.746a2.417,2.417,0,0,0-.511-1.816l.511,1.816c-.563,4.382-12.718,8.5-12.654-2.98C545.128,488.97,559.618,495.755,558.476,508.926Z" transform="translate(-313.379 -370.451)" fill="#e76e43"/>
    <path id="Trazado_166105" data-name="Trazado 166105" d="M413.447,561.668a39.761,39.761,0,0,1-7.1,6.41A59.613,59.613,0,0,1,413.447,561.668Z" transform="translate(-128.671 -417.883)" fill="#3c4645"/>
    <path id="Trazado_166106" data-name="Trazado 166106" d="M581.447,436.417a17.753,17.753,0,0,0,1.29-1.476,66.607,66.607,0,0,0,4.1-6.562c-.554.907.722,3.52.794,4.552.221,3.124.262,8.176-3.536,9.125-1.073.268-4.966-.321-5.534-1.345C577.371,438.565,580.176,437.716,581.447,436.417Z" transform="translate(-352.04 -322.663)" fill="#ba4b3f"/>
    <path id="Trazado_166107" data-name="Trazado 166107" d="M378.412,453.863c.076-5.161.56-10.1,3.669-14.657,1.978-2.9,6.012-8.682,9.5-9.068,4.651-.514,2.9.7,4.061,4.9,2.758,9.959,7.06,18.233,12.009,27.23,4.14,7.526,7.25,15.531,11.51,23.009,3.255,5.715,10.159,12.365,9.839,19.372-.259,5.644-5.255,12.479-8.894,16.412-9.162,9.9-23.239,13.458-33.966,3.68-10.456-9.532-14.611-7.758-10.178-23.774C380.276,485.391,378.176,470.025,378.412,453.863Z" transform="translate(-135.06 -323.84)" fill="#c85540"/>
    <path id="Trazado_166108" data-name="Trazado 166108" d="M396.815,796.478c-.171-.171-.35-.328-.528-.478,6.747-1.525,13.529-2.784,20.3-2.54-.85,1.842-2.033,3.834-3.157,6.109-1.013,2.051-7.237,15.607-9.35,23.476a9.315,9.315,0,0,0-1.736-.211c1.23.027.117-.1-.55-.2-.327-.124-1.147-.394-1.315-.478-.667-.318-1.337-.66-1.976-1.035-.171-.1-1.785-1.119-1.294-.793-1.026-.679-2.048-1.383-3.075-2.075C395.737,811.757,401.739,801.444,396.815,796.478Z" transform="translate(-128.329 -583.452)" fill="#f5a41e"/>
    <path id="Trazado_166109" data-name="Trazado 166109" d="M420.3,348.872c.8-3.149,3.217-5.754,4.738-8.565,1.509-2.792,3.471-6.07,6.7-7.117,2-.65,5.339-.3,8.59.3,2.846.522,5.625,1.227,7.388,1.611,11.73,2.548,19.478,12.33,20.416,23.976a32.941,32.941,0,0,1-5.018,20.193,28.277,28.277,0,0,1-5.755,6.689c-2.085,1.7-4.947,1.568-7.444,2.446-4.5,1.581-9.264,4.3-14.1,4.656-4.772.352-13.282,2.289-15.25-1.955-3.987-8.6-6.893-16.984-2.113-26.518C421.232,359.041,418.9,354.374,420.3,348.872Z" transform="translate(-186.211 -254.411)" fill="#e76e43"/>
    <path id="Trazado_166110" data-name="Trazado 166110" d="M497.633,447.947l-.131-.014a2.515,2.515,0,0,0,.307.007Z" transform="translate(-239.069 -336.632)" fill="#f6e1d7"/>
    <path id="Trazado_166111" data-name="Trazado 166111" d="M444.059,342.462l-.065-.069Z" transform="translate(-170.035 -261.235)" fill="#826367"/>
    <path id="Trazado_166112" data-name="Trazado 166112" d="M390.847,432.091l.057.107Z" transform="translate(-101.702 -325.315)" fill="#826367"/>
    <path id="Trazado_166113" data-name="Trazado 166113" d="M405.172,623.605l-.017.017Z" transform="translate(-120.056 -462.131)" fill="#408fc0"/>
    <path id="Trazado_166114" data-name="Trazado 166114" d="M322.563,622.247c4.236-4.647,8.245-9.678,12.554-14.206,11.22-11.792,38.811-16.031,54.489-17.074,18.637-1.239,26.369,22.008,29.331,36.524,2.056,10.074.951,16.9-1.84,26.515-4.026,13.873,1.344,28.907-3.071,43.055a13.525,13.525,0,0,1-1.222,2.8c-2.759,4.73-7.971,6.624-13.484,9.061-5.865,2.592-11.075,5.66-17.481,7.3-12.316,3.155-25.86,3.022-36.253-5.2-19.7-15.579-32.18-49.519-29.328-73.7C316.936,631.579,318.786,626.391,322.563,622.247Z" transform="translate(-109.377 -438.78)" fill="#ed9500"/>
    <path id="Trazado_166115" data-name="Trazado 166115" d="M508.238,489.346c.34.125.184,1.866.116,1.854l-.183-.077C507.815,490.864,507.678,489.151,508.238,489.346Z" transform="translate(-252.667 -366.206)" fill="#de7d5f"/>
    <path id="Trazado_166116" data-name="Trazado 166116" d="M436.778,337.354c7.372-.509,14.447,3.928,18.783,9.606a36.2,36.2,0,0,1,6.887,15.016c.639,3.376.809,6.866-1.795,9.522-1.093-1.994-.474-4.88-.792-7.092-.429-2.952-1.021-7.131-2.53-9.718-2.537-4.344-8.28-5.88-12-9.057-2-1.705-2.92-4.78-5.781-5.333-2.159-.417-5.229.9-7.33,1.51-3.641,1.06-7.569,3.568-9.547,6.9.129-.215.257-.43.387-.644C426.169,342.954,430.342,337.8,436.778,337.354Z" transform="translate(-182.735 -257.607)" fill="#de7d61"/>
    <path id="Trazado_166117" data-name="Trazado 166117" d="M224.486,315.783c22.448-3.462,60.117,4.4,57.959,34.22-.491,6.793-4.688,11.556-.055,17.66,4.513,5.947,13.031,5.3,18.765,9.937,6.548,5.3,12.433,13.018,14.516,21.286,1.293,5.137,1.736,12.087-.985,16.777-3.838,6.614-10.513,5.585-16.4,8.756-6.2,3.34-3.727,3.361-4.583,9.454-.79,5.607-3.725,10.245-7.712,14.322-13.72,14.032-42.838,1.754-46.572-16.426-2.018-9.825,6.209-18.1,4.77-26.976-1.488-9.173-13.584-9.521-18.589-16.055-8.62-11.253,3.558-25.5,1.357-37.934a20.294,20.294,0,0,0-1.892-5.755c-3.527-6.887-16.166-8.848-17-16.8C207.2,319.94,218.134,316.764,224.486,315.783Z" transform="translate(24.729 -241.683)" fill="#293b37"/>
    <path id="Trazado_166118" data-name="Trazado 166118" d="M506.763,451.965c5.453.843,4.36,9.619.077,11.348a5.5,5.5,0,0,1-1.489.069c-2.032-.059-5.314-.334-5.442.125C500.85,460.118,501.278,451.113,506.763,451.965Z" transform="translate(-252.41 -339.472)" fill="#e76e43"/>
    <path id="Trazado_166119" data-name="Trazado 166119" d="M511.005,464.3c.1,1.52-.092,3.935-2.307,2.836.2-1.2.515-2.412.786-3.609Z" transform="translate(-255.484 -347.774)" fill="#ba4b3f"/>
    <path id="Trazado_166120" data-name="Trazado 166120" d="M567.149,403.7c1.005.677,3.275,1.779,2.512,3.709.027-.059-.226-.2-.637-.387-1.249-.555-3.922-1.495-4.187-1.623-1.637-.8-1.1-2.563-.175-4.244A14.158,14.158,0,0,0,567.149,403.7Z" transform="translate(-330.005 -303.216)" fill="#543c3e"/>
    <path id="Trazado_166121" data-name="Trazado 166121" d="M565.529,464.165c-.012.135-.032.364,0,.077.017,3.683-7.227,3.124-6.8-.134C559.269,460.016,565.68,461.745,565.529,464.165Z" transform="translate(-324.276 -346.431)" fill="#df453a"/>
    <path id="Trazado_166122" data-name="Trazado 166122" d="M581.93,433.007c.311.236.318,1.1.014,1.922s-.8,1.312-1.111,1.078-.318-1.094-.017-1.92S581.62,432.776,581.93,433.007Z" transform="translate(-347.159 -325.927)" fill="#1e2635"/>
    <path id="Trazado_166123" data-name="Trazado 166123" d="M569.087,431.24a8.436,8.436,0,0,1,3.974,2.314.431.431,0,0,1-.049.653.57.57,0,0,1-.729-.131,7.172,7.172,0,0,0-3.37-1.939,5.931,5.931,0,0,0,.137-.594C569.068,431.442,569.075,431.341,569.087,431.24Z" transform="translate(-334.841 -324.707)" fill="#533b3e"/>
    <path id="Trazado_166124" data-name="Trazado 166124" d="M363.742,368.637c7.138,4.905,17.114,15.957,17,25.33-.072,5.74-5.648,11.136-5,16.755.728,6.279,5.159,5.7,9.65,8.938,13.4,9.663,1.366,18.561,6.961,29.873,4.37,8.833,22.35,12,20.821,23.48-2.946,22.127-33.046-7.377-33.412-18.411-.281-8.449,4.912-14.492-.707-22.326-4.472-6.236-16.136-9.217-15.947-17.43.187-8.153,10.344-13.18,10.956-21.278.454-6.019-2.573-5.421-5.874-9.005-4.067-4.417-5.713-10.613-10.314-14.626-1.836-1.6-7.723-2.09-9.063-4.216C344.084,358.222,362.065,367.485,363.742,368.637Z" transform="translate(-111.834 -275.826)" fill="#25312d"/>
    <path id="Trazado_166125" data-name="Trazado 166125" d="M230.64,397.644c6.037,1.166,5.527,6.984,5.859,11.722.512,7.309,2.378,15.656,7.422,21.258,5.476,6.082,14.351,7.6,20.543,12.951,6.121,5.288,9.616,12.695,8.3,20.553-.46,2.754-3.39,15.511-8.335,12.868-3.659-1.956.759-8.532.933-10.986,1.321-18.607-21.45-23.485-34.722-34.847-5.723-4.9-9.81-11.794-9.5-19.452C221.365,406.359,223.352,396.236,230.64,397.644Z" transform="translate(64.633 -300.611)" fill="#25312d"/>
    <path id="Trazado_166126" data-name="Trazado 166126" d="M358.094,369.18c6.186.4,8.721,7.051,9.438,12.334.232,1.7-2.44,1.7-2.668.019-.5-3.673-2.277-9.4-6.752-9.685C356.4,371.738,356.379,369.069,358.094,369.18Z" transform="translate(-68.626 -280.369)" fill="#212a25"/>
    <path id="Trazado_166127" data-name="Trazado 166127" d="M369.88,467.515a1.335,1.335,0,0,1,2.576.691l-1.106,4.122a1.335,1.335,0,0,1-2.576-.691Z" transform="translate(-76.986 -349.94)" fill="#212a25"/>
    <path id="Trazado_166128" data-name="Trazado 166128" d="M463.161,425.6a11.825,11.825,0,0,1,1.29,9.055,1.335,1.335,0,0,1-2.577-.691,9.045,9.045,0,0,0-1.024-7.032A1.335,1.335,0,0,1,463.161,425.6Z" transform="translate(-195.577 -320.203)" fill="#212a25"/>
    <path id="Trazado_166129" data-name="Trazado 166129" d="M531.193,350.953c2.749,1.883,4.959,4.322,7.413,6.546,1.275,1.156-.625,3.029-1.9,1.876-2.279-2.065-4.315-4.373-6.867-6.121C528.434,352.288,529.771,349.978,531.193,350.953Z" transform="translate(-289.353 -267.182)" fill="#212a25"/>
    <path id="Trazado_166130" data-name="Trazado 166130" d="M418.754,569.292a88.726,88.726,0,0,1,4.268,14.939c.34,1.679-2.231,2.394-2.572.709A88.654,88.654,0,0,0,416.182,570C415.552,568.4,418.133,567.71,418.754,569.292Z" transform="translate(-141.059 -422.69)" fill="#212a25"/>
    <path id="Trazado_166131" data-name="Trazado 166131" d="M377.482,662.95a19.332,19.332,0,0,0,3.019,10c.924,1.456-1.384,2.794-2.3,1.346a22.009,22.009,0,0,1-3.383-11.343A1.334,1.334,0,0,1,377.482,662.95Z" transform="translate(-86.935 -489.317)" fill="#212a25"/>
    <path id="Trazado_166132" data-name="Trazado 166132" d="M298.94,545.91l6.788,11.763a1.334,1.334,0,0,1-2.31,1.333l-6.788-11.763A1.334,1.334,0,0,1,298.94,545.91Z" transform="translate(10.249 -406.16)" fill="#212a25"/>
    <path id="Trazado_166133" data-name="Trazado 166133" d="M297.1,638.809c.84-1.5,3.142-.151,2.3,1.352-1.818,3.245-3.807,6.374-5.856,9.477-.943,1.428-3.251.088-2.3-1.351C293.293,645.183,295.282,642.054,297.1,638.809Z" transform="translate(18.131 -472.525)" fill="#212a25"/>
    <path id="Trazado_166134" data-name="Trazado 166134" d="M342.34,625.618a18.656,18.656,0,0,1,.128,8.465,1.335,1.335,0,0,1-2.577-.691,15.522,15.522,0,0,0-.125-7.069C339.424,624.642,342,623.933,342.34,625.618Z" transform="translate(-39.1 -462.88)" fill="#3b4e49"/>
    <path id="Trazado_166135" data-name="Trazado 166135" d="M367.565,537.642c1.661,2.878,3.626,5.912,4.38,9.188.386,1.675-2.187,2.38-2.573.7-.7-3.054-2.568-5.873-4.118-8.558A1.335,1.335,0,0,1,367.565,537.642Z" transform="translate(-75.419 -400.254)" fill="#3b4e49"/>
    <path id="Trazado_166136" data-name="Trazado 166136" d="M404.482,430.679a20.856,20.856,0,0,1,.329,11.833,1.335,1.335,0,0,1-2.577-.691,18.215,18.215,0,0,0-.326-10.438C401.379,429.74,403.956,429.048,404.482,430.679Z" transform="translate(-119.447 -323.641)" fill="#3b4e49"/>
    <path id="Trazado_166137" data-name="Trazado 166137" d="M424.163,349.141c4.613,1.33,7.551,4.8,7.575,9.674a1.335,1.335,0,0,1-2.668.019c-.018-3.68-2.117-6.113-5.6-7.116A1.335,1.335,0,0,1,424.163,349.141Z" transform="translate(-151.584 -266.014)" fill="#3b4e49"/>
    <path id="Trazado_166138" data-name="Trazado 166138" d="M469.923,368.39a20.506,20.506,0,0,1,6.589,6.541,1.335,1.335,0,0,1-2.311,1.334,17.436,17.436,0,0,0-5.629-5.573C467.15,369.74,468.489,367.431,469.923,368.39Z" transform="translate(-209.532 -279.644)" fill="#3b4e49"/>
    <path id="Trazado_166139" data-name="Trazado 166139" d="M386.279,621.217a73.531,73.531,0,0,1,.928,9.417c.1,1.722-2.566,1.727-2.668.018a68.167,68.167,0,0,0-.834-8.731C383.383,620.24,385.955,619.528,386.279,621.217Z" transform="translate(-95.959 -459.735)" fill="#3b4e49"/>
    <path id="Trazado_166140" data-name="Trazado 166140" d="M600.095,608.039c1.013-3.776,2.558-9.128,5.9-11.542,3.9-2.816,7.133.514,11.405.234-2.683,5.373-3.637,11.917-5,17.714-3.347,14.238-7.025,31.684-7.858,31.612-10.562-.088-11.171-3.709-9.408-13.765C596.563,624.162,597.955,616.018,600.095,608.039Z" transform="translate(-386.331 -441.952)" fill="#feb229"/>
    <path id="Trazado_166141" data-name="Trazado 166141" d="M1052.288,936.772c-1.816.859-7.078-2.747-8.305-3.925a9.348,9.348,0,0,1-2.192-4.69c2.473.768,4.969,1.468,7.428,2.1C1048.923,933,1055.039,935.472,1052.288,936.772Z" transform="translate(-949.713 -679.7)" fill="#c85540"/>
    <path id="Trazado_166142" data-name="Trazado 166142" d="M1074.381,934.531c-.847,4.632,4.6,9.553,1.659,11.445-1.942,1.249-6.326-5.5-7.281-7.646a18.96,18.96,0,0,1-.992-7.5C1070.017,932.425,1072.118,933.169,1074.381,934.531Z" transform="translate(-981.048 -681.61)" fill="#c85540"/>
    <path id="Trazado_166143" data-name="Trazado 166143" d="M1055.446,936.823c-.815,4.32,4.787,8.974,1.808,10.712-1.966,1.147-6.505-5.2-7.5-7.22a19.747,19.747,0,0,1-1.285-7.708C1050.779,934.119,1053.124,935.527,1055.446,936.823Z" transform="translate(-956.754 -682.879)" fill="#ba4b3f"/>
    <g id="Grupo_72725" data-name="Grupo 72725" transform="translate(36.031 297.809)">
      <g id="Grupo_72724" data-name="Grupo 72724">
        <path id="Trazado_166144" data-name="Trazado 166144" d="M761.263,1107.153q14.228-2.962,28.438-6.012l.859-.185.841.243c5.571,1.6,19.939,4.658,35.149,7.894,16.275,3.462,32.71,6.665,48.762,10.989,2.21.6,9.954,1.921,10.779,4.349,2.13,6.285-18.466-.572-21.676-.955-13.168-1.572-26.359-5.517-39.319-8.274-15.262-3.245-28.538-6.07-34.77-7.773q-12.319,2.64-24.655,5.218c-9.687,2.024-20.963,4.283-30.963,4.622-1.374.046-4.535-1.707-4.778-3.387a1.418,1.418,0,0,1,.187-.927C730.648,1112.036,753.826,1108.7,761.263,1107.153Z" transform="translate(-729.915 -1100.956)" fill="#c81d25"/>
      </g>
    </g>
    <g id="Grupo_72727" data-name="Grupo 72727" transform="translate(23.182 262.09)">
      <g id="Grupo_72726" data-name="Grupo 72726">
        <path id="Trazado_166145" data-name="Trazado 166145" d="M1117.835,975.893c11.406,15.065,31.275,46.674,39.455,62.459,4.516,8.718-14.879,26.22-21.365,19.149-4.8-5.229-32.422-46.946-43.646-63.2,7.163-2.9,17.8-13.744,24.508-17.147Z" transform="translate(-1092.278 -975.893)" fill="#d2232c"/>
      </g>
    </g>
    <g id="Grupo_72729" data-name="Grupo 72729" transform="translate(22.742 260.294)">
      <g id="Grupo_72728" data-name="Grupo 72728">
        <path id="Trazado_166146" data-name="Trazado 166146" d="M1239.136,973.746c6.08-4.516,21.552-8.091,15.858,4.737-2.779,6.262-17.311,16.168-23.269,12.955-2.972-1.6-2.991-4.333-1.674-7.217C1231.926,980.119,1236.505,975.7,1239.136,973.746Z" transform="translate(-1229.215 -969.603)" fill="#273d50"/>
      </g>
    </g>
    <g id="Grupo_72731" data-name="Grupo 72731" transform="translate(22.232 259.334)">
      <g id="Grupo_72730" data-name="Grupo 72730">
        <path id="Trazado_166147" data-name="Trazado 166147" d="M1232.069,975.615c3.048-3.677,7.306-6.878,10.846-8.156,1.152-.416,7.081-2.381,10.621-.223a4.914,4.914,0,0,1,2.326,3.631c.457,2.966-.748,6.28-3.486,9.583h0c-3.759,4.534-10.245,8.615-14.766,9.29-2.809.421-6.485-.219-8.37-2.592a5.666,5.666,0,0,1-.654-5.754A20.028,20.028,0,0,1,1232.069,975.615ZM1230.5,986.1c1.264,1.592,4.091,2.413,6.877,2,3.664-.548,9.815-3.96,13.764-8.724,1.69-2.038,3.6-5.124,3.121-8.251a3.281,3.281,0,0,0-1.553-2.466c-2.422-1.476-6.956-.467-9.253.362a26.35,26.35,0,0,0-10.149,7.665,18.372,18.372,0,0,0-3.2,5.279A4.088,4.088,0,0,0,1230.5,986.1Z" transform="translate(-1228.118 -966.242)" fill="#f7e6d2"/>
      </g>
    </g>
    <g id="Grupo_72732" data-name="Grupo 72732" transform="translate(30.91 285.287)">
      <path id="Trazado_166148" data-name="Trazado 166148" d="M1171.728,1064.231c2.564,2.667,8.283,6.51,12.147,5.5,3.193-.834,3.611-4.24,4.976-6.991,3.807-7.679,9.952-3.433,11.943,3.081,1.805,5.9,1.269,17.844-3.171,22.345-8.743,8.855-34.517-21.134-33.169-29.447C1165.336,1053.295,1170.781,1063.246,1171.728,1064.231Z" transform="translate(-1164.403 -1057.11)" fill="#c4232a"/>
    </g>
    <g id="Grupo_72734" data-name="Grupo 72734" transform="translate(54.896 361.875)">
      <g id="Grupo_72733" data-name="Grupo 72733" transform="translate(0)">
        <path id="Trazado_166149" data-name="Trazado 166149" d="M824.205,1330.687c5.726-1.541,11.159-3.813,17.031-4.729,11.024-1.721,20.66.008,31.459,2.747,3.75.952,7.461,1.985,11.161,3.044,5.376,1.54,10.728,3.134,16.137,4.613,6.216,1.7,13.745,2.167,19.556,5.035-3.282,3.794-7.437,3.306-11.52,5.161a144.357,144.357,0,0,1-18.606,6.78c-9.5,2.813-15.068,6.964-25.241,4.612-11.154-2.579-22.013-7.859-32.971-11.307-5.28-1.662-10.627-3.87-16.1-4.671-4.306-.63-8.284-.51-12.173-2.914C807.576,1334.136,818.013,1332.354,824.205,1330.687Z" transform="translate(-802.94 -1325.27)" fill="#1f6178"/>
      </g>
    </g>
    <g id="Grupo_72737" data-name="Grupo 72737" transform="translate(97.757 296.646)">
      <g id="Grupo_72736" data-name="Grupo 72736" transform="translate(0)">
        <g id="Grupo_72735" data-name="Grupo 72735">
          <path id="Trazado_166150" data-name="Trazado 166150" d="M1040.854,1097.293l5.385-.409c.348,4.76-.1,27.845-.4,32.359l-5.39-.373C1040.765,1124.152,1041.163,1101.549,1040.854,1097.293Z" transform="translate(-1040.453 -1096.884)" fill="#d71c23"/>
        </g>
      </g>
    </g>
    <g id="Grupo_72740" data-name="Grupo 72740" transform="translate(128.065 312.5)">
      <g id="Grupo_72739" data-name="Grupo 72739" transform="translate(0)">
        <g id="Grupo_72738" data-name="Grupo 72738">
          <path id="Trazado_166151" data-name="Trazado 166151" d="M938.124,1152.393l3.424.32c-.2,2.251-.51,4.329-.838,6.528a97.388,97.388,0,0,0-1.122,10.14l-3.434-.176a100.415,100.415,0,0,1,1.156-10.493C937.629,1156.567,937.932,1154.539,938.124,1152.393Z" transform="translate(-936.154 -1152.393)" fill="#273d50"/>
        </g>
      </g>
    </g>
    <g id="Grupo_72743" data-name="Grupo 72743" transform="translate(112.564 308.633)">
      <g id="Grupo_72742" data-name="Grupo 72742" transform="translate(0)">
        <g id="Grupo_72741" data-name="Grupo 72741">
          <path id="Trazado_166152" data-name="Trazado 166152" d="M992.947,1138.854l3.177.039c-.015,1.245-.3,3.49-.668,6.334-.547,4.253-1.295,10.08-1.427,15.156l-3.176-.087c.136-5.244.9-11.167,1.453-15.492C992.644,1142.176,992.936,1139.906,992.947,1138.854Z" transform="translate(-990.853 -1138.854)" fill="#273d50"/>
        </g>
      </g>
    </g>
    <g id="Grupo_72746" data-name="Grupo 72746" transform="translate(143.551 315.485)">
      <g id="Grupo_72745" data-name="Grupo 72745" transform="translate(0)">
        <g id="Grupo_72744" data-name="Grupo 72744">
          <path id="Trazado_166153" data-name="Trazado 166153" d="M885.752,1162.843l2.893.375c-.2,1.645-.515,3.151-.845,4.747a51.091,51.091,0,0,0-1.112,7.221l-2.909-.206a53.5,53.5,0,0,1,1.168-7.633C885.263,1165.815,885.563,1164.367,885.752,1162.843Z" transform="translate(-883.779 -1162.843)" fill="#273d50"/>
        </g>
      </g>
    </g>
    <g id="Grupo_72749" data-name="Grupo 72749" transform="translate(160.145 318.479)">
      <g id="Grupo_72748" data-name="Grupo 72748" transform="translate(0)">
        <g id="Grupo_72747" data-name="Grupo 72747">
          <path id="Trazado_166154" data-name="Trazado 166154" d="M825.5,1173.327l3.352.777a26.932,26.932,0,0,1-.96,3.138,20.676,20.676,0,0,0-1.175,4.354l-3.407-.472a24.357,24.357,0,0,1,1.348-5.073A23.829,23.829,0,0,0,825.5,1173.327Z" transform="translate(-823.308 -1173.327)" fill="#273d50"/>
        </g>
      </g>
    </g>
    <g id="Grupo_72752" data-name="Grupo 72752" transform="translate(75.035 314.732)">
      <g id="Grupo_72751" data-name="Grupo 72751">
        <g id="Grupo_72750" data-name="Grupo 72750">
          <path id="Trazado_166155" data-name="Trazado 166155" d="M1088.071,1160.207l.482,2.753c-2.578.471-5.1.865-7.541,1.244a108.708,108.708,0,0,0-12.574,2.437l-.738-2.693a110.064,110.064,0,0,1,12.9-2.508C1083.024,1161.062,1085.53,1160.672,1088.071,1160.207Z" transform="translate(-1067.7 -1160.207)" fill="#273d50"/>
        </g>
      </g>
    </g>
    <g id="Grupo_72755" data-name="Grupo 72755" transform="translate(85.672 306.36)">
      <g id="Grupo_72754" data-name="Grupo 72754" transform="translate(0)">
        <g id="Grupo_72753" data-name="Grupo 72753">
          <path id="Trazado_166156" data-name="Trazado 166156" d="M1091.8,1138.049c.255,2.951.52,6,.9,8.977l-2.712.364c-.39-3.032-.656-6.114-.915-9.095-.2-2.326-.411-4.732-.675-7.081l2.719-.32C1091.391,1133.281,1091.6,1135.705,1091.8,1138.049Z" transform="translate(-1088.404 -1130.894)" fill="#273d50"/>
        </g>
      </g>
    </g>
    <g id="Grupo_72758" data-name="Grupo 72758" transform="translate(71.982 309.119)">
      <g id="Grupo_72757" data-name="Grupo 72757" transform="translate(0)">
        <g id="Grupo_72756" data-name="Grupo 72756">
          <path id="Trazado_166157" data-name="Trazado 166157" d="M1140.568,1146.555c.225,1.536.458,3.123.712,4.678l-2.4.413c-.259-1.576-.493-3.175-.719-4.724-.285-1.948-.579-3.962-.925-5.928l2.4-.44C1139.984,1142.557,1140.281,1144.59,1140.568,1146.555Z" transform="translate(-1137.234 -1140.555)" fill="#273d50"/>
        </g>
      </g>
    </g>
    <g id="Grupo_72761" data-name="Grupo 72761" transform="translate(105.738 314.62)">
      <g id="Grupo_72760" data-name="Grupo 72760">
        <g id="Grupo_72759" data-name="Grupo 72759">
          <path id="Trazado_166158" data-name="Trazado 166158" d="M904.627,1163.779c7.428,1.879,15.847,4.008,23.838,5.319l-.555,3.537c-8.134-1.335-16.628-3.483-24.123-5.378-6.4-1.62-12.451-3.149-17.2-3.9l.537-3.539C892.026,1160.591,898.148,1162.14,904.627,1163.779Z" transform="translate(-886.588 -1159.816)" fill="#273d50"/>
        </g>
      </g>
    </g>
    <g id="Grupo_72764" data-name="Grupo 72764" transform="translate(106.465 326.194)">
      <g id="Grupo_72763" data-name="Grupo 72763">
        <g id="Grupo_72762" data-name="Grupo 72762">
          <path id="Trazado_166159" data-name="Trazado 166159" d="M983.672,1201.719c2.944.765,5.986,1.556,8.988,2.265l-.788,3.488c-3.038-.717-6.1-1.512-9.063-2.281-1.78-.463-3.559-.926-5.344-1.374l.837-3.479C980.093,1200.789,981.883,1201.254,983.672,1201.719Z" transform="translate(-977.465 -1200.338)" fill="#273d50"/>
        </g>
      </g>
    </g>
    <g id="Grupo_72766" data-name="Grupo 72766" transform="translate(62.666 278.932)">
      <g id="Grupo_72765" data-name="Grupo 72765">
        <path id="Trazado_166160" data-name="Trazado 166160" d="M1096.932,1043.853a37.927,37.927,0,0,1,1.694,16.359c-1.265,9.94-.06,21.411.118,31.435.11,6.231-.63,40.375-1.73,46.538-3.374-1.194-29.462-9.108-29.462-9.108s-3.067-84.987-2.666-94.217C1067.245,1035.907,1095.973,1041.093,1096.932,1043.853Z" transform="translate(-1064.85 -1034.861)" fill="#e3941e"/>
      </g>
    </g>
    <g id="Grupo_72768" data-name="Grupo 72768" transform="translate(93.522 280.313)">
      <g id="Grupo_72767" data-name="Grupo 72767" transform="translate(0)">
        <path id="Trazado_166161" data-name="Trazado 166161" d="M959.13,1039.7c.019,8.566-1.182,89.839-4.4,98.012l-42.182,10.51c-.653-5.554,1.25-66.65,1.87-97.9C919.324,1049.505,958.934,1041.687,959.13,1039.7Z" transform="translate(-912.413 -1039.697)" fill="#ec9a1c"/>
      </g>
    </g>
    <g id="Grupo_72770" data-name="Grupo 72770" transform="translate(63.28 269.841)">
      <g id="Grupo_72769" data-name="Grupo 72769">
        <path id="Trazado_166162" data-name="Trazado 166162" d="M955.415,1003.029s26.92,3.447,34.508,10.841c-8.475,1.9-39.9,9.786-46.79,9.341-2.6-.169-23.507-9.245-29.948-10.76.093-.25.183-.5.263-.759C926.544,1007.987,955.415,1003.029,955.415,1003.029Z" transform="translate(-913.184 -1003.029)" fill="#feb229"/>
      </g>
    </g>
    <g id="Grupo_72772" data-name="Grupo 72772" transform="translate(94.977 290.723)">
      <g id="Grupo_72771" data-name="Grupo 72771" transform="translate(0)">
        <path id="Trazado_166163" data-name="Trazado 166163" d="M1065.186,1076.6c-.823,2.97-.253,14.927.021,20.673.085,1.766.146,3.042.146,3.552h-1.621c0-.47-.063-1.794-.143-3.471-.3-6.282-.857-17.974.038-21.206Z" transform="translate(-1063.14 -1076.146)" fill="#fcc67f"/>
      </g>
    </g>
    <g id="Grupo_72774" data-name="Grupo 72774" transform="translate(113.117 309.59)">
      <g id="Grupo_72773" data-name="Grupo 72773" transform="translate(0)">
        <path id="Trazado_166164" data-name="Trazado 166164" d="M953.645,1151.383c1.432,4.812.958,10.043.317,14.936-1.229,9.375-.621,18.94-.6,28.443.01,5.909.87,16.319-.162,22.122-2.894-1.244-18.766-10.354-18.766-10.354s-1.323-55.6-.851-64.328C935.6,1143.272,952.856,1148.735,953.645,1151.383Z" transform="translate(-933.476 -1142.203)" fill="#314343"/>
      </g>
    </g>
    <g id="Grupo_72776" data-name="Grupo 72776" transform="translate(132.202 309.155)">
      <g id="Grupo_72775" data-name="Grupo 72775" transform="translate(0)">
        <path id="Trazado_166165" data-name="Trazado 166165" d="M831.579,1140.682c-.244,7.713.061,59.77-3.146,67.078L788.3,1218.484c-.707-8.229.073-46.468.254-69.124C793.962,1148.164,829.778,1141.234,831.579,1140.682Z" transform="translate(-788.013 -1140.682)" fill="#252c2d"/>
      </g>
    </g>
    <g id="Grupo_72778" data-name="Grupo 72778" transform="translate(113.204 301.799)">
      <g id="Grupo_72777" data-name="Grupo 72777" transform="translate(0)">
        <path id="Trazado_166166" data-name="Trazado 166166" d="M843.054,1116.506c3,1.006,7.424,2.326,9.66,4.762,2.18,2.375-2.018,2.552-3.835,2.942q-11.627,2.5-23.254,4.994c-3.365.727-6.729,1.454-10.089,2.207a25.31,25.31,0,0,1-3.805,1.028c-2.247-1.515-15.255-9.339-19.87-10.388,11.2-3.085,37.639-7.125,37.639-7.125C834.2,1115.448,838.569,1115,843.054,1116.506Z" transform="translate(-791.861 -1114.926)" fill="#2d393a"/>
        <path id="Trazado_166167" data-name="Trazado 166167" d="M936.331,1176.079a.539.539,0,0,0,.267.047C937.089,1176.456,937.069,1176.488,936.331,1176.079Z" transform="translate(-916.728 -1158.613)" fill="#2d393a"/>
      </g>
    </g>
    <g id="Grupo_72780" data-name="Grupo 72780" transform="translate(79.82 317.758)">
      <g id="Grupo_72779" data-name="Grupo 72779" transform="translate(0)">
        <path id="Trazado_166168" data-name="Trazado 166168" d="M1061.235,1177.247c1.792,5.086,1.923,10.769,1.869,16.1-.1,10.215,1.454,20.494,2.475,30.752a129.007,129.007,0,0,1,.953,19.036c-2.72-1.123-16.632-4.892-16.632-4.892s-5.706-57.98-6.213-67.44C1045.61,1171.8,1060.249,1174.448,1061.235,1177.247Z" transform="translate(-1043.687 -1170.802)" fill="#40794e"/>
      </g>
    </g>
    <g id="Grupo_72782" data-name="Grupo 72782" transform="translate(96.158 317.605)">
      <g id="Grupo_72781" data-name="Grupo 72781">
        <path id="Trazado_166169" data-name="Trazado 166169" d="M993.019,1236.834l-23.83,6.689c-2.7-15.245-4.413-47.974-5.535-66.744,5.531-1.983,20.422-5.185,24.233-6.514C988.474,1178.408,993.812,1226.855,993.019,1236.834Z" transform="translate(-963.653 -1170.265)" fill="#3d7a4c"/>
      </g>
    </g>
    <g id="Grupo_72784" data-name="Grupo 72784" transform="translate(80.177 311.117)">
      <g id="Grupo_72783" data-name="Grupo 72783" transform="translate(0)">
        <path id="Trazado_166170" data-name="Trazado 166170" d="M1022.62,1154.038c-7.339,2.328-24.919,7.226-24.919,7.226s-11.7-4.959-15.1-7.073a137.107,137.107,0,0,1,21.106-6.641S1014.78,1148.457,1022.62,1154.038Z" transform="translate(-982.605 -1147.55)" fill="#4d905f"/>
      </g>
    </g>
    <g id="Grupo_72786" data-name="Grupo 72786" transform="translate(43.882 333.71)">
      <g id="Grupo_72785" data-name="Grupo 72785">
        <path id="Trazado_166171" data-name="Trazado 166171" d="M1043.2,1250.215l-.633,2.839c-11.391-2.657-75.808-20.191-81.958-23.888l1.443-2.51C967.551,1229.96,1031.362,1247.454,1043.2,1250.215Z" transform="translate(-960.609 -1226.656)" fill="#79bada"/>
      </g>
    </g>
    <g id="Grupo_72788" data-name="Grupo 72788" transform="translate(46.152 342.092)">
      <g id="Grupo_72787" data-name="Grupo 72787">
        <path id="Trazado_166172" data-name="Trazado 166172" d="M1049.252,1277.976l-.63,2.87c-10.674-2.449-69.894-18.486-76.365-22.3l1.434-2.548C979.5,1259.421,1038.207,1275.442,1049.252,1277.976Z" transform="translate(-972.257 -1256.002)" fill="#79bada"/>
      </g>
    </g>
    <g id="Grupo_72790" data-name="Grupo 72790" transform="translate(161.584 329.1)">
      <g id="Grupo_72789" data-name="Grupo 72789" transform="translate(0)">
        <path id="Trazado_166173" data-name="Trazado 166173" d="M803.234,1221.9c.564-3.5,1.168-7.249,1.859-11.381l2.835.5c-.689,4.126-1.292,7.867-1.857,11.364-1.357,8.425-2.53,15.7-4.131,23.413-1.085,5.232-2.091,10.509-3.074,16.135l-2.832-.517c.989-5.657,2-10.965,3.092-16.227C800.713,1237.529,801.882,1230.284,803.234,1221.9Z" transform="translate(-796.034 -1210.514)" fill="#79bada"/>
      </g>
    </g>
    <g id="Grupo_72792" data-name="Grupo 72792" transform="translate(148.422 333.114)">
      <g id="Grupo_72791" data-name="Grupo 72791" transform="translate(0)">
        <path id="Trazado_166174" data-name="Trazado 166174" d="M853.849,1224.568l2.794,1.17c-.784,1.958-2.046,11.815-3.267,21.347-1.444,11.283-3.083,24.071-4.652,30.239l-2.923-.778c1.521-5.981,3.146-18.668,4.581-29.862C851.952,1234.416,852.961,1226.785,853.849,1224.568Z" transform="translate(-845.801 -1224.568)" fill="#79bada"/>
      </g>
    </g>
    <g id="Grupo_72794" data-name="Grupo 72794" transform="translate(134.342 338.365)">
      <g id="Grupo_72793" data-name="Grupo 72793" transform="translate(0)">
        <path id="Trazado_166175" data-name="Trazado 166175" d="M905.334,1261.589l1.976-18.637,2.941.326-1.975,18.637c-.492,4.647-1.216,9.384-1.914,13.964-.911,5.971-1.853,12.145-2.279,18.109l-2.951-.22c.434-6.089,1.386-12.325,2.306-18.357C904.132,1270.866,904.849,1266.166,905.334,1261.589Z" transform="translate(-901.133 -1242.952)" fill="#79bada"/>
      </g>
    </g>
    <g id="Grupo_72796" data-name="Grupo 72796" transform="translate(107.183 338.423)">
      <g id="Grupo_72795" data-name="Grupo 72795" transform="translate(0)">
        <path id="Trazado_166176" data-name="Trazado 166176" d="M1003.175,1243.382l2.868-.226c.165,2.2-.986,10.97-2.9,25.148-1.474,10.911-3.308,24.487-3.033,26.163l0-.02-2.8.677c-.394-1.7.66-10,2.986-27.221C1001.716,1257.369,1003.329,1245.429,1003.175,1243.382Z" transform="translate(-997.225 -1243.156)" fill="#79bada"/>
      </g>
    </g>
    <g id="Grupo_72798" data-name="Grupo 72798" transform="translate(81.549 328.031)">
      <g id="Grupo_72797" data-name="Grupo 72797" transform="translate(0)">
        <path id="Trazado_166177" data-name="Trazado 166177" d="M1106.215,1231.24c.184,12.488.374,25.4.839,29.848l-2.859.314c-.48-4.582-.671-17.563-.855-30.117-.159-10.749-.308-20.9-.623-24.231l2.863-.283C1105.905,1210.22,1106.056,1220.43,1106.215,1231.24Z" transform="translate(-1102.717 -1206.77)" fill="#79bada"/>
      </g>
    </g>
    <g id="Grupo_72800" data-name="Grupo 72800" transform="translate(68.316 323.843)">
      <g id="Grupo_72799" data-name="Grupo 72799" transform="translate(0)">
        <path id="Trazado_166178" data-name="Trazado 166178" d="M1150.637,1227.034c.154,9.015.3,17.531.66,21.174l-2.861.3c-.373-3.767-.513-11.948-.672-21.421-.228-13.428-.512-30.14-1.64-34.166l2.763-.81C1150.12,1196.508,1150.384,1212.026,1150.637,1227.034Z" transform="translate(-1146.123 -1192.109)" fill="#79bada"/>
      </g>
    </g>
    <g id="Grupo_72802" data-name="Grupo 72802" transform="translate(52.003 318.421)">
      <g id="Grupo_72801" data-name="Grupo 72801" transform="translate(0)">
        <path id="Trazado_166179" data-name="Trazado 166179" d="M1179.233,1173.158a1.464,1.464,0,0,1,1.758,1.17l-2.776.77a1.426,1.426,0,0,0,1.625.935,1.452,1.452,0,0,0,1.15-1.5c.054.6,1.027,5.953,2.152,12.152,2.77,15.249,6.955,38.292,7.346,44.084l-2.868.2c-.38-5.623-4.714-29.49-7.3-43.75-.654-3.6-1.215-6.693-1.6-8.882-.2-1.1-.348-1.978-.446-2.58C1178.108,1174.8,1177.892,1173.477,1179.233,1173.158Z" transform="translate(-1178.148 -1173.124)" fill="#79bada"/>
      </g>
    </g>
    <g id="Grupo_72804" data-name="Grupo 72804" transform="translate(62.766 278.721)">
      <g id="Grupo_72803" data-name="Grupo 72803">
        <path id="Trazado_166180" data-name="Trazado 166180" d="M916.512,1034.659c1.359.526,2.725,1.031,4.091,1.534,3.5,1.288,7.01,2.539,10.525,3.782q7.676,2.717,15.372,5.37l1.909-.413q10.92-2.361,21.828-4.777c4.022-.9,8.042-1.8,12.053-2.745,1.529-.359,3.057-.722,4.581-1.106.7-.177,4.536-1.445,3.552.228-.283.484-1.324.581-1.792.717-13.774,4-28.008,6.727-42.01,9.766l-.217.047-.21-.073q-8.716-3-17.4-6.084c-3.781-1.344-7.563-2.693-11.319-4.111-.776-.293-4.072-1.064-4.082-2.146C913.379,1033.6,915.828,1034.393,916.512,1034.659Z" transform="translate(-913.389 -1034.122)" fill="#fcc67f"/>
      </g>
    </g>
    <g id="Grupo_72806" data-name="Grupo 72806" transform="translate(95.53 325.242)">
      <g id="Grupo_72805" data-name="Grupo 72805" transform="translate(0)">
        <path id="Trazado_166181" data-name="Trazado 166181" d="M1047.14,1197.325c-.423,2.12,1.146,22.542,4.66,60.7.246,2.66.393,4.266.419,4.6l-1.557.121c-.024-.317-.18-2.008-.416-4.568-2.283-24.788-5.247-58.1-4.637-61.169Z" transform="translate(-1045.529 -1197.007)" fill="#72b682"/>
      </g>
    </g>
    <g id="Grupo_72808" data-name="Grupo 72808" transform="translate(79.783 317.358)">
      <g id="Grupo_72807" data-name="Grupo 72807" transform="translate(0)">
        <path id="Trazado_166182" data-name="Trazado 166182" d="M982.3,1169.461c.583-.294,1.8.606,2.334.862,1.819.868,3.659,1.694,5.5,2.513q4.014,1.783,8.06,3.492c3.774-.785,7.519-1.73,11.234-2.761,3.2-.887,6.384-1.853,9.531-2.93.582-.2,2.884-1.516,3.36-.706.36.61-.867,1.521-1.294,1.673a189.02,189.02,0,0,1-22.758,6.337l-.23.046-.217-.091q-3.555-1.493-7.082-3.056c-1.941-.856-3.878-1.721-5.8-2.62C984.3,1171.927,980.235,1170.5,982.3,1169.461Z" transform="translate(-981.719 -1169.403)" fill="#72b682"/>
      </g>
    </g>
    <g id="Grupo_72810" data-name="Grupo 72810" transform="translate(131.37 317.608)">
      <g id="Grupo_72809" data-name="Grupo 72809" transform="translate(0)">
        <path id="Trazado_166183" data-name="Trazado 166183" d="M938.071,1170.729c-.426,1.535-.816,14.123-.257,65.378.021,1.985.035,3.24.035,3.519h-1.621c0-.279-.014-1.526-.035-3.5-.457-41.89-.352-63.429.319-65.849Z" transform="translate(-935.914 -1170.276)" fill="#4b5657"/>
      </g>
    </g>
    <g id="Grupo_72812" data-name="Grupo 72812" transform="translate(112.977 308.495)">
      <g id="Grupo_72811" data-name="Grupo 72811" transform="translate(0)">
        <path id="Trazado_166184" data-name="Trazado 166184" d="M789.613,1138.589a16.427,16.427,0,0,1,2.587,1.364c2.054,1.03,4.148,1.977,6.249,2.9q4.725,2.085,9.521,4,9.645-1.788,19.271-3.682c4.757-.936,9.512-1.889,14.257-2.891,2.056-.434,4.109-.877,6.158-1.342.619-.14,2.368-.87,2.9-.425.9.756-.3,1.49-.948,1.62-8.391,1.671-16.767,3.638-25.181,5.276q-8.19,1.592-16.394,3.116l-.224.042-.211-.084q-4.827-1.909-9.58-4.006c-2.392-1.053-4.777-2.13-7.107-3.324-.614-.314-2.43-.912-2.7-1.611C787.869,1138.659,788.533,1138.293,789.613,1138.589Z" transform="translate(-788.12 -1138.371)" fill="#4b5657"/>
      </g>
    </g>
    <g id="Grupo_72814" data-name="Grupo 72814" transform="translate(48.008 351.05)">
      <g id="Grupo_72813" data-name="Grupo 72813">
        <path id="Trazado_166185" data-name="Trazado 166185" d="M1055,1306.73l-.571,2.854c-9.9-2.073-65.185-16.053-71.526-19.672l1.388-2.543C990.021,1290.636,1043.662,1304.357,1055,1306.73Z" transform="translate(-982.908 -1287.369)" fill="#79bada"/>
      </g>
    </g>
    <g id="Grupo_72816" data-name="Grupo 72816" transform="translate(50.203 358.064)">
      <g id="Grupo_72815" data-name="Grupo 72815">
        <path id="Trazado_166186" data-name="Trazado 166186" d="M1053.378,1331.3l-.541,2.889c-10.994-2.153-62.579-16.093-69.134-19.674l1.355-2.594C990.858,1315.094,1041.287,1328.937,1053.378,1331.3Z" transform="translate(-983.703 -1311.925)" fill="#79bada"/>
      </g>
    </g>
    <g id="Grupo_72818" data-name="Grupo 72818" transform="translate(50.794 365.71)">
      <g id="Grupo_72817" data-name="Grupo 72817">
        <path id="Trazado_166187" data-name="Trazado 166187" d="M1051.311,1358.078l-.54,2.889c-10.995-2.153-62.578-16.093-69.133-19.674l1.355-2.594C988.792,1341.867,1039.221,1355.71,1051.311,1358.078Z" transform="translate(-981.637 -1338.698)" fill="#79bada"/>
      </g>
    </g>
    <g id="Grupo_72820" data-name="Grupo 72820" transform="translate(126.536 333.421)">
      <g id="Grupo_72819" data-name="Grupo 72819">
        <path id="Trazado_166188" data-name="Trazado 166188" d="M751.538,1241.488c6.467.06,44.394-11.47,56.867-15.262l1.923-.584.818,2.819-1.922.584c-21.822,6.634-51.531,15.441-57.72,15.384h-.025l.037-2.941Z" transform="translate(-751.479 -1225.642)" fill="#79bada"/>
      </g>
    </g>
    <g id="Grupo_72822" data-name="Grupo 72822" transform="translate(126.521 340.465)">
      <g id="Grupo_72821" data-name="Grupo 72821" transform="translate(0)">
        <path id="Trazado_166189" data-name="Trazado 166189" d="M751.267,1266.453c5.263.139,33.588-8.48,48.814-13.114,4.2-1.278,7.825-2.38,10.074-3.034l.778,2.8c-2.233.648-5.851,1.749-10.04,3.024-22.26,6.774-44.431,13.374-49.707,13.233h-.027l.086-2.91Z" transform="translate(-751.16 -1250.306)" fill="#79bada"/>
      </g>
    </g>
    <g id="Grupo_72824" data-name="Grupo 72824" transform="translate(122.265 347.778)">
      <g id="Grupo_72823" data-name="Grupo 72823" transform="translate(0)">
        <path id="Trazado_166190" data-name="Trazado 166190" d="M763.6,1293.653c5.365,0,34.02-9.39,49.423-14.436,4.246-1.392,7.912-2.593,10.189-3.307l.843,2.812c-2.26.708-5.918,1.907-10.155,3.3-22.512,7.377-44.937,14.577-50.305,14.577h-.024l.012-2.941Z" transform="translate(-763.571 -1275.91)" fill="#79bada"/>
      </g>
    </g>
    <g id="Grupo_72826" data-name="Grupo 72826" transform="translate(124.025 353.842)">
      <g id="Grupo_72825" data-name="Grupo 72825" transform="translate(0)">
        <path id="Trazado_166191" data-name="Trazado 166191" d="M761.454,1314.852c5.265,0,33.364-9.373,48.469-14.41,4.162-1.388,7.755-2.586,9.987-3.3l.848,2.781c-2.214.706-5.8,1.9-9.953,3.287-22.082,7.365-44.078,14.552-49.359,14.552h-.027l.012-2.912Z" transform="translate(-761.42 -1297.144)" fill="#79bada"/>
      </g>
    </g>
    <g id="Grupo_72828" data-name="Grupo 72828" transform="translate(121.447 360.691)">
      <g id="Grupo_72827" data-name="Grupo 72827">
        <path id="Trazado_166192" data-name="Trazado 166192" d="M766.465,1338.867c5.364,0,34.02-9.39,49.422-14.437,4.245-1.391,7.912-2.593,10.188-3.306l.843,2.811c-2.259.708-5.917,1.907-10.153,3.3-22.513,7.376-44.937,14.577-50.306,14.577h-.025l.012-2.941Z" transform="translate(-766.434 -1321.123)" fill="#79bada"/>
      </g>
    </g>
    <g id="Grupo_72830" data-name="Grupo 72830" transform="translate(122.415 367.517)">
      <g id="Grupo_72829" data-name="Grupo 72829" transform="translate(0)">
        <path id="Trazado_166193" data-name="Trazado 166193" d="M838.588,1347.763c-11,4.415-47.144,16.714-54.257,17.24l-.207-2.934c6.741-.5,42.823-12.795,53.414-17.044Z" transform="translate(-784.124 -1345.025)" fill="#79bada"/>
      </g>
    </g>
    <g id="Grupo_72832" data-name="Grupo 72832" transform="translate(95.323 333.97)">
      <g id="Grupo_72831" data-name="Grupo 72831" transform="translate(0)">
        <path id="Trazado_166194" data-name="Trazado 166194" d="M1056.935,1227.62c-.11,6.308-1.251,39.641-2.228,52.42l-2.866-.229c.972-12.729,2.108-45.954,2.218-52.245Z" transform="translate(-1051.841 -1227.567)" fill="#79bada"/>
      </g>
    </g>
    <g id="Grupo_72834" data-name="Grupo 72834" transform="translate(52.486 372.264)">
      <g id="Grupo_72833" data-name="Grupo 72833">
        <path id="Trazado_166195" data-name="Trazado 166195" d="M977.28,1361.9c1.831-.74,3.63.326,5.165.739,12.622,3.4,25.419,7.318,37.982,10.956,6.534,1.892,14.257,3.727,20.663,6.086,2.726,1,6.694,3.726,2.516,6.26-2.62,1.589-8-1.185-10.584-2-9.648-3.04-19.344-6.14-29.079-8.853q-10.255-2.86-20.535-5.635c-2.348-.634-7.274-1.1-7.611-4.348C975.6,1363.252,976.256,1362.313,977.28,1361.9Z" transform="translate(-975.763 -1361.643)" fill="#84c6ed"/>
      </g>
    </g>
    <g id="Grupo_72835" data-name="Grupo 72835" transform="translate(38.275 311.891)">
      <path id="Trazado_166196" data-name="Trazado 166196" d="M1221.064,1152.552c1.354,2.671,1.458,7.083,1.981,10.014.954,5.338,2.212,12.726,3.739,21.959q1.5,9.088,2.971,18.187c.261,1.612,3.347,17.784-1.926,13.013-1.527-1.38-1.866-3.536-2.28-5.518-1.124-5.375-2-12.121-2.662-16.723-.691-4.835-5.217-28.976-6.475-36.24-.367-2.12-1.791-4.025-.163-5.934C1218.058,1149.192,1220.092,1150.632,1221.064,1152.552Z" transform="translate(-1215.484 -1150.262)" fill="#84c6ed"/>
    </g>
    <g id="Grupo_72836" data-name="Grupo 72836" transform="translate(173.497 321.118)">
      <path id="Trazado_166197" data-name="Trazado 166197" d="M733.16,1231.4q1.325-5.725,2.647-11.449c3.361-14.545,7.546-32.648,8.682-37.388l5.91,1.5c-1.129,4.714-5.31,22.8-8.67,37.338q-1.439,6.222-2.878,12.444c-.454,1.959-.351,6.49-3.3,6.778-3.2.311-3.59-2.309-3.287-4.927A36.143,36.143,0,0,1,733.16,1231.4Z" transform="translate(-732.182 -1182.565)" fill="#84c6ed"/>
    </g>
    <g id="Grupo_72837" data-name="Grupo 72837" transform="translate(120.171 376.617)">
      <path id="Trazado_166198" data-name="Trazado 166198" d="M787.427,1391.721c3.356-1.406,7.014-1.811,10.46-2.8q7.76-2.219,15.495-4.527c5.851-1.751,11.714-3.472,17.5-5.439,2.4-.815,5.54-2.685,7.7-1.874,1.615.607,3.087,2.391,1.878,4.163-.652.958-2.556,1.183-3.6,1.517-3.08.993-6.145,2.028-9.209,3.068-4.826,1.634-9.618,3.47-14.5,4.922-5.378,1.6-10.761,3.2-16.172,4.687a52.414,52.414,0,0,1-7.987,2.054,6.31,6.31,0,0,1-3.529-.425C783.278,1395.948,784,1393.16,787.427,1391.721Z" transform="translate(-784.22 -1376.887)" fill="#84c6ed"/>
    </g>
    <g id="Grupo_72838" data-name="Grupo 72838" transform="translate(116.928 341.096)">
      <path id="Trazado_166199" data-name="Trazado 166199" d="M961.776,1253.463c-1.408,9.847-5.249,39.011-7.159,54.448a14.938,14.938,0,0,0-5.737-1.677c1.949-15.685,5.684-44.03,7.07-53.718Z" transform="translate(-948.88 -1252.516)" fill="#84c6ed"/>
    </g>
    <g id="Grupo_72840" data-name="Grupo 72840" transform="translate(124.358 319.504)">
      <g id="Grupo_72839" data-name="Grupo 72839" transform="translate(0)">
        <path id="Trazado_166200" data-name="Trazado 166200" d="M731.95,1193.956a6.213,6.213,0,0,1,1.749-.81c3.629-1.036,7.217-1.877,10.862-2.788,4.077-1.019,8.147-2.071,12.218-3.115,6.067-1.555,12.127-3.143,18.169-4.812,2.6-.718,5.207-1.434,7.8-2.214,1.3-.39,8.275-2.093,10.809-2.966,2.492-.857,4.632,0,4.67,1.818.091,4.415-8.555,6.136-10.731,6.813-6.946,2.159-14.247,3.777-21.306,5.632q-12.714,3.344-25.492,6.432c-2.463.6-5.443,1.948-8,1.208C730.025,1198.382,729.434,1195.66,731.95,1193.956Z" transform="translate(-730.346 -1176.917)" fill="#df2630"/>
      </g>
    </g>
    <g id="Grupo_72842" data-name="Grupo 72842" transform="translate(35.218 309.934)">
      <g id="Grupo_72841" data-name="Grupo 72841">
        <path id="Trazado_166201" data-name="Trazado 166201" d="M956.465,1143.414c5.214.149,12.466,3.32,17.406,5,.245.083.486.164.727.241,6.631,2.134,12.942,5.141,19.6,7.313,9.847,3.213,19.56,6.831,29.6,9.46,4.342,1.138,8.707,2.019,13.132,2.719,2.355.372,10.551,2.16,8.805,6.588-.932,2.365-5.889.693-7.7.371-4.494-.8-8.94-1.481-13.39-2.565-11.1-2.7-21.814-6.643-32.643-10.193-10.142-3.325-19.895-7.329-29.884-10.874-2.641-.938-8.026-1.234-9.294-4.166C951.563,1144.41,952.921,1143.313,956.465,1143.414Z" transform="translate(-952.36 -1143.408)" fill="#df2630"/>
      </g>
    </g>
    <g id="Grupo_72843" data-name="Grupo 72843" transform="translate(97.602 297.254)">
      <path id="Trazado_166202" data-name="Trazado 166202" d="M933.79,1106.016c4.625-1.061,9.525-2.186,14.314-3.63,1.579-.477,3.205-.989,4.841-1.479,2.133-.641,4.285-1.245,6.368-1.688,5.509-1.174,5.676,2.92,1.561,5.37-2.607,1.553-6.185,1.594-9.1,1.878-2.588.252-5.489.011-7.99.827-3.187,1.04-3.154,3.477-5.451,5.061-2.589,1.785-2.269-.343-5.146-1.075-2.219-.563-4.564,1.151-6.712.244C920.006,1108.793,931.882,1106.453,933.79,1106.016Z" transform="translate(-924.565 -1099.011)" fill="#e08d1f"/>
    </g>
    <g id="Grupo_72845" data-name="Grupo 72845" transform="translate(41.673 325.458)">
      <g id="Grupo_72844" data-name="Grupo 72844">
        <path id="Trazado_166203" data-name="Trazado 166203" d="M1035.137,1217.74q7.446,1.986,14.81,3.971l-.737,2.842q-7.351-1.992-14.8-3.967c-22.435-5.981-45.634-12.165-67.451-20.053l.958-2.772C989.62,1205.606,1012.759,1211.775,1035.137,1217.74Z" transform="translate(-966.96 -1197.761)" fill="#79bada"/>
      </g>
    </g>
    <g id="Grupo_72846" data-name="Grupo 72846" transform="translate(191.025 211.131)">
      <path id="Trazado_166204" data-name="Trazado 166204" d="M543.3,809.821c1.3-4.947,1.154-12.544,6.65-12.349,2.934.1,10.859,6.863,14.371,8.239,2.356.924,24.882,11.16,25.679,6.113-.915,5.789-2.538,11.863-3.79,17.371-1.943,8.537-3.743,16.924-6.24,25.355-4.116,13.9-8.968,38.071-23.175,44.768-8.409,3.964-17.391-5.38-21.962-11.97-5.3-7.649-1.309-18.758.678-27.252C540.189,840.088,539.074,825.856,543.3,809.821Z" transform="translate(-532.191 -797.469)" fill="#c85540"/>
    </g>
    <g id="Grupo_72847" data-name="Grupo 72847" transform="translate(190.95 244.991)">
      <path id="Trazado_166205" data-name="Trazado 166205" d="M703.589,916.028c5.421-.376.94,18.39.426,20.67v.006c-.52,2.3-5.523,17.194-8.845,11.425-1.621-2.814,2.619-16.043,3.06-19.154C698.584,926.454,700.551,916.242,703.589,916.028Z" transform="translate(-694.801 -916.023)" fill="#ba4b3f"/>
    </g>
    <path id="Trazado_166206" data-name="Trazado 166206" d="M500.545,655.865c7.659-12.224,25.338-16.992,38.81-8.935,8.523,5.1,15.107,14.033,16.372,22.416.869,5.757.225,11.546-.5,17.224-1.1,8.6-.929,17.834-6.343,25.035-2.4,3.194-4.163,4.9-5.594,8.8-1.4,3.811-1.519,8.863-5.447,11.368-4.485,2.86-18.774-3.336-23.772-5.291-8.359-3.268-17.123-6.081-24.731-10.809-14.12-8.777-4.436-12.325-.983-24.081C491.875,679.611,493.743,666.721,500.545,655.865Z" transform="translate(-292.947 -475.949)" fill="#ed9500"/>
    <path id="Trazado_166207" data-name="Trazado 166207" d="M1134.955,983.275c.641-2.049,5.088-2.03,4.437.051-5.837,18.666-2.062,37.5-5.468,56.22-.38,2.092-4.821,2.053-4.437-.05C1132.892,1020.773,1129.117,1001.942,1134.955,983.275Z" transform="translate(-1061.209 -717.988)" fill="#84c6ed"/>
    <path id="Trazado_166208" data-name="Trazado 166208" d="M1023.49,940.153c9.765-.776,19.555-3.771,29.284-5.547,2.38-.434,4.761-.81,7.143-1.106a15.422,15.422,0,0,0-1.992,6.742c-.007.158,0,.315,0,.47-1.807.285-3.61.611-5.4.938-9.493,1.733-19.034,4.658-28.563,5.415C1020.477,947.343,1019.982,940.432,1023.49,940.153Z" transform="translate(-950.717 -683.517)" fill="#c4232a"/>
    <path id="Trazado_166209" data-name="Trazado 166209" d="M1145.532,959.2l0,0,.005,0Z" transform="translate(-1071.873 -701.879)" fill="#eba577"/>
    <path id="Trazado_166210" data-name="Trazado 166210" d="M986.435,916.747c-1.079-2.979,5.18-2.233,6.437-1.455-.312-3.93,5.053-1.386,6.873.048-1.129-3.921,4.81-1.435,8.816,1.328,2.7,1.865,6.85,6.934,7.324,10.214.526,3.642-1.726,5.928-4.964,7.059-4.565,1.592-10.6,1.915-14.667-1.182-2.992-2.28-4.373-6.017-7.3-8.319-1.487-1.17-4.2-1.623-5.552-3.043C980.417,918.257,983.4,916.884,986.435,916.747Z" transform="translate(-895.645 -669.014)" fill="#c85540"/>
    <g id="Grupo_72848" data-name="Grupo 72848" transform="translate(90.765 247.151)">
      <path id="Trazado_166211" data-name="Trazado 166211" d="M1075.984,928.276l-3.6-2.221C1074.293,926.558,1075.383,927.214,1075.984,928.276Z" transform="translate(-1072.201 -925.349)" fill="#9e342e"/>
      <path id="Trazado_166212" data-name="Trazado 166212" d="M1074.582,926.152l-1.27.719c-.487-.861-1.428-1.422-3.148-1.875l.372-1.411C1072.673,924.148,1073.883,924.916,1074.582,926.152Z" transform="translate(-1070.164 -923.584)" fill="#9e342e"/>
    </g>
    <g id="Grupo_72849" data-name="Grupo 72849" transform="translate(97.611 245.727)">
      <path id="Trazado_166213" data-name="Trazado 166213" d="M1053.447,922.738l-3.042-2.009A4.489,4.489,0,0,1,1053.447,922.738Z" transform="translate(-1050.23 -920.121)" fill="#9e342e"/>
      <path id="Trazado_166214" data-name="Trazado 166214" d="M1052.226,920.916l-1.115.6a3.937,3.937,0,0,0-2.659-1.7l.35-1.217C1050.608,919.118,1051.632,919.811,1052.226,920.916Z" transform="translate(-1048.452 -918.599)" fill="#9e342e"/>
    </g>
    <g id="Grupo_72850" data-name="Grupo 72850" transform="translate(103.115 245.048)">
      <path id="Trazado_166215" data-name="Trazado 166215" d="M1034.175,920.362l-3.041-2.009A4.488,4.488,0,0,1,1034.175,920.362Z" transform="translate(-1030.959 -917.745)" fill="#9e342e"/>
      <path id="Trazado_166216" data-name="Trazado 166216" d="M1032.955,918.54l-1.115.6a3.939,3.939,0,0,0-2.659-1.7l.349-1.217C1031.336,916.742,1032.361,917.435,1032.955,918.54Z" transform="translate(-1029.181 -916.223)" fill="#9e342e"/>
    </g>
    <g id="Grupo_72851" data-name="Grupo 72851" transform="translate(112.192 257.268)">
      <path id="Trazado_166217" data-name="Trazado 166217" d="M641.3,959.033a23.346,23.346,0,0,1,6.338.731c1.207.265,2.409.55,3.608.768,4.641.845,9.235,2.416,13.837,3.588,8.818,2.246,17.6,4.725,26.5,6.6,8.934,1.884,19.132,4.614,27.443,8.618,8.156,3.93,20.392,12.918,21.6,22.9,3.709,30.556-50.412,10.156-61.416,3.485-8.834-5.355-18.088-9.969-26.875-15.409a67.76,67.76,0,0,1-10.861-8.247c-2.905-2.756-7.762-7.012-8.479-11.124-.332-1.9,1.079-4.516,1.7-6.29C636,960.9,636.944,959.285,641.3,959.033Z" transform="translate(-632.95 -959.01)" fill="#c85540"/>
    </g>
    <g id="Grupo_72852" data-name="Grupo 72852" transform="translate(116.595 267.266)">
      <path id="Trazado_166218" data-name="Trazado 166218" d="M718.048,1013.679c13.165,7.122,27.411,12.651,41.341,17.7,2.209.8,20.093,4.428,20.243,4.709,1.154,2.155-.631,3.636-5.147,3.222-12.18-1.117-24.554-5.336-35.173-10.306-8.237-3.855-15.4-9.368-23.4-13.519-5.6-2.9-10.924-5.78-15.508-10.135-1.491-1.416-3.553-2.829-4.8-4.437a8.1,8.1,0,0,1-1.674-3.9,22.129,22.129,0,0,1,.593-3C700.52,1003.912,708.013,1008.249,718.048,1013.679Z" transform="translate(-693.929 -994.015)" fill="#ba4b3f"/>
    </g>
    <g id="Grupo_72853" data-name="Grupo 72853" transform="translate(201.781 300.431)">
      <path id="Trazado_166219" data-name="Trazado 166219" d="M638.147,1110.618c10.855,3.028,5.948,15.734-2.415,19.039C616.8,1137.141,621.289,1105.929,638.147,1110.618Z" transform="translate(-623.394 -1110.135)" fill="#c85540"/>
    </g>
    <g id="Grupo_72854" data-name="Grupo 72854" transform="translate(108.409 255.193)">
      <path id="Trazado_166220" data-name="Trazado 166220" d="M980.125,952.15c8.146,2.34,4.723,11.231-1.45,13.413C964.7,970.5,967.475,948.526,980.125,952.15Z" transform="translate(-969.353 -951.744)" fill="#c85540"/>
    </g>
    <path id="Trazado_166221" data-name="Trazado 166221" d="M487.363,643.712c8.366.1,15.266,6.945,19.841,13.281,4.626,6.407,8.718,15.186,7.184,23.278-.331,1.749-2.993,1.006-2.664-.735.635-3.352-.092-6.834-1.127-10.028a41.379,41.379,0,0,0-5.572-10.829c-3.931-5.627-10.286-12.121-17.663-12.205A1.382,1.382,0,0,1,487.363,643.712Z" transform="translate(-252.698 -476.495)" fill="#fff"/>
    <path id="Trazado_166222" data-name="Trazado 166222" d="M343.965,986.715c6.166,2.526,43.163-.488,52.944-3.219a43.607,43.607,0,0,0,13.919-6.645c.24-.172-.036,12.352-1.074,14.363-5.64,10.927-31.043,11.451-40.834,11.82-8.237.309-20.873,1.374-27.2-5.208C342.208,998.331,344.115,987.869,343.965,986.715Z" transform="translate(-107.676 -714.485)" fill="#252c2d"/>
    <path id="Trazado_166223" data-name="Trazado 166223" d="M558.813,857.377c16.98,6.853,37.87,14.739,37.612,15.731-2.253,12.732-6.868,12.751-18.983,8.637-9.792-3.326-19.611-6.616-29.072-10.775-4.478-1.968-10.8-4.891-13.117-9.406-2.7-5.267,2.086-8.508,2.6-13.721C543.977,852.142,551.9,854.587,558.813,857.377Z" transform="translate(-348.234 -622.324)" fill="#feb229"/>
    <g id="Grupo_72863" data-name="Grupo 72863" transform="translate(18.839 38.187)">
      <g id="Grupo_72856" data-name="Grupo 72856" transform="translate(0 9.53)">
        <g id="Grupo_72855" data-name="Grupo 72855">
          <path id="Trazado_166224" data-name="Trazado 166224" d="M1215.837,401.779c-.017-.439-.031-.875-.05-1.317.037.4.068.854.094,1.32Z" transform="translate(-1181.127 -350.436)" fill="#e3941e"/>
          <path id="Trazado_166225" data-name="Trazado 166225" d="M1238.553,235.552c1.818,4.852,1.991,16.358,1.3,21.374a105.647,105.647,0,0,0-1.288,21.754c-.155-1.682-.414-2.545-.833-.375-3.526-1.154-36.381-13.411-36.381-13.411s.9-30.664,1.322-39.587C1205.138,226.318,1237.55,232.884,1238.553,235.552Z" transform="translate(-1201.35 -225.307)" fill="#e3941e"/>
        </g>
      </g>
      <g id="Grupo_72858" data-name="Grupo 72858" transform="translate(35.343 10.966)">
        <g id="Grupo_72857" data-name="Grupo 72857">
          <path id="Trazado_166226" data-name="Trazado 166226" d="M1101.628,230.332c.019,7.715-.107,31.027-.526,40.248L1057.934,281.9c-.652-5-1.526-13.85-.908-42C1061.92,239.166,1101.432,232.125,1101.628,230.332Z" transform="translate(-1056.815 -230.332)" fill="#ec9a1c"/>
        </g>
      </g>
      <g id="Grupo_72860" data-name="Grupo 72860" transform="translate(2.537)">
        <g id="Grupo_72859" data-name="Grupo 72859">
          <path id="Trazado_166227" data-name="Trazado 166227" d="M1099.536,191.938s27.229,3.487,34.9,10.966c-8.573,1.921-40.358,9.9-47.327,9.448-2.635-.17-23.776-9.351-30.292-10.883.094-.253.185-.508.266-.767C1070.335,196.953,1099.536,191.938,1099.536,191.938Z" transform="translate(-1056.821 -191.938)" fill="#feb229"/>
        </g>
      </g>
      <g id="Grupo_72862" data-name="Grupo 72862" transform="translate(2.017 8.982)">
        <g id="Grupo_72861" data-name="Grupo 72861">
          <path id="Trazado_166228" data-name="Trazado 166228" d="M1060.187,223.931c1.374.532,2.756,1.043,4.138,1.552,3.538,1.3,7.091,2.568,10.645,3.825q7.764,2.748,15.549,5.431l1.931-.418q11.045-2.388,22.078-4.832c4.068-.906,8.134-1.822,12.191-2.777,1.546-.364,3.092-.73,4.633-1.119.709-.179,4.588-1.462,3.593.231-.287.49-1.339.588-1.812.725-13.932,4.046-28.33,6.8-42.492,9.878l-.22.047-.212-.073q-8.816-3.034-17.6-6.154c-3.825-1.359-7.65-2.724-11.449-4.158-.785-.3-4.118-1.076-4.129-2.171C1057.018,222.863,1059.495,223.662,1060.187,223.931Z" transform="translate(-1057.028 -223.388)" fill="#fcc67f"/>
        </g>
      </g>
    </g>
    <g id="Grupo_72865" data-name="Grupo 72865" transform="translate(0.53 90.032)">
      <g id="Grupo_72864" data-name="Grupo 72864">
        <path id="Trazado_166229" data-name="Trazado 166229" d="M1231.324,376.086c3.38,1.433,6.769,2.837,10.156,4.248,5.047,2.1,10.1,4.175,15.187,6.175,2.19.862,4.379,1.727,6.589,2.535,1.11.406,6.871,2.889,9.085,3.593,2.177.693,3.288,2.537,2.454,3.977-2.028,3.5-8.987.121-10.853-.54-5.957-2.111-11.911-4.839-17.8-7.249q-10.617-4.34-21.158-8.915c-.065-.029-.232-.1-.483-.2.141-2.082.3-4.164.425-6.247C1228.577,374.954,1230.892,375.9,1231.324,376.086Z" transform="translate(-1224.498 -373.463)" fill="#84c6ed"/>
      </g>
    </g>
    <g id="Grupo_72866" data-name="Grupo 72866" transform="translate(170.783 62.099)">
      <path id="Trazado_166230" data-name="Trazado 166230" d="M741.968,290.05c1.094-3.325,1.368-10.078,3.358-12.468,2.925-3.514,5.53-1.806,6.9,1.911,2.392,6.5,3.745,15.893,2.227,22.743a22.435,22.435,0,0,1-1.579,4.7c-2.643,5.6-7.572,8.9-14.182,4.549-4.917-3.237-4.21-9.126-2.253-13.954C737.63,294.585,740.99,293.024,741.968,290.05Z" transform="translate(-734.954 -275.662)" fill="#c85540"/>
    </g>
    <g id="Grupo_72868" data-name="Grupo 72868" transform="translate(183.021 63.21)">
      <g id="Grupo_72867" data-name="Grupo 72867" transform="translate(0)">
        <path id="Trazado_166231" data-name="Trazado 166231" d="M753.689,279.868a31.248,31.248,0,0,1,1.406,17.375l-1.617-.417c1.274-7.119,1.307-12.839-.532-16.785C752.946,280.041,752.747,279.062,753.689,279.868Z" transform="translate(-752.928 -279.55)" fill="#a73b34"/>
      </g>
    </g>
    <g id="Grupo_72877" data-name="Grupo 72877" transform="translate(112.196 26.831)">
      <g id="Grupo_72870" data-name="Grupo 72870" transform="translate(0 0.278)">
        <g id="Grupo_72869" data-name="Grupo 72869">
          <path id="Trazado_166232" data-name="Trazado 166232" d="M907.3,354.456l-.04-.016c.116-.418.233-.833.348-1.256C907.519,353.575,907.412,354.009,907.3,354.456Z" transform="translate(-878.09 -296.053)" fill="#e3941e"/>
          <path id="Trazado_166233" data-name="Trazado 166233" d="M900.862,173.574c.256,5.116-3.035,16.007-5.193,20.524a104.406,104.406,0,0,0-7.743,20.105c.359-1.631.374-2.522-.672-.6-2.975-2.146-30.244-23.555-30.244-23.555s10.057-28.614,13.13-36.893C872.159,154.845,900.719,170.759,900.862,173.574Z" transform="translate(-857.01 -153.152)" fill="#e3941e"/>
        </g>
      </g>
      <g id="Grupo_72872" data-name="Grupo 72872" transform="translate(30.32 20.918)">
        <g id="Grupo_72871" data-name="Grupo 72871">
          <path id="Trazado_166234" data-name="Trazado 166234" d="M762.771,229.8c-2.3,7.273-9.415,29.195-12.578,37.754l-44.06-2.3c.888-4.908,2.72-13.5,11.752-39.832C722.715,226.2,762.049,231.426,762.771,229.8Z" transform="translate(-706.133 -225.418)" fill="#ec9a1c"/>
        </g>
      </g>
      <g id="Grupo_72874" data-name="Grupo 72874" transform="translate(14.274)">
        <g id="Grupo_72873" data-name="Grupo 72873">
          <path id="Trazado_166235" data-name="Trazado 166235" d="M749.231,156.667s24.6,11.459,29.586,20.807c-8.652-.764-40.987-2.792-47.417-5.308-2.431-.951-19.59-15.946-25.267-19.346.165-.21.327-.423.481-.643C720.218,152.624,749.231,156.667,749.231,156.667Z" transform="translate(-706.133 -152.178)" fill="#feb229"/>
        </g>
      </g>
      <g id="Grupo_72876" data-name="Grupo 72876" transform="translate(13.765 0.134)">
        <g id="Grupo_72875" data-name="Grupo 72875">
          <path id="Trazado_166236" data-name="Trazado 166236" d="M709.249,153.944c1.135.914,2.283,1.81,3.432,2.7q4.413,3.435,8.879,6.8,6.488,4.92,13.016,9.784l1.944.186q11.12,1.067,22.248,2.076c4.1.367,8.209.725,12.318,1.044,1.566.122,3.132.24,4.7.336.721.045,4.76,0,3.315,1.3-.417.375-1.438.151-1.925.139-14.338-.371-28.728-2.1-42.992-3.451l-.221-.021-.178-.133q-7.394-5.5-14.734-11.081c-3.194-2.429-6.388-4.862-9.535-7.354-.651-.515-3.557-2.25-3.238-3.284C706.585,151.987,708.678,153.483,709.249,153.944Z" transform="translate(-706.253 -152.648)" fill="#fcc67f"/>
        </g>
      </g>
    </g>
    <path id="Trazado_166237" data-name="Trazado 166237" d="M486.51,833c1.717-5.121,2.049-10.186,2.7-15.5.205-1.671,3.444-12.681,3.094-13.283,5.89,10.123,4.521,31.592,1.349,42.494-2.8,9.632-9.31,19.793-20.191,12.655.614-6.09,4.472-11.391,7.992-16.788A43.123,43.123,0,0,0,486.51,833Z" transform="translate(-230.773 -591.156)" fill="#e58c00"/>
    <path id="Trazado_166238" data-name="Trazado 166238" d="M601.962,193.582c6.542-1.728,12.511-5.083,19.053-6.811,2.589-.684,3.654,3.322,1.072,4-6.542,1.728-12.511,5.084-19.053,6.812C600.445,198.269,599.38,194.264,601.962,193.582Z" transform="translate(-394.24 -150.004)" fill="#fffcfd"/>
    <path id="Trazado_166239" data-name="Trazado 166239" d="M819.224,60.13c.055-2.679,4.194-2.443,4.139.219-.068,3.251-1.186,6.4-2.2,9.457-.845,2.535-4.776,1.224-3.931-1.311C818.133,65.783,819.165,63.019,819.224,60.13Z" transform="translate(-655.906 -58.233)" fill="#fffcfd"/>
    <path id="Trazado_166240" data-name="Trazado 166240" d="M1046.976,100.55l14.386,6.352c2.432,1.073.98,4.957-1.472,3.874l-14.386-6.352C1043.072,103.351,1044.525,99.468,1046.976,100.55Z" transform="translate(-960.029 -88.33)" fill="#fffcfd"/>
    <path id="Trazado_166241" data-name="Trazado 166241" d="M1075.167,306.118a92.1,92.1,0,0,0,15.748-3.315c2.546-.836,3.628,3.166,1.1,4a92.112,92.112,0,0,1-15.748,3.315,2.123,2.123,0,0,1-2.549-1.447A2.075,2.075,0,0,1,1075.167,306.118Z" transform="translate(-999.267 -232.87)" fill="#fffcfd"/>
    <g id="Grupo_72879" data-name="Grupo 72879" transform="translate(175.506 72.842)">
      <g id="Grupo_72878" data-name="Grupo 72878" transform="translate(0)">
        <path id="Trazado_166242" data-name="Trazado 166242" d="M765.644,319.836c.649,1.605,2.1,3.287,1.556,5.1-.644,2.165-3.787,3.525-5.744,4.044-.715-1.491-.238-3.277-.5-4.895-.12-.729-1.65-10.755-2.275-10.565C763.052,312.189,764.318,316.553,765.644,319.836Z" transform="translate(-758.677 -313.277)" fill="#c85540"/>
      </g>
    </g>
    <path id="Trazado_166243" data-name="Trazado 166243" d="M740.111,344.974c2.46-.726,9.134-1.918,9.648,2.11.362,2.841-3.661,5.163-5.219,7.282-1.259,1.711-2.263,4.7-4.206,5.506l-.434-.671c-6.738,4.832-8.063-3.15-6.231-8.248C734.889,347.556,736.7,345.982,740.111,344.974Z" transform="translate(-558.278 -262.546)" fill="#c85540"/>
    <g id="Grupo_72881" data-name="Grupo 72881" transform="translate(183.262 68.809)">
      <g id="Grupo_72880" data-name="Grupo 72880" transform="translate(0)">
        <path id="Trazado_166244" data-name="Trazado 166244" d="M726.445,310.031c.93-1.588,1.671-2.47,1.9-4.326a37.847,37.847,0,0,1,.618-4.953,2.193,2.193,0,0,1,2.4-1.588s.663,4.942.759,6.109a22.325,22.325,0,0,1-1.571,10.312,45.7,45.7,0,0,1-6.466,10.579c-.462.606-1.758,2.374-2.791,1.941-2-.838-.192-5.851.3-7.24A62.485,62.485,0,0,1,726.445,310.031Z" transform="translate(-720.363 -299.154)" fill="#c85540"/>
      </g>
    </g>
    <path id="Trazado_166245" data-name="Trazado 166245" d="M501.9,830.436a1.248,1.248,0,0,1,2.443.514c-2.368,9.644-4.234,19.6-9.118,28.3-.8,1.423-3.043.292-2.236-1.145C497.769,849.588,499.581,839.876,501.9,830.436Z" transform="translate(-244.306 -609.192)" fill="#fff"/>
  </g>
</svg>
