<svg xmlns="http://www.w3.org/2000/svg" xmlns:xlink="http://www.w3.org/1999/xlink" width="85" height="85" viewBox="0 0 85 85">
  <defs>
    <clipPath id="clip-path">
      <rect id="Rectángulo_21201" data-name="Rectángulo 21201" width="85" height="85" transform="translate(600 4837)" fill="#fff" stroke="#707070" stroke-width="1"/>
    </clipPath>
  </defs>
  <g id="Enmascarar_grupo_63" data-name="Enmascarar grupo 63" transform="translate(-600 -4837)" opacity="0.85" clip-path="url(#clip-path)">
    <g id="analytics" transform="translate(600 4837)">
      <g id="Grupo_73551" data-name="Grupo 73551">
        <g id="Grupo_73550" data-name="Grupo 73550">
          <path id="Trazado_167585" data-name="Trazado 167585" d="M79.2,73.13a5.8,5.8,0,0,0,5.8-5.8V8.3A8.31,8.31,0,0,0,76.7,0H8.3A8.31,8.31,0,0,0,0,8.3V67.333a5.8,5.8,0,0,0,5.8,5.8h1.84V81.68H1.66a1.66,1.66,0,0,0,0,3.32H83.34a1.66,1.66,0,0,0,0-3.32H77.363V73.13ZM3.32,8.3A4.986,4.986,0,0,1,8.3,3.32H76.7A4.986,4.986,0,0,1,81.68,8.3v3.652H3.487c-.056,0-.112,0-.167.008ZM18.262,81.68h-7.3V66.738h7.3Zm18.594,0h-7.3v-33.3h7.3Zm18.594,0h-7.3V62.422h7.3ZM75.7,42.583H65.078a1.66,1.66,0,0,0-1.66,1.66v8.384a1.66,1.66,0,0,0,3.32,0V45.9h7.3V81.68h-7.3V63.792a1.66,1.66,0,0,0-3.32,0V81.68H58.77V60.762a1.66,1.66,0,0,0-1.66-1.66H46.484a1.66,1.66,0,0,0-1.66,1.66V81.68H40.176V46.722a1.66,1.66,0,0,0-1.66-1.66H27.891a1.66,1.66,0,0,0-1.66,1.66V81.68H21.582v-16.6a1.66,1.66,0,0,0-1.66-1.66H9.3a1.66,1.66,0,0,0-1.66,1.66V69.81H5.8A2.479,2.479,0,0,1,3.32,67.333V15.265c.055.005.11.008.167.008H81.68v52.06A2.479,2.479,0,0,1,79.2,69.81h-1.84V44.243A1.66,1.66,0,0,0,75.7,42.583Z" fill="#12263f"/>
        </g>
      </g>
      <g id="Grupo_73553" data-name="Grupo 73553">
        <g id="Grupo_73552" data-name="Grupo 73552">
          <path id="Trazado_167586" data-name="Trazado 167586" d="M74.375,5.977H36.866a1.66,1.66,0,0,0,0,3.32H74.375a1.66,1.66,0,0,0,0-3.32Z" fill="#529ad9"/>
        </g>
      </g>
      <g id="Grupo_73555" data-name="Grupo 73555">
        <g id="Grupo_73554" data-name="Grupo 73554">
          <path id="Trazado_167587" data-name="Trazado 167587" d="M18.439,6.463a1.659,1.659,0,1,0,.486,1.174A1.673,1.673,0,0,0,18.439,6.463Z" fill="#529ad9"/>
        </g>
      </g>
      <g id="Grupo_73557" data-name="Grupo 73557">
        <g id="Grupo_73556" data-name="Grupo 73556">
          <path id="Trazado_167588" data-name="Trazado 167588" d="M11.8,6.463a1.659,1.659,0,1,0,.486,1.174A1.673,1.673,0,0,0,11.8,6.463Z" fill="#529ad9"/>
        </g>
      </g>
      <g id="Grupo_73559" data-name="Grupo 73559">
        <g id="Grupo_73558" data-name="Grupo 73558">
          <path id="Trazado_167589" data-name="Trazado 167589" d="M25.08,6.463a1.659,1.659,0,1,0,.486,1.174A1.67,1.67,0,0,0,25.08,6.463Z" fill="#529ad9"/>
        </g>
      </g>
      <g id="Grupo_73561" data-name="Grupo 73561">
        <g id="Grupo_73560" data-name="Grupo 73560">
          <path id="Trazado_167590" data-name="Trazado 167590" d="M66.252,57.37a1.659,1.659,0,1,0,.486,1.174A1.666,1.666,0,0,0,66.252,57.37Z" fill="#529ad9"/>
        </g>
      </g>
      <g id="Grupo_73563" data-name="Grupo 73563">
        <g id="Grupo_73562" data-name="Grupo 73562">
          <path id="Trazado_167591" data-name="Trazado 167591" d="M70.391,22.568a5.972,5.972,0,0,0-4.836,9.482L54.527,43.078a5.962,5.962,0,0,0-5.512-.134L37.5,31.429a5.977,5.977,0,1,0-10.314.257l-9.8,9.8a5.981,5.981,0,1,0,2.348,2.348l9.921-9.921a5.963,5.963,0,0,0,5.5-.14l11.4,11.4a5.976,5.976,0,1,0,10.32.247L68.2,34.1a5.976,5.976,0,1,0,2.193-11.534ZM14.5,49.378a2.656,2.656,0,1,1,2.656-2.656A2.659,2.659,0,0,1,14.5,49.378ZM32.269,31.2a2.656,2.656,0,1,1,2.656-2.656A2.659,2.659,0,0,1,32.269,31.2ZM51.643,50.967A2.656,2.656,0,1,1,54.3,48.31,2.659,2.659,0,0,1,51.643,50.967ZM70.391,31.2a2.656,2.656,0,1,1,2.656-2.656A2.659,2.659,0,0,1,70.391,31.2Z" fill="#529ad9"/>
        </g>
      </g>
      <g id="Grupo_73565" data-name="Grupo 73565">
        <g id="Grupo_73564" data-name="Grupo 73564">
          <path id="Trazado_167592" data-name="Trazado 167592" d="M24.625,21.408a1.659,1.659,0,1,0,.486,1.174A1.676,1.676,0,0,0,24.625,21.408Z" fill="#529ad9"/>
        </g>
      </g>
      <g id="Grupo_73567" data-name="Grupo 73567">
        <g id="Grupo_73566" data-name="Grupo 73566">
          <path id="Trazado_167593" data-name="Trazado 167593" d="M17.266,20.921H9.3a1.66,1.66,0,0,0,0,3.32h7.969a1.66,1.66,0,0,0,0-3.32Z" fill="#529ad9"/>
        </g>
      </g>
      <g id="Grupo_73569" data-name="Grupo 73569">
        <g id="Grupo_73568" data-name="Grupo 73568">
          <path id="Trazado_167594" data-name="Trazado 167594" d="M17.266,28.89H9.3a1.66,1.66,0,0,0,0,3.32h7.969a1.66,1.66,0,0,0,0-3.32Z" fill="#529ad9"/>
        </g>
      </g>
    </g>
  </g>
</svg>
