<svg id="Grupo_79214" data-name="Grupo 79214" xmlns="http://www.w3.org/2000/svg" width="189.161" height="128.19" viewBox="0 0 189.161 128.19">
  <path id="Trazado_177888" data-name="Trazado 177888" d="M2519.561,393.495q-.318.914-.688,1.824H2341.4q-.513-.9-1-1.824c-8.079-15.166-11.7-32.455-4.662-41.133,7-8.625,21.346-4.523,30.832-4.858,16.535-.584,26.058-11.758,29.81-26.931,1.74-7.038,3.079-14.4,7.126-20.416,7.931-11.789,24.7-14.492,36.215-6.722,12.437,8.4,21.248,22.3,26.83,36,5.841,14.342,10.617,31.731,27.245,36.85,4.262,1.312,8.753,1.7,13.08,2.777s8.682,3,11.327,6.594C2522.007,380.823,2521.755,387.193,2519.561,393.495Z" transform="translate(-2331.989 -267.129)" fill="#030504" opacity="0.08"/>
  <g id="Grupo_79174" data-name="Grupo 79174" transform="translate(133.818 59.021)">
    <path id="Trazado_177889" data-name="Trazado 177889" d="M3045.05,521.348l6.6.031a34.051,34.051,0,0,0,11.735-10.189c.03-.044.059-.088.088-.131L3060.2,507.9l5.139.024a39.675,39.675,0,0,0,3.936-16.434l-4.562-.59,4.576-3.368a55.989,55.989,0,0,0-1.359-10.888,57.816,57.816,0,0,0-15.685,4.528l-.7,5.4-2.712-3.685a34,34,0,0,0-11.66,10.148,28.748,28.748,0,0,0-2.111,3.586l1.293,7.652-3.326-2.478c-3.77,12.515-.4,25.789-.4,25.789a57.734,57.734,0,0,0,14.652-4.073Z" transform="translate(-3026.733 -476.64)" fill="#6999d1"/>
    <path id="Trazado_177890" data-name="Trazado 177890" d="M3008.44,551.923l38.082-52.575-35.853,54.12Z" transform="translate(-3008.44 -494.856)" fill="#fff"/>
    <path id="Trazado_177891" data-name="Trazado 177891" d="M3140.77,541.091c-.954.294-1.916.541-2.877.791s-1.928.472-2.9.685-1.939.414-2.909.619l-2.919.56-.538.1-.093-.54-.5-2.93c-.147-.98-.314-1.957-.442-2.941s-.261-1.967-.376-2.953-.21-1.976-.269-2.972c.3.954.542,1.916.792,2.877s.472,1.928.685,2.9.413,1.939.619,2.909l.559,2.92-.63-.437,2.93-.5c.98-.148,1.957-.314,2.941-.442s1.967-.261,2.953-.376S3139.774,541.149,3140.77,541.091Z" transform="translate(-3103.505 -520.658)" fill="#fff"/>
    <path id="Trazado_177892" data-name="Trazado 177892" d="M3093.14,609.826c-.953.295-1.916.541-2.877.791s-1.928.472-2.9.685-1.939.414-2.909.62l-2.92.56-.537.1-.093-.54-.5-2.93c-.147-.98-.314-1.957-.442-2.941s-.261-1.967-.376-2.953-.21-1.976-.268-2.972c.3.953.542,1.916.792,2.877s.472,1.928.685,2.9.413,1.939.619,2.909l.558,2.92-.63-.437,2.93-.5c.98-.148,1.957-.314,2.941-.441s1.967-.261,2.953-.376S3092.144,609.885,3093.14,609.826Z" transform="translate(-3065.297 -575.796)" fill="#fff"/>
  </g>
  <g id="Grupo_79175" data-name="Grupo 79175" transform="translate(132.751 95.481)">
    <path id="Trazado_177893" data-name="Trazado 177893" d="M3045.7,688.076l4.82,2.108a27.14,27.14,0,0,0,11.8-3.747l.106-.068-1.4-3.349,3.752,1.641a31.613,31.613,0,0,0,8.071-10.78l-3.151-1.873,4.412-1.019a44.607,44.607,0,0,0,2.446-8.4,46.079,46.079,0,0,0-12.906-1.642l-2.215,3.727-.82-3.553a27.1,27.1,0,0,0-11.736,3.741,22.886,22.886,0,0,0-2.677,1.957l-1.472,6.007-1.651-2.864c-6.711,7.965-8.439,18.742-8.439,18.742a46.007,46.007,0,0,0,12.007,1.649Z" transform="translate(-3028.396 -660.945)" fill="#caddf2"/>
    <path id="Trazado_177894" data-name="Trazado 177894" d="M3003.046,707.357l44.471-26.435-43.328,28.269Z" transform="translate(-3003.046 -676.97)" fill="#fff"/>
    <path id="Trazado_177895" data-name="Trazado 177895" d="M3159.82,692.452c-.791-.086-1.573-.209-2.355-.33s-1.56-.264-2.336-.414-1.549-.31-2.324-.466l-2.313-.513-.426-.094.1-.424.558-2.3c.2-.764.388-1.531.606-2.291s.431-1.521.658-2.279.47-1.512.742-2.259c-.085.791-.208,1.573-.329,2.355s-.264,1.56-.414,2.336-.311,1.549-.466,2.324l-.514,2.313-.323-.518,2.3.559c.764.2,1.531.389,2.291.606s1.521.431,2.279.658S3159.073,692.181,3159.82,692.452Z" transform="translate(-3120.982 -677.096)" fill="#fff"/>
    <path id="Trazado_177896" data-name="Trazado 177896" d="M3103.258,727.693c-.791-.086-1.573-.209-2.355-.33s-1.56-.264-2.336-.414-1.549-.31-2.323-.466l-2.313-.513-.426-.094.1-.424.558-2.3c.2-.764.388-1.531.606-2.291s.43-1.521.657-2.279.47-1.512.743-2.26c-.085.791-.208,1.573-.329,2.355s-.264,1.56-.414,2.336-.311,1.549-.466,2.324l-.514,2.313-.323-.518,2.3.559c.764.2,1.531.389,2.291.606s1.521.43,2.279.658S3102.51,727.422,3103.258,727.693Z" transform="translate(-3075.609 -705.365)" fill="#fff"/>
  </g>
  <g id="Grupo_79176" data-name="Grupo 79176" transform="translate(18.429 59.021)">
    <path id="Trazado_177897" data-name="Trazado 177897" d="M2449.388,521.348l-6.6.031a34.05,34.05,0,0,1-11.735-10.189c-.03-.044-.058-.088-.088-.131l3.276-3.163-5.14.024a39.678,39.678,0,0,1-3.936-16.434l4.562-.59-4.576-3.368a55.989,55.989,0,0,1,1.359-10.888,57.816,57.816,0,0,1,15.685,4.528l.7,5.4,2.712-3.685a34,34,0,0,1,11.66,10.148,28.689,28.689,0,0,1,2.111,3.586l-1.293,7.652,3.326-2.478c3.77,12.515.4,25.789.4,25.789a57.735,57.735,0,0,1-14.652-4.073Z" transform="translate(-2425.15 -476.64)" fill="#6999d1"/>
    <path id="Trazado_177898" data-name="Trazado 177898" d="M2485.837,551.923l-38.082-52.575,35.853,54.12Z" transform="translate(-2443.283 -494.856)" fill="#fff"/>
    <path id="Trazado_177899" data-name="Trazado 177899" d="M2451.886,541.091c.954.294,1.916.541,2.878.791s1.928.472,2.9.685,1.939.414,2.909.619l2.919.56.538.1.093-.54.5-2.93c.147-.98.315-1.957.441-2.941s.261-1.967.376-2.953.21-1.976.268-2.972c-.3.954-.542,1.916-.792,2.877s-.472,1.928-.685,2.9-.413,1.939-.619,2.909l-.558,2.92.63-.437-2.93-.5c-.98-.148-1.957-.314-2.941-.442s-1.967-.261-2.953-.376S2452.882,541.149,2451.886,541.091Z" transform="translate(-2446.597 -520.658)" fill="#fff"/>
    <path id="Trazado_177900" data-name="Trazado 177900" d="M2499.517,609.826c.953.295,1.916.541,2.877.791s1.928.472,2.9.685,1.939.414,2.909.62l2.919.56.538.1.093-.54.5-2.93c.147-.98.314-1.957.442-2.941s.261-1.967.376-2.953.21-1.976.268-2.972c-.3.953-.542,1.916-.792,2.877s-.472,1.928-.685,2.9-.413,1.939-.619,2.909l-.558,2.92.63-.437-2.93-.5c-.98-.148-1.957-.314-2.941-.441s-1.967-.261-2.953-.376S2500.514,609.885,2499.517,609.826Z" transform="translate(-2484.806 -575.796)" fill="#fff"/>
  </g>
  <g id="Grupo_79177" data-name="Grupo 79177" transform="translate(13.883 95.481)">
    <path id="Trazado_177901" data-name="Trazado 177901" d="M2433.028,688.076l-4.82,2.108a27.14,27.14,0,0,1-11.8-3.747l-.106-.068,1.4-3.349-3.752,1.641a31.622,31.622,0,0,1-8.071-10.78l3.151-1.873-4.412-1.019a44.643,44.643,0,0,1-2.446-8.4,46.081,46.081,0,0,1,12.906-1.642l2.215,3.727.82-3.553a27.1,27.1,0,0,1,11.737,3.741,22.924,22.924,0,0,1,2.677,1.957l1.472,6.007,1.651-2.864c6.712,7.965,8.439,18.742,8.439,18.742a46.006,46.006,0,0,1-12.006,1.649Z" transform="translate(-2402.165 -660.945)" fill="#caddf2"/>
    <path id="Trazado_177902" data-name="Trazado 177902" d="M2465.323,707.357l-44.471-26.435,43.329,28.269Z" transform="translate(-2417.155 -676.97)" fill="#fff"/>
    <path id="Trazado_177903" data-name="Trazado 177903" d="M2449.33,692.452c.791-.086,1.573-.209,2.355-.33s1.56-.264,2.335-.414,1.55-.31,2.324-.466l2.313-.513.426-.094-.1-.424-.558-2.3c-.2-.764-.388-1.531-.606-2.291s-.431-1.521-.658-2.279-.47-1.512-.743-2.259c.085.791.209,1.573.329,2.355s.263,1.56.414,2.336.311,1.549.466,2.324l.514,2.313.323-.518-2.3.559c-.764.2-1.531.389-2.291.606s-1.521.431-2.279.658S2450.078,692.181,2449.33,692.452Z" transform="translate(-2440 -677.096)" fill="#fff"/>
    <path id="Trazado_177904" data-name="Trazado 177904" d="M2505.893,727.693c.791-.086,1.573-.209,2.355-.33s1.56-.264,2.336-.414,1.549-.31,2.324-.466l2.313-.513.426-.094-.1-.424-.558-2.3c-.2-.764-.388-1.531-.606-2.291s-.43-1.521-.658-2.279-.47-1.512-.743-2.26c.085.791.208,1.573.329,2.355s.264,1.56.414,2.336.31,1.549.466,2.324l.514,2.313.323-.518-2.3.559c-.764.2-1.531.389-2.291.606s-1.521.43-2.279.658S2506.641,727.422,2505.893,727.693Z" transform="translate(-2485.373 -705.365)" fill="#fff"/>
  </g>
  <g id="Grupo_79186" data-name="Grupo 79186" transform="translate(40.323 37.683)">
    <path id="Trazado_177905" data-name="Trazado 177905" d="M2662.325,390.626v75.333a2.936,2.936,0,0,1-2.93,2.935H2557.672a2.936,2.936,0,0,1-2.93-2.935V390.626a2.951,2.951,0,0,1,1.224-2.385,2.917,2.917,0,0,1,1.706-.545H2659.4A2.934,2.934,0,0,1,2662.325,390.626Z" transform="translate(-2551 -383.953)" fill="#caddf2"/>
    <rect id="Rectángulo_22397" data-name="Rectángulo 22397" width="110.786" height="8.651" transform="translate(2.296 3.208)" fill="#a1aaba"/>
    <path id="Trazado_177906" data-name="Trazado 177906" d="M2644.22,368.777H2542.5a6.626,6.626,0,0,0-3.887,1.246,6.7,6.7,0,0,0-2.786,5.427v75.333a6.682,6.682,0,0,0,6.673,6.678H2644.22a6.682,6.682,0,0,0,6.673-6.678V375.45A6.681,6.681,0,0,0,2644.22,368.777Zm2.93,82.005a2.936,2.936,0,0,1-2.93,2.935H2542.5a2.936,2.936,0,0,1-2.93-2.935V375.45a2.952,2.952,0,0,1,1.225-2.385,2.917,2.917,0,0,1,1.706-.545H2644.22a2.935,2.935,0,0,1,2.93,2.93Z" transform="translate(-2535.824 -368.777)" fill="#002743"/>
    <rect id="Rectángulo_22398" data-name="Rectángulo 22398" width="111.714" height="25.287" transform="translate(1.549 60.147)" fill="#90caef"/>
    <path id="Trazado_177907" data-name="Trazado 177907" d="M2592.927,401.362a1.355,1.355,0,1,1-1.355-1.355A1.356,1.356,0,0,1,2592.927,401.362Z" transform="translate(-2579.456 -393.828)" fill="#001e33"/>
    <path id="Trazado_177908" data-name="Trazado 177908" d="M2622.657,401.362a1.355,1.355,0,1,1-1.356-1.355A1.356,1.356,0,0,1,2622.657,401.362Z" transform="translate(-2603.305 -393.828)" fill="#001e33"/>
    <path id="Trazado_177909" data-name="Trazado 177909" d="M2652.386,401.362a1.355,1.355,0,1,1-1.356-1.355A1.356,1.356,0,0,1,2652.386,401.362Z" transform="translate(-2627.153 -393.828)" fill="#001e33"/>
    <rect id="Rectángulo_22399" data-name="Rectángulo 22399" width="24.94" height="40.935" transform="translate(8.26 15.556)" fill="#ced8e1"/>
    <g id="Grupo_79179" data-name="Grupo 79179" transform="translate(10.225 18.794)">
      <rect id="Rectángulo_22400" data-name="Rectángulo 22400" width="8.374" height="8.374" fill="#fff"/>
      <g id="Grupo_79178" data-name="Grupo 79178" transform="translate(9.631)">
        <rect id="Rectángulo_22401" data-name="Rectángulo 22401" width="11.386" height="0.776" fill="#fff"/>
        <rect id="Rectángulo_22402" data-name="Rectángulo 22402" width="11.386" height="0.776" transform="translate(0 2.55)" fill="#fff"/>
        <rect id="Rectángulo_22403" data-name="Rectángulo 22403" width="11.386" height="0.776" transform="translate(0 7.651)" fill="#fff"/>
        <rect id="Rectángulo_22404" data-name="Rectángulo 22404" width="11.386" height="0.776" transform="translate(0 5.1)" fill="#fff"/>
      </g>
    </g>
    <g id="Grupo_79181" data-name="Grupo 79181" transform="translate(10.225 31.893)">
      <rect id="Rectángulo_22405" data-name="Rectángulo 22405" width="8.374" height="8.374" fill="#fff"/>
      <g id="Grupo_79180" data-name="Grupo 79180" transform="translate(9.631)">
        <rect id="Rectángulo_22406" data-name="Rectángulo 22406" width="11.386" height="0.776" fill="#fff"/>
        <rect id="Rectángulo_22407" data-name="Rectángulo 22407" width="11.386" height="0.776" transform="translate(0 2.55)" fill="#fff"/>
        <rect id="Rectángulo_22408" data-name="Rectángulo 22408" width="11.386" height="0.776" transform="translate(0 7.651)" fill="#fff"/>
        <rect id="Rectángulo_22409" data-name="Rectángulo 22409" width="11.386" height="0.776" transform="translate(0 5.1)" fill="#fff"/>
      </g>
    </g>
    <g id="Grupo_79183" data-name="Grupo 79183" transform="translate(10.225 44.992)">
      <rect id="Rectángulo_22410" data-name="Rectángulo 22410" width="8.374" height="8.374" fill="#fff"/>
      <g id="Grupo_79182" data-name="Grupo 79182" transform="translate(9.631)">
        <rect id="Rectángulo_22411" data-name="Rectángulo 22411" width="11.386" height="0.776" fill="#fff"/>
        <rect id="Rectángulo_22412" data-name="Rectángulo 22412" width="11.386" height="0.776" transform="translate(0 2.55)" fill="#fff"/>
        <rect id="Rectángulo_22413" data-name="Rectángulo 22413" width="11.386" height="0.776" transform="translate(0 7.651)" fill="#fff"/>
        <rect id="Rectángulo_22414" data-name="Rectángulo 22414" width="11.386" height="0.776" transform="translate(0 5.1)" fill="#fff"/>
      </g>
    </g>
    <rect id="Rectángulo_22415" data-name="Rectángulo 22415" width="9.217" height="13.555" transform="translate(42.952 42.936)" fill="#a0cd8a"/>
    <rect id="Rectángulo_22416" data-name="Rectángulo 22416" width="9.217" height="18.901" transform="translate(59.527 37.59)" fill="#6999d1"/>
    <rect id="Rectángulo_22417" data-name="Rectángulo 22417" width="9.217" height="24.248" transform="translate(76.101 32.243)" fill="#a0cd8a"/>
    <rect id="Rectángulo_22418" data-name="Rectángulo 22418" width="9.217" height="29.594" transform="translate(92.675 26.897)" fill="#6999d1"/>
    <g id="Grupo_79184" data-name="Grupo 79184" transform="translate(41.866 18.504)">
      <path id="Trazado_177910" data-name="Trazado 177910" d="M2747.6,480.36h-.146l.014-2.139c.348.014,32.179.014,50.426-15.906l1.406,1.611C2780.881,480,2750.287,480.36,2747.6,480.36Z" transform="translate(-2747.454 -462.315)" fill="#0d1d39"/>
    </g>
    <g id="Grupo_79185" data-name="Grupo 79185" transform="translate(89.584 14.517)">
      <path id="Trazado_177911" data-name="Trazado 177911" d="M2993.943,450.322l-2.081-3.479-3.189-2.5,8.5-2.178Z" transform="translate(-2988.673 -442.162)" fill="#0d1d39"/>
    </g>
    <rect id="Rectángulo_22419" data-name="Rectángulo 22419" width="19.345" height="2.884" transform="translate(42.952 15.029)" fill="#9bb1c1"/>
    <rect id="Rectángulo_22420" data-name="Rectángulo 22420" width="19.345" height="2.884" transform="translate(42.952 20.048)" fill="#ced8e1"/>
    <rect id="Rectángulo_22421" data-name="Rectángulo 22421" width="19.345" height="2.884" transform="translate(42.952 25.067)" fill="#9bb1c1"/>
  </g>
  <path id="Trazado_177912" data-name="Trazado 177912" d="M2625.045,789.059a4.025,4.025,0,0,0,3.451,1.176c2.309-.22,2.648,1.243,2.648,1.243l-7.667,1.729s-1.343-2.61-.147-3.706S2625.045,789.059,2625.045,789.059Z" transform="translate(-2565.298 -668.079)" fill="#0b0e15"/>
  <path id="Trazado_177913" data-name="Trazado 177913" d="M2681.412,700.612h-81.677a4.892,4.892,0,0,1-4.892-4.892h0a4.892,4.892,0,0,1,4.892-4.892h81.677a4.892,4.892,0,0,1,4.892,4.892h0a4.892,4.892,0,0,1-4.892,4.892Z" transform="translate(-2542.844 -589.435)" fill="#bed7eb"/>
  <path id="Trazado_177914" data-name="Trazado 177914" d="M2568.636,655.359a4.3,4.3,0,0,1-3.767,1.035l-3.693-12.042-1.385-4.508-2.853-4.995-1.684-2.946-1.66-2.909-.443-.778-2.183-3.819,1.82-.607,1.58-.527,2.82-.94,1.915-.64s.212.428.562,1.15c.465.966,1.176,2.457,1.954,4.162.389.849.8,1.751,1.2,2.665a50.662,50.662,0,0,1,3.1,8.451C2566.732,642.434,2568.636,655.359,2568.636,655.359Z" transform="translate(-2507.649 -533.968)" fill="#0d0f10"/>
  <path id="Trazado_177915" data-name="Trazado 177915" d="M2529.022,791.2a4.026,4.026,0,0,0,2.479,2.674c2.136.9,1.739,2.351,1.739,2.351l-7.568-2.12s.058-2.935,1.63-3.331S2529.022,791.2,2529.022,791.2Z" transform="translate(-2487.357 -669.523)" fill="#0b0e15"/>
  <g id="Grupo_79187" data-name="Grupo 79187" transform="translate(54.841 95.367)">
    <path id="Trazado_177916" data-name="Trazado 177916" d="M2614.9,683.649a.324.324,0,0,1-.319-.274c-.018-.114-1.779-11.387-2.267-14.176-.482-2.752-3.046-8.314-3.072-8.37a.324.324,0,1,1,.588-.272c.107.232,2.626,5.7,3.122,8.531.49,2.8,2.251,14.075,2.269,14.188a.325.325,0,0,1-.271.37A.331.331,0,0,1,2614.9,683.649Z" transform="translate(-2609.21 -660.367)" fill="#9aa5af"/>
  </g>
  <g id="Grupo_79189" data-name="Grupo 79189" transform="translate(38.755 86.99)">
    <g id="Grupo_79188" data-name="Grupo 79188">
      <path id="Trazado_177917" data-name="Trazado 177917" d="M2539.306,619.495s-.007.2-.022.553c-.024.549-.065,1.472-.125,2.624-.011.166-.017.339-.03.514-.032.586-.069,1.219-.112,1.882-.138,2.146-.331,4.616-.588,6.845a31.967,31.967,0,0,1-.934,5.273c-1.329,4.2-5.792,16.473-5.792,16.473a4.306,4.306,0,0,1-3.808-.878l3.391-16.977-.169-7.013-.127-5.338v0l-.062-2.723-.056-2.338-.011-.367,7.82,1.364h0Z" transform="translate(-2527.895 -618.023)" fill="#12171d"/>
    </g>
  </g>
  <g id="Grupo_79190" data-name="Grupo 79190" transform="translate(43.048 98.591)">
    <path id="Trazado_177918" data-name="Trazado 177918" d="M2550.206,698.627l-.611-.218c.032-.088,3.162-8.873,4.356-12.332a53.887,53.887,0,0,0,1.795-9.411l.645.065a53.4,53.4,0,0,1-1.827,9.558C2553.369,689.751,2550.237,698.538,2550.206,698.627Z" transform="translate(-2549.595 -676.666)" fill="#9aa5af"/>
  </g>
  <path id="Trazado_177919" data-name="Trazado 177919" d="M2627.275,605.323s1.766,1.858,2.89,1.366.861-2.43-2.031-2.859S2627.275,605.323,2627.275,605.323Z" transform="translate(-2568.303 -519.598)" fill="#fa9c66"/>
  <path id="Trazado_177920" data-name="Trazado 177920" d="M2576.556,548.64c-.02.074-.041.147-.062.216a3.649,3.649,0,0,1-1.2,1.774,2.011,2.011,0,0,1-.227.158l-.017-.011a41.764,41.764,0,0,1-7.692-5.859,17.937,17.937,0,0,1-1.249-1.411,32.351,32.351,0,0,1-4.962-8.5l5.276-.009a25.8,25.8,0,0,0,1.1,2.769c.294.633.605,1.238.929,1.818l0,0a.1.1,0,0,0,.011.019.14.14,0,0,1,.009.017c.075.136.151.268.229.4.011.019.021.039.034.061q.366.622.75,1.2A26.9,26.9,0,0,0,2576.556,548.64Z" transform="translate(-2515.817 -464.436)" fill="#242b39"/>
  <path id="Trazado_177921" data-name="Trazado 177921" d="M2577.169,675.056l-2.853-4.995-1.684-2.946,2.944-1.537A40.664,40.664,0,0,1,2577.169,675.056Z" transform="translate(-2525.028 -569.181)" fill="#0d0f10" opacity="0.72" style="mix-blend-mode: multiply;isolation: isolate"/>
  <g id="Grupo_79191" data-name="Grupo 79191" transform="translate(52.534 75.122)">
    <path id="Trazado_177922" data-name="Trazado 177922" d="M2604.421,566.412c-3.318-2.363-6.234-7.044-6.84-8.055a.214.214,0,0,1,.077-.3h0a.215.215,0,0,1,.293.075c.591.977,3.511,5.638,6.719,7.925a.214.214,0,0,1,.053.3h0a.219.219,0,0,1-.14.092A.211.211,0,0,1,2604.421,566.412Z" transform="translate(-2597.55 -558.031)" fill="#9aa5af"/>
  </g>
  <path id="Trazado_177923" data-name="Trazado 177923" d="M2597.412,562a41.75,41.75,0,0,1-7.692-5.859c-.071-1.223-1.02-3.784-.583-4.729a20.59,20.59,0,0,0,.75-2.418c.294.633.605,1.238.929,1.818l0,0a.1.1,0,0,0,.011.019.14.14,0,0,1,.009.017c.075.136.151.268.229.4.01.019.021.039.034.061q.366.622.75,1.2A20.6,20.6,0,0,0,2597.412,562Z" transform="translate(-2538.175 -475.663)" fill="#242b39" opacity="0.7" style="mix-blend-mode: multiply;isolation: isolate"/>
  <path id="Trazado_177924" data-name="Trazado 177924" d="M2555.406,631.657a33.184,33.184,0,0,1-4.093,1.009,15.045,15.045,0,0,1-4.374.212,5.043,5.043,0,0,1-3.653-1.826v0l-.063-2.723,4.932-.4,3.426-.279,1.872-.151C2553.917,628.461,2554.628,629.952,2555.406,631.657Z" transform="translate(-2501.436 -538.631)" fill="#0d0f10" opacity="0.72" style="mix-blend-mode: multiply;isolation: isolate"/>
  <path id="Trazado_177925" data-name="Trazado 177925" d="M2551.826,541.259s-5.358,1.552-9.853.011a9.8,9.8,0,0,1-1.009-.406,8.631,8.631,0,0,1-1.079-.6q-.34-.224-.661-.484s-.091-1.727-.108-4.23c-.011-1.634.011-3.594.11-5.624.039-.784.089-1.58.151-2.369.432-5.278,1.189-9.47,4.022-10.516h2.336S2553.468,520.876,2551.826,541.259Z" transform="translate(-2498.139 -450.028)" fill="#242b39"/>
  <g id="Grupo_79192" data-name="Grupo 79192" transform="translate(44.729 89.77)">
    <path id="Trazado_177926" data-name="Trazado 177926" d="M2570.239,637.889v0l.67,1.9.847,2.4a1.425,1.425,0,0,1-.867,1.816l-9.381,3.313a1.423,1.423,0,0,1-1.814-.868l-.844-2.388-.675-1.911a1.426,1.426,0,0,1,.869-1.817l9.381-3.313A1.422,1.422,0,0,1,2570.239,637.889Z" transform="translate(-2558.094 -635.98)" fill="#003c6f"/>
    <path id="Trazado_177927" data-name="Trazado 177927" d="M2574.892,632.147a1.282,1.282,0,0,1,1.171.166,1.267,1.267,0,0,1,.462.615l.319.9-.881.311-.319-.9a.34.34,0,0,0-.125-.166.347.347,0,0,0-.316-.045l-2.932,1.036a.347.347,0,0,0-.213.442l.319.9-.881.311-.319-.9a1.282,1.282,0,0,1,.783-1.634Z" transform="translate(-2568.53 -632.074)" fill="#0e1319"/>
    <path id="Trazado_177928" data-name="Trazado 177928" d="M2570.239,637.889l.674,1.9-12.061,4.277-.675-1.911a1.426,1.426,0,0,1,.869-1.817l9.381-3.313A1.422,1.422,0,0,1,2570.239,637.889Z" transform="translate(-2558.094 -635.98)" fill="#001e35"/>
    <path id="Trazado_177929" data-name="Trazado 177929" d="M2590.435,660.734l-.523.186a.329.329,0,0,1-.42-.2l-.266-.75a.329.329,0,0,1,.2-.42l.523-.186a.329.329,0,0,1,.42.2l.266.75A.328.328,0,0,1,2590.435,660.734Z" transform="translate(-2583.052 -653.95)" fill="#2d7eb6"/>
    <path id="Trazado_177930" data-name="Trazado 177930" d="M2584.091,641.743l.67,1.9.847,2.4a1.425,1.425,0,0,1-.867,1.816l-9.38,3.313C2584.981,647.66,2584.12,641.928,2584.091,641.743Z" transform="translate(-2571.946 -639.83)" fill="#003c6f" opacity="0.5" style="mix-blend-mode: multiply;isolation: isolate"/>
  </g>
  <path id="Trazado_177931" data-name="Trazado 177931" d="M2541.973,593.519a9.816,9.816,0,0,1-1.009-.406,8.624,8.624,0,0,1-1.079-.6c-.227-.149-.447-.311-.661-.484,0,0-.091-1.727-.108-4.229-.011-1.634.011-3.594.11-5.624l6.54,9.092-.19,1.431a28.875,28.875,0,0,0-4.117-3.153C2540.086,588.728,2541.677,591.181,2541.973,593.519Z" transform="translate(-2498.139 -502.278)" fill="#242b39" opacity="0.7" style="mix-blend-mode: multiply;isolation: isolate"/>
  <path id="Trazado_177932" data-name="Trazado 177932" d="M2550.337,534.964s-1.729,6.4-1.729,8.646,2.98,9.592,2.98,9.592l-2.56-1.624-2.9-4.962-2.123-4.985,5.02-6.045Z" transform="translate(-2502.066 -464.405)" fill="#242b39" opacity="0.7" style="mix-blend-mode: multiply;isolation: isolate"/>
  <path id="Trazado_177933" data-name="Trazado 177933" d="M2573.777,518.6l.931.28-1.288-1.832-.256.277Z" transform="translate(-2525.455 -450.029)" fill="#6b7889"/>
  <path id="Trazado_177934" data-name="Trazado 177934" d="M2570.255,518.307c.3-.142.7.083.9.5a.753.753,0,0,1-.169,1.019c-.3.142-.7-.083-.9-.5A.754.754,0,0,1,2570.255,518.307Z" transform="translate(-2522.894 -451.009)" fill="#1469b3"/>
  <path id="Trazado_177935" data-name="Trazado 177935" d="M2574,627.363s2.986,1.673,1.794,2.9c-1.645,1.688-3.055-1.791-3.055-1.791Z" transform="translate(-2525.115 -538.525)" fill="#fa9c66"/>
  <path id="Trazado_177936" data-name="Trazado 177936" d="M2540.412,529.118l-4.069,9.427,5.319,8.811a3.163,3.163,0,0,1-2.084,1.626s-7.339-8.1-7.82-9.769c-.574-2,.927-8.608,3.44-11.536Z" transform="translate(-2492.141 -458.559)" fill="#242b39"/>
  <path id="Trazado_177937" data-name="Trazado 177937" d="M2573.254,523.772c2.534,7.013,2.534,15.926,2.534,15.926l1.488,1.68,1.068-1.823a26.351,26.351,0,0,0-4.7-16Z" transform="translate(-2525.526 -455.251)" fill="#1469b3"/>
  <g id="Grupo_79206" data-name="Grupo 79206" transform="translate(110.502 101.112)">
    <g id="Grupo_79205" data-name="Grupo 79205">
      <g id="Grupo_79193" data-name="Grupo 79193" transform="translate(3.154)">
        <rect id="Rectángulo_22422" data-name="Rectángulo 22422" width="26.863" height="2.105" fill="#ffc72e"/>
      </g>
      <g id="Grupo_79194" data-name="Grupo 79194" transform="translate(0 4.21)">
        <rect id="Rectángulo_22423" data-name="Rectángulo 22423" width="26.861" height="2.105" fill="#ffc72e"/>
      </g>
      <g id="Grupo_79195" data-name="Grupo 79195" transform="translate(2.491 2.105)">
        <rect id="Rectángulo_22424" data-name="Rectángulo 22424" width="26.861" height="2.105" fill="#ffc72e"/>
      </g>
      <g id="Grupo_79196" data-name="Grupo 79196" transform="translate(3.819 6.315)">
        <rect id="Rectángulo_22425" data-name="Rectángulo 22425" width="26.863" height="2.102" fill="#ffc72e"/>
      </g>
      <g id="Grupo_79197" data-name="Grupo 79197" transform="translate(0.94 14.732)">
        <rect id="Rectángulo_22426" data-name="Rectángulo 22426" width="26.861" height="2.105" fill="#ffc72e"/>
      </g>
      <g id="Grupo_79198" data-name="Grupo 79198" transform="translate(3.154 8.417)">
        <rect id="Rectángulo_22427" data-name="Rectángulo 22427" width="26.863" height="2.105" fill="#ffc72e"/>
      </g>
      <g id="Grupo_79199" data-name="Grupo 79199" transform="translate(3.819 16.837)">
        <rect id="Rectángulo_22428" data-name="Rectángulo 22428" width="26.863" height="2.105" fill="#ffc72e"/>
      </g>
      <g id="Grupo_79200" data-name="Grupo 79200" transform="translate(3.378 23.152)">
        <rect id="Rectángulo_22429" data-name="Rectángulo 22429" width="26.861" height="2.102" fill="#ffc72e"/>
      </g>
      <g id="Grupo_79201" data-name="Grupo 79201" transform="translate(3.154 18.942)">
        <rect id="Rectángulo_22430" data-name="Rectángulo 22430" width="26.863" height="2.105" fill="#ffc72e"/>
      </g>
      <g id="Grupo_79202" data-name="Grupo 79202" transform="translate(4.318 12.63)">
        <rect id="Rectángulo_22431" data-name="Rectángulo 22431" width="26.861" height="2.102" fill="#ffc72e"/>
      </g>
      <g id="Grupo_79203" data-name="Grupo 79203" transform="translate(1.271 21.047)">
        <rect id="Rectángulo_22432" data-name="Rectángulo 22432" width="26.866" height="2.105" fill="#ffc72e"/>
      </g>
      <g id="Grupo_79204" data-name="Grupo 79204" transform="translate(2.491 10.522)">
        <rect id="Rectángulo_22433" data-name="Rectángulo 22433" width="26.861" height="2.108" fill="#ffc72e"/>
      </g>
    </g>
  </g>
  <path id="Trazado_177938" data-name="Trazado 177938" d="M2903.831,704.141v2.1h2.88v2.107h-.665v2.1h-1.881v2.1h2.1v2.1h-12.318v-2.1h-2.107v-2.1h1.885v-2.1h.665v-2.107h-2.88v-2.1h3.378v-2.1h-1.829V699.93h.666v-2.1h.665v-2.1h-3.821v-2.1h2.49v-2.107h.666v-2.1h12.317v2.1h-.665v2.107h-2.49v2.1h3.821v2.1h-.665v2.1h-.665v2.107h1.828v2.1Z" transform="translate(-2780.072 -588.296)" fill="#ffc72e" opacity="0.7" style="mix-blend-mode: multiply;isolation: isolate"/>
  <path id="Trazado_177939" data-name="Trazado 177939" d="M3011.4,704.139v2.1h2.881v2.1h-.665v2.1h-1.881v2.1h2.1v2.1h-3.92v-2.1h-2.108v-2.1h1.883v-2.1h.665v-2.1h-2.879v-2.1h3.378v-2.1h-1.828v-2.108h.663v-2.1h.665v-2.1h-3.819v-2.1h2.491v-2.1h.663v-2.1h3.923v2.1h-.666v2.1h-2.491v2.1h3.822v2.1h-.665v2.1h-.666v2.108h1.828v2.1Z" transform="translate(-2873.1 -588.295)" fill="#262d37" style="mix-blend-mode: color-dodge;isolation: isolate"/>
  <path id="Trazado_177940" data-name="Trazado 177940" d="M2564.322,481.779c-.845,1.9-4.552-.97-4.677-1.781a4.165,4.165,0,0,1,.588-3.307c.041-.056.084-.106.128-.156a2.567,2.567,0,0,1,1.2-.78l2.669.655s.032.2.078.53c.061.424.138,1.061.19,1.744A7.87,7.87,0,0,1,2564.322,481.779Z" transform="translate(-2514.541 -416.91)" fill="#fa9c66"/>
  <path id="Trazado_177941" data-name="Trazado 177941" d="M2563.416,499.791v.791l0,2.9v.808c-1.346.772-3.2-.367-3.2-.367l.57-3.471,1.913-.48Z" transform="translate(-2515.063 -436.19)" fill="#fa9c66"/>
  <path id="Trazado_177942" data-name="Trazado 177942" d="M2567.092,480.989a4.308,4.308,0,0,1-3.03-.707,1.9,1.9,0,0,1-.7.9l-.536-2.183-.035-.138.162-.017,1.908-.212a17.51,17.51,0,0,1,2.042.616C2566.962,479.669,2567.04,480.306,2567.092,480.989Z" transform="translate(-2517.131 -419.214)" fill="#fa9c66" style="mix-blend-mode: multiply;isolation: isolate"/>
  <path id="Trazado_177943" data-name="Trazado 177943" d="M2557.017,476.174a19.739,19.739,0,0,0,1.088-3.27s3.438,1.608,4.4-.221-.9-3.013-1.852-2.337-2.2.144-3.935,1.256C2554.331,473.127,2557.017,476.174,2557.017,476.174Z" transform="translate(-2511.467 -412.416)" fill="#131313"/>
  <path id="Trazado_177944" data-name="Trazado 177944" d="M2558.143,518.457l2.561,1.557-1.031.993-2.146-2.252Z" transform="translate(-2512.911 -451.163)" fill="#6b7889"/>
  <path id="Trazado_177945" data-name="Trazado 177945" d="M2565.724,500.223l0,2.9c-2.777-.136-2.632-3.03-2.632-3.03l1.562-.75s.139.1.35.27C2565.2,499.769,2565.452,499.981,2565.724,500.223Z" transform="translate(-2517.372 -435.831)" fill="#fa9c66" style="mix-blend-mode: multiply;isolation: isolate"/>
  <path id="Trazado_177946" data-name="Trazado 177946" d="M2563.229,489.684s.433,2.807,3.532,1.655a1.773,1.773,0,0,1-1.714,2.32,2.585,2.585,0,0,1-2.8-2.065l.6-2.218Z" transform="translate(-2516.695 -427.835)" fill="#131313"/>
  <path id="Trazado_177947" data-name="Trazado 177947" d="M2560.363,490.079a.877.877,0,1,0,.826-.925A.877.877,0,0,0,2560.363,490.079Z" transform="translate(-2515.184 -427.656)" fill="#fa9c66"/>
  <circle id="Elipse_4674" data-name="Elipse 4674" cx="3.769" cy="3.769" r="3.769" transform="translate(92.4 117.85) rotate(-45)" fill="#bed7eb"/>
  <g id="Grupo_79207" data-name="Grupo 79207" transform="translate(39.166 70.028)">
    <path id="Trazado_177948" data-name="Trazado 177948" d="M2536.141,550.628a.323.323,0,0,1-.234-.1c-.6-.626-5.878-6.174-5.929-8.078-.132-4.965,2.607-9.8,2.724-10.008a.324.324,0,0,1,.563.322c-.028.048-2.766,4.889-2.638,9.669.033,1.253,3.456,5.259,5.749,7.646a.324.324,0,0,1-.234.549Z" transform="translate(-2529.974 -532.28)" fill="#9aa5af"/>
  </g>
  <path id="Trazado_177949" data-name="Trazado 177949" d="M2481.553,295.693a10.935,10.935,0,0,0-2.3-5.533l1.778-1.778-1.832-1.832-1.778,1.778a10.936,10.936,0,0,0-5.533-2.3V283.52h-2.59v2.513a10.935,10.935,0,0,0-5.533,2.3l-1.778-1.778-1.832,1.832,1.779,1.778a10.935,10.935,0,0,0-2.3,5.533h-2.513v2.59h2.513a10.935,10.935,0,0,0,2.3,5.533l-1.779,1.778,1.832,1.832,1.778-1.778a10.937,10.937,0,0,0,5.533,2.3v2.513h2.59v-2.513a10.938,10.938,0,0,0,5.533-2.3l1.778,1.778,1.832-1.832-1.778-1.778a10.935,10.935,0,0,0,2.3-5.533h2.513v-2.59Zm-4.4,6.021a7.94,7.94,0,0,1-1.831,1.832,8.036,8.036,0,0,1-3.431,1.43,8.314,8.314,0,0,1-2.59,0,8.031,8.031,0,0,1-3.431-1.43,8.109,8.109,0,0,1-3.257-5.263,8.309,8.309,0,0,1,0-2.59,8.108,8.108,0,0,1,6.688-6.688,8.314,8.314,0,0,1,2.59,0,8.108,8.108,0,0,1,6.688,6.688,8.309,8.309,0,0,1,0,2.59A7.963,7.963,0,0,1,2477.156,301.715Z" transform="translate(-2432.374 -262.703)" fill="#6999d1"/>
  <g id="Grupo_79211" data-name="Grupo 79211" transform="translate(138.695 102.359)">
    <g id="Grupo_79210" data-name="Grupo 79210">
      <path id="Trazado_177950" data-name="Trazado 177950" d="M3057.1,707.712a12,12,0,0,1-21.185,7.72c-.106-.125-.21-.255-.311-.385a11.994,11.994,0,0,1,16.3-17.21c.179.123.356.253.53.387.212.162.415.331.614.508A11.966,11.966,0,0,1,3057.1,707.712Z" transform="translate(-3033.093 -695.711)" fill="#ffc72e"/>
      <g id="Grupo_79208" data-name="Grupo 79208" transform="translate(1.048 1.045)">
        <path id="Trazado_177951" data-name="Trazado 177951" d="M3039.357,714.822h-.584a10.856,10.856,0,0,0,.666,1.8h.627A10.258,10.258,0,0,1,3039.357,714.822Zm20.741-4.986a10.385,10.385,0,0,0-.331-1.269c-.019-.067-.043-.132-.064-.2-.013-.039-.026-.078-.041-.115a10.521,10.521,0,0,0-.631-1.427c-.132-.251-.275-.495-.426-.732a10.954,10.954,0,0,0-9.259-5.1,10.616,10.616,0,0,0-1.262.074c-.117.013-.231.028-.346.046-.259.037-.517.084-.769.142-.218.048-.434.1-.648.164a10.833,10.833,0,0,0-1.783.687,11.008,11.008,0,0,0-2.045,1.3c-.237.19-.469.391-.689.6a11.093,11.093,0,0,0-1.977,2.52,11.043,11.043,0,0,0-.962,2.23c-.065.212-.123.428-.175.646a11.018,11.018,0,0,0-.238,1.39c-.015.138-.026.277-.034.415-.017.244-.026.491-.026.737,0,.151,0,.3.011.454.007.205.022.411.041.616a10.887,10.887,0,0,0,1.921,5.2,11.107,11.107,0,0,0,2.23,2.358,10.5,10.5,0,0,0,.9.635c.089.056.177.11.268.164a10.945,10.945,0,0,0,14.8-3.512c.175-.268.335-.545.484-.83a10.768,10.768,0,0,0,.484-1.048,10.894,10.894,0,0,0,.769-4.035A11.02,11.02,0,0,0,3060.1,709.836Zm-1.135,6.058c-.013.032-.026.065-.041.1,0,0,0,0,0,0a10.275,10.275,0,0,1-.449.934,10.443,10.443,0,0,1-6.2,5,9.822,9.822,0,0,1-1.13.266,10.414,10.414,0,0,1-10.772-5.018c-.106-.18-.205-.361-.3-.547a10.366,10.366,0,0,1-1.059-3.607c-.009-.086-.017-.175-.024-.264-.019-.266-.03-.534-.03-.806,0-.248.009-.495.026-.737,0-.017,0-.032,0-.047a9.98,9.98,0,0,1,.285-1.757c.073-.294.16-.581.257-.864a10.07,10.07,0,0,1,.381-.938,10.449,10.449,0,0,1,6.349-5.582c.234-.071.471-.136.711-.193s.471-.1.713-.14c.13-.022.259-.041.391-.056a10.4,10.4,0,0,1,10.674,5.879c.13.272.249.553.354.839.054.147.106.3.151.445.028.08.052.16.073.24a9.792,9.792,0,0,1,.281,1.236c.01.056.019.115.028.173a10.436,10.436,0,0,1,.108,1.5A10.326,10.326,0,0,1,3058.964,715.894Z" transform="translate(-3038.391 -700.994)" fill="#d39616"/>
      </g>
      <g id="Grupo_79209" data-name="Grupo 79209" transform="translate(7.458 4.657)">
        <path id="Trazado_177952" data-name="Trazado 177952" d="M3079.866,728.461l-.006-.033a2.473,2.473,0,0,0-.5-1.245,4.2,4.2,0,0,0-2.224-1.282c-.294-.086-.593-.16-.886-.229v-2.656a6.37,6.37,0,0,1,2.39.813l.78-1.924a7.075,7.075,0,0,0-3.17-.953v-1.7h-1.562v1.735a6.174,6.174,0,0,0-1.059.21,5.148,5.148,0,0,0-.586.214,3.416,3.416,0,0,0-1.61,1.366,3.054,3.054,0,0,0-.417,1.569,3.3,3.3,0,0,0,.05.586v0a2.51,2.51,0,0,0,1.085,1.673,7.494,7.494,0,0,0,2.537.975v2.609a6.682,6.682,0,0,1-2.1-.566,5.148,5.148,0,0,1-.934-.542l-.054.119-.145.324-.659,1.463a3.152,3.152,0,0,0,.326.227,7.882,7.882,0,0,0,3.564,1.022v1.7h1.563v-1.751c2.008-.242,3.166-1.228,3.521-2.468a3.067,3.067,0,0,0,.119-.858A3.923,3.923,0,0,0,3079.866,728.461Zm-6.337-4.243a1.092,1.092,0,0,1,.774-1.035,2.283,2.283,0,0,1,.383-.121v2.22C3074,725.064,3073.529,724.766,3073.529,724.219Zm2.719,5.907v-2.157c.058.021.117.041.171.065,0,0,0,0,0,0,.577.225.951.516.951,1.014a.833.833,0,0,1-.015.164C3077.29,729.637,3076.942,729.974,3076.248,730.125Z" transform="translate(-3070.795 -719.25)" fill="#ffedc1"/>
      </g>
    </g>
    <path id="Trazado_177953" data-name="Trazado 177953" d="M3068.535,716.336a12,12,0,0,1-21.185,7.72l.009.006a12,12,0,0,0,15.982-17.6c.179.123.356.253.53.387.212.162.415.331.614.508A11.966,11.966,0,0,1,3068.535,716.336Z" transform="translate(-3044.53 -704.334)" fill="#ced8e1" style="mix-blend-mode: multiply;isolation: isolate"/>
  </g>
  <g id="Grupo_79213" data-name="Grupo 79213" transform="translate(104.405 0)">
    <path id="Trazado_177954" data-name="Trazado 177954" d="M2898.742,193.218a14.934,14.934,0,1,1-5.021-11.165A14.932,14.932,0,0,1,2898.742,193.218Z" transform="translate(-2867.074 -178.288)" fill="#a2b3ca"/>
    <path id="Trazado_177955" data-name="Trazado 177955" d="M2864.515,278.968l-4.757,12.715,11.494-8.291" transform="translate(-2859.759 -259.051)" fill="#a2b3ca"/>
    <g id="Grupo_79212" data-name="Grupo 79212" transform="translate(10.573 4.974)">
      <path id="Trazado_177956" data-name="Trazado 177956" d="M2925.5,215.92l-.009-.044a3.348,3.348,0,0,0-.68-1.688,5.69,5.69,0,0,0-3.015-1.738c-.4-.117-.8-.217-1.2-.311v-3.6a8.639,8.639,0,0,1,3.241,1.1l1.058-2.608a9.6,9.6,0,0,0-4.3-1.292v-2.309h-2.118v2.353a8.348,8.348,0,0,0-1.436.284,6.993,6.993,0,0,0-.794.29,4.635,4.635,0,0,0-2.183,1.852,4.143,4.143,0,0,0-.565,2.127,4.535,4.535,0,0,0,.067.794v0a3.4,3.4,0,0,0,1.471,2.268,10.156,10.156,0,0,0,3.44,1.321v3.537a9.068,9.068,0,0,1-2.845-.768,6.973,6.973,0,0,1-1.266-.736l-.073.161-.2.44-.894,1.984a4.244,4.244,0,0,0,.442.308,10.686,10.686,0,0,0,4.832,1.386v2.309h2.118v-2.374c2.722-.328,4.293-1.664,4.773-3.346a4.154,4.154,0,0,0,.161-1.163A5.309,5.309,0,0,0,2925.5,215.92Zm-8.592-5.752a1.48,1.48,0,0,1,1.049-1.4,3.08,3.08,0,0,1,.519-.164v3.009C2917.547,211.313,2916.911,210.909,2916.911,210.168Zm3.686,8.008v-2.924c.079.029.158.056.231.088,0,0,0,0,0,0,.782.3,1.289.7,1.289,1.374a1.108,1.108,0,0,1-.021.223C2922.01,217.514,2921.538,217.971,2920.6,218.176Z" transform="translate(-2913.204 -203.431)" fill="#fff"/>
    </g>
    <path id="Trazado_177957" data-name="Trazado 177957" d="M2910.354,208.484a14.933,14.933,0,0,1-27,8.794,14.932,14.932,0,0,0,21.98-19.959A14.89,14.89,0,0,1,2910.354,208.484Z" transform="translate(-2878.686 -193.554)" fill="#8d9baf"/>
  </g>
</svg>
