<svg xmlns="http://www.w3.org/2000/svg" xmlns:xlink="http://www.w3.org/1999/xlink" width="85" height="85" viewBox="0 0 85 85">
  <defs>
    <clipPath id="clip-path">
      <rect id="Rectángulo_21200" data-name="Rectángulo 21200" width="85" height="85" transform="translate(290 4837)" fill="#fff" stroke="#707070" stroke-width="1"/>
    </clipPath>
  </defs>
  <g id="Enmascarar_grupo_62" data-name="Enmascarar grupo 62" transform="translate(-290 -4837)" clip-path="url(#clip-path)">
    <g id="offer" transform="translate(290 4837)">
      <path id="Trazado_167560" data-name="Trazado 167560" d="M68.436,0H28.859a1.245,1.245,0,0,0,0,2.49H68.436a3.456,3.456,0,0,1,3.453,3.452V79.058a3.456,3.456,0,0,1-3.453,3.452H16.564a3.456,3.456,0,0,1-3.453-3.452V5.942A3.457,3.457,0,0,1,16.564,2.49h7.394a1.245,1.245,0,0,0,0-2.49H16.564a5.949,5.949,0,0,0-5.943,5.942V79.058A5.949,5.949,0,0,0,16.564,85H68.436a5.949,5.949,0,0,0,5.943-5.942V5.942A5.95,5.95,0,0,0,68.436,0Z" fill="#12263f"/>
      <path id="Trazado_167561" data-name="Trazado 167561" d="M66.721,35.759H23.236a1.245,1.245,0,1,0,0,2.49H66.721a1.245,1.245,0,0,0,0-2.49Z" fill="#529ad9"/>
      <path id="Trazado_167562" data-name="Trazado 167562" d="M67.966,43.718a1.245,1.245,0,0,0-1.245-1.245H23.236a1.245,1.245,0,0,0,0,2.49H66.721A1.245,1.245,0,0,0,67.966,43.718Z" fill="#529ad9"/>
      <path id="Trazado_167563" data-name="Trazado 167563" d="M42.5,49.186H23.236a1.245,1.245,0,1,0,0,2.49H42.5a1.245,1.245,0,0,0,0-2.49Z" fill="#529ad9"/>
      <path id="Trazado_167564" data-name="Trazado 167564" d="M42.5,55.9H23.236a1.245,1.245,0,0,0,0,2.49H42.5a1.245,1.245,0,0,0,0-2.49Z" fill="#529ad9"/>
      <path id="Trazado_167565" data-name="Trazado 167565" d="M21.991,23.577a1.245,1.245,0,0,0,1.245,1.245H66.721a1.245,1.245,0,0,0,0-2.49H23.236a1.245,1.245,0,0,0-1.245,1.245Z" fill="#529ad9"/>
      <path id="Trazado_167566" data-name="Trazado 167566" d="M66.721,29.045H23.236a1.245,1.245,0,1,0,0,2.49H66.721a1.245,1.245,0,0,0,0-2.49Z" fill="#529ad9"/>
      <path id="Trazado_167567" data-name="Trazado 167567" d="M18.638,38.254A1.25,1.25,0,1,0,17.388,37,1.25,1.25,0,0,0,18.638,38.254Z" fill="#12263f"/>
      <path id="Trazado_167568" data-name="Trazado 167568" d="M18.638,24.826a1.25,1.25,0,1,0-1.25-1.25A1.25,1.25,0,0,0,18.638,24.826Z" fill="#12263f"/>
      <path id="Trazado_167569" data-name="Trazado 167569" d="M18.638,31.54a1.25,1.25,0,1,0-1.25-1.25A1.25,1.25,0,0,0,18.638,31.54Z" fill="#12263f"/>
      <path id="Trazado_167570" data-name="Trazado 167570" d="M18.638,44.967a1.25,1.25,0,1,0-1.25-1.25A1.25,1.25,0,0,0,18.638,44.967Z" fill="#12263f"/>
      <path id="Trazado_167571" data-name="Trazado 167571" d="M18.638,51.681a1.25,1.25,0,1,0-1.25-1.25A1.25,1.25,0,0,0,18.638,51.681Z" fill="#12263f"/>
      <path id="Trazado_167572" data-name="Trazado 167572" d="M18.638,58.395a1.25,1.25,0,1,0-1.25-1.25A1.25,1.25,0,0,0,18.638,58.395Z" fill="#12263f"/>
      <path id="Trazado_167573" data-name="Trazado 167573" d="M42.5,62.613H23.236a1.245,1.245,0,1,0,0,2.49H42.5a1.245,1.245,0,0,0,0-2.49Z" fill="#529ad9"/>
      <path id="Trazado_167574" data-name="Trazado 167574" d="M18.638,65.108a1.25,1.25,0,1,0-1.25-1.25A1.25,1.25,0,0,0,18.638,65.108Z" fill="#12263f"/>
      <path id="Trazado_167575" data-name="Trazado 167575" d="M43.745,70.572A1.245,1.245,0,0,0,42.5,69.327H23.236a1.245,1.245,0,1,0,0,2.49H42.5A1.245,1.245,0,0,0,43.745,70.572Z" fill="#529ad9"/>
      <path id="Trazado_167576" data-name="Trazado 167576" d="M18.638,78.531h6.986a1.245,1.245,0,1,0,0-2.49H18.638a1.245,1.245,0,1,0,0,2.49Z" fill="#12263f"/>
      <path id="Trazado_167577" data-name="Trazado 167577" d="M58.462,78.531h6.986a1.245,1.245,0,0,0,0-2.49H58.462a1.245,1.245,0,0,0,0,2.49Z" fill="#12263f"/>
      <path id="Trazado_167578" data-name="Trazado 167578" d="M18.638,71.822a1.25,1.25,0,1,0-1.25-1.25A1.25,1.25,0,0,0,18.638,71.822Z" fill="#12263f"/>
      <path id="Trazado_167579" data-name="Trazado 167579" d="M36.948,8.889a1.245,1.245,0,1,0,0-2.49h-3.7a1.245,1.245,0,0,0-1.245,1.245v9.12a1.245,1.245,0,1,0,2.49,0v-3.4h2.158a1.245,1.245,0,0,0,0-2.49H34.5V8.889Z" fill="#529ad9"/>
      <path id="Trazado_167580" data-name="Trazado 167580" d="M46.364,8.889a1.245,1.245,0,1,0,0-2.49h-3.7a1.245,1.245,0,0,0-1.245,1.245v9.12a1.245,1.245,0,1,0,2.49,0v-3.4H46.07a1.245,1.245,0,0,0,0-2.49H43.912V8.889Z" fill="#529ad9"/>
      <path id="Trazado_167581" data-name="Trazado 167581" d="M55.242,8.811a1.245,1.245,0,0,0,0-2.49H51.405A1.245,1.245,0,0,0,50.16,7.565v9.1a1.245,1.245,0,0,0,1.245,1.245h3.836a1.245,1.245,0,0,0,0-2.49H52.65V13.362h2.308a1.245,1.245,0,1,0,0-2.49H52.65V8.811Z" fill="#529ad9"/>
      <path id="Trazado_167582" data-name="Trazado 167582" d="M67.514,9.911a3.707,3.707,0,0,0-3.768-3.633H61.3a1.245,1.245,0,0,0-1.245,1.245v9.187a1.245,1.245,0,1,0,2.49,0V14.366l2.788,3.167A1.245,1.245,0,0,0,67.2,15.888l-2.237-2.541a3.651,3.651,0,0,0,2.547-3.436Zm-3.768,1.143-1.187,0c0-.433,0-.878,0-1.146,0-.23,0-.688,0-1.143h1.193a1.232,1.232,0,0,1,1.278,1.143,1.233,1.233,0,0,1-1.278,1.143Z" fill="#529ad9"/>
      <path id="Trazado_167583" data-name="Trazado 167583" d="M23.014,6.365A5.839,5.839,0,1,0,28.854,12.2a5.846,5.846,0,0,0-5.839-5.839Zm0,9.187A3.349,3.349,0,1,1,26.364,12.2,3.353,3.353,0,0,1,23.014,15.552Z" fill="#529ad9"/>
      <path id="Trazado_167584" data-name="Trazado 167584" d="M57.363,71.646A1.245,1.245,0,0,0,58.608,70.4v-.623H59.1a4.1,4.1,0,0,0,4.1-4.1V63.545a4.1,4.1,0,0,0-4.1-4.1h-.494V54.1H59.1A1.609,1.609,0,0,1,60.71,55.7v.24a1.245,1.245,0,0,0,2.49,0V55.7a4.1,4.1,0,0,0-4.1-4.1h-.494v-1a1.245,1.245,0,0,0-2.49,0v1h-.495a4.1,4.1,0,0,0-4.1,4.1V57.84a4.1,4.1,0,0,0,4.1,4.1h.495v5.35h-.495a1.609,1.609,0,0,1-1.608-1.608,1.245,1.245,0,0,0-2.49,0,4.1,4.1,0,0,0,4.1,4.1h.495V70.4A1.245,1.245,0,0,0,57.363,71.646Zm-1.74-12.2a1.609,1.609,0,0,1-1.608-1.607V55.7A1.609,1.609,0,0,1,55.623,54.1h.495v5.35Zm2.985,2.49H59.1a1.609,1.609,0,0,1,1.608,1.607v2.135A1.61,1.61,0,0,1,59.1,67.288h-.494Z" fill="#12263f"/>
    </g>
  </g>
</svg>
