<svg id="Grupo_79295" data-name="Grupo 79295" xmlns="http://www.w3.org/2000/svg" width="189.816" height="128.189" viewBox="0 0 189.816 128.189">
  <path id="Trazado_178037" data-name="Trazado 178037" d="M346.185,329.4c0,.111-.007.221-.012.33a71.018,71.018,0,0,1-1.251,10.922,82.272,82.272,0,0,1-8.676,23.706q-.706,1.3-1.427,2.522H181.993q-.744-1.254-1.445-2.522c-10.451-18.936-13.517-39.7-5.525-48.1,7.277-7.652,17.846,1.125,35.607-3.828a42.819,42.819,0,0,0,5.452-1.918,40.725,40.725,0,0,0,8.853-5.226q1.378-1.065,2.653-2.228c.884-.8,1.732-1.629,2.55-2.487.267-.279.531-.564.79-.851.126-.136.249-.272.37-.41q.7-.782,1.367-1.591c.252-.3.5-.609.745-.916.579-.727,1.143-1.47,1.689-2.22.058-.078.113-.154.169-.232,1.535-2.119,2.958-4.322,4.3-6.564,1.51-2.507,2.927-5.059,4.312-7.6.8-1.467,1.586-2.93,2.374-4.375.979-1.795,1.953-3.559,2.95-5.276.725-1.246,1.457-2.467,2.21-3.65q.649-1.023,1.322-2.011.7-1.027,1.425-2.011c4.244-5.726,9.255-10.184,16.2-12.08a35.28,35.28,0,0,1,17.718.285q1.933.479,3.889,1.13,1.155.385,2.318.826a67.474,67.474,0,0,1,9.89,4.75q1.843,1.069,3.667,2.268,1.567,1.027,3.111,2.15.457.332.914.672c.559.415,1.115.843,1.669,1.279.31.239.617.486.924.733l.158.128q1.133.917,2.243,1.883c.292.252.582.506.871.765.206.181.41.365.614.554.055.048.108.1.164.146.108.1.219.2.33.3q1.068.982,2.112,2.009c11.586,11.385,20.879,26.626,24.071,43.682a69.709,69.709,0,0,1,.949,7A68.993,68.993,0,0,1,346.185,329.4Z" transform="translate(-170.5 -238.693)" fill="#030504" opacity="0.08"/>
  <g id="Grupo_79294" data-name="Grupo 79294" transform="translate(19.341 0)">
    <path id="Trazado_178038" data-name="Trazado 178038" d="M786.532,514.371c-3.235-14.6,2.079-12.64,7.939-23.127,2.39-4.276,1.9-7.828-.5-11.867-1.576-2.65-3.242-5.98-1.994-9.075,1.353-3.357,4.588-3.842,7.631-4.848,7.814-2.585,9.691-9.283,13.072-15.841a7.787,7.787,0,0,1,3.959-3.95c8.638-3.161,13.3,10.8,10.32,16.8-1.86,3.753-5.1,6.462-6.995,10.236-1.692,3.375-1.394,5.868-.648,9.373,1.185,5.567-1.106,11.146-4.645,15.391-2.008,2.409-4.268,4.7-5.581,7.592-2.828,6.231-6.989,11.971-13.873,13.925Z" transform="translate(-677.313 -393.573)" fill="#6999d1"/>
    <path id="Trazado_178039" data-name="Trazado 178039" d="M804.15,541l.622-2.463a25.8,25.8,0,0,1,.775-2.513c.158-.415.324-.829.513-1.233.09-.2.194-.4.291-.6l.311-.581.156-.29.165-.283.331-.564.346-.551c.115-.184.231-.367.352-.545.953-1.441,1.976-2.812,3.011-4.16s2.08-2.677,3.092-4.021,1.993-2.7,2.884-4.114a29.334,29.334,0,0,0,2.333-4.385,16.8,16.8,0,0,0,1.234-4.736,13.231,13.231,0,0,0-.457-4.839,22.1,22.1,0,0,0-.875-2.327,23.672,23.672,0,0,1-.916-2.416,8.2,8.2,0,0,1-.377-2.63,7.246,7.246,0,0,1,.611-2.59,10.9,10.9,0,0,1,1.34-2.246,19.275,19.275,0,0,1,1.709-1.932q.453-.455.921-.889c.311-.291.609-.585.914-.877l.91-.879c.3-.293.612-.582.9-.894a48.406,48.406,0,0,0,6.357-7.854l.672-1.073.614-1.107c.214-.364.386-.75.573-1.129l.277-.57.246-.583.245-.585c.08-.2.144-.4.216-.6s.143-.4.21-.6l.177-.608a10.936,10.936,0,0,0,.442-2.491,10.964,10.964,0,0,1-.385,2.507l-.164.615c-.063.2-.131.4-.2.6s-.127.4-.2.6l-.232.592-.234.592-.264.579c-.179.385-.343.777-.55,1.148l-.592,1.128-.65,1.1a48.768,48.768,0,0,1-6.216,8.056c-.279.321-.582.618-.881.921l-.9.906c-.3.3-.6.608-.9.9s-.6.592-.886.9a18.727,18.727,0,0,0-1.611,1.907,10.225,10.225,0,0,0-1.208,2.132,6.507,6.507,0,0,0-.5,2.336,7.411,7.411,0,0,0,.4,2.366c.5,1.556,1.368,3.03,1.905,4.712a14.241,14.241,0,0,1,.613,5.2,17.918,17.918,0,0,1-1.2,5.088,30.538,30.538,0,0,1-2.323,4.628c-.885,1.474-1.854,2.887-2.847,4.27s-2.01,2.741-3.005,4.1-1.966,2.729-2.849,4.134c-.113.174-.22.351-.325.529l-.317.532-.3.538-.149.269-.139.273-.276.545c-.083.183-.172.362-.248.547-.162.366-.3.742-.437,1.122a48.636,48.636,0,0,0-1.229,4.83Z" transform="translate(-692.055 -413.421)" fill="#fff"/>
    <path id="Trazado_178040" data-name="Trazado 178040" d="M814.01,613.559c3.306-12.667,6.668-9.022,15.422-14.855,3.57-2.379,4.605-5.344,4.346-9.451-.17-2.695-.139-5.955,2.069-7.869,2.4-2.076,5.11-1.162,7.884-.731,7.123,1.106,11.26-3.365,16.513-7.127a6.819,6.819,0,0,1,4.663-1.5c7.994.986,6.05,13.726,1.334,17.217-2.948,2.182-6.557,3-9.539,5.185-2.667,1.955-3.43,4.017-4.248,7.047-1.3,4.813-5.313,8.246-9.766,10.142-2.527,1.076-5.2,1.959-7.381,3.689-4.692,3.727-10.227,6.539-16.373,5.314Z" transform="translate(-699.87 -494.062)" fill="#caddf2"/>
    <path id="Trazado_178041" data-name="Trazado 178041" d="M811.77,640.164l1.468-1.671a22.538,22.538,0,0,1,1.608-1.649c.289-.261.583-.517.893-.756.151-.123.311-.236.467-.353l.474-.328.237-.163.241-.154.483-.308.49-.291c.163-.1.327-.194.492-.284,1.318-.743,2.664-1.4,4.008-2.04s2.69-1.256,4.016-1.9,2.633-1.312,3.89-2.055a25.667,25.667,0,0,0,3.569-2.486,14.711,14.711,0,0,0,2.853-3.2,11.588,11.588,0,0,0,1.576-3.954,19.369,19.369,0,0,0,.247-2.163,20.809,20.809,0,0,1,.251-2.249,7.182,7.182,0,0,1,.756-2.2,6.342,6.342,0,0,1,1.51-1.775,9.545,9.545,0,0,1,1.941-1.216,16.906,16.906,0,0,1,2.1-.823q.535-.174,1.073-.325c.359-.1.708-.213,1.063-.319l1.06-.322c.353-.108.709-.209,1.055-.339a42.4,42.4,0,0,0,8.091-3.583l.952-.568.921-.617c.313-.2.6-.431.9-.651l.443-.334.425-.357.424-.358c.14-.121.27-.252.406-.378s.27-.253.4-.382l.381-.4a9.575,9.575,0,0,0,1.339-1.765,9.592,9.592,0,0,1-1.3,1.8l-.373.414c-.13.133-.263.262-.395.393s-.261.265-.4.389l-.417.369-.418.368-.437.345c-.293.228-.578.469-.887.675l-.912.642-.944.594a42.689,42.689,0,0,1-8.061,3.8c-.346.139-.7.249-1.054.366l-1.06.349c-.353.115-.708.236-1.06.345s-.7.223-1.048.344a16.371,16.371,0,0,0-2.017.843,8.944,8.944,0,0,0-1.793,1.18,5.7,5.7,0,0,0-1.32,1.622,6.488,6.488,0,0,0-.633,2c-.231,1.412-.144,2.908-.4,4.434a12.474,12.474,0,0,1-1.6,4.3,15.693,15.693,0,0,1-2.964,3.487,26.744,26.744,0,0,1-3.659,2.68c-1.279.8-2.6,1.51-3.924,2.192s-2.661,1.334-3.981,2-2.622,1.342-3.871,2.084c-.158.091-.312.186-.464.283l-.46.288-.448.3-.224.15-.217.157-.433.315c-.138.109-.279.213-.412.327-.273.221-.532.458-.788.7a42.615,42.615,0,0,0-2.887,3.274Z" transform="translate(-698.094 -514.234)" fill="#fff"/>
    <rect id="Rectángulo_22446" data-name="Rectángulo 22446" width="102.757" height="64.551" transform="translate(26.24 26.187)" fill="#caddf2"/>
    <g id="Grupo_79261" data-name="Grupo 79261" transform="translate(47.366 52.891)">
      <rect id="Rectángulo_22447" data-name="Rectángulo 22447" width="7.228" height="19.39" transform="translate(14.185 13.516)" fill="#fff"/>
      <rect id="Rectángulo_22448" data-name="Rectángulo 22448" width="7.228" height="11.861" transform="translate(1.311 21.045)" fill="#9ec489"/>
      <rect id="Rectángulo_22449" data-name="Rectángulo 22449" width="7.228" height="23.907" transform="translate(27.06 8.998)" fill="#9ec489"/>
      <g id="Grupo_79260" data-name="Grupo 79260" transform="translate(0 1.991)">
        <g id="Grupo_79259" data-name="Grupo 79259">
          <rect id="Rectángulo_22450" data-name="Rectángulo 22450" width="33.48" height="1.489" transform="translate(0 10.695) rotate(-18.63)" fill="#6999d1"/>
        </g>
      </g>
      <path id="Trazado_178042" data-name="Trazado 178042" d="M633.83,457.84l-.235-3.689-2.318-2.879,7.4.9Z" transform="translate(-602.406 -451.272)" fill="#6999d1"/>
    </g>
    <rect id="Rectángulo_22451" data-name="Rectángulo 22451" width="86.297" height="7.599" transform="translate(34.387 41.499)" fill="#9ec489"/>
    <g id="Grupo_79262" data-name="Grupo 79262" transform="translate(62.58 45.539)">
      <path id="Trazado_178043" data-name="Trazado 178043" d="M565.818,433.43a.378.378,0,0,1-.37-.456l3.557-16.847a.378.378,0,0,1,.739.156l-3.557,16.847A.378.378,0,0,1,565.818,433.43Z" transform="translate(-565.44 -415.828)" fill="#091d30"/>
    </g>
    <path id="Trazado_178044" data-name="Trazado 178044" d="M477.9,316.861H369.879a2.012,2.012,0,0,1-2.012-2.012h0a2.012,2.012,0,0,1,2.012-2.012H477.9a2.01,2.01,0,0,1,2.012,2.012h0A2.012,2.012,0,0,1,477.9,316.861Z" transform="translate(-346.269 -288.662)" fill="#1e3e61"/>
    <path id="Trazado_178045" data-name="Trazado 178045" d="M477.9,628.061H369.879a2.012,2.012,0,0,1-2.012-2.012h0a2.012,2.012,0,0,1,2.012-2.012H477.9a2.01,2.01,0,0,1,2.012,2.012h0A2.012,2.012,0,0,1,477.9,628.061Z" transform="translate(-346.269 -535.311)" fill="#1e3e61"/>
    <rect id="Rectángulo_22452" data-name="Rectángulo 22452" width="3.508" height="30.461" transform="translate(75.865 92.37)" fill="#102d4f"/>
    <path id="Trazado_178046" data-name="Trazado 178046" d="M585.354,791.469H552.16a1.509,1.509,0,0,1-1.509-1.509h0a1.509,1.509,0,0,1,1.509-1.509h33.195a1.509,1.509,0,0,1,1.509,1.509h0a1.509,1.509,0,0,1-1.509,1.509Z" transform="translate(-491.139 -665.62)" fill="#091d30"/>
    <path id="Trazado_178047" data-name="Trazado 178047" d="M469.108,776.642a3.834,3.834,0,0,0,2.489,2.2c1.783.4,2.492,1.217,2.546,2.387l-7.817-.067a10.146,10.146,0,0,1,.037-4.382C466.867,773.847,469.108,776.642,469.108,776.642Z" transform="translate(-424.149 -655.307)" fill="#0f1e33"/>
    <path id="Trazado_178048" data-name="Trazado 178048" d="M395.846,768.841a3.833,3.833,0,0,0,1.276,3.065c1.429,1.139,1.708,2.185,1.244,3.261l-7-3.481a10.146,10.146,0,0,1,1.951-3.923C395.054,765.347,395.846,768.841,395.846,768.841Z" transform="translate(-364.894 -648.548)" fill="#0f1e33"/>
    <path id="Trazado_178049" data-name="Trazado 178049" d="M559.686,495.631s-.293-3.742,1.592-3.675,2.11,4.093-.1,4.556S559.686,495.631,559.686,495.631Z" transform="translate(-498.212 -430.625)" fill="#fa9c66"/>
    <path id="Trazado_178050" data-name="Trazado 178050" d="M464.041,576.036a46.344,46.344,0,0,1-.428,6.771c-.015.058-1.966,20.811-1.966,20.811s-1.664,1.45-5.12.141l.325-18.347.043-2.436.04-2.185-.4-3.234-.972-7.939-.44-3.6-.554-4.521.32-.43,3.831-5.145.325-.436,2,1.412,2.915,2.061s.007.368.02,1.009c.005.264.01.576.018.926.025,1.475.058,3.665.076,6.1,0,.322,0,.647,0,.977,0,.206,0,.418,0,.627C464.092,571.08,464.084,573.7,464.041,576.036Z" transform="translate(-414.989 -480.979)" fill="#0c2855"/>
    <path id="Trazado_178051" data-name="Trazado 178051" d="M465.605,612.751c0,.418,0,.826-.008,1.221a22.543,22.543,0,0,1-.289,3.4,6.724,6.724,0,0,0-.118,1.435c-.961,3.162-2.3,6.841-4.5,9.552l.04-2.185-.4-3.234L459.365,615Z" transform="translate(-418.788 -526.365)" fill="#093565" opacity="0.5" style="mix-blend-mode: multiply;isolation: isolate"/>
    <path id="Trazado_178052" data-name="Trazado 178052" d="M413.567,564.292s-.775,2.771-1.837,6.391c-1.047,3.562-4.85,15.072-4.949,15.306-.181.433-8.415,20.358-8.415,20.358a4.83,4.83,0,0,1-4.941-1.354l4.674-14.448.088-.272,1.286-3.977,1.022-3.159.035-.2.184-1.052,1.02-5.819.37-2.12.352-2.013.564-3.227.826-4.717,2.94-2.172,1.946-1.435,1.145-.843.043.055,1.81,2.331Z" transform="translate(-366.526 -484.191)" fill="#0b3779"/>
    <path id="Trazado_178053" data-name="Trazado 178053" d="M500.823,508.386s-3.081,10.9-7.284,11.976a4.15,4.15,0,0,1-1.669.05c-2.072-.312-4.445-1.827-6.31-3.275a35.528,35.528,0,0,1-3.247-2.847L485.2,508.1l7.106,6.781,5.978-7.508A2.459,2.459,0,0,1,500.823,508.386Z" transform="translate(-436.975 -442.806)" fill="#093565"/>
    <path id="Trazado_178054" data-name="Trazado 178054" d="M500.612,527.338c-2.072-.312-4.445-1.827-6.31-3.275-.584-.956-.959-1.616-.959-1.616l1.581-6.386A21.269,21.269,0,0,1,500.612,527.338Z" transform="translate(-445.718 -449.731)" fill="#093565" style="mix-blend-mode: multiply;isolation: isolate"/>
    <path id="Trazado_178055" data-name="Trazado 178055" d="M460.258,522.008a18.321,18.321,0,0,1-2.683,1.093c-.34.116-.715.234-1.118.352a9.524,9.524,0,0,1-1.16.257,11.963,11.963,0,0,1-3.826-.048l-2.721-1.983-.126-.536-2.255-9.588,1.85-12.148,1.168-.541,3.431.217.086.071,2.316,1.87,3.252,16.583Z" transform="translate(-408.488 -436.103)" fill="#fff"/>
    <path id="Trazado_178056" data-name="Trazado 178056" d="M461.51,481.9c-1.576,1.128-4.028-.051-4.028-.051l.273-4.387,3.188-1.153.054.54.453,4.479Z" transform="translate(-417.295 -418.223)" fill="#fa9c66"/>
    <path id="Trazado_178057" data-name="Trazado 178057" d="M481.547,524.824c0,.813.005,1.644.005,2.474,0,.8-.005,1.6-.013,2.381h-2.681a.167.167,0,0,1,0-.035,6.725,6.725,0,0,1,.118-1.435c.05-.287.1-.591.131-.911.088-.748.138-1.586.159-2.492.008-.4.01-.8.008-1.221a101,101,0,0,0-.76-10.466c-.788-6.743-1.9-12.817-1.9-12.817l.262-.053,2.316,1.87,3.252,16.583,1.787,4.4a18.321,18.321,0,0,1-2.683,1.093C481.545,524.4,481.547,524.615,481.547,524.824Z" transform="translate(-432.455 -437.2)" fill="#093565" opacity="0.6" style="mix-blend-mode: multiply;isolation: isolate"/>
    <path id="Trazado_178058" data-name="Trazado 178058" d="M441.257,621.4s-2.3,3-7.775,1.918l.37-2.119.352-2.014c2.17-.061,4.047-.005,4.047-.005Z" transform="translate(-398.274 -531.441)" fill="#093565" opacity="0.6" style="mix-blend-mode: multiply;isolation: isolate"/>
    <path id="Trazado_178059" data-name="Trazado 178059" d="M480.911,526.836s-.886-18.729-3.771-26.713l.549.2A10.106,10.106,0,0,1,484,507.132a80.573,80.573,0,0,1,2.239,19.078A20.8,20.8,0,0,1,480.911,526.836Z" transform="translate(-432.876 -437.099)" fill="#003369"/>
    <path id="Trazado_178060" data-name="Trazado 178060" d="M523.144,592.772s3.848-.891,3.733,1.31c-.159,3.038-4,.834-4,.834Z" transform="translate(-469.128 -510.389)" fill="#fa9c66"/>
    <path id="Trazado_178061" data-name="Trazado 178061" d="M434.991,528.331a29.678,29.678,0,0,1-6.149-.04c-.473-.05-.894-.106-1.256-.161-.881-.131-1.4-.252-1.4-.252a40.484,40.484,0,0,1-.609-7.44,113.476,113.476,0,0,1,.717-12.356c.04-.388.08-.753.121-1.092a5.073,5.073,0,0,1,2.739-3.939l2.585-1.319a81.484,81.484,0,0,1,2.474,12.835c.154,1.3.277,2.555.378,3.743.153,1.845.252,3.529.309,4.969C435.031,526.37,434.991,528.331,434.991,528.331Z" transform="translate(-392.007 -438.373)" fill="#093268"/>
    <path id="Trazado_178062" data-name="Trazado 178062" d="M445.93,547.705a85.29,85.29,0,0,1-11.03-.163,14.954,14.954,0,0,1-5.011-1.15,3.788,3.788,0,0,1-1.387-1.44c-1.437,3.436-.823,5.908.34,7.6-.473-.05-.894-.106-1.256-.161-.881-.131-1.4-.252-1.4-.252a40.483,40.483,0,0,1-.609-7.44,113.476,113.476,0,0,1,.717-12.356l4.6.979,2.457,8.837,1.244.41,9.477,3.131Z" transform="translate(-392.007 -462.638)" fill="#093565" style="mix-blend-mode: multiply;isolation: isolate"/>
    <path id="Trazado_178063" data-name="Trazado 178063" d="M434.721,519.3l3.606,11.4,11.4,3.7a3.683,3.683,0,0,1-.6,3.02s-12.634-1.532-14.333-2.637c-2.027-1.319-5.747-8.285-5.768-12.779Z" transform="translate(-394.746 -452.301)" fill="#093565"/>
    <path id="Trazado_178064" data-name="Trazado 178064" d="M463.328,483.389c-2.546.291-3.477-3.078-3.477-3.078l3.024-1.4Z" transform="translate(-419.173 -420.286)" fill="#fa9c66" style="mix-blend-mode: multiply;isolation: isolate"/>
    <path id="Trazado_178065" data-name="Trazado 178065" d="M459.388,455.772c-.559,1.706-4.862,2.859-6.039-1.62s1.849-5.516,1.849-5.516l3.4.473s.03.111.081.308c.13.508.389,1.585.586,2.743A9.234,9.234,0,0,1,459.388,455.772Z" transform="translate(-413.805 -396.293)" fill="#fa9c66"/>
    <path id="Trazado_178066" data-name="Trazado 178066" d="M461.437,454.027a6.445,6.445,0,0,1-3.958-.5s.286,1.552-.6,1.749-1.061-3.326-1.061-3.326,3.161-.956,3.207-.956c.022,0,.942.148,1.828.291C460.981,451.792,461.24,452.869,461.437,454.027Z" transform="translate(-415.975 -398.16)" fill="#fa9c66" style="mix-blend-mode: multiply;isolation: isolate"/>
    <path id="Trazado_178067" data-name="Trazado 178067" d="M449.541,440.524s6.144,2.024,5.433-2.437-5.362-2.333-6.131-.778-2-.975-2.365,1.393.5,5.742,2.658,5.953A6.72,6.72,0,0,0,449.541,440.524Z" transform="translate(-408.51 -385.813)" fill="#07284c"/>
    <circle id="Elipse_4675" data-name="Elipse 4675" cx="1.095" cy="1.095" r="1.095" transform="translate(39.359 57.927) rotate(-76.619)" fill="#fa9c66"/>
    <g id="Grupo_79263" data-name="Grupo 79263" transform="translate(39.979 67.83)">
      <path id="Trazado_178068" data-name="Trazado 178068" d="M468.716,537.048a.381.381,0,0,1-.117-.018l-8.819-2.863L456.5,523.786a.378.378,0,1,1,.72-.228l3.166,10.011,8.449,2.743a.378.378,0,0,1-.117.737Z" transform="translate(-456.48 -523.294)" fill="#97bde4"/>
    </g>
    <g id="Grupo_79264" data-name="Grupo 79264" transform="translate(50.882 65.193)">
      <path id="Trazado_178069" data-name="Trazado 178069" d="M513.531,518.022l-4.369-4.169a.377.377,0,1,1,.521-.546l3.771,3.6,4.922-6.183a.378.378,0,0,1,.591.47Z" transform="translate(-509.046 -510.58)" fill="#97bde4"/>
    </g>
    <g id="Grupo_79265" data-name="Grupo 79265" transform="translate(34.328 90.287)">
      <path id="Trazado_178070" data-name="Trazado 178070" d="M429.473,656.841h0a.377.377,0,0,1-.2-.493l5.273-12.757c1.533-3.707,3.887-11.683,3.911-11.763a.378.378,0,0,1,.724.213c-.024.081-2.39,8.1-3.937,11.839l-5.273,12.756a.378.378,0,0,1-.493.2Z" transform="translate(-429.24 -631.557)" fill="#97bde4"/>
    </g>
    <g id="Grupo_79266" data-name="Grupo 79266" transform="translate(46.775 92.243)">
      <path id="Trazado_178071" data-name="Trazado 178071" d="M489.582,667.9h0a.378.378,0,0,1-.336-.415l1.455-13.727c.423-3.989.429-12.305.429-12.389a.378.378,0,0,1,.755,0c0,.084-.006,8.441-.433,12.469L490,667.56a.378.378,0,0,1-.415.336Z" transform="translate(-489.244 -640.987)" fill="#97bde4"/>
    </g>
    <g id="Grupo_79267" data-name="Grupo 79267" transform="translate(76.724 110.793)">
      <rect id="Rectángulo_22453" data-name="Rectángulo 22453" width="44.373" height="14.837" fill="#9ec489"/>
      <rect id="Rectángulo_22454" data-name="Rectángulo 22454" width="6.101" height="14.837" fill="#9ec489" style="mix-blend-mode: multiply;isolation: isolate"/>
      <rect id="Rectángulo_22455" data-name="Rectángulo 22455" width="38.272" height="1.525" transform="translate(6.101 2.496)" fill="#d2e6c2"/>
      <rect id="Rectángulo_22456" data-name="Rectángulo 22456" width="38.272" height="1.525" transform="translate(6.101 7.008)" fill="#d2e6c2"/>
      <rect id="Rectángulo_22457" data-name="Rectángulo 22457" width="38.272" height="1.525" transform="translate(6.101 11.521)" fill="#d2e6c2"/>
      <rect id="Rectángulo_22458" data-name="Rectángulo 22458" width="8.667" height="14.837" transform="translate(21.956)" fill="#fbc16a"/>
    </g>
    <g id="Grupo_79271" data-name="Grupo 79271" transform="translate(121.613 106.471)">
      <g id="Grupo_79270" data-name="Grupo 79270">
        <g id="Grupo_79269" data-name="Grupo 79269" transform="translate(0.001)">
          <g id="Grupo_79268" data-name="Grupo 79268">
            <rect id="Rectángulo_22459" data-name="Rectángulo 22459" width="20.444" height="1.602" transform="translate(2.4)" fill="#fcae32"/>
            <rect id="Rectángulo_22460" data-name="Rectángulo 22460" width="20.442" height="1.602" transform="translate(0 3.204)" fill="#fcae32"/>
            <rect id="Rectángulo_22461" data-name="Rectángulo 22461" width="20.442" height="1.602" transform="translate(1.895 1.602)" fill="#fcae32"/>
            <rect id="Rectángulo_22462" data-name="Rectángulo 22462" width="20.443" height="1.6" transform="translate(2.907 4.806)" fill="#fcae32"/>
            <rect id="Rectángulo_22463" data-name="Rectángulo 22463" width="20.442" height="1.602" transform="translate(0.716 11.212)" fill="#fcae32"/>
            <rect id="Rectángulo_22464" data-name="Rectángulo 22464" width="20.444" height="1.602" transform="translate(2.4 6.406)" fill="#fcae32"/>
            <rect id="Rectángulo_22465" data-name="Rectángulo 22465" width="20.443" height="1.602" transform="translate(2.907 12.814)" fill="#fcae32"/>
            <rect id="Rectángulo_22466" data-name="Rectángulo 22466" width="20.442" height="1.6" transform="translate(2.571 17.619)" fill="#fcae32"/>
            <rect id="Rectángulo_22467" data-name="Rectángulo 22467" width="20.444" height="1.602" transform="translate(2.4 14.416)" fill="#fcae32"/>
            <rect id="Rectángulo_22468" data-name="Rectángulo 22468" width="20.442" height="1.6" transform="translate(3.286 9.612)" fill="#fcae32"/>
            <rect id="Rectángulo_22469" data-name="Rectángulo 22469" width="20.445" height="1.602" transform="translate(0.967 16.018)" fill="#fcae32"/>
            <rect id="Rectángulo_22470" data-name="Rectángulo 22470" width="20.442" height="1.604" transform="translate(1.895 8.008)" fill="#fcae32"/>
          </g>
        </g>
        <path id="Trazado_178072" data-name="Trazado 178072" d="M860.123,720.794v1.6h2.192V724h-.506v1.6h-1.431v1.6h1.6v1.6H852.6v-1.6H851v-1.6h1.434V724h.506v-1.6h-2.192v-1.6h2.571v-1.6h-1.392v-1.6h.506v-1.6h.506v-1.6h-2.908v-1.6h1.9v-1.6h.506v-1.6h9.374v1.6H861.3v1.6h-1.9v1.6h2.908v1.6h-.506v1.6H861.3v1.6h1.392v1.6Z" transform="translate(-850.033 -709.582)" fill="#fcae32" opacity="0.5" style="mix-blend-mode: multiply;isolation: isolate"/>
        <path id="Trazado_178073" data-name="Trazado 178073" d="M937.9,720.793v1.6h2.193V724h-.506v1.6h-1.431v1.6h1.6v1.6h-2.983v-1.6h-1.6v-1.6H936.6V724h.506v-1.6h-2.191v-1.6h2.571v-1.6H936.1v-1.6h.5v-1.6h.506v-1.6H934.2v-1.6h1.9v-1.6h.5v-1.6h2.985v1.6h-.506v1.6h-1.9v1.6h2.908v1.6h-.506v1.6h-.506v1.6h1.391v1.6Z" transform="translate(-916.743 -709.581)" fill="#fcae32" style="mix-blend-mode: screen;isolation: isolate"/>
      </g>
    </g>
    <g id="Grupo_79279" data-name="Grupo 79279" transform="translate(56.823 105.184)">
      <g id="Grupo_79278" data-name="Grupo 79278">
        <g id="Grupo_79277" data-name="Grupo 79277">
          <g id="Grupo_79272" data-name="Grupo 79272">
            <path id="Trazado_178074" data-name="Trazado 178074" d="M558.328,713.7a10.337,10.337,0,1,1-4.011-8.16c.182.139.357.284.528.437A10.292,10.292,0,0,1,558.328,713.7Z" transform="translate(-537.683 -703.374)" fill="#fcae32"/>
          </g>
          <g id="Grupo_79274" data-name="Grupo 79274" transform="translate(0.901 0.899)">
            <g id="Grupo_79273" data-name="Grupo 79273">
              <path id="Trazado_178075" data-name="Trazado 178075" d="M560.17,713.557a9.256,9.256,0,0,0-.755-1.457,9.419,9.419,0,1,0-13.882,12.356,8.5,8.5,0,0,0,.889.639,9.4,9.4,0,0,0,10.952-.639,9.482,9.482,0,0,0,2.8-3.751,9.415,9.415,0,0,0,0-7.148Zm-3.6,10.9a8.925,8.925,0,0,1-8.2,1.067A8.941,8.941,0,1,1,560.17,715.15a8.966,8.966,0,0,1,0,3.962A8.96,8.96,0,0,1,556.568,724.456Z" transform="translate(-542.029 -707.707)" fill="#d98a1b"/>
            </g>
          </g>
          <g id="Grupo_79276" data-name="Grupo 79276" transform="translate(6.414 4.005)">
            <g id="Grupo_79275" data-name="Grupo 79275">
              <path id="Trazado_178076" data-name="Trazado 178076" d="M573.293,728.206V725.92a5.506,5.506,0,0,1,2.056.7l.67-1.654a6.1,6.1,0,0,0-2.726-.821v-1.465h-1.344v1.493c-2.125.242-3.159,1.465-3.159,2.889,0,1.921,1.666,2.419,3.159,2.781v2.245a5.462,5.462,0,0,1-2.608-.954l-.737,1.639a6.348,6.348,0,0,0,3.345,1.075v1.465h1.344v-1.505c2.109-.254,3.131-1.465,3.131-2.862C576.424,729.052,574.784,728.556,573.293,728.206Zm-1.344-.337c-.592-.186-.994-.443-.994-.914,0-.443.282-.833.994-.994Zm1.344,4.166v-1.855c.579.2.967.458.967.929C574.26,731.539,573.965,731.889,573.293,732.035Z" transform="translate(-568.604 -722.681)" fill="#fff"/>
            </g>
          </g>
        </g>
      </g>
      <path id="Trazado_178077" data-name="Trazado 178077" d="M566.574,721.955a10.32,10.32,0,0,1-18.487,6.309c.151.115.3.229.461.336a10.317,10.317,0,0,0,14.015-14.805c.182.139.357.284.528.437A10.292,10.292,0,0,1,566.574,721.955Z" transform="translate(-545.929 -711.633)" fill="#fcae32" opacity="0.6" style="mix-blend-mode: multiply;isolation: isolate"/>
    </g>
    <g id="Grupo_79284" data-name="Grupo 79284" transform="translate(0 36.926)">
      <g id="Grupo_79283" data-name="Grupo 79283">
        <g id="Grupo_79282" data-name="Grupo 79282">
          <path id="Trazado_178078" data-name="Trazado 178078" d="M287.992,386.429a12.142,12.142,0,1,1-4.711-9.584c.214.164.419.334.62.513A12.087,12.087,0,0,1,287.992,386.429Z" transform="translate(-263.744 -374.306)" fill="#9ec489"/>
          <g id="Grupo_79280" data-name="Grupo 79280" transform="translate(1.057 1.057)">
            <path id="Trazado_178079" data-name="Trazado 178079" d="M289.26,384.558a11.063,11.063,0,1,0,1.714,5.91A11.067,11.067,0,0,0,289.26,384.558Zm-9.354,16.409a10.5,10.5,0,1,1,10.5-10.5A10.443,10.443,0,0,1,279.907,400.967Z" transform="translate(-268.839 -379.401)" fill="#61854e"/>
          </g>
          <g id="Grupo_79281" data-name="Grupo 79281" transform="translate(6.411 5.862)">
            <path id="Trazado_178080" data-name="Trazado 178080" d="M305.008,412.174c1.541-1.963,1.382-3.816.224-4.974-1.576-1.576-3.35-.627-4.878.322l-1.9-1.9a6.423,6.423,0,0,1,2.288-1.125l-.816-1.933a7.144,7.144,0,0,0-2.945,1.586l-1.218-1.218-1.115,1.118,1.241,1.238c-1.566,1.966-1.407,3.839-.224,5.022,1.6,1.6,3.391.627,4.933-.312l1.863,1.865a6.4,6.4,0,0,1-2.957,1.372l.748,1.976a7.466,7.466,0,0,0,3.672-1.888l1.216,1.218,1.115-1.117Zm-7.634-3.748c-.368-.368-.458-.926,0-1.651l1.586,1.583C298.312,408.693,297.763,408.816,297.374,408.426Zm6.162,2.275-1.541-1.541c.647-.312,1.18-.423,1.571-.033C303.925,409.488,303.971,410.024,303.535,410.7Z" transform="translate(-294.65 -402.566)" fill="#fff"/>
          </g>
        </g>
      </g>
      <path id="Trazado_178081" data-name="Trazado 178081" d="M297.677,396.131a12.121,12.121,0,0,1-21.714,7.41c.177.135.358.269.542.4a12.118,12.118,0,0,0,16.461-17.389c.214.164.419.334.62.513A12.087,12.087,0,0,1,297.677,396.131Z" transform="translate(-273.428 -384.008)" fill="#9ec489" opacity="0.87" style="mix-blend-mode: multiply;isolation: isolate"/>
    </g>
    <g id="Grupo_79291" data-name="Grupo 79291" transform="translate(0.44 90.739)">
      <g id="Grupo_79286" data-name="Grupo 79286" transform="translate(11.748 15.039)">
        <g id="Grupo_79285" data-name="Grupo 79285">
          <path id="Trazado_178082" data-name="Trazado 178082" d="M322.936,718.318l-.433-.038a25.708,25.708,0,0,1,2.4-9.023,14.183,14.183,0,0,1,1.887-3.017l.324.29-.162-.145.162.145a14.105,14.105,0,0,0-1.829,2.936A25.29,25.29,0,0,0,322.936,718.318Z" transform="translate(-322.503 -706.24)" fill="#538544"/>
        </g>
      </g>
      <g id="Grupo_79288" data-name="Grupo 79288" transform="translate(11.11 11.974)">
        <g id="Grupo_79287" data-name="Grupo 79287">
          <path id="Trazado_178083" data-name="Trazado 178083" d="M319.747,704.144l.424.1a25.706,25.706,0,0,0,.511-9.323,14.207,14.207,0,0,0-.858-3.453l-.4.176.2-.088-.2.088a14.114,14.114,0,0,1,.829,3.359A25.289,25.289,0,0,1,319.747,704.144Z" transform="translate(-319.426 -691.465)" fill="#538544"/>
        </g>
      </g>
      <g id="Grupo_79290" data-name="Grupo 79290" transform="translate(8 17.23)">
        <g id="Grupo_79289" data-name="Grupo 79289">
          <path id="Trazado_178084" data-name="Trazado 178084" d="M307.856,726.691l.355-.031a21.042,21.042,0,0,0-1.968-7.386A11.6,11.6,0,0,0,304.7,716.8l-.265.237.133-.119-.133.119a11.55,11.55,0,0,1,1.5,2.4A20.7,20.7,0,0,1,307.856,726.691Z" transform="translate(-304.433 -716.804)" fill="#538544"/>
        </g>
      </g>
      <path id="Trazado_178085" data-name="Trazado 178085" d="M308.149,755.443l-.76,8.47-.111,1.233H298.8l-.783-8.729-.088-.974Z" transform="translate(-291.275 -730.198)" fill="#ef903c"/>
      <rect id="Rectángulo_22471" data-name="Rectángulo 22471" width="12.619" height="2.03" transform="translate(5.453 23.744)" fill="#fea454"/>
      <path id="Trazado_178086" data-name="Trazado 178086" d="M340.73,673.567l1.672.312a8.778,8.778,0,0,0,3.445-2.044l.028-.029-.685-.953,1.3.242a10.226,10.226,0,0,0,1.754-3.987l-1.13-.359,1.315-.644a14.423,14.423,0,0,0,.156-2.824,14.9,14.9,0,0,0-4.186.427l-.425,1.336-.518-1.059a8.766,8.766,0,0,0-3.424,2.037,7.4,7.4,0,0,0-.7.813l-.024,2-.73-.781a14.076,14.076,0,0,0-1.287,6.522,14.881,14.881,0,0,0,3.9-.359Z" transform="translate(-322.466 -657.141)" fill="#bfddb3"/>
      <path id="Trazado_178087" data-name="Trazado 178087" d="M292.58,646.193l-1.67-.326a8.778,8.778,0,0,1-2.451-3.168l-.016-.038.988-.634-1.3-.254a10.23,10.23,0,0,1-.164-4.352l1.183.082-.986-1.083a14.427,14.427,0,0,1,.894-2.683,14.9,14.9,0,0,1,3.735,1.937l-.1,1.4.872-.794A8.764,8.764,0,0,1,296,639.434a7.4,7.4,0,0,1,.352,1.013l-.714,1.869.966-.458a14.075,14.075,0,0,1-1.2,6.538,14.882,14.882,0,0,1-3.5-1.77Z" transform="translate(-283.259 -633.737)" fill="#a0c689"/>
      <path id="Trazado_178088" data-name="Trazado 178088" d="M272.309,690.058l-1.369.255a7.184,7.184,0,0,1-2.82-1.673l-.023-.024.561-.78-1.066.2a8.372,8.372,0,0,1-1.436-3.263l.925-.294L266,683.95a11.819,11.819,0,0,1-.128-2.312,12.2,12.2,0,0,1,3.427.35l.348,1.094.424-.867a7.175,7.175,0,0,1,2.8,1.668,6.065,6.065,0,0,1,.573.665l.02,1.637.6-.639a11.519,11.519,0,0,1,1.054,5.339,12.186,12.186,0,0,1-3.2-.294Z" transform="translate(-265.865 -671.693)" fill="#72a566"/>
      <path id="Trazado_178089" data-name="Trazado 178089" d="M307.726,767.636l-.111,1.233h-8.483l-.783-8.729C298.737,761.836,300.613,767.807,307.726,767.636Z" transform="translate(-291.612 -733.921)" fill="#ef903c" opacity="0.6" style="mix-blend-mode: multiply;isolation: isolate"/>
    </g>
    <rect id="Rectángulo_22472" data-name="Rectángulo 22472" width="86.548" height="5.275" transform="translate(34.261 31.849)" fill="#9ec489"/>
    <path id="Trazado_178090" data-name="Trazado 178090" d="M707.925,484.19l7.488,3.133a5.907,5.907,0,0,1,4.414-3.156v-8.14A14.012,14.012,0,0,0,707.925,484.19Z" transform="translate(-615.79 -418.001)" fill="#a0cd8a"/>
    <path id="Trazado_178091" data-name="Trazado 178091" d="M750.522,548.237a5.907,5.907,0,0,1-7.8,4.574l-4.481,6.868a14.016,14.016,0,0,0,20.429-11.443Z" transform="translate(-639.82 -475.233)" fill="#a0cd8a"/>
    <path id="Trazado_178092" data-name="Trazado 178092" d="M710.013,528.2a6.074,6.074,0,0,1-.083-.992,5.93,5.93,0,0,1,.04-.693c.017-.133.037-.266.063-.4l-7.547-3.16a14.016,14.016,0,0,0,5.45,15.821l4.431-6.789A5.914,5.914,0,0,1,710.013,528.2Z" transform="translate(-610.956 -455.197)" fill="#6999d1"/>
    <path id="Trazado_178093" data-name="Trazado 178093" d="M791.309,471.459h-17.9V453.491A18.728,18.728,0,0,1,791.309,471.459Z" transform="translate(-667.692 -400.14)" fill="#6999d1"/>
    <path id="Trazado_178094" data-name="Trazado 178094" d="M487.564,207.819a10.348,10.348,0,0,0-2.175-5.241l1.686-1.686-1.737-1.734-1.684,1.684a10.388,10.388,0,0,0-5.243-2.175v-2.379h-2.454v2.379a10.378,10.378,0,0,0-5.24,2.175l-1.684-1.684-1.737,1.734,1.686,1.686a10.348,10.348,0,0,0-2.175,5.241h-2.381v2.454h2.381a10.365,10.365,0,0,0,2.175,5.243L467.3,217.2l1.737,1.734,1.684-1.684a10.356,10.356,0,0,0,5.24,2.175v2.381h2.454v-2.381a10.366,10.366,0,0,0,5.243-2.175l1.684,1.684,1.737-1.734-1.686-1.684a10.364,10.364,0,0,0,2.175-5.243h2.381v-2.454Zm-2.814,2.454a7.638,7.638,0,0,1-7.564,6.436,7.545,7.545,0,0,1-4.478-1.45,7.7,7.7,0,0,1-3.086-4.986,7.919,7.919,0,0,1,0-2.454,7.665,7.665,0,0,1,15.128,0,7.919,7.919,0,0,1,0,2.454Z" transform="translate(-422.8 -196.288)" fill="#6999d1"/>
    <path id="Trazado_178095" data-name="Trazado 178095" d="M498.947,322.536v64.551h-101.2C410.049,386.958,491.38,383.8,498.947,322.536Z" transform="translate(-369.949 -296.349)" fill="#caddf2" style="mix-blend-mode: multiply;isolation: isolate"/>
    <g id="Grupo_79293" data-name="Grupo 79293" transform="translate(96.766 6.313)">
      <g id="Grupo_79292" data-name="Grupo 79292">
        <rect id="Rectángulo_22473" data-name="Rectángulo 22473" width="42.498" height="23.751" transform="translate(1.47 1.91)" fill="#6999d1"/>
        <rect id="Rectángulo_22474" data-name="Rectángulo 22474" width="3.666" height="16.152" transform="translate(4.013 7.198)" fill="#fff"/>
        <rect id="Rectángulo_22475" data-name="Rectángulo 22475" width="3.666" height="9.565" transform="translate(10.79 13.785)" fill="#fff"/>
        <rect id="Rectángulo_22476" data-name="Rectángulo 22476" width="3.666" height="13.785" transform="translate(17.568 9.565)" fill="#fff"/>
        <rect id="Rectángulo_22477" data-name="Rectángulo 22477" width="3.666" height="7.293" transform="translate(24.346 16.057)" fill="#fff"/>
        <rect id="Rectángulo_22478" data-name="Rectángulo 22478" width="3.666" height="5.422" transform="translate(37.901 17.928)" fill="#fff"/>
        <rect id="Rectángulo_22479" data-name="Rectángulo 22479" width="3.666" height="12.715" transform="translate(31.124 10.634)" fill="#fff"/>
        <path id="Trazado_178096" data-name="Trazado 178096" d="M773.779,230.543H732.157a1.909,1.909,0,0,1-1.909-1.909h0a1.909,1.909,0,0,1,1.909-1.909h41.621a1.909,1.909,0,0,1,1.909,1.909h0A1.909,1.909,0,0,1,773.779,230.543Z" transform="translate(-730.248 -226.724)" fill="#9ec489"/>
      </g>
      <path id="Trazado_178097" data-name="Trazado 178097" d="M779.834,235.931v23.751h-42.5C771.269,258.076,779.834,235.931,779.834,235.931Z" transform="translate(-735.866 -234.021)" fill="#6999d1" opacity="0.6" style="mix-blend-mode: multiply;isolation: isolate"/>
    </g>
  </g>
</svg>
