<svg id="Grupo_79258" data-name="Grupo 79258" xmlns="http://www.w3.org/2000/svg" width="213.166" height="128.19" viewBox="0 0 213.166 128.19">
  <path id="Trazado_177958" data-name="Trazado 177958" d="M1344.865,410.547c-.217.441-.438.874-.66,1.3H1164.149c-.333-.434-.657-.868-.979-1.3-9.6-12.985-14.794-26.285-10.284-33.9,10.3-17.383,60.865,12.316,95.236-14.06,23.125-17.743,16.207-43.442,35.375-49.886,22.112-7.432,59.025,17.457,67.573,50.794C1355.761,381.8,1350.846,398.515,1344.865,410.547Z" transform="translate(-1151.24 -283.659)" fill="#030504" opacity="0.08"/>
  <path id="Trazado_177959" data-name="Trazado 177959" d="M1311.868,665.167c.652.861,3.958-1.646,4.96-4.174s3.459-4.344,3.707-5.338-.659-1.4-.157-3.124.59-4.92-1.084-5.239-1.315,4.926-4.94,6.347S1309.234,661.687,1311.868,665.167Z" transform="translate(-1279.454 -554.016)" fill="#a0c689"/>
  <path id="Trazado_177960" data-name="Trazado 177960" d="M1309.322,682.166a34.346,34.346,0,0,1,.171-3.491l.046-.434c.015-.145.029-.29.051-.434l.12-.865.145-.861.037-.215.043-.214.087-.428.087-.427.1-.425.1-.424.051-.212.057-.21.229-.841.256-.834a31.281,31.281,0,0,1,1.252-3.252,26.913,26.913,0,0,1,1.646-3.067c.61-.986,1.266-1.937,1.881-2.912a19.39,19.39,0,0,0,1.621-3.047,10.783,10.783,0,0,0,.763-3.359,10.823,10.823,0,0,1-.69,3.387,19.54,19.54,0,0,1-1.56,3.1c-.6.993-1.23,1.959-1.814,2.952a26.568,26.568,0,0,0-1.56,3.072,30.869,30.869,0,0,0-1.164,3.241l-.234.828-.208.835-.052.209-.046.211-.09.421-.089.421-.076.423-.076.423-.037.212-.031.213-.124.851-.1.854c-.018.142-.028.285-.041.428l-.036.428a33.8,33.8,0,0,0-.09,3.432Z" transform="translate(-1278.478 -561.206)" fill="#447d40"/>
  <path id="Trazado_177961" data-name="Trazado 177961" d="M1309.322,682.166a34.346,34.346,0,0,1,.171-3.491l.046-.434c.015-.145.029-.29.051-.434l.12-.865.145-.861.037-.215.043-.214.087-.428.087-.427.1-.425.1-.424.051-.212.057-.21.229-.841.256-.834a31.281,31.281,0,0,1,1.252-3.252,26.913,26.913,0,0,1,1.646-3.067c.61-.986,1.266-1.937,1.881-2.912a19.39,19.39,0,0,0,1.621-3.047,10.783,10.783,0,0,0,.763-3.359,10.823,10.823,0,0,1-.69,3.387,19.54,19.54,0,0,1-1.56,3.1c-.6.993-1.23,1.959-1.814,2.952a26.568,26.568,0,0,0-1.56,3.072,30.869,30.869,0,0,0-1.164,3.241l-.234.828-.208.835-.052.209-.046.211-.09.421-.089.421-.076.423-.076.423-.037.212-.031.213-.124.851-.1.854c-.018.142-.028.285-.041.428l-.036.428a33.8,33.8,0,0,0-.09,3.432Z" transform="translate(-1278.478 -561.206)" fill="#538544"/>
  <path id="Trazado_177962" data-name="Trazado 177962" d="M1230.6,675.649c-.383,1.01-4.261-.466-5.934-2.609s-4.542-3.195-5.059-4.079.239-1.527-.729-3.042-1.951-4.555-.434-5.332,2.648,4.357,6.526,4.7S1232.147,671.568,1230.6,675.649Z" transform="translate(-1204.699 -564.663)" fill="#a0c689"/>
  <path id="Trazado_177963" data-name="Trazado 177963" d="M1241.112,691.5a34.281,34.281,0,0,0-1.147-3.3l-.166-.4c-.056-.134-.11-.27-.171-.4l-.358-.8-.382-.785-.1-.2-.1-.193-.2-.386-.2-.386-.216-.379-.216-.379-.109-.189-.114-.186-.457-.743-.48-.728a31.364,31.364,0,0,0-2.116-2.768,26.958,26.958,0,0,0-2.443-2.48c-.863-.774-1.76-1.5-2.625-2.265a19.441,19.441,0,0,1-2.413-2.468,10.784,10.784,0,0,1-1.677-3.008,10.833,10.833,0,0,0,1.615,3.056,19.561,19.561,0,0,0,2.37,2.536c.85.785,1.732,1.534,2.572,2.322a26.632,26.632,0,0,1,2.362,2.509,30.939,30.939,0,0,1,2.029,2.782l.458.729.434.743.109.186.1.189.2.379.2.379.192.385.192.385.1.193.09.2.359.782.335.792c.057.131.108.266.159.4l.155.4a33.746,33.746,0,0,1,1.053,3.268Z" transform="translate(-1210.945 -571.544)" fill="#447d40"/>
  <path id="Trazado_177964" data-name="Trazado 177964" d="M1241.112,691.5a34.281,34.281,0,0,0-1.147-3.3l-.166-.4c-.056-.134-.11-.27-.171-.4l-.358-.8-.382-.785-.1-.2-.1-.193-.2-.386-.2-.386-.216-.379-.216-.379-.109-.189-.114-.186-.457-.743-.48-.728a31.364,31.364,0,0,0-2.116-2.768,26.958,26.958,0,0,0-2.443-2.48c-.863-.774-1.76-1.5-2.625-2.265a19.441,19.441,0,0,1-2.413-2.468,10.784,10.784,0,0,1-1.677-3.008,10.833,10.833,0,0,0,1.615,3.056,19.561,19.561,0,0,0,2.37,2.536c.85.785,1.732,1.534,2.572,2.322a26.632,26.632,0,0,1,2.362,2.509,30.939,30.939,0,0,1,2.029,2.782l.458.729.434.743.109.186.1.189.2.379.2.379.192.385.192.385.1.193.09.2.359.782.335.792c.057.131.108.266.159.4l.155.4a33.746,33.746,0,0,1,1.053,3.268Z" transform="translate(-1210.945 -571.544)" fill="#538544"/>
  <path id="Trazado_177965" data-name="Trazado 177965" d="M1273.935,653.862c-.751.777-3.731-2.111-4.422-4.74s-2.911-4.729-3.037-5.746.823-1.309.532-3.083.006-4.955,1.707-5.07.712,5.049,4.14,6.9S1276.968,650.724,1273.935,653.862Z" transform="translate(-1243.983 -544.311)" fill="#72a566"/>
  <path id="Trazado_177966" data-name="Trazado 177966" d="M1283.622,671a34.311,34.311,0,0,0,.25-3.487l.007-.437c0-.146.006-.291,0-.437l-.014-.873-.041-.872-.01-.218-.017-.218-.035-.435-.035-.435-.049-.434-.049-.433-.025-.217-.031-.216-.127-.863-.154-.858a31.217,31.217,0,0,0-.851-3.379,26.841,26.841,0,0,0-1.265-3.243c-.487-1.052-1.024-2.075-1.517-3.118a19.456,19.456,0,0,1-1.242-3.22,10.791,10.791,0,0,1-.353-3.426,10.825,10.825,0,0,0,.277,3.446,19.544,19.544,0,0,0,1.176,3.266c.471,1.057.985,2.093,1.445,3.149a26.579,26.579,0,0,1,1.179,3.238,30.906,30.906,0,0,1,.766,3.357l.133.851.106.854.026.214.02.214.038.429.038.428.025.43.025.429.012.215.005.215.021.86-.005.86c0,.143-.006.287-.011.43l-.016.43a33.874,33.874,0,0,1-.323,3.418Z" transform="translate(-1253.292 -551.526)" fill="#447d40"/>
  <path id="Trazado_177967" data-name="Trazado 177967" d="M1283.622,671a34.311,34.311,0,0,0,.25-3.487l.007-.437c0-.146.006-.291,0-.437l-.014-.873-.041-.872-.01-.218-.017-.218-.035-.435-.035-.435-.049-.434-.049-.433-.025-.217-.031-.216-.127-.863-.154-.858a31.217,31.217,0,0,0-.851-3.379,26.841,26.841,0,0,0-1.265-3.243c-.487-1.052-1.024-2.075-1.517-3.118a19.456,19.456,0,0,1-1.242-3.22,10.791,10.791,0,0,1-.353-3.426,10.825,10.825,0,0,0,.277,3.446,19.544,19.544,0,0,0,1.176,3.266c.471,1.057.985,2.093,1.445,3.149a26.579,26.579,0,0,1,1.179,3.238,30.906,30.906,0,0,1,.766,3.357l.133.851.106.854.026.214.02.214.038.429.038.428.025.43.025.429.012.215.005.215.021.86-.005.86c0,.143-.006.287-.011.43l-.016.43a33.874,33.874,0,0,1-.323,3.418Z" transform="translate(-1253.292 -551.526)" fill="#538544"/>
  <path id="Trazado_177968" data-name="Trazado 177968" d="M1285.8,383.035s-2.774-34.113-43.118-35.006C1242.687,348.029,1243.377,403.028,1285.8,383.035Z" transform="translate(-1224.845 -313.154)" fill="#6999d1"/>
  <path id="Trazado_177969" data-name="Trazado 177969" d="M1221.513,526.123s-7.764-31.675-51.2-21.027c1.213-.3,5.022,3.39,5.809,4.08,6.431,5.635,9.789,15.147,17.943,18.932C1203.031,532.271,1213.107,531.069,1221.513,526.123Z" transform="translate(-1166.588 -437.814)" fill="#caddf2"/>
  <path id="Trazado_177970" data-name="Trazado 177970" d="M1318.458,415.865l-1.869-2.62c-.316-.435-.615-.882-.944-1.307l-1.008-1.261-1.009-1.263-.5-.632-.253-.316-.268-.3-2.143-2.431a118.511,118.511,0,0,0-9.259-9.133q-4.881-4.324-10.142-8.23c-.883-.639-1.76-1.288-2.65-1.919s-1.784-1.258-2.694-1.861c-1.808-1.225-3.646-2.407-5.525-3.524,1.941,1.006,3.849,2.08,5.729,3.2.947.55,1.87,1.138,2.807,1.706s1.846,1.18,2.77,1.769q5.5,3.6,10.688,7.685a120.435,120.435,0,0,1,9.933,8.716l2.335,2.357.292.3.278.308.556.618,1.112,1.236,1.113,1.238c.365.418.7.861,1.054,1.291l2.094,2.6Z" transform="translate(-1255.03 -339.744)" fill="#fff"/>
  <path id="Trazado_177971" data-name="Trazado 177971" d="M1275.282,551.691l-2.512-2.163c-.84-.719-1.663-1.462-2.551-2.122l-2.621-2.042-.656-.51-.678-.48-1.358-.96a111.116,111.116,0,0,0-11.3-7.061,112.437,112.437,0,0,0-12.077-5.738,89.67,89.67,0,0,0-12.732-4.2,90.026,90.026,0,0,1,13,3.478,117.774,117.774,0,0,1,24.383,11.6l1.44.9.72.45.7.482,2.8,1.933c.947.626,1.832,1.336,2.735,2.023l2.7,2.073Z" transform="translate(-1213.663 -456.738)" fill="#fff"/>
  <path id="Trazado_177972" data-name="Trazado 177972" d="M1950.394,512.4s2.774-34.113,43.118-35.006C1993.512,477.4,1992.822,532.4,1950.394,512.4Z" transform="translate(-1794.468 -417.282)" fill="#6999d1"/>
  <path id="Trazado_177973" data-name="Trazado 177973" d="M1981.33,655.493s7.764-31.675,51.2-21.027c-1.213-.3-5.022,3.39-5.809,4.08-6.431,5.635-9.789,15.147-17.943,18.932C1999.812,661.641,1989.735,660.439,1981.33,655.493Z" transform="translate(-1819.368 -541.942)" fill="#caddf2"/>
  <path id="Trazado_177974" data-name="Trazado 177974" d="M1927.461,545.235l1.869-2.62c.316-.435.615-.881.944-1.307l1.008-1.261,1.009-1.263.5-.632.253-.316.268-.3,2.143-2.431a118.52,118.52,0,0,1,9.259-9.133q4.882-4.324,10.142-8.23c.883-.639,1.76-1.288,2.65-1.919s1.784-1.258,2.694-1.861c1.808-1.225,3.646-2.407,5.525-3.524-1.941,1.006-3.849,2.08-5.729,3.2-.947.55-1.87,1.138-2.807,1.706s-1.845,1.18-2.77,1.769q-5.5,3.6-10.688,7.685a120.457,120.457,0,0,0-9.933,8.716l-2.335,2.357-.292.295-.278.309-.556.618-1.112,1.236-1.113,1.238c-.365.418-.7.861-1.054,1.291l-2.094,2.6Z" transform="translate(-1774.002 -443.872)" fill="#fff"/>
  <path id="Trazado_177975" data-name="Trazado 177975" d="M1938.809,681.061l2.512-2.163c.84-.719,1.663-1.462,2.551-2.122l2.621-2.042.656-.51.679-.48,1.358-.96a111.092,111.092,0,0,1,11.3-7.061,112.429,112.429,0,0,1,12.077-5.738,89.679,89.679,0,0,1,12.732-4.195,90.027,90.027,0,0,0-13,3.477,117.794,117.794,0,0,0-24.383,11.6l-1.44.9-.72.45-.7.482-2.8,1.933c-.947.626-1.832,1.336-2.735,2.023l-2.7,2.074Z" transform="translate(-1783.541 -560.867)" fill="#fff"/>
  <g id="Grupo_79219" data-name="Grupo 79219" transform="translate(47.531 37.955)">
    <g id="Grupo_79218" data-name="Grupo 79218">
      <g id="Grupo_79216" data-name="Grupo 79216">
        <g id="Grupo_79215" data-name="Grupo 79215">
          <path id="Trazado_177976" data-name="Trazado 177976" d="M1520.174,370.251a6.485,6.485,0,0,0-6.517-6.437l-112.375.7a6.481,6.481,0,0,0-6.434,6.516l.429,69.363a6.486,6.486,0,0,0,6.517,6.437l112.375-.7a6.485,6.485,0,0,0,6.437-6.517Zm-6.031,71.672-112.375.7a2.275,2.275,0,0,1-2.284-2.255L1399.056,371a2.272,2.272,0,0,1,2.255-2.282l112.373-.7a2.272,2.272,0,0,1,2.284,2.255l.431,69.363A2.275,2.275,0,0,1,1514.144,441.924Z" transform="translate(-1394.848 -363.814)" fill="#1e3e61"/>
        </g>
      </g>
      <g id="Grupo_79217" data-name="Grupo 79217" transform="translate(4.207 4.207)">
        <path id="Trazado_177977" data-name="Trazado 177977" d="M1533.754,456.994a2.275,2.275,0,0,1-2.255,2.284l-112.375.7a2.275,2.275,0,0,1-2.284-2.255l-.429-69.365a2.272,2.272,0,0,1,2.255-2.282l112.373-.7a2.272,2.272,0,0,1,2.284,2.255Z" transform="translate(-1416.411 -385.377)" fill="#caddf2"/>
      </g>
    </g>
  </g>
  <g id="Grupo_79220" data-name="Grupo 79220" transform="translate(64.929 46.279)">
    <path id="Trazado_177978" data-name="Trazado 177978" d="M1516.315,422.624a16.146,16.146,0,1,1-16.149-16.149A16.093,16.093,0,0,1,1516.315,422.624Z" transform="translate(-1484.016 -406.475)" fill="#fff"/>
    <path id="Trazado_177979" data-name="Trazado 177979" d="M1519.392,426.687a15.161,15.161,0,1,1-15.165-15.165A15.113,15.113,0,0,1,1519.392,426.687Z" transform="translate(-1488.078 -410.537)" fill="#dde5ee"/>
    <path id="Trazado_177980" data-name="Trazado 177980" d="M1531,411.522v15.165l-8.674-12.436A15.059,15.059,0,0,1,1531,411.522Z" transform="translate(-1514.854 -410.537)" fill="#c0ccdc"/>
    <path id="Trazado_177981" data-name="Trazado 177981" d="M1581.95,426.687h-15.165V411.522A15.165,15.165,0,0,1,1581.95,426.687Z" transform="translate(-1550.635 -410.537)" fill="#a2b3ca"/>
    <path id="Trazado_177982" data-name="Trazado 177982" d="M1581.95,489.244a15.113,15.113,0,0,1-4.266,10.542l-10.9-10.542Z" transform="translate(-1550.635 -473.095)" fill="#8d9baf"/>
  </g>
  <path id="Trazado_177983" data-name="Trazado 177983" d="M1488.172,785.084h-135.46a4.186,4.186,0,0,1-4.186-4.186h0a4.186,4.186,0,0,1,4.186-4.186h135.46a4.186,4.186,0,0,1,4.186,4.186h0a4.186,4.186,0,0,1-4.186,4.186Z" transform="translate(-1310.033 -658.195)" fill="#102d4f"/>
  <path id="Trazado_177984" data-name="Trazado 177984" d="M1561.163,582.541s3.583-.994,3.6.861c.023,2.56-3.726.956-3.726.956Z" transform="translate(-1481.079 -501.695)" fill="#fa9c66"/>
  <path id="Trazado_177985" data-name="Trazado 177985" d="M1496.847,539.509l-.065,0c-.7-.038-7.01-.394-10-.932a5.408,5.408,0,0,1-1.4-.38c-1.67-.932-4.984-6.239-5.241-9.787l4.351-2.444,3.531,8.544,9.206,2.312A3.8,3.8,0,0,1,1496.847,539.509Z" transform="translate(-1415.966 -456.369)" fill="#1d2957"/>
  <path id="Trazado_177986" data-name="Trazado 177986" d="M1500.322,797.521a4.365,4.365,0,0,0,3.39,2.033c2.5.293,2.523,1.921,2.523,1.921l-8.522.085s-.828-3.073.689-3.962S1500.322,797.521,1500.322,797.521Z" transform="translate(-1429.931 -674.671)" fill="#0f1e33"/>
  <path id="Trazado_177987" data-name="Trazado 177987" d="M1471.161,627.446c-.116,4.77-1.044,18.9-1.044,18.9a4.665,4.665,0,0,1-4.228.242l-.93-10.8-.242-2.811-.438-5.1-2.8-8.826-1.3-4.087-1.735-5.474.819-.089,1.25-.139,5.205-.577,1.97-.219s.3,1.169.713,2.947c.4,1.717.921,4,1.4,6.355.264,1.3.516,2.621.731,3.877A34.866,34.866,0,0,1,1471.161,627.446Z" transform="translate(-1398.505 -522.784)" fill="#0b3779"/>
  <path id="Trazado_177988" data-name="Trazado 177988" d="M1436.6,796.224a4.365,4.365,0,0,0,2.713,2.875c2.326.958,1.909,2.533,1.909,2.533l-8.227-2.224s.035-3.183,1.736-3.628S1436.6,796.224,1436.6,796.224Z" transform="translate(-1378.02 -673.442)" fill="#0f1e33"/>
  <path id="Trazado_177989" data-name="Trazado 177989" d="M1480.868,658.194c-.326,3.412-1.2,9.745-3.4,14.32l-.242-2.811-.438-5.1-2.8-8.826,3.186-1.684Z" transform="translate(-1411.013 -559.505)" fill="#093565" opacity="0.5" style="mix-blend-mode: multiply;isolation: isolate"/>
  <g id="Grupo_79222" data-name="Grupo 79222" transform="translate(55.423 85.17)">
    <g id="Grupo_79221" data-name="Grupo 79221">
      <path id="Trazado_177990" data-name="Trazado 177990" d="M1447.344,607.318s-.038,1.389-.127,3.446c-.011.181-.018.369-.029.559-.219,4.678-.7,12.164-1.635,15.2-1.4,4.562-6.12,17.918-6.12,17.918a4.666,4.666,0,0,1-4.137-.915l3.51-18.441-.25-7.6-.262-7.994-.107-3.285-.016-.4Z" transform="translate(-1435.296 -605.804)" fill="#0b3779"/>
    </g>
  </g>
  <path id="Trazado_177991" data-name="Trazado 177991" d="M1435.3,658.714l3.51-18.441-.25-7.6-.262-7.994h5.637S1439.3,652.444,1435.3,658.714Z" transform="translate(-1379.873 -535.826)" fill="#093565" opacity="0.5" style="mix-blend-mode: multiply;isolation: isolate"/>
  <g id="Grupo_79223" data-name="Grupo 79223" transform="translate(60.517 93.685)">
    <path id="Trazado_177992" data-name="Trazado 177992" d="M1461.74,676.216a.336.336,0,0,1-.315-.45c.042-.117,4.261-11.759,5.144-15.523a66.8,66.8,0,0,0,1.028-10.47.327.327,0,0,1,.342-.328.335.335,0,0,1,.328.342,65.96,65.96,0,0,1-1.046,10.609c-.892,3.8-4.992,15.119-5.166,15.6A.335.335,0,0,1,1461.74,676.216Z" transform="translate(-1461.404 -649.445)" fill="#6182c1"/>
  </g>
  <path id="Trazado_177993" data-name="Trazado 177993" d="M1523.21,574.75c-.7-.038-7.01-.394-10-.932l-.235-2.062,1.476-2.006S1515.357,574.175,1523.21,574.75Z" transform="translate(-1442.394 -491.614)" fill="#1d2957" style="mix-blend-mode: multiply;isolation: isolate"/>
  <path id="Trazado_177994" data-name="Trazado 177994" d="M1440.37,465.621s-.031.031-.081.092a3.735,3.735,0,0,0-.608,3.061,8.206,8.206,0,0,1-.472,3.9,11.386,11.386,0,0,1-3.819,5.32c-3.656,2.806-10.755,2.891-9.309-.3s-1.872-6.248,1.487-6.885,3.359-1.787,4.718-5.993,6.078-4.208,7.352-2.891S1440.37,465.621,1440.37,465.621Z" transform="translate(-1372.302 -404.208)" fill="#20112c"/>
  <path id="Trazado_177995" data-name="Trazado 177995" d="M1451.118,477.147a8.206,8.206,0,0,1-.472,3.9c-1.887,1.632-5.315,4.452-7.562,5.474-3.24,1.476-4.072-3.627-1.351-4.935s2.493-1.357,2.565-4.3,3.258-4.387,3.258-4.387l1.147-1.339,3.023,2.527A3.735,3.735,0,0,0,1451.118,477.147Z" transform="translate(-1383.739 -412.582)" fill="#3e2052" opacity="0.7" style="mix-blend-mode: multiply;isolation: isolate"/>
  <path id="Trazado_177996" data-name="Trazado 177996" d="M1472.035,538.6a6.391,6.391,0,0,1-1.078.5c-.2.072-.411.136-.624.192a11.393,11.393,0,0,1-2.46.349,18.25,18.25,0,0,1-2.645-.1,23.07,23.07,0,0,1-3.609-.669l.2-1.789,1.86-16.746.177-1.585.081-.011a12.694,12.694,0,0,1,4.166.094l0,0,.038.078c.013.031.029.063.047.1.165.326.36.711.57,1.131,1.214,2.424,3,6.013,3,6.147C1471.763,526.493,1472.035,538.6,1472.035,538.6Z" transform="translate(-1401.061 -450.454)" fill="#e75e9d"/>
  <path id="Trazado_177997" data-name="Trazado 177997" d="M1496.186,550.563a10.141,10.141,0,0,1-2.173-.181l-3.7-4.1c.156-1.308.391-3.258.655-5.413.127-1.056.264-2.165.4-3.269.4-3.3.81-6.578,1.06-8.49a16.292,16.292,0,0,0-1.436-8.857l.246-.105c.013.031.029.063.047.1.165.326.36.711.57,1.131,1.214,2.424,3,6.013,3,6.147,0,.206.273,12.31.273,12.31a6.4,6.4,0,0,1-1.078.5c.4,1.717.921,4,1.4,6.355C1495.718,547.984,1495.971,549.306,1496.186,550.563Z" transform="translate(-1424.158 -451.692)" fill="#093565" opacity="0.5" style="mix-blend-mode: multiply;isolation: isolate"/>
  <path id="Trazado_177998" data-name="Trazado 177998" d="M1445.172,527.157c0,.825-.089,2-.239,3.367-.3,2.791-.872,6.4-1.547,9.532-.789,3.674-1.722,6.7-2.545,7.01a2.441,2.441,0,0,1-1.637.078c-1.145-.331-2.265-1.373-4.723-1.874,0,0,3.435-8.258,3.486-13.542.025-2.435-.127-4.579-.221-6.31-.11-2.024-.141-3.486.273-4.2a1.448,1.448,0,0,1,.156-.221,6.464,6.464,0,0,1,2.744-1.539c.376-.078.74-.138,1.093-.188l.081-.011c.125.237.427.812.8,1.556a31.277,31.277,0,0,1,2.2,5.326A4.752,4.752,0,0,1,1445.172,527.157Z" transform="translate(-1379.218 -450.973)" fill="#1d2957"/>
  <g id="Grupo_79224" data-name="Grupo 79224" transform="translate(70.437 93.335)">
    <path id="Trazado_177999" data-name="Trazado 177999" d="M1513.781,675.108a.335.335,0,0,1-.426-.348c.009-.124.916-12.474.746-16.336a66.781,66.781,0,0,0-1.846-10.357.327.327,0,0,1,.241-.409.335.335,0,0,1,.409.241,65.986,65.986,0,0,1,1.867,10.5c.172,3.9-.71,15.906-.747,16.415A.335.335,0,0,1,1513.781,675.108Z" transform="translate(-1512.244 -647.648)" fill="#6182c1"/>
  </g>
  <path id="Trazado_178000" data-name="Trazado 178000" d="M1500.844,545.535a6.571,6.571,0,0,1-3.969.614s.1-2.61.214-5.945c.181-5.339.392-12.541.266-13.886a21.29,21.29,0,0,0-1.871-5.256c-.2-.422-.38-.807-.538-1.134l-.085-.173.011,0a2.245,2.245,0,0,1,1.469,1.036l.142.232a22.357,22.357,0,0,1,2.993,6.729C1500.092,531.377,1500.844,545.535,1500.844,545.535Z" transform="translate(-1427.816 -451.373)" fill="#1d2957"/>
  <path id="Trazado_178001" data-name="Trazado 178001" d="M1478.331,499.187c-1.474,1.042-3.75-.072-3.75-.072l.246-3.6,0-.018.031-.465,2.976-1.056.116,1.232.309,3.251Z" transform="translate(-1411.493 -430.624)" fill="#fa9c66"/>
  <path id="Trazado_178002" data-name="Trazado 178002" d="M1451.042,553.951s-1.722,1.762-6.109,1.995a20.256,20.256,0,0,1-2.627-.042c-6.283-.5-1.482,12.848-3.1,16.663-1.145-.331-2.265-1.373-4.723-1.874,0,0,3.435-8.258,3.486-13.542.025-2.435-.127-4.58-.221-6.31l7.426,1.737Z" transform="translate(-1379.218 -476.395)" fill="#1d2957" style="mix-blend-mode: multiply;isolation: isolate"/>
  <path id="Trazado_178003" data-name="Trazado 178003" d="M1554.767,518.443s1.815-3,3.146-1.568c1.837,1.982-1.943,3.063-1.943,3.063Z" transform="translate(-1476.033 -448.744)" fill="#fa9c66"/>
  <path id="Trazado_178004" data-name="Trazado 178004" d="M1452.578,522.689l9.5,4.76,9.416-4.973a3.272,3.272,0,0,1,1.556,2.249s-8.8,7.1-10.554,7.5c-2.095.475-8.837-1.467-11.713-4.235Z" transform="translate(-1392.336 -453.564)" fill="#1d2957"/>
  <path id="Trazado_178005" data-name="Trazado 178005" d="M1479.277,501.816a3.058,3.058,0,0,1-3.435-2.945v-.018h0l2.232-.707s.378.161.892.418Z" transform="translate(-1412.508 -433.982)" fill="#fa9c66" style="mix-blend-mode: multiply;isolation: isolate"/>
  <path id="Trazado_178006" data-name="Trazado 178006" d="M1475.62,466.966s1.225,4.625.693,6.211-4.546,2.632-5.614-1.547,1.755-5.126,1.755-5.126Z" transform="translate(-1408.174 -408.512)" fill="#fa9c66"/>
  <path id="Trazado_178007" data-name="Trazado 178007" d="M1460.112,478.418s1.431,2.482.248,4.556-3.755.058-3.755.058l1.8-3.519Z" transform="translate(-1397.024 -418.102)" fill="#20112c"/>
  <path id="Trazado_178008" data-name="Trazado 178008" d="M1479.985,469.51a3.553,3.553,0,0,1-3.154,3.577l-.99-.955.8-1.258,1.738-.965Z" transform="translate(-1412.508 -410.932)" fill="#fa9c66" style="mix-blend-mode: multiply;isolation: isolate"/>
  <path id="Trazado_178009" data-name="Trazado 178009" d="M1472.007,464.849a5.2,5.2,0,0,1-3.965,3.706c-3.388.842-1.858-2.643-1.858-2.771a25.953,25.953,0,0,1,2.166-1.743Z" transform="translate(-1404.456 -406.531)" fill="#20112c"/>
  <path id="Trazado_178010" data-name="Trazado 178010" d="M1471.91,485.21a1.02,1.02,0,1,0,.855-1.162A1.02,1.02,0,0,0,1471.91,485.21Z" transform="translate(-1409.334 -422.625)" fill="#fa9c66"/>
  <g id="Grupo_79225" data-name="Grupo 79225" transform="translate(62.06 69.246)">
    <path id="Trazado_178011" data-name="Trazado 178011" d="M1476.993,529.077l-7.558-3.788a.224.224,0,0,1,.2-.4l7.352,3.685,8.259-4.362a.224.224,0,1,1,.209.4Z" transform="translate(-1469.312 -524.186)" fill="#8290c8"/>
  </g>
  <g id="Grupo_79226" data-name="Grupo 79226" transform="translate(72.541 78.09)">
    <path id="Trazado_178012" data-name="Trazado 178012" d="M1530.791,571.859a.221.221,0,0,1-.055-.007l-7.539-1.893a.224.224,0,0,1,.109-.434l7.539,1.893a.224.224,0,0,1-.054.44Z" transform="translate(-1523.029 -569.518)" fill="#8290c8"/>
  </g>
  <rect id="Rectángulo_22434" data-name="Rectángulo 22434" width="59.087" height="7.303" transform="translate(104.387 47.263)" fill="#a2b3ca"/>
  <rect id="Rectángulo_22435" data-name="Rectángulo 22435" width="59.087" height="1.981" transform="translate(104.387 58.622)" fill="#dde5ee"/>
  <rect id="Rectángulo_22436" data-name="Rectángulo 22436" width="59.087" height="1.981" transform="translate(104.387 65.248)" fill="#dde5ee"/>
  <rect id="Rectángulo_22437" data-name="Rectángulo 22437" width="59.087" height="1.981" transform="translate(104.387 71.874)" fill="#dde5ee"/>
  <rect id="Rectángulo_22438" data-name="Rectángulo 22438" width="6.18" height="14.459" transform="translate(80.661 99.197)" fill="#a0cd8a"/>
  <rect id="Rectángulo_22439" data-name="Rectángulo 22439" width="6.18" height="18.129" transform="translate(86.841 95.528)" fill="#6999d1"/>
  <rect id="Rectángulo_22440" data-name="Rectángulo 22440" width="6.18" height="15.742" transform="translate(93.021 97.914)" fill="#a0cd8a"/>
  <rect id="Rectángulo_22441" data-name="Rectángulo 22441" width="6.18" height="22.971" transform="translate(99.201 90.685)" fill="#6999d1"/>
  <rect id="Rectángulo_22442" data-name="Rectángulo 22442" width="6.18" height="19.24" transform="translate(105.381 94.416)" fill="#a0cd8a"/>
  <rect id="Rectángulo_22443" data-name="Rectángulo 22443" width="6.18" height="26.694" transform="translate(111.561 86.962)" fill="#6999d1"/>
  <g id="Grupo_79229" data-name="Grupo 79229" transform="translate(78.347 80.857)">
    <g id="Grupo_79228" data-name="Grupo 79228" transform="translate(0)">
      <g id="Grupo_79227" data-name="Grupo 79227">
        <rect id="Rectángulo_22444" data-name="Rectángulo 22444" width="34.701" height="2.151" transform="translate(0 11.126) rotate(-18.7)" fill="#fff"/>
      </g>
    </g>
  </g>
  <g id="Grupo_79232" data-name="Grupo 79232" transform="translate(107.856 78.577)">
    <g id="Grupo_79231" data-name="Grupo 79231">
      <g id="Grupo_79230" data-name="Grupo 79230">
        <path id="Trazado_178013" data-name="Trazado 178013" d="M1707.925,579.728l-.344-4.669-3.554-3.047,9.064.263Z" transform="translate(-1704.027 -572.012)" fill="#fff"/>
      </g>
    </g>
  </g>
  <g id="Grupo_79237" data-name="Grupo 79237" transform="translate(125.523 80.498)">
    <path id="Trazado_178014" data-name="Trazado 178014" d="M1828.077,598.609a16.745,16.745,0,0,1-29.567,10.775c-.148-.175-.293-.356-.434-.537a16.74,16.74,0,0,1,22.753-24.02c.25.172.5.353.739.54.3.226.579.461.857.709A16.7,16.7,0,0,1,1828.077,598.609Z" transform="translate(-1794.573 -581.858)" fill="#ffc72e"/>
    <g id="Grupo_79234" data-name="Grupo 79234" transform="translate(1.463 1.459)">
      <g id="Grupo_79233" data-name="Grupo 79233">
        <path id="Trazado_178015" data-name="Trazado 178015" d="M1803.42,608.634h-.814a15.162,15.162,0,0,0,.929,2.519h.875A14.323,14.323,0,0,1,1803.42,608.634Zm28.949-6.959a14.531,14.531,0,0,0-.462-1.771c-.027-.093-.06-.184-.09-.275-.018-.054-.036-.109-.057-.16a14.656,14.656,0,0,0-.881-1.991c-.184-.35-.383-.691-.594-1.023a15.289,15.289,0,0,0-12.923-7.122,14.8,14.8,0,0,0-1.761.1c-.163.018-.323.039-.483.063-.362.051-.721.118-1.074.2-.3.066-.606.142-.9.229a15.081,15.081,0,0,0-2.489.959,15.342,15.342,0,0,0-2.854,1.816c-.332.265-.655.546-.962.842a15.49,15.49,0,0,0-2.76,3.517,15.452,15.452,0,0,0-1.342,3.113c-.09.3-.172.6-.244.9a15.292,15.292,0,0,0-.332,1.94c-.021.193-.036.386-.048.579-.024.341-.036.685-.036,1.029,0,.211,0,.422.015.633.009.287.03.573.057.86a15.2,15.2,0,0,0,2.682,7.255,15.5,15.5,0,0,0,3.113,3.291,14.7,14.7,0,0,0,1.255.887c.124.078.247.154.374.229a15.276,15.276,0,0,0,20.663-4.9c.244-.374.468-.76.676-1.158a14.984,14.984,0,0,0,.676-1.463,15.2,15.2,0,0,0,1.074-5.632A15.37,15.37,0,0,0,1832.369,601.675Zm-1.584,8.455c-.018.045-.036.09-.057.136,0,0,0,0,0,.006a14.39,14.39,0,0,1-.627,1.3,14.575,14.575,0,0,1-8.66,6.974,13.68,13.68,0,0,1-1.578.371,14.534,14.534,0,0,1-15.034-7c-.148-.251-.287-.5-.416-.763a14.453,14.453,0,0,1-1.478-5.035c-.012-.121-.024-.244-.033-.368-.027-.371-.042-.745-.042-1.125,0-.347.012-.691.036-1.029,0-.024,0-.045.006-.066a13.975,13.975,0,0,1,.4-2.452c.1-.41.223-.811.359-1.207.157-.446.332-.884.531-1.309a14.586,14.586,0,0,1,8.862-7.792c.326-.1.657-.19.992-.268s.658-.142,1-.2c.181-.03.362-.057.546-.078a14.521,14.521,0,0,1,14.9,8.2c.181.38.347.772.495,1.171.075.205.148.413.211.621.039.111.073.223.1.335a13.608,13.608,0,0,1,.392,1.725c.015.078.027.16.039.241a14.6,14.6,0,0,1,.151,2.1A14.41,14.41,0,0,1,1830.786,610.13Z" transform="translate(-1802.072 -589.335)" fill="#d39616"/>
      </g>
    </g>
    <g id="Grupo_79236" data-name="Grupo 79236" transform="translate(10.41 6.499)">
      <g id="Grupo_79235" data-name="Grupo 79235">
        <path id="Trazado_178016" data-name="Trazado 178016" d="M1860.586,628.025l-.009-.045a3.45,3.45,0,0,0-.7-1.737,5.858,5.858,0,0,0-3.1-1.789c-.41-.121-.826-.223-1.237-.32v-3.707a8.9,8.9,0,0,1,3.336,1.134l1.089-2.685a9.873,9.873,0,0,0-4.425-1.33v-2.377h-2.181v2.422a8.581,8.581,0,0,0-1.478.293,7.174,7.174,0,0,0-.817.3,4.772,4.772,0,0,0-2.247,1.906,4.265,4.265,0,0,0-.582,2.19,4.634,4.634,0,0,0,.069.817v0a3.505,3.505,0,0,0,1.514,2.335,10.453,10.453,0,0,0,3.541,1.36v3.641a9.337,9.337,0,0,1-2.929-.79,7.163,7.163,0,0,1-1.3-.757l-.075.166-.2.453-.92,2.042a4.354,4.354,0,0,0,.455.317,11,11,0,0,0,4.974,1.427v2.377h2.181v-2.443c2.8-.338,4.419-1.713,4.914-3.445a4.282,4.282,0,0,0,.166-1.2A5.51,5.51,0,0,0,1860.586,628.025Zm-8.844-5.921a1.524,1.524,0,0,1,1.08-1.445,3.193,3.193,0,0,1,.534-.169v3.1C1852.4,623.283,1851.742,622.867,1851.742,622.1Zm3.795,8.244v-3.01c.081.03.163.057.238.091,0,0,0,0,0,0,.805.314,1.327.721,1.327,1.415a1.146,1.146,0,0,1-.021.229C1856.99,629.666,1856.5,630.137,1855.537,630.348Z" transform="translate(-1847.926 -615.169)" fill="#ffedc1"/>
      </g>
    </g>
  </g>
  <path id="Trazado_178017" data-name="Trazado 178017" d="M1286.924,785.085h-5.959l-2.236-8.372h10.431Z" transform="translate(-1253.854 -658.195)" fill="#0b0e15"/>
  <g id="Grupo_79243" data-name="Grupo 79243" transform="translate(63.495 9.546)">
    <g id="Grupo_79242" data-name="Grupo 79242">
      <path id="Trazado_178018" data-name="Trazado 178018" d="M1499.47,229.613a11.394,11.394,0,0,1-17.858,9.394,11.537,11.537,0,0,1-2.268-2.059c-.1-.119-.2-.242-.3-.365-.146-.189-.287-.382-.422-.58a11.4,11.4,0,0,1,15.837-15.82l.073.05c.171.117.338.241.5.367.2.154.394.315.583.483A11.369,11.369,0,0,1,1499.47,229.613Z" transform="translate(-1476.665 -218.212)" fill="#ffc72e"/>
      <g id="Grupo_79239" data-name="Grupo 79239" transform="translate(0.996 0.994)">
        <g id="Grupo_79238" data-name="Grupo 79238">
          <path id="Trazado_178019" data-name="Trazado 178019" d="M1482.687,236.44h-.554a10.313,10.313,0,0,0,.632,1.714h.6A9.736,9.736,0,0,1,1482.687,236.44Zm19.7-4.737a9.922,9.922,0,0,0-.314-1.205c-.018-.064-.041-.125-.062-.187-.012-.037-.025-.074-.039-.109a9.973,9.973,0,0,0-.6-1.355q-.188-.357-.4-.7a10.407,10.407,0,0,0-8.8-4.848,10.082,10.082,0,0,0-1.2.07c-.111.012-.22.027-.329.043-.246.035-.491.08-.731.136-.208.045-.413.1-.616.156a10.265,10.265,0,0,0-1.694.653,10.46,10.46,0,0,0-1.942,1.236c-.226.181-.445.372-.655.573a10.542,10.542,0,0,0-1.879,2.394,10.514,10.514,0,0,0-.914,2.119c-.062.2-.117.407-.166.614a10.4,10.4,0,0,0-.226,1.32c-.015.132-.025.263-.033.394-.016.232-.025.466-.025.7,0,.144,0,.287.01.431.006.2.021.39.039.585a10.349,10.349,0,0,0,1.825,4.938,10.542,10.542,0,0,0,2.119,2.24,10.045,10.045,0,0,0,.854.6c.084.053.168.1.255.156a10.4,10.4,0,0,0,14.065-3.336c.166-.255.318-.517.46-.788a10.191,10.191,0,0,0,.46-1,10.345,10.345,0,0,0,.731-3.833A10.463,10.463,0,0,0,1502.392,231.7Zm-1.078,5.755c-.012.031-.025.062-.039.092,0,0,0,0,0,0-.127.3-.271.6-.427.887a9.921,9.921,0,0,1-5.895,4.747,9.264,9.264,0,0,1-1.074.253,9.844,9.844,0,0,1-6.839-1.3,9.789,9.789,0,0,1-1.107-.788,9.919,9.919,0,0,1-2.287-2.68c-.1-.171-.2-.343-.283-.52a9.844,9.844,0,0,1-1.006-3.427c-.008-.082-.016-.166-.022-.251-.018-.252-.029-.507-.029-.766,0-.236.008-.47.025-.7,0-.016,0-.031,0-.045a9.494,9.494,0,0,1,.271-1.669c.07-.279.152-.552.244-.821.107-.3.226-.6.361-.891a9.926,9.926,0,0,1,6.032-5.3c.222-.068.448-.129.675-.183s.448-.1.678-.133c.123-.02.246-.039.372-.053a9.885,9.885,0,0,1,10.141,5.585c.123.259.236.526.337.8.051.139.1.281.144.423.027.076.049.152.07.228a9.316,9.316,0,0,1,.267,1.174c.01.053.018.109.026.164a9.9,9.9,0,0,1-.636,5.176Z" transform="translate(-1481.769 -223.304)" fill="#d39616"/>
        </g>
      </g>
      <g id="Grupo_79241" data-name="Grupo 79241" transform="translate(7.086 4.424)">
        <g id="Grupo_79240" data-name="Grupo 79240">
          <path id="Trazado_178020" data-name="Trazado 178020" d="M1521.6,249.639l-.006-.031a2.348,2.348,0,0,0-.476-1.183,3.986,3.986,0,0,0-2.113-1.218c-.279-.082-.563-.152-.842-.218v-2.523a6.056,6.056,0,0,1,2.271.772l.741-1.827a6.724,6.724,0,0,0-3.012-.906v-1.618h-1.484v1.649a5.849,5.849,0,0,0-1.006.2,4.859,4.859,0,0,0-.556.2,3.246,3.246,0,0,0-1.53,1.3,2.9,2.9,0,0,0-.4,1.491,3.15,3.15,0,0,0,.047.556v0a2.385,2.385,0,0,0,1.031,1.589,7.117,7.117,0,0,0,2.41.926v2.478a6.35,6.35,0,0,1-1.994-.538,4.889,4.889,0,0,1-.887-.515l-.051.113-.138.308-.626,1.39a2.917,2.917,0,0,0,.31.216,7.488,7.488,0,0,0,3.386.971v1.618h1.484v-1.663c1.907-.23,3.008-1.166,3.345-2.345a2.923,2.923,0,0,0,.113-.815A3.754,3.754,0,0,0,1521.6,249.639Zm-6.02-4.03a1.037,1.037,0,0,1,.735-.984,2.179,2.179,0,0,1,.363-.115v2.109C1516.024,246.411,1515.578,246.128,1515.578,245.608Zm2.583,5.611v-2.049c.056.02.111.039.162.061,0,0,0,0,0,0,.548.214.9.491.9.963a.8.8,0,0,1-.014.156C1519.151,250.756,1518.82,251.076,1518.161,251.22Z" transform="translate(-1512.981 -240.888)" fill="#ffedc1"/>
        </g>
      </g>
    </g>
    <path id="Trazado_178021" data-name="Trazado 178021" d="M1507.563,237.744a11.394,11.394,0,0,1-17.858,9.394,11.538,11.538,0,0,1-2.268-2.059c-.1-.119-.2-.242-.3-.365-.146-.189-.288-.382-.422-.58a11.4,11.4,0,0,0,15.837-15.82l.073.05c.171.117.338.241.5.367.2.154.394.315.583.483A11.369,11.369,0,0,1,1507.563,237.744Z" transform="translate(-1484.758 -226.343)" fill="#ffc72e" opacity="0.7" style="mix-blend-mode: multiply;isolation: isolate"/>
  </g>
  <g id="Grupo_79249" data-name="Grupo 79249" transform="translate(73.906 20.949)">
    <g id="Grupo_79248" data-name="Grupo 79248">
      <path id="Trazado_178022" data-name="Trazado 178022" d="M1552.83,288.056a11.4,11.4,0,0,1-20.126,7.335c-.1-.119-.2-.242-.3-.365-.146-.189-.288-.382-.421-.58a11.4,11.4,0,0,1,15.837-15.82l.073.05c.17.117.338.241.5.367.2.154.394.315.583.483A11.369,11.369,0,0,1,1552.83,288.056Z" transform="translate(-1530.025 -276.655)" fill="#ffc72e"/>
      <g id="Grupo_79245" data-name="Grupo 79245" transform="translate(0.996 0.994)">
        <g id="Grupo_79244" data-name="Grupo 79244">
          <path id="Trazado_178023" data-name="Trazado 178023" d="M1536.047,294.883h-.554a10.33,10.33,0,0,0,.632,1.715h.6A9.764,9.764,0,0,1,1536.047,294.883Zm19.7-4.737a9.865,9.865,0,0,0-.314-1.205c-.019-.064-.041-.125-.062-.187-.012-.037-.025-.074-.039-.109a9.986,9.986,0,0,0-.6-1.355c-.125-.238-.261-.47-.4-.7a10.407,10.407,0,0,0-8.8-4.848,10.093,10.093,0,0,0-1.2.07c-.111.012-.22.027-.328.043-.246.035-.491.08-.731.136-.208.045-.413.1-.616.156a10.275,10.275,0,0,0-1.694.653,10.446,10.446,0,0,0-1.942,1.236c-.226.181-.446.372-.655.573a10.539,10.539,0,0,0-1.879,2.394,9.7,9.7,0,0,0-.509,1.02,9.6,9.6,0,0,0-.4,1.1c-.062.2-.117.407-.166.614a10.424,10.424,0,0,0-.226,1.32c-.015.132-.025.263-.033.394-.016.232-.025.466-.025.7,0,.144,0,.287.01.431.006.2.021.39.039.585a10.343,10.343,0,0,0,1.825,4.938,10.543,10.543,0,0,0,2.119,2.24,9.973,9.973,0,0,0,.854.6c.084.053.168.1.255.156a10.4,10.4,0,0,0,14.065-3.336c.167-.255.318-.517.46-.788a10.111,10.111,0,0,0,.46-1,10.42,10.42,0,0,0,.536-5.842Zm-1.078,5.755c-.012.031-.025.062-.039.092,0,0,0,0,0,0a9.776,9.776,0,0,1-.427.887,9.92,9.92,0,0,1-5.895,4.747,9.3,9.3,0,0,1-1.074.253A9.893,9.893,0,0,1,1537,297.117c-.1-.171-.2-.343-.283-.52a9.841,9.841,0,0,1-1.006-3.427c-.008-.082-.016-.166-.022-.25-.019-.252-.029-.507-.029-.766,0-.236.008-.47.025-.7,0-.017,0-.031,0-.045a9.483,9.483,0,0,1,.271-1.669c.07-.279.152-.552.244-.821.107-.3.226-.6.361-.891a9.925,9.925,0,0,1,6.033-5.3c.222-.068.448-.129.675-.183s.448-.1.677-.133c.123-.02.246-.039.372-.053a9.884,9.884,0,0,1,10.141,5.585c.123.259.236.526.337.8.051.139.1.281.144.423.027.076.049.152.07.228a9.251,9.251,0,0,1,.267,1.174c.01.053.019.109.027.164a9.942,9.942,0,0,1,.1,1.429A9.809,9.809,0,0,1,1554.674,295.9Z" transform="translate(-1535.129 -281.747)" fill="#d39616"/>
        </g>
      </g>
      <g id="Grupo_79247" data-name="Grupo 79247" transform="translate(7.086 4.424)">
        <g id="Grupo_79246" data-name="Grupo 79246">
          <path id="Trazado_178024" data-name="Trazado 178024" d="M1574.959,308.082l-.006-.031a2.348,2.348,0,0,0-.476-1.183,3.989,3.989,0,0,0-2.113-1.218c-.279-.082-.562-.152-.842-.218V302.91a6.055,6.055,0,0,1,2.271.772l.741-1.827a6.723,6.723,0,0,0-3.012-.906v-1.618h-1.485v1.649a5.868,5.868,0,0,0-1.006.2,4.875,4.875,0,0,0-.557.2,3.247,3.247,0,0,0-1.53,1.3,2.9,2.9,0,0,0-.4,1.491,3.162,3.162,0,0,0,.047.556v0a2.386,2.386,0,0,0,1.031,1.589,7.116,7.116,0,0,0,2.41.926v2.478a6.351,6.351,0,0,1-1.994-.538,4.9,4.9,0,0,1-.887-.515l-.051.113-.138.308-.626,1.39a2.94,2.94,0,0,0,.31.216,7.488,7.488,0,0,0,3.386.971v1.618h1.485v-1.663c1.907-.23,3.008-1.166,3.344-2.345a2.919,2.919,0,0,0,.113-.815A3.756,3.756,0,0,0,1574.959,308.082Zm-6.02-4.03a1.037,1.037,0,0,1,.735-.984,2.179,2.179,0,0,1,.363-.115v2.109C1569.384,304.854,1568.938,304.571,1568.938,304.051Zm2.583,5.611v-2.049c.055.02.111.039.162.061,0,0,0,0,0,0,.548.214.9.491.9.963a.782.782,0,0,1-.015.156C1572.511,309.2,1572.181,309.519,1571.521,309.663Z" transform="translate(-1566.341 -299.331)" fill="#ffedc1"/>
        </g>
      </g>
    </g>
    <path id="Trazado_178025" data-name="Trazado 178025" d="M1560.924,296.187a11.4,11.4,0,0,1-20.126,7.335c-.1-.119-.2-.242-.3-.365-.146-.189-.287-.382-.421-.58a11.4,11.4,0,0,0,15.837-15.82l.073.05c.17.117.338.241.5.367.2.154.394.315.583.483A11.369,11.369,0,0,1,1560.924,296.187Z" transform="translate(-1538.119 -284.786)" fill="#ffc72e" opacity="0.7" style="mix-blend-mode: multiply;isolation: isolate"/>
  </g>
  <g id="Grupo_79255" data-name="Grupo 79255" transform="translate(59.726 24.592)">
    <g id="Grupo_79254" data-name="Grupo 79254">
      <path id="Trazado_178026" data-name="Trazado 178026" d="M1480.155,306.727a11.4,11.4,0,0,1-20.126,7.335c-.1-.119-.2-.242-.3-.365-.146-.189-.288-.382-.422-.58a11.4,11.4,0,0,1,15.837-15.82l.073.05c.17.117.338.24.5.367.2.154.394.315.583.483A11.369,11.369,0,0,1,1480.155,306.727Z" transform="translate(-1457.35 -295.326)" fill="#ffc72e"/>
      <g id="Grupo_79251" data-name="Grupo 79251" transform="translate(0.996 0.993)">
        <g id="Grupo_79250" data-name="Grupo 79250">
          <path id="Trazado_178027" data-name="Trazado 178027" d="M1463.371,313.554h-.554a10.316,10.316,0,0,0,.632,1.714h.6A9.756,9.756,0,0,1,1463.371,313.554Zm19.7-4.737a9.835,9.835,0,0,0-.314-1.205c-.018-.064-.041-.125-.062-.187-.012-.037-.025-.074-.039-.109a10.027,10.027,0,0,0-.6-1.355c-.125-.238-.261-.47-.4-.7a10.407,10.407,0,0,0-8.8-4.848,10.08,10.08,0,0,0-1.2.07c-.111.012-.22.027-.328.043-.246.035-.491.08-.731.136-.207.045-.413.1-.616.156a10.283,10.283,0,0,0-1.694.653,10.44,10.44,0,0,0-1.942,1.236c-.226.181-.446.372-.655.573a10.538,10.538,0,0,0-1.879,2.394,10.494,10.494,0,0,0-.914,2.119c-.062.2-.117.407-.166.614a10.434,10.434,0,0,0-.226,1.32c-.014.131-.025.263-.033.394-.016.232-.025.466-.025.7,0,.144,0,.287.01.431.006.195.021.39.039.585a10.348,10.348,0,0,0,1.825,4.938,10.552,10.552,0,0,0,2.119,2.24,10.043,10.043,0,0,0,.854.6c.084.053.168.1.255.156a10.4,10.4,0,0,0,14.065-3.337c.167-.254.318-.517.46-.788a10.193,10.193,0,0,0,.46-1,10.421,10.421,0,0,0,.536-5.841ZM1482,314.572c-.012.031-.025.061-.039.092,0,0,0,0,0,0a9.718,9.718,0,0,1-.427.887,9.919,9.919,0,0,1-5.895,4.747,9.3,9.3,0,0,1-1.074.253,9.845,9.845,0,0,1-6.839-1.3,9.785,9.785,0,0,1-1.107-.788,9.912,9.912,0,0,1-2.287-2.68c-.1-.17-.2-.343-.283-.519a9.837,9.837,0,0,1-1.006-3.427c-.008-.082-.016-.166-.023-.251-.019-.253-.029-.507-.029-.766,0-.236.008-.47.025-.7,0-.016,0-.031,0-.045a9.5,9.5,0,0,1,.271-1.669c.07-.279.152-.552.244-.821.107-.3.226-.6.361-.891a9.928,9.928,0,0,1,6.032-5.3c.222-.068.448-.129.676-.183s.448-.1.678-.133c.123-.021.246-.039.371-.053a9.882,9.882,0,0,1,10.141,5.585c.123.259.236.526.337.8.051.14.1.281.144.423.027.076.049.152.07.228a9.261,9.261,0,0,1,.267,1.175c.01.053.018.109.027.164a9.94,9.94,0,0,1,.1,1.429A9.811,9.811,0,0,1,1482,314.572Z" transform="translate(-1462.453 -300.417)" fill="#d39616"/>
        </g>
      </g>
      <g id="Grupo_79253" data-name="Grupo 79253" transform="translate(7.086 4.424)">
        <g id="Grupo_79252" data-name="Grupo 79252">
          <path id="Trazado_178028" data-name="Trazado 178028" d="M1502.283,326.753l-.006-.031a2.347,2.347,0,0,0-.476-1.183,3.988,3.988,0,0,0-2.113-1.218c-.279-.082-.563-.152-.842-.218v-2.523a6.056,6.056,0,0,1,2.271.772l.741-1.827a6.721,6.721,0,0,0-3.012-.906V318h-1.485v1.649a5.861,5.861,0,0,0-1.006.2,4.932,4.932,0,0,0-.556.2,3.247,3.247,0,0,0-1.53,1.3,2.9,2.9,0,0,0-.4,1.491,3.174,3.174,0,0,0,.047.556v0a2.386,2.386,0,0,0,1.031,1.589,7.114,7.114,0,0,0,2.411.926v2.478a6.357,6.357,0,0,1-1.994-.538,4.89,4.89,0,0,1-.887-.515l-.051.113-.138.308-.626,1.39a2.951,2.951,0,0,0,.31.216,7.487,7.487,0,0,0,3.386.971v1.618h1.485v-1.663c1.907-.23,3.008-1.166,3.345-2.345a2.917,2.917,0,0,0,.113-.815A3.756,3.756,0,0,0,1502.283,326.753Zm-6.02-4.03a1.037,1.037,0,0,1,.735-.984,2.141,2.141,0,0,1,.363-.115v2.109C1496.709,323.525,1496.263,323.242,1496.263,322.722Zm2.583,5.612v-2.049c.055.021.111.039.162.061,0,0,0,0,0,0,.548.214.9.491.9.963a.78.78,0,0,1-.015.156C1499.836,327.87,1499.505,328.19,1498.846,328.334Z" transform="translate(-1493.666 -318.002)" fill="#ffedc1"/>
        </g>
      </g>
    </g>
    <path id="Trazado_178029" data-name="Trazado 178029" d="M1488.248,314.858a11.4,11.4,0,0,1-20.126,7.335c-.1-.119-.2-.242-.3-.365-.146-.189-.288-.382-.422-.58a11.4,11.4,0,0,0,15.837-15.82l.073.05c.17.117.338.24.5.367.2.154.394.315.583.483A11.368,11.368,0,0,1,1488.248,314.858Z" transform="translate(-1465.443 -303.456)" fill="#ffc72e" opacity="0.7" style="mix-blend-mode: multiply;isolation: isolate"/>
  </g>
  <path id="Trazado_178030" data-name="Trazado 178030" d="M1713.837,720.154V732.9a3.625,3.625,0,0,1-3.623,3.625h-30.9a3.623,3.623,0,0,1-3.622-3.625v-12.75a3.619,3.619,0,0,1,3.622-3.622h30.9A3.623,3.623,0,0,1,1713.837,720.154Z" transform="translate(-1573.366 -609.757)" fill="#0c101a"/>
  <path id="Trazado_178031" data-name="Trazado 178031" d="M1713.827,720.152v6.375h-38.143v-6.375a3.623,3.623,0,0,1,3.623-3.623h30.9A3.623,3.623,0,0,1,1713.827,720.152Z" transform="translate(-1573.358 -609.755)" fill="#0d1d39"/>
  <rect id="Rectángulo_22445" data-name="Rectángulo 22445" width="4.306" height="4.368" transform="translate(123.552 118.988) rotate(180)" fill="#47669e"/>
  <g id="Grupo_79257" data-name="Grupo 79257" transform="translate(112.088 100.309)">
    <g id="Grupo_79256" data-name="Grupo 79256">
      <path id="Trazado_178032" data-name="Trazado 178032" d="M1744.335,686.976v2.883h-2.891v-2.883a.691.691,0,0,0-.691-.691h-11.458a.691.691,0,0,0-.691.691v2.883h-2.891v-2.883a3.587,3.587,0,0,1,3.582-3.582h11.458A3.587,3.587,0,0,1,1744.335,686.976Z" transform="translate(-1725.712 -683.394)" fill="#0c101a"/>
    </g>
  </g>
  <path id="Trazado_178033" data-name="Trazado 178033" d="M1898.848,196.684a12.265,12.265,0,0,0,6.207-2.575l1.995,1.995,2.054-2.054-1.995-1.995a12.267,12.267,0,0,0,2.575-6.207h2.819v-2.906h-2.819a12.267,12.267,0,0,0-2.575-6.207l1.995-1.995-2.054-2.054-1.995,1.995a12.264,12.264,0,0,0-6.207-2.575v-2.819h-2.906v2.819a12.265,12.265,0,0,0-6.207,2.575l-1.995-1.995-2.054,2.054,1.995,1.995a12.266,12.266,0,0,0-2.575,6.207h-2.819v2.906h2.819a12.266,12.266,0,0,0,2.575,6.207l-1.995,1.995,2.054,2.054,1.995-1.995a12.265,12.265,0,0,0,6.207,2.575V199.5h2.906Zm-6.754-4.933a8.912,8.912,0,0,1-2.055-2.054,9.01,9.01,0,0,1-1.6-3.849,9.333,9.333,0,0,1,0-2.906,9.011,9.011,0,0,1,1.6-3.849,9.1,9.1,0,0,1,5.9-3.654,9.335,9.335,0,0,1,2.906,0,9.094,9.094,0,0,1,7.5,7.5,9.323,9.323,0,0,1,0,2.906,9.095,9.095,0,0,1-7.5,7.5,9.333,9.333,0,0,1-2.906,0A8.934,8.934,0,0,1,1892.094,191.751Z" transform="translate(-1739.65 -169.288)" fill="#bee0eb"/>
  <path id="Trazado_178034" data-name="Trazado 178034" d="M2022.756,279.422a12.266,12.266,0,0,0,6.207-2.575l1.995,1.995,2.054-2.055-1.995-1.995a12.265,12.265,0,0,0,2.575-6.207h2.819v-2.905h-2.819a12.264,12.264,0,0,0-2.575-6.207l1.995-1.995-2.054-2.054-1.995,1.995a12.266,12.266,0,0,0-6.207-2.575v-2.819h-2.906v2.819a12.266,12.266,0,0,0-6.207,2.575l-1.995-1.995-2.055,2.054,1.995,1.995a12.268,12.268,0,0,0-2.575,6.207H2006.2v2.905h2.819a12.269,12.269,0,0,0,2.575,6.207l-1.995,1.995,2.055,2.055,1.995-1.995a12.266,12.266,0,0,0,6.207,2.575v2.819h2.906ZM2016,274.489a8.9,8.9,0,0,1-2.054-2.054,9.009,9.009,0,0,1-1.6-3.849,9.312,9.312,0,0,1,0-2.905,9.007,9.007,0,0,1,1.6-3.849,9.095,9.095,0,0,1,5.9-3.654,9.335,9.335,0,0,1,2.906,0,9.095,9.095,0,0,1,7.5,7.5,9.322,9.322,0,0,1,0,2.905,9.094,9.094,0,0,1-7.5,7.5,9.332,9.332,0,0,1-2.906,0A8.935,8.935,0,0,1,2016,274.489Z" transform="translate(-1839.382 -235.883)" fill="#6999d1"/>
  <path id="Trazado_178035" data-name="Trazado 178035" d="M1891.822,346.435a12.265,12.265,0,0,0,6.7-.494l1.267,2.521,2.6-1.3-1.267-2.521a12.267,12.267,0,0,0,4.395-5.083l2.676.886.913-2.758-2.676-.886a12.267,12.267,0,0,0-.494-6.7l2.521-1.267-1.3-2.6-2.521,1.267a12.267,12.267,0,0,0-5.083-4.395l.886-2.676-2.758-.913-.886,2.676a12.264,12.264,0,0,0-6.7.494l-1.267-2.52-2.6,1.3,1.267,2.52a12.266,12.266,0,0,0-4.394,5.083l-2.676-.886-.913,2.758,2.676.886a12.266,12.266,0,0,0,.494,6.7l-2.521,1.267,1.3,2.6,2.521-1.267a12.267,12.267,0,0,0,5.083,4.394l-.886,2.676,2.758.913Zm-4.862-6.805a8.9,8.9,0,0,1-1.3-2.6,9.007,9.007,0,0,1-.314-4.158,9.324,9.324,0,0,1,.913-2.758,9.008,9.008,0,0,1,2.732-3.15,9.094,9.094,0,0,1,6.752-1.614,9.328,9.328,0,0,1,2.758.913,9.1,9.1,0,0,1,4.765,9.479,9.325,9.325,0,0,1-.913,2.758,9.095,9.095,0,0,1-9.479,4.765,9.319,9.319,0,0,1-2.758-.913A8.931,8.931,0,0,1,1886.96,339.63Z" transform="translate(-1737.41 -290.203)" fill="#8d9baf"/>
  <path id="Trazado_178036" data-name="Trazado 178036" d="M1713.837,776.378v4.7a3.625,3.625,0,0,1-3.623,3.625h-30.9a3.623,3.623,0,0,1-3.622-3.625v-4.7a3.623,3.623,0,0,0,3.622,3.624h30.9A3.625,3.625,0,0,0,1713.837,776.378Z" transform="translate(-1573.366 -657.926)" fill="#0c101a" style="mix-blend-mode: multiply;isolation: isolate"/>
</svg>
