<svg xmlns="http://www.w3.org/2000/svg" xmlns:xlink="http://www.w3.org/1999/xlink" width="390.726" height="306.055" viewBox="0 0 390.726 306.055">
  <defs>
    <linearGradient id="linear-gradient" x1="52.519" y1="0.5" x2="53.519" y2="0.5" gradientUnits="objectBoundingBox">
      <stop offset="0" stop-color="#b8803b"/>
      <stop offset="0.596" stop-color="#b67e3a"/>
      <stop offset="0.813" stop-color="#af773a"/>
      <stop offset="0.968" stop-color="#a46b39"/>
      <stop offset="1" stop-color="#a16839"/>
    </linearGradient>
    <linearGradient id="linear-gradient-2" x1="61.272" y1="0.5" x2="62.272" y2="0.5" gradientUnits="objectBoundingBox">
      <stop offset="0" stop-color="#ddab4c"/>
      <stop offset="1" stop-color="#d69e43"/>
    </linearGradient>
    <linearGradient id="linear-gradient-3" x1="724.196" y1="0.5" x2="725.196" y2="0.5" gradientUnits="objectBoundingBox">
      <stop offset="0" stop-color="#dda94c"/>
      <stop offset="1" stop-color="#da9e4b"/>
    </linearGradient>
    <linearGradient id="linear-gradient-4" x1="623.157" y1="0.5" x2="624.157" y2="0.5" gradientUnits="objectBoundingBox">
      <stop offset="0" stop-color="#e7b64f"/>
      <stop offset="1" stop-color="#e3b14d"/>
    </linearGradient>
    <linearGradient id="linear-gradient-5" x1="65.44" y1="0.5" x2="66.44" y2="0.5" gradientUnits="objectBoundingBox">
      <stop offset="0" stop-color="#b8803b"/>
      <stop offset="0.989" stop-color="#b57c39"/>
    </linearGradient>
    <linearGradient id="linear-gradient-6" x1="76.057" y1="0.5" x2="77.057" y2="0.5" gradientUnits="objectBoundingBox">
      <stop offset="0" stop-color="#d7a148"/>
      <stop offset="1" stop-color="#d09444"/>
    </linearGradient>
    <linearGradient id="linear-gradient-7" x1="897.7" y1="0.5" x2="898.7" y2="0.5" xlink:href="#linear-gradient-3"/>
    <linearGradient id="linear-gradient-8" x1="773.413" y1="0.5" x2="774.413" y2="0.5" xlink:href="#linear-gradient-4"/>
    <linearGradient id="linear-gradient-9" x1="59.992" y1="0.5" x2="60.992" y2="0.5" gradientUnits="objectBoundingBox">
      <stop offset="0" stop-color="#ddab4c"/>
      <stop offset="0.062" stop-color="#d8a549"/>
      <stop offset="0.399" stop-color="#c48e40"/>
      <stop offset="0.716" stop-color="#b9803a"/>
      <stop offset="0.989" stop-color="#b57c39"/>
    </linearGradient>
    <linearGradient id="linear-gradient-10" x1="75.512" y1="0.5" x2="76.512" y2="0.5" xlink:href="#linear-gradient-2"/>
    <linearGradient id="linear-gradient-11" x1="73.743" y1="0.5" x2="74.743" y2="0.5" xlink:href="#linear-gradient-9"/>
    <linearGradient id="linear-gradient-12" x1="92.57" y1="0.5" x2="93.57" y2="0.5" gradientUnits="objectBoundingBox">
      <stop offset="0.064" stop-color="#d69f48"/>
      <stop offset="1" stop-color="#d09444"/>
    </linearGradient>
    <linearGradient id="linear-gradient-13" x1="911.277" y1="0.5" x2="912.277" y2="0.5" xlink:href="#linear-gradient-3"/>
    <linearGradient id="linear-gradient-14" x1="786.401" y1="0.5" x2="787.401" y2="0.5" xlink:href="#linear-gradient-4"/>
    <linearGradient id="linear-gradient-15" x1="-19.343" y1="0.5" x2="-18.343" y2="0.5" gradientUnits="objectBoundingBox">
      <stop offset="0" stop-color="#262626"/>
      <stop offset="1"/>
    </linearGradient>
    <linearGradient id="linear-gradient-16" x1="-128.215" y1="0.5" x2="-127.215" y2="0.5" gradientUnits="objectBoundingBox">
      <stop offset="0.005" stop-color="#333"/>
      <stop offset="0.292" stop-color="#282828"/>
      <stop offset="0.781" stop-color="#0d0d0d"/>
      <stop offset="0.992"/>
    </linearGradient>
    <linearGradient id="linear-gradient-17" x1="-228.533" y1="0.5" x2="-227.533" y2="0.5" gradientUnits="objectBoundingBox">
      <stop offset="0.005" stop-color="#4d4d4d"/>
      <stop offset="0.418" stop-color="#3a3a3a"/>
      <stop offset="0.992" stop-color="#1a1a1a"/>
    </linearGradient>
    <linearGradient id="linear-gradient-18" x1="-128.215" y1="0.5" x2="-127.215" y2="0.5" xlink:href="#linear-gradient-16"/>
    <linearGradient id="linear-gradient-20" x1="18.647" y1="0.571" x2="19.493" y2="0.505" gradientUnits="objectBoundingBox">
      <stop offset="0" stop-color="#f12334"/>
      <stop offset="0.572" stop-color="#e61e2c"/>
      <stop offset="1" stop-color="#dc1925"/>
    </linearGradient>
    <linearGradient id="linear-gradient-21" x1="0" y1="0.5" x2="1" y2="0.5" xlink:href="#linear-gradient-15"/>
    <linearGradient id="linear-gradient-22" x1="0.127" y1="0.232" x2="0.873" y2="0.768" xlink:href="#linear-gradient-15"/>
    <linearGradient id="linear-gradient-23" x1="0.139" y1="0.635" x2="0.879" y2="0.359" gradientUnits="objectBoundingBox">
      <stop offset="0" stop-color="#999"/>
      <stop offset="0.072" stop-color="#969696"/>
      <stop offset="0.11" stop-color="#8e8e8e"/>
      <stop offset="0.14" stop-color="#818181"/>
      <stop offset="0.166" stop-color="#6e6e6e"/>
      <stop offset="0.189" stop-color="#555"/>
      <stop offset="0.21" stop-color="#373737"/>
      <stop offset="0.229" stop-color="#131313"/>
      <stop offset="0.238"/>
      <stop offset="0.709"/>
      <stop offset="0.749" stop-color="#242424"/>
      <stop offset="0.79" stop-color="#424242"/>
      <stop offset="0.834" stop-color="#595959"/>
      <stop offset="0.881" stop-color="#6a6a6a"/>
      <stop offset="0.933" stop-color="#737373"/>
      <stop offset="1" stop-color="#777"/>
    </linearGradient>
    <linearGradient id="linear-gradient-24" x1="0.099" y1="0.502" x2="0.878" y2="0.498" xlink:href="#linear-gradient-15"/>
    <linearGradient id="linear-gradient-26" y1="0.5" x2="1" y2="0.5" gradientUnits="objectBoundingBox">
      <stop offset="0" stop-color="#ccc"/>
      <stop offset="0.262" stop-color="#c7c7c7"/>
      <stop offset="0.574" stop-color="#b8b8b8"/>
      <stop offset="0.909" stop-color="#a0a0a0"/>
      <stop offset="1" stop-color="#999"/>
    </linearGradient>
    <linearGradient id="linear-gradient-27" y1="0.5" x2="1" y2="0.5" gradientUnits="objectBoundingBox">
      <stop offset="0" stop-color="#748ba4"/>
      <stop offset="0.191" stop-color="#607898"/>
      <stop offset="0.488" stop-color="#49628b"/>
      <stop offset="0.765" stop-color="#3a5582"/>
      <stop offset="1" stop-color="#365180"/>
    </linearGradient>
    <linearGradient id="linear-gradient-28" x1="-5.073" y1="0.5" x2="-4.073" y2="0.5" xlink:href="#linear-gradient-15"/>
    <linearGradient id="linear-gradient-29" x1="-7.881" y1="0.5" x2="-6.881" y2="0.5" xlink:href="#linear-gradient-15"/>
    <linearGradient id="linear-gradient-32" x1="0.023" y1="0.278" x2="0.979" y2="0.715" gradientUnits="objectBoundingBox">
      <stop offset="0" stop-color="#748ba4"/>
      <stop offset="0.076" stop-color="#68809d"/>
      <stop offset="0.26" stop-color="#526b90"/>
      <stop offset="0.46" stop-color="#425c87"/>
      <stop offset="0.687" stop-color="#385381"/>
      <stop offset="1" stop-color="#365180"/>
    </linearGradient>
    <linearGradient id="linear-gradient-33" x1="-0.434" y1="0.5" x2="1.056" y2="0.5" xlink:href="#linear-gradient-27"/>
  </defs>
  <g id="Grupo_73630" data-name="Grupo 73630" transform="translate(-1165.78 -1222.803)">
    <g id="Grupo_73629" data-name="Grupo 73629" transform="translate(1165.78 1222.803)">
      <g id="Grupo_73570" data-name="Grupo 73570" opacity="0.25">
        <path id="Trazado_167617" data-name="Trazado 167617" d="M1619.416,1602.479c-22.771-4.347-76.084-36.243-52.338-64.964,14.772-17.867-28.05-29.607-14.286-48.262,10.728-14.54,59.993-15.714,84.581,8.43C1685.663,1545.1,1656.916,1609.638,1619.416,1602.479Z" transform="translate(-1330.279 -1332.412)" fill="#a0a603"/>
        <path id="Trazado_167618" data-name="Trazado 167618" d="M1329.5,1384.846c0,19.664-12.181,25.6-31.846,25.6s-39.366-5.934-39.366-25.6a35.606,35.606,0,1,1,71.212,0Z" transform="translate(-1205.383 -1276.932)" fill="#a0a603"/>
        <path id="Trazado_167619" data-name="Trazado 167619" d="M1422.831,1511.213c106.443.007-38.039-55.028,17.834-106.81,22.428-20.785,54.051-47.654,61.236-77.179,8.414-34.582-.9-81-36.826-97.215-31.847-14.372-76.913-8.937-92.914,31.809-13.106,33.37-24.839,54.871-52.273,76.56-33.017,26.1-82.752,52.359-107.619,3.545-20.637-40.512-82.67,60.546-17.392,83.794,129.95,46.28-46.146,86.915,51.077,85.5Z" transform="translate(-1165.78 -1222.803)" fill="#a0a603"/>
        <path id="Trazado_167620" data-name="Trazado 167620" d="M1543.045,1725.564c1.174-1.64,0-20.4-170.389-20.4-166,0-197.308,15.754-198.7,17.211-12.926,13.5,68.149,2.822,200.889,12.124C1389.676,1735.534,1534.29,1737.793,1543.045,1725.564Z" transform="translate(-1168.703 -1429.306)" fill="#a0a603"/>
        <path id="Trazado_167621" data-name="Trazado 167621" d="M1240.095,1379.951a4.213,4.213,0,1,1-3.93-3.93A4.213,4.213,0,0,1,1240.095,1379.951Z" transform="translate(-1193.992 -1288.394)" fill="#a0a603"/>
        <circle id="Elipse_4479" data-name="Elipse 4479" cx="3.408" cy="3.408" r="3.408" transform="translate(183.529 66.036)" fill="#a0a603"/>
        <circle id="Elipse_4480" data-name="Elipse 4480" cx="5.196" cy="5.196" r="5.196" transform="translate(324.905 148.547)" fill="#a0a603"/>
        <circle id="Elipse_4481" data-name="Elipse 4481" cx="5.196" cy="5.196" r="5.196" transform="translate(136.26 6.745)" fill="#a0a603"/>
        <circle id="Elipse_4482" data-name="Elipse 4482" cx="10.723" cy="10.723" r="10.723" transform="translate(31.195 231.969)" fill="#a0a603"/>
      </g>
      <g id="Grupo_73579" data-name="Grupo 73579" transform="translate(260.739 180.517)">
        <ellipse id="Elipse_4483" data-name="Elipse 4483" cx="57.92" cy="2.751" rx="57.92" ry="2.751" transform="translate(14.147 114.524)" fill="#ce9d6f" opacity="0.38"/>
        <g id="Grupo_73571" data-name="Grupo 73571" transform="translate(63.131 34.131)">
          <rect id="Rectángulo_21205" data-name="Rectángulo 21205" width="40.494" height="27.25" transform="translate(40.494 27.25) rotate(180)" fill="url(#linear-gradient)"/>
          <rect id="Rectángulo_21206" data-name="Rectángulo 21206" width="34.531" height="27.25" transform="translate(42.99 27.25) rotate(180)" fill="url(#linear-gradient-2)"/>
          <rect id="Rectángulo_21207" data-name="Rectángulo 21207" width="10.123" height="10.123" transform="translate(21.911 23.783) rotate(180)" fill="#f2f2f2"/>
          <rect id="Rectángulo_21208" data-name="Rectángulo 21208" width="2.982" height="5.547" transform="translate(5.478 5.547) rotate(180)" fill="url(#linear-gradient-3)"/>
          <rect id="Rectángulo_21209" data-name="Rectángulo 21209" width="3.398" height="5.547" transform="translate(26.695 5.547) rotate(180)" fill="url(#linear-gradient-4)"/>
          <rect id="Rectángulo_21210" data-name="Rectángulo 21210" width="6.032" height="0.485" transform="translate(20.94 15.74) rotate(180)" fill="#999"/>
          <rect id="Rectángulo_21211" data-name="Rectángulo 21211" width="6.032" height="0.485" transform="translate(20.94 16.919) rotate(180)" fill="#999"/>
          <rect id="Rectángulo_21212" data-name="Rectángulo 21212" width="6.032" height="0.485" transform="translate(20.94 18.097) rotate(180)" fill="#999"/>
          <rect id="Rectángulo_21213" data-name="Rectángulo 21213" width="6.032" height="0.485" transform="translate(20.94 19.276) rotate(180)" fill="#999"/>
          <rect id="Rectángulo_21214" data-name="Rectángulo 21214" width="7.766" height="0.485" transform="translate(20.94 20.94) rotate(180)" fill="#999"/>
          <rect id="Rectángulo_21215" data-name="Rectángulo 21215" width="7.766" height="0.485" transform="translate(20.94 22.119) rotate(180)" fill="#999"/>
        </g>
        <g id="Grupo_73572" data-name="Grupo 73572" transform="translate(57.466 0)">
          <rect id="Rectángulo_21216" data-name="Rectángulo 21216" width="32.789" height="34.77" transform="translate(32.789 34.77) rotate(180)" fill="url(#linear-gradient-5)"/>
          <rect id="Rectángulo_21217" data-name="Rectángulo 21217" width="27.961" height="34.77" transform="translate(39.938 34.77) rotate(180)" fill="url(#linear-gradient-6)"/>
          <rect id="Rectángulo_21218" data-name="Rectángulo 21218" width="13.298" height="3.959" transform="translate(38.593 32.527) rotate(180)" fill="#f2f2f2"/>
          <rect id="Rectángulo_21219" data-name="Rectángulo 21219" width="2.414" height="7.078" transform="translate(6.828 7.078) rotate(180)" fill="url(#linear-gradient-7)"/>
          <rect id="Rectángulo_21220" data-name="Rectángulo 21220" width="2.751" height="7.078" transform="translate(26.744 7.078) rotate(180)" fill="url(#linear-gradient-8)"/>
        </g>
        <g id="Grupo_73573" data-name="Grupo 73573" transform="translate(29.77 34.131)">
          <rect id="Rectángulo_21221" data-name="Rectángulo 21221" width="36.626" height="27.953" transform="translate(36.626 27.953) rotate(180)" fill="url(#linear-gradient-9)"/>
          <rect id="Rectángulo_21222" data-name="Rectángulo 21222" width="28.937" height="27.953" transform="translate(38.884 27.953) rotate(180)" fill="url(#linear-gradient-10)"/>
          <rect id="Rectángulo_21223" data-name="Rectángulo 21223" width="9.157" height="4.197" transform="translate(21.552 6.97) rotate(180)" fill="#f2f2f2"/>
          <rect id="Rectángulo_21224" data-name="Rectángulo 21224" width="2.99" height="8.021" transform="translate(6.453 27.937) rotate(180)" fill="#0a4427"/>
          <rect id="Rectángulo_21225" data-name="Rectángulo 21225" width="3.407" height="8.021" transform="translate(25.923 27.953) rotate(180)" fill="#0a4427"/>
        </g>
        <g id="Grupo_73574" data-name="Grupo 73574" transform="translate(30.633 8.776)">
          <rect id="Rectángulo_21226" data-name="Rectángulo 21226" width="29.865" height="25.731" transform="translate(29.865 25.731) rotate(180)" fill="url(#linear-gradient-11)"/>
          <rect id="Rectángulo_21227" data-name="Rectángulo 21227" width="23.595" height="25.731" transform="translate(35.808 25.731) rotate(180)" fill="url(#linear-gradient-12)"/>
          <rect id="Rectángulo_21228" data-name="Rectángulo 21228" width="2.438" height="7.384" transform="translate(6.629 25.716) rotate(180)" fill="url(#linear-gradient-13)"/>
          <rect id="Rectángulo_21229" data-name="Rectángulo 21229" width="2.778" height="7.384" transform="translate(25.239 25.731) rotate(180)" fill="url(#linear-gradient-14)"/>
        </g>
        <g id="Grupo_73578" data-name="Grupo 73578" transform="translate(0 2.669)">
          <g id="Grupo_73575" data-name="Grupo 73575" transform="translate(22.665 61.751)">
            <path id="Trazado_167622" data-name="Trazado 167622" d="M1669.2,1698.974h90.361a1.282,1.282,0,0,0,0-2.564H1669.2c-2.872,0-5.3-1.734-5.3-3.785v-34.582c0-2.051,2.426-3.785,5.3-3.785h.029l26.524-.6a1.282,1.282,0,0,0-.028-2.563h-.03l-26.51.6c-4.328.007-7.847,2.852-7.847,6.349v34.582C1661.337,1696.126,1664.864,1698.974,1669.2,1698.974Z" transform="translate(-1661.337 -1651.097)" fill="url(#linear-gradient-15)"/>
          </g>
          <g id="Grupo_73576" data-name="Grupo 73576" transform="translate(29.895 99.28)">
            <circle id="Elipse_4484" data-name="Elipse 4484" cx="7.506" cy="7.506" r="7.506" transform="matrix(0.23, -0.973, 0.973, 0.23, 0, 14.61)" fill="url(#linear-gradient-16)"/>
            <circle id="Elipse_4485" data-name="Elipse 4485" cx="4.211" cy="4.211" r="4.211" transform="translate(3.964 12.16) rotate(-76.717)" fill="url(#linear-gradient-17)"/>
          </g>
          <g id="Grupo_73577" data-name="Grupo 73577" transform="translate(95.666 98.502)">
            <circle id="Elipse_4486" data-name="Elipse 4486" cx="7.506" cy="7.506" r="7.506" transform="translate(0 5.745) rotate(-22.5)" fill="url(#linear-gradient-18)"/>
            <circle id="Elipse_4487" data-name="Elipse 4487" cx="4.211" cy="4.211" r="4.211" transform="translate(4.976 13.289) rotate(-80.783)" fill="url(#linear-gradient-17)"/>
          </g>
          <path id="Trazado_167623" data-name="Trazado 167623" d="M1623.028,1546.117l11.317,1.378h.091a1.949,1.949,0,0,1,1.9,1.537l.009.038,3,12.494,9.313,41.965a3.23,3.23,0,0,0,3.132,2.412h.084l81.366-2.082c1.694-.043,3.081-1.4,3.156-3.661l1.8-40.669a3.154,3.154,0,0,0-2.855-2.8l-.135-.01L1640.621,1554l-1.349-5.618a4.974,4.974,0,0,0-4.736-3.9l-11.144-1.357a1.5,1.5,0,0,0-.364,2.986Zm35.691,56.637-8.615-45.469,7.386.212,7.35,45.1Zm7.846-.2-7.334-45.007,7.457.214,5.789,44.642Zm7.629-.2-5.777-44.548,7.326.211,4.441,44.184Zm44.886-1.148-6.431.165-.135-42.3,6.577.189Zm1.72-41.9,6.871.2-.745,41.5-6.138.156Zm-9.86,42.1-6.022.154-.565-42.73,6.452.185Zm-7.731.2-5.962.153-1.578-43.176,6.973.2Zm-7.671.2-5.994.153-2.931-43.632,7.344.21Zm-7.7.2-5.936.152-4.432-44.091,7.43.213Zm45.326-1.16-4.523.115.744-41.4,5.642.162a.234.234,0,0,1,.17.234l-1.8,40.67a.233.233,0,0,1-.227.222Zm-91.741-43.814,6.936.2,8.633,45.564-5.194.133h-.005a.233.233,0,0,1-.22-.157Z" transform="translate(-1621.706 -1543.12)" fill="url(#linear-gradient-20)"/>
        </g>
      </g>
      <ellipse id="Elipse_4488" data-name="Elipse 4488" cx="21.231" cy="2.301" rx="21.231" ry="2.301" transform="translate(54.494 284.882)" fill="#ce9d6f" opacity="0.38"/>
      <g id="Grupo_73580" data-name="Grupo 73580" transform="translate(34.886 116.737)">
        <path id="Trazado_167624" data-name="Trazado 167624" d="M1325.949,1516.859a10.146,10.146,0,0,0-.078-1.343c-.023-.223-.046-.445-.062-.67a2.826,2.826,0,0,0-.493-1.438,7.1,7.1,0,0,1-1.392-4.644,37.244,37.244,0,0,0-1.235-6.653.847.847,0,0,0-1.026-.374,1.138,1.138,0,0,0-.166.062c-.308.145-.329.308-.349.807,0,.081-.006.163-.016.307a8.686,8.686,0,0,1-.436,2.539,16.076,16.076,0,0,1-3.889,6.144,2.047,2.047,0,0,1-.834.523,9.423,9.423,0,0,0-2.6,1.329,13.382,13.382,0,0,0-1.557,1.351c-.3.291-.617.591-.938.865a4.7,4.7,0,0,0-1.283,1.863,21.7,21.7,0,0,0-1.083,3.52,6.108,6.108,0,0,1-1.389,2.862c-.622.69-1.2,1.291-1.776,1.837a8.968,8.968,0,0,0-2.964,7.219,4.128,4.128,0,0,1-1.313,3.522c-.136.125-.27.255-.4.384-.264.258-.531.514-.8.772a28.333,28.333,0,0,0-2.763,2.909,8.3,8.3,0,0,0-1.989,6.328,8.194,8.194,0,0,0,.888,3.2,3.361,3.361,0,0,1-.018,3.51,3.924,3.924,0,0,0-.111,3.471c.093.218.2.429.3.637a10.9,10.9,0,0,1,1.07,3.522,5.76,5.76,0,0,1-.219,3.328,10.7,10.7,0,0,0-.647,2.027c-.113.457-.229.929-.388,1.4-.09.262-1.5,4.909-2.274,6.633-.219.489-.459.967-.7,1.442a21.007,21.007,0,0,0-1.073,2.377,86.358,86.358,0,0,1-4.9,11.584c-.27.508-.531,1.024-.792,1.539l-.04.078a26.942,26.942,0,0,1-3.285,5.393.924.924,0,0,0-.141.28c-.071.218-.006.24.051.26a1.151,1.151,0,0,0,1.17-.072l.1-.078a2.082,2.082,0,0,0,.444-.494c.965-1.4,1.82-2.935,2.613-4.382a55.264,55.264,0,0,0,3-6.157c.171-.432.344-.863.52-1.3.628-1.569,1.277-3.191,1.8-4.811a30.576,30.576,0,0,1,1.429-3.791,61.464,61.464,0,0,0,2.5-6.016,16.972,16.972,0,0,1,1.482-2.578,9.108,9.108,0,0,1,4.134-2.579,4.934,4.934,0,0,1,2.769-.029,2.4,2.4,0,0,0,1.308-.028,4.182,4.182,0,0,0,2.722-2.927c.026-.087.049-.176.077-.282.039-.148.078-.3.13-.439a4.738,4.738,0,0,1,2.641-3.124,12.287,12.287,0,0,0,3.209-1.966,8.448,8.448,0,0,0,2.774-3.891,9.894,9.894,0,0,0,.171-5.32,5.75,5.75,0,0,1,1.5-5.68,18.876,18.876,0,0,0,2.07-2.617l.2-.3a6.36,6.36,0,0,0,1.126-2.328c.433-2.565.258-4.465-.551-5.98a5.9,5.9,0,0,1-.316-4.267,12.014,12.014,0,0,1,2.4-5.158,6.541,6.541,0,0,0,1.689-4.1" transform="translate(-1250.743 -1458.937)" fill="#6f7302"/>
        <path id="Trazado_167625" data-name="Trazado 167625" d="M1289.46,1435.639a15.916,15.916,0,0,0-.636-1.576c-.115-.256-.229-.512-.339-.774a3.674,3.674,0,0,0-1.049-1.478,9.377,9.377,0,0,1-3.207-4.874c-.066-.225-4.372,4.307-5.192,7.059a2.716,2.716,0,0,1-.528,1.057,11.708,11.708,0,0,0-1.774,2.934,19.739,19.739,0,0,0-.828,2.425c-.149.506-.3,1.028-.477,1.523a7.767,7.767,0,0,0-.365,2.9,37.318,37.318,0,0,0,.513,4.79,10.437,10.437,0,0,1-.04,4.157c-.267,1.15-.535,2.17-.818,3.121a15.184,15.184,0,0,0,.384,10.206,6.978,6.978,0,0,1,.307,4.911c-.069.22-.135.444-.2.668-.128.447-.26.891-.392,1.339a44.385,44.385,0,0,0-1.253,4.917,14.076,14.076,0,0,0,.885,8.633,11.127,11.127,0,0,0,2.147,3.4,5.213,5.213,0,0,1,1.464,4.233,6.235,6.235,0,0,0,1.365,4.233c.176.215.358.415.542.61a14.575,14.575,0,0,1,2.445,3.689,9.369,9.369,0,0,1,1.207,4.117,18.578,18.578,0,0,0,.274,2.771c.092.608.187,1.235.241,1.879.03.361.721,6.677.757,9.147.01.7,0,1.4-.018,2.093-.022,1.115-.046,2.267.04,3.411a149.134,149.134,0,0,1,.488,16.452c-.027.749-.045,1.5-.061,2.258l0,.114a45.528,45.528,0,0,1-.672,8.174,1.559,1.559,0,0,0-.009.409c.028.3.1.293.155.287a1.049,1.049,0,0,0,1.02-.687l.056-.145a3.259,3.259,0,0,0,.191-.822c.274-2.185.4-4.465.5-6.613.125-2.688.246-5.818.1-8.947-.029-.607-.056-1.215-.084-1.835-.1-2.21-.2-4.5-.416-6.711a52.911,52.911,0,0,1-.317-5.293c.011-3.016-.085-5.8-.292-8.522a28.829,28.829,0,0,1,.242-3.862,10.52,10.52,0,0,1,1.908-4.325,8.741,8.741,0,0,1,.713-.9,4.257,4.257,0,0,1,2.472-1.455,2.081,2.081,0,0,0,1.162-.705,6.39,6.39,0,0,0,1.208-4.918c-.013-.118-.03-.236-.05-.378-.027-.2-.055-.4-.069-.6-.163-2.3.172-3.927,1.052-5.115a16.213,16.213,0,0,0,2.05-4.011,13.885,13.885,0,0,0,.847-6.1,15.924,15.924,0,0,0-2.089-6.489,9.6,9.6,0,0,1-1.049-7.6,30.683,30.683,0,0,0,.754-4.21l.05-.462a10.906,10.906,0,0,0,.029-3.378c-.693-3.308-1.652-5.5-3.017-6.912a8.949,8.949,0,0,1-2.083-4.973,20.618,20.618,0,0,1-.018-7.439,11.164,11.164,0,0,0-.214-5.8" transform="translate(-1246.688 -1426.929)" fill="#6f7302"/>
        <path id="Trazado_167626" data-name="Trazado 167626" d="M1240.611,1528.238a9.694,9.694,0,0,0-1.042-.75c-.178-.117-.357-.234-.533-.357a2.7,2.7,0,0,0-1.359-.5,6.775,6.775,0,0,1-4.269-1.763,35.712,35.712,0,0,0-5.666-3.086.8.8,0,0,0-.885.535,1.012,1.012,0,0,0-.052.16c-.076.315.033.429.392.744.058.051.117.1.218.2a8.373,8.373,0,0,1,1.624,1.849,15.479,15.479,0,0,1,2.249,6.572,1.952,1.952,0,0,1-.107.932,8.972,8.972,0,0,0-.557,2.724,12.75,12.75,0,0,0,.078,1.965c.036.4.072.812.085,1.215a4.526,4.526,0,0,0,.621,2.069,20.819,20.819,0,0,0,1.968,2.917,5.887,5.887,0,0,1,1.3,2.75c.143.875.244,1.666.309,2.418a8.639,8.639,0,0,0,3.595,6.535,3.975,3.975,0,0,1,1.832,3.089c.012.176.029.352.046.529.036.351.067.7.1,1.056a27.218,27.218,0,0,0,.519,3.793,7.993,7.993,0,0,0,3.512,5.277,7.829,7.829,0,0,0,2.9,1.269,3.227,3.227,0,0,1,2.592,2.124,3.772,3.772,0,0,0,2.508,2.169c.217.062.435.112.652.158a10.4,10.4,0,0,1,3.246,1.326,5.541,5.541,0,0,1,2.338,2.164,10.318,10.318,0,0,0,1.12,1.7c.272.358.554.728.805,1.126.141.224,2.749,4.064,3.57,5.671.232.455.444.921.655,1.383a20.254,20.254,0,0,0,1.126,2.223,83.353,83.353,0,0,1,5.683,10.592c.217.506.444,1.008.671,1.511l.035.076a26,26,0,0,1,2.052,5.674.889.889,0,0,0,.124.273c.119.183.174.149.223.119a1.088,1.088,0,0,0,.64-.909v-.12a1.975,1.975,0,0,0-.1-.625c-.469-1.558-1.1-3.112-1.7-4.569a53.215,53.215,0,0,0-2.786-5.923c-.219-.386-.437-.773-.658-1.168-.791-1.409-1.609-2.865-2.5-4.224a29.546,29.546,0,0,1-1.963-3.336,58.991,58.991,0,0,0-2.977-5.469,16.319,16.319,0,0,1-1.033-2.647,8.688,8.688,0,0,1,.538-4.609,4.647,4.647,0,0,1,1.62-2.066,2.263,2.263,0,0,0,.755-.985,4.013,4.013,0,0,0-.556-3.774c-.049-.072-.1-.142-.164-.227-.087-.118-.173-.235-.249-.36a4.55,4.55,0,0,1-.75-3.833,11.7,11.7,0,0,0,.445-3.557,8.126,8.126,0,0,0-1.24-4.392,9.509,9.509,0,0,0-3.843-3.325,5.537,5.537,0,0,1-3.322-4.526,18.126,18.126,0,0,0-.713-3.105l-.105-.327a6.134,6.134,0,0,0-1.058-2.232,8.772,8.772,0,0,0-4.761-3.188,5.655,5.655,0,0,1-3.351-2.333,11.587,11.587,0,0,1-2.4-4.88,6.3,6.3,0,0,0-2.04-3.716" transform="translate(-1226.781 -1467.528)" fill="#6f7302"/>
        <path id="Trazado_167627" data-name="Trazado 167627" d="M1283.252,1685.194l13.565.064c2.228-.082,4.023-12.383,4.047-16.672.049-9.018-3.539-35.9-3.539-35.9l-16.742-.137s-2.547,27.386-2.1,36.521C1278.687,1673.272,1281.016,1685.277,1283.252,1685.194Z" transform="translate(-1248.893 -1514.959)" fill="url(#linear-gradient-21)"/>
      </g>
      <ellipse id="Elipse_4489" data-name="Elipse 4489" cx="86.413" cy="4.101" rx="86.413" ry="4.101" transform="translate(84.977 285.651)" fill="#ce9d6f" opacity="0.38"/>
      <g id="Grupo_73627" data-name="Grupo 73627" transform="translate(99.045 29.966)">
        <rect id="Rectángulo_21230" data-name="Rectángulo 21230" width="260.697" height="134.161" rx="13" transform="translate(134.161 0) rotate(90)" fill="url(#linear-gradient-22)"/>
        <rect id="Rectángulo_21231" data-name="Rectángulo 21231" width="257.267" height="130.732" rx="65.366" transform="translate(132.447 1.715) rotate(90)" fill="url(#linear-gradient-23)"/>
        <rect id="Rectángulo_21232" data-name="Rectángulo 21232" width="255.307" height="128.726" rx="8" transform="translate(131.444 2.695) rotate(90)" fill="url(#linear-gradient-24)"/>
        <rect id="Rectángulo_21233" data-name="Rectángulo 21233" width="250.741" height="124.206" rx="11" transform="translate(129.93 5.745) rotate(90)" fill="#f2f2f2"/>
        <path id="Trazado_167628" data-name="Trazado 167628" d="M1347.219,1295.487v-4.674c0-4.393,3.121-7.434,8.253-7.434h107.7c5.132,0,8.513,3.042,8.513,7.434v4.674Z" transform="translate(-1342.501 -1278.702)" fill="url(#linear-gradient-21)"/>
        <rect id="Rectángulo_21234" data-name="Rectángulo 21234" width="48.528" height="1.2" transform="translate(42.448 9.093)" fill="url(#linear-gradient-26)"/>
        <g id="Grupo_73582" data-name="Grupo 73582" transform="translate(98.793 25.168)">
          <g id="Grupo_73581" data-name="Grupo 73581">
            <path id="Trazado_167629" data-name="Trazado 167629" d="M1519.421,1325.256h-5l-1.168-5.63h-1.332a.208.208,0,0,1,0-.417h1.671l.32,1.543h6.837Zm-4.657-.417h4.345l1.086-3.67H1514Z" transform="translate(-1511.717 -1319.209)" fill="#ed1c24"/>
          </g>
          <path id="Trazado_167630" data-name="Trazado 167630" d="M1518.4,1330.824a.459.459,0,1,1-.459-.459A.459.459,0,0,1,1518.4,1330.824Z" transform="translate(-1514.183 -1323.985)" fill="#ed1c24"/>
          <path id="Trazado_167631" data-name="Trazado 167631" d="M1523.427,1330.824a.459.459,0,1,1-.459-.459A.459.459,0,0,1,1523.427,1330.824Z" transform="translate(-1516.337 -1323.985)" fill="#ed1c24"/>
        </g>
        <g id="Grupo_73584" data-name="Grupo 73584" transform="translate(112.269 25.308)">
          <path id="Trazado_167632" data-name="Trazado 167632" d="M1539.008,1324.771a.459.459,0,1,1-.459-.458A.459.459,0,0,1,1539.008,1324.771Z" transform="translate(-1536.485 -1321.534)" fill="#ed1c24"/>
          <path id="Trazado_167633" data-name="Trazado 167633" d="M1542.144,1324.771a.459.459,0,1,1-.459-.458A.459.459,0,0,1,1542.144,1324.771Z" transform="translate(-1537.827 -1321.534)" fill="#ed1c24"/>
          <circle id="Elipse_4490" data-name="Elipse 4490" cx="0.459" cy="0.459" r="0.459" transform="translate(5.193 2.778)" fill="#ed1c24"/>
          <g id="Grupo_73583" data-name="Grupo 73583">
            <path id="Trazado_167634" data-name="Trazado 167634" d="M1535.933,1326.612l.946-1.368a3.053,3.053,0,0,1-1.6-2.586c0-1.766,1.749-3.2,3.9-3.2s3.9,1.437,3.9,3.2-1.749,3.2-3.9,3.2a4.706,4.706,0,0,1-1.013-.109Zm3.25-6.78c-1.943,0-3.523,1.268-3.523,2.826a2.731,2.731,0,0,0,1.581,2.357l.187.1-.489.708,1.2-.464.057.013a4.337,4.337,0,0,0,.985.112c1.942,0,3.523-1.268,3.523-2.826S1541.124,1319.832,1539.182,1319.832Z" transform="translate(-1535.282 -1319.455)" fill="#ed1c24"/>
          </g>
        </g>
        <circle id="Elipse_4491" data-name="Elipse 4491" cx="2.142" cy="2.142" r="2.142" transform="matrix(0.383, -0.924, 0.924, 0.383, 116.491, 26.466)" fill="#f7931e"/>
        <circle id="Elipse_4492" data-name="Elipse 4492" cx="2.142" cy="2.142" r="2.142" transform="translate(105.221 26.899) rotate(-76.718)" fill="#f7931e"/>
        <g id="Grupo_73588" data-name="Grupo 73588" transform="translate(12.426 50.31)">
          <rect id="Rectángulo_21235" data-name="Rectángulo 21235" width="48.987" height="33.94" fill="#fff"/>
          <rect id="Rectángulo_21236" data-name="Rectángulo 21236" width="48.987" height="11.901" transform="translate(0 28.739)" fill="#e6e6e6"/>
          <g id="Grupo_73585" data-name="Grupo 73585" transform="translate(2.987 31.383)">
            <path id="Trazado_167635" data-name="Trazado 167635" d="M1393.528,1418.93H1366.36a.441.441,0,1,1,0-.882h27.168a.441.441,0,1,1,0,.882Z" transform="translate(-1365.919 -1418.048)" fill="#afaeaa"/>
          </g>
          <g id="Grupo_73586" data-name="Grupo 73586" transform="translate(2.987 34.292)">
            <path id="Trazado_167636" data-name="Trazado 167636" d="M1393.528,1424.017H1366.36a.441.441,0,1,1,0-.882h27.168a.441.441,0,1,1,0,.882Z" transform="translate(-1365.919 -1423.135)" fill="#afaeaa"/>
          </g>
          <g id="Grupo_73587" data-name="Grupo 73587" transform="translate(2.987 37.202)">
            <path id="Trazado_167637" data-name="Trazado 167637" d="M1383.208,1429.1H1366.36a.441.441,0,1,1,0-.881h16.848a.441.441,0,1,1,0,.881Z" transform="translate(-1365.919 -1428.222)" fill="#afaeaa"/>
          </g>
        </g>
        <g id="Grupo_73592" data-name="Grupo 73592" transform="translate(72.391 50.31)">
          <rect id="Rectángulo_21237" data-name="Rectángulo 21237" width="48.987" height="33.94" fill="#fff"/>
          <rect id="Rectángulo_21238" data-name="Rectángulo 21238" width="48.987" height="11.901" transform="translate(0 28.739)" fill="#e6e6e6"/>
          <g id="Grupo_73589" data-name="Grupo 73589" transform="translate(2.987 31.383)">
            <path id="Trazado_167638" data-name="Trazado 167638" d="M1498.384,1418.93h-27.168a.441.441,0,0,1,0-.882h27.168a.441.441,0,0,1,0,.882Z" transform="translate(-1470.775 -1418.048)" fill="#afaeaa"/>
          </g>
          <g id="Grupo_73590" data-name="Grupo 73590" transform="translate(2.987 34.292)">
            <path id="Trazado_167639" data-name="Trazado 167639" d="M1498.384,1424.017h-27.168a.441.441,0,0,1,0-.882h27.168a.441.441,0,0,1,0,.882Z" transform="translate(-1470.775 -1423.135)" fill="#afaeaa"/>
          </g>
          <g id="Grupo_73591" data-name="Grupo 73591" transform="translate(2.987 37.202)">
            <path id="Trazado_167640" data-name="Trazado 167640" d="M1488.064,1429.1h-16.848a.441.441,0,1,1,0-.881h16.848a.441.441,0,1,1,0,.881Z" transform="translate(-1470.775 -1428.222)" fill="#afaeaa"/>
          </g>
        </g>
        <g id="Grupo_73596" data-name="Grupo 73596" transform="translate(12.426 101.104)">
          <rect id="Rectángulo_21239" data-name="Rectángulo 21239" width="48.987" height="33.94" fill="#fff"/>
          <rect id="Rectángulo_21240" data-name="Rectángulo 21240" width="48.987" height="11.901" transform="translate(0 28.739)" fill="#e6e6e6"/>
          <g id="Grupo_73593" data-name="Grupo 73593" transform="translate(2.987 31.383)">
            <path id="Trazado_167641" data-name="Trazado 167641" d="M1393.528,1507.749H1366.36a.441.441,0,1,1,0-.882h27.168a.441.441,0,1,1,0,.882Z" transform="translate(-1365.919 -1506.867)" fill="#afaeaa"/>
          </g>
          <g id="Grupo_73594" data-name="Grupo 73594" transform="translate(2.987 34.292)">
            <path id="Trazado_167642" data-name="Trazado 167642" d="M1393.528,1512.836H1366.36a.441.441,0,1,1,0-.882h27.168a.441.441,0,1,1,0,.882Z" transform="translate(-1365.919 -1511.954)" fill="#afaeaa"/>
          </g>
          <g id="Grupo_73595" data-name="Grupo 73595" transform="translate(2.987 37.202)">
            <path id="Trazado_167643" data-name="Trazado 167643" d="M1383.208,1517.922H1366.36a.441.441,0,1,1,0-.881h16.848a.441.441,0,1,1,0,.881Z" transform="translate(-1365.919 -1517.041)" fill="#afaeaa"/>
          </g>
        </g>
        <rect id="Rectángulo_21241" data-name="Rectángulo 21241" width="48.987" height="33.94" transform="translate(72.391 101.104)" fill="#fff"/>
        <rect id="Rectángulo_21242" data-name="Rectángulo 21242" width="48.987" height="11.901" transform="translate(72.391 129.843)" fill="#e6e6e6"/>
        <g id="Grupo_73597" data-name="Grupo 73597" transform="translate(75.378 132.487)">
          <path id="Trazado_167644" data-name="Trazado 167644" d="M1498.384,1507.749h-27.168a.441.441,0,0,1,0-.882h27.168a.441.441,0,0,1,0,.882Z" transform="translate(-1470.775 -1506.867)" fill="#afaeaa"/>
        </g>
        <g id="Grupo_73598" data-name="Grupo 73598" transform="translate(75.378 135.396)">
          <path id="Trazado_167645" data-name="Trazado 167645" d="M1498.384,1512.836h-27.168a.441.441,0,0,1,0-.882h27.168a.441.441,0,0,1,0,.882Z" transform="translate(-1470.775 -1511.954)" fill="#afaeaa"/>
        </g>
        <g id="Grupo_73599" data-name="Grupo 73599" transform="translate(75.378 138.306)">
          <path id="Trazado_167646" data-name="Trazado 167646" d="M1488.064,1517.922h-16.848a.441.441,0,1,1,0-.881h16.848a.441.441,0,1,1,0,.881Z" transform="translate(-1470.775 -1517.041)" fill="#afaeaa"/>
        </g>
        <g id="Grupo_73603" data-name="Grupo 73603" transform="translate(12.426 151.899)">
          <rect id="Rectángulo_21243" data-name="Rectángulo 21243" width="48.987" height="33.94" fill="#fff"/>
          <rect id="Rectángulo_21244" data-name="Rectángulo 21244" width="48.987" height="11.901" transform="translate(0 28.739)" fill="#e6e6e6"/>
          <g id="Grupo_73600" data-name="Grupo 73600" transform="translate(2.987 31.383)">
            <path id="Trazado_167647" data-name="Trazado 167647" d="M1393.528,1596.568H1366.36a.441.441,0,1,1,0-.882h27.168a.441.441,0,1,1,0,.882Z" transform="translate(-1365.919 -1595.686)" fill="#afaeaa"/>
          </g>
          <g id="Grupo_73601" data-name="Grupo 73601" transform="translate(2.987 34.292)">
            <path id="Trazado_167648" data-name="Trazado 167648" d="M1393.528,1601.655H1366.36a.441.441,0,1,1,0-.882h27.168a.441.441,0,1,1,0,.882Z" transform="translate(-1365.919 -1600.773)" fill="#afaeaa"/>
          </g>
          <g id="Grupo_73602" data-name="Grupo 73602" transform="translate(2.987 37.202)">
            <path id="Trazado_167649" data-name="Trazado 167649" d="M1383.208,1606.741H1366.36a.441.441,0,1,1,0-.881h16.848a.441.441,0,1,1,0,.881Z" transform="translate(-1365.919 -1605.86)" fill="#afaeaa"/>
          </g>
        </g>
        <g id="Grupo_73607" data-name="Grupo 73607" transform="translate(72.391 151.899)">
          <rect id="Rectángulo_21245" data-name="Rectángulo 21245" width="48.987" height="33.94" fill="#fff"/>
          <rect id="Rectángulo_21246" data-name="Rectángulo 21246" width="48.987" height="11.901" transform="translate(0 28.739)" fill="#e6e6e6"/>
          <g id="Grupo_73604" data-name="Grupo 73604" transform="translate(2.987 31.383)">
            <path id="Trazado_167650" data-name="Trazado 167650" d="M1498.384,1596.568h-27.168a.441.441,0,0,1,0-.882h27.168a.441.441,0,1,1,0,.882Z" transform="translate(-1470.775 -1595.686)" fill="#afaeaa"/>
          </g>
          <g id="Grupo_73605" data-name="Grupo 73605" transform="translate(2.987 34.292)">
            <path id="Trazado_167651" data-name="Trazado 167651" d="M1498.384,1601.655h-27.168a.441.441,0,0,1,0-.882h27.168a.441.441,0,1,1,0,.882Z" transform="translate(-1470.775 -1600.773)" fill="#afaeaa"/>
          </g>
          <g id="Grupo_73606" data-name="Grupo 73606" transform="translate(2.987 37.202)">
            <path id="Trazado_167652" data-name="Trazado 167652" d="M1488.064,1606.741h-16.848a.441.441,0,0,1,0-.881h16.848a.441.441,0,1,1,0,.881Z" transform="translate(-1470.775 -1605.86)" fill="#afaeaa"/>
          </g>
        </g>
        <g id="Grupo_73611" data-name="Grupo 73611" transform="translate(12.426 202.693)">
          <rect id="Rectángulo_21247" data-name="Rectángulo 21247" width="48.987" height="33.94" fill="#fff"/>
          <rect id="Rectángulo_21248" data-name="Rectángulo 21248" width="48.987" height="11.901" transform="translate(0 28.739)" fill="#e6e6e6"/>
          <g id="Grupo_73608" data-name="Grupo 73608" transform="translate(2.987 31.383)">
            <path id="Trazado_167653" data-name="Trazado 167653" d="M1393.528,1685.387H1366.36a.441.441,0,1,1,0-.882h27.168a.441.441,0,1,1,0,.882Z" transform="translate(-1365.919 -1684.505)" fill="#afaeaa"/>
          </g>
          <g id="Grupo_73609" data-name="Grupo 73609" transform="translate(2.987 34.292)">
            <path id="Trazado_167654" data-name="Trazado 167654" d="M1393.528,1690.473H1366.36a.441.441,0,1,1,0-.881h27.168a.441.441,0,1,1,0,.881Z" transform="translate(-1365.919 -1689.592)" fill="#afaeaa"/>
          </g>
          <g id="Grupo_73610" data-name="Grupo 73610" transform="translate(2.987 37.202)">
            <path id="Trazado_167655" data-name="Trazado 167655" d="M1383.208,1695.56H1366.36a.441.441,0,1,1,0-.881h16.848a.441.441,0,1,1,0,.881Z" transform="translate(-1365.919 -1694.679)" fill="#afaeaa"/>
          </g>
        </g>
        <g id="Grupo_73615" data-name="Grupo 73615" transform="translate(72.391 202.693)">
          <rect id="Rectángulo_21249" data-name="Rectángulo 21249" width="48.987" height="33.94" fill="#fff"/>
          <rect id="Rectángulo_21250" data-name="Rectángulo 21250" width="48.987" height="11.901" transform="translate(0 28.739)" fill="#e6e6e6"/>
          <g id="Grupo_73612" data-name="Grupo 73612" transform="translate(2.987 31.383)">
            <path id="Trazado_167656" data-name="Trazado 167656" d="M1498.384,1685.387h-27.168a.441.441,0,0,1,0-.882h27.168a.441.441,0,1,1,0,.882Z" transform="translate(-1470.775 -1684.505)" fill="#afaeaa"/>
          </g>
          <g id="Grupo_73613" data-name="Grupo 73613" transform="translate(2.987 34.292)">
            <path id="Trazado_167657" data-name="Trazado 167657" d="M1498.384,1690.473h-27.168a.441.441,0,1,1,0-.881h27.168a.441.441,0,1,1,0,.881Z" transform="translate(-1470.775 -1689.592)" fill="#afaeaa"/>
          </g>
          <g id="Grupo_73614" data-name="Grupo 73614" transform="translate(2.987 37.202)">
            <path id="Trazado_167658" data-name="Trazado 167658" d="M1488.064,1695.56h-16.848a.441.441,0,1,1,0-.881h16.848a.441.441,0,1,1,0,.881Z" transform="translate(-1470.775 -1694.679)" fill="#afaeaa"/>
          </g>
        </g>
        <g id="Grupo_73618" data-name="Grupo 73618" transform="translate(10.708 24.981)">
          <rect id="Rectángulo_21251" data-name="Rectángulo 21251" width="84.073" height="7.941" fill="#fff"/>
          <g id="Grupo_73617" data-name="Grupo 73617" transform="translate(1.522 1.624)">
            <path id="Trazado_167659" data-name="Trazado 167659" d="M1363.98,1323.536a1.813,1.813,0,1,1-1.812-1.813A1.813,1.813,0,0,1,1363.98,1323.536Z" transform="translate(-1360.355 -1321.723)" fill="none" stroke="#4d4d4d" stroke-miterlimit="10" stroke-width="1.524"/>
            <g id="Grupo_73616" data-name="Grupo 73616" transform="translate(2.938 3.053)">
              <path id="Trazado_167660" data-name="Trazado 167660" d="M1366.557,1328.128a.172.172,0,0,1-.109-.039l-.89-.717a.175.175,0,1,1,.219-.272l.89.717a.175.175,0,0,1-.11.311Z" transform="translate(-1365.493 -1327.061)" fill="#afaeaa" stroke="#4d4d4d" stroke-miterlimit="10" stroke-width="0.73"/>
            </g>
          </g>
        </g>
        <g id="Grupo_73619" data-name="Grupo 73619" transform="translate(80.54 156.554)">
          <path id="Trazado_167661" data-name="Trazado 167661" d="M1479.9,1565.1h31.8a15.245,15.245,0,0,0,.167-4.694c-.284-2.213-.244-7.142-1.064-8.9,0,0-9.166-5.66-11.005-.141-.988,2.963-7.735,8.625-10.839,8.947C1485.406,1560.683,1479.845,1561.939,1479.9,1565.1Z" transform="translate(-1479.845 -1548.949)" fill="url(#linear-gradient-27)"/>
          <path id="Trazado_167662" data-name="Trazado 167662" d="M1510.93,1579.69h-30.047l-1.081-2.6h31.858Z" transform="translate(-1479.802 -1560.995)" fill="gray"/>
        </g>
        <g id="Grupo_73620" data-name="Grupo 73620" transform="translate(19.196 107.06)">
          <path id="Trazado_167663" data-name="Trazado 167663" d="M1372.637,1477.486h31.8a15.236,15.236,0,0,0,.167-4.693c-.284-2.213-.244-7.143-1.064-8.9,0,0-4.693,1.973-6.74.182-1.215-1.063-3.38-2.982-4.266-.323-.988,2.963-7.736,8.626-10.84,8.948C1378.139,1473.069,1372.578,1474.325,1372.637,1477.486Z" transform="translate(-1372.578 -1462.406)" fill="#42210b"/>
          <path id="Trazado_167664" data-name="Trazado 167664" d="M1403.663,1491.274h-6.283l-2.1-1.822-1.766,1.822h-19.9l-1.081-2.6h31.858Z" transform="translate(-1372.535 -1473.651)" fill="gray"/>
        </g>
        <g id="Grupo_73621" data-name="Grupo 73621" transform="translate(19.164 163.345)">
          <path id="Trazado_167665" data-name="Trazado 167665" d="M1404.555,1570.184h-31.8a15.244,15.244,0,0,1-.167-4.694c.284-2.213.928-2.91,1.748-4.666a68.477,68.477,0,0,0,12.222.049c2-.212,5.834,4.2,8.938,4.524C1399.052,1565.766,1404.613,1567.023,1404.555,1570.184Z" transform="translate(-1372.479 -1560.824)" fill="#1b1464"/>
          <path id="Trazado_167666" data-name="Trazado 167666" d="M1372.757,1578.843h8.041s.63-1.144.869-1.137c.219.006,1.173,1.137,1.173,1.137H1404.5l.234-1.756h-31.858Z" transform="translate(-1372.598 -1567.786)" fill="gray"/>
        </g>
        <g id="Grupo_73622" data-name="Grupo 73622" transform="translate(19.2 59.079)">
          <path id="Trazado_167667" data-name="Trazado 167667" d="M1372.646,1390.548h31.8a15.238,15.238,0,0,0,.167-4.693,22.29,22.29,0,0,0-1.583-6.287,22.71,22.71,0,0,1-9.521,1.033c-.053-.007,1.777-3.918-3.081-1.033,0,0-6.226,4.1-9.262,4.859C1377.7,1385.293,1372.661,1385.034,1372.646,1390.548Z" transform="translate(-1372.587 -1378.506)" fill="url(#linear-gradient-28)"/>
          <path id="Trazado_167668" data-name="Trazado 167668" d="M1404.518,1401.216h-8.041s-.748-1.385-.987-1.379c-.219.006-1.055,1.379-1.055,1.379h-21.657l-.234-1.756H1404.4Z" transform="translate(-1372.543 -1387.477)" fill="gray"/>
        </g>
        <g id="Grupo_73623" data-name="Grupo 73623" transform="translate(20.834 212.997)">
          <path id="Trazado_167669" data-name="Trazado 167669" d="M1407.474,1657.006h-31.8a15.224,15.224,0,0,1-.167-4.693c.284-2.213.929-2.91,1.748-4.666a44.115,44.115,0,0,0,12.2.808c2-.212,5.861,3.444,8.965,3.766C1401.972,1652.588,1407.533,1653.845,1407.474,1657.006Z" transform="translate(-1375.399 -1647.646)" fill="url(#linear-gradient-29)"/>
          <path id="Trazado_167670" data-name="Trazado 167670" d="M1375.678,1665.315h8.041s.6-.475.836-.468a7.479,7.479,0,0,1,1.207.468h21.657l.235-1.756h-21.892a7.494,7.494,0,0,0-1.2-.469c-.24-.007-.84.469-.84.469H1375.8Z" transform="translate(-1375.518 -1654.258)" fill="gray"/>
        </g>
        <g id="Grupo_73624" data-name="Grupo 73624" transform="translate(80.394 60.909)">
          <path id="Trazado_167671" data-name="Trazado 167671" d="M1511.631,1391.348h-31.8a15.241,15.241,0,0,1-.167-4.693,14.072,14.072,0,0,1,1.748-4.948,38.288,38.288,0,0,0,11.043.564c2-.212,5.5,3.528,10.864,3.809C1507.153,1386.282,1511.689,1388.187,1511.631,1391.348Z" transform="translate(-1479.549 -1381.706)" fill="#f7931e"/>
          <path id="Trazado_167672" data-name="Trazado 167672" d="M1479.71,1399.373h31.741l.234-1.756-32.14-1.129Z" transform="translate(-1479.545 -1388.035)" fill="gray"/>
        </g>
        <g id="Grupo_73625" data-name="Grupo 73625" transform="translate(81.717 112.521)">
          <path id="Trazado_167673" data-name="Trazado 167673" d="M1481.962,1481.458h31.8a15.247,15.247,0,0,0,.168-4.693c-.284-2.213-14.6,5.216-12.792-4.384.372-1.975-5.5,3.527-10.864,3.81C1486.439,1476.393,1481.9,1478.3,1481.962,1481.458Z" transform="translate(-1481.903 -1471.954)" fill="#383736"/>
          <path id="Trazado_167674" data-name="Trazado 167674" d="M1513.834,1489.382h-31.74l-.234-1.756L1514,1486.5Z" transform="translate(-1481.859 -1478.18)" fill="gray"/>
        </g>
        <g id="Grupo_73626" data-name="Grupo 73626" transform="translate(79.136 214.504)">
          <path id="Trazado_167675" data-name="Trazado 167675" d="M1477.448,1659.385h31.8s1.36-5.248-.519-7.82a15.26,15.26,0,0,0-3.132.9c-1.511.672-8.3,3.446-11.085,3.341-.7-.026,5.314-4.859,2.111-5.5-1.971-.395-5.5,3.527-10.864,3.809C1481.925,1654.32,1477.389,1656.224,1477.448,1659.385Z" transform="translate(-1477.389 -1650.28)" fill="#998675"/>
          <path id="Trazado_167676" data-name="Trazado 167676" d="M1509.321,1667.009h-31.74l-.234-1.756,32.14-1.129Z" transform="translate(-1477.346 -1656.207)" fill="#564c42"/>
        </g>
      </g>
      <ellipse id="Elipse_4493" data-name="Elipse 4493" cx="44.093" cy="2.751" rx="44.093" ry="2.751" transform="translate(192.204 295.887)" fill="#ce9d6f" opacity="0.38"/>
      <g id="Grupo_73628" data-name="Grupo 73628" transform="translate(196.862 91.721)">
        <path id="Trazado_167677" data-name="Trazado 167677" d="M1582.731,1436.927l2.749,2.291,1.848,6.007-1.594-.106-2.31-2.185Z" transform="translate(-1541.143 -1406.193)" fill="#6f7302"/>
        <path id="Trazado_167678" data-name="Trazado 167678" d="M1581.637,1496.847a36.928,36.928,0,0,0,5.545,8.2c3.35,3.581,14.787,9.589,14.787,9.589l1.271,2.426s2.426-1.271,3.812,0,2.542,2.542,2.542,2.542a7.143,7.143,0,0,0,4.736,1.271c1.386-.231-.347-3.812-.347-3.812a5.5,5.5,0,0,0-3.812-3.12c-3-.809-7.162-4.736-9.242-7.278s-7.393-11.09-11.552-14.094-5.429-9.588-5.429-9.588l-4.853,6.123Z" transform="translate(-1539.586 -1425.911)" fill="#ffd2b7"/>
        <path id="Trazado_167679" data-name="Trazado 167679" d="M1584.256,1724.876a27,27,0,0,0-.924,5.808c.115,1.854.462,4.7.462,4.7s3.554.1,8.154.225c3.573.1,7.778.962,11.437,1.073a86.7,86.7,0,0,0,8.828-.433c1.617.123,1.252-2.652.578-3.09-3.235-2.1-6.007-1.483-11.09-5.314-2.612-1.969-5.2-5.19-5.43-6.8Z" transform="translate(-1541.396 -1527.827)" fill="url(#linear-gradient-21)"/>
        <path id="Trazado_167680" data-name="Trazado 167680" d="M1520.754,1683.178s-6.47-.618-10.744,1.978c0,0,2.311,7.292,3.812,11.741s3.12,11.988,6.239,15.572,4.505,2.966,4.505,2.966,1.848-.618.924-4.573-1.617-6.179-1.617-9.392c0-2.764,3-8.528,3-8.528Z" transform="translate(-1510.01 -1511.589)" fill="url(#linear-gradient-21)"/>
        <path id="Trazado_167681" data-name="Trazado 167681" d="M1525.348,1629.584s6.7-5.932,8.548-6.426,18.368-18.538,18.368-18.538l-3.812-44.862,18.484-1.254s.116,10.275.693,13.241,2.657,13.1,2.888,19.774,1.271,15.82,0,17.3-14.672,11.741-17.329,14.707-11.437,9.393-14.094,10.876-6.585,7.168-6.585,7.168-3.119.618-5.314-3.089S1525.348,1629.584,1525.348,1629.584Z" transform="translate(-1516.568 -1458.242)" fill="url(#linear-gradient-32)"/>
        <path id="Trazado_167682" data-name="Trazado 167682" d="M1564.955,1429.552s1.155-13.516.693-15.249l13.17,7.047s-2.888,4.967-1.155,10.166l2.657,10.4-15.307.4Z" transform="translate(-1533.532 -1396.508)" fill="#ffd2b7"/>
        <path id="Trazado_167683" data-name="Trazado 167683" d="M1570.207,1443.593l10.282,2.888a88.746,88.746,0,0,1,9.7,39.971c0,7.166,3.234,30.383,3.234,30.383s-6.123,1.386-8.664,0Z" transform="translate(-1535.781 -1409.047)" fill="#fff"/>
        <path id="Trazado_167684" data-name="Trazado 167684" d="M1548.954,1568.615s3.7,8.033,4.505,9.021,1.271,13.348,3.466,20.392,2.772,12.606,2.772,22.493,3.7,23.482,5.429,26.694,2.542,3.832,2.542,6.551,1.733,1.978,1.04,3.213.231,4.573.231,4.573,6.354-.865,8.433-2.348a17.384,17.384,0,0,1,4.968-2.225s-.63-5.47-1.329-6.117a6.562,6.562,0,0,1-1.848-4.079c-.251-2.593-3.466-5.562-4.39-13.347s-.924-17.673-.924-17.673,1.5-1.36,2.079-6.179,1.04-40.165,1.04-40.165l-28.072-1.484" transform="translate(-1526.657 -1462.279)" fill="url(#linear-gradient-33)"/>
        <path id="Trazado_167685" data-name="Trazado 167685" d="M1556.209,1430.867l-.868,4.621s-8.805,5.776-9.922,7.509-2.852,15.365-1.86,17.791a36.519,36.519,0,0,1,1.736,10.281,156.224,156.224,0,0,1,.31,16.115c-.372,9.242-.992,15.712-.744,18.715a84.093,84.093,0,0,1-.248,9.357l5.418,2.079a39.325,39.325,0,0,1-1.7-5.2c0-.809,5.981-1.68,11.844-.173,7.193,1.848,13.394,6.238,21.021,4.91l-2.108-21.718s-1.984-12.593-2.108-20.794-6.449-26.917-6.449-26.917l-2.966-4.91.115-4.39S1561.48,1432.889,1556.209,1430.867Z" transform="translate(-1524.246 -1403.599)" fill="#a0a603"/>
        <path id="Trazado_167686" data-name="Trazado 167686" d="M1547.781,1470.257c.208,1.2.423,2.4.652,3.585.06.3.123.593.178.89s.125.592.187.887.126.591.193.886.13.59.205.882l.209.882.229.876c.068.295.158.583.237.874s.156.584.248.872.177.578.261.869.188.574.281.863l.137.434c.048.144.1.285.153.429.1.286.2.573.3.865-.152-.264-.3-.533-.443-.8-.073-.135-.145-.269-.213-.407l-.194-.415c-.125-.279-.255-.557-.373-.839s-.221-.57-.333-.855-.208-.575-.3-.866-.2-.58-.28-.875l-.249-.883c-.078-.3-.149-.593-.224-.89s-.134-.6-.195-.9-.129-.6-.177-.9c-.1-.6-.2-1.206-.273-1.812A25.191,25.191,0,0,1,1547.781,1470.257Z" transform="translate(-1526.178 -1420.462)" fill="#6f7302"/>
        <path id="Trazado_167687" data-name="Trazado 167687" d="M1575.615,1486.281c-.05-.789-.061-1.57-.061-2.351s.009-1.559.021-2.336l.042-2.33c.007-.777.018-1.552,0-2.341a10.207,10.207,0,0,1,.452,2.322,19.812,19.812,0,0,1,.085,2.358c-.014.786-.061,1.57-.149,2.35A17.919,17.919,0,0,1,1575.615,1486.281Z" transform="translate(-1538.07 -1423.317)" fill="#6f7302"/>
        <path id="Trazado_167688" data-name="Trazado 167688" d="M1553.845,1493.569s3.8,9.126,5.067,11.668,5.32,5.891,16.087,11.436,17.834,6.348,17.834,6.348a2.129,2.129,0,0,1-.141-1.129c.564-1.693,2.754-.9,3.207-.778a87.735,87.735,0,0,1,8.233,3.184c2.787,1.5,1.9-2.079-.886-3.465-3.944-1.962-4.56-2.542-7.22-2.08s-4.94-.924-8.74-3.351-15.707-12.014-17.354-13.978-3.293-7.855-3.293-7.855-4.306-3-7.6-2.541A9.246,9.246,0,0,0,1553.845,1493.569Z" transform="translate(-1528.776 -1429.334)" fill="#ffd2b7"/>
        <path id="Trazado_167689" data-name="Trazado 167689" d="M1569.188,1409.918s5.081,3.523,8.723,3.523c3.235,0,2.517-3.127,2.657-4.736.046-.537.578-2.772.578-2.772s2.079.116,1.617-1.155c0,0-1.689-3.572-1.5-4.506.635-3.177.578-5.891-.462-7.047s-6.932-3.466-6.932-3.466l-11.437.924v14.094l2.942.851Z" transform="translate(-1532.452 -1386)" fill="#ffd2b7"/>
        <path id="Trazado_167690" data-name="Trazado 167690" d="M1561.42,1408.47s-1.852-2.408-3.906-5.607c-4.593-7.153-2.731-11.4-.754-14.72s5.491-5.424,8.572-4.868c4.04.729,8.565-.453,10.809,1.648,3.663,3.43,3.344,7.061,2.31,10.975-.144.546-4.38-2.6-7.024-5.821a11.18,11.18,0,0,1-5.112,7.352l-.017,4.28-1.614-.719s-1.133-5.593-3.1-5.125-2.072,1.71-1.5,3.615a6.8,6.8,0,0,0,2.195,3.119Z" transform="translate(-1529.124 -1383.186)" fill="#291f20"/>
      </g>
    </g>
  </g>
</svg>
